<svg xmlns="http://www.w3.org/2000/svg" width="525" height="329.999" viewBox="0 0 525 329.999">
  <g id="img11" transform="translate(-895 -6805.235)">
    <circle id="Elipse_4771" data-name="Elipse 4771" cx="159" cy="159" r="159" transform="translate(979 6805.235)" fill="#fcecdf"/>
    <g id="Grupo_88705" data-name="Grupo 88705" transform="translate(830.828 6759.615)">
      <g id="Grupo_88681" data-name="Grupo 88681" transform="translate(327.822 67.191)">
        <g id="Grupo_88674" data-name="Grupo 88674" transform="translate(0 32.259)">
          <g id="Grupo_88666" data-name="Grupo 88666" transform="translate(0 65.906)">
            <g id="Grupo_88662" data-name="Grupo 88662" transform="translate(0 70.673)">
              <path id="Trazado_145220" data-name="Trazado 145220" d="M457.684,326.851s-14.627,40.855-18.662,52.456c0,0-41.864,12.609-60.527,24.715s96.338,2.522,96.338,2.522l11.6-69.606Z" transform="translate(-376.447 -276.461)" fill="#ff9491"/>
              <g id="Grupo_88661" data-name="Grupo 88661" transform="translate(68.123)">
                <path id="Trazado_145221" data-name="Trazado 145221" d="M457.134,328.654s20.176,14.122,37.829,14.122,23.405-75.421,23.405-75.421S472.77,260.562,457.134,328.654Z" transform="translate(-457.134 -267.167)" fill="#4850f3"/>
                <path id="Trazado_145222" data-name="Trazado 145222" d="M504.185,303.376a133.42,133.42,0,0,1-23.67-18.692c-9.277,9.047-18.063,23.538-23.381,46.7,0,0,20.176,14.122,37.829,14.122,8.67,0,14.468-18.191,18.125-36.7Q508.57,306.193,504.185,303.376Z" transform="translate(-457.134 -269.895)" fill="#060458" opacity="0.2"/>
              </g>
            </g>
            <g id="Grupo_88665" data-name="Grupo 88665" transform="translate(90.519)">
              <g id="Grupo_88663" data-name="Grupo 88663" transform="translate(13.703)">
                <path id="Trazado_145223" data-name="Trazado 145223" d="M531.567,217.257s1.091,21.8,8.721,37.064,11.267-.74,11.267-.74-31.98-2.166-50.148,9.825,133.359-4,109.012-12.718-33.43,4.724-31.977-47.239S531.567,217.257,531.567,217.257Z" transform="translate(-499.89 -183.461)" fill="#ff9491"/>
                <path id="Trazado_145224" data-name="Trazado 145224" d="M560.772,243.012c11-11.369,16.616-26.431,23.524-40.442.868-50.293-46.888,14.69-46.888,14.69s.954,19.048,7.311,34C550.688,249.76,556.53,247.4,560.772,243.012Z" transform="translate(-505.732 -183.464)" fill="#ff7267"/>
              </g>
              <g id="Grupo_88664" data-name="Grupo 88664" transform="translate(0 62.726)">
                <path id="Trazado_145225" data-name="Trazado 145225" d="M522.5,265.89s26.163,18.9,69.042-7.995c0,0,35.61-3.634,44.331,26.163S622.79,390.89,622.79,390.89l-139.13-2.317s.322-58,5.409-86.346S497.79,270.251,522.5,265.89Z" transform="translate(-483.66 -257.756)" fill="#4850f3"/>
                <path id="Trazado_145226" data-name="Trazado 145226" d="M583.826,353.489c-22.6-5.037-45.765-11.907-66.316-22.742a187.519,187.519,0,0,1-28.675-18.7c-4.693,28.779-5.175,84.976-5.175,84.976l139.13,2.317s5.033-17.786,9.3-39.568A260.908,260.908,0,0,1,583.826,353.489Z" transform="translate(-483.66 -266.21)" fill="#060458" opacity="0.2"/>
              </g>
            </g>
          </g>
          <g id="Grupo_88673" data-name="Grupo 88673" transform="translate(103.214)">
            <g id="Grupo_88671" data-name="Grupo 88671">
              <g id="Grupo_88667" data-name="Grupo 88667" transform="translate(0 40.505)">
                <path id="Trazado_145227" data-name="Trazado 145227" d="M498.807,174.574c-1.08,12.457,5.9,21.973,15.152,24.037,21.589,4.814,17.982-8.615,19.062-21.072s8.373-25.593-15.152-24.037C508.405,154.128,499.886,162.118,498.807,174.574Z" transform="translate(-498.696 -153.376)" fill="#6e9bf5"/>
                <path id="Trazado_145228" data-name="Trazado 145228" d="M509.563,175.11c-1.08,12.456,5.7,23.218,15.152,24.037s17.982-8.616,19.062-21.073-5.7-23.218-15.152-24.036S510.642,162.653,509.563,175.11Z" transform="translate(-500.371 -153.471)" fill="#4850f3"/>
                <path id="Trazado_145229" data-name="Trazado 145229" d="M522.413,177.222c-.458,5.295,2.425,9.869,6.441,10.217s7.643-3.662,8.1-8.956-2.425-9.869-6.44-10.217S522.872,171.928,522.413,177.222Z" transform="translate(-502.382 -155.691)" fill="#4850f3"/>
              </g>
              <g id="Grupo_88668" data-name="Grupo 88668" transform="translate(6.034)">
                <path id="Trazado_145230" data-name="Trazado 145230" d="M518.447,132.9s-1.635,14.717,6.541,23.166,11.446-23.71,11.446-23.71Z" transform="translate(-507.785 -109.597)" fill="#060458"/>
                <path id="Trazado_145231" data-name="Trazado 145231" d="M578.194,163.7s-.545-27.253-26.707-27.8-32.159,15.807-33.794,31.614-14.171,44.695,13.627,53.961S580.919,210.577,578.194,163.7Z" transform="translate(-507.03 -110.148)" fill="#ff9491"/>
                <path id="Trazado_145232" data-name="Trazado 145232" d="M513.236,181.846s-14.172,21.8-3.271,35.429,55.051,17.442,62.683-4.088,7.267-33.249,8.9-42.242,10.72-26.98.364-50.146l3,9.811s-2.725-20.168-19.077-22.347l1.907,4.633s-15.534-14.171-40.88-3.543l5.178,3.815s-11.719,1.635-19.895-4.088c0,0-8.175,22.893,14.99,28.343,0,0,20.168,3.816,32.7.273,0,0-.545,13.354,10.084,16.625,0,0,5.451,50.146-6.541,48.783-8.94-1.017,2.725-18.532-7.9-19.895s-34.339-6.268-35.43,3.27.818,14.717-2.453,14.717S511.328,193.292,513.236,181.846Z" transform="translate(-505.843 -105.4)" fill="#060458"/>
              </g>
              <g id="Grupo_88670" data-name="Grupo 88670" transform="translate(60.301 3.044)">
                <g id="Grupo_88669" data-name="Grupo 88669" transform="translate(2.199 38.362)">
                  <path id="Trazado_145233" data-name="Trazado 145233" d="M572.834,176.726c-1.079,12.457,5.9,21.973,15.152,24.037,21.589,4.814,17.982-8.615,19.061-21.072S615.42,154.1,591.9,155.654C582.433,156.28,573.914,164.27,572.834,176.726Z" transform="translate(-572.723 -154.611)" fill="#4850f3"/>
                  <ellipse id="Elipse_4765" data-name="Elipse 4765" cx="22.639" cy="17.171" rx="22.639" ry="17.171" transform="translate(7.238 45.109) rotate(-85.047)" fill="#6e9bf5"/>
                  <path id="Trazado_145234" data-name="Trazado 145234" d="M596.441,179.374c-.459,5.295,2.425,9.869,6.44,10.217s7.643-3.662,8.1-8.956-2.425-9.869-6.441-10.217S596.9,174.08,596.441,179.374Z" transform="translate(-576.409 -156.927)" fill="#4850f3"/>
                </g>
                <path id="Trazado_145235" data-name="Trazado 145235" d="M601.733,167.872s8.721-53.78-31.614-58.866c0,0,29.8,12.718,27.063,57.413Z" transform="translate(-570.119 -109.006)" fill="#4850f3"/>
              </g>
            </g>
            <g id="Grupo_88672" data-name="Grupo 88672" transform="translate(18.604 43.056)">
              <path id="Trazado_145236" data-name="Trazado 145236" d="M553.715,173.037c0,2.21-.8,4-1.787,4s-1.787-1.792-1.787-4,.8-4,1.787-4S553.715,170.828,553.715,173.037Z" transform="translate(-525.311 -158.365)" fill="#020230"/>
              <path id="Trazado_145237" data-name="Trazado 145237" d="M527.606,170.819c0,2.209-.8,4-1.787,4s-1.787-1.792-1.787-4,.8-4,1.787-4S527.606,168.61,527.606,170.819Z" transform="translate(-521.246 -158.02)" fill="#020230"/>
              <path id="Trazado_145238" data-name="Trazado 145238" d="M547.846,161.657s10.9-10.356,17.442,2.725" transform="translate(-524.954 -156.61)" fill="none" stroke="#060458" stroke-miterlimit="10" stroke-width="5.165"/>
              <path id="Trazado_145239" data-name="Trazado 145239" d="M520.732,160.081c5.2-4.7,12.469-5.492,16.538,1.106" transform="translate(-520.732 -156.397)" fill="none" stroke="#060458" stroke-miterlimit="10" stroke-width="5.165"/>
              <path id="Trazado_145240" data-name="Trazado 145240" d="M530.738,204.015s10.356,1.635,28.071.273C558.809,204.288,544.91,222,530.738,204.015Z" transform="translate(-522.29 -163.812)" fill="#fff"/>
              <path id="Trazado_145241" data-name="Trazado 145241" d="M540.234,164.957s-5.178,7.9-6.268,24.255l8.176.545" transform="translate(-522.793 -157.73)" fill="none" stroke="#ff5f5e" stroke-miterlimit="10" stroke-width="2.582"/>
            </g>
          </g>
        </g>
        <g id="Grupo_88677" data-name="Grupo 88677" transform="translate(41.37 162.892)">
          <g id="Grupo_88675" data-name="Grupo 88675" transform="translate(14.573)">
            <rect id="Rectángulo_35032" data-name="Rectángulo 35032" width="81.012" height="26.294" rx="12.626" transform="translate(0 67.66) rotate(-56.635)" fill="#ea5757"/>
            <path id="Trazado_145242" data-name="Trazado 145242" d="M476.962,284.624l9.771-14.838a10.66,10.66,0,0,1,14.766-3.04l4.155,2.736a10.66,10.66,0,0,1,3.04,14.766l-9.771,14.838Z" transform="translate(-448.041 -260.883)" fill="#060458"/>
          </g>
          <g id="Grupo_88676" data-name="Grupo 88676" transform="translate(0 39.75)">
            <path id="Trazado_145243" data-name="Trazado 145243" d="M474.815,407.41a4.975,4.975,0,0,0,4.975,4.975h0a4.975,4.975,0,0,0,4.975-4.975V312.182a4.975,4.975,0,0,0-4.975-4.975h0a4.975,4.975,0,0,0-4.975,4.975Z" transform="translate(-433.134 -307.207)" fill="#ff7267"/>
            <path id="Trazado_145244" data-name="Trazado 145244" d="M483.315,312.93a3.2,3.2,0,1,1-3.2-3.2A3.2,3.2,0,0,1,483.315,312.93Z" transform="translate(-433.462 -307.6)" fill="#fff"/>
            <path id="Trazado_145245" data-name="Trazado 145245" d="M425.447,411.518a6.411,6.411,0,0,0,6.411,6.411h85.476a6.41,6.41,0,0,0,6.411-6.411h0a6.411,6.411,0,0,0-6.411-6.411H431.858a6.411,6.411,0,0,0-6.411,6.411Z" transform="translate(-425.447 -322.451)" fill="#ea5757"/>
          </g>
        </g>
        <g id="Grupo_88680" data-name="Grupo 88680" transform="translate(8.46)">
          <g id="Grupo_88678" data-name="Grupo 88678">
            <rect id="Rectángulo_35033" data-name="Rectángulo 35033" width="96.694" height="49.887" rx="7.295" fill="#ea5757"/>
            <path id="Trazado_145246" data-name="Trazado 145246" d="M461.474,122.591,480.88,142V121.229Z" transform="translate(-398.146 -75.606)" fill="#ea5757"/>
          </g>
          <g id="Grupo_88679" data-name="Grupo 88679" transform="translate(19.407 19.747)">
            <circle id="Elipse_4766" data-name="Elipse 4766" cx="5.448" cy="5.448" r="5.448" transform="translate(0 0)" fill="#fff"/>
            <circle id="Elipse_4767" data-name="Elipse 4767" cx="5.448" cy="5.448" r="5.448" transform="translate(23.493)" fill="#fff"/>
            <path id="Trazado_145247" data-name="Trazado 145247" d="M476,96.028a5.447,5.447,0,1,1-5.447-5.447A5.447,5.447,0,0,1,476,96.028Z" transform="translate(-418.118 -90.581)" fill="#fff"/>
          </g>
        </g>
      </g>
      <g id="Grupo_88702" data-name="Grupo 88702" transform="translate(93.362 95.049)">
        <g id="Grupo_88695" data-name="Grupo 88695" transform="translate(0 49.822)">
          <path id="Trazado_145248" data-name="Trazado 145248" d="M217.863,389.353a8.547,8.547,0,0,1-7.258,9.666L120.057,411.9a8.547,8.547,0,0,1-9.666-7.258l-11.56-81.238a8.548,8.548,0,0,1,7.258-9.666l90.547-12.885a8.547,8.547,0,0,1,9.666,7.258Z" transform="translate(-98.745 -181.242)" fill="#ea5757"/>
          <g id="Grupo_88686" data-name="Grupo 88686" transform="translate(6.057)">
            <g id="Grupo_88684" data-name="Grupo 88684">
              <g id="Grupo_88682" data-name="Grupo 88682" transform="translate(58.604 1.956)">
                <path id="Trazado_145249" data-name="Trazado 145249" d="M181.645,168.789s23.1-18.122,44.061,2.843-4.264,43.35,11.015,59.34,3.553,41.574-13.147,46.193-26.295,3.909-28.071-7.106S181.645,168.789,181.645,168.789Z" transform="translate(-176.315 -161.515)" fill="#03033f"/>
                <path id="Trazado_145250" data-name="Trazado 145250" d="M201.627,258.091s-3.2,28.781.355,28.071,22.385-8.528,27.36-4.62-19.9,44.061-54.01,17.767l3.554-40.864Z" transform="translate(-175.332 -176.553)" fill="#ff7267"/>
              </g>
              <g id="Grupo_88683" data-name="Grupo 88683">
                <path id="Trazado_145251" data-name="Trazado 145251" d="M159.581,241.911s21.318,19.179,40.333,18.1c16.416-.926,21.262-25.346,20.682-41.979-.572-16.4-10.975-42.2-37.437-39.659S133.8,203.924,159.581,241.911Z" transform="translate(-112.518 -162.157)" fill="#ff9491"/>
                <path id="Trazado_145252" data-name="Trazado 145252" d="M160.26,159.545s20.254-3.554,22.03,12.081c1.567,13.787-23.1,14.569-19.9,34.467s12.792,58.629-21.675,69.289c-20.518,6.346-15.635,31.269-15.635,31.269s-30.914-11.371-14.214-43.705c10.827-20.963,11.97-25.941,12.436-64.67C123.661,168.783,145.692,163.809,160.26,159.545Z" transform="translate(-105.92 -159.198)" fill="#060458"/>
              </g>
            </g>
            <g id="Grupo_88685" data-name="Grupo 88685" transform="translate(66.777 42.5)">
              <path id="Trazado_145253" data-name="Trazado 145253" d="M212.063,220.213s.694,9.594,8.43,14.924l-6.4,4.619" transform="translate(-189.224 -211.198)" fill="none" stroke="#ff5f5e" stroke-miterlimit="10" stroke-width="2.571"/>
              <path id="Trazado_145254" data-name="Trazado 145254" d="M194.174,248.214s14.735,7.462,25.418-1.066" transform="translate(-186.439 -215.392)" fill="none" stroke="#ff5f5e" stroke-miterlimit="10" stroke-width="2.571"/>
              <path id="Trazado_145255" data-name="Trazado 145255" d="M217.733,226.114s-.368-6.041,3.684-6.752,4.052,6.4,4.052,6.4" transform="translate(-190.106 -211.058)" fill="none" stroke="#03033f" stroke-miterlimit="10" stroke-width="1.263"/>
              <path id="Trazado_145256" data-name="Trazado 145256" d="M191.555,228.218s-.369-6.041,3.684-6.751,4.052,6.4,4.052,6.4" transform="translate(-186.03 -211.386)" fill="none" stroke="#03033f" stroke-miterlimit="10" stroke-width="1.263"/>
              <path id="Trazado_145257" data-name="Trazado 145257" d="M214.245,215.352s5.525-12.081,15.471-1.421" transform="translate(-189.564 -209.536)" fill="none" stroke="#03033f" stroke-miterlimit="10" stroke-width="3.788"/>
              <path id="Trazado_145258" data-name="Trazado 145258" d="M185.012,217.457s6.16-12.082,17.248-1.422" transform="translate(-185.012 -209.863)" fill="none" stroke="#03033f" stroke-miterlimit="10" stroke-width="3.999"/>
            </g>
          </g>
          <g id="Grupo_88691" data-name="Grupo 88691" transform="translate(22.635 6.631)">
            <g id="Grupo_88689" data-name="Grupo 88689" transform="translate(80.046)">
              <g id="Grupo_88687" data-name="Grupo 88687" transform="translate(0.696)">
                <path id="Trazado_145259" data-name="Trazado 145259" d="M235.411,301.782s66.233-12.557,78.157-27.149-7.831-141.7-7.374-89.253c0,0-5.754-41.2-4.827-.051,0,0-4.635-35.424-5.886.057,0,0-5.376-32.136-4.4,9.549,0,0-17.087-15.423-1,5.994,0,0-2.265,25.4-4.687,54.576,0,0-54.993,7.14-62.517,17.54S235.411,301.782,235.411,301.782Z" transform="translate(-221.188 -167.052)" fill="#ff9491"/>
                <path id="Trazado_145260" data-name="Trazado 145260" d="M262.91,300.394c-.158-8.328-2.488-15.6-5-23.043-14.96,3.094-31.191,7.556-35.035,12.869-7.524,10.4,12.534,28.737,12.534,28.737s11.965-2.269,26.638-6A81.861,81.861,0,0,0,262.91,300.394Z" transform="translate(-221.188 -184.226)" fill="#ff7267"/>
              </g>
              <g id="Grupo_88688" data-name="Grupo 88688" transform="translate(0 91.965)">
                <path id="Trazado_145261" data-name="Trazado 145261" d="M228.892,291.967l-8.528-7.995a102.478,102.478,0,0,1,33.579-8s6.4,23.985,3.731,41.041l-18.655,8.528Z" transform="translate(-220.364 -275.977)" fill="#82b8fc"/>
                <path id="Trazado_145262" data-name="Trazado 145262" d="M228.892,291.967l-8.528-7.995a102.478,102.478,0,0,1,33.579-8s6.4,23.985,3.731,41.041l-18.655,8.528Z" transform="translate(-220.364 -275.977)" fill="#629ad1"/>
              </g>
            </g>
            <g id="Grupo_88690" data-name="Grupo 88690" transform="translate(0 96.229)">
              <path id="Trazado_145263" data-name="Trazado 145263" d="M157.1,286.891s-33.579,5.863-31.447,32.513,24.518,78.35,24.518,78.35h70.888s1.6-21.32,2.665-30.914c0,0,14.391-12.259,12.792-29.848S215.2,281.028,215.2,281.028l-9.594,3.731s5.33,18.655-12.258,23.452S157.1,286.891,157.1,286.891Z" transform="translate(-125.555 -281.028)" fill="#82b8fc"/>
              <path id="Trazado_145264" data-name="Trazado 145264" d="M225.856,355.705c-17.819,3.528-37.971,3.081-55.735-.563-16.036-3.289-34.085-13.1-44.325-27.279,2.667,26.961,24.412,77.183,24.412,77.183h79.214s-3.3-13.438-5.661-30.914c0,0,9.855-8.407,12.343-21.279A74.329,74.329,0,0,1,225.856,355.705Z" transform="translate(-125.592 -288.321)" fill="#629ad1"/>
            </g>
          </g>
          <g id="Grupo_88694" data-name="Grupo 88694" transform="translate(21.496 0.347)">
            <g id="Grupo_88693" data-name="Grupo 88693">
              <g id="Grupo_88692" data-name="Grupo 88692" transform="translate(0 37.454)">
                <path id="Trazado_145265" data-name="Trazado 145265" d="M172.752,224.366c2.781,11.985-2.693,22.223-11.424,25.519-20.363,7.686-18.714-5.9-21.494-17.881s-11.71-23.77,11.423-25.519C160.562,205.78,169.971,212.38,172.752,224.366Z" transform="translate(-126.012 -204.355)" fill="#4850f3"/>
                <ellipse id="Elipse_4768" data-name="Elipse 4768" cx="16.897" cy="22.277" rx="16.897" ry="22.277" transform="translate(0 7.639) rotate(-13.064)" fill="#6e9bf5"/>
                <path id="Trazado_145266" data-name="Trazado 145266" d="M154,229.9c1.182,5.094-.992,9.951-4.855,10.847s-7.955-2.507-9.137-7.6.992-9.951,4.856-10.847S152.813,224.81,154,229.9Z" transform="translate(-126.615 -206.804)" fill="#4850f3"/>
              </g>
              <path id="Trazado_145267" data-name="Trazado 145267" d="M142.976,218.238s-18.833-47.969,22.385-58.629c0,0-29.848,15.635-16.7,57.918Z" transform="translate(-126.46 -159.609)" fill="#4850f3"/>
            </g>
            <path id="Trazado_145268" data-name="Trazado 145268" d="M158.984,247.269s15.635,7.817,17.055,13.147-3.2,96.294-18.833,105.888-34.466-6.4-28.781-24.874,30.2-78.172,30.2-78.172S145.837,254.02,144.415,243c-.591-4.581,1.777-35.177,3.554-.355,0,0,11.725-40.864,4.975,2.132,0,0,17.766-36.954,3.554.711,0,0,18.832-24.518,2.487,3.2" transform="translate(-124.701 -169.807)" fill="#ffaba9"/>
          </g>
        </g>
        <g id="Grupo_88698" data-name="Grupo 88698" transform="translate(148.482 159.71)">
          <g id="Grupo_88696" data-name="Grupo 88696" transform="translate(3.858)">
            <path id="Trazado_145269" data-name="Trazado 145269" d="M358.749,319.075c-1.187,5.766-2.645,10.339-8.412,9.152l-62.645-12.9a10.659,10.659,0,0,1-8.291-12.59l1-4.873A10.66,10.66,0,0,1,293,289.573l62.645,12.9c5.767,1.187,5.3,5.964,4.113,11.73Z" transform="translate(-279.181 -289.352)" fill="#ea5757"/>
            <path id="Trazado_145270" data-name="Trazado 145270" d="M310.4,293.156,293,289.573a10.66,10.66,0,0,0-12.591,8.291l-1,4.873a10.659,10.659,0,0,0,8.291,12.59l17.4,3.583Z" transform="translate(-279.181 -289.352)" fill="#060458"/>
          </g>
          <g id="Grupo_88697" data-name="Grupo 88697" transform="translate(0 15.075)">
            <path id="Trazado_145271" data-name="Trazado 145271" d="M339.833,407.41a4.975,4.975,0,0,1-4.975,4.975h0a4.975,4.975,0,0,1-4.975-4.975V312.182a4.975,4.975,0,0,1,4.975-4.975h0a4.975,4.975,0,0,1,4.975,4.975Z" transform="translate(-283.218 -307.207)" fill="#ff7267"/>
            <path id="Trazado_145272" data-name="Trazado 145272" d="M331.988,312.93a3.2,3.2,0,1,0,3.2-3.2A3.2,3.2,0,0,0,331.988,312.93Z" transform="translate(-283.545 -307.6)" fill="#fff"/>
            <path id="Trazado_145273" data-name="Trazado 145273" d="M372.908,411.518a6.411,6.411,0,0,1-6.411,6.411H281.022a6.41,6.41,0,0,1-6.411-6.411h0a6.411,6.411,0,0,1,6.411-6.411H366.5a6.411,6.411,0,0,1,6.411,6.411Z" transform="translate(-274.611 -322.451)" fill="#ea5757"/>
          </g>
        </g>
        <g id="Grupo_88701" data-name="Grupo 88701" transform="translate(118.081)">
          <g id="Grupo_88699" data-name="Grupo 88699">
            <rect id="Rectángulo_35034" data-name="Rectángulo 35034" width="96.694" height="49.887" rx="7.295" fill="#4850f3"/>
            <path id="Trazado_145274" data-name="Trazado 145274" d="M274.545,155.586l-19.407,19.407V154.225Z" transform="translate(-241.178 -108.602)" fill="#4850f3"/>
          </g>
          <g id="Grupo_88700" data-name="Grupo 88700" transform="translate(19.407 19.747)">
            <circle id="Elipse_4769" data-name="Elipse 4769" cx="5.448" cy="5.448" r="5.448" transform="translate(46.985)" fill="#fff"/>
            <circle id="Elipse_4770" data-name="Elipse 4770" cx="5.448" cy="5.448" r="5.448" transform="translate(23.492)" fill="#fff"/>
            <path id="Trazado_145275" data-name="Trazado 145275" d="M261.59,129.024a5.447,5.447,0,1,0,5.447-5.447A5.448,5.448,0,0,0,261.59,129.024Z" transform="translate(-261.59 -123.577)" fill="#fff"/>
          </g>
        </g>
      </g>
      <g id="Grupo_88703" data-name="Grupo 88703" transform="translate(64.172 360.085)">
        <path id="Trazado_145276" data-name="Trazado 145276" d="M589.172,422.244c0,3.748-7.38,6.786-16.483,6.786H80.656c-9.1,0-16.484-3.038-16.484-6.786v-1.357c0-3.747,7.38-6.785,16.484-6.785H572.689c9.1,0,16.483,3.038,16.483,6.785Z" transform="translate(-64.172 -414.103)" fill="#060458"/>
      </g>
      <g id="Grupo_88704" data-name="Grupo 88704" transform="translate(409.941 291.449)">
        <path id="Trazado_145277" data-name="Trazado 145277" d="M583.451,332.809s24.709,11.628,45.058,15.262c0,0-19.622,58.139-34.883,59.593s-167.153-5.814-99.565-10.9c0,0-45.785-.727,0-5.814,0,0-41.424-.727,0-4.361,0,0-33.43,2.181,4.361-5.814A563.692,563.692,0,0,1,569.643,370.6S576.91,349.524,583.451,332.809Z" transform="translate(-473.711 -332.809)" fill="#ff9491"/>
        <path id="Trazado_145278" data-name="Trazado 145278" d="M646.939,352.453c.994-2.736,1.549-4.382,1.549-4.382-20.349-3.634-45.058-15.262-45.058-15.262-.468,1.195-.939,2.413-1.411,3.642A172.187,172.187,0,0,0,646.939,352.453Z" transform="translate(-493.69 -332.809)" fill="#ff7267"/>
      </g>
    </g>
  </g>
</svg>
