<svg xmlns="http://www.w3.org/2000/svg" width="230" height="230" viewBox="0 0 230 230">
  <g id="img19" transform="translate(-550 -10938.474)">
    <g id="Elipse_2" data-name="Elipse 2" transform="translate(550 10938.474)" fill="#3e2ea6" stroke="#707070" stroke-width="1">
      <circle cx="115" cy="115" r="115" stroke="none"/>
      <circle cx="115" cy="115" r="114.5" fill="none"/>
    </g>
    <g id="Grupo_106809" data-name="Grupo 106809" transform="translate(-376.686 10530.771)">
      <path id="Trazado_145897" data-name="Trazado 145897" d="M1041.13,527.338a4.325,4.325,0,0,1-3.463-6.915l5.652-7.557c-8.635-3.889-17.612-2.733-20.645,2.908-3.245,6.037,1.546,14.921,10.7,19.842s19.209,4.018,22.454-2.019c2.33-4.335.516-10.137-4.081-14.887l-7.6,7.4A4.3,4.3,0,0,1,1041.13,527.338Z" fill="#fff"/>
      <path id="Trazado_145898" data-name="Trazado 145898" d="M1072.636,546.856c-6.966,12.959-28.622,14.906-48.275,4.342s-29.976-29.7-23.01-42.66,28.622-14.906,48.275-4.342l.125.07,4.612-6.166c-.644-.366-1.286-.733-1.944-1.087-28.683-15.418-60.289-12.576-70.455,6.336s4.9,46.841,33.581,62.26,60.289,12.576,70.455-6.336c8.505-15.822-.657-37.95-20.67-53.789l-5.645,5.5C1072.554,521.752,1078.289,536.339,1072.636,546.856Z" fill="#fff"/>
      <path id="Trazado_145899" data-name="Trazado 145899" d="M1069.85,496.879l0,0,16.773-1.038,17.954-20.486-20.212,1.331-2.876-2.52-1.331-20.212-17.954,20.486,1.1,16.729,0,.006-6.337,8.472q3.1,1.9,5.941,3.994Z" fill="#fff"/>
      <path id="Trazado_145900" data-name="Trazado 145900" d="M1049.521,516.676l7.779-7.576q-2.33-1.749-4.92-3.321l-6.346,8.485A27.837,27.837,0,0,1,1049.521,516.676Z" fill="#fff"/>
      <path id="Trazado_145901" data-name="Trazado 145901" d="M1040.079,522.227a1.313,1.313,0,0,0,1.968,1.727l7.474-7.278a27.837,27.837,0,0,0-3.487-2.412Z" fill="#fff"/>
      <path id="Trazado_145902" data-name="Trazado 145902" d="M1062.91,503.637q-2.841-2.086-5.941-3.994l-4.589,6.136q2.587,1.568,4.92,3.321Z" fill="#fff"/>
    </g>
  </g>
</svg>
