<svg xmlns="http://www.w3.org/2000/svg" width="620" height="385" viewBox="0 0 620 385">
  <g id="img17" transform="translate(-800 -9169)">
    <g id="Grupo_106794" data-name="Grupo 106794" transform="translate(4488.946 12249.422)">
      <g id="freepik--Screen--inject-2" transform="translate(-3634.446 -3071.722)">
        <rect id="Rectángulo_35060" data-name="Rectángulo 35060" width="444.216" height="342.614" transform="translate(0.243 0.406)" fill="#fff"/>
        <rect id="Rectángulo_35061" data-name="Rectángulo 35061" width="381.587" height="11.49" transform="translate(26.346 217.141)" fill="#ebebeb"/>
        <rect id="Rectángulo_35062" data-name="Rectángulo 35062" width="381.587" height="11.49" transform="translate(26.157 201.906)" fill="#ebebeb"/>
        <rect id="Rectángulo_35063" data-name="Rectángulo 35063" width="381.587" height="11.49" transform="translate(26.157 186.468)" fill="#ebebeb"/>
        <rect id="Rectángulo_35064" data-name="Rectángulo 35064" width="381.587" height="11.49" transform="translate(26.157 171.03)" fill="#ebebeb"/>
        <rect id="Rectángulo_35065" data-name="Rectángulo 35065" width="381.587" height="11.49" transform="translate(26.346 232.916)" fill="#ebebeb"/>
        <rect id="Rectángulo_35066" data-name="Rectángulo 35066" width="381.587" height="11.49" transform="translate(26.346 247.799)" fill="#ebebeb"/>
        <rect id="Rectángulo_35067" data-name="Rectángulo 35067" width="381.587" height="11.49" transform="translate(26.346 263.291)" fill="#ebebeb"/>
        <rect id="Rectángulo_35068" data-name="Rectángulo 35068" width="381.587" height="11.49" transform="translate(26.346 278.012)" fill="#ebebeb"/>
        <rect id="Rectángulo_35069" data-name="Rectángulo 35069" width="381.587" height="11.49" transform="translate(26.346 292.166)" fill="#ebebeb"/>
        <rect id="Rectángulo_35070" data-name="Rectángulo 35070" width="381.587" height="11.49" transform="translate(26.346 308.252)" fill="#ebebeb"/>
        <rect id="Rectángulo_35071" data-name="Rectángulo 35071" width="444.662" height="25.495" transform="translate(0.243 0.068)" fill="#fcecdf"/>
        <path id="Trazado_145784" data-name="Trazado 145784" d="M-3610.572-3033.032h-2.7v-1h6.637v1h-2.7V-3026h-1.136Z" transform="translate(3641.894 3084.981)" fill="#263238"/>
        <path id="Trazado_145785" data-name="Trazado 145785" d="M-3608.476-3029.505a3.162,3.162,0,0,1,3.108-3.216,3.162,3.162,0,0,1,3.218,3.108,3.162,3.162,0,0,1-3.109,3.217h-.053a3.029,3.029,0,0,1-3.162-2.887C-3608.477-3029.358-3608.478-3029.431-3608.476-3029.505Zm5.2,0a2.054,2.054,0,0,0-2.135-1.971,2.055,2.055,0,0,0-1.972,2.133,2.054,2.054,0,0,0,2.039,1.973,2,2,0,0,0,2.071-1.927C-3603.266-3029.366-3603.267-3029.435-3603.271-3029.505Z" transform="translate(3643.582 3085.443)" fill="#263238"/>
        <path id="Trazado_145786" data-name="Trazado 145786" d="M-3600.786-3031.848a.772.772,0,0,1,.757-.784h.013a.785.785,0,0,1,.784.784.784.784,0,0,1-.784.784.77.77,0,0,1-.77-.771Zm0,4.623a.771.771,0,0,1,.757-.784h.013a.757.757,0,0,1,.757.757v.027a.771.771,0,0,1-.744.8h-.013a.77.77,0,0,1-.77-.743Z" transform="translate(3646.288 3085.474)" fill="#263238"/>
        <path id="Trazado_145787" data-name="Trazado 145787" d="M-3614.956-2996.628l.419-.879a4.142,4.142,0,0,0,2.622.919c1.352,0,1.96-.541,1.96-1.23,0-1.933-4.8-.717-4.8-3.663,0-1.217.946-2.271,3.028-2.271a4.755,4.755,0,0,1,2.555.7l-.378.919a4.06,4.06,0,0,0-2.177-.649c-1.352,0-1.919.567-1.919,1.257,0,1.933,4.8.73,4.8,3.636,0,1.217-.973,2.258-3.069,2.258A4.689,4.689,0,0,1-3614.956-2996.628Z" transform="translate(3641.303 3095.634)" fill="#263238"/>
        <path id="Trazado_145788" data-name="Trazado 145788" d="M-3603.678-3002.252v6h-1.027v-.906a2.446,2.446,0,0,1-2.041.973,2.364,2.364,0,0,1-2.6-2.109,2.226,2.226,0,0,1,0-.5v-3.461h1.095v3.325c0,1.189.595,1.771,1.622,1.771a1.758,1.758,0,0,0,1.864-1.644,1.819,1.819,0,0,0-.012-.343v-3.109Z" transform="translate(3643.273 3096.162)" fill="#263238"/>
        <path id="Trazado_145789" data-name="Trazado 145789" d="M-3597.437-2998.625a2.921,2.921,0,0,1-2.766,3.067c-.088,0-.174.005-.262,0a2.538,2.538,0,0,1-2.15-1.014v.946h-1.041v-8.408h1.081v3.3a2.571,2.571,0,0,1,2.109-.959,2.907,2.907,0,0,1,3.029,2.778C-3597.432-2998.818-3597.432-2998.721-3597.437-2998.625Zm-1.1,0a2.028,2.028,0,0,0-2.121-1.931,2.028,2.028,0,0,0-1.93,2.12,2.027,2.027,0,0,0,2.023,1.933,1.972,1.972,0,0,0,2.032-1.913A1.818,1.818,0,0,0-3598.533-2998.625Z" transform="translate(3645.278 3095.535)" fill="#263238"/>
        <path id="Trazado_145790" data-name="Trazado 145790" d="M-3599.476-2993.672l.352-.838a1.349,1.349,0,0,0,.879.284c.581,0,.906-.365.906-1.055v-6.3h1.082v6.3a1.786,1.786,0,0,1-1.564,1.982,1.7,1.7,0,0,1-.356.005A2.077,2.077,0,0,1-3599.476-2993.672Zm1.934-9.773a.73.73,0,0,1,.743-.717h0a.716.716,0,0,1,.688.744.716.716,0,0,1-.742.689A.716.716,0,0,1-3597.543-3003.446Z" transform="translate(3646.749 3095.49)" fill="#263238"/>
        <path id="Trazado_145791" data-name="Trazado 145791" d="M-3590-2998.872h-4.866a2.039,2.039,0,0,0,2.176,1.758,2.227,2.227,0,0,0,1.73-.73l.608.7a3.039,3.039,0,0,1-2.379.973,3,3,0,0,1-3.223-2.76,2.951,2.951,0,0,1-.008-.308,2.935,2.935,0,0,1,2.808-3.054c.069,0,.137,0,.206,0a2.893,2.893,0,0,1,2.979,2.8,2.911,2.911,0,0,1-.005.292A2.262,2.262,0,0,0-3590-2998.872Zm-4.88-.784h3.853a1.934,1.934,0,0,0-2.089-1.764A1.931,1.931,0,0,0-3594.884-2999.656Z" transform="translate(3647.983 3096.147)" fill="#263238"/>
        <path id="Trazado_145792" data-name="Trazado 145792" d="M-3590.845-2999.235a2.986,2.986,0,0,1,2.913-3.059c.088,0,.176,0,.264,0a2.7,2.7,0,0,1,2.447,1.271l-.824.541a1.854,1.854,0,0,0-1.636-.866,2.123,2.123,0,0,0-1.946,2.286,2.12,2.12,0,0,0,1.946,1.945,1.854,1.854,0,0,0,1.636-.865l.824.527a2.7,2.7,0,0,1-2.447,1.352,3,3,0,0,1-3.175-2.816A3.048,3.048,0,0,1-3590.845-2999.235Z" transform="translate(3649.784 3096.146)" fill="#263238"/>
        <path id="Trazado_145793" data-name="Trazado 145793" d="M-3581.974-2996.25a2.091,2.091,0,0,1-1.352.419,1.716,1.716,0,0,1-1.9-1.508,1.632,1.632,0,0,1,0-.372v-3.3h-1.014v-.892h1.014v-1.352h1.1v1.352h1.717v.892h-1.717v3.258a.878.878,0,0,0,.745.995.844.844,0,0,0,.2.006,1.348,1.348,0,0,0,.852-.284Z" transform="translate(3651.403 3095.81)" fill="#263238"/>
        <path id="Trazado_145794" data-name="Trazado 145794" d="M-3580.336-3001.5a.757.757,0,0,1,.743-.771h.027a.743.743,0,0,1,.743.744v.027a.757.757,0,0,1-.73.784h-.013a.77.77,0,0,1-.771-.77Zm0,4.582a.756.756,0,0,1,.743-.77h.027a.743.743,0,0,1,.743.743v.027a.743.743,0,0,1-.717.771h-.027a.756.756,0,0,1-.771-.742Z" transform="translate(3653.482 3096.155)" fill="#263238"/>
        <path id="Trazado_145795" data-name="Trazado 145795" d="M-3621.289-3061.539a2.7,2.7,0,0,1-2.7,2.7,2.7,2.7,0,0,1-2.7-2.7,2.7,2.7,0,0,1,2.7-2.7A2.7,2.7,0,0,1-3621.289-3061.539Z" transform="translate(3637.173 3074.354)" fill="#fff"/>
        <path id="Trazado_145796" data-name="Trazado 145796" d="M-3614.019-3061.539a2.7,2.7,0,0,1-2.7,2.7,2.7,2.7,0,0,1-2.7-2.7,2.7,2.7,0,0,1,2.7-2.7A2.7,2.7,0,0,1-3614.019-3061.539Z" transform="translate(3639.73 3074.354)" fill="#fff"/>
        <path id="Trazado_145797" data-name="Trazado 145797" d="M-3606.749-3061.539a2.7,2.7,0,0,1-2.7,2.7,2.7,2.7,0,0,1-2.7-2.7,2.7,2.7,0,0,1,2.7-2.7A2.705,2.705,0,0,1-3606.749-3061.539Z" transform="translate(3642.288 3074.354)" fill="#fff"/>
        <path id="Trazado_145798" data-name="Trazado 145798" d="M-3536.669-2957.649v-4.718c0-3.055,0-7.449-.121-12.991l.2.189-79.757.163h0l.351-.352h0v17.682l-.378-.311,56.776.162,16.8.095h.162l-16.721.094-56.992.149h-.351v-17.844h0l.351-.352h0l79.757.149h.2v.2c0,5.583-.082,10.031-.108,13.113v4.231A1.138,1.138,0,0,1-3536.669-2957.649Z" transform="translate(3640.691 3105.509)" fill="#263238"/>
        <path id="Trazado_145799" data-name="Trazado 145799" d="M-3509.669-2957.6a.994.994,0,0,1,0-.338v-.933c0-.878,0-2.055-.068-3.555,0-3.1-.068-7.489-.135-12.883l.257.243-43.636.109.351-.352h0v17.682l-.338-.338,31.186.163,9.111.094h3.339a5.178,5.178,0,0,1-.8,0h-2.393l-9.03.095-31.416.162h-.338v-18.02h0l.351-.351,43.636.095h.243v.257c0,5.407-.108,9.9-.135,13.031v3.5A3.889,3.889,0,0,1-3509.669-2957.6Z" transform="translate(3662.896 3105.459)" fill="#263238"/>
        <path id="Trazado_145800" data-name="Trazado 145800" d="M-3609.66-2970.321h-2.866v-1.041h6.921v1.041h-2.865v7.313h-1.19Z" transform="translate(3642.157 3107.029)" fill="#263238"/>
        <path id="Trazado_145801" data-name="Trazado 145801" d="M-3606.836-2971.1a.756.756,0,0,1,.755-.757h.029a.743.743,0,0,1,.769.717v.013a.784.784,0,0,1-.88.675.783.783,0,0,1-.675-.675Zm.2,1.96h1.149v6.326h-1.149Z" transform="translate(3644.159 3106.853)" fill="#263238"/>
        <path id="Trazado_145802" data-name="Trazado 145802" d="M-3600.432-2963.539a2.182,2.182,0,0,1-1.352.446,1.811,1.811,0,0,1-2.012-1.585,1.77,1.77,0,0,1,0-.4v-3.474h-1.068v-.946h1.068v-1.352h1.149v1.352h1.811v.946h-1.811v3.461c0,.689.351,1.068.987,1.068a1.482,1.482,0,0,0,.906-.3Z" transform="translate(3644.852 3107.208)" fill="#263238"/>
        <path id="Trazado_145803" data-name="Trazado 145803" d="M-3600.566-2971.722h1.149v8.854h-1.149Z" transform="translate(3646.365 3106.903)" fill="#263238"/>
        <path id="Trazado_145804" data-name="Trazado 145804" d="M-3592.253-2966.292h-5.136a2.134,2.134,0,0,0,2.3,1.852,2.338,2.338,0,0,0,1.825-.757l.635.744a3.187,3.187,0,0,1-2.5,1.027,3.163,3.163,0,0,1-3.386-2.923,3.077,3.077,0,0,1-.007-.322,3.094,3.094,0,0,1,2.956-3.228c.074,0,.146,0,.221,0a3.056,3.056,0,0,1,3.129,2.979c0,.1,0,.195-.006.292A3.125,3.125,0,0,1-3592.253-2966.292Zm-5.136-.824h4.055a2.056,2.056,0,0,0-2.36-1.7A2.053,2.053,0,0,0-3597.39-2967.117Z" transform="translate(3647.082 3107.542)" fill="#263238"/>
        <path id="Trazado_145805" data-name="Trazado 145805" d="M-3566.886-2969.462h7.584l-3.785,3.8Z" transform="translate(3658.214 3107.698)" fill="#263238"/>
        <path id="Trazado_145806" data-name="Trazado 145806" d="M-3531.246-2969.462h7.584l-3.8,3.8Z" transform="translate(3670.752 3107.698)" fill="#263238"/>
        <path id="Trazado_145807" data-name="Trazado 145807" d="M-3208.646-2775.762c0-2.068-.108-78.946-.27-205.8l.27.257-413.49.094h0l.352-.351v205.8l-.338-.338,413.517.338-413.517.324h-.324v-206.474h.379l413.49.095h.176v.257C-3208.551-2854.708-3208.646-2777.83-3208.646-2775.762Z" transform="translate(3638.668 3103.317)" fill="#e0e0e0"/>
        <path id="Trazado_145808" data-name="Trazado 145808" d="M-3208.466-2978.21v-9.1c0-5.962,0-14.748-.081-26.063l.149.135-414.125.217h0l.352-.352v35.147l-.352-.351,293.963.148,88,.095h.176l-87.867.108-294.22.148h-.487v-35.687h.365l414.125.23h.135v.135c0,11.355-.067,20.155-.081,26.144v6.759C-3208.412-2978.967-3208.466-2978.21-3208.466-2978.21Z" transform="translate(3638.488 3092.113)" fill="#e0e0e0"/>
        <path id="Trazado_145809" data-name="Trazado 145809" d="M-3208.466-3009.749v-9.1c0-5.962,0-14.735-.081-26.049l.149.135-414.125.216h0l.352-.351v35.147l-.352-.352,293.963.149,88,.108h.176l-87.867.108-294.22.148h-.487V-3045.3h.365l414.125.216h.135v.149c0,11.342-.067,20.155-.081,26.131v6.759C-3208.412-3010.52-3208.466-3009.749-3208.466-3009.749Z" transform="translate(3638.488 3081.016)" fill="#e0e0e0"/>
        <path id="Trazado_145810" data-name="Trazado 145810" d="M-3395.3-2974.282a2.527,2.527,0,0,0-2.609,2.339h0v9.166h0a3.689,3.689,0,0,0,4.265,3.007,3.692,3.692,0,0,0,3.008-3.007h0v-7.395h-.716v7.083a2.961,2.961,0,0,1-3.229,2.665,2.959,2.959,0,0,1-2.665-2.665v-8.773a1.907,1.907,0,0,1,1.906-1.906,1.908,1.908,0,0,1,1.906,1.906v7.435h0a1.108,1.108,0,0,1-1.381.741,1.1,1.1,0,0,1-.741-.741v-5.731h-.7v5.474h0v.257h0a1.785,1.785,0,0,0,2.123,1.367,1.788,1.788,0,0,0,1.365-1.367h0v-.27h0v-7.3h0A2.544,2.544,0,0,0-3395.3-2974.282Z" transform="translate(3717.661 3106.001)" fill="#263238"/>
        <rect id="Rectángulo_35072" data-name="Rectángulo 35072" width="10.422" height="1.649" transform="translate(215.464 135.762)" fill="#263238"/>
        <rect id="Rectángulo_35073" data-name="Rectángulo 35073" width="10.422" height="1.649" transform="translate(215.464 141.778)" fill="#263238"/>
        <rect id="Rectángulo_35074" data-name="Rectángulo 35074" width="5.218" height="1.649" transform="translate(215.464 138.871)" fill="#263238"/>
        <rect id="Rectángulo_35075" data-name="Rectángulo 35075" width="10.422" height="1.649" transform="translate(254.598 135.762)" fill="#263238"/>
        <rect id="Rectángulo_35076" data-name="Rectángulo 35076" width="10.422" height="1.649" transform="translate(254.598 141.778)" fill="#263238"/>
        <rect id="Rectángulo_35077" data-name="Rectángulo 35077" width="5.218" height="1.649" transform="translate(259.803 138.871)" fill="#263238"/>
        <rect id="Rectángulo_35078" data-name="Rectángulo 35078" width="10.422" height="1.649" transform="translate(235.295 135.762)" fill="#263238"/>
        <rect id="Rectángulo_35079" data-name="Rectángulo 35079" width="10.422" height="1.649" transform="translate(235.295 141.778)" fill="#263238"/>
        <rect id="Rectángulo_35080" data-name="Rectángulo 35080" width="10.422" height="1.649" transform="translate(235.295 138.871)" fill="#263238"/>
        <path id="Trazado_145811" data-name="Trazado 145811" d="M-3416.866-2964.2h-8.53v-7h4.421v1.473h-2.933v4.042h5.569v-1.46h1.474Z" transform="translate(3707.99 3107.085)" fill="#263238"/>
        <path id="Trazado_145812" data-name="Trazado 145812" d="M-3413.24-2964.2h-3.623v-1.487h2.15v-4.042h-5.57v1.893h-1.473v-3.366h8.516Z" transform="translate(3709.271 3107.085)" fill="#263238"/>
        <path id="Trazado_145813" data-name="Trazado 145813" d="M-3412.9-2969.022h4.542l-2.271,2.109Z" transform="translate(3712.388 3107.852)" fill="#263238"/>
        <path id="Trazado_145814" data-name="Trazado 145814" d="M-3488.836-2967.469v-3.934h1.352v3.88c0,1.433.649,2.054,1.771,2.054s1.757-.622,1.757-2.054v-3.88h1.271v3.934a3.056,3.056,0,0,1-2.846,3.253,3.056,3.056,0,0,1-3.251-2.845,2.834,2.834,0,0,1,0-.407Z" transform="translate(3685.672 3107.015)" fill="#263238"/>
        <path id="Trazado_145815" data-name="Trazado 145815" d="M-3497.061-2971.982h1.163l-1.635,8.111h-1.163Z" transform="translate(3682.204 3106.811)" fill="#263238"/>
        <path id="Trazado_145816" data-name="Trazado 145816" d="M-3503.564-2966.062c0,1.352-1.162,2.231-3.352,2.231h-4.38v-8.111h4.15c2.135,0,3.19.878,3.19,2.136a1.919,1.919,0,0,1-1.095,1.757A2.056,2.056,0,0,1-3503.564-2966.062Zm-5.407-4.244v1.541h1.582c.771,0,1.163-.257,1.163-.784s-.392-.784-1.163-.784Zm3.136,3.988c0-.554-.419-.824-1.2-.824h-1.933v1.649h1.92c.743-.027,1.163-.3,1.163-.851Z" transform="translate(3677.77 3106.825)" fill="#263238"/>
        <path id="Trazado_145817" data-name="Trazado 145817" d="M-3479.624-2957.117a63.258,63.258,0,0,1-.351-9.341,63.441,63.441,0,0,1,.351-9.354,61.243,61.243,0,0,1,.352,9.354A61.067,61.067,0,0,1-3479.624-2957.117Z" transform="translate(3688.774 3105.463)" fill="#e0e0e0"/>
        <path id="Trazado_145818" data-name="Trazado 145818" d="M-3433.792-2957.117a61.067,61.067,0,0,1-.351-9.341,61.243,61.243,0,0,1,.351-9.354,63.374,63.374,0,0,1,.351,9.354A63.191,63.191,0,0,1-3433.792-2957.117Z" transform="translate(3704.896 3105.463)" fill="#e0e0e0"/>
        <path id="Trazado_145819" data-name="Trazado 145819" d="M-3406.053-2956.84a63.192,63.192,0,0,1-.352-9.341,62.871,62.871,0,0,1,.352-9.341,63.269,63.269,0,0,1,.351,9.341A63.258,63.258,0,0,1-3406.053-2956.84Z" transform="translate(3714.657 3105.565)" fill="#e0e0e0"/>
        <path id="Trazado_145820" data-name="Trazado 145820" d="M-3385.054-2957.247a63.092,63.092,0,0,1-.351-9.341,63.273,63.273,0,0,1,.351-9.354,60.051,60.051,0,0,1,.365,9.354A60.058,60.058,0,0,1-3385.054-2957.247Z" transform="translate(3722.044 3105.418)" fill="#e0e0e0"/>
        <path id="Trazado_145821" data-name="Trazado 145821" d="M-3481.095-2965.391a25.14,25.14,0,0,1-8.381,0A25.2,25.2,0,0,1-3481.095-2965.391Z" transform="translate(3685.447 3109.006)" fill="#263238"/>
        <path id="Trazado_145822" data-name="Trazado 145822" d="M-3543.119-2971.975v8.111h-1.149v-7.124h-1.839V-2972Z" transform="translate(3665.525 3106.804)" fill="#263238"/>
        <path id="Trazado_145823" data-name="Trazado 145823" d="M-3536.766-2964.822v1.014h-5.84v-.852l3.312-3.19c.866-.838,1.027-1.352,1.027-1.852,0-.838-.594-1.352-1.73-1.352a2.585,2.585,0,0,0-2.082.878l-.8-.676a3.757,3.757,0,0,1,2.974-1.23c1.7,0,2.785.865,2.785,2.258a3.288,3.288,0,0,1-1.352,2.555l-2.488,2.393Z" transform="translate(3666.661 3106.774)" fill="#263238"/>
        <path id="Trazado_145824" data-name="Trazado 145824" d="M-3208.54-2955.39c0,.189-92.734.351-207.1.351s-207.11-.162-207.11-.351,92.707-.351,207.11-.351S-3208.54-2955.539-3208.54-2955.39Z" transform="translate(3638.562 3112.523)" fill="#e0e0e0"/>
        <path id="Trazado_145825" data-name="Trazado 145825" d="M-3237.347-2940.213c0,.189-84.2.352-188.063.352s-188.076-.163-188.076-.352,84.258-.378,188.076-.378S-3237.347-2940.416-3237.347-2940.213Z" transform="translate(3641.82 3117.854)" fill="#263238"/>
        <path id="Trazado_145826" data-name="Trazado 145826" d="M-3237.347-2928.95c0,.2-84.2.351-188.063.351s-188.076-.149-188.076-.351,84.19-.351,188.076-.351S-3237.347-2929.14-3237.347-2928.95Z" transform="translate(3641.82 3121.825)" fill="#263238"/>
        <path id="Trazado_145827" data-name="Trazado 145827" d="M-3237.347-2917.67c0,.189-84.2.351-188.063.351s-188.076-.122-188.076-.351,84.19-.352,188.076-.352S-3237.347-2917.874-3237.347-2917.67Z" transform="translate(3641.82 3125.794)" fill="#263238"/>
        <path id="Trazado_145828" data-name="Trazado 145828" d="M-3237.347-2906.4c0,.2-84.2.352-188.063.352s-188.076-.149-188.076-.352,84.19-.351,188.076-.351S-3237.347-2906.536-3237.347-2906.4Z" transform="translate(3641.82 3129.759)" fill="#263238"/>
        <path id="Trazado_145829" data-name="Trazado 145829" d="M-3237.347-2895.12c0,.189-84.2.351-188.063.351s-188.076-.162-188.076-.351,84.19-.351,188.076-.351S-3237.347-2895.323-3237.347-2895.12Z" transform="translate(3641.82 3133.727)" fill="#263238"/>
        <path id="Trazado_145830" data-name="Trazado 145830" d="M-3237.347-2883.85c0,.2-84.2.351-188.063.351s-188.076-.149-188.076-.351,84.19-.352,188.076-.352S-3237.347-2884.04-3237.347-2883.85Z" transform="translate(3641.82 3137.692)" fill="#263238"/>
        <path id="Trazado_145831" data-name="Trazado 145831" d="M-3237.347-2872.571c0,.189-84.2.351-188.063.351s-188.076-.162-188.076-.351,84.19-.352,188.076-.352S-3237.347-2872.774-3237.347-2872.571Z" transform="translate(3641.82 3141.66)" fill="#263238"/>
        <path id="Trazado_145832" data-name="Trazado 145832" d="M-3237.147-2861.7c0,.189-84.2.351-188.063.351s-188.076-.162-188.076-.351,84.19-.352,188.076-.352S-3237.147-2861.89-3237.147-2861.7Z" transform="translate(3641.891 3145.485)" fill="#263238"/>
        <path id="Trazado_145833" data-name="Trazado 145833" d="M-3236.947-2850.831c0,.2-84.2.351-188.049.351s-188.09-.148-188.09-.351,84.19-.352,188.09-.352S-3236.947-2851.02-3236.947-2850.831Z" transform="translate(3641.961 3149.309)" fill="#263238"/>
        <path id="Trazado_145834" data-name="Trazado 145834" d="M-3612.876-2839.96c0-.189,84.2-.351,188.049-.351s188.076.162,188.076.351-84.19.352-188.076.352S-3612.876-2839.758-3612.876-2839.96Z" transform="translate(3642.034 3153.132)" fill="#263238"/>
        <path id="Trazado_145835" data-name="Trazado 145835" d="M-3189.987-2728.7c0-2.406-.108-135.654-.284-342.615l.284.3h-444.176l.352-.352v342.615l-.311-.311,444.216.311-444.216.324h-.324v-343.29h.392l444.067.176h.3v.284C-3189.865-2864.356-3189.987-2731.108-3189.987-2728.7Z" transform="translate(3634.446 3071.722)" fill="#263238"/>
        <path id="Trazado_145836" data-name="Trazado 145836" d="M-3434.156-2990.115v29.469a9.84,9.84,0,0,0,9.841,9.841h36.12a3.382,3.382,0,0,1,2.7,1.352l8.841,19.263,10.652-18.925a3.448,3.448,0,0,1,2.555-1.149h37.85a9.841,9.841,0,0,0,9.719-9.936v-30.1a9.828,9.828,0,0,0-9.828-9.827h-.027l-98.546.176a9.842,9.842,0,0,0-9.882,9.8Z" transform="translate(3704.908 3096.907)" fill="#05dbf2"/>
        <path id="Trazado_145837" data-name="Trazado 145837" d="M-3414.211-2968.239h-6.165v-5.813l14.194-15.505.284-.067a4.639,4.639,0,0,1,4.6.649c1.8,1.649,1.352,4.663,1.244,5v.3Zm-4.056-2.042h3.218l13.1-14.329a3.706,3.706,0,0,0-.662-2.865,2.612,2.612,0,0,0-2.406-.257l-13.248,14.464Z" transform="translate(3709.756 3100.485)" fill="#fff"/>
        <path id="Trazado_145838" data-name="Trazado 145838" d="M-3383.106-2973.116v2.014h-11.72v-16.14h11.4v2h-9.084v4.961h8.11v2.028h-8.11v5.2Z" transform="translate(3718.745 3101.442)" fill="#fff"/>
        <path id="Trazado_145839" data-name="Trazado 145839" d="M-3371.921-2987.955v17.114h-2.122v-1.947a5.139,5.139,0,0,1-4.353,2.082,6.244,6.244,0,0,1-5.948-6.529,6.244,6.244,0,0,1,5.948-5.948,5.233,5.233,0,0,1,4.272,1.96v-6.759Zm-2.189,11a4.057,4.057,0,0,0-4.3-3.791,4.056,4.056,0,0,0-3.79,4.3,4.055,4.055,0,0,0,4.039,3.8,4.055,4.055,0,0,0,4.036-4.074c0-.079,0-.158-.008-.238Z" transform="translate(3722.43 3101.182)" fill="#fff"/>
        <path id="Trazado_145840" data-name="Trazado 145840" d="M-3372.346-2986.762a1.445,1.445,0,0,1,1.431-1.46h.055a1.434,1.434,0,0,1,1.5,1.352,1.446,1.446,0,0,1-1.4,1.488h-.1a1.432,1.432,0,0,1-1.487-1.376Zm.392,3.772h2.2v12.166h-2.2Z" transform="translate(3726.654 3101.097)" fill="#fff"/>
        <path id="Trazado_145841" data-name="Trazado 145841" d="M-3359.965-2972.121a4.2,4.2,0,0,1-2.7.852,3.486,3.486,0,0,1-3.862-3.067,3.361,3.361,0,0,1,0-.758v-6.759h-2.082v-1.825h2.082v-2.7h2.2v2.7h3.514v1.825h-3.514v6.624a1.81,1.81,0,0,0,1.546,2.042,1.674,1.674,0,0,0,.373.012,2.808,2.808,0,0,0,1.73-.581Z" transform="translate(3727.966 3101.744)" fill="#fff"/>
      </g>
      <g id="freepik--Character--inject-2" transform="translate(-3494.575 -2930.267)">
        <path id="Trazado_145842" data-name="Trazado 145842" d="M-3239.781-2881.162s10.733-4.191,10.288-13.343-12.775-18.209-12.045-31.943c.69-12.9-17.776-51.193-44.149-37.851a36.276,36.276,0,0,0-13.248.73c-8.5,2.434-11.152,10.571-16.221,18.628-7.746,12.437-13.031,22.237-9.287,30.9s5.313,11.207,2.406,18.6c-3.785,9.652-7.664,6.854-6.394,15.289l22.981.365,2.176-5.624.243,6.083,13.518-.176Z" transform="translate(3602.146 2967.08)" fill="#263238"/>
        <path id="Trazado_145843" data-name="Trazado 145843" d="M-3308.874-2955.012c.284,3.555-2.042,6.759-4.394,9.463s-4.961,5.407-5.407,8.989c-.865,6.245,5.272,12.018,4.056,18.209-.649,3.312-3.353,5.989-3.825,9.341s1.351,6.394,3.474,8.854,4.786,4.488,6.759,7.151c0,0,3.988,6.475,16.221,2.258" transform="translate(3605.635 2971.325)" fill="#263238"/>
        <path id="Trazado_145844" data-name="Trazado 145844" d="M-3299.558-2958.345l30.321,6.434a5.652,5.652,0,0,1,5.285,5.543l-.365,65.63a20.413,20.413,0,0,1-4.271,12.383l-2.893,3.731c-6.6,8.5-19.952,7.638-24.995-1.865a6.728,6.728,0,0,1-.689-1.717,11.961,11.961,0,0,1-.284-1.487l-.581-6.394c-.3-5.84-.338-11.788-.338-11.733s-12.41-1.568-15.6-17.574c-1.582-7.949-1.677-21.088-1.42-31.835C-3315.158-2946.909-3309.223-2958.994-3299.558-2958.345Z" transform="translate(3606.783 2970.144)" fill="#ffbe9d"/>
        <path id="Trazado_145845" data-name="Trazado 145845" d="M-3312.006-2933.067a2.082,2.082,0,0,0,2.068,2.014,1.987,1.987,0,0,0,2.053-1.918c0-.031,0-.063,0-.1a2.082,2.082,0,0,0-2.068-2.014,1.989,1.989,0,0,0-2.055,1.918C-3312.006-2933.131-3312.007-2933.1-3312.006-2933.067Z" transform="translate(3608.01 2978.336)" fill="#263238"/>
        <path id="Trazado_145846" data-name="Trazado 145846" d="M-3313.152-2937.155c.27.257,1.784-.96,4.055-1.041s3.894.973,4.123.69-.162-.608-.892-1.1a5.714,5.714,0,0,0-3.312-.878,5.33,5.33,0,0,0-3.177,1.162C-3313.017-2937.763-3313.233-2937.277-3313.152-2937.155Z" transform="translate(3607.602 2976.787)" fill="#263238"/>
        <path id="Trazado_145847" data-name="Trazado 145847" d="M-3297.286-2933.489a2.081,2.081,0,0,0,2.068,2.014,1.986,1.986,0,0,0,2.067-1.9v-.043a2.069,2.069,0,0,0-2.082-2,1.973,1.973,0,0,0-2.053,1.891Z" transform="translate(3613.189 2978.217)" fill="#263238"/>
        <path id="Trazado_145848" data-name="Trazado 145848" d="M-3297.506-2937.555c.257.257,1.785-.96,4.056-1.041s3.893.973,4.055.689-.162-.608-.892-1.095a5.654,5.654,0,0,0-3.312-.879,5.336,5.336,0,0,0-3.177,1.163C-3297.425-2938.136-3297.641-2937.677-3297.506-2937.555Z" transform="translate(3613.099 2976.646)" fill="#263238"/>
        <path id="Trazado_145849" data-name="Trazado 145849" d="M-3300.963-2920.849a15.405,15.405,0,0,0-3.636-.514c-.567,0-1.108-.122-1.216-.5a2.969,2.969,0,0,1,.311-1.7c.487-1.352.987-2.853,1.514-4.38,2.082-6.245,3.569-11.355,3.325-11.436s-2.149,4.907-4.245,11.139l-1.433,4.407a3.364,3.364,0,0,0-.217,2.244,1.473,1.473,0,0,0,.973.784,3.562,3.562,0,0,0,.96.095A13.685,13.685,0,0,0-3300.963-2920.849Z" transform="translate(3609.891 2976.824)" fill="#263238"/>
        <path id="Trazado_145850" data-name="Trazado 145850" d="M-3302.826-2904.479a40.867,40.867,0,0,0,21.318-6.583s-4.975,11.355-21.142,10.476Z" transform="translate(3611.24 2986.787)" fill="#eb996e"/>
        <path id="Trazado_145851" data-name="Trazado 145851" d="M-3301.545-2921.318a4.057,4.057,0,0,1,3.528-1.622,3.666,3.666,0,0,1,2.568,1.257,2.314,2.314,0,0,1,.284,2.636,2.7,2.7,0,0,1-2.88.852,8.235,8.235,0,0,1-2.906-1.568,2.651,2.651,0,0,1-.662-.635.728.728,0,0,1,0-.825" transform="translate(3611.622 2982.605)" fill="#eb996e"/>
        <path id="Trazado_145852" data-name="Trazado 145852" d="M-3295.782-2924.722c-.365,0-.284,2.406-2.271,4.191s-4.569,1.635-4.583,1.96.595.46,1.676.446a6.047,6.047,0,0,0,3.825-1.514,5.288,5.288,0,0,0,1.758-3.5C-3295.336-2924.154-3295.62-2924.736-3295.782-2924.722Z" transform="translate(3611.307 2981.982)" fill="#263238"/>
        <path id="Trazado_145853" data-name="Trazado 145853" d="M-3297.422-2942.57c.243.595,2.447.229,5.069.433s4.745.852,5.069.3c.149-.27-.243-.825-1.109-1.352a8.54,8.54,0,0,0-3.812-1.162,8.347,8.347,0,0,0-3.92.622C-3297.057-2943.314-3297.53-2942.854-3297.422-2942.57Z" transform="translate(3613.136 2975.065)" fill="#263238"/>
        <path id="Trazado_145854" data-name="Trazado 145854" d="M-3312.9-2944.319c.406.487,1.92-.094,3.758-.189s3.406.2,3.744-.338c.149-.257-.122-.757-.811-1.217a5.407,5.407,0,0,0-6.056.433C-3312.9-2945.089-3313.087-2944.562-3312.9-2944.319Z" transform="translate(3607.672 2974.218)" fill="#263238"/>
        <path id="Trazado_145855" data-name="Trazado 145855" d="M-3259.564-2948.874c-2.244-6.61-11.3-13.855-19.831-17.113a16.224,16.224,0,0,0-14.667,1.717l-10.815,7.165a15,15,0,0,0,10.409,11.26c2.7.784,6.07.946,7.746,3.285s.811,5.908,2.42,8.368c2.217,3.406,8.111,3.122,9.787,6.759.744,1.622.406,3.569,1.176,5.177,1.014,2.136,6.529,4.758,8.773,4.056s2.163-4.61,2.865-6.637a10.685,10.685,0,0,0,.189-7.138C-3262.6-2936.545-3258.063-2944.507-3259.564-2948.874Z" transform="translate(3610.519 2967.107)" fill="#263238"/>
        <path id="Trazado_145856" data-name="Trazado 145856" d="M-3279.966-2928.249c0-1.2,1.23-4.055,2.406-4.312,3.15-.608,8.854-.581,9.219,7.448.5,10.963-10.625,9.206-10.652,8.895S-3279.817-2924.113-3279.966-2928.249Z" transform="translate(3619.282 2979.142)" fill="#ffbe9d"/>
        <path id="Trazado_145857" data-name="Trazado 145857" d="M-3276.9-2921.462a3.407,3.407,0,0,0,.527.257,1.882,1.882,0,0,0,1.433,0c1.135-.473,2.028-2.352,1.987-4.339a6.2,6.2,0,0,0-.662-2.7,2.21,2.21,0,0,0-1.5-1.352.974.974,0,0,0-1.109.581c-.122.311,0,.527-.108.541s-.243-.162-.176-.622a1.276,1.276,0,0,1,.406-.717,1.493,1.493,0,0,1,1.041-.324,2.706,2.706,0,0,1,2.068,1.609,6.453,6.453,0,0,1,.812,3.028c0,2.217-1.014,4.339-2.582,4.866a2.063,2.063,0,0,1-1.758-.216C-3276.876-2921.192-3276.944-2921.435-3276.9-2921.462Z" transform="translate(3620.356 2980.073)" fill="#eb996e"/>
        <path id="Trazado_145858" data-name="Trazado 145858" d="M-3316.472-2868.2l-19.4,50.6-36.5,2.325-5.637,15.857,48.179,9.341s14.491,4.218,22.75-14.181l14.126-50.327Z" transform="translate(3584.792 3001.865)" fill="#ffbe9d"/>
        <path id="Trazado_145859" data-name="Trazado 145859" d="M-3397.727-2817.4a2.417,2.417,0,0,0,2.325,1.352,2.346,2.346,0,0,0,.595-.122c1.352-.446,1.257-3.258,1.257-3.258l6.611-1.081s8.6,5.542,11.666,9.219,10.814.7,10.814.7l2.7-14.1-12.166-11s.757.649-.095-1.352-4.664-1.284-4.664-1.284c-.594-1.014-3.1-1.352-3.1-1.352l-10.666,1.23a7.3,7.3,0,0,0-5.407,3.366l-4.516,7.138s-2.392,5.15-2,6.353a2.147,2.147,0,0,0,2.487,1.352s.527,3.38,1.352,3.5a7.528,7.528,0,0,0,2.7-.635Z" transform="translate(3575.503 3011.899)" fill="#ffbe9d"/>
        <path id="Trazado_145860" data-name="Trazado 145860" d="M-3377.571-2813.453a3.93,3.93,0,0,1-.635-.486l-1.784-1.433a75.658,75.658,0,0,0-7.016-4.84h.149l-6.61,1.122.23-.284a7.4,7.4,0,0,1-.122,1.622,2.97,2.97,0,0,1-.757,1.582,1.631,1.631,0,0,1-.879.406,2.071,2.071,0,0,1-.919,0,2.7,2.7,0,0,1-1.649-.906,2.643,2.643,0,0,1-.284-.392l-.068-.108h0c-.081,0,.73.271.392.135h0l-.216.082c-.27.107-.554.216-.852.311a7.824,7.824,0,0,1-.906.216,2.618,2.618,0,0,1-.487,0,1.074,1.074,0,0,1-.608-.108,1.9,1.9,0,0,1-.649-.878,8,8,0,0,1-.338-.906,17.036,17.036,0,0,1-.419-1.879l.392.27a2.523,2.523,0,0,1-2.474-.838,2.048,2.048,0,0,1-.446-1.352,5.423,5.423,0,0,1,.23-1.271,35.932,35.932,0,0,1,1.824-4.758h0c.757-1.217,1.582-2.5,2.406-3.812.514-.812,1.014-1.623,1.528-2.42a13.558,13.558,0,0,1,1.663-2.339,7.336,7.336,0,0,1,2.406-1.6,9.363,9.363,0,0,1,2.7-.567l10.071-1.122h.081a9.684,9.684,0,0,1,1.757.459,3.013,3.013,0,0,1,1.541,1.082l-.378-.122a3.706,3.706,0,0,1,3.434.189,4.344,4.344,0,0,1,1.7,2.7l-.081-.135,8.381,7.543,2.258,2.082a6.056,6.056,0,0,1,.757.757,4.973,4.973,0,0,1-.852-.649l-2.352-1.974-8.557-7.327h0v-.081a3.818,3.818,0,0,0-1.5-2.352,3.113,3.113,0,0,0-2.893-.122l-.229.094-.135-.216a2.568,2.568,0,0,0-1.243-.811,9.363,9.363,0,0,0-1.649-.419h.081l-10.058,1.189a8.907,8.907,0,0,0-2.555.527,6.617,6.617,0,0,0-2.163,1.447,13.309,13.309,0,0,0-1.581,2.23l-1.528,2.42-2.406,3.812h0a36.577,36.577,0,0,0-1.784,4.65,4.978,4.978,0,0,0-.216,1.122,1.348,1.348,0,0,0,.311.906,1.863,1.863,0,0,0,1.811.608h.324v.324a14.716,14.716,0,0,0,.406,1.784,3.008,3.008,0,0,0,.69,1.433.528.528,0,0,0,.27,0h.406a5.775,5.775,0,0,0,.825-.2l.811-.284.2-.068h0l.392.148h0v.095a1.522,1.522,0,0,0,.23.311,2.083,2.083,0,0,0,1.271.717,1.893,1.893,0,0,0,.73,0,1.028,1.028,0,0,0,.595-.257,4.061,4.061,0,0,0,.73-2.7v-.243h.23l6.624-1.027h.149a64.087,64.087,0,0,1,6.935,5.028c.77.649,1.352,1.163,1.717,1.528A4.271,4.271,0,0,1-3377.571-2813.453Z" transform="translate(3575.462 3011.786)" fill="#eb996e"/>
        <path id="Trazado_145861" data-name="Trazado 145861" d="M-3381.2-2835.926a13.264,13.264,0,0,1-3.42,1.014,34.089,34.089,0,0,1-8.814.635l.351-.23c-.176.527-.365,1.082-.595,1.623a26.4,26.4,0,0,1-5.407,8.408,22.178,22.178,0,0,1-2.244,2.028c-.582.432-.906.649-.946.608s1.162-1.082,2.825-2.974a29.569,29.569,0,0,0,5.137-8.328c.216-.54.406-1.081.581-1.581l.095-.257h.257a40.725,40.725,0,0,0,8.692-.406C-3382.526-2835.7-3381.228-2836.035-3381.2-2835.926Z" transform="translate(3576.253 3013.212)" fill="#eb996e"/>
        <path id="Trazado_145862" data-name="Trazado 145862" d="M-3392.227-2831.332a13.633,13.633,0,0,1-2.7,5.989,13.1,13.1,0,0,1-4.7,4.542c-.135-.162,2.108-2.028,4.136-4.948S-3392.456-2831.4-3392.227-2831.332Z" transform="translate(3577.18 3014.836)" fill="#eb996e"/>
        <path id="Trazado_145863" data-name="Trazado 145863" d="M-3365.4-2817.4a2.123,2.123,0,0,1-.338.189,6.648,6.648,0,0,1-1.054.405,11.343,11.343,0,0,1-4.2.487,11.62,11.62,0,0,1-6.056-2.19,12.156,12.156,0,0,1-4.569-6.759l.392.257a27.865,27.865,0,0,1-7.719.365,27.038,27.038,0,0,1-2.852-.433,8.814,8.814,0,0,1-2.7-.892,2.236,2.236,0,0,1-1.027-1.162,2,2,0,0,1,.175-1.554,2.035,2.035,0,0,1,1.2-.933l1.229-.3c3.245-.784,6.206-1.352,8.692-1.744s4.515-.622,5.921-.743a13.348,13.348,0,0,1,2.19-.108,12.359,12.359,0,0,1-2.149.379c-1.352.2-3.407.513-5.881.96s-5.407,1.068-8.611,1.879l-1.217.324a1.206,1.206,0,0,0-.784.622,1.246,1.246,0,0,0-.122,1,1.483,1.483,0,0,0,.744.784,8.185,8.185,0,0,0,2.5.8,26.3,26.3,0,0,0,2.785.419,27.581,27.581,0,0,0,7.53-.338h.311l.081.311a11.517,11.517,0,0,0,10,8.651,12.445,12.445,0,0,0,4.055-.284A13.773,13.773,0,0,1-3365.4-2817.4Z" transform="translate(3578.596 3014.42)" fill="#eb996e"/>
        <path id="Trazado_145864" data-name="Trazado 145864" d="M-3339.654-2793.22c-12.594-1.468-23.3-2.317-27.01-1.546a19.632,19.632,0,0,0-8.42,1.546Z" transform="translate(3585.819 3027.598)" fill="#263238"/>
        <path id="Trazado_145865" data-name="Trazado 145865" d="M-3231.506-2786.984a186.171,186.171,0,0,0-16.338-25.8h-68.482s-5.941,16.676-7.8,25.8Z" transform="translate(3603.747 3021.362)" fill="#263238"/>
        <path id="Trazado_145866" data-name="Trazado 145866" d="M-3294.659-2792.2a34.737,34.737,0,0,1,10.6-3.52c2.622-.5,5.137-.811,7.448-1.082s4.38-.541,6.124-.662a45.667,45.667,0,0,1,5.664,0,4.56,4.56,0,0,0-1.5-.284,24.2,24.2,0,0,0-4.19-.189c-1.771.067-3.853.284-6.164.513s-4.813.527-7.516,1.028a32.607,32.607,0,0,0-11.556,4.2Z" transform="translate(3613.728 3026.577)" fill="#455a64"/>
        <path id="Trazado_145867" data-name="Trazado 145867" d="M-3336.066-2861.906s11.558-19.291,14.775-23.2a25.811,25.811,0,0,1,9.463-6.948,19.61,19.61,0,0,1,4.5-1.352l16.64-3.677s0,11.355,11.937,12.058,21.913-15.87,21.913-15.87,19.223,2.974,23.819,5.34,11.828,5.407,15.816,25.279l2.785,19.493-33.133,3.014-3.177,49.26-16.438,11.571s-45.569,11.842-48.476,12.626-3.88-73.457-3.88-73.457S-3331.227-2855.269-3336.066-2861.906Z" transform="translate(3599.547 2990.365)" fill="#3e2ea6"/>
        <path id="Trazado_145868" data-name="Trazado 145868" d="M-3318.5-2878.182a7.973,7.973,0,0,0-.635,1.419,37.85,37.85,0,0,0-1.352,4.055,77.847,77.847,0,0,0-3.393,27.685c.108,1.8.243,3.245.392,4.231a7.609,7.609,0,0,0,.27,1.528,6.2,6.2,0,0,0,0-1.554c-.068-1-.135-2.433-.175-4.218a91.651,91.651,0,0,1,3.366-27.536c.473-1.717.892-3.1,1.189-4.055A5.976,5.976,0,0,0-3318.5-2878.182Z" transform="translate(3603.786 2998.354)" fill="#263238"/>
        <path id="Trazado_145869" data-name="Trazado 145869" d="M-3269.119-2879.052a6.067,6.067,0,0,1,0,1.514c0,1.108-.095,2.474-.162,4.055-.162,3.61-.392,8.3-.635,13.519s-.514,10.03-.784,13.518c-.122,1.716-.243,3.109-.352,4.055a6.368,6.368,0,0,1-.229,1.487,5.345,5.345,0,0,1,0-1.5c0-1.122.081-2.487.135-4.055.149-3.623.351-8.3.568-13.518s.554-10.031.838-13.518c.149-1.73.284-3.123.392-4.055A6.642,6.642,0,0,1-3269.119-2879.052Z" transform="translate(3622.319 2998.048)" fill="#263238"/>
        <path id="Trazado_145870" data-name="Trazado 145870" d="M-3318.158-2802.709l62.413-13.518,2.879-44.61,27.753-2.555s-1.947,30.429-2.1,39.553c-.406,26.306-9.247,30.835-13.748,34.39s-80,1.947-80,1.947Z" transform="translate(3604.862 3003.557)" fill="#ffbe9d"/>
        <path id="Trazado_145871" data-name="Trazado 145871" d="M-3343.355-2806.724a2.417,2.417,0,0,0,2.325,1.352,3.214,3.214,0,0,0,.608-.135c1.352-.432,1.257-3.244,1.257-3.244l6.61-1.082s8.6,5.543,11.653,9.219,10.814.7,10.814.7l2.7-14.1-12.167-11s.744.649-.094-1.352-4.664-1.284-4.664-1.284c-.595-1.014-3.095-1.352-3.095-1.352l-10.68,1.23a7.316,7.316,0,0,0-5.407,3.353l-4.515,7.151s-2.379,5.15-2,6.34a2.134,2.134,0,0,0,2.487,1.352s.527,3.393,1.42,3.5a7.15,7.15,0,0,0,2.636-.635Z" transform="translate(3594.629 3015.656)" fill="#ffbe9d"/>
        <path id="Trazado_145872" data-name="Trazado 145872" d="M-3322.932-2819.907c0,.122-1.433,0-3.717.082a32.3,32.3,0,0,0-8.72,1.636,30.821,30.821,0,0,0-4.488,1.919c-1.284.73-2.636,1.352-3.055,2.258a1.351,1.351,0,0,0,.122,1.284,1.776,1.776,0,0,0,.812.676,2.869,2.869,0,0,0,.932.135,1.123,1.123,0,0,1-1.027.108,1.975,1.975,0,0,1-1.027-.7,1.739,1.739,0,0,1-.257-1.676,3.485,3.485,0,0,1,1.352-1.5c.581-.379,1.19-.77,1.865-1.135a27.839,27.839,0,0,1,13.518-3.474A12.591,12.591,0,0,1-3322.932-2819.907Z" transform="translate(3596.943 3018.713)" fill="#eb996e"/>
        <path id="Trazado_145873" data-name="Trazado 145873" d="M-3322.685-2814.855c0,.2-4.353,0-9.692.338s-9.638.96-9.679.757a11.336,11.336,0,0,1,2.785-.676,65.138,65.138,0,0,1,6.854-.771,61.156,61.156,0,0,1,6.894,0A10.736,10.736,0,0,1-3322.685-2814.855Z" transform="translate(3597.439 3020.475)" fill="#eb996e"/>
        <path id="Trazado_145874" data-name="Trazado 145874" d="M-3345-2808.538a4.488,4.488,0,0,1-.135-1.136,23.633,23.633,0,0,1,0-3.123,11.906,11.906,0,0,1,.3-2.163,6.483,6.483,0,0,1,1.041-2.325,14.589,14.589,0,0,1,4.055-4.055,20.859,20.859,0,0,1,5.11-2.582,18.288,18.288,0,0,1,4.61-.69h3.123a3.752,3.752,0,0,1,1.135.122,34.351,34.351,0,0,1-4.231.351,20.158,20.158,0,0,0-4.448.824,20.788,20.788,0,0,0-4.907,2.542,14.551,14.551,0,0,0-3.88,3.893,8.12,8.12,0,0,0-1.352,4.177C-3344.916-2810.174-3344.848-2808.524-3345-2808.538Z" transform="translate(3596.338 3017.199)" fill="#eb996e"/>
        <path id="Trazado_145875" data-name="Trazado 145875" d="M-3328.627-2827.02c0,.108-1.6.149-4.15.446s-6.394.554-8.624,3.934a36.379,36.379,0,0,0-5.407,8.381,22.341,22.341,0,0,0-1.014,4.055,3.283,3.283,0,0,1,0-1.135,10.609,10.609,0,0,1,.622-3.028,31.4,31.4,0,0,1,5.3-8.638,11.77,11.77,0,0,1,2.082-2.1,7.629,7.629,0,0,1,2.515-1.189,23.27,23.27,0,0,1,4.528-.717A16.453,16.453,0,0,1-3328.627-2827.02Z" transform="translate(3595.392 3016.31)" fill="#eb996e"/>
        <path id="Trazado_145876" data-name="Trazado 145876" d="M-3323.152-2802.763a3.956,3.956,0,0,1-.635-.487l-1.8-1.433a74.247,74.247,0,0,0-7.016-4.84h.162l-6.61,1.136.23-.284a7.232,7.232,0,0,1-.135,1.609,2.922,2.922,0,0,1-.744,1.595,1.68,1.68,0,0,1-.878.406,2.365,2.365,0,0,1-.933,0,2.7,2.7,0,0,1-1.635-.906,4,4,0,0,1-.3-.392v-.108h0l.392.135h0l-.216.081c-.284.108-.568.216-.852.3a6.6,6.6,0,0,1-.906.229,2.841,2.841,0,0,1-.487,0,1.04,1.04,0,0,1-.622-.121,2.075,2.075,0,0,1-.649-.865c-.122-.311-.23-.608-.324-.919a16.832,16.832,0,0,1-.419-1.865l.379.271a2.511,2.511,0,0,1-2.461-.838,2.079,2.079,0,0,1-.459-1.352,6.513,6.513,0,0,1,.243-1.284,33.338,33.338,0,0,1,1.825-4.745h0l2.406-3.812,1.528-2.42a13.1,13.1,0,0,1,1.676-2.339,7.206,7.206,0,0,1,2.393-1.595,9.575,9.575,0,0,1,2.7-.568l10.057-1.135h.081a8.527,8.527,0,0,1,1.771.46,2.963,2.963,0,0,1,1.527,1.068l-.365-.108a3.667,3.667,0,0,1,3.433.189,4.3,4.3,0,0,1,1.69,2.7l-.081-.135,8.192,7.611,2.258,2.082a6.251,6.251,0,0,1,.757.757,5,5,0,0,1-.852-.649l-2.352-1.987c-2.082-1.785-4.975-4.3-8.53-7.368h0v-.094a3.826,3.826,0,0,0-1.5-2.339,3.153,3.153,0,0,0-2.893-.135l-.229.108-.135-.217a2.55,2.55,0,0,0-1.244-.811,9.866,9.866,0,0,0-1.65-.419h.081l-10.071,1.189a8.357,8.357,0,0,0-2.541.528,6.424,6.424,0,0,0-2.163,1.446,11.555,11.555,0,0,0-1.581,2.23c-.514.8-1.014,1.609-1.528,2.42-.824,1.352-1.649,2.6-2.406,3.812h0a36.275,36.275,0,0,0-1.8,4.637,6.121,6.121,0,0,0-.217,1.135,1.345,1.345,0,0,0,.324.906,1.838,1.838,0,0,0,1.8.609h.338v.324a15.862,15.862,0,0,0,.392,1.784,3.453,3.453,0,0,0,.689,1.433.912.912,0,0,0,.27,0h.406a3.142,3.142,0,0,0,.838-.2l.812-.284.189-.081h0c-.338-.135.487.176.406.135h0v.082a2.4,2.4,0,0,0,.216.311,2.168,2.168,0,0,0,1.285.73,1.825,1.825,0,0,0,.717,0,1.151,1.151,0,0,0,.608-.257,4.17,4.17,0,0,0,.73-2.7v-.243h.217l6.623-1.027h.149a63.06,63.06,0,0,1,6.948,5.029c.771.649,1.352,1.163,1.717,1.528A4.064,4.064,0,0,1-3323.152-2802.763Z" transform="translate(3594.621 3015.547)" fill="#eb996e"/>
        <path id="Trazado_145877" data-name="Trazado 145877" d="M-3283.489-2793.085l-.258-2.357h-10.49v2.312l0,.045Z" transform="translate(3614.262 3027.463)" fill="#455a64"/>
        <path id="Trazado_145878" data-name="Trazado 145878" d="M-3294.119-2793.084l0-.046v-2.216h7.881l-7.881-.067v-.028l-.029.028-.066,0h-.108v2.331Z" transform="translate(3614.231 3027.463)" fill="#263238"/>
        <path id="Trazado_145879" data-name="Trazado 145879" d="M-3420.742-2793.085l-.231-2.357h-10.5v2.357Z" transform="translate(3565.981 3027.463)" fill="#263238"/>
        <path id="Trazado_145880" data-name="Trazado 145880" d="M-3198.389-2791.221l41.794-.045v-9.476h-374.382l.131,9.521Z" transform="translate(3530.977 3025.598)" fill="#455a64"/>
        <path id="Trazado_145881" data-name="Trazado 145881" d="M-3481.373-2793.085v-2.357h-10.5l-.231,2.357Z" transform="translate(3544.651 3027.463)" fill="#455a64"/>
        <path id="Trazado_145882" data-name="Trazado 145882" d="M-3376.865-2793.307l-.148-1.5h-10.5v1.5Z" transform="translate(3581.446 3027.684)" fill="#455a64"/>
        <path id="Trazado_145883" data-name="Trazado 145883" d="M-3167.8-2793.616c-5.669-.178-78.787-.316-168.148-.316s-162.491.137-168.163.316Z" transform="translate(3540.426 3027.994)" fill="#263238"/>
        <path id="Trazado_145884" data-name="Trazado 145884" d="M-3427.1-2852.082l82.2.662c2.7,0,5.218,1.284,5.624,3.92l8.976,59.912h42.339a2.475,2.475,0,0,1,2.473,2.474,2.473,2.473,0,0,1-2.473,2.474h-135.18l-9.233-63.237a5.407,5.407,0,0,1,4.55-6.146A5.394,5.394,0,0,1-3427.1-2852.082Z" transform="translate(3565.645 3007.536)" fill="#e0e0e0"/>
        <path id="Trazado_145885" data-name="Trazado 145885" d="M-3427.053-2852.079a4.5,4.5,0,0,0-1.352.122,5.408,5.408,0,0,0-3.136,2.082,5.4,5.4,0,0,0-1.014,2.622,14.942,14.942,0,0,0,.3,3.379c.352,2.42.744,5.218,1.19,8.341l7.624,52.923v.216h.217l131.206.081h3.528a3.455,3.455,0,0,0,1.866-.351,2.853,2.853,0,0,0,1.27-1.487,2.8,2.8,0,0,0-1.284-3.406,3.289,3.289,0,0,0-1.853-.351H-3330.4l.324.27c-3.244-21.453-6.259-41.473-8.962-59.479a4.612,4.612,0,0,0-1.528-3.136,6.062,6.062,0,0,0-3.136-1.352,25.257,25.257,0,0,0-3.312-.108h-3.231l-12.382-.082-21.994-.135-31.173-.162h-8.381l8.381.122,31.308.351,21.994.216,12.383.108h3.23a25.825,25.825,0,0,1,3.231.108,5.719,5.719,0,0,1,2.865,1.271,4.061,4.061,0,0,1,1.352,2.811l8.868,59.479v.271h42.109a2.856,2.856,0,0,1,1.541.257,2.137,2.137,0,0,1,.844,2.9,2.13,2.13,0,0,1-.844.844,2.822,2.822,0,0,1-1.541.271h-3.528l-131.206.081.257.216c-3.3-22.25-5.975-40.338-7.841-52.9l-1.257-8.327a15.849,15.849,0,0,1-.338-3.325,5.406,5.406,0,0,1,4.055-4.664A10.809,10.809,0,0,1-3427.053-2852.079Z" transform="translate(3565.6 3007.533)" fill="#263238"/>
        <path id="Trazado_145886" data-name="Trazado 145886" d="M-3389.015-2825.622a5.15,5.15,0,0,1-5.151,5.151,5.15,5.15,0,0,1-5.15-5.151,5.15,5.15,0,0,1,5.15-5.15h.014A5.151,5.151,0,0,1-3389.015-2825.622Z" transform="translate(3577.295 3015.033)" fill="#fff"/>
        <path id="Trazado_145887" data-name="Trazado 145887" d="M-3356.4-2783.367c-.122,0-2.7-15.249-5.854-34.079s-5.529-34.12-5.407-34.147,2.7,15.235,5.854,34.079S-3356.3-2783.394-3356.4-2783.367Z" transform="translate(3588.428 3007.709)" fill="#263238"/>
      </g>
    </g>
    <rect id="Rectángulo_35081" data-name="Rectángulo 35081" width="620" height="385" transform="translate(800 9169)" fill="none"/>
  </g>
</svg>
