<svg xmlns="http://www.w3.org/2000/svg" xmlns:xlink="http://www.w3.org/1999/xlink" width="418" height="327" viewBox="0 0 418 327">
  <defs>
    <filter id="Rect치ngulo_35049" x="0" y="0" width="418" height="327" filterUnits="userSpaceOnUse">
      <feOffset dy="3" input="SourceAlpha"/>
      <feGaussianBlur stdDeviation="3" result="blur"/>
      <feFlood flood-opacity="0.161"/>
      <feComposite operator="in" in2="blur"/>
      <feComposite in="SourceGraphic"/>
    </filter>
  </defs>
  <g id="img14" transform="translate(-171 -8797.474)">
    <g transform="matrix(1, 0, 0, 1, 171, 8797.47)" filter="url(#Rect치ngulo_35049)">
      <rect id="Rect치ngulo_35049-2" data-name="Rect치ngulo 35049" width="400" height="309" rx="40" transform="translate(9 6)" fill="#fff"/>
    </g>
    <path id="Trazado_145781" data-name="Trazado 145781" d="M-7116.093-4207.38v56.044a40,40,0,0,1-40,40h-320a40,40,0,0,1-40-40v-54.472a1148.273,1148.273,0,0,0,195.527,16.711A1147.738,1147.738,0,0,0-7116.093-4207.38Z" transform="translate(7696.093 13223.81)" fill="#3e2ea6"/>
    <path id="Trazado_148853" data-name="Trazado 148853" d="M-74.629-5.664h-5.527V0h-3.428V-14.219h9.512v2.646h-6.084V-8.3h5.527ZM-67.178,0a3.716,3.716,0,0,1-.312-.947A3.06,3.06,0,0,1-70.029.2a3.749,3.749,0,0,1-2.539-.9,2.875,2.875,0,0,1-1.045-2.271,2.955,2.955,0,0,1,1.27-2.6,6.468,6.468,0,0,1,3.691-.879h1.016v-.559q0-1.462-1.26-1.462a1.03,1.03,0,0,0-1.172,1.158h-3.291a2.95,2.95,0,0,1,1.3-2.487,5.479,5.479,0,0,1,3.325-.956,4.8,4.8,0,0,1,3.193.986,3.429,3.429,0,0,1,1.2,2.705v4.678a4.79,4.79,0,0,0,.449,2.227V0Zm-2.061-2.148a1.836,1.836,0,0,0,1.021-.264,1.653,1.653,0,0,0,.581-.6V-4.7h-.957q-1.719,0-1.719,1.543a.942.942,0,0,0,.3.728A1.1,1.1,0,0,0-69.238-2.148Zm11.191-.2a1.464,1.464,0,0,0,1.074-.376A1.379,1.379,0,0,0-56.6-3.77h3.086A3.653,3.653,0,0,1-54.761-.918,4.631,4.631,0,0,1-57.969.2,4.689,4.689,0,0,1-61.6-1.25a5.7,5.7,0,0,1-1.328-4v-.137a6.436,6.436,0,0,1,.591-2.827,4.3,4.3,0,0,1,1.7-1.885A5.081,5.081,0,0,1-58-10.762a4.573,4.573,0,0,1,3.271,1.143,4.053,4.053,0,0,1,1.211,3.1H-56.6a1.807,1.807,0,0,0-.4-1.26,1.382,1.382,0,0,0-1.074-.439q-1.279,0-1.494,1.631a11.507,11.507,0,0,0-.068,1.426,4.52,4.52,0,0,0,.381,2.207A1.319,1.319,0,0,0-58.047-2.344Zm9.756-10.85v2.627h1.738v2.285h-1.738v4.834a1.234,1.234,0,0,0,.215.83,1.152,1.152,0,0,0,.85.234,4.828,4.828,0,0,0,.82-.059V-.088A6.074,6.074,0,0,1-48.262.2a3.448,3.448,0,0,1-2.51-.8,3.282,3.282,0,0,1-.811-2.432V-8.281H-52.93v-2.285h1.348v-2.627Zm2.324,7.813A6.236,6.236,0,0,1-45.352-8.2a4.4,4.4,0,0,1,1.768-1.9,5.323,5.323,0,0,1,2.705-.664,4.858,4.858,0,0,1,3.74,1.47,5.64,5.64,0,0,1,1.367,4v.117a5.472,5.472,0,0,1-1.372,3.921A4.871,4.871,0,0,1-40.859.2a4.927,4.927,0,0,1-3.623-1.353,5.29,5.29,0,0,1-1.475-3.667Zm3.291.205a3.932,3.932,0,0,0,.459,2.148,1.529,1.529,0,0,0,1.357.684q1.758,0,1.8-2.705v-.332q0-2.842-1.816-2.842-1.65,0-1.787,2.451ZM-27.93-7.588l-1.084-.078a1.947,1.947,0,0,0-1.992.977V0H-34.3V-10.566h3.086l.107,1.357a2.548,2.548,0,0,1,2.314-1.553,3.209,3.209,0,0,1,.918.117ZM-21.631.2a5.432,5.432,0,0,1-3.936-1.45,5.008,5.008,0,0,1-1.5-3.774V-5.3a6.489,6.489,0,0,1,.6-2.861,4.395,4.395,0,0,1,1.753-1.919,5.292,5.292,0,0,1,2.734-.679A4.574,4.574,0,0,1-18.467-9.38a5.43,5.43,0,0,1,1.289,3.853v1.279h-6.543a2.372,2.372,0,0,0,.771,1.4,2.3,2.3,0,0,0,1.543.508,2.958,2.958,0,0,0,2.441-1.094l1.5,1.777A4.2,4.2,0,0,1-19.2-.308,5.891,5.891,0,0,1-21.631.2ZM-22-8.223q-1.445,0-1.719,1.914h3.32v-.254a1.63,1.63,0,0,0-.4-1.226A1.593,1.593,0,0,0-22-8.223Zm11.68,5.254a.76.76,0,0,0-.439-.674,6.685,6.685,0,0,0-1.67-.527,7.615,7.615,0,0,1-2.031-.718,3.4,3.4,0,0,1-1.221-1.079,2.577,2.577,0,0,1-.42-1.455,2.92,2.92,0,0,1,1.2-2.4,4.948,4.948,0,0,1,3.145-.942A5.482,5.482,0,0,1-8.4-9.814a2.962,2.962,0,0,1,1.27,2.49h-3.3q0-1.27-1.338-1.27a1.326,1.326,0,0,0-.869.288.892.892,0,0,0-.352.718.819.819,0,0,0,.43.713,4.06,4.06,0,0,0,1.372.449,11.857,11.857,0,0,1,1.655.42A3.007,3.007,0,0,1-7.148-3.066,2.767,2.767,0,0,1-8.433-.713,5.632,5.632,0,0,1-11.758.2,5.747,5.747,0,0,1-14.18-.293a4.05,4.05,0,0,1-1.66-1.328,3.007,3.007,0,0,1-.6-1.768h3.076a1.272,1.272,0,0,0,.488,1.069,2.009,2.009,0,0,0,1.2.337,1.58,1.58,0,0,0,1.011-.273A.875.875,0,0,0-10.322-2.969ZM3.613-3.936l-.928.928V0H-.605V-15.01H2.686v7.969l.332-.439L5.5-10.566H9.443l-3.7,4.346L9.688,0H5.918ZM13.779,0h-3.3V-10.566h3.3Zm-3.5-13.291a1.469,1.469,0,0,1,.508-1.152,1.916,1.916,0,0,1,1.318-.449,1.916,1.916,0,0,1,1.318.449,1.469,1.469,0,0,1,.508,1.152,1.469,1.469,0,0,1-.508,1.152,1.916,1.916,0,0,1-1.318.449,1.916,1.916,0,0,1-1.318-.449A1.469,1.469,0,0,1,10.283-13.291Zm8.545,2.725.107,1.24a3.583,3.583,0,0,1,3.018-1.436,3.015,3.015,0,0,1,2.466.986,4.7,4.7,0,0,1,.845,2.969V0h-3.3V-6.67a1.783,1.783,0,0,0-.322-1.177,1.491,1.491,0,0,0-1.172-.376,1.569,1.569,0,0,0-1.436.762V0H15.742V-10.566ZM32.2.2a5.432,5.432,0,0,1-3.936-1.45,5.008,5.008,0,0,1-1.5-3.774V-5.3a6.489,6.489,0,0,1,.6-2.861,4.395,4.395,0,0,1,1.753-1.919,5.292,5.292,0,0,1,2.734-.679A4.574,4.574,0,0,1,35.361-9.38,5.43,5.43,0,0,1,36.65-5.527v1.279H30.107a2.372,2.372,0,0,0,.771,1.4,2.3,2.3,0,0,0,1.543.508,2.958,2.958,0,0,0,2.441-1.094l1.5,1.777A4.2,4.2,0,0,1,34.624-.308,5.891,5.891,0,0,1,32.2.2Zm-.371-8.418q-1.445,0-1.719,1.914h3.32v-.254a1.63,1.63,0,0,0-.4-1.226A1.593,1.593,0,0,0,31.826-8.223Zm-.039-6.787h3.477l-2.715,3.066-2.686,0ZM43.506-2.969a.76.76,0,0,0-.439-.674A6.685,6.685,0,0,0,41.4-4.17a7.615,7.615,0,0,1-2.031-.718,3.4,3.4,0,0,1-1.221-1.079,2.577,2.577,0,0,1-.42-1.455,2.92,2.92,0,0,1,1.2-2.4,4.948,4.948,0,0,1,3.145-.942,5.482,5.482,0,0,1,3.359.947,2.962,2.962,0,0,1,1.27,2.49H43.4q0-1.27-1.338-1.27a1.326,1.326,0,0,0-.869.288.892.892,0,0,0-.352.718.819.819,0,0,0,.43.713,4.06,4.06,0,0,0,1.372.449,11.857,11.857,0,0,1,1.655.42A3.007,3.007,0,0,1,46.68-3.066,2.767,2.767,0,0,1,45.4-.713,5.632,5.632,0,0,1,42.07.2a5.747,5.747,0,0,1-2.422-.488,4.05,4.05,0,0,1-1.66-1.328,3.007,3.007,0,0,1-.6-1.768h3.076a1.272,1.272,0,0,0,.488,1.069,2.009,2.009,0,0,0,1.2.337,1.58,1.58,0,0,0,1.011-.273A.875.875,0,0,0,43.506-2.969ZM51.689,0h-3.3V-10.566h3.3Zm-3.5-13.291a1.469,1.469,0,0,1,.508-1.152,1.916,1.916,0,0,1,1.318-.449,1.916,1.916,0,0,1,1.318.449,1.469,1.469,0,0,1,.508,1.152,1.469,1.469,0,0,1-.508,1.152,1.916,1.916,0,0,1-1.318.449,1.916,1.916,0,0,1-1.318-.449A1.469,1.469,0,0,1,48.193-13.291Zm9.99,10.947a1.464,1.464,0,0,0,1.074-.376,1.379,1.379,0,0,0,.371-1.05h3.086A3.653,3.653,0,0,1,61.47-.918,4.631,4.631,0,0,1,58.262.2,4.689,4.689,0,0,1,54.629-1.25a5.7,5.7,0,0,1-1.328-4v-.137a6.436,6.436,0,0,1,.591-2.827A4.3,4.3,0,0,1,55.6-10.1a5.081,5.081,0,0,1,2.637-.659A4.573,4.573,0,0,1,61.5-9.619a4.053,4.053,0,0,1,1.211,3.1H59.629a1.807,1.807,0,0,0-.4-1.26,1.382,1.382,0,0,0-1.074-.439q-1.279,0-1.494,1.631a11.507,11.507,0,0,0-.068,1.426,4.52,4.52,0,0,0,.381,2.207A1.319,1.319,0,0,0,58.184-2.344Zm5.508-3.037A6.236,6.236,0,0,1,64.307-8.2a4.4,4.4,0,0,1,1.768-1.9,5.323,5.323,0,0,1,2.705-.664,4.858,4.858,0,0,1,3.74,1.47,5.64,5.64,0,0,1,1.367,4v.117a5.472,5.472,0,0,1-1.372,3.921A4.871,4.871,0,0,1,68.8.2a4.927,4.927,0,0,1-3.623-1.353A5.29,5.29,0,0,1,63.7-4.824Zm3.291.205a3.932,3.932,0,0,0,.459,2.148,1.529,1.529,0,0,0,1.357.684q1.758,0,1.8-2.705v-.332q0-2.842-1.816-2.842-1.65,0-1.787,2.451ZM80.869-2.969a.76.76,0,0,0-.439-.674,6.685,6.685,0,0,0-1.67-.527,7.615,7.615,0,0,1-2.031-.718,3.4,3.4,0,0,1-1.221-1.079,2.577,2.577,0,0,1-.42-1.455,2.92,2.92,0,0,1,1.2-2.4,4.948,4.948,0,0,1,3.145-.942,5.482,5.482,0,0,1,3.359.947,2.962,2.962,0,0,1,1.27,2.49h-3.3q0-1.27-1.338-1.27a1.326,1.326,0,0,0-.869.288.892.892,0,0,0-.352.718.819.819,0,0,0,.43.713A4.06,4.06,0,0,0,80-6.426a11.857,11.857,0,0,1,1.655.42,3.007,3.007,0,0,1,2.383,2.939A2.767,2.767,0,0,1,82.759-.713,5.631,5.631,0,0,1,79.434.2a5.747,5.747,0,0,1-2.422-.488,4.05,4.05,0,0,1-1.66-1.328,3.007,3.007,0,0,1-.6-1.768h3.076a1.272,1.272,0,0,0,.488,1.069,2.009,2.009,0,0,0,1.2.337,1.58,1.58,0,0,0,1.011-.273A.875.875,0,0,0,80.869-2.969Z" transform="translate(389 8898.474)" fill="#12263f"/>
    <g id="Grupo_106770" data-name="Grupo 106770" transform="translate(7680.482 12530.755)">
      <circle id="Elipse_4784" data-name="Elipse 4784" cx="47.838" cy="47.838" r="47.838" transform="translate(-7419.622 -3616.678)" fill="#dad6f7"/>
      <circle id="Elipse_4786" data-name="Elipse 4786" cx="41.386" cy="41.386" r="41.386" transform="translate(-7246.617 -3578.328)" fill="#dad6f7"/>
      <circle id="Elipse_4787" data-name="Elipse 4787" cx="35.914" cy="35.914" r="35.914" transform="translate(-7452.536 -3521.003)" fill="#dad6f7"/>
      <g id="Grupo_106769" data-name="Grupo 106769" transform="translate(-7445.608 -3638.854)">
        <g id="Grupo_106768" data-name="Grupo 106768" transform="translate(0 0)">
          <g id="Grupo_106755" data-name="Grupo 106755" transform="translate(109.807 104.512)">
            <path id="Trazado_145497" data-name="Trazado 145497" d="M-6834.86-3194.065c-.364-.661-4.557-7.652-15.8-2.439,0,0,5.763-2.1,7.91-.189,0,0-5.194-1.079-7.727,1.395s-1.631,8.648-.771,10.394,5.367,6.494,7.521,6a6.531,6.531,0,0,0,2.316-1.169,29.471,29.471,0,0,0-.143,3.4c.169,11.282,9.192,17.826,12.431,14.96,2.077-1.838,4.82,1.9,4.82,1.9l13.731-30.6S-6828.056-3203.757-6834.86-3194.065Z" transform="translate(6875.203 3198.422)" fill="#2c3a64"/>
            <path id="Trazado_145498" data-name="Trazado 145498" d="M-6765.088-3027.768a31.512,31.512,0,0,1-11.018,4.689c-16.98,3.923-23.488-10.429-25.933-20.281a14.61,14.61,0,0,1,5.753-1.768c1.229-.144,2.518-.24,3.587-.293,1.906-1.461,4.75-7.438,5.377-16.72l.8.215,13.385,3.663s-.613,4.255-.913,8.275c-.233,3.147-.27,6.154.326,6.89,1.044.227,1.672.375,1.672.375a.026.026,0,0,0,.006.012A86.156,86.156,0,0,1-6765.088-3027.768Z" transform="translate(6837.438 3095.685)" fill="#ffb27d"/>
            <path id="Trazado_145499" data-name="Trazado 145499" d="M-6725.618-3057.594s-.615,4.25-.914,8.274c-7.582-.759-11.1-7.978-12.471-11.937Z" transform="translate(6789.918 3095.02)" fill="#ed985f"/>
            <path id="Trazado_145500" data-name="Trazado 145500" d="M-6737.666-3128.717s-17.5,4.3-20.016-6.639-6.461-17.755,4.607-20.965,14.206.465,15.933,3.914S-6733.178-3130.118-6737.666-3128.717Z" transform="translate(6806.104 3167.614)" fill="#ffb27d"/>
            <path id="Trazado_145501" data-name="Trazado 145501" d="M-6751.581-3165.8c-3.467-2.672-5.354-1.48-6.279-.229a12.6,12.6,0,0,0-15.214,6.133,21.448,21.448,0,0,1-4.017,13.913s3.652,1.247,10.6-2.338a12.871,12.871,0,0,0,5.038-5.492,42.063,42.063,0,0,1-5.087,10.228c7.887-6.091,8.627-19.164,8.684-20.541,1.293.718,3.886,2.327,5,4.231,1.511,2.586,3.216,8.234,4.845,7.657C-6748.01-3152.24-6746.38-3161.794-6751.581-3165.8Z" transform="translate(6818.631 3175.042)" fill="#2c3a64"/>
            <path id="Trazado_145502" data-name="Trazado 145502" d="M-6798.553-2992.637a34.7,34.7,0,0,0-9.012-2.975,7.491,7.491,0,0,1-7.137,4.442c-5.105-.094-10.158-5.742-10.649-6.3-5.85-.187-10.151,0-10.151,0s-12.322,19.282-10.8,23.747a78.674,78.674,0,0,1,2.415,8.68,88.743,88.743,0,0,1,1.229,29.973c-.281,2.075-.537,3.238-.537,3.238l38.81.9s3.216-11.446,5.6-21.213c.073-.293.142-.586.212-.875,1.618,3.33,6.2,8.338,8.277,8.73.127.024.707.037,1.544.044,3.107.025,9.121.067,9.121.067C-6778.475-2953.386-6793.505-2990.448-6798.553-2992.637Z" transform="translate(6870.904 3046.999)" fill="#f99746"/>
            <path id="Trazado_145503" data-name="Trazado 145503" d="M-6834.866-2836.234a88.649,88.649,0,0,0-1.229-29.974c.011-.152.018-.233.018-.233s10.618,10.144,12.453,20.75C-6822.373-2838.451-6830.019-2836.564-6834.866-2836.234Z" transform="translate(6863.113 2948.155)" fill="#ed7d2b"/>
            <path id="Trazado_145504" data-name="Trazado 145504" d="M-6887.512-2945.03c-.22-.7-3.742-4.291-5.65-4.731s-8.208,1.009-8.208,1.009h0a164.3,164.3,0,0,1-23.262-4.95c-1.839-.535-3.725-1.12-5.639-1.759l15.9-14.334,14.063-28.173s-11.926-.942-14.944.858c-10.861,6.473-30.983,44.255-30.6,52.079,0,0,5.1.282,14.405.4,7.154.092,16.8.088,28.525-.212a24.126,24.126,0,0,0,2.644-.186Z" transform="translate(6945.859 3047.495)" fill="#ffb27d"/>
            <path id="Trazado_145505" data-name="Trazado 145505" d="M-6914.372-2969.795l-14.023,14.5c1.383.523,2.824,1.269,3.764,1.59a16.229,16.229,0,0,1-6.816,9.07c-9.31-.118-14.405-.4-14.405-.4-.383-7.824,19.739-45.606,30.6-52.079,3.019-1.8,14.944-.858,14.944-.858Z" transform="translate(6945.859 3047.495)" fill="#f99746"/>
            <path id="Trazado_145506" data-name="Trazado 145506" d="M-6633.066-2838.866c-.839-.008-10.538-.087-10.663-.111-2.076-.393-6.66-5.4-8.277-8.731a30.962,30.962,0,0,1,1.058-4.548,39.542,39.542,0,0,1,2.734-5.561C-6642.64-2858.658-6633.052-2844.16-6633.066-2838.866Z" transform="translate(6724.34 2941.681)" fill="#ed7d2b"/>
            <path id="Trazado_145507" data-name="Trazado 145507" d="M-6639.383-2997.588a329.889,329.889,0,0,0-9.066-44.248l-.031,0c-.307-1.179-2.714-10.377-3.721-11.384-1.077-1.077-6.752-3.332-7.731-3.574a1.238,1.238,0,0,0,.43,1.165,9.4,9.4,0,0,0,.9.643l-1.344.723a1.655,1.655,0,0,0,1.255.33,9.366,9.366,0,0,0,1.261-.313c.28.171.553.335.8.482a4.941,4.941,0,0,1,.969,1.085c.05.213.232,1.155.347,1.751a2.881,2.881,0,0,1-.5-.552,1.94,1.94,0,0,0-1.661-.747,9.017,9.017,0,0,1,1.685,3.19,4.965,4.965,0,0,0,1.29,2.912h0a7.1,7.1,0,0,1,1.407,1.844,10.978,10.978,0,0,1,.571,2.845h0c.231,2.821,1.021,13.22.8,20.877-.289,10.3-1.267,19.541-.108,25.273a10.637,10.637,0,0,0,1.376,3.7c2.526,3.875,11.405,2.744,11.405,2.744A39.676,39.676,0,0,0-6639.383-2997.588Z" transform="translate(6730.325 3091.656)" fill="#ffb27d"/>
            <path id="Trazado_145508" data-name="Trazado 145508" d="M-6614.184-2807.5s-8.879,1.13-11.4-2.744a10.636,10.636,0,0,1-1.376-3.7,15.631,15.631,0,0,0,12.449-2.3A39.563,39.563,0,0,1-6614.184-2807.5Z" transform="translate(6705.458 2910.318)" fill="#f99746"/>
          </g>
          <g id="Grupo_106756" data-name="Grupo 106756" transform="translate(49.278 32.465)">
            <path id="Trazado_145509" data-name="Trazado 145509" d="M-7295.136-3423.279c-1.287-.125-2.5-.2-3.648-.238a2.465,2.465,0,0,1-2.229-1.6,24.563,24.563,0,0,1-1.329-6.005l-.45.141-7.573,2.353s.437,2.416.686,4.706c.032.281.059.563.083.84a.758.758,0,0,1-.545.793,13.865,13.865,0,0,0-5.126,2.447,135.438,135.438,0,0,0,5.954,28.33c.476,1.456-6.778,10.172-6.778,10.172,1.767,5.659,25.862-2.431,25.862-2.431s-1.647-5.008.5-17.243C-7287.222-3415.288-7295.136-3423.279-7295.136-3423.279Z" transform="translate(7327.493 3452.895)" fill="#ffb27d"/>
            <path id="Trazado_145510" data-name="Trazado 145510" d="M-7233.093-3399.249s7.585.924,11.882,22.527c0,0,1.168,6.264-1.168,7.007S-7236.8-3383.027-7233.093-3399.249Z" transform="translate(7265.451 3428.865)" fill="#ffb27d"/>
            <path id="Trazado_145511" data-name="Trazado 145511" d="M-7308.009-3487.032s4.869,1.735,2.2,7.181c0,0,3.981-.06,4.818-1.316a3.189,3.189,0,0,1-.228.776s3.734-1,4.907-2.613-5.581-20.208-15.183-14.965c0,0-8.886,2-5,11.8s.6,10.8.6,10.8a4.884,4.884,0,0,0,1.489.037s.569-.442.588-.836a2.4,2.4,0,0,1-.066.825s3.642-.747,5-2.623S-7306.871-3485.113-7308.009-3487.032Z" transform="translate(7328.538 3503.985)" fill="#233862"/>
            <path id="Trazado_145512" data-name="Trazado 145512" d="M-7292.816-3429.143s.53,3.381.778,5.674c3.961-3.193,4.45-6.046,5.155-8.333Z" transform="translate(7309.945 3453.405)" fill="#ed985f"/>
            <path id="Trazado_145513" data-name="Trazado 145513" d="M-7313.3-3482.09a22.89,22.89,0,0,0,2.1-6.945c.158-2.228,1.455-11.495-6.568-9.461,0,0-5.614,1.762-7.679,3.5-1.644,1.382-3.92,4.233-.315,11l1,2.312Z" transform="translate(7336.226 3503.901)" fill="#233862"/>
            <path id="Trazado_145514" data-name="Trazado 145514" d="M-7319.21-3463.614s9.9-2.847,8.029-8.982-1.851-10.634-8.246-9.076-6.907,4.271-6.78,6.47S-7321.833-3463.032-7319.21-3463.614Z" transform="translate(7335.129 3491.234)" fill="#ffb27d"/>
            <path id="Trazado_145515" data-name="Trazado 145515" d="M-7326.413-3476.4a9.092,9.092,0,0,0-1.536,3.933c-.014,1.712.748,4.994-.222,5.171,0,0-3.527-4.27-2.091-7.734C-7328.737-3478.7-7326.413-3476.4-7326.413-3476.4Z" transform="translate(7338.433 3487.563)" fill="#233862"/>
            <path id="Trazado_145516" data-name="Trazado 145516" d="M-7204.48-3336.023s.025-7.878-1.431-8.822S-7207.841-3335.829-7204.48-3336.023Z" transform="translate(7245.268 3387.899)" fill="#f8a871"/>
            <path id="Trazado_145517" data-name="Trazado 145517" d="M-7302.212-3398.56s6.431,8.945,12.322,8.468c0,0,2.291-6.56.271-10.17,0,0,1.509.049,2.027.082.438.028,1.8.167,1.8.167l5.584,9.55a11.545,11.545,0,0,1,1.479,7.35l-2.159,16.242s-5.839,3.821-19.082-1.38l-3.729-12.846Z" transform="translate(7318.152 3429.628)" fill="#2b478b"/>
            <path id="Trazado_145518" data-name="Trazado 145518" d="M-7299.406-3376.239a1.008,1.008,0,0,1-.069.25c-.01.034-.025.071-.038.11-.028.081-.062.174-.1.278,0,.011-.009.023-.012.034-1.154,3.028-6.57,15.328-12.022,18.7a3.545,3.545,0,0,1-.92.6c-.038.017-.076.032-.113.047s-.084.033-.125.047a.34.34,0,0,1-.053.019,2.83,2.83,0,0,1-.881.138c-.075,0-.151,0-.229-.008-2.824-.21-14.908-17.709-15.136-23.029-.147-3.4,4.025-6.248,4.025-6.248,4.257,2.237,8.379,9.271,11.272,15.347.6,1.257,1.144,2.477,1.625,3.6a90.079,90.079,0,0,0,9.882-11.357Z" transform="translate(7337.306 3418.349)" fill="#ffb27d"/>
            <path id="Trazado_145519" data-name="Trazado 145519" d="M-7301.67-3251.122c-.323-1.1-.535-1.735-.535-1.735s-16.4.871-20.53-4.6c0,0,0,0,0,0l0,0c-.051.045-.78.734-1.85,1.908l-.01.011a50.489,50.489,0,0,0-4.935,6.357,36.453,36.453,0,0,0-2.443,4.352c.665.241,1.342.469,2.024.688a63.877,63.877,0,0,0,7.571,1.919,71.117,71.117,0,0,0,9.5,1.142c.8.044,3.657.113,4.241.113,3.1,0,6.159-.149,9.156-.449A82.983,82.983,0,0,0-7301.67-3251.122Z" transform="translate(7339.468 3321.975)" fill="#f99746"/>
            <path id="Trazado_145520" data-name="Trazado 145520" d="M-7284.82-3323.478c-2.714,3.781-7.821-3.564-8-3.836l1.314-1.114a20.139,20.139,0,0,1,5.057,1.349C-7285.848-3325.823-7285.3-3324.605-7284.82-3323.478Z" transform="translate(7309.945 3375.476)" fill="#ed985f"/>
            <path id="Trazado_145521" data-name="Trazado 145521" d="M-7307.49-3423.662a5.807,5.807,0,0,1,3.429-1.211,1.82,1.82,0,0,1-1.369,1.494A1.928,1.928,0,0,1-7307.49-3423.662Z" transform="translate(7321.007 3448.181)" fill="#ffe8dc"/>
            <path id="Trazado_145522" data-name="Trazado 145522" d="M-7310.751-3497.5l-5.574,5.112s4.224,6.948,10.182,7.766a23.835,23.835,0,0,1-5.643-3.815,8.768,8.768,0,0,0,5.021,1.9c1.33.065,3.293,5.42-.42,6.767,0,0,4.942.52,6.688-1.317a3.115,3.115,0,0,1-.225.776s3.732-1,4.9-2.614S-7301.15-3502.74-7310.751-3497.5Z" transform="translate(7327.667 3503.643)" fill="#233862"/>
            <path id="Trazado_145523" data-name="Trazado 145523" d="M-7324.016-3393.348s-6.707,2.3-8.18,5.125,1.054,10.111,4.09,13.773c0,0,7.521-.08,11.049-5.546C-7317.057-3380-7322.644-3392.128-7324.016-3393.348Z" transform="translate(7339.958 3424.416)" fill="#2b478b"/>
            <path id="Trazado_145524" data-name="Trazado 145524" d="M-7230.944-3399.249s4.491.287,7.418,6.657c0,0,.163,4.4-3.286,4.511S-7230.944-3399.249-7230.944-3399.249Z" transform="translate(7263.303 3428.865)" fill="#2b478b"/>
            <path id="Trazado_145525" data-name="Trazado 145525" d="M-7301.554-3349.553c-3.143-.866-6.117-1.722-8.8-2.514-7.629-2.257-12.88-4-12.88-4l-.017.022.016-.022s-1.85-1.754-1.96-2.59c-.1-.754-2.05-1.147-3.367-1.54a.216.216,0,0,0-.258.3,2.365,2.365,0,0,0,1.208.994c.931.309-.943.917-2.405.116-.906-.494-2.481-2.145-2.971-1.537s.067,3.763,1.318,5.1c.832.888,4.964.9,6.475,1.753h0c12.033,5.573,20.739,15.635,27.9,13C-7297.29-3340.473-7295.728-3347.948-7301.554-3349.553Z" transform="translate(7340.362 3399.623)" fill="#ffb27d"/>
            <path id="Trazado_145526" data-name="Trazado 145526" d="M-7280.136-3338.617l-2.7,2.508s-10.581-5.435-10.233-6.434a.145.145,0,0,1,.055-.074S-7287.765-3340.874-7280.136-3338.617Z" transform="translate(7310.144 3386.171)" fill="#f8a871"/>
            <path id="Trazado_145527" data-name="Trazado 145527" d="M-7220.2-3375.287s.895-2.388.627-3.187c-.258-.771,1.647-1.869,2.64-2.8a.077.077,0,0,1,.13.051,1.605,1.605,0,0,1-.529,1.268c-.7.686.258.835.9.031s-.709-2.449,0-2.119,2.952,2.23,2.716,3.424-2.6,3.377-3.59,4.8Z" transform="translate(7255.201 3415.928)" fill="#ffb27d"/>
            <path id="Trazado_145528" data-name="Trazado 145528" d="M-7302-3258.141s8.044,7.789,22.928,4.416l-.789-2.883s-12.791,3.5-19.738-4.305Z" transform="translate(7316.869 3324.578)" fill="#ed7d2b"/>
            <path id="Trazado_145529" data-name="Trazado 145529" d="M-7203.459-3449s3.684-2.947,5.791-.44-7.225,6.041-7.225,6.041-4.1-7.495-1.828-8.134S-7203.459-3449-7203.459-3449Z" transform="translate(7245.557 3468.34)" fill="#f99746"/>
            <path id="Trazado_145530" data-name="Trazado 145530" d="M-7359.9-3517.109s.488-2.73,2.392-2.437-.856,5.47-.856,5.47-4.718-1.73-3.962-2.891S-7359.9-3517.109-7359.9-3517.109Z" transform="translate(7362.408 3519.568)" fill="#f99746"/>
            <path id="Trazado_145531" data-name="Trazado 145531" d="M-7356.746-3420.415s-.684-3.066,1.434-3.593,1.5,6.093,1.5,6.093-5.686.254-5.4-1.292S-7356.746-3420.415-7356.746-3420.415Z" transform="translate(7360.011 3447.551)" fill="#f99746"/>
            <path id="Trazado_145532" data-name="Trazado 145532" d="M-7252.886-3348.49a1.12,1.12,0,0,1-.069.251l-.038.11c-.028.081-.062.174-.1.277l-.013.035c-1.213,3.215-7.187,16.863-12.94,19.3l-.114.047c-.041.016-.084.033-.124.046a.466.466,0,0,1-.056.02,2.818,2.818,0,0,1-.879.138C-7269.284-3329.993-7252.886-3348.49-7252.886-3348.49Z" transform="translate(7290.785 3390.599)" fill="#ed985f"/>
          </g>
          <g id="Grupo_106760" data-name="Grupo 106760" transform="translate(0 120.276)">
            <path id="Trazado_145533" data-name="Trazado 145533" d="M-7321.857-3004.439c-.8-1.441-1.354-2.694-1.184-3.5a.017.017,0,0,1,0,0c.025-.125.061-.37.1-.7.16-1.241.445-3.711.92-5.886.063-.289.13-.572.2-.846h0c.044-.177.09-.349.139-.517a6.738,6.738,0,0,0,.238-1.315,7.89,7.89,0,0,0-3.052-6.542c-.218-.181-.437-.344-.65-.487a4.566,4.566,0,0,0-1.685-.756,10.812,10.812,0,0,1-1.465-3.312c-.175-.536-.334-1.057-.466-1.5l-.012-.042c-.146-.491-.254-.879-.307-1.072h0c-.024-.085-.036-.131-.036-.131l-.122.076-.5.318s0,0,0,0l-1.236.782-1.915,1.213a.052.052,0,0,0,0,.014c.053.189.095.393.132.6.018.11.035.224.049.339.043.332.067.676.081,1.016v0c.011.253.018.5.018.747a.943.943,0,0,1-.987.94l-.033,0h0a24.348,24.348,0,0,0-2.868,0c-1.164.119-2.423.3-3.819.42l-.028,0a31.5,31.5,0,0,1-5.3.061l.253-11.742s1.208-1.19,1.28-1.829.118-3.37-.395-3.65c-.228-.125-.285,1.969-.457,2.079-.518.335-2.514.509-2.319,2.566h0c-.686,2.395-4.03,14.344-2.632,15.1l0,0,0,0s0,0,0,0a12.447,12.447,0,0,0,1.234.763c.091.05.183.1.277.147.054.028.106.056.161.082.155.08.314.154.473.227.09.043.177.082.27.122.125.057.251.109.379.162l.238.1q.274.111.556.21c.052.021.1.041.157.058a.483.483,0,0,0,.054.021c.061.022.122.043.185.063h0l.323.108.327.1q.327.1.657.194c.082.024.163.046.246.068l.135.037c.107.03.213.057.317.083.237.061.478.118.718.173l.244.055.033.007c.1.023.211.045.314.067s.224.047.335.068c.265.054.529.1.791.148.232.04.459.078.688.113.138.022.277.043.414.063s.255.038.381.054.243.034.361.048c.178.023.354.043.525.064h0c.078.009.152.019.228.026l.3.034.2.02a4.568,4.568,0,0,0-.147.445c-.042.144-.076.289-.1.435a.011.011,0,0,0,0,.008,3.953,3.953,0,0,0-.055,1.163c.387,3.583,3.24,8.172,4.1,11.175a6.572,6.572,0,0,1,.224,1.057,14.924,14.924,0,0,1,.025,2.244,56.307,56.307,0,0,0,6.646.409h.228q1.937,0,3.841-.1h0q1.641-.09,3.245-.255C-7320.9-3002.784-7321.414-3003.64-7321.857-3004.439Z" transform="translate(7360.524 3064.542)" fill="#ffb27d"/>
            <path id="Trazado_145534" data-name="Trazado 145534" d="M-7289.554-3032.9s2.951,1.052,1.333,4.355c0,0,2.413-.037,2.92-.8a1.886,1.886,0,0,1-.136.47s2.264-.6,2.974-1.584-3.384-12.252-9.206-9.073c0,0-5.386,1.211-3.032,7.155s.363,6.551.363,6.551a2.975,2.975,0,0,0,.9.022s.345-.269.355-.508a1.453,1.453,0,0,1-.041.5s2.208-.452,3.033-1.59S-7288.865-3031.741-7289.554-3032.9Z" transform="translate(7319.093 3063.304)" fill="#233862"/>
            <path id="Trazado_145535" data-name="Trazado 145535" d="M-7280.344-2996.982s.321,2.051.471,3.441c2.777-.89,3.034-3.4,3.463-4.784Z" transform="translate(7307.821 3031.813)" fill="#ed985f"/>
            <path id="Trazado_145536" data-name="Trazado 145536" d="M-7292.763-3029.907a13.849,13.849,0,0,0,1.276-4.211c.095-1.352.883-6.971-3.983-5.738a18.9,18.9,0,0,0-4.656,2.123c-1,.838-2.378,2.566-.189,6.672l.6,1.4Z" transform="translate(7323.756 3063.253)" fill="#233862"/>
            <path id="Trazado_145537" data-name="Trazado 145537" d="M-7296.349-3018.706s6-1.726,4.868-5.446-1.121-6.447-5-5.5-4.187,2.589-4.11,3.922S-7297.937-3018.352-7296.349-3018.706Z" transform="translate(7323.091 3055.572)" fill="#ffb27d"/>
            <path id="Trazado_145538" data-name="Trazado 145538" d="M-7299.655-3028.072s-1.983,1.973-1.992,3.01.454,3.029-.134,3.136c0,0-2.138-2.589-1.267-4.689C-7302.122-3028.843-7299.655-3028.072-7299.655-3028.072Z" transform="translate(7325.093 3054.335)" fill="#233862"/>
            <path id="Trazado_145539" data-name="Trazado 145539" d="M-7290.441-3039.536s-.056.013-.156.043c.184.409-3.073,3.292-3.073,3.292s2.562,4.214,6.173,4.709a14.5,14.5,0,0,1-3.42-2.315,5.315,5.315,0,0,0,3.044,1.152c.808.04,2,3.287-.256,4.1,0,0,3,.316,4.057-.8a1.983,1.983,0,0,1-.136.47s2.263-.6,2.975-1.585S-7284.619-3042.714-7290.441-3039.536Z" transform="translate(7317.868 3063.304)" fill="#233862"/>
            <path id="Trazado_145540" data-name="Trazado 145540" d="M-7335.745-2957.848c-3.474-.235-8.323-.923-11.874-2.857-.706-.435-1.168-.723-1.235-.763h0s0,0,0,0c.07.028.441.171,1.021.366,2.263.757,7.737,2.275,11.16.564C-7334.241-2961.751-7334.778-2959.826-7335.745-2957.848Z" transform="translate(7359.47 3004.029)" fill="#ed985f"/>
            <path id="Trazado_145541" data-name="Trazado 145541" d="M-7257.912-2900.567c-1.071.111-2.151.2-3.246.257h0q-1.9.1-3.841.1c-.076,0-.151,0-.227,0a35.566,35.566,0,0,1-1.752-4.186c-.278-.792-.414-1.28-.414-1.28a14.773,14.773,0,0,1,5.969-1.609q.482-.023.953-.013c-.042.334-.076.578-.1.7a.021.021,0,0,0,0,0c-.17.8.384,2.057,1.182,3.5C-7258.947-2902.292-7258.426-2901.436-7257.912-2900.567Z" transform="translate(7298.056 2963.193)" fill="#ed985f"/>
            <path id="Trazado_145542" data-name="Trazado 145542" d="M-7290.88-2969.96c-1.666-2.957-5.65-4.533-5.65-4.533-1.244,3.959-6.574,6.146-6.574,6.146-1.528-2.473-.227-6.146-.225-6.148h0a10.108,10.108,0,0,0-4.084-.073c-2.052.441-2.635.5-2.635.5s-.34,5.209,1.847,6.544a5.006,5.006,0,0,0-.21.739c-.578,2.974,2.907,11.986,2.907,11.986a24.734,24.734,0,0,0,12.761-2.634,44.3,44.3,0,0,0,2.24-8.931A6.546,6.546,0,0,0-7290.88-2969.96Z" transform="translate(7330.228 3014.038)" fill="#2b478b"/>
            <g id="Grupo_106757" data-name="Grupo 106757" transform="translate(19.054)">
              <path id="Trazado_145543" data-name="Trazado 145543" d="M-7314.562-3109.091h0l6.171-17.749,3.893,4.906,6.473-12.443h0l-6.2,18.845-4.117-5.05Z" transform="translate(7314.562 3134.376)" fill="#f99746"/>
            </g>
            <g id="Grupo_106758" data-name="Grupo 106758" transform="translate(0 14.232)">
              <path id="Trazado_145544" data-name="Trazado 145544" d="M-7384.863-3058.609h0l-7-9.76,4-.226-4.113-7.962h0l7.558,10.176-4.151.29Z" transform="translate(7391.975 3076.557)" fill="#f99746"/>
            </g>
            <g id="Grupo_106759" data-name="Grupo 106759" transform="translate(41.785 22.716)">
              <path id="Trazado_145545" data-name="Trazado 145545" d="M-7222.214-3030.227h0l7.406-9.449,1.338,3.771,6.489-6.181h0l-7.648,10.109-1.442-3.9Z" transform="translate(7222.214 3042.087)" fill="#f99746"/>
            </g>
            <path id="Trazado_145546" data-name="Trazado 145546" d="M-7241.342-2942.093a44.232,44.232,0,0,1-2.241,8.932c-2.83-.906-.053-9.378-.053-9.378A3.166,3.166,0,0,1-7241.342-2942.093Z" transform="translate(7281.066 2989.766)" fill="#2c3a64"/>
            <path id="Trazado_145547" data-name="Trazado 145547" d="M-7243-2957.76h0a38.76,38.76,0,0,0-9.3-14.357c-3.131-.656-4.051,1.423-4.794,4.453-.193.788,6.546,6.412,9.354,9.5h0l-3.892,6.12-1.767,2.782q1.639-.09,3.245-.256c.117-.013.232-.024.348-.039C-7246.593-2952.873-7242.475-2957.312-7243-2957.76Z" transform="translate(7290.297 3012.148)" fill="#ffb27d"/>
            <path id="Trazado_145548" data-name="Trazado 145548" d="M-7260.247-2973.945s2.746-.359,4.216.5,4.727,4.767,4.727,4.767-2.094,5.063-5.93,4.624c0,0-5.9-5.931-4.482-7.356A4.34,4.34,0,0,0-7260.247-2973.945Z" transform="translate(7293.945 3013.489)" fill="#2b478b"/>
          </g>
          <g id="Grupo_106766" data-name="Grupo 106766" transform="translate(220.635 60.9)">
            <path id="Trazado_145573" data-name="Trazado 145573" d="M-6471.1-3225.527c-.564.214-2.5,3.775-4.585,7.458l1.224-14.989a8.505,8.505,0,0,0,.807-2.407c0-.755,1-6.709.494-6.89s-3.139,2.652-3.4,3.936a33.132,33.132,0,0,0,.191,4.383h0c-.562,1.326-7.4,17.542-8.321,24.846-.268,2.112-.038,3.482.981,3.527a7.611,7.611,0,0,0,.775,0,11.724,11.724,0,0,0,3.037-.643.126.126,0,0,1,.028-.009,14.653,14.653,0,0,0,2.881-1.288c.02-.013.04-.022.062-.036.263-.145.408-.237.408-.237l0-.011a26.4,26.4,0,0,0,7.051-6.861,33.809,33.809,0,0,0,2.8-4.486C-6465.019-3225.084-6469.223-3226.242-6471.1-3225.527Z" transform="translate(6487.451 3275.16)" fill="#ffb27d"/>
            <path id="Trazado_145574" data-name="Trazado 145574" d="M-6434.367-3259.406s4.56.811,3.011,6.023c0,0,3.509-.645,4.063-1.88a2.921,2.921,0,0,1-.085.719s3.152-1.434,3.949-3.038-7.934-17.036-15.644-10.975c0,0-7.56,3.086-2.674,11.176s2.137,9.462,2.137,9.462a4.375,4.375,0,0,0,1.321-.189s.438-.475.395-.827a2.128,2.128,0,0,1,.064.74s3.109-1.2,4.031-3.062S-6433.077-3257.878-6434.367-3259.406Z" transform="translate(6456.241 3295.964)" fill="#233862"/>
            <path id="Trazado_145575" data-name="Trazado 145575" d="M-6404.054-3206.328c.27,2.273.246,5.838-2.383,6.52a18.226,18.226,0,0,0-3.773,1.572c-1.3.635-2.154.85-3.169-.609-1.749-2.516-1.078-6.038-1.078-6.038l.347-.116a28.3,28.3,0,0,1-1.879-4.343l5.917-3.049.553-.286a20.25,20.25,0,0,0,1.481,1.559,20.172,20.172,0,0,0,5.315,3.761Z" transform="translate(6435.584 3252.78)" fill="#ffb27d"/>
            <path id="Trazado_145576" data-name="Trazado 145576" d="M-6409.147-3198.142l-1.062.782c-1.3.636-2.154.851-3.169-.608-1.749-2.517-1.078-6.038-1.078-6.038l.347-.116a28.257,28.257,0,0,1-1.879-4.343l5.917-3.048c.332.362.981,1.038,1.876,1.858C-6407.628-3206.934-6407.093-3202.116-6409.147-3198.142Z" transform="translate(6435.584 3251.903)" fill="#ed985f"/>
            <path id="Trazado_145577" data-name="Trazado 145577" d="M-6438.116-3255.423a20.548,20.548,0,0,0,.83-6.452c-.193-1.995-.421-10.379-7.212-7.39,0,0-4.7,2.391-6.271,4.235-1.246,1.466-2.839,4.324,1.355,9.775l1.223,1.9Z" transform="translate(6462.83 3295.919)" fill="#233862"/>
            <path id="Trazado_145578" data-name="Trazado 145578" d="M-6439.079-3238.408a17.611,17.611,0,0,1-2.507,1.54c-2.231.9-7.47-7.28-7.908-9.206s-.39-4.4,5.036-6.728c3.819-1.64,5.272-.15,6.691,2.674.6,1.185,1.187,2.605,1.945,4.127C-6434.223-3242.788-6436.866-3240.027-6439.079-3238.408Z" transform="translate(6460.968 3283.542)" fill="#ffb27d"/>
            <path id="Trazado_145579" data-name="Trazado 145579" d="M-6420.235-3228.435c.449-3.907-4.956-10.4-4.956-10.4s3.188-.555,5.871-1.018c.6,1.184,1.187,2.605,1.943,4.126C-6415.777-3232.515-6418.023-3230.054-6420.235-3228.435Z" transform="translate(6442.521 3273.268)" fill="#ed985f"/>
            <path id="Trazado_145580" data-name="Trazado 145580" d="M-6450.9-3244.006a8.18,8.18,0,0,0-.773,3.706c.243,1.516,1.4,4.3.572,4.605,0,0-3.752-3.252-3-6.527C-6453.294-3245.7-6450.9-3244.006-6450.9-3244.006Z" transform="translate(6464.387 3276.707)" fill="#233862"/>
            <path id="Trazado_145581" data-name="Trazado 145581" d="M-6444.066-3253.664s.207.178.567.461c.018.07.026.109.026.109s4.766,5.516,10.153,5.354a21.432,21.432,0,0,1-5.555-2.536,7.861,7.861,0,0,0,4.721.933c1.188-.14,3.716,4.3.633,6.045,0,0,4.448-.274,5.718-2.158a2.812,2.812,0,0,1-.084.72s3.152-1.435,3.947-3.039S-6436.02-3263.1-6444.066-3253.664Z" transform="translate(6456.75 3286.156)" fill="#233862"/>
            <path id="Trazado_145582" data-name="Trazado 145582" d="M-6463.766-3135.728a26.388,26.388,0,0,1-7.052,6.861v.011s-.148.091-.41.237l-.062.035a14.746,14.746,0,0,1-2.881,1.289.06.06,0,0,0-.026.008,11.723,11.723,0,0,1-3.038.642,8.241,8.241,0,0,0,2.538-.953,16.09,16.09,0,0,0,4.058-3.459,42.013,42.013,0,0,0,4.423-6.482Z" transform="translate(6481.754 3196.136)" fill="#ed985f"/>
            <path id="Trazado_145583" data-name="Trazado 145583" d="M-6414.3-3193.654s0,0,0,0c-.243-.477-.493-.93-.743-1.355a10.365,10.365,0,0,0-3.281-3.817s0,0,0,0,0,0,0,0a5.534,5.534,0,0,0-3.054-.186h0a35.094,35.094,0,0,0-4.558.982h0a27.667,27.667,0,0,1-2.705,6.336,6.726,6.726,0,0,1-1.555,1.778,2.343,2.343,0,0,1-1.306.511,4.628,4.628,0,0,1-2.888-.78,3.758,3.758,0,0,1-1.475-3.788v-.007l.189-.789v-.006h0l0-.014h0c-.153.04-5.42,1.418-6.411,2.854a41.405,41.405,0,0,0-2.5,4.812s2.3,6.261,6.017,7.144c0,.007,0,.012,0,.019.173,1.835,1.647,4.4,3.529,6.906.723.963,1.507,1.919,2.3,2.819a100.688,100.688,0,0,0,17.165-2.819,66.166,66.166,0,0,0,7.592-2.465C-6409.591-3181.96-6411.862-3188.951-6414.3-3193.654Z" transform="translate(6457.144 3242.565)" fill="#2b478b"/>
            <path id="Trazado_145584" data-name="Trazado 145584" d="M-6397.268-3238.579c-.781.314-3.831,6.47-6.694,11.643l-5.771-18.623s-.028-3.36-.545-4.154-2.423-2.5-3.14-2.305.238,1.783.4,2.72.238,1.389.159,1.43-.585-1.607-.818-1.527.163,2.105.321,2.5c.15.375,1.317,1.066,1.478,1.8.109,4.83.94,33.565,5.036,32.238a.417.417,0,0,0,.09-.044c.254-.125.5-.251.749-.382l.01,0a.042.042,0,0,1,.011-.007,28.389,28.389,0,0,0,13.37-16.209,16.952,16.952,0,0,0,.462-1.65C-6390.317-3238.095-6395.13-3239.438-6397.268-3238.579Z" transform="translate(6433.897 3282.449)" fill="#ffb27d"/>
            <g id="Grupo_106763" data-name="Grupo 106763" transform="translate(13.668)">
              <path id="Trazado_145585" data-name="Trazado 145585" d="M-6433.125-3359.062a1.744,1.744,0,0,0-1.3-.535,1.835,1.835,0,0,0-1.333.535,1.775,1.775,0,0,0-.548,1.319,1.751,1.751,0,0,0,.563,1.305,1.818,1.818,0,0,0,1.317.548,1.752,1.752,0,0,0,1.3-.534,1.825,1.825,0,0,0,.523-1.32A1.819,1.819,0,0,0-6433.125-3359.062Zm3.134-15.1a6.321,6.321,0,0,0-4.23-1.437,6.7,6.7,0,0,0-3.079.744,5.457,5.457,0,0,0-2.271,2.1,3.224,3.224,0,0,0-.5,1.672,1.513,1.513,0,0,0,.407,1.083,1.346,1.346,0,0,0,1.031.431,1.568,1.568,0,0,0,1.279-.756l1.043-1.411a2.724,2.724,0,0,1,2.011-.756,2.733,2.733,0,0,1,1.789.587,2.023,2.023,0,0,1,.719,1.657,2.42,2.42,0,0,1-.759,1.907,5.176,5.176,0,0,1-1.879.914,3.427,3.427,0,0,0-1.317.64,1.332,1.332,0,0,0-.328.979v2.613a2.022,2.022,0,0,0,.418,1.3,1.418,1.418,0,0,0,1.177.523,1.452,1.452,0,0,0,1.539-1.2,12.476,12.476,0,0,0,.1-2.141,5.8,5.8,0,0,0,3.382-1.841,5.269,5.269,0,0,0,1.239-3.589A5.067,5.067,0,0,0-6429.991-3374.166Z" transform="translate(6440.071 3375.603)" fill="#f99746"/>
            </g>
            <g id="Grupo_106764" data-name="Grupo 106764" transform="translate(28.142 5.9)">
              <path id="Trazado_145586" data-name="Trazado 145586" d="M-6378.626-3339.715a1.282,1.282,0,0,0-.734-.733,1.359,1.359,0,0,0-1.057-.014,1.306,1.306,0,0,0-.742.74,1.3,1.3,0,0,0,.012,1.046,1.33,1.33,0,0,0,.739.745,1.279,1.279,0,0,0,1.036.006,1.33,1.33,0,0,0,.728-.748A1.331,1.331,0,0,0-6378.626-3339.715Zm6.4-9.367a4.664,4.664,0,0,0-2.464-2.17,4.938,4.938,0,0,0-2.3-.367,4.021,4.021,0,0,0-2.135.785,2.374,2.374,0,0,0-.811.995,1.125,1.125,0,0,0-.032.85,1,1,0,0,0,.579.582,1.15,1.15,0,0,0,1.082-.151l1.108-.662a2,2,0,0,1,1.579.055,2.007,2.007,0,0,1,1.047.9,1.486,1.486,0,0,1,.02,1.33,1.791,1.791,0,0,1-1.054,1.079,3.826,3.826,0,0,1-1.535.089,2.563,2.563,0,0,0-1.076.061.977.977,0,0,0-.5.572l-.739,1.773a1.493,1.493,0,0,0-.087,1,1.037,1.037,0,0,0,.651.685,1.066,1.066,0,0,0,1.385-.378,9.332,9.332,0,0,0,.678-1.423,4.252,4.252,0,0,0,2.813-.293,3.858,3.858,0,0,0,1.857-2.084A3.733,3.733,0,0,0-6372.227-3349.082Z" transform="translate(6381.264 3351.634)" fill="#f99746"/>
            </g>
            <g id="Grupo_106765" data-name="Grupo 106765" transform="translate(0 9.953)">
              <path id="Trazado_145587" data-name="Trazado 145587" d="M-6484.765-3324.435a1.344,1.344,0,0,0-.9-.533,1.294,1.294,0,0,0-1,.275,1.352,1.352,0,0,0-.534.911,1.3,1.3,0,0,0,.273,1.014,1.3,1.3,0,0,0,.914.507,1.334,1.334,0,0,0,1.012-.273,1.284,1.284,0,0,0,.521-.9A1.332,1.332,0,0,0-6484.765-3324.435Zm-3.021-9.188a3.722,3.722,0,0,0-2.841-1.541,4.65,4.65,0,0,0-3.107,1.065,4.93,4.93,0,0,0-1.457,1.817,4.018,4.018,0,0,0-.377,2.244,2.4,2.4,0,0,0,.462,1.2,1.122,1.122,0,0,0,.722.448,1,1,0,0,0,.795-.213,1.157,1.157,0,0,0,.4-1.017l-.024-1.29a2,2,0,0,1,.828-1.344,2.011,2.011,0,0,1,1.3-.461,1.483,1.483,0,0,1,1.163.641,1.787,1.787,0,0,1,.417,1.45,3.823,3.823,0,0,1-.684,1.375,2.552,2.552,0,0,0-.48.965.986.986,0,0,0,.25.717l1.174,1.521a1.489,1.489,0,0,0,.83.571,1.032,1.032,0,0,0,.917-.225,1.066,1.066,0,0,0,.357-1.391,9.263,9.263,0,0,0-.9-1.292,4.273,4.273,0,0,0,1.141-2.592A3.878,3.878,0,0,0-6487.787-3333.624Z" transform="translate(6495.599 3335.169)" fill="#f99746"/>
            </g>
            <path id="Trazado_145588" data-name="Trazado 145588" d="M-6368.826-3160.492a28.391,28.391,0,0,1-13.372,16.209c4.767-2.671,9.051-16,9.051-16Z" transform="translate(6410.111 3213.439)" fill="#ed985f"/>
            <path id="Trazado_145589" data-name="Trazado 145589" d="M-6362.316-3199.313s4.938-1.64,6.741,2.413-.184,10.85-.184,10.85-8.671-.477-10.015-6.795Z" transform="translate(6397.729 3242.952)" fill="#2b478b"/>
          </g>
          <path id="Trazado_145590" data-name="Trazado 145590" d="M-6460.412-3093.229a100.86,100.86,0,0,1-17.163,2.819c-3.349.271-6.593.393-9.6.393a42.692,42.692,0,0,1-16.889-3.212h43.652Z" transform="translate(6722.615 3223.633)" fill="#f99746"/>
          <g id="Grupo_106767" data-name="Grupo 106767" transform="translate(68.422 207.216)">
            <path id="Trazado_145591" data-name="Trazado 145591" d="M-6947.647-2781.167h-153.341A13.009,13.009,0,0,0-7114-2768.157h179.356A13.009,13.009,0,0,0-6947.647-2781.167Z" transform="translate(7113.996 2781.167)" fill="#2c3a64"/>
            <path id="Trazado_145592" data-name="Trazado 145592" d="M-6871.324-2781.167h-153.338a13.009,13.009,0,0,0-13.009,13.009h179.356A13.009,13.009,0,0,0-6871.324-2781.167Z" transform="translate(7056.458 2781.167)" fill="#2b478b"/>
          </g>
        </g>
      </g>
    </g>
  </g>
</svg>
