<svg xmlns="http://www.w3.org/2000/svg" xmlns:xlink="http://www.w3.org/1999/xlink" width="418" height="327" viewBox="0 0 418 327">
  <defs>
    <filter id="Rect치ngulo_35051" x="0" y="0" width="418" height="327" filterUnits="userSpaceOnUse">
      <feOffset dy="3" input="SourceAlpha"/>
      <feGaussianBlur stdDeviation="3" result="blur"/>
      <feFlood flood-opacity="0.161"/>
      <feComposite operator="in" in2="blur"/>
      <feComposite in="SourceGraphic"/>
    </filter>
  </defs>
  <g id="img16" transform="translate(-1011 -8797.474)">
    <g transform="matrix(1, 0, 0, 1, 1011, 8797.47)" filter="url(#Rect치ngulo_35051)">
      <rect id="Rect치ngulo_35051-2" data-name="Rect치ngulo 35051" width="400" height="309" rx="39" transform="translate(9 6)" fill="#fff"/>
    </g>
    <path id="Trazado_148851" data-name="Trazado 148851" d="M-84.165-5.664h-5.527V0H-93.12V-14.219h9.512v2.646h-6.084V-8.3h5.527ZM-76.714,0a3.716,3.716,0,0,1-.312-.947A3.06,3.06,0,0,1-79.565.2a3.749,3.749,0,0,1-2.539-.9,2.875,2.875,0,0,1-1.045-2.271,2.955,2.955,0,0,1,1.27-2.6,6.468,6.468,0,0,1,3.691-.879h1.016v-.559q0-1.462-1.26-1.462A1.03,1.03,0,0,0-79.6-7.319H-82.9a2.95,2.95,0,0,1,1.3-2.487,5.479,5.479,0,0,1,3.325-.956,4.8,4.8,0,0,1,3.193.986,3.429,3.429,0,0,1,1.2,2.705v4.678a4.79,4.79,0,0,0,.449,2.227V0Zm-2.061-2.148a1.836,1.836,0,0,0,1.021-.264,1.653,1.653,0,0,0,.581-.6V-4.7h-.957q-1.719,0-1.719,1.543a.942.942,0,0,0,.3.728A1.1,1.1,0,0,0-78.774-2.148Zm11.191-.2a1.464,1.464,0,0,0,1.074-.376,1.379,1.379,0,0,0,.371-1.05h3.086A3.653,3.653,0,0,1-64.3-.918,4.631,4.631,0,0,1-67.5.2,4.689,4.689,0,0,1-71.138-1.25a5.7,5.7,0,0,1-1.328-4v-.137a6.436,6.436,0,0,1,.591-2.827,4.3,4.3,0,0,1,1.7-1.885,5.081,5.081,0,0,1,2.637-.659,4.573,4.573,0,0,1,3.271,1.143,4.053,4.053,0,0,1,1.211,3.1h-3.086a1.806,1.806,0,0,0-.4-1.26,1.382,1.382,0,0,0-1.074-.439q-1.279,0-1.494,1.631a11.508,11.508,0,0,0-.068,1.426,4.52,4.52,0,0,0,.381,2.207A1.319,1.319,0,0,0-67.583-2.344Zm9.756-10.85v2.627h1.738v2.285h-1.738v4.834a1.234,1.234,0,0,0,.215.83,1.152,1.152,0,0,0,.85.234,4.828,4.828,0,0,0,.82-.059V-.088A6.074,6.074,0,0,1-57.8.2a3.448,3.448,0,0,1-2.51-.8,3.282,3.282,0,0,1-.811-2.432V-8.281h-1.348v-2.285h1.348v-2.627ZM-55.5-5.381A6.236,6.236,0,0,1-54.888-8.2a4.4,4.4,0,0,1,1.768-1.9,5.323,5.323,0,0,1,2.705-.664,4.858,4.858,0,0,1,3.74,1.47,5.64,5.64,0,0,1,1.367,4v.117A5.472,5.472,0,0,1-46.68-1.255,4.871,4.871,0,0,1-50.4.2a4.927,4.927,0,0,1-3.623-1.353,5.29,5.29,0,0,1-1.475-3.667Zm3.291.205a3.932,3.932,0,0,0,.459,2.148,1.529,1.529,0,0,0,1.357.684q1.758,0,1.8-2.705v-.332q0-2.842-1.816-2.842-1.65,0-1.787,2.451Zm14.746-2.412-1.084-.078a1.947,1.947,0,0,0-1.992.977V0h-3.291V-10.566h3.086l.107,1.357a2.548,2.548,0,0,1,2.314-1.553,3.209,3.209,0,0,1,.918.117ZM-31.167.2A5.432,5.432,0,0,1-35.1-1.255a5.008,5.008,0,0,1-1.5-3.774V-5.3a6.489,6.489,0,0,1,.6-2.861,4.395,4.395,0,0,1,1.753-1.919,5.292,5.292,0,0,1,2.734-.679A4.574,4.574,0,0,1-28-9.38a5.43,5.43,0,0,1,1.289,3.853v1.279h-6.543a2.372,2.372,0,0,0,.771,1.4,2.3,2.3,0,0,0,1.543.508A2.958,2.958,0,0,0-28.5-3.437L-27-1.66A4.2,4.2,0,0,1-28.74-.308,5.891,5.891,0,0,1-31.167.2Zm-.371-8.418q-1.445,0-1.719,1.914h3.32v-.254a1.63,1.63,0,0,0-.4-1.226A1.593,1.593,0,0,0-31.538-8.223Zm11.68,5.254a.76.76,0,0,0-.439-.674,6.685,6.685,0,0,0-1.67-.527A7.615,7.615,0,0,1-24-4.888,3.4,3.4,0,0,1-25.22-5.967a2.577,2.577,0,0,1-.42-1.455,2.92,2.92,0,0,1,1.2-2.4,4.948,4.948,0,0,1,3.145-.942,5.482,5.482,0,0,1,3.359.947,2.962,2.962,0,0,1,1.27,2.49h-3.3q0-1.27-1.338-1.27a1.326,1.326,0,0,0-.869.288.892.892,0,0,0-.352.718.819.819,0,0,0,.43.713,4.06,4.06,0,0,0,1.372.449,11.857,11.857,0,0,1,1.655.42,3.007,3.007,0,0,1,2.383,2.939A2.767,2.767,0,0,1-17.969-.713,5.631,5.631,0,0,1-21.294.2a5.747,5.747,0,0,1-2.422-.488,4.05,4.05,0,0,1-1.66-1.328,3.007,3.007,0,0,1-.6-1.768H-22.9a1.272,1.272,0,0,0,.488,1.069,2.009,2.009,0,0,0,1.2.337A1.58,1.58,0,0,0-20.2-2.256.875.875,0,0,0-19.858-2.969Zm19.5-2.236A6.372,6.372,0,0,1-1.465-1.274,3.554,3.554,0,0,1-4.458.2,3.046,3.046,0,0,1-6.851-.869V4.063h-3.291V-10.566h3.076l.1.977a3.046,3.046,0,0,1,2.49-1.172A3.582,3.582,0,0,1-1.44-9.321,6.45,6.45,0,0,1-.356-5.361ZM-3.647-5.41q0-2.812-1.641-2.812a1.549,1.549,0,0,0-1.562.84v4.16a1.6,1.6,0,0,0,1.582.879q1.572,0,1.621-2.715ZM7.485-7.588,6.4-7.666a1.947,1.947,0,0,0-1.992.977V0H1.118V-10.566H4.2l.107,1.357a2.548,2.548,0,0,1,2.314-1.553,3.209,3.209,0,0,1,.918.117Zm.42,2.207A6.236,6.236,0,0,1,8.521-8.2a4.4,4.4,0,0,1,1.768-1.9,5.323,5.323,0,0,1,2.705-.664,4.858,4.858,0,0,1,3.74,1.47,5.64,5.64,0,0,1,1.367,4v.117a5.472,5.472,0,0,1-1.372,3.921A4.871,4.871,0,0,1,13.013.2,4.927,4.927,0,0,1,9.39-1.157,5.29,5.29,0,0,1,7.915-4.824Zm3.291.205a3.932,3.932,0,0,0,.459,2.148,1.529,1.529,0,0,0,1.357.684q1.758,0,1.8-2.705v-.332q0-2.842-1.816-2.842-1.65,0-1.787,2.451Zm12.432-2.48,1.533-2.91h3.418L25.8-5.42,28.716,0H25.278l-1.66-3.125L21.987,0H18.53l2.93-5.42-2.773-5.146h3.457ZM34.751.2a5.432,5.432,0,0,1-3.936-1.45,5.008,5.008,0,0,1-1.5-3.774V-5.3a6.489,6.489,0,0,1,.6-2.861,4.395,4.395,0,0,1,1.753-1.919,5.292,5.292,0,0,1,2.734-.679A4.574,4.574,0,0,1,37.915-9.38,5.43,5.43,0,0,1,39.2-5.527v1.279H32.661a2.372,2.372,0,0,0,.771,1.4,2.3,2.3,0,0,0,1.543.508,2.958,2.958,0,0,0,2.441-1.094l1.5,1.777A4.2,4.2,0,0,1,37.178-.308,5.891,5.891,0,0,1,34.751.2ZM34.38-8.223q-1.445,0-1.719,1.914h3.32v-.254a1.63,1.63,0,0,0-.4-1.226A1.593,1.593,0,0,0,34.38-8.223Zm-.039-6.787h3.477L35.1-11.943l-2.686,0Zm9.3,4.443.107,1.24a3.633,3.633,0,0,1,3.018-1.436A2.675,2.675,0,0,1,49.468-9.17a3.516,3.516,0,0,1,3.105-1.592q3.213,0,3.3,3.887V0h-3.3V-6.67A2.014,2.014,0,0,0,52.3-7.852a1.164,1.164,0,0,0-1-.371,1.559,1.559,0,0,0-1.455.869l.01.137V0h-3.3V-6.65a2.117,2.117,0,0,0-.264-1.2,1.161,1.161,0,0,0-1.006-.371,1.578,1.578,0,0,0-1.445.869V0H40.552V-10.566ZM61.226,0h-3.3V-10.566h3.3Zm-3.5-13.291a1.469,1.469,0,0,1,.508-1.152,1.916,1.916,0,0,1,1.318-.449,1.916,1.916,0,0,1,1.318.449,1.469,1.469,0,0,1,.508,1.152,1.469,1.469,0,0,1-.508,1.152,1.916,1.916,0,0,1-1.318.449,1.916,1.916,0,0,1-1.318-.449A1.469,1.469,0,0,1,57.729-13.291ZM67.72-2.344a1.464,1.464,0,0,0,1.074-.376,1.379,1.379,0,0,0,.371-1.05h3.086A3.653,3.653,0,0,1,71.006-.918,4.631,4.631,0,0,1,67.8.2,4.689,4.689,0,0,1,64.165-1.25a5.7,5.7,0,0,1-1.328-4v-.137a6.436,6.436,0,0,1,.591-2.827,4.3,4.3,0,0,1,1.7-1.885,5.081,5.081,0,0,1,2.637-.659A4.573,4.573,0,0,1,71.04-9.619a4.053,4.053,0,0,1,1.211,3.1H69.165a1.806,1.806,0,0,0-.4-1.26,1.382,1.382,0,0,0-1.074-.439q-1.279,0-1.494,1.631a11.508,11.508,0,0,0-.068,1.426,4.52,4.52,0,0,0,.381,2.207A1.319,1.319,0,0,0,67.72-2.344Zm5.508-3.037A6.236,6.236,0,0,1,73.843-8.2a4.4,4.4,0,0,1,1.768-1.9,5.323,5.323,0,0,1,2.705-.664,4.858,4.858,0,0,1,3.74,1.47,5.64,5.64,0,0,1,1.367,4v.117a5.472,5.472,0,0,1-1.372,3.921A4.871,4.871,0,0,1,78.335.2a4.927,4.927,0,0,1-3.623-1.353,5.29,5.29,0,0,1-1.475-3.667Zm3.291.205a3.932,3.932,0,0,0,.459,2.148,1.529,1.529,0,0,0,1.357.684q1.758,0,1.8-2.705v-.332q0-2.842-1.816-2.842-1.65,0-1.787,2.451ZM90.405-2.969a.76.76,0,0,0-.439-.674A6.685,6.685,0,0,0,88.3-4.17a7.615,7.615,0,0,1-2.031-.718,3.4,3.4,0,0,1-1.221-1.079,2.577,2.577,0,0,1-.42-1.455,2.92,2.92,0,0,1,1.2-2.4,4.948,4.948,0,0,1,3.145-.942,5.482,5.482,0,0,1,3.359.947,2.962,2.962,0,0,1,1.27,2.49H90.3q0-1.27-1.338-1.27a1.326,1.326,0,0,0-.869.288.892.892,0,0,0-.352.718.819.819,0,0,0,.43.713,4.06,4.06,0,0,0,1.372.449,11.857,11.857,0,0,1,1.655.42,3.007,3.007,0,0,1,2.383,2.939A2.767,2.767,0,0,1,92.295-.713,5.631,5.631,0,0,1,88.97.2a5.747,5.747,0,0,1-2.422-.488,4.05,4.05,0,0,1-1.66-1.328,3.007,3.007,0,0,1-.6-1.768h3.076a1.272,1.272,0,0,0,.488,1.069,2.009,2.009,0,0,0,1.2.337,1.58,1.58,0,0,0,1.011-.273A.875.875,0,0,0,90.405-2.969Z" transform="translate(1210 8898.474)" fill="#12263f"/>
    <path id="Trazado_145783" data-name="Trazado 145783" d="M-7116.093-4207.38v56.044a40,40,0,0,1-40,40h-320a40,40,0,0,1-40-40v-54.472a1148.273,1148.273,0,0,0,195.527,16.711A1147.738,1147.738,0,0,0-7116.093-4207.38Z" transform="translate(8536.093 13223.81)" fill="#3e2ea6"/>
    <g id="Grupo_106792" data-name="Grupo 106792" transform="translate(759.76 8351.25)">
      <path id="Trazado_145699" data-name="Trazado 145699" d="M690.947,908.095a25.522,25.522,0,0,1-3.176-.148,14.827,14.827,0,0,0-3.6-.093c-1.854.339-4.813,1.57-5.853,3.96-1.3,2.978-5.632,2.413-.785,13.968,5.487,13.079,12.412,9.029,12.514,8.74s3.66-10.858,3.66-10.858,3.969,4.15,3.906,3.969S703.694,907.974,690.947,908.095Z" transform="translate(-358.601 -278.229)" fill="#0e2e35"/>
      <path id="Trazado_145700" data-name="Trazado 145700" d="M2115.936,1549.58h15.592l-10.19-34.243-4.667,3.178s-3.578,12.6-1.952,21.555C2114.983,1541.519,2115.409,1544.917,2115.936,1549.58Z" transform="translate(-1566.829 -788.357)" fill="#1b0479"/>
      <path id="Trazado_145701" data-name="Trazado 145701" d="M2138.46,1529.339h23.979c.113-7.013.2-13.338-.473-16.746-1.626-8.269-8.458-18.262-8.458-18.262l-24.4-3.1,4.05,23.084Z" transform="translate(-1579.268 -768.116)" fill="#0f0140"/>
      <path id="Trazado_145702" data-name="Trazado 145702" d="M1925.081,1608.884v7.367a7.048,7.048,0,0,1-7.155,6.936h-7.36v-17.175h11.552a3,3,0,0,1,2.039.79A2.815,2.815,0,0,1,1925.081,1608.884Z" transform="translate(-1395.772 -864.491)" fill="#0e2e35"/>
      <g id="Grupo_106776" data-name="Grupo 106776" transform="translate(499.404 675.659)">
        <path id="Trazado_145703" data-name="Trazado 145703" d="M1816.086,1264.571l2.541-.051-1.432-66.638a7.167,7.167,0,0,1,5.649,4.952l17.678,60.176,2.445-.668-17.679-60.175a9.757,9.757,0,0,0-9.394-6.849h-1.3Z" transform="translate(-1814.598 -1195.317)" fill="#0e2e35"/>
      </g>
      <path id="Trazado_145704" data-name="Trazado 145704" d="M1867.553,1606.8h-.049a2.708,2.708,0,0,0-2.749,2.665v5.42a8.434,8.434,0,0,1-8.562,8.3h-4.481a8.434,8.434,0,0,1-8.562-8.3v-5.393a3.538,3.538,0,0,1,3.592-3.482h18.772A3,3,0,0,1,1867.553,1606.8Z" transform="translate(-1339.166 -864.491)" fill="#184655"/>
      <path id="Trazado_145705" data-name="Trazado 145705" d="M1861.623,1600.3l-6.139-24.555-7.9,24.555Z" transform="translate(-1342.889 -839.079)" fill="#f7cc7f"/>
      <path id="Trazado_145706" data-name="Trazado 145706" d="M1740.545,1584.754c2.568-13,4.765-24.654,4.765-24.654l-28.7-2.871s-.207,13.12-.091,27.525Z" transform="translate(-1232.813 -823.531)" fill="#fae0b2"/>
      <path id="Trazado_145707" data-name="Trazado 145707" d="M1079.31,1556.742l4.266-26.278-25.019-6.6s-1.165,11.781-1.165,11.956c0,5.783-.347,13.238-.81,20.919Z" transform="translate(-678.741 -795.519)" fill="#355389"/>
      <path id="Trazado_145708" data-name="Trazado 145708" d="M1121.581,1565.543l-1.281-11.289-1.928-11.166-30.474-8.739-.689,13.109,6.02,18.085Z" transform="translate(-704.455 -804.321)" fill="#466eb6"/>
      <path id="Trazado_145709" data-name="Trazado 145709" d="M766.049,1526.4c-.644-9.694-1.209-19.708-1.209-27,0-.171-1.137-11.672-1.137-11.672l-24.423,6.44,5.233,32.23Z" transform="translate(-412.324 -765.178)" fill="#b75742"/>
      <path id="Trazado_145710" data-name="Trazado 145710" d="M686.047,1534.993l8.066-24.233-.673-12.8-29.748,8.531-1.882,10.9-2,17.6Z" transform="translate(-345.6 -773.77)" fill="#f47458"/>
      <path id="Trazado_145711" data-name="Trazado 145711" d="M1638.765,975.854c-.1-.194-.156-.3-.156-.3l.008-.081q-.428-1.063-.943-2.112c-2.28-4.625-7.921-7.25-13.065-7.256a16.384,16.384,0,0,0-4.6.626c-2.107.948-7.256,4.226-8.6,13.993a15.678,15.678,0,0,0,1.86,9.8c-1.386.871-3.207,2.637-4.526,6.2-2.423,6.547-14.54,8-15.752,16.732s11.39,24.492,24.718,14.307c10.146-7.753,8.5-22.529,7.13-29.145a14.868,14.868,0,0,0,9.833-2.137,12.394,12.394,0,0,0,6.3-9.227A33.85,33.85,0,0,0,1638.765,975.854Z" transform="translate(-1129.06 -327.205)" fill="#f7cc7f"/>
      <g id="Grupo_106777" data-name="Grupo 106777" transform="translate(483.32 662.492)">
        <path id="Trazado_145712" data-name="Trazado 145712" d="M1728.844,1122.185c-8.258,0-14.141-7.481-14.388-7.8a.727.727,0,0,1,1.15-.891h0c.056.072,5.7,7.236,13.238,7.236a.727.727,0,0,1,0,1.455Z" transform="translate(-1714.304 -1113.213)" fill="#184655"/>
      </g>
      <path id="Trazado_145713" data-name="Trazado 145713" d="M1840.348,1328.655a1.4,1.4,0,0,1-.235-.219c-2.252-2.648-21.159-24.892-21.711-26.1-.5-1.089-4.813-23.16-4.813-23.16l10.6,1.433,3.29,20.4c.563.929,11.569,17.767,11.569,17.767s1.935,3.142,3.191,4.925c.5.223.979.429,1.38.59a12.868,12.868,0,0,0,2.47.529,14.679,14.679,0,0,1,3.111.8c.454.256,1.372.814,1.921,1.157s1.206.723,1.474.939a3.313,3.313,0,0,0,.94.351.553.553,0,0,1,.121,1.024,2.408,2.408,0,0,1-1.494-.029c-1.16-.273-2.733-1.338-2.766-1.161s1.879,2.767,2.079,3.078a39.092,39.092,0,0,1,2.641,4.06c.234.728-.179.995-.571.793-.337-.174-3.7-4.122-3.7-4.122s-.429-.5-.481-.152,2.989,3.941,3.343,4.562.3,1.2-.367,1.1c-.809-.126-3.819-4.159-3.819-4.159s-.386-.5-.529-.266,2.5,3.244,2.6,3.633a.526.526,0,0,1-.758.632c-.692-.259-3.348-3.882-3.348-3.882s-.279-.218-.311-.017,2.035,2.929,2.021,3.395a.365.365,0,0,1-.362.386c-.748.155-2.39-2.775-3.547-3.879s-1.936-2.886-3.459-4.049C1840.736,1328.942,1840.5,1328.766,1840.348,1328.655Z" transform="translate(-1314.346 -590.071)" fill="#f8a492"/>
      <path id="Trazado_145714" data-name="Trazado 145714" d="M1637.134,1343.7a1.389,1.389,0,0,1-.125-.3c-.966-3.34-9.07-31.393-9.079-32.72-.008-1.2,5.121-23.094,5.121-23.094l9.077,5.665-5.375,19.949c.131,1.079,3.253,20.955,3.253,20.955s.475,3.66.887,5.8c.365.41.716.794,1.016,1.105a12.908,12.908,0,0,0,2.035,1.5,14.688,14.688,0,0,1,2.506,2.012c.309.42.917,1.306,1.276,1.844s.8,1.155.959,1.462a3.314,3.314,0,0,0,.713.706.553.553,0,0,1-.31.983,2.407,2.407,0,0,1-1.35-.64c-.946-.726-1.941-2.344-2.046-2.2s.577,3.3.632,3.66a39.089,39.089,0,0,1,.74,4.787c-.086.76-.572.833-.846.488-.236-.3-1.676-5.277-1.676-5.277s-.185-.635-.376-.337,1.107,4.823,1.175,5.533-.221,1.218-.785.85c-.686-.447-1.775-5.362-1.775-5.362s-.147-.614-.373-.461.943,3.984.879,4.382a.526.526,0,0,1-.951.265c-.524-.52-1.458-4.916-1.458-4.916s-.165-.313-.276-.143.652,3.508.449,3.926a.365.365,0,0,1-.489.2c-.746-.166-1.04-3.513-1.642-5s-.579-3.427-1.491-5.114C1637.371,1344.117,1637.226,1343.859,1637.134,1343.7Z" transform="translate(-1158.462 -597.13)" fill="#f8a492"/>
      <path id="Trazado_145715" data-name="Trazado 145715" d="M1700.95,1184.83s-8.9-.566-12.422,3.267,7.811,34.152,8.451,39.03-6.2,18.471-6.2,18.471,25.438,7.6,31.414,3.646c0,0-.958-39.094-1.6-42.578s-5.976-17.655-7.256-19.048S1700.95,1184.83,1700.95,1184.83Z" transform="translate(-1208.774 -510.828)" fill="#3e2ea6"/>
      <path id="Trazado_145716" data-name="Trazado 145716" d="M1648.873,1226.061s7.491-14.872,8.293-19.916-3.615-11.284-8.124-10.8-10.714,23.469-10.714,23.469Z" transform="translate(-1167.193 -519.659)" fill="#e8e8e8"/>
      <path id="Trazado_145717" data-name="Trazado 145717" d="M1761.74,1106.99s-.048.27-.136.728c-.419,2.2-2.033,9.494-3.124,11.5-1.318,2.424,4.511,10.153,10.122,9.21,1.67-.281-1.412-7.1-1.264-7.825.284-1.384.668-3.271,1.062-5.205.222-1.091.447-2.2.658-3.238.6-2.956,1.09-5.373,1.09-5.373Z" transform="translate(-1267.917 -445.325)" fill="#f7a491"/>
      <path id="Trazado_145718" data-name="Trazado 145718" d="M1777.609,1107.718c.088-.458.136-.728.136-.728l8.407-.2s-.49,2.417-1.089,5.373c-.21,1.034-.433,2.135-.654,3.22a7.958,7.958,0,0,1-4.014-1.958,10.31,10.31,0,0,1-3.041-4.4C1777.458,1108.5,1777.544,1108.059,1777.609,1107.718Z" transform="translate(-1283.923 -445.325)" fill="#f47458"/>
      <path id="Trazado_145719" data-name="Trazado 145719" d="M1766.824,992a7.7,7.7,0,0,0-6.446,2.68c-2.484,3.126-5.161,12.792,1.009,18.048s12.267-.693,13.171-7S1775.813,991.774,1766.824,992Z" transform="translate(-1267.343 -348.931)" fill="#f7a491"/>
      <path id="Trazado_145720" data-name="Trazado 145720" d="M1856.98,1059.089c-.736,1.393-1.973,2.164-2.761,1.723s-.831-1.929-.094-3.322,1.973-2.165,2.761-1.723S1857.716,1057.7,1856.98,1059.089Z" transform="translate(-1347.94 -402.384)" fill="#f7a491"/>
      <path id="Trazado_145721" data-name="Trazado 145721" d="M1747.864,985.162s-5.294,9.192-9.081,9.617-4.285,5.309-4.285,5.309,1.354-11.255,5.1-13.425A14.271,14.271,0,0,1,1747.864,985.162Z" transform="translate(-1247.939 -343.124)" fill="#f7cc7f"/>
      <path id="Trazado_145722" data-name="Trazado 145722" d="M1746.666,1046.464c.308,1.632-.312,3.129-1.383,3.344s-2.191-.936-2.5-2.568.311-3.129,1.384-3.344S1746.359,1044.832,1746.666,1046.464Z" transform="translate(-1254.83 -392.499)" fill="#f7a491"/>
      <path id="Trazado_145723" data-name="Trazado 145723" d="M1795.611,1093.962l5.639,1.206a2.521,2.521,0,0,1-3.083,1.657C1795.125,1096.266,1795.611,1093.962,1795.611,1093.962Z" transform="translate(-1299.227 -434.558)" fill="#fff"/>
      <g id="Grupo_106778" data-name="Grupo 106778" transform="translate(347.985 640.25)">
        <path id="Trazado_145724" data-name="Trazado 145724" d="M1084.222,1158.459s12.746,1.349,16.125,4.914l-6.5,32.9a34.664,34.664,0,0,0-.648,7.566c.168,6.877.435,21.166-.1,25.814-1.485,12.87-34.9.51-39.848-1.193,0,0,7.43-57.3,12.514-66.114,1.694-2.939,9.418-3.059,9.418-3.059Z" transform="translate(-1023.924 -1128.962)" fill="#ef6c00"/>
        <path id="Trazado_145725" data-name="Trazado 145725" d="M870.438,990.213c.47-1,4.661,1.95,5.59,1.39s-3.754-5.282-3.276-6.107c.88-1.52,5.446,4.855,5.9,4.181s-3.936-7.48-2.37-7.854,3.811,7.532,4.615,7.023-2.749-7.164-1.234-8.522c.81-.725,4.63,12.146,6.015,12.68s2.946-5.085,4.25-4.864-4.277,10.335-4,11.125,5.383,17.3,8.4,22.288c1.815-.868,3.583-1.741,5.269-2.592.678,3.83,2.241,7.175,3.131,10.935-5.853,2.572-12.564,5.124-14.264,4.5-5.176-1.906-7.729-27.031-8.56-31.719s-3.044-5.612-4.3-8.076S869.968,991.208,870.438,990.213Z" transform="translate(-870.403 -979.37)" fill="#f48c7f"/>
        <path id="Trazado_145726" data-name="Trazado 145726" d="M1056.266,1172.264l7.424,9.029a156.684,156.684,0,0,1-20.492,11.536c-.89-3.759-3.085-9.652-3.762-13.482A154.856,154.856,0,0,1,1056.266,1172.264Z" transform="translate(-1012.328 -1140.553)" fill="#ef6c00"/>
        <path id="Trazado_145727" data-name="Trazado 145727" d="M1407.974,984.443c-.47-1-4.661,1.95-5.59,1.389s3.754-5.281,3.276-6.107c-.88-1.52-5.447,4.855-5.9,4.181s3.936-7.48,2.37-7.854-3.811,7.532-4.614,7.023,2.749-7.165,1.233-8.522c-.81-.725-4.63,12.146-6.015,12.68s-2.946-5.085-4.25-4.864,4.277,10.335,4,11.125-5.383,17.3-8.4,22.288c-1.815-.868-3.583-1.741-5.269-2.592-.678,3.83-2.493,7.458-3.383,11.217,5.853,2.572,12.816,4.842,14.516,4.216,5.176-1.906,7.729-27.031,8.56-31.719s3.045-5.612,4.305-8.076S1408.444,985.438,1407.974,984.443Z" transform="translate(-1294.448 -974.525)" fill="#f48c7f"/>
        <path id="Trazado_145728" data-name="Trazado 145728" d="M1290.288,1167.436l-1.36,20.407s5.249-4.258,14.956.007c.89-3.759,3.085-9.652,3.762-13.482A129.229,129.229,0,0,0,1290.288,1167.436Z" transform="translate(-1221.81 -1136.499)" fill="#ef6c00"/>
      </g>
      <path id="Trazado_145729" data-name="Trazado 145729" d="M1191.982,1081.289l1.808,12.056s-6.6,14.355-10.543,13.11c-3.307-1.044-1.272-13.746-1.272-13.746s1.8-6.821,1.262-10.234S1191.982,1081.289,1191.982,1081.289Z" transform="translate(-783.504 -423.317)" fill="#f7a491"/>
      <path id="Trazado_145730" data-name="Trazado 145730" d="M1191.875,1082.474c-.54-3.413,8.746-1.186,8.746-1.186l.15,1a5.568,5.568,0,0,1-1.007,1.681,12.163,12.163,0,0,1-8.12,3.718A18.828,18.828,0,0,0,1191.875,1082.474Z" transform="translate(-792.142 -423.317)" fill="#f47458"/>
      <g id="Grupo_106779" data-name="Grupo 106779" transform="translate(394.145 630.933)">
        <path id="Trazado_145731" data-name="Trazado 145731" d="M1174.1,958.957c.262-.1,2.1,13.731-1.391,17.536s-10.3,5.05-12.744,2.053c-2.7-3.314-2.565-18.175,2.867-22.089S1174.1,958.957,1174.1,958.957Z" transform="translate(-1158.241 -948.974)" fill="#f7a491"/>
        <path id="Trazado_145732" data-name="Trazado 145732" d="M1175.056,916.511a15.057,15.057,0,0,1,7.918,4.57c1.906.228,4.5,1.294,7.174,5.777,3.291,5.513.86,11.62-2.97,14.616s-3.787,6.475-3.787,6.475l-.6-1.808a10.126,10.126,0,0,1-.48-4.217,8.322,8.322,0,0,1,.62-2.535c.921-2-1.979-3.331-2.792-5-.626-1.282-.656-4.215-1.643-6.334l-1.178-1.618s-2.718-2.14-5.378-1.536S1169.668,915.4,1175.056,916.511Z" transform="translate(-1168.398 -916.425)" fill="#13375b"/>
        <path id="Trazado_145733" data-name="Trazado 145733" d="M1232.592,1027.977c-.028,1.687.73,3.068,1.693,3.085s1.766-1.338,1.793-3.024-.73-3.068-1.693-3.085S1232.62,1026.29,1232.592,1027.977Z" transform="translate(-1220.668 -1007.548)" fill="#f7a491"/>
      </g>
      <path id="Trazado_145734" data-name="Trazado 145734" d="M1169.914,1071.348l4.563.945a2.038,2.038,0,0,1-2.483,1.354C1169.533,1073.211,1169.914,1071.348,1169.914,1071.348Z" transform="translate(-773.88 -415.57)" fill="#fff"/>
      <path id="Trazado_145735" data-name="Trazado 145735" d="M1042.767,1219.717l.632.568a.776.776,0,0,0,1.092-.027l11.211-12.367a.767.767,0,0,0-.084-1.084l-.632-.568a.776.776,0,0,0-1.092.028l-11.212,12.367A.767.767,0,0,0,1042.767,1219.717Z" transform="translate(-666.913 -528.651)" fill="#13375b"/>
      <path id="Trazado_145736" data-name="Trazado 145736" d="M801.238,1227.763c1.5-1.222,13.087,3.88,12.94,5.656s8.086,19,8.086,19l14.228-11.384.006,0c.126-.412,1.475-4.839,1.54-5.631.069-.831,2.473-2.284,3.59-2.071s-.955,1.62-1.091,1.878c-.37.7,1.061.966,1.061.966s4.111-2.264,4.2-3.6.936-4.122,1.824-3.538c.458.3.454,2.281.311,3.221.264-1.066.638-2.271,1-2.39.665-.218,1,.631.875,1.048s-1.195,4.945-1.521,5.454-6.958,5.865-7.914,7.03c0,0-18.4,21.11-19.714,21.662-1.15.485-5.249-6.79-9.122-11.62S796.556,1231.583,801.238,1227.763Z" transform="translate(-463.395 -546.744)" fill="#f7a491"/>
      <path id="Trazado_145737" data-name="Trazado 145737" d="M840.928,1159.378l-13.753,1.409s-.631-11.313-.631-16.71c0-6.547.556-14.981,1.344-14.8a11.979,11.979,0,0,1,6.963,4.179C840.987,1141.917,840.928,1159.378,840.928,1159.378Z" transform="translate(-485.593 -464.207)" fill="#14c5d9"/>
      <path id="Trazado_145738" data-name="Trazado 145738" d="M695.339,1140.643c.288,2,5.575,56.266,5.575,56.266-25.042,12.136-38.86,2.162-38.86,2.162s.819-38.109-.163-43.3c-.65-3.432-1.46-26.236.756-26.875a55.291,55.291,0,0,1,9.66-2.06c3.034-.316,14.821-.5,16.93.211A26.982,26.982,0,0,1,695.339,1140.643Z" transform="translate(-346.76 -461.928)" fill="#05dbf2"/>
      <g id="Grupo_106780" data-name="Grupo 106780" transform="translate(355.598 704.168)">
        <path id="Trazado_145739" data-name="Trazado 145739" d="M919.543,1387.247a3.234,3.234,0,0,0,.378-.281c-.445-5.317-.365-10.469,1.3-12.211-.04-.083-.4-.859-.783-1.663-1.927,1.5-2.843,5.469-2.484,11.92a11.084,11.084,0,0,0,.254,1.336C918.765,1386.964,919.272,1387.361,919.543,1387.247Z" transform="translate(-917.876 -1373.092)" fill="#f7a491"/>
      </g>
      <path id="Trazado_145740" data-name="Trazado 145740" d="M506.371,1263.91a1.532,1.532,0,0,1-.006-.349c.369-3.758,3.479-35.318,4-36.66.473-1.211,14.421-21.228,14.421-21.228l6.855,9.372L518.23,1233c-.3,1.141-5.14,22.445-5.14,22.445s-.992,3.883-1.436,6.209c.2.56.4,1.09.578,1.524a14.023,14.023,0,0,0,1.445,2.331,15.994,15.994,0,0,1,1.713,3.04c.142.548.4,1.687.543,2.375s.344,1.488.377,1.861a3.609,3.609,0,0,0,.433,1,.6.6,0,0,1-.706.866c-.488-.162-.867-.8-1.1-1.19-.66-1.113-1.012-3.146-1.176-3.039s-.743,3.556-.834,3.946a42.625,42.625,0,0,1-1.177,5.127c-.392.732-.91.609-1.047.151-.118-.395.432-6,.432-6s.069-.715-.243-.491-.822,5.31-1.039,6.054-.712,1.139-1.131.54c-.51-.728.367-6.123.367-6.123s.1-.678-.19-.615-.65,4.4-.875,4.773a.569.569,0,0,1-1.062-.116c-.319-.736.507-5.546.507-5.546s-.041-.383-.221-.256-.752,3.8-1.124,4.141a.394.394,0,0,1-.573.008c-.684-.468.365-3.962.354-5.7s.793-3.69.553-5.759C506.44,1264.429,506.4,1264.11,506.371,1263.91Z" transform="translate(-215.88 -528.354)" fill="#f8a492"/>
      <path id="Trazado_145741" data-name="Trazado 145741" d="M558.789,1164.323l11.914,8.026s6.715-10.026,10.32-13.6c4.516-4.472-1.645-18.17-4.554-17.4C569.961,1143.091,558.789,1164.323,558.789,1164.323Z" transform="translate(-260.778 -474.326)" fill="#05dbf2"/>
      <path id="Trazado_145742" data-name="Trazado 145742" d="M726.62,1051.485l-1.782,11.786s6.508,14.033,10.393,12.816c3.26-1.021,1.255-13.438,1.255-13.438s-1.777-6.668-1.244-10.005S726.62,1051.485,726.62,1051.485Z" transform="translate(-400.198 -398.306)" fill="#f7a491"/>
      <path id="Trazado_145743" data-name="Trazado 145743" d="M743.8,1052.644c.533-3.337-8.622-1.159-8.622-1.159l-.148.977a5.431,5.431,0,0,0,.993,1.643,12.035,12.035,0,0,0,8,3.635A18.259,18.259,0,0,1,743.8,1052.644Z" transform="translate(-408.754 -398.306)" fill="#f47458"/>
      <path id="Trazado_145744" data-name="Trazado 145744" d="M785.642,1037.2l5.192-.27a2.278,2.278,0,0,1-2.3,2.17C785.757,1039.325,785.642,1037.2,785.642,1037.2Z" transform="translate(-451.25 -386.672)" fill="#fff"/>
      <path id="Trazado_145745" data-name="Trazado 145745" d="M2141.092,998.394c6.177-7.336,17.044-8.692,22.3-.1a21.27,21.27,0,0,1,2.677,7.4c.7,6.087-1.592,11.687-.717,17.719a38.412,38.412,0,0,1-6.175.114l-.385-4.019-1.388,3.876c-6.638-.674-15.132-3.069-25.021-9.18A50.322,50.322,0,0,1,2141.092,998.394Z" transform="translate(-1582.018 -349.248)" fill="#12263f"/>
      <path id="Trazado_145746" data-name="Trazado 145746" d="M2325.522,1308.228s15.046,18.739,18.535,23.149,18.6,18.117,19.207,18.63,10.607-1.7,10.506-.421-5.175.867-5.03,2.324,10.135,9.24,9.346,9.749c-1.477.954-6.295-4.53-6.9-3.954s5.554,5.262,4.894,6.586-5.422-4.978-6.088-4.785,3.693,6.521,2.219,6.833c-.8.169-3.741-5.72-4.417-5.046s.878,5.522-.063,5.628-.76-4.234-2.556-6.213-2.082-4.329-5.848-6.648-20.293-10.007-26.188-16.952-16.739-20.781-16.739-20.781Z" transform="translate(-1736.522 -614.462)" fill="#f7a491"/>
      <path id="Trazado_145747" data-name="Trazado 145747" d="M1975.781,813.595s-10.74-21.5-13.288-26.511-8.689-24.47-8.9-25.234,5.976-8.927,4.771-9.369-2.95,4.34-4.213,3.6-4.161-13.068-4.954-12.564c-1.483.943,1.486,7.612.71,7.921s-2.461-7.244-3.94-7.2,2.258,7.006,1.8,7.53-4.382-6.079-5.281-4.871c-.488.656,3.634,5.788,2.74,6.121s-4.65-3.1-5.14-2.294,3.529,2.46,4.577,4.918,3.063,3.7,3.6,8.09.615,22.618,4.462,30.875,11.888,23.89,11.888,23.89Z" transform="translate(-1420.524 -140.3)" fill="#f7a491"/>
      <path id="Trazado_145748" data-name="Trazado 145748" d="M2087.328,1179.722s-5.344-12.8-6.2-14.927c0,0,7.463-6.7,11.918-6.179,0,0,5.773,9.142,9.176,9.472s15.375.843,17.473,2.1,11,14.78,11,14.78-8,8.081-11.221,8.065c0,0-2.187-5.458-2.936-4.463s.111,27.92-1.384,29.535c-1.383,1.495-23.825,3.345-26.885.5,0,0-.227-1.149-1.955-26.984A51.4,51.4,0,0,1,2087.328,1179.722Z" transform="translate(-1538.981 -488.819)" fill="#f7cc7f"/>
      <path id="Trazado_145749" data-name="Trazado 145749" d="M2199.54,1129.6s-1.29,6.674-1.032,9.306-.984,11.117-6.556,11.145-1.058-10.787-.533-13.366a98.73,98.73,0,0,0,.649-10.565Z" transform="translate(-1629.718 -461.562)" fill="#f7a491"/>
      <path id="Trazado_145750" data-name="Trazado 145750" d="M2206.385,1130.131c.087-2.185.115-4.006.115-4.006l7.472,3.48s-.263,1.365-.529,3.1A6.525,6.525,0,0,1,2206.385,1130.131Z" transform="translate(-1644.15 -461.562)" fill="#f47458"/>
      <path id="Trazado_145751" data-name="Trazado 145751" d="M2209.544,1022.845a6.957,6.957,0,0,1,4.321,4.76c.843,3.625-.722,12.919-7.929,15.055s-9.953-5.287-8.23-11.029S2202.14,1019.211,2209.544,1022.845Z" transform="translate(-1636.445 -373.978)" fill="#f7a491"/>
      <path id="Trazado_145752" data-name="Trazado 145752" d="M2274.358,1021.684s.8,9.89,3.793,11.7,1.486,6.182,1.486,6.182,3.292-10.148,1.019-13.439A12.79,12.79,0,0,0,2274.358,1021.684Z" transform="translate(-1701.223 -373.871)" fill="#12263f"/>
      <path id="Trazado_145753" data-name="Trazado 145753" d="M2283.407,1096.87c-.9,1.279-.969,2.8-.16,3.39s2.194.038,3.092-1.241.969-2.8.16-3.39S2284.305,1095.591,2283.407,1096.87Z" transform="translate(-1708.214 -435.758)" fill="#f7a491"/>
      <path id="Trazado_145754" data-name="Trazado 145754" d="M2217.07,1110.738l5.191,2.065a2.443,2.443,0,0,1-3.214,1.083C2216.232,1112.859,2217.07,1110.738,2217.07,1110.738Z" transform="translate(-1653.024 -448.643)" fill="#fff"/>
      <path id="Trazado_145777" data-name="Trazado 145777" d="M717.816,940.5a6.745,6.745,0,0,1,9.575,3.895,51.227,51.227,0,0,1,1.592,6.315c1.064,5.812-1.012,11.975-3.651,12.406s-10.552-2.153-12.176-10.385C712.154,947.644,713.934,942.589,717.816,940.5Z" transform="translate(-390.158 -305.036)" fill="#f7a491"/>
      <path id="Trazado_145778" data-name="Trazado 145778" d="M707.314,1012.346a1.963,1.963,0,1,1-2.281-2.018A2.172,2.172,0,0,1,707.314,1012.346Z" transform="translate(-382.264 -364.318)" fill="#f7a491"/>
      <path id="Trazado_145779" data-name="Trazado 145779" d="M702.963,942.064s3.268-.3,3.712-2.62,2.986-7.885,8.662-7.916-5.928-2.658-6.334-2.517-5.29,1.8-5.29,1.8-2.682,4.394-2.7,4.78.185,4.463.185,4.463Z" transform="translate(-380.194 -296.054)" fill="#0e2e35"/>
      <path id="Trazado_145780" data-name="Trazado 145780" d="M764.976,1044.381l5.838-.855a2.58,2.58,0,0,1-2.362,2.694C765.335,1046.769,764.976,1044.381,764.976,1044.381Z" transform="translate(-433.899 -392.21)" fill="#fff"/>
    </g>
  </g>
</svg>
