<svg xmlns="http://www.w3.org/2000/svg" xmlns:xlink="http://www.w3.org/1999/xlink" width="418" height="327" viewBox="0 0 418 327">
  <defs>
    <filter id="Rect치ngulo_35050" x="0" y="0" width="418" height="327" filterUnits="userSpaceOnUse">
      <feOffset dy="3" input="SourceAlpha"/>
      <feGaussianBlur stdDeviation="3" result="blur"/>
      <feFlood flood-opacity="0.161"/>
      <feComposite operator="in" in2="blur"/>
      <feComposite in="SourceGraphic"/>
    </filter>
  </defs>
  <g id="img15" transform="translate(-591 -8797.474)">
    <g transform="matrix(1, 0, 0, 1, 591, 8797.47)" filter="url(#Rect치ngulo_35050)">
      <rect id="Rect치ngulo_35050-2" data-name="Rect치ngulo 35050" width="400" height="309" rx="39" transform="translate(9 6)" fill="#fff"/>
    </g>
    <path id="Trazado_148852" data-name="Trazado 148852" d="M-84.165-5.664h-5.527V0H-93.12V-14.219h9.512v2.646h-6.084V-8.3h5.527ZM-76.714,0a3.716,3.716,0,0,1-.312-.947A3.06,3.06,0,0,1-79.565.2a3.749,3.749,0,0,1-2.539-.9,2.875,2.875,0,0,1-1.045-2.271,2.955,2.955,0,0,1,1.27-2.6,6.468,6.468,0,0,1,3.691-.879h1.016v-.559q0-1.462-1.26-1.462A1.03,1.03,0,0,0-79.6-7.319H-82.9a2.95,2.95,0,0,1,1.3-2.487,5.479,5.479,0,0,1,3.325-.956,4.8,4.8,0,0,1,3.193.986,3.429,3.429,0,0,1,1.2,2.705v4.678a4.79,4.79,0,0,0,.449,2.227V0Zm-2.061-2.148a1.836,1.836,0,0,0,1.021-.264,1.653,1.653,0,0,0,.581-.6V-4.7h-.957q-1.719,0-1.719,1.543a.942.942,0,0,0,.3.728A1.1,1.1,0,0,0-78.774-2.148Zm11.191-.2a1.464,1.464,0,0,0,1.074-.376,1.379,1.379,0,0,0,.371-1.05h3.086A3.653,3.653,0,0,1-64.3-.918,4.631,4.631,0,0,1-67.5.2,4.689,4.689,0,0,1-71.138-1.25a5.7,5.7,0,0,1-1.328-4v-.137a6.436,6.436,0,0,1,.591-2.827,4.3,4.3,0,0,1,1.7-1.885,5.081,5.081,0,0,1,2.637-.659,4.573,4.573,0,0,1,3.271,1.143,4.053,4.053,0,0,1,1.211,3.1h-3.086a1.806,1.806,0,0,0-.4-1.26,1.382,1.382,0,0,0-1.074-.439q-1.279,0-1.494,1.631a11.508,11.508,0,0,0-.068,1.426,4.52,4.52,0,0,0,.381,2.207A1.319,1.319,0,0,0-67.583-2.344Zm9.756-10.85v2.627h1.738v2.285h-1.738v4.834a1.234,1.234,0,0,0,.215.83,1.152,1.152,0,0,0,.85.234,4.828,4.828,0,0,0,.82-.059V-.088A6.074,6.074,0,0,1-57.8.2a3.448,3.448,0,0,1-2.51-.8,3.282,3.282,0,0,1-.811-2.432V-8.281h-1.348v-2.285h1.348v-2.627ZM-55.5-5.381A6.236,6.236,0,0,1-54.888-8.2a4.4,4.4,0,0,1,1.768-1.9,5.323,5.323,0,0,1,2.705-.664,4.858,4.858,0,0,1,3.74,1.47,5.64,5.64,0,0,1,1.367,4v.117A5.472,5.472,0,0,1-46.68-1.255,4.871,4.871,0,0,1-50.4.2a4.927,4.927,0,0,1-3.623-1.353,5.29,5.29,0,0,1-1.475-3.667Zm3.291.205a3.932,3.932,0,0,0,.459,2.148,1.529,1.529,0,0,0,1.357.684q1.758,0,1.8-2.705v-.332q0-2.842-1.816-2.842-1.65,0-1.787,2.451Zm14.746-2.412-1.084-.078a1.947,1.947,0,0,0-1.992.977V0h-3.291V-10.566h3.086l.107,1.357a2.548,2.548,0,0,1,2.314-1.553,3.209,3.209,0,0,1,.918.117ZM-31.167.2A5.432,5.432,0,0,1-35.1-1.255a5.008,5.008,0,0,1-1.5-3.774V-5.3a6.489,6.489,0,0,1,.6-2.861,4.395,4.395,0,0,1,1.753-1.919,5.292,5.292,0,0,1,2.734-.679A4.574,4.574,0,0,1-28-9.38a5.43,5.43,0,0,1,1.289,3.853v1.279h-6.543a2.372,2.372,0,0,0,.771,1.4,2.3,2.3,0,0,0,1.543.508A2.958,2.958,0,0,0-28.5-3.437L-27-1.66A4.2,4.2,0,0,1-28.74-.308,5.891,5.891,0,0,1-31.167.2Zm-.371-8.418q-1.445,0-1.719,1.914h3.32v-.254a1.63,1.63,0,0,0-.4-1.226A1.593,1.593,0,0,0-31.538-8.223Zm11.68,5.254a.76.76,0,0,0-.439-.674,6.685,6.685,0,0,0-1.67-.527A7.615,7.615,0,0,1-24-4.888,3.4,3.4,0,0,1-25.22-5.967a2.577,2.577,0,0,1-.42-1.455,2.92,2.92,0,0,1,1.2-2.4,4.948,4.948,0,0,1,3.145-.942,5.482,5.482,0,0,1,3.359.947,2.962,2.962,0,0,1,1.27,2.49h-3.3q0-1.27-1.338-1.27a1.326,1.326,0,0,0-.869.288.892.892,0,0,0-.352.718.819.819,0,0,0,.43.713,4.06,4.06,0,0,0,1.372.449,11.857,11.857,0,0,1,1.655.42,3.007,3.007,0,0,1,2.383,2.939A2.767,2.767,0,0,1-17.969-.713,5.631,5.631,0,0,1-21.294.2a5.747,5.747,0,0,1-2.422-.488,4.05,4.05,0,0,1-1.66-1.328,3.007,3.007,0,0,1-.6-1.768H-22.9a1.272,1.272,0,0,0,.488,1.069,2.009,2.009,0,0,0,1.2.337A1.58,1.58,0,0,0-20.2-2.256.875.875,0,0,0-19.858-2.969Zm19.5-2.236A6.372,6.372,0,0,1-1.465-1.274,3.554,3.554,0,0,1-4.458.2,3.046,3.046,0,0,1-6.851-.869V4.063h-3.291V-10.566h3.076l.1.977a3.046,3.046,0,0,1,2.49-1.172A3.582,3.582,0,0,1-1.44-9.321,6.45,6.45,0,0,1-.356-5.361ZM-3.647-5.41q0-2.812-1.641-2.812a1.549,1.549,0,0,0-1.562.84v4.16a1.6,1.6,0,0,0,1.582.879q1.572,0,1.621-2.715ZM7.485-7.588,6.4-7.666a1.947,1.947,0,0,0-1.992.977V0H1.118V-10.566H4.2l.107,1.357a2.548,2.548,0,0,1,2.314-1.553,3.209,3.209,0,0,1,.918.117Zm.42,2.207A6.236,6.236,0,0,1,8.521-8.2a4.4,4.4,0,0,1,1.768-1.9,5.323,5.323,0,0,1,2.705-.664,4.858,4.858,0,0,1,3.74,1.47,5.64,5.64,0,0,1,1.367,4v.117a5.472,5.472,0,0,1-1.372,3.921A4.871,4.871,0,0,1,13.013.2,4.927,4.927,0,0,1,9.39-1.157,5.29,5.29,0,0,1,7.915-4.824Zm3.291.205a3.932,3.932,0,0,0,.459,2.148,1.529,1.529,0,0,0,1.357.684q1.758,0,1.8-2.705v-.332q0-2.842-1.816-2.842-1.65,0-1.787,2.451Zm12.432-2.48,1.533-2.91h3.418L25.8-5.42,28.716,0H25.278l-1.66-3.125L21.987,0H18.53l2.93-5.42-2.773-5.146h3.457ZM34.751.2a5.432,5.432,0,0,1-3.936-1.45,5.008,5.008,0,0,1-1.5-3.774V-5.3a6.489,6.489,0,0,1,.6-2.861,4.395,4.395,0,0,1,1.753-1.919,5.292,5.292,0,0,1,2.734-.679A4.574,4.574,0,0,1,37.915-9.38,5.43,5.43,0,0,1,39.2-5.527v1.279H32.661a2.372,2.372,0,0,0,.771,1.4,2.3,2.3,0,0,0,1.543.508,2.958,2.958,0,0,0,2.441-1.094l1.5,1.777A4.2,4.2,0,0,1,37.178-.308,5.891,5.891,0,0,1,34.751.2ZM34.38-8.223q-1.445,0-1.719,1.914h3.32v-.254a1.63,1.63,0,0,0-.4-1.226A1.593,1.593,0,0,0,34.38-8.223Zm-.039-6.787h3.477L35.1-11.943l-2.686,0Zm9.3,4.443.107,1.24a3.633,3.633,0,0,1,3.018-1.436A2.675,2.675,0,0,1,49.468-9.17a3.516,3.516,0,0,1,3.105-1.592q3.213,0,3.3,3.887V0h-3.3V-6.67A2.014,2.014,0,0,0,52.3-7.852a1.164,1.164,0,0,0-1-.371,1.559,1.559,0,0,0-1.455.869l.01.137V0h-3.3V-6.65a2.117,2.117,0,0,0-.264-1.2,1.161,1.161,0,0,0-1.006-.371,1.578,1.578,0,0,0-1.445.869V0H40.552V-10.566ZM61.226,0h-3.3V-10.566h3.3Zm-3.5-13.291a1.469,1.469,0,0,1,.508-1.152,1.916,1.916,0,0,1,1.318-.449,1.916,1.916,0,0,1,1.318.449,1.469,1.469,0,0,1,.508,1.152,1.469,1.469,0,0,1-.508,1.152,1.916,1.916,0,0,1-1.318.449,1.916,1.916,0,0,1-1.318-.449A1.469,1.469,0,0,1,57.729-13.291ZM67.72-2.344a1.464,1.464,0,0,0,1.074-.376,1.379,1.379,0,0,0,.371-1.05h3.086A3.653,3.653,0,0,1,71.006-.918,4.631,4.631,0,0,1,67.8.2,4.689,4.689,0,0,1,64.165-1.25a5.7,5.7,0,0,1-1.328-4v-.137a6.436,6.436,0,0,1,.591-2.827,4.3,4.3,0,0,1,1.7-1.885,5.081,5.081,0,0,1,2.637-.659A4.573,4.573,0,0,1,71.04-9.619a4.053,4.053,0,0,1,1.211,3.1H69.165a1.806,1.806,0,0,0-.4-1.26,1.382,1.382,0,0,0-1.074-.439q-1.279,0-1.494,1.631a11.508,11.508,0,0,0-.068,1.426,4.52,4.52,0,0,0,.381,2.207A1.319,1.319,0,0,0,67.72-2.344Zm5.508-3.037A6.236,6.236,0,0,1,73.843-8.2a4.4,4.4,0,0,1,1.768-1.9,5.323,5.323,0,0,1,2.705-.664,4.858,4.858,0,0,1,3.74,1.47,5.64,5.64,0,0,1,1.367,4v.117a5.472,5.472,0,0,1-1.372,3.921A4.871,4.871,0,0,1,78.335.2a4.927,4.927,0,0,1-3.623-1.353,5.29,5.29,0,0,1-1.475-3.667Zm3.291.205a3.932,3.932,0,0,0,.459,2.148,1.529,1.529,0,0,0,1.357.684q1.758,0,1.8-2.705v-.332q0-2.842-1.816-2.842-1.65,0-1.787,2.451ZM90.405-2.969a.76.76,0,0,0-.439-.674A6.685,6.685,0,0,0,88.3-4.17a7.615,7.615,0,0,1-2.031-.718,3.4,3.4,0,0,1-1.221-1.079,2.577,2.577,0,0,1-.42-1.455,2.92,2.92,0,0,1,1.2-2.4,4.948,4.948,0,0,1,3.145-.942,5.482,5.482,0,0,1,3.359.947,2.962,2.962,0,0,1,1.27,2.49H90.3q0-1.27-1.338-1.27a1.326,1.326,0,0,0-.869.288.892.892,0,0,0-.352.718.819.819,0,0,0,.43.713,4.06,4.06,0,0,0,1.372.449,11.857,11.857,0,0,1,1.655.42,3.007,3.007,0,0,1,2.383,2.939A2.767,2.767,0,0,1,92.295-.713,5.631,5.631,0,0,1,88.97.2a5.747,5.747,0,0,1-2.422-.488,4.05,4.05,0,0,1-1.66-1.328,3.007,3.007,0,0,1-.6-1.768h3.076a1.272,1.272,0,0,0,.488,1.069,2.009,2.009,0,0,0,1.2.337,1.58,1.58,0,0,0,1.011-.273A.875.875,0,0,0,90.405-2.969Z" transform="translate(800 8898.474)" fill="#12263f"/>
    <path id="Trazado_145782" data-name="Trazado 145782" d="M-7116.093-4207.38v56.044a40,40,0,0,1-40,40h-320a40,40,0,0,1-40-40v-54.472a1148.273,1148.273,0,0,0,195.527,16.711A1147.738,1147.738,0,0,0-7116.093-4207.38Z" transform="translate(8116.093 13223.81)" fill="#3e2ea6"/>
    <g id="Grupo_106775" data-name="Grupo 106775" transform="translate(575.477 8862.011)">
      <path id="Trazado_145596" data-name="Trazado 145596" d="M293.362,161.954a7.943,7.943,0,0,1,6.828,1.58,12.517,12.517,0,0,1,3.967,12.2,11.834,11.834,0,0,1-4.759,6.459Z" transform="translate(-111.795 -36.784)" fill="#d6594c"/>
      <path id="Trazado_145597" data-name="Trazado 145597" d="M68.512,336.322a23.077,23.077,0,0,0-1.207,9.705,23.7,23.7,0,0,1-1,9.813c-1.159,3.864-3.168,10.832-3.168,10.832H98.2V325.938s-9.646-2.164-16.755,1.545A73.929,73.929,0,0,0,68.512,336.322Z" transform="translate(0 -116.209)" fill="#08668d"/>
      <path id="Trazado_145598" data-name="Trazado 145598" d="M85.809,327.483a73.93,73.93,0,0,0-12.934,8.839,14.808,14.808,0,0,0-.757,2.556c.071.091,2.912,3.682,9.3,5.312,6.47,1.651,7.9,1.1,7.9,1.1l3.509-9.571.768,10.27a59.261,59.261,0,0,0,8.974.98V325.938S92.918,323.774,85.809,327.483Z" transform="translate(-4.363 -116.209)" fill="#0b597f"/>
      <path id="Trazado_145599" data-name="Trazado 145599" d="M153.181,98.164s6.522-3.13,10.957,2.98,1.063,13.894-3.944,14.724S153.181,98.164,153.181,98.164Z" transform="translate(-43.726 -5.522)" fill="#19313a"/>
      <path id="Trazado_145600" data-name="Trazado 145600" d="M134.283,106.906A49.271,49.271,0,0,1,135.2,122.6c-.716,6-5.13,14.314-7.687,15.951s-6.8-.489-6.8-.489a23.827,23.827,0,0,0-.837,2.87c-.307,1.49,1.286,3.488,3.588,6.637a29.189,29.189,0,0,1,3.588,6.756s-18.759-4.651-22.135-15.8a24.694,24.694,0,0,0,3.172-8.594s-5.116-5.218-5.832-10.947,1.228-12.482,7.367-17.7S129.065,94.833,134.283,106.906Z" transform="translate(-18.93 -5.589)" fill="#ffdbc2"/>
      <path id="Trazado_145601" data-name="Trazado 145601" d="M118.283,160.99c1.811,2.141,7.226,4.169,8.641,4.673.291-1.161.7-2.279.7-2.279-2.464-.864-7.508-3.847-8.792-6.219s-1.037-7.514-1.037-7.514a7.5,7.5,0,0,0-1.194,3.223A9.469,9.469,0,0,0,118.283,160.99Z" transform="translate(-25.839 -30.912)" fill="#edc1a4"/>
      <path id="Trazado_145602" data-name="Trazado 145602" d="M105.337,126.036a12.183,12.183,0,0,0,1.976-3.219,17.959,17.959,0,0,0,1.194-4.078c-1.33.409-4.707-.732-5.454-3.865-.807-3.385-.23-5.131,1.1-6.155s3.379-1.106,4.808,1.04c1.225,1.838.864,3.337,1.616,3.643s3.371-2.263,3.576-6.867c0,0,3.888,2.66,7.366,0a5.731,5.731,0,0,0,2.251-6.241,5.382,5.382,0,0,0,4.449,2.865c3.224.2,3.683-1.842,3.683-1.842a7.047,7.047,0,0,0-2.97-7.068s.375-6.025-6.6-7.758c-7.416-1.843-13.8,1.629-15,6.816,0,0-5.728-.73-8.227,3.72-2.995,5.335-1.9,10.246-.312,16.162a54.615,54.615,0,0,0,4.057,10.74C104.2,126.3,105.337,126.036,105.337,126.036Z" transform="translate(-16.55 0)" fill="#19313a"/>
      <path id="Trazado_145603" data-name="Trazado 145603" d="M91.742,172.982c-.816,1.609-5.177,3.179-8.076,5.047s-9.675,8.47-7.713,21.746c1.971,13.329,4.784,37.087,4.462,41.49s-1.289,7.2-3.759,12.243-4.081,8.27-4.081,8.27,3.759,5.155,16,6.229L93.3,256.085l1.074,13s15.175,2.307,20.9.362c0,0,3.61-52.511,2.69-61.727-1.672-16.74-10.882-26.3-10.882-26.3s-4.7.522-8.1-1.374C93,176.708,91.742,172.982,91.742,172.982Z" transform="translate(-4.585 -42.241)" fill="#def1f8"/>
      <path id="Trazado_145604" data-name="Trazado 145604" d="M120.439,239.383,107.834,229.35,94.985,212.643l-3.328-17.455-9.794-3c-2.33,3.586-4.208,9.089-3.052,16.91.165,1.114.336,2.306.51,3.548A130.49,130.49,0,0,0,84.278,229.5a4.277,4.277,0,0,0,2.246,0l3.307,7.7L83.266,248.41a21.306,21.306,0,0,1,.006,2.182,26.51,26.51,0,0,1-2.761,10.14c4.511.979,19.454-7.309,23.077-9.63a8.816,8.816,0,0,0,1.073,3.083c.885,1.5.063,3.449.981,4.5s-8.589,17.54-8.589,17.54l.181,2.185s15.175,2.306,20.9.362C118.138,278.771,119.616,257.28,120.439,239.383Z" transform="translate(-7.443 -51.569)" fill="#90c8ee" opacity="0.37"/>
      <path id="Trazado_145605" data-name="Trazado 145605" d="M209,161.73a7.27,7.27,0,0,1,6.445,1.878c3.405,3.322,4.564,12.866-2.864,16.722,0,0-3.8-4.884-4.7-9.369S209,161.73,209,161.73Z" transform="translate(-70.169 -36.71)" fill="#3f292d"/>
      <path id="Trazado_145606" data-name="Trazado 145606" d="M162.218,354.717l3.575,26.06H108.857s1.7-14.441,8.849-26.418Z" transform="translate(-22.203 -130.315)" fill="#47b"/>
      <path id="Trazado_145607" data-name="Trazado 145607" d="M131.3,387.118s1.428-12.89,6.149-19.7H139.4s-4.746,6.166-6.443,19.7Z" transform="translate(-33.101 -136.655)" fill="#35679e"/>
      <path id="Trazado_145608" data-name="Trazado 145608" d="M168.387,354.717l-44.512-.358c-.847,1.418-1.614,2.87-2.314,4.329,0,.07.388,6.787,11.583,9.651,11.254,2.879,20.022.524,26.827-5.627,0,0,4.251,5.072,10.174,4.817Z" transform="translate(-28.371 -130.315)" fill="#35679e"/>
      <path id="Trazado_145609" data-name="Trazado 145609" d="M106.356,248.551c-3.043,2.29-21.227,16.6-26.059,21.26s-6.237,10.195-4.392,12.83,3.953,2.9,8.345,1.054S106,271.723,106,271.723s1.095-1.645,1.709-8.672A49.118,49.118,0,0,0,106.356,248.551Z" transform="translate(-5.822 -78.936)" fill="#c17a61"/>
      <path id="Trazado_145610" data-name="Trazado 145610" d="M119.675,269.3a37.6,37.6,0,0,0-.007-6.053c-2.971-.564-6.952-1.315-9.792-1.83-3.235,2.571-6.884,5.506-10.1,8.162.99,3.431,4.019,9.593,6.317,10.429,1.6.582,6.578-.14,9.453-.632,1.484-.857,2.421-1.4,2.421-1.4S119.061,276.325,119.675,269.3Z" transform="translate(-17.793 -85.182)" fill="#aa6552"/>
      <path id="Trazado_145611" data-name="Trazado 145611" d="M180.784,203.021c-3.508-.5-4.723-.966-4.935-1.435s.086-4.93.936-6.311a9.41,9.41,0,0,0,4.6.76c2.444-.275,3.441-1.868,4.823-6.646s1.488-16.268.744-19.669-9.885-9.725-19.664-5.713-11.373,18.468-9.779,22.932,5.527,7.441,5.527,8.822.213,4.066-1.381,4.854a40.452,40.452,0,0,1-6.06,1.754s.319,3.39,11.692,4.5S180.784,203.021,180.784,203.021Z" transform="translate(-44.896 -37.257)" fill="#c17a61"/>
      <path id="Trazado_145612" data-name="Trazado 145612" d="M161.758,238.912s-4.194,2.893-11.543,2.094-6.837-3.033-6.837-3.033-4.979.773-6.9,1.3c-3.76,1.032-5.916,1.774-7,4.14-.722,1.574-2.035,13.968-.893,20.246l1.228,6.748s2.067,7.5,1.583,11.159-8.657,15.712-8.657,15.712-.531,9.855,15.413,11.556,23.6-9.354,23.6-9.354a8.869,8.869,0,0,0,9.9,6.7c-1.687-4.781-2.457-19.242-1.85-24.268s6.59-36.886,4.7-38.5c-3.665-3.132-9.233-4-12.741-4.5" transform="translate(-28.941 -73.8)" fill="#f9b354"/>
      <path id="Trazado_145613" data-name="Trazado 145613" d="M177.53,258.982l-26.365,5.273-17.531,7.858c.064.621.143,1.209.241,1.75l.718,3.945c2.616-.653,9.007-2.581,15.5-4.111,8.9-2.1,19.354-4.869,23.893-5.973l5.631-5.125c.12-1.014.224-1.974.308-2.864Z" transform="translate(-34.234 -84.001)" fill="#dd9845"/>
      <path id="Trazado_145614" data-name="Trazado 145614" d="M163.74,307.56l-14.218-2.71-6.109-7.579-2.905-5.4c-1.08,1.178-1.063,3.132-.6,4.766a37.236,37.236,0,0,0,2.152,4.862l-3.325,4.222a11.656,11.656,0,0,1-.055,2.017,10.835,10.835,0,0,1-.94,2.724,14.532,14.532,0,0,0,5.516,2.343,101.507,101.507,0,0,1,19.192,4.8c8.07,3.029,11.019,3.216,12.375,2.764a6.873,6.873,0,0,0,2.209-1.96,70.825,70.825,0,0,1,.049-10.321c.038-.312.1-.728.172-1.233l-.04-.25Z" transform="translate(-36.227 -99.973)" fill="#dd9845"/>
      <path id="Trazado_145615" data-name="Trazado 145615" d="M161.055,300.729c-2.083-.118-10.889-.472-12.187-.668a2.652,2.652,0,0,1-2.319-1.73,7.013,7.013,0,0,0-2.4-3.5c-1.494-1.022-3.184-1.729-3.813-2.634s-.944-2.673-2.241-2.122-.787,2.948-.315,4.01,1.887,3.027,2.005,3.459-.433.55-1.494.236a40.569,40.569,0,0,1-4.324-2.123l-.315-1.651a1.94,1.94,0,0,0-1.966,1.1,3.878,3.878,0,0,0,0,3.381c.394.787-.078,1.769.669,2.949s1.179,1.3,1.336,2.083a5.66,5.66,0,0,0,2.319,3.643c1.651,1.075,4.56,1.39,7.823,1.9s15.483,4.3,15.483,4.3a11.678,11.678,0,0,0,1.735-4.611A17.972,17.972,0,0,0,161.055,300.729Z" transform="translate(-33.101 -99.049)" fill="#ffdbc2"/>
      <path id="Trazado_145616" data-name="Trazado 145616" d="M185.088,164.2a10.594,10.594,0,0,1-4,5.339c-1.824,1.4-2.034,2.314-2.525,4.278s-1.543,3.225-2.524,3.085-.561-2.1-1.262-3.468-1.964-3.334-4.628-2.352-2.289,6.311-.654,8.065,2.828,1.753,3.739,1.332,1.4.28,1.192,1.4-.549,4.6-3.214,6.567-9.321,1.185-10.308.484a26.964,26.964,0,0,1-5.543-4.692,14.792,14.792,0,0,1-3.849-9.281c-.253-4.511.566-9.917,2.076-11.32l9.162-10.3s2.489-4.137,9.572-3.646a10.955,10.955,0,0,1,9.4,6.241S187.19,160.583,185.088,164.2Z" transform="translate(-42.894 -30.912)" fill="#3f292d"/>
      <ellipse id="Elipse_4788" data-name="Elipse 4788" cx="9.93" cy="7.888" rx="9.93" ry="7.888" transform="matrix(0.681, -0.732, 0.732, 0.681, 99.93, 128.792)" fill="#3f292d"/>
      <path id="Trazado_145617" data-name="Trazado 145617" d="M275.257,235.993c-4.022-.633-7.412-.681-11.449-1.361s-5.947-1.082-5.545-4.9.8-6.335.8-6.335l-12.972-.7s-.6,6.134-.9,7.542-.4,1.407-3.419,1.911-9.273,1.729-9.273,1.729.827,3.4,17.317,6.415S275.257,235.993,275.257,235.993Z" transform="translate(-82.241 -66.378)" fill="#ffdbc2"/>
      <path id="Trazado_145618" data-name="Trazado 145618" d="M238.943,243.327s9.552,1.143,12.745,1.589,5.789,1.4,8.481,7.939c0,0-6.818,19.122-6.291,22.141.757,4.337-.937,16.556-1.466,19.377s.441,9.255,2.38,18.511,2.84,12.881,2.84,12.881H189.562a139.069,139.069,0,0,1,11.812-18.082c6.788-8.639,11.724-16.219,12.517-18.687s-3.261-16.4-3.261-16.4-11.107,16.66-12.429,18.511-2.027,1.675-5.554.793-7.757-2.292-7.757-2.292a10.991,10.991,0,0,1-.617-7.2c.97-4.262,2.351-5.434,2.351-5.434s1.792.026,2.5.026,1.939-.089,3-2.556,8.462-20.98,10.49-25.3,3.372-6.664,7.68-7.387a51.541,51.541,0,0,1,7.914-.7s2.328,3.551,9.091,4.256A21.463,21.463,0,0,0,238.943,243.327Z" transform="translate(-58.671 -75.301)" fill="#05dbf2"/>
      <path id="Trazado_145619" data-name="Trazado 145619" d="M270.646,349.887h0l-5.393,8.038c.757,4.313,1.514,10.248-6.273,14.473s-37.207,6.208-37.207,6.208h54.219s-.9-3.626-2.839-12.881A108.307,108.307,0,0,1,270.646,349.887Z" transform="translate(-77.032 -128.143)" fill="#0cbacc"/>
      <path id="Trazado_145620" data-name="Trazado 145620" d="M268.786,272.047l-5.8,1.924-13.263-6.615s-13.155-16.387-13.3-16.612-5.938-2.192-5.938-2.192l-14.206,4.21-.013.026c-.765,1.632-2.517,5.819-4.185,9.871a89.25,89.25,0,0,1,9.344-1.241c3.117-.225,6.655-2.858,6.655-2.858s11.2,16.99,15.626,21.5,7.375,8.418,11.584,8.644,7.244-5.043,10.749-7.968l1.559-1.68c-.018-.149-.04-.292-.063-.426-.167-.955.4-3.521,1.257-6.583Z" transform="translate(-72.323 -78.936)" fill="#0cbacc"/>
      <path id="Trazado_145621" data-name="Trazado 145621" d="M304.915,317.71l1.916,4.587,4.761,6.016h0c-.565-3.771-.747-6.53-.448-8.127.48-2.563,1.923-12.888,1.614-18.005l-.042-.245-3.874-7.71s-.673,7.966-1.487,13.424A92.928,92.928,0,0,1,304.915,317.71Z" transform="translate(-117.405 -101.114)" fill="#0cbacc"/>
      <path id="Trazado_145622" data-name="Trazado 145622" d="M265.747,345.443l-31.563-4.718c-1.173,1.989-2.877,4.578-4.975,7.527,2.872.424,14.87,2.211,24.067,3.813,10.52,1.832,14.8,3.231,18.029,2.41s2.653-2.464,3.526-3.583h0a50.661,50.661,0,0,1-.574-5.453C272.251,345.647,265.747,345.443,265.747,345.443Z" transform="translate(-80.643 -123.694)" fill="#1ebacc"/>
      <path id="Trazado_145623" data-name="Trazado 145623" d="M275.09,168.017c1.5,4.394,2.525,14.221,1.122,19.265s-2.992,5.885-5.049,5.885-9.16-1.181-9.16-1.181l-9.666-.525a4.039,4.039,0,0,0-1.462-3.436,17.526,17.526,0,0,1-3.927-20.008c4.675-10.565,16.268-11.407,21.411-7.48S275.09,168.017,275.09,168.017Z" transform="translate(-88.482 -35.15)" fill="#ffdbc2"/>
      <path id="Trazado_145624" data-name="Trazado 145624" d="M289.263,222.466a3.663,3.663,0,0,0,2.44-.755c-1.575.1-3.563-.492-6.265-3l-2.7.988-.112,1.98A65.63,65.63,0,0,0,289.263,222.466Z" transform="translate(-106.581 -64.449)" fill="#f2c5a7"/>
      <path id="Trazado_145625" data-name="Trazado 145625" d="M269.951,166.062c.009-2.193-5.041-7.7-5.041-7.7a16.342,16.342,0,0,0-10.54-4.01c-6.553-.1-12.182,3.268-14.157,11.513-1.955,8.164-2.863,7.723-4.327,10.72-1.355,2.772-3.126,10.838,5.774,15.934,9.534,5.46,18.761,3.27,21.009,2.334s2.79-2.485,1.245-4.98a14,14,0,0,1-1.786-6.184c-.078-1.5.139-2.208-.619-1.942-.57.2-1.961.231-3.13-1.673-1.308-2.13-.587-6.651,1.565-7.042s3.227,1.173,3.521,3.142-.293,2.726.782,2.921,2.054-.586,3.619-2.921S270.117,169.417,269.951,166.062Z" transform="translate(-83.343 -33.195)" fill="#d6594c"/>
      <path id="Trazado_145626" data-name="Trazado 145626" d="M648.95,328.8a24.347,24.347,0,0,1,5.469,11.322,32.176,32.176,0,0,1-.716,11.356,17.848,17.848,0,0,0,0,7.878c.614,3.069,1.944,9.012,1.944,9.012H628.86l-4.951-34.913Z" transform="translate(-272.302 -117.903)" fill="#47b"/>
      <path id="Trazado_145627" data-name="Trazado 145627" d="M637.721,337.65c7.849-1.226,11.035-3.774,13.1-6.382a17.634,17.634,0,0,0-1.875-2.468l-25.041,4.654.635,4.477A51.653,51.653,0,0,0,637.721,337.65Z" transform="translate(-272.302 -117.903)" fill="#35679e"/>
      <path id="Trazado_145628" data-name="Trazado 145628" d="M639.75,230.622c.709,4.759.461,16.769-2.048,21.8s-2.374,7.234-.829,9.929c2.143,3.737,8.681,13.431,8.681,13.431s-2.16,3.541-8.943,5.464-18.262,1.322-18.262,1.322a65.44,65.44,0,0,1-4.316-25.053c.506-13.629,7.134-35.549,7.134-35.549s7.952-4.2,12.508-1.367S639.75,230.622,639.75,230.622Z" transform="translate(-267.488 -64.886)" fill="#724472"/>
      <path id="Trazado_145629" data-name="Trazado 145629" d="M643.981,250.225l-1.591-2.7-12.856-11.438-7.012,4c-.284,1.137.481,1.736.189,2.979,1.351,4.539,3.33,12.752,5.067,14.378,2.346,2.2,8.76,6.042,12.825,5.426.458-1,.574-1.172,1.208-2.444C642.985,258.063,643.664,254.179,643.981,250.225Z" transform="translate(-271.597 -72.882)" fill="#673c68"/>
      <path id="Trazado_145630" data-name="Trazado 145630" d="M631.936,195.805s1.13,5.457,1.312,6.634.774,2.685,1.936,2.936a7.861,7.861,0,0,1-4.368,5.027,10.763,10.763,0,0,1-6.894,0,25.264,25.264,0,0,0-1.5-3.821,5.994,5.994,0,0,0-2.749-2.108Z" transform="translate(-270.245 -53.324)" fill="#ffdbc2"/>
      <path id="Trazado_145631" data-name="Trazado 145631" d="M632.024,196.231l-.088-.427-12.264,8.67a5.993,5.993,0,0,1,2.749,2.108s5.763-1.2,8.224-3.662C632.656,200.908,632.242,197.434,632.024,196.231Z" transform="translate(-270.245 -53.323)" fill="#edc1a4"/>
      <path id="Trazado_145632" data-name="Trazado 145632" d="M612.83,145.238s-5.79-2.945-10.478.74-4.641,13.083-.62,15.458c0,0,7.768-1.441,10.474-6.09S612.83,145.238,612.83,145.238Z" transform="translate(-260.096 -28.228)" fill="#19313a"/>
      <path id="Trazado_145633" data-name="Trazado 145633" d="M609.791,154.65c-2.425,1.039-4.571,4.972-5.265,10.753A46,46,0,0,0,606.24,180.9c1.212,3.552,5.774,3.366,9.531,2.828s6.609-2.452,7.562-4.791a21.047,21.047,0,0,0,1.186-3.581s1.992,2.079,3.811,1.819,5.458-4.021,5.284-8.247-.433-12.11-6.67-14.275S609.791,154.65,609.791,154.65Z" transform="translate(-262.826 -32.872)" fill="#ffdbc2"/>
      <path id="Trazado_145634" data-name="Trazado 145634" d="M614.44,197.009l3.1,1.372a11.835,11.835,0,0,0,2.288-.892c-.01-.015-4.724-6.917-6.221-8.43s-9.07-4.413-9.138-4.437q.025.58.065,1.174l3.554,3.263Z" transform="translate(-262.863 -47.893)" fill="#edc1a4"/>
      <path id="Trazado_145635" data-name="Trazado 145635" d="M614.886,149.148s.078,3.119,4.589,6.312,6.479,4.425,6.9,5.118-.511,3.347.114,4.111,2.2-.068,3-2.133c.762-1.977,3.251-2.981,4.575-1.977,1.252.948,1.833,2.619.75,5.766-.9,2.613-3.639,4.4-5.2,3.507,0,0-.076,4.344,1.312,6.634a25.885,25.885,0,0,1,3.817-3.91c2.568-2.2,5.343-4.833,6.176-12.189s-4.788-14.85-7.7-16.585-9.368-2.314-12.56.578Z" transform="translate(-267.92 -27.369)" fill="#19313a"/>
      <path id="Trazado_145636" data-name="Trazado 145636" d="M649.828,137.263a13.2,13.2,0,0,1,4.725-6.12c3.4-2.221,11.172-2.706,14.642,0a18.337,18.337,0,0,1,6.731,11.727c.763,4.906,1.666,7.3,5.482,10.207s8.466,8.182,5.343,16.163-12.768,8.119-14.642,7.841-2.429-1.6-1.11-3.4,3.053-5.114.833-7.449-3.886-3.1-7.009-5.042-5.274-4.222-5.135-8.113,1.318-8.726.139-11.235-3.561-4.411-7.083-2.081A3.426,3.426,0,0,1,649.828,137.263Z" transform="translate(-284.888 -21.025)" fill="#19313a"/>
      <path id="Trazado_145637" data-name="Trazado 145637" d="M644.531,214.41c3.011,0,6.712.973,7.9,7.627s1.807,13.4,1.543,17.32a22.575,22.575,0,0,1-1.808,7.212l-12.162-7.124s-.837-11.941-1.058-16.327S639.759,214.583,644.531,214.41Z" transform="translate(-279.591 -62.358)" fill="#673c68"/>
      <path id="Trazado_145638" data-name="Trazado 145638" d="M585.919,340.674a48.408,48.408,0,0,1,2.737,15.181c0,4.1-.492,14.454-.492,14.454H542.106L540.1,347.848s3.318-10.678,14.382-13.464S581.707,331.8,585.919,340.674Z" transform="translate(-231.605 -119.846)" fill="#5ea4dd"/>
      <path id="Trazado_145639" data-name="Trazado 145639" d="M585.919,340.674c-4.212-8.871-20.374-9.077-31.438-6.291S540.1,347.848,540.1,347.848l.328,3.67a20.33,20.33,0,0,0,17.893,1.255l-.373-9.541,4.636,9.057c15.077-.094,21.087-5.424,24.25-8.792A29.353,29.353,0,0,0,585.919,340.674Z" transform="translate(-231.605 -119.846)" fill="#518ecc"/>
      <path id="Trazado_145640" data-name="Trazado 145640" d="M540.028,119.978a12.466,12.466,0,0,1-6.843,1.192c-1.971-.259-3.022-1.781-4.266-.639-1.529,1.4-4.409,10.166,1.523,14.1C537.985,139.634,540.028,119.978,540.028,119.978Z" transform="translate(-225.176 -16.503)" fill="#5b343c"/>
      <path id="Trazado_145641" data-name="Trazado 145641" d="M534.507,131.293c-.988,3.468-1.045,7.92,0,14.234s3.043,12.136,4.933,12.945a13.485,13.485,0,0,0,5.744.433c1.927-.214,2.55-.39,2.934,2.8s12.585-.447,14.19-2.909c0,0-1.5-5.779-1.07-7.491s2.568-4.174,3.211-9.418-.107-14.663-7.277-17.873-15.653-.5-18.943,1.926A9.407,9.407,0,0,0,534.507,131.293Z" transform="translate(-228.52 -17.751)" fill="#e0a375"/>
      <path id="Trazado_145642" data-name="Trazado 145642" d="M549.364,146.269c-.108.84,1.141,2.931,1.8,4.338a4.809,4.809,0,0,0,3.674,2.89c1.595.09,5.973,0,7.865-1.878,1.047-.941,1.047-2.817,2.548-6.194a27.625,27.625,0,0,0,1.877-13.869c-.75-4.613-1.066-9.4-5.506-9.3,0,0-1.249-5.066-6.034-6s-8.49.458-11.915,2.252c-3.471,1.818-7.305,4.553-7.361,8.021a3.9,3.9,0,0,0,2.764,2.393c1.595.352.885,1.352.966,2.413.141,1.838.419,3,1.782,4.018,1.279.952,1.851,1.048,1.849,3.139,0,2.82.094,3.471.938,3.659s1.782-.563,2.814-3.284,3-3.026,4.6-1.278,1.131,6.632,0,7.957C550.639,147.144,549.521,145.05,549.364,146.269Z" transform="translate(-229.766 -14.546)" fill="#5b343c"/>
      <path id="Trazado_145643" data-name="Trazado 145643" d="M452.871,359.748c-.773,3.413-1.868,17.51-2.012,20.933h53.668s-1.346-10.015-4.885-15.976c0,0-11.136-8.909-23.206-10.346S452.871,359.748,452.871,359.748Z" transform="translate(-188.272 -130.218)" fill="#08668d"/>
      <path id="Trazado_145644" data-name="Trazado 145644" d="M453.69,360.241c-.355,1.566-.777,5.38-1.144,9.381h0s1.85.54,4.243-1.708,2.4-3.394,2.966-3.069,1.486,2.92,4.8,6.281c2.519,2.559,13.294,8.4,25.017,6.145,8.568-1.648,11.714-5.882,12.789-8.044a26.35,26.35,0,0,0-1.9-4.029,59.162,59.162,0,0,0-8.83-5.579l-8.078,1.547-15.582-5.99A46.508,46.508,0,0,0,453.69,360.241Z" transform="translate(-189.091 -130.711)" fill="#0a5c75"/>
      <path id="Trazado_145645" data-name="Trazado 145645" d="M390.236,357.155s1.957,11.586,2.651,23.09H328.723s2.047-18.265,3.354-26.983Z" transform="translate(-128.965 -129.781)" fill="#47b"/>
      <path id="Trazado_145646" data-name="Trazado 145646" d="M333.24,360.8s5.548,15.265,30.641,14.195,29.212-13.508,29.212-13.508l-.665-4.335-58.159-3.894Z" transform="translate(-131.159 -129.781)" fill="#35679e"/>
      <path id="Trazado_145647" data-name="Trazado 145647" d="M369.426,119.218c-4.443,0-12.73,2.563-12.73,14.866,0,0-.94-1.624-2.136-.94s-.769,4.613,0,6.921,2.455,2.792,3.48,2.706a33.714,33.714,0,0,0,2.255,5.339,31.533,31.533,0,0,0,3.571,4.1l-.079,6.9h15.635v-7.775c0-2.563,3.714-8.458,3.714-8.458s1.693.648,2.855-1.491c1.325-2.44,1.927-7.3.708-8.249-1.917-1.491-2.657,1.708-2.657,1.708s-.86-9.654-5.986-12.047S369.426,119.218,369.426,119.218Z" transform="translate(-141.149 -16.134)" fill="#f8c6a3"/>
      <path id="Trazado_145648" data-name="Trazado 145648" d="M358.452,129.12c-.275-2.477-1.291-7.384-.829-11.927s2.387-7.854,3.773-8.162,1.463,1.155,3,1.463a4.219,4.219,0,0,1,.693-3.619c1.309-1.771,2.394.393,4.928,1.694,3.085,1.584,4.5.838,6.743,2.225,2.644,1.636,2.718,3.566,2.718,3.566a3.978,3.978,0,0,1,3.286.446c2.292,1.3,4.087,5.8,3.345,14.1-.658,7.372-2.472,13.273-4.9,16.122s-11.932,2.635-15.556.871c0,0-3.03-.895-5.193-7.674A47.431,47.431,0,0,1,358.452,129.12Z" transform="translate(-142.941 -9.816)" fill="#3d3360"/>
      <path id="Trazado_145649" data-name="Trazado 145649" d="M344.545,201.1a28.939,28.939,0,0,1-9.2,3.272c-4.089.643-6.509.918-8.17,3.045,0,0,5.944,6.684,6.976,18.825.745,8.762-1.746,13.095-1.746,13.095a34.812,34.812,0,0,0,3.361,8.454c2.2,3.63-2.488,16.541-3.637,20.906s-2.416,10.491-2.416,10.491c.414,1.654,8.251,16.8,29.57,16.8s30.462-12.911,30.875-14.657-2.159-11.716-3.721-19.986-2.665-15.3-1.332-21.364,3.675-14.289,4.227-21.456-.781-13.83-1.792-14.657-2.3-.689-5.927-1.424a34.928,34.928,0,0,1-7.585-2.288s-1.053-.744-6.52-.193-9.465,1.976-14.335.827S346,200.293,344.545,201.1Z" transform="translate(-128.212 -55.242)" fill="#def1f8"/>
      <path id="Trazado_145650" data-name="Trazado 145650" d="M445.075,208.72a9.376,9.376,0,0,0-.561-.972A2.54,2.54,0,0,1,445.075,208.72Z" transform="translate(-185.191 -59.123)" fill="#def1f8"/>
      <path id="Trazado_145651" data-name="Trazado 145651" d="M390.172,280.786c-.278-1.474-.541-2.907-.779-4.3v0H346.436l-5.952-14.641c3.112-8.822,2.206-17.886,0-22.039l-3.465.321a40.139,40.139,0,0,1,.867,5.564c.745,8.762-1.746,13.095-1.746,13.095a34.816,34.816,0,0,0,3.361,8.454c2.2,3.63-2.488,16.541-3.637,20.906-.423,1.609-.759,3-.993,4.21,1.608,1.023,6.343-.9,6.343-.9s30.479,11.239,33.742,10.393c2.721-.705,13-11.826,16.341-15.5C390.9,284.474,390.513,282.589,390.172,280.786Z" transform="translate(-131.951 -74.686)" fill="#90c8ee" opacity="0.37"/>
      <path id="Trazado_145652" data-name="Trazado 145652" d="M396.228,309.213l-15.122,16.334s-3.557,3.994-4.746,4.927-1.442,2.121-7.636.509S336.6,320.5,336.6,320.5a4.938,4.938,0,0,1-.545-4.989c1.273-2.766,2.909-3.1,2.909-3.1l29.928,6.616,2.288-2.57Z" transform="translate(-132.307 -108.392)" fill="#ffdbc2"/>
      <g id="Grupo_106771" data-name="Grupo 106771" transform="translate(191.167 184.092)">
        <path id="Trazado_145653" data-name="Trazado 145653" d="M325.046,276.694s5.985,12.756,6.8,14.239.927,1.6,3.825,1.367,36.16-3.013,36.16-3.013l.851,8.364s-42.311,9-45.719,9.769c-2.3.522-3.38-.237-4.887-2.715s-10.048-19.475-10.048-19.475Z" transform="translate(-312.023 -276.694)" fill="#ffdbc2"/>
        <path id="Trazado_145654" data-name="Trazado 145654" d="M337.684,292.135h0l-2.018.166c-2.9.232-3.013.116-3.825-1.367s-6.8-14.239-6.8-14.239l-13.023,8.536s8.541,17,10.048,19.475,2.582,3.237,4.887,2.715c.954-.217,4.96-1.078,10.232-2.206C339.473,301.164,338.377,294.588,337.684,292.135Z" transform="translate(-312.023 -276.694)" fill="#05dbf2"/>
      </g>
      <g id="Grupo_106772" data-name="Grupo 106772" transform="translate(140.853 152.132)">
        <path id="Trazado_145655" data-name="Trazado 145655" d="M254.93,251.966s-17.621-15.859-20.617-19.322-4.12-6.01-6.74-7.059-2.472-.225-4.12,0-2.7-.075-4.044.974-2.1.9-3.071,1.722-2.322,3.332-2.1,4.363.374,4.625,5.468,5.149,7.19,1.648,7.19,1.648l19.137,26.422Z" transform="translate(-214.216 -219.664)" fill="#f8c6a3"/>
        <path id="Trazado_145656" data-name="Trazado 145656" d="M229.782,230.972c.564.92,1.144,2.112.28,3.091s-3.717,4.044-3.717,4.044-2.763,1.362-2.318-.468S229.782,230.972,229.782,230.972Z" transform="translate(-218.956 -222.532)" fill="#eab18b"/>
        <path id="Trazado_145657" data-name="Trazado 145657" d="M249.236,241.065c.8,2.87.842,6.757-.047,8.548a13.4,13.4,0,0,1-3.312,3.62l-1.561-2.155Z" transform="translate(-228.832 -227.433)" fill="#eab18b"/>
        <path id="Trazado_145658" data-name="Trazado 145658" d="M301.78,214.606c-2.248,2.589-3.87,5.989-6.729,12.325s-10.663,19.936-10.663,19.936l-3.168-3.091s-6.49,7.418-6.336,16.227c0,0,5.332,6.722,7.341,8.345s4.1,1.854,7.032-.927,17.754-20.9,17.754-20.9,4.037-2.363,4.964-10.708S307.814,213.717,301.78,214.606Z" transform="translate(-243.674 -214.565)" fill="#def1f8"/>
        <path id="Trazado_145659" data-name="Trazado 145659" d="M281.33,271.961c-1.344,1.2-7.011,9.305-5.65,17.655l.647.76s-.61.523-1.493-.434a56.1,56.1,0,0,1-4.49-5.153c-.515-.957-.221-5.227,1.914-10.305s4.773-7.523,6.024-6.514a21.5,21.5,0,0,1,2.662,2.465c.648.686,1.312,1.421,1.135,2.257Z" transform="translate(-241.363 -240.388)" fill="#bce3f6"/>
      </g>
      <path id="Trazado_145660" data-name="Trazado 145660" d="M436.446,269.9c-2.84-1.528-7.751-2.249-11.473.461a7.958,7.958,0,0,0-2.012,2.2c-4.783,7.015-18.2,24.14-18.2,24.14s.724,6.1,9.925,9.1l15.122-16.334a90.005,90.005,0,0,1,1.832,10.338c.517,4.962-2.482,25.813-2.482,25.813a6.058,6.058,0,0,0,4.342-2.448c2.068-2.482,2.371-3.929,2.943-3.929s1.175,3.841,6.779,7.876c4.449,3.2,17.111,7.552,25.059,5.031,9.1-2.888,9.133-7.1,9.65-9.066a41.734,41.734,0,0,0-4.215-5.909c-2.584-3.1-3.1-4.512-3.1-5.047s1.034-2.913.62-3.844-2.562-2.895-2.108-4.342,4.072-12.923,5.106-19.539,0-15.094,0-15.094Z" transform="translate(-165.889 -88.643)" fill="#0f0140"/>
      <path id="Trazado_145661" data-name="Trazado 145661" d="M447.875,265.488c3-.846,9.838,1.757,11.518,3.4s2.436,9.056,10.8,12.083,21.958,1,21.958,1l-7.438-17.81-25.56-3.8Z" transform="translate(-186.823 -84.672)" fill="#020008"/>
      <path id="Trazado_145662" data-name="Trazado 145662" d="M475.81,299.489c.757-2.894,1.444-5.837,1.81-8.174a46.3,46.3,0,0,0,.458-7.175c-3.469.689-34.1,6.769-34.316,6.556s-11.9-6.734-11.9-6.734L424,282.788c-3.595,4.954-8.812,11.755-12.27,16.221a44.793,44.793,0,0,0,5.986,2.953,20.165,20.165,0,0,0,9.176,1.224l6.3-6.8s.6,2.454,1.149,5.575c3.145-.021,12.3-.128,21.8-.694C466.238,300.663,473.867,299.737,475.81,299.489Z" transform="translate(-169.273 -95.561)" fill="#020008"/>
      <path id="Trazado_145663" data-name="Trazado 145663" d="M549.668,195.617c3.071-1.129,12.33-3.736,17.219-3.15s11.671,3.13,14.409,6.063,2.543,12.844,2.543,16.235-1.558,11.12-2.768,14.622-1.535,11.326-1.34,17.716,4.173,21.842,4.955,23.667-2.947,4.755-8.631,6.984c-7.063,2.77-17.9,3.513-17.9,3.513l-3.586-9.976-.717,10.3a26.4,26.4,0,0,1-8.932.261c-4.759-.717-6.585-2.217-6.976-2.8s-1.644-17.277-.594-26.568c0,0,7.961-5.183,9.2-11.443S549.668,195.617,549.668,195.617Z" transform="translate(-230.07 -51.661)" fill="#ef6c00"/>
      <path id="Trazado_145664" data-name="Trazado 145664" d="M577.186,205.012c2.169,1.822,5.4,4.507,5.392,10.443-.005,4.683-2.455,14.168-2.455,14.168l-4.6-1.3Z" transform="translate(-248.804 -57.794)" fill="#d65d1a"/>
      <path id="Trazado_145665" data-name="Trazado 145665" d="M590.669,229.388c1.209-3.5,2.768-11.232,2.768-14.622,0-2.929.144-10.722-1.582-14.68l-2.191-2.652c-3.2-2.452-8.91-4.454-13.178-4.966a22.3,22.3,0,0,0-5.49.236,10.041,10.041,0,0,1,3.813,3.615c.677,1.422,2.845,2.574,5.554,1.964s2.438.325,3.929,4.531,3.522,11.255,3.522,11.255l-6.977,2.705s-15.473,7.868-23.487,11.9c-.217,3.013-.436,5.747-.649,7.937,5.19-1.185,12.452-2.777,14.518-2.9a63.218,63.218,0,0,1,11.65,1.016c1.566.268,4.685-1.082,7.106-2.309A18.564,18.564,0,0,1,590.669,229.388Z" transform="translate(-239.667 -51.662)" fill="#d65d16"/>
      <path id="Trazado_145666" data-name="Trazado 145666" d="M559.216,264.482v-9.476l-11.131,1.46c-.471,6.911-.968,12.852-1.389,14.982-1.239,6.259-9.2,11.443-9.2,11.443-.107.945-.189,1.97-.251,3.044a79.007,79.007,0,0,0,9.208-.343c3.291-.482,5.218-1.445,7.144-7.367S557.509,264.8,559.216,264.482Z" transform="translate(-230.219 -82.07)" fill="#d65d16"/>
      <path id="Trazado_145667" data-name="Trazado 145667" d="M475.725,278.894l-33.254,5.056c-2.1.291-5.488-1.057-8.153-2.328s-3.054-1.693-6.322-1.716-6.3-1.345-6.925-.333,1.064,3.035,3.346,3.579,3.735.839,3.735.839-2.611,0-5.056,0-3.6.353-4.333,1.156-.594,2.306-1.258,2.725a2.827,2.827,0,0,0-1.537,2.236c0,1.083-1.782,1.886-1.817,2.865s-.336,1.228.286,2.1,5.444,3.317,9.567,3.6a32.734,32.734,0,0,0,10.314-1.266,25.318,25.318,0,0,1,6.91-1c3.119-.133,20.312-.939,20.312-.939Z" transform="translate(-170.397 -93.67)" fill="#e0a375"/>
      <path id="Trazado_145668" data-name="Trazado 145668" d="M539.887,199.039c-3.466-1.782-9.886-.814-11.956,7.094s-7.375,33.616-7.375,33.616l-14.185,2.156s1.977,8.481,0,14.412c0,0,17.022-.9,20.326-.972s7.259-.54,9.518-6.377,8.871-28.9,9.99-32.48S548.925,203.685,539.887,199.039Z" transform="translate(-215.228 -54.525)" fill="#f2f2f2"/>
      <path id="Trazado_145669" data-name="Trazado 145669" d="M476.639,172.446A16.1,16.1,0,0,0,464.916,185.4c-1.33,7.1-.818,10.273,1.739,16.309s5.5,10.027,4.4,16.37.941,9.935,5.585,14.442c6.619,6.424,23.22,7.988,31.523,0,7.739-7.445,1.442-18.1,1.442-18.1s5.751-5.241,4.421-10.971-3.479-7.063-8.389-9.671-7.589-8.272-9.021-11.853S489.182,169.172,476.639,172.446Z" transform="translate(-194.752 -41.644)" fill="#65439b"/>
      <path id="Trazado_145670" data-name="Trazado 145670" d="M477.245,261.1c-.739,4.256-.057,7.272,1.872,10.159a118,118,0,0,0,12.131,4.283c1.611.3,11.913-2.218,12.937-2.143a12.032,12.032,0,0,0,5.026.012,5.975,5.975,0,0,0,3.778-2.155l4.768-1.373a16.262,16.262,0,0,0-.66-9.525H477.347C477.316,260.609,477.289,260.852,477.245,261.1Z" transform="translate(-200.943 -84.672)" fill="#523c7c"/>
      <g id="Grupo_106773" data-name="Grupo 106773" transform="translate(256.498 148.556)">
        <path id="Trazado_145671" data-name="Trazado 145671" d="M535.927,240.516s23.956-2.968,26.193-3.387,3.7-2.1,6.219-3.7,4.682-2.306,6.429-2.026,4.472.419,5.311.489.419,1.677-.978,2.1-4.123.839-3.913,1.118,4.892.28,5.66-.209a3.269,3.269,0,0,0,1.607-1.608c.419-.908,1.467-.7,2.026.07a3.222,3.222,0,0,1,.349,3.494c-.769,1.328-1.537,1.975-1.607,2.6a31.84,31.84,0,0,0,.279,3.205c.07.978-1.328,2.236-1.607,2.935a4.832,4.832,0,0,1-2.027,3.005,15.233,15.233,0,0,1-6.051,2.331c-1.537.139-7.74-.787-10.466-.856s-6.707.913-13.445,2.188c-5.229.99-14.681,3.436-14.681,3.436Z" transform="translate(-485.737 -219.134)" fill="#f8c6a3"/>
        <path id="Trazado_145672" data-name="Trazado 145672" d="M441.848,207.68a5.8,5.8,0,0,1,4.258,1.085c2.412,1.556,31.046,20.308,31.59,20.619S489.212,229,489.212,229s1.712,8.792-.7,15.172c0,0-11.827,2.023-13.617,2.568s-3.034.311-6.536-1.012-14.783-5.6-18.207-6.147-8.065-.606-10.607,3.626c0,0-1.312-5.62.221-14.531A191.988,191.988,0,0,0,441.848,207.68Z" transform="translate(-439.022 -207.613)" fill="#def1f8"/>
        <path id="Trazado_145673" data-name="Trazado 145673" d="M489.665,242.947a17.358,17.358,0,0,1-.658,2.207s-11.827,2.022-13.617,2.567-3.035.309-6.533-1.013-14.784-5.6-18.21-6.147-8.056-.607-10.6,3.616c1.348-6,3.56-13.92,4.095-20.855.453-5.89-.365-11.436-1.235-13.684a30.019,30.019,0,0,1,2.886,9.527,52.288,52.288,0,0,1,.669,12.094c-.113,2.351,2.8,4.676,9.856,7.279s16.215,6.173,17.85,6.615C475.678,245.56,487.89,243.281,489.665,242.947Z" transform="translate(-439.518 -208.596)" fill="#90c8ee" opacity="0.37"/>
        <path id="Trazado_145674" data-name="Trazado 145674" d="M529.888,248.369c-.006-.92,1.224-1.036,3.157-1.154s2.869-.369,3.572.577,1.526,4.809,1.5,8.678c-.02,2.879-.68,6.557-1.734,7.025a11.683,11.683,0,0,1-3.279.761c-1.23.175-2.976.525-3.216-.44l.815-.143a23.864,23.864,0,0,0,1.288-7.206,30.9,30.9,0,0,0-.935-8.164Z" transform="translate(-483.145 -226.785)" fill="#bce3f6"/>
      </g>
      <path id="Trazado_145675" data-name="Trazado 145675" d="M590.235,192.229c-.667.068-2.987,1.047-5.1.4s-4.483-4.163-6.272-3.871l-5.959,1.2a9.569,9.569,0,0,1,2.526-2.322c1.5-.891,6-2.187,7.615-2.623,2.122-.574,4.77-1.088,6.3-.5,3.471,1.341,8.029,4.055,8.759,4.947s16.3,22.953,18.654,26.116,4.866,7.218,4.136,12.733-2.433,6.921-4.217,7.354-8.111-3.217-10.138-6.056-13.463-32.766-14.112-34.307S590.982,192.152,590.235,192.229Z" transform="translate(-247.533 -47.715)" fill="#ffdbc2"/>
      <path id="Trazado_145676" data-name="Trazado 145676" d="M269.253,320.975l-.34,2.269a11,11,0,0,1-3.1.4c-1.119-.134-1.585-.467-1.3-.823s2.079-1.276,2.977-2.045c1.963-1.68,1.954-4.115.612-3.608a12.438,12.438,0,0,1-2.427,1.025c-1.1.2-2.087.508-3.9.861a9.345,9.345,0,0,0-3.9,1.774,2.884,2.884,0,0,1-2.266.792c-2.5-.855-7.729-2.637-12.657-4.315h0c-5.241-1.785-10.135-3.452-11.019-3.76-1.972-.686-2.463-1.321-2.749-2.7-.575-2.776-2.213-8.479-2.213-8.479L217.62,316.35a31.611,31.611,0,0,0,1.284,4.828c1.029,3.086,2.4,4.287,4.8,4.544,1.271.136,8.791,1.546,16.045,3h0s12.79,2.748,16.046,3.586,6.39,1.37,8.366,1.031a5.761,5.761,0,0,0,3.637-2.469c.465-.671.916-.607,2.09-1.408s.495-2.623.957-3.389c.54-.893,1.071-1.282,1.006-2.748S269.253,320.975,269.253,320.975Z" transform="translate(-75.016 -105.067)" fill="#c17a61"/>
      <path id="Trazado_145677" data-name="Trazado 145677" d="M112.4,222.3s5.973,14.4,6.489,15.523,1.61,1,8.694.751,22.094-.876,24.1-1.5,2.627-1.876,3.628-3.628,1.877-3.127,6.13-4.5,6.69-3.006,7.13-2.182c.241.449.633,1.691-1.054,3.017s-4.089,3.064-3.758,3.478,9.83-1.61,11.18-2.733.84-1.788.84-1.788a1.708,1.708,0,0,1,1.81.794c.663,1.077.775,4.759.512,6.438a9.187,9.187,0,0,1-2.665,5.9,22.08,22.08,0,0,1-8.741,4.5c-2.563.659-6.175.282-10.812,1.358s-21.233,4.924-30.169,6.942c-8.059,1.82-16.74,3.792-19.182,2.964s-5.135-6.074-8.613-15.846Z" transform="translate(-16.892 -66.19)" fill="#ffdbc2"/>
      <path id="Trazado_145678" data-name="Trazado 145678" d="M87.507,183.615c-3.185,1.373-7.756,5.879-4.378,19.7s6,19.953,6,19.953,13.01,2.252,20.391-9.507c-.126-.751-3.878-11.257-7.255-19.138S94.762,180.487,87.507,183.615Z" transform="translate(-9.132 -47.005)" fill="#00a5c8"/>
      <path id="Trazado_145679" data-name="Trazado 145679" d="M360.945,200.041a24.208,24.208,0,0,1,6.547,1.979c2.279,1.312,4.781,1.868,8.618,1.757a19.153,19.153,0,0,0,8.674-2.335c2.336-1.168,4-2.47,5.641-2.347,0,0-.859-1.517-14.37-1.517S360.945,200.041,360.945,200.041Z" transform="translate(-144.612 -54.184)" fill="#90c8ee" opacity="0.37"/>
      <path id="Trazado_145680" data-name="Trazado 145680" d="M375.175,191.04c-3.488.166-6.122-.927-7.926-1.217s-3.836.726-6.3,6.025a17.039,17.039,0,0,1,5.227.508c2.759.726,5.525,1.652,9.513,1.44,4.866-.259,7.693-1.614,9.932-2.171a24.557,24.557,0,0,1,4.807-.724s-3.949-7.081-7.539-5.8C380.241,190.036,378.224,190.894,375.175,191.04Z" transform="translate(-144.612 -49.991)" fill="#def1f8"/>
      <path id="Trazado_145681" data-name="Trazado 145681" d="M356.1,333.136l16.576-6.5-2.892-.639h-.141l-21.263,4.546C350.592,331.288,353.279,332.193,356.1,333.136Z" transform="translate(-138.511 -116.541)" fill="#edc1a4"/>
      <path id="Trazado_145682" data-name="Trazado 145682" d="M109.117,171.694s2.54,4.365,6.345,6.4a15.208,15.208,0,0,0,8.167,1.871l1.614,2.071a17.252,17.252,0,0,1-17.486-8.574Z" transform="translate(-21.669 -41.616)" fill="#00a5c8"/>
      <g id="Grupo_106774" data-name="Grupo 106774" transform="translate(126.219 183.295)">
        <path id="Trazado_145683" data-name="Trazado 145683" d="M230.24,350.679l2.33-.423v-2.991C231.871,348.324,231.091,349.468,230.24,350.679Z" transform="translate(-207.363 -310.165)" fill="#349977"/>
        <path id="Trazado_145684" data-name="Trazado 145684" d="M199.08,307.659c1.322-1.851,12.429-18.511,12.429-18.511a38.818,38.818,0,0,1-1.7-14,36.656,36.656,0,0,0-1.692,14.17s-8.786,14.393-11.1,16.167-11.25.679-11.25.679,4.231,1.411,7.757,2.292S197.757,309.51,199.08,307.659Z" transform="translate(-185.769 -275.145)" fill="#1ebacc"/>
      </g>
      <path id="Trazado_145685" data-name="Trazado 145685" d="M228.081,306.365l-9.474,13.677-.987-3.691,9.355-13.984Z" transform="translate(-75.016 -105.068)" fill="#aa6552"/>
      <path id="Trazado_145686" data-name="Trazado 145686" d="M152.573,176.024s6.861.023,11.343-7.3c0,0-2.077,9.271-11.625,8.669C152.374,176.9,152.472,176.444,152.573,176.024Z" transform="translate(-43.293 -40.173)" fill="#2b1c1f"/>
      <path id="Trazado_145687" data-name="Trazado 145687" d="M656.8,348.688c.781,3.592,1.952,8.876,2.655,9.552s10.424,1.918,10.424,1.918l.171-.888s-8.5-1.182-9.608-1.616C659.7,357.361,657.663,351.5,656.8,348.688Z" transform="translate(-288.275 -127.56)" fill="#35679e"/>
      <path id="Trazado_145688" data-name="Trazado 145688" d="M561.521,385.768a152.463,152.463,0,0,1-1.434-21.132H558.91s-1.066,6.992,1.151,21.132Z" transform="translate(-240.615 -135.305)" fill="#518ecc"/>
      <path id="Trazado_145689" data-name="Trazado 145689" d="M150.368,378.111s-1.651,6.08-1.651,8.017,4.291,4.688,5.282,4.578,8.472-1.651,9.463-2.751,2.091-11.884,2.091-11.884-2.042,10.442-2.727,11.1-7.4,2.607-8.615,2.5-4.5-2.76-4.5-3.659S150.368,378.111,150.368,378.111Z" transform="translate(-41.558 -140.857)" fill="#35679e"/>
      <path id="Trazado_145690" data-name="Trazado 145690" d="M120.939,373.734c-1.631,3.625-3.021,8.518-3.564,9.3s-6.441,1.24-6.441,1.24l.261-1.138s3.787-.344,4.741-.525,1.2-1,1.74-2.28S120.939,373.734,120.939,373.734Z" transform="translate(-23.211 -139.722)" fill="#35679e"/>
      <path id="Trazado_145691" data-name="Trazado 145691" d="M78.46,382.208l6.485-24.9H85.9l-6.2,24.9Z" transform="translate(-7.443 -131.745)" fill="#0b597f"/>
      <path id="Trazado_145692" data-name="Trazado 145692" d="M88.937,363.149c4.478.593,10.756-.251,13.045-7.6l.132,1.6a9.131,9.131,0,0,1-4.342,5.785,13.3,13.3,0,0,1-9.163,1.036Z" transform="translate(-12.371 -130.89)" fill="#0b597f"/>
      <path id="Trazado_145693" data-name="Trazado 145693" d="M573.432,366.047c.568,4.515,1.188,9.3,2.337,10.288s9.294,1.524,10.4,1.126,4.286-3.693,4.353-4.9-1.433-11.025-1.433-11.025.344,9.721.252,10.71-2.6,3.889-3.794,4.087-7.828.234-8.757-.846S573.432,366.047,573.432,366.047Z" transform="translate(-247.791 -133.801)" fill="#518ecc"/>
      <path id="Trazado_145694" data-name="Trazado 145694" d="M647.229,343.14s2.033,7.939,3.314,15.148,1.909,17.042,1.909,17.042H651.2a126.522,126.522,0,0,0-1.776-17.042c-1.567-8.671-3.343-15.148-3.343-15.148Z" transform="translate(-283.068 -124.867)" fill="#35679e"/>
      <path id="Trazado_145695" data-name="Trazado 145695" d="M613.714,361.768c1.067,6.3,1.782,11.588.872,16.288s-1.17,6.208-1.17,6.208h.793s.9-4.757,1.351-7.161.325-6.305-1.072-15.564Z" transform="translate(-267.207 -133.801)" fill="#518ecc"/>
      <path id="Trazado_145696" data-name="Trazado 145696" d="M624.458,357.433c.6,3.967,1.124,8.529,1.587,9.587s3.547,1.99,3.547,1.99l-.016.854s-3.4-.681-4.391-2.291S624.458,357.433,624.458,357.433Z" transform="translate(-272.553 -131.807)" fill="#518ecc"/>
    </g>
  </g>
</svg>
