<svg xmlns="http://www.w3.org/2000/svg" width="101" height="101" viewBox="0 0 101 101">
  <g id="img23" transform="translate(-739 -681.426)">
    <circle id="Elipse_1149" data-name="Elipse 1149" cx="50.5" cy="50.5" r="50.5" transform="translate(739 681.426)" fill="#3e2ea6"/>
    <g id="Grupo_106825" data-name="Grupo 106825" transform="translate(4625.372 3504.242)">
      <path id="Trazado_147680" data-name="Trazado 147680" d="M-3808.735-2749.329q-12.257,14.607-26.359,20.986l-3.19-6.715q16.119-9.066,22.246-19.644t6.128-17.628q0-2.355-1.511-3.023a7.761,7.761,0,0,0-3.19-.671l-11.249,1.176a20.457,20.457,0,0,1-12.928-4.618q-5.878-4.616-5.877-13.348,0-6.713,4.87-13.1t15.95-6.38q10.578,0,18.972,8.31t8.4,23.087Q-3796.478-2763.938-3808.735-2749.329Z" transform="translate(-13.692 -2)" fill="#dad6f7"/>
    </g>
  </g>
</svg>
