<svg xmlns="http://www.w3.org/2000/svg" width="230" height="230" viewBox="0 0 230 230">
  <g id="img21" transform="translate(-1075 -10938.474)">
    <g id="Elipse_4" data-name="Elipse 4" transform="translate(1075 10938.474)" fill="#3e2ea6" stroke="#707070" stroke-width="1">
      <circle cx="115" cy="115" r="115" stroke="none"/>
      <circle cx="115" cy="115" r="114.5" fill="none"/>
    </g>
    <g id="Grupo_106821" data-name="Grupo 106821" transform="translate(862.678 10266.37)">
      <path id="Trazado_145911" data-name="Trazado 145911" d="M326.024,826.589a6.132,6.132,0,1,1-6.132,6.132,6.139,6.139,0,0,1,6.132-6.132m0-6.158a12.289,12.289,0,1,0,12.289,12.29,12.29,12.29,0,0,0-12.289-12.29Z" fill="#fff"/>
      <path id="Trazado_145912" data-name="Trazado 145912" d="M293.765,719.443a6.132,6.132,0,1,1-6.132,6.131,6.138,6.138,0,0,1,6.132-6.131m0-6.158a12.29,12.29,0,1,0,12.289,12.289,12.29,12.29,0,0,0-12.289-12.289Z" fill="#fff"/>
      <circle id="Elipse_4790" data-name="Elipse 4790" cx="12.289" cy="12.289" r="12.289" transform="translate(278.981 792.688) rotate(-76.718)" fill="#fff"/>
      <circle id="Elipse_4791" data-name="Elipse 4791" cx="12.289" cy="12.289" r="12.289" transform="translate(340.904 783.551) rotate(-45)" fill="#fff"/>
      <g id="Grupo_106815" data-name="Grupo 106815">
        <path id="Trazado_145913" data-name="Trazado 145913" d="M308.071,835.8H290.686V806.4h6.158v23.242h11.228Z" fill="#fff"/>
      </g>
      <g id="Grupo_106816" data-name="Grupo 106816">
        <path id="Trazado_145914" data-name="Trazado 145914" d="M300.967,815.906l-7.2-7.2-7.2,7.2-4.355-4.355L293.765,800l11.557,11.556Z" fill="#fff"/>
      </g>
      <g id="Grupo_106817" data-name="Grupo 106817">
        <path id="Trazado_145915" data-name="Trazado 145915" d="M361.362,835.8H343.977v-6.158H355.2V806.4h6.158Z" fill="#fff"/>
      </g>
      <g id="Grupo_106818" data-name="Grupo 106818">
        <path id="Trazado_145916" data-name="Trazado 145916" d="M365.486,815.906l-7.2-7.2-7.2,7.2-4.354-4.355L358.284,800l11.557,11.556Z" fill="#fff"/>
      </g>
      <g id="Grupo_106819" data-name="Grupo 106819">
        <rect id="Rectángulo_35107" data-name="Rectángulo 35107" width="6.158" height="16.644" transform="translate(290.686 749.387)" fill="#fff"/>
      </g>
      <g id="Grupo_106820" data-name="Grupo 106820">
        <path id="Trazado_145917" data-name="Trazado 145917" d="M300.967,758.893l-7.2-7.2-7.2,7.2-4.355-4.354,11.557-11.556,11.557,11.556Z" fill="#fff"/>
      </g>
    </g>
  </g>
</svg>
