<svg xmlns="http://www.w3.org/2000/svg" width="101" height="101" viewBox="0 0 101 101">
  <g id="img29" transform="translate(-739 -2015.952)">
    <circle id="Elipse_4804" data-name="Elipse 4804" cx="50.5" cy="50.5" r="50.5" transform="translate(739 2015.952)" fill="#0f0140"/>
    <g id="Grupo_106835" data-name="Grupo 106835" transform="translate(4772.926 5077.496)">
      <path id="Trazado_147685" data-name="Trazado 147685" d="M-4023.459-2997.945v-.74a3.242,3.242,0,0,0,2.308-1.158,31.91,31.91,0,0,0,2.637-5.385l8.31-19.576h.794l9.939,22.614a9.5,9.5,0,0,0,1.588,2.779,3.781,3.781,0,0,0,2,.726v.74h-10.144v-.74a8.936,8.936,0,0,0,2.255-.378c.337-.148.506-.514.506-1.095a4.785,4.785,0,0,0-.2-1.027,11.061,11.061,0,0,0-.545-1.551l-1.6-3.837h-10.513q-1.554,3.915-1.856,4.777a4.432,4.432,0,0,0-.3,1.367,1.408,1.408,0,0,0,.817,1.4,6.458,6.458,0,0,0,1.905.349v.74Zm17.179-10.245-4.572-10.985-4.592,10.985Z" fill="#dad6f7"/>
      <path id="Trazado_147686" data-name="Trazado 147686" d="M-3994.539-2998.685a5.734,5.734,0,0,0,3.11-.746q.706-.609.707-2.838v-17.744q0-2.2-.707-2.834a5.506,5.506,0,0,0-3.11-.75v-.74h11.17a15.871,15.871,0,0,1,7.6,1.541q2.811,1.54,2.812,5.3a5.01,5.01,0,0,1-1.967,4.289,9.292,9.292,0,0,1-3.331,1.384,11.924,11.924,0,0,1,4.694,2.209,5.219,5.219,0,0,1,1.948,4.33,6.4,6.4,0,0,1-4.321,6.422,15.076,15.076,0,0,1-5.6.915h-13Zm15-14.473a4.229,4.229,0,0,0,2.533-4.2,4.747,4.747,0,0,0-2.922-4.82,13.307,13.307,0,0,0-4.908-.683,3.259,3.259,0,0,0-1.539.214q-.293.216-.292,1.171v9.016l3.8-.059A8.416,8.416,0,0,0-3979.542-3013.158Zm1.286,12.584q2.064-1.188,2.065-4.558,0-3.349-2.415-4.577a13.56,13.56,0,0,0-6.155-1.227h-1.159c-.163,0-.413-.007-.75-.019v9.933q0,1.032.584,1.334a7.369,7.369,0,0,0,2.708.3A10.135,10.135,0,0,0-3978.256-3000.574Z" fill="#dad6f7"/>
      <path id="Trazado_147687" data-name="Trazado 147687" d="M-3949.43-3024.162a21.881,21.881,0,0,0,2.552.644,2.009,2.009,0,0,0,1.071-.312,1.631,1.631,0,0,0,.7-.974h.837l.37,8.959h-.915a12.954,12.954,0,0,0-2.084-4.3,8.006,8.006,0,0,0-6.6-3.077,8.388,8.388,0,0,0-6.847,3.311Q-3963-3016.6-3963-3010.8a12.453,12.453,0,0,0,2.795,8.522,9.01,9.01,0,0,0,7.08,3.184,11.369,11.369,0,0,0,5.707-1.48,17.14,17.14,0,0,0,3.291-2.532l.74.74a13.367,13.367,0,0,1-3.291,2.941,13.223,13.223,0,0,1-7.265,2.142q-6.427,0-10.206-4.109a13.491,13.491,0,0,1-3.487-9.486,13.8,13.8,0,0,1,3.682-9.777,13.169,13.169,0,0,1,10.088-4.149A16.337,16.337,0,0,1-3949.43-3024.162Z" fill="#dad6f7"/>
    </g>
  </g>
</svg>
