<svg xmlns="http://www.w3.org/2000/svg" width="610" height="343.396" viewBox="0 0 610 343.396">
  <g id="img3" transform="translate(5207.253 -1249.733)">
    <g id="freepik--speech-bubbles--inject-2" transform="translate(-5183.398 1249.733)">
      <path id="Trazado_144842" data-name="Trazado 144842" d="M-4863.97,1375.361l14.709-4.448a42.14,42.14,0,0,0,57.973-13.812,42.14,42.14,0,0,0-13.811-57.972,42.141,42.141,0,0,0-57.974,13.811,42.138,42.138,0,0,0,2.558,47.861h0Z" transform="translate(5346.543 -1228.906)" fill="#fff"/>
      <path id="Trazado_144843" data-name="Trazado 144843" d="M-4863.855,1375.491a3.4,3.4,0,0,1,.193-.9c.192-.608.341-1.587.607-2.773.578-2.521,1.395-6.2,2.477-10.973a.178.178,0,0,1,.208-.133h0l-.237.237a42.237,42.237,0,0,1-8.437-19.365,41.487,41.487,0,0,1,.1-13.656,42.629,42.629,0,0,1,33.2-34.489,43.449,43.449,0,0,1,28.706,4.182,42.169,42.169,0,0,1,19.662,22.6,43.017,43.017,0,0,1,2.49,19.068,42.269,42.269,0,0,1-5.664,17.245A42.482,42.482,0,0,1-4829.1,1377.4a41.92,41.92,0,0,1-20.181-6.3h.163l-11.032,3.262-2.8.815-.919.252.979-.326,2.817-.9,10.854-3.425a.162.162,0,0,1,.147,0,41.814,41.814,0,0,0,57.515-13.747,41.818,41.818,0,0,0,3.517-36.578,43.033,43.033,0,0,0-4.448-8.778,43.508,43.508,0,0,0-14.828-13.345,41.86,41.86,0,0,0-56.658,17.154,41.859,41.859,0,0,0,3.738,45.286.163.163,0,0,1,.006.231l-.006.006a.177.177,0,0,1-.222,0h0l.266-.1c-1.142,4.7-2.03,8.319-2.654,10.795-.3,1.216-.533,2.15-.7,2.8Z" transform="translate(5346.428 -1229.036)" fill="#263238"/>
      <path id="Trazado_144844" data-name="Trazado 144844" d="M-4846.92,1322.5a3.752,3.752,0,0,1-3.752,3.751,3.751,3.751,0,0,1-3.751-3.751,3.751,3.751,0,0,1,3.751-3.751h.016a3.737,3.737,0,0,1,3.736,3.737Z" transform="translate(5353.736 -1216.416)" fill="#263238"/>
      <path id="Trazado_144845" data-name="Trazado 144845" d="M-4836.81,1322.5a3.752,3.752,0,0,1-3.752,3.751,3.75,3.75,0,0,1-3.751-3.751,3.75,3.75,0,0,1,3.751-3.751h.015a3.737,3.737,0,0,1,3.737,3.737Z" transform="translate(5358.617 -1216.416)" fill="#263238"/>
      <path id="Trazado_144846" data-name="Trazado 144846" d="M-4826.9,1320.611a3.752,3.752,0,0,1-1.356,5.129,3.75,3.75,0,0,1-5.129-1.357,3.751,3.751,0,0,1,1.356-5.129l.014-.007A3.752,3.752,0,0,1-4826.9,1320.611Z" transform="translate(5363.648 -1216.415)" fill="#263238"/>
      <path id="Trazado_144847" data-name="Trazado 144847" d="M-4913.654,1377.787l-11.313-10.379a42.26,42.26,0,0,0-41.313-43.184,42.259,42.259,0,0,0-43.185,41.313,42.258,42.258,0,0,0,41.314,43.184,42.257,42.257,0,0,0,40.144-26.485h0Z" transform="translate(5278.88 -1213.776)" fill="#fff"/>
      <path id="Trazado_144848" data-name="Trazado 144848" d="M-4913.611,1377.84l-.89.3-2.7.875-10.721,3.41a.164.164,0,0,1-.205-.107l0-.012h0l.326.089a42.022,42.022,0,0,1-12.456,17.067,41.521,41.521,0,0,1-11.862,6.821,42.6,42.6,0,0,1-46.529-11.21,42.151,42.151,0,0,1-9.994-37.069,44.3,44.3,0,0,1,3.217-9.816,43.242,43.242,0,0,1,20.6-20.255,42.327,42.327,0,0,1,17.793-3.825,42.5,42.5,0,0,1,37.514,22.731,42.174,42.174,0,0,1,4.775,20.611v-.133l8.392,7.873,2.121,2,.682.667-.771-.682-2.21-1.987-8.451-7.621a.159.159,0,0,1,0-.133,41.934,41.934,0,0,0-41.247-42.609c-.229,0-.458-.006-.687-.006a41.368,41.368,0,0,0-17.437,3.8,42.376,42.376,0,0,0-14.828,11.6,42.417,42.417,0,0,0-9.386,27.876,42,42,0,0,0,1.586,9.771,42.455,42.455,0,0,0,8.971,16.666,41.9,41.9,0,0,0,59.181,3.05,41.909,41.909,0,0,0,10.762-15.357.177.177,0,0,1,.222-.1.21.21,0,0,1,.119.193h0l-.208-.178,10.646-3.173,2.788-.816Z" transform="translate(5278.837 -1213.829)" fill="#263238"/>
      <path id="Trazado_144849" data-name="Trazado 144849" d="M-4986.89,1353.961a3.753,3.753,0,0,1-3.737,3.766,3.75,3.75,0,0,1-3.766-3.737,3.751,3.751,0,0,1,3.736-3.766h.03A3.737,3.737,0,0,1-4986.89,1353.961Z" transform="translate(5286.162 -1201.218)" fill="#263238"/>
      <circle id="Elipse_4705" data-name="Elipse 4705" cx="3.737" cy="3.737" r="3.737" transform="translate(306.774 149.006)" fill="#263238"/>
      <path id="Trazado_144850" data-name="Trazado 144850" d="M-4966.865,1352.091a3.751,3.751,0,0,1-1.357,5.129,3.75,3.75,0,0,1-5.129-1.357,3.751,3.751,0,0,1,1.357-5.129l.014-.007A3.753,3.753,0,0,1-4966.865,1352.091Z" transform="translate(5296.075 -1201.217)" fill="#263238"/>
      <path id="Trazado_144851" data-name="Trazado 144851" d="M-5047.966,1330.1l15.347-4.122a42.2,42.2,0,0,0,59.019-8.854,42.2,42.2,0,0,0-8.854-59.019,42.2,42.2,0,0,0-59.019,8.854,42.2,42.2,0,0,0-1.526,47.958h0Z" transform="translate(5259.442 -1249.684)" fill="#fff"/>
      <path id="Trazado_144852" data-name="Trazado 144852" d="M-5047.923,1330.145l.281-.949c.223-.682.52-1.646.92-2.966.845-2.625,2.061-6.45,3.662-11.417a.163.163,0,0,1,.2-.122l.011,0h0l-.267.222a41.941,41.941,0,0,1-6.628-20.077,42.57,42.57,0,0,1,37.44-44.854,43.284,43.284,0,0,1,19.068,2.209,42.467,42.467,0,0,1,8.985,4.448c.712.445,1.38.993,2.062,1.483a22.957,22.957,0,0,1,2.017,1.483,42.239,42.239,0,0,1,3.722,3.544c.578.637,1.171,1.26,1.72,1.913l1.482,2.046.771,1.023.682,1.082,1.335,2.165c.415.727.756,1.483,1.142,2.254a21.124,21.124,0,0,1,1.053,2.283,40.759,40.759,0,0,1,1.616,4.73,43,43,0,0,1,.9,19.276,41.7,41.7,0,0,1-6.895,16.7,43.032,43.032,0,0,1-12.277,11.566,42.3,42.3,0,0,1-14.309,5.634,43.306,43.306,0,0,1-13.687.415,42.046,42.046,0,0,1-19.706-8.081h.148l-11.521,2.966-2.965.741-.964.237s.355-.119,1.022-.3l2.966-.845,11.329-3.158a.164.164,0,0,1,.148,0,41.989,41.989,0,0,0,19.572,7.844,43.02,43.02,0,0,0,13.493-.475,42.075,42.075,0,0,0,26.127-17.037,40.973,40.973,0,0,0,6.895-16.444,42.317,42.317,0,0,0-.9-18.876,39.325,39.325,0,0,0-1.6-4.641,19.609,19.609,0,0,0-1.038-2.239c-.371-.741-.7-1.483-1.112-2.224l-1.32-2.12-.652-1.067-.771-.994-1.483-2.017c-.533-.637-1.126-1.245-1.689-1.868a38.838,38.838,0,0,0-3.647-3.485,19.928,19.928,0,0,0-1.987-1.483c-.667-.49-1.319-1.023-2.017-1.483a41.642,41.642,0,0,0-8.9-4.33,42.4,42.4,0,0,0-18.728-2.195,41.918,41.918,0,0,0-36.8,46.479,41.919,41.919,0,0,0,6.265,17.651.193.193,0,0,1,0,.252.207.207,0,0,1-.222,0h.281c-1.66,4.878-2.965,8.63-3.824,11.21l-1.009,2.966C-5047.79,1329.79-5047.923,1330.145-5047.923,1330.145Z" transform="translate(5259.4 -1249.733)" fill="#263238"/>
      <path id="Trazado_144853" data-name="Trazado 144853" d="M-5028.3,1278.182h4.938a4.211,4.211,0,0,1,4.209-4.212h.121a3.988,3.988,0,0,1,3.871,2.55,4.454,4.454,0,0,1-.356,4.019c-.831,1.379-2.669,2.639-6.005,2.046v11.165h4.893v-6.539a9.564,9.564,0,0,0,6.865-9.342c0-7.236-6.495-8.9-9.268-8.9C-5021.17,1268.945-5028.406,1269.523-5028.3,1278.182Z" transform="translate(5269.79 -1240.445)" fill="#263238"/>
      <rect id="Rectángulo_34994" data-name="Rectángulo 34994" width="4.967" height="4.641" transform="translate(248.249 55.591)" fill="#263238"/>
      <path id="Trazado_144854" data-name="Trazado 144854" d="M-5101.677,1378.2l-15.866-1.038a42.172,42.172,0,0,1-59.559,3.093,42.172,42.172,0,0,1-3.091-59.559,42.17,42.17,0,0,1,59.557-3.092A42.17,42.17,0,0,1-5109.6,1364.3h0Z" transform="translate(5191.226 -1222.2)" fill="#fff"/>
      <path id="Trazado_144855" data-name="Trazado 144855" d="M-5101.617,1378.267l-.549-.919-1.557-2.669-5.931-10.246h.282a.166.166,0,0,1-.232.007l-.005-.007a.162.162,0,0,1,0-.208,41.978,41.978,0,0,0-24.217-54.2,41.983,41.983,0,0,0-18.354-2.633,42.449,42.449,0,0,0-17.941,5.827,41.693,41.693,0,0,0-7.8,5.931c-.593.578-1.127,1.216-1.705,1.824a24.718,24.718,0,0,0-1.631,1.9,38.046,38.046,0,0,0-2.965,4.122c-.43.726-.9,1.483-1.3,2.18l-1.024,2.239-.548,1.127-.445,1.171-.875,2.343c-.267.786-.445,1.6-.667,2.387a19.707,19.707,0,0,0-.563,2.417,35.868,35.868,0,0,0-.652,4.849,42.2,42.2,0,0,0,2.8,18.683,40.87,40.87,0,0,0,9.994,14.828,42.049,42.049,0,0,0,28.944,11.581,42.618,42.618,0,0,0,13.345-2.18,41.816,41.816,0,0,0,17.645-11.521.2.2,0,0,1,.148,0l11.729.89,3.055.237,1.067.089h-.993l-2.965-.148-11.862-.667h.148a42.151,42.151,0,0,1-17.793,11.773,42.453,42.453,0,0,1-42.927-9.371,41.683,41.683,0,0,1-10.2-15.021,43.084,43.084,0,0,1-2.876-19.024,40.291,40.291,0,0,1,.667-4.952,20.662,20.662,0,0,1,.578-2.447c.237-.8.416-1.631.682-2.432l.89-2.387.445-1.2.563-1.142,1.112-2.313c.415-.756.89-1.483,1.334-2.209a39.458,39.458,0,0,1,2.965-4.211c.49-.712,1.127-1.275,1.676-1.928a20.6,20.6,0,0,1,1.734-1.854,42.285,42.285,0,0,1,7.948-6.079,43.282,43.282,0,0,1,18.268-5.931,42.512,42.512,0,0,1,45.447,36.506,42.13,42.13,0,0,1-2.609,21.145l-.312-.178h0a.177.177,0,0,1,.237,0h0l5.813,10.483,1.483,2.654Z" transform="translate(5191.165 -1222.263)" fill="#263238"/>
      <path id="Trazado_144856" data-name="Trazado 144856" d="M-5154.723,1336.435a3.751,3.751,0,0,0,3.752,3.751,3.752,3.752,0,0,0,3.751-3.751,3.752,3.752,0,0,0-3.751-3.751h-.016a3.736,3.736,0,0,0-3.736,3.737Z" transform="translate(5208.758 -1209.686)" fill="#263238"/>
      <path id="Trazado_144857" data-name="Trazado 144857" d="M-5164.833,1336.435a3.751,3.751,0,0,0,3.751,3.751,3.752,3.752,0,0,0,3.752-3.751,3.752,3.752,0,0,0-3.752-3.751h0a3.737,3.737,0,0,0-3.751,3.722Z" transform="translate(5203.877 -1209.686)" fill="#263238"/>
      <path id="Trazado_144858" data-name="Trazado 144858" d="M-5174.747,1334.551a3.751,3.751,0,0,0,1.355,5.129,3.75,3.75,0,0,0,5.129-1.357,3.752,3.752,0,0,0-1.355-5.129l-.013-.007A3.753,3.753,0,0,0-5174.747,1334.551Z" transform="translate(5198.845 -1209.685)" fill="#263238"/>
    </g>
    <g id="freepik--character-2--inject-2" transform="translate(-4841.92 1352.017)">
      <rect id="Rectángulo_34995" data-name="Rectángulo 34995" width="133.42" height="119.672" transform="translate(23.362 121.439)" fill="#455a64"/>
      <path id="Trazado_144859" data-name="Trazado 144859" d="M-4923.181,1529.536h56.094l-6.284-81.7,2.965-63.76-6.7-2.625-24.644,40.109-12.218-38.552-7.622,7.592s-4.181,51.185-4.181,51.927,4.863,56.2,4.863,56.2Z" transform="translate(4977.813 -1288.425)" fill="#263238"/>
      <path id="Trazado_144860" data-name="Trazado 144860" d="M-4925.593,1334.995a22.813,22.813,0,0,1,11.343-13.553,28.863,28.863,0,0,1,19.528-1.794,61.144,61.144,0,0,1,18.134,8.111,29.672,29.672,0,0,1,8.585,7.1c4.092,5.442,8.022,14.324,8.245,21.13.163,5.516-2.329,19.276-4.79,24.14a12.373,12.373,0,0,1-5.413,4.611,46.792,46.792,0,0,1-10.379,12.885l-3.514-11.18Z" transform="translate(4977.9 -1318.714)" fill="#263238"/>
      <path id="Trazado_144861" data-name="Trazado 144861" d="M-4854.031,1400.962c2.684-9.934,1.482-22.153,1.082-30.649s1.483-12.159-4.952-26.394a43.7,43.7,0,0,0-20.255-21.026l-30.485,3.321c.222-.534.445-1.068.667-1.483l-10.9,1.631a8.542,8.542,0,0,0-8.7,4.448,12,12,0,0,0-1.689,2.447,28.921,28.921,0,0,0-2.373,9.1,70.207,70.207,0,0,0-.652,9.312c-.1,1.231-.178,2.313-.253,3.158a14.392,14.392,0,0,0,.327,4.033c.46,13.093,2.135,27.52.533,38.4a5.928,5.928,0,0,0,.179,3.381,5.465,5.465,0,0,0,2.8,2.269c13.522,6.42,23.086-1.275,36.446-8.022,2.595-1.3,5.249-2.966,8.17-2.788s5.62,8.185,8.437,9.416" transform="translate(4974.531 -1316.697)" fill="#263238"/>
      <path id="Trazado_144862" data-name="Trazado 144862" d="M-4869.945,1350.022a18.523,18.523,0,0,0-13.435-17.437l-24.776-7.073c-10.75-1.483-18.328,11.581-19.351,22.39-1.127,12-1.973,24.673-.815,33.689,2.3,18.135,16.059,20.833,16.059,20.833s-.237,8.585-.386,13.849l12.024,57.828,24.689-62.084,6.05-61.787C-4869.871,1349.933-4869.931,1350.437-4869.945,1350.022Z" transform="translate(4976.314 -1315.489)" fill="#aa645b"/>
      <path id="Trazado_144863" data-name="Trazado 144863" d="M-4925.842,1350.535a2.327,2.327,0,0,0,2.165,2.4,2.208,2.208,0,0,0,2.438-1.951l.008-.065a2.3,2.3,0,0,0-2.15-2.4,2.226,2.226,0,0,0-2.457,1.965Z" transform="translate(4977.778 -1304.333)" fill="#263238"/>
      <path id="Trazado_144864" data-name="Trazado 144864" d="M-4926.252,1346.144c.281.311,2.076-.934,4.567-.86s4.27,1.394,4.553,1.1-.134-.682-.92-1.29a6.278,6.278,0,0,0-3.633-1.245,5.923,5.923,0,0,0-3.632,1.053C-4926.1,1345.462-4926.386,1346.07-4926.252,1346.144Z" transform="translate(4977.565 -1306.584)" fill="#263238"/>
      <path id="Trazado_144865" data-name="Trazado 144865" d="M-4911.132,1350.556a2.327,2.327,0,0,0,2.165,2.4,2.223,2.223,0,0,0,2.442-1.981l0-.035a2.329,2.329,0,0,0-2.15-2.4,2.21,2.21,0,0,0-2.454,1.935Z" transform="translate(4984.88 -1304.323)" fill="#263238"/>
      <path id="Trazado_144866" data-name="Trazado 144866" d="M-4910.3,1346.589c.282.311,2.076-.934,4.567-.845s4.271,1.379,4.552,1.082-.133-.682-.92-1.275a6.165,6.165,0,0,0-3.632-1.246,6.058,6.058,0,0,0-3.647,1.053C-4910.154,1345.922-4910.436,1346.455-4910.3,1346.589Z" transform="translate(4985.266 -1306.362)" fill="#263238"/>
      <path id="Trazado_144867" data-name="Trazado 144867" d="M-4913.895,1365.624a17.608,17.608,0,0,0-4.032-.845c-.624-.089-1.231-.237-1.32-.667a3.241,3.241,0,0,1,.475-1.868l2.031-4.79c2.833-6.821,4.893-12.426,4.611-12.53s-2.787,5.309-5.6,12.129l-1.957,4.8a3.7,3.7,0,0,0-.4,2.476,1.567,1.567,0,0,0,1.023.964,3.751,3.751,0,0,0,1.066.178A15.434,15.434,0,0,0-4913.895,1365.624Z" transform="translate(4980.524 -1306.062)" fill="#263238"/>
      <path id="Trazado_144868" data-name="Trazado 144868" d="M-4893.509,1373.494s-6.229,12.218-24.244,9.979l.119-4.241A45.607,45.607,0,0,0-4893.509,1373.494Z" transform="translate(4981.685 -1292.268)" fill="#814842"/>
      <path id="Trazado_144869" data-name="Trazado 144869" d="M-4909.609,1340.353c.222.682,2.728.445,5.634.875s5.249,1.32,5.649.727c.193-.3-.207-.934-1.142-1.631a9.993,9.993,0,0,0-8.585-1.216C-4909.15,1339.508-4909.7,1340.026-4909.609,1340.353Z" transform="translate(4985.611 -1309.097)" fill="#263238"/>
      <path id="Trazado_144870" data-name="Trazado 144870" d="M-4925.543,1341.094c.414.578,2.15,0,4.211,0s3.8.5,4.226,0c.178-.282,0-.86-.83-1.483a6.082,6.082,0,0,0-6.792,0C-4925.47,1340.234-4925.736,1340.812-4925.543,1341.094Z" transform="translate(4977.895 -1309.126)" fill="#263238"/>
      <path id="Trazado_144871" data-name="Trazado 144871" d="M-4924.223,1333.774a7.978,7.978,0,0,1,7.146-4.3,15.487,15.487,0,0,1,8.26,2.669c10.557,6.51,15.658,21.678,26.1,28.41,2.564,1.646,6,.3,8.169,2.461s3.5,5.546,2.2,8.3a25.245,25.245,0,0,0,3.854-6.124,8.452,8.452,0,0,0-.089-7.043c-.874-1.616-2.461-2.877-2.861-4.686-.342-1.572.326-3.2.3-4.819a10.4,10.4,0,0,0-1.483-4.641,46.937,46.937,0,0,0-16.74-18.638,30.455,30.455,0,0,0-15.718-4.552,23.417,23.417,0,0,0-15.332,5.545c-2.432,2.15-5,4.375-3.855,7.414" transform="translate(4978.398 -1317.701)" fill="#263238"/>
      <path id="Trazado_144872" data-name="Trazado 144872" d="M-4890.932,1351.053c.207-.5,9.712-3.633,9.549,6.376-.148,9.712-9.9,7.518-9.92,7.251S-4890.932,1351.053-4890.932,1351.053Z" transform="translate(4994.453 -1303.516)" fill="#aa645b"/>
      <path id="Trazado_144873" data-name="Trazado 144873" d="M-4889.23,1360.019a3.561,3.561,0,0,0,.46.267,1.683,1.683,0,0,0,1.26,0,4.2,4.2,0,0,0,2.017-3.722,5.807,5.807,0,0,0-.43-2.432,1.977,1.977,0,0,0-1.245-1.334.9.9,0,0,0-1.024.445c-.133.282-.074.475-.118.49s-.208-.163-.119-.563a1.105,1.105,0,0,1,.385-.608,1.218,1.218,0,0,1,.979-.208,2.343,2.343,0,0,1,1.735,1.483,5.854,5.854,0,0,1,.533,2.728,4.447,4.447,0,0,1-2.55,4.152,1.868,1.868,0,0,1-1.483-.282C-4889.216,1360.256-4889.26,1360.034-4889.23,1360.019Z" transform="translate(4995.451 -1302.488)" fill="#814842"/>
      <path id="Trazado_144874" data-name="Trazado 144874" d="M-4871.605,1358.507a3.752,3.752,0,0,1-.578-.341c-.355-.252-.919-.578-1.6-1.082a34.125,34.125,0,0,1-5.1-4.938,91.5,91.5,0,0,1-6.183-8.511,75.537,75.537,0,0,0-7.74-10.216,30.047,30.047,0,0,0-5.057-4.241,25.339,25.339,0,0,0-5.516-2.7,27.82,27.82,0,0,0-10.261-1.483,26.673,26.673,0,0,0-6.939,1.156c-.8.222-1.409.475-1.824.608a3.384,3.384,0,0,1-.638.208l.608-.282a13.788,13.788,0,0,1,1.809-.7,24.548,24.548,0,0,1,6.969-1.3,27.534,27.534,0,0,1,10.379,1.483,25.719,25.719,0,0,1,5.62,2.714,31.649,31.649,0,0,1,5.145,4.3,74.278,74.278,0,0,1,7.755,10.29,99.71,99.71,0,0,0,6.08,8.556,36.04,36.04,0,0,0,4.982,4.982c.638.534,1.187.875,1.483,1.156A2.457,2.457,0,0,1-4871.605,1358.507Z" transform="translate(4979.131 -1315.848)" fill="#455a64"/>
      <path id="Trazado_144875" data-name="Trazado 144875" d="M-4888,1358.7a1.914,1.914,0,0,1,2.188,1.59,1.913,1.913,0,0,1-1.591,2.188,1.914,1.914,0,0,1-2.189-1.589,1.915,1.915,0,0,1,1.132-2.055" transform="translate(4995.271 -1299.421)" fill="#fff"/>
      <path id="Trazado_144876" data-name="Trazado 144876" d="M-4888.378,1358.876a2.6,2.6,0,0,0-.9,1.275,1.687,1.687,0,0,0,.341,1.483,1.69,1.69,0,0,0,2.381.2,1.7,1.7,0,0,0,.584-1.061,1.636,1.636,0,0,0-.535-1.483,2.516,2.516,0,0,0-1.482-.608,1.034,1.034,0,0,1,.459-.089,2.017,2.017,0,0,1,1.937,2.094c0,.043,0,.087-.009.131a2.091,2.091,0,0,1-2.292,1.868,2.09,2.09,0,0,1-1.43-.786,1.908,1.908,0,0,1-.326-1.9,1.948,1.948,0,0,1,.771-1.023C-4888.556,1358.876-4888.378,1358.846-4888.378,1358.876Z" transform="translate(4995.191 -1299.462)" fill="#263238"/>
      <path id="Trazado_144877" data-name="Trazado 144877" d="M-4886.061,1353.959a15.05,15.05,0,0,1-1.17,7.785c-1.291,2.328-4.449,3.84-6.7,2.447-1.854-1.127-2.358-3.544-2.61-5.708-.741-6.213-.993-12.485-1.779-18.7Z" transform="translate(4991.064 -1308.543)" fill="#263238"/>
      <path id="Trazado_144878" data-name="Trazado 144878" d="M-4922.623,1326.626a15.758,15.758,0,0,1,2.417-.148,16.407,16.407,0,0,1,6.406,1.364,21.141,21.141,0,0,1,3.959,2.18,46.059,46.059,0,0,1,4.078,3.292,50.481,50.481,0,0,1,7.888,9.015c1.187,1.765,2.225,3.574,3.366,5.264a24.9,24.9,0,0,0,3.766,4.448,43.063,43.063,0,0,0,8.052,5.723c2.461,1.394,4.448,2.373,5.931,3.054l1.631.756a2.8,2.8,0,0,0,.593.222,2.368,2.368,0,0,0-.534-.326l-1.6-.845c-1.379-.741-3.411-1.765-5.828-3.188a44.656,44.656,0,0,1-7.9-5.768,24.044,24.044,0,0,1-3.662-4.448c-1.127-1.676-2.166-3.484-3.366-5.279a48.244,48.244,0,0,0-8.007-9.074,46.162,46.162,0,0,0-4.137-3.292,21.265,21.265,0,0,0-4.092-2.18,15.919,15.919,0,0,0-6.54-1.2,11.041,11.041,0,0,0-1.809.193A2.231,2.231,0,0,0-4922.623,1326.626Z" transform="translate(4979.333 -1315.106)" fill="#455a64"/>
      <path id="Trazado_144879" data-name="Trazado 144879" d="M-4906.29,1364.322a10.81,10.81,0,0,0-.7-2.714,1.273,1.273,0,0,0-.577-.86,1.341,1.341,0,0,0-1.038,0c-2.047.653-4.656,1.868-6.7,2.536a5.03,5.03,0,0,0,1.009,4.048,4.844,4.844,0,0,0,3.454,1.171,4.659,4.659,0,0,0,3.826-1.6A3.621,3.621,0,0,0-4906.29,1364.322Z" transform="translate(4982.825 -1298.472)" fill="#814842"/>
      <path id="Trazado_144880" data-name="Trazado 144880" d="M-4913.436,1367.69a6.293,6.293,0,0,0,2.966.593,4.194,4.194,0,0,0,2.8-1.409,4.447,4.447,0,0,0,.891-3.677,3.48,3.48,0,0,0-.891-1.735c-.4-.415-.919-.312-1.482-.074l-3.2,1.32a14.244,14.244,0,0,1-3.04,1.038,11.975,11.975,0,0,1,2.817-1.483l3.173-1.483a3.187,3.187,0,0,1,1.082-.3,1.717,1.717,0,0,1,1.216.459,4.182,4.182,0,0,1,1.142,2.135,5.043,5.043,0,0,1-1.1,4.3,4.661,4.661,0,0,1-3.321,1.483,4.364,4.364,0,0,1-2.357-.563C-4913.258,1367.987-4913.465,1367.69-4913.436,1367.69Z" transform="translate(4982.823 -1298.549)" fill="#263238"/>
      <path id="Trazado_144881" data-name="Trazado 144881" d="M-4926.013,1519.907l-3.919,9.383h15.925c.456-3.735.777-7.487.924-11.251.415-11.966-1.972-32.9-1.972-32.9l-1.987-59.311,8.659-43.86-9.712,10.379-19.128,8.215s3.321,71.766,5.931,84.681C-4928.89,1497.013-4926.013,1519.907-4926.013,1519.907Z" transform="translate(4972.284 -1288.179)" fill="#7e57c2"/>
      <path id="Trazado_144882" data-name="Trazado 144882" d="M-4896.373,1465.558c0,7.7,0,26.69,1.809,43.935a80.681,80.681,0,0,0,3.238,20.845h47.248c-5.419-14.8-10.843-28.068-10.762-30.809.222-7.858,6.108-41.206,6.049-68.119a117.9,117.9,0,0,0-5.931-36.15c-4.641-1.913-29.761-10.884-29.761-10.884l-6.552-4.582a26.193,26.193,0,0,0-.489,4.938c.934,8.393,2,26.067,1.869,28.929C-4889.744,1415.751-4896.373,1447.156-4896.373,1465.558Z" transform="translate(4992.006 -1289.227)" fill="#7e57c2"/>
      <path id="Trazado_144883" data-name="Trazado 144883" d="M-4862.459,1390.014s10.469,1.379,17.928,20.4c4.448,11.417,23.725,66.073,23.725,82.665,0,7.147-13.034,19.75-13.034,19.75h-44.572l-4.76-20.937,28.455-12.781-8.9-28.633Z" transform="translate(4998.379 -1284.293)" fill="#7e57c2"/>
      <path id="Trazado_144884" data-name="Trazado 144884" d="M-4877.354,1464.167s-14.072-10.38-15.925-9.816-17.022,8.971-17.022,8.971l-1.231,12.692a7.5,7.5,0,0,0,3.248,0l.771-.459a4.24,4.24,0,0,0,3.871,3.707s2.476,4.315,5.723,2.461c0,0,.1,2.639,2.373,2.8a8.24,8.24,0,0,0,4.286-1.082l1.483-1.72,4.033-1.379s2.965,4.952,7.206,4.952,14.369-5.768,14.369-5.768l-4.448-16.622Z" transform="translate(4984.688 -1253.243)" fill="#aa645b"/>
      <path id="Trazado_144885" data-name="Trazado 144885" d="M-4891.733,1466.144a7.123,7.123,0,0,1-1.869,1.1,26.883,26.883,0,0,0-4.448,2.639,11.031,11.031,0,0,0-3.2,3.841c-.563,1.171-.667,1.987-.8,1.972a3.54,3.54,0,0,1,.3-2.18,9.675,9.675,0,0,1,3.232-4.241,17.661,17.661,0,0,1,4.656-2.521A6.35,6.35,0,0,1-4891.733,1466.144Z" transform="translate(4989.236 -1247.539)" fill="#814842"/>
      <path id="Trazado_144886" data-name="Trazado 144886" d="M-4905.614,1476.718a8.976,8.976,0,0,1,0-2.891,14.161,14.161,0,0,1,1.986-6.747,10.876,10.876,0,0,1,5.769-4.018,8.864,8.864,0,0,1,2.816-.667,14.085,14.085,0,0,1-2.624,1.171,11.564,11.564,0,0,0-5.309,3.944,15.813,15.813,0,0,0-2.091,6.376A14.169,14.169,0,0,1-4905.614,1476.718Z" transform="translate(4987.488 -1249.349)" fill="#814842"/>
      <path id="Trazado_144887" data-name="Trazado 144887" d="M-4895.92,1458.277a7.247,7.247,0,0,1-2.847,1.676c-.949.4-2.091.786-3.307,1.29a9.61,9.61,0,0,0-3.47,2.283,12.424,12.424,0,0,0-2.684,7.058,18.432,18.432,0,0,1-.4,3.247,11.814,11.814,0,0,1-.148-3.292,12.051,12.051,0,0,1,2.654-7.532,9.631,9.631,0,0,1,3.781-2.417c1.26-.5,2.432-.83,3.381-1.142C-4897.046,1458.826-4895.993,1458.174-4895.92,1458.277Z" transform="translate(4985.992 -1251.342)" fill="#814842"/>
      <path id="Trazado_144888" data-name="Trazado 144888" d="M-4876.12,1415.244c.192-.074,4.448,11.447,9.371,25.711s8.9,25.9,8.63,25.978-4.448-11.447-9.356-25.726S-4876.328,1415.392-4876.12,1415.244Z" transform="translate(5001.78 -1272.112)" fill="#263238"/>
      <path id="Trazado_144889" data-name="Trazado 144889" d="M-4861.74,1392.144c0,.133-1.1.237-2.788.756a17.789,17.789,0,0,0-6,3.232,17.932,17.932,0,0,0-4.315,5.264c-.831,1.483-1.156,2.625-1.275,2.595a6.7,6.7,0,0,1,.787-2.832,15.5,15.5,0,0,1,4.314-5.62,15.7,15.7,0,0,1,6.347-3.158A6.992,6.992,0,0,1-4861.74,1392.144Z" transform="translate(5001.783 -1283.294)" fill="#263238"/>
      <path id="Trazado_144890" data-name="Trazado 144890" d="M-4877.2,1484.771a8.474,8.474,0,0,1-.533-1.483l-1.29-4.226c-1.1-3.751-2.581-8.9-4.346-14.961l-.089-.282.268-.133c4.448-2.135,9.5-4.656,14.917-7.162a147.9,147.9,0,0,1,13.76-5.635,42.851,42.851,0,0,1,11.862-2.728,14.39,14.39,0,0,1,7.962,1.883,9.385,9.385,0,0,1,1.765,1.364,2.8,2.8,0,0,1,.5.608,18.917,18.917,0,0,0-2.431-1.72,14.559,14.559,0,0,0-7.771-1.586,44.086,44.086,0,0,0-11.654,2.847c-4.285,1.483-8.9,3.47-13.656,5.679-5.4,2.476-10.38,4.982-14.946,7.087l.192-.415c1.646,6.094,3.055,11.269,4.077,15.035.46,1.765.816,3.188,1.1,4.285A8.75,8.75,0,0,1-4877.2,1484.771Z" transform="translate(4998.244 -1256.232)" fill="#263238"/>
      <path id="Trazado_144891" data-name="Trazado 144891" d="M-4918.009,1483.688a5.946,5.946,0,0,1-.371-.993c-.237-.741-.549-1.705-.919-2.966-.786-2.521-1.868-6.2-3.1-10.75a335.313,335.313,0,0,1-7.681-36.135,12.5,12.5,0,0,1,1.735-7.681,26.649,26.649,0,0,1,4.448-5.931l.208.623-6.05-.667h-.415l.1-.385,5.753-21.545c.711-2.565,1.29-4.626,1.705-6.139.193-.652.341-1.186.475-1.616a2.033,2.033,0,0,1,.208-.549,2.778,2.778,0,0,1-.089.578c-.1.445-.223.979-.386,1.646-.355,1.483-.86,3.588-1.482,6.168-1.364,5.368-3.248,12.841-5.486,21.634l-.3-.445,6.109.652.742.074-.535.549a27.325,27.325,0,0,0-4.33,5.827,11.743,11.743,0,0,0-1.631,7.191c2.2,14.235,5.086,26.957,7.414,36.106,1.172,4.582,2.166,8.274,2.862,10.824.327,1.216.579,2.18.786,2.966A5.712,5.712,0,0,1-4918.009,1483.688Z" transform="translate(4975.698 -1284.804)" fill="#263238"/>
      <path id="Trazado_144892" data-name="Trazado 144892" d="M-4896.383,1485.517a6.738,6.738,0,0,1,.7-.964c.533-.652,1.245-1.483,2.12-2.654s1.809-2.743,2.966-4.448l1.586-2.966.86-1.616.8-1.75c4.448-9.564,8.393-23.724,10.513-39.783.341-2.595.652-5.175.846-7.7l.252.385-8.512-2.966-.845-.43.756-.4,5.754-2.966-.179.386c-1.75-10.172-3.247-18.831-4.314-25.029-.49-2.966-.875-5.412-1.156-7.162-.119-.771-.223-1.483-.282-1.9a2.184,2.184,0,0,1,0-.667,3.649,3.649,0,0,1,.163.652l.4,1.883c.326,1.72.785,4.122,1.364,7.117,1.126,6.183,2.714,14.828,4.581,24.97v.252l-.222.134-5.753,2.966v-.667l8.511,2.966.282.1v.282c-.193,2.551-.489,5.131-.831,7.755-2.135,16.059-6.139,30.338-10.795,39.9l-.83,1.765-.89,1.616-1.646,2.965c-1.2,1.735-2.2,3.277-3.085,4.448l-2.254,2.58A6.715,6.715,0,0,1-4896.383,1485.517Z" transform="translate(4992.001 -1287.73)" fill="#263238"/>
      <g id="Grupo_88562" data-name="Grupo 88562" transform="translate(96.79 105.721)" opacity="0.3">
        <path id="Trazado_144893" data-name="Trazado 144893" d="M-4895.593,1481.071s4.552-.756,10.6-9.075c6.924-9.475,13.107-52.1,13.107-52.1l-6.184-2.447,3.855-3.292-7.666-24.139,3.188,24.11-5.754,2.966,8.512,2.965s-3.722,24.762-6.673,35.038C-4885.777,1466.006-4887.9,1469.09-4895.593,1481.071Z" transform="translate(4895.593 -1390.014)"/>
      </g>
      <g id="Grupo_88563" data-name="Grupo 88563" transform="translate(143.661 188.448)" opacity="0.3">
        <path id="Trazado_144894" data-name="Trazado 144894" d="M-4839.844,1450.044a6.232,6.232,0,0,0-3.514-3.44,12.507,12.507,0,0,0-4.953-.786c-5.931,0-11.164,2.788-15.672,6.569l.414.178c6.437-3.647,15.051-4.448,21.338-.534a2.207,2.207,0,0,0,1.557.5C-4839.7,1452.357-4839.5,1451.052-4839.844,1450.044Z" transform="translate(4863.982 -1445.806)"/>
      </g>
      <path id="Trazado_144895" data-name="Trazado 144895" d="M-4922.263,1393.394s-15.243,4.448-18.178,16.563c-3.263,13.345-6.836,31.509-10.676,43s-.86,12.381-2.966,17.082-11.091,18.817-4.27,29.255,13.671,16.415,26.467,11.284a57.1,57.1,0,0,0,19.944-13.108Z" transform="translate(4960.868 -1282.661)" fill="#7e57c2"/>
      <path id="Trazado_144896" data-name="Trazado 144896" d="M-4937.646,1413.514c.133,0-.222,2.224-.43,5.813a104,104,0,0,0,.1,14.027,117.882,117.882,0,0,0,1.854,13.908c.7,3.529,1.261,5.694,1.142,5.724a6.827,6.827,0,0,1-.548-1.483c-.327-.964-.712-2.372-1.127-4.137a89.484,89.484,0,0,1-2.076-13.968,80.96,80.96,0,0,1,.1-14.131c.178-1.794.4-3.247.594-4.241A7.453,7.453,0,0,1-4937.646,1413.514Z" transform="translate(4971.433 -1272.948)" fill="#263238"/>
      <path id="Trazado_144897" data-name="Trazado 144897" d="M-4923.759,1441.6c0,.134-1.838-.341-4.79-.637a37.186,37.186,0,0,0-22.242,4.76c-2.565,1.483-4,2.639-4.092,2.535a5.2,5.2,0,0,1,.949-.9,23.388,23.388,0,0,1,2.876-2.076,34.1,34.1,0,0,1,22.583-4.834,25.136,25.136,0,0,1,3.485.727A5.421,5.421,0,0,1-4923.759,1441.6Z" transform="translate(4963.759 -1260.095)" fill="#263238"/>
      <path id="Trazado_144898" data-name="Trazado 144898" d="M-4915.4,1463.184a8.575,8.575,0,0,1-1.142,1.29c-.771.786-1.913,1.913-3.352,3.262a49.606,49.606,0,0,1-12.648,8.9,24.518,24.518,0,0,1-15.3,1.927,15.741,15.741,0,0,1-4.448-1.661,4.911,4.911,0,0,1-1.482-.979,22.478,22.478,0,0,0,20.759,0,54.009,54.009,0,0,0,12.588-8.615c1.395-1.2,2.565-2.239,3.515-3.069A6.485,6.485,0,0,1-4915.4,1463.184Z" transform="translate(4964.294 -1248.968)" fill="#263238"/>
      <path id="Trazado_144899" data-name="Trazado 144899" d="M-4929.1,1438.23a81.691,81.691,0,0,0,7.607,5.042,16.917,16.917,0,0,1,7.414,8.9c1.112,4.167,4.048,6.257,5.042,8.215s.978,10.053.86,12.025,5.931,6.628,6.257,7.414.846,2.966-.742,3.44a4.326,4.326,0,0,1-4.167-.608c-.86-.86-4.448-3.929-4.448-3.929s.371,3.8-.86,4.048a12.328,12.328,0,0,1-3.187,0l-4.567-6.657s-1.112,4.789-3.069,4.3-3.188-.994-3.44-3.929a28.685,28.685,0,0,0-1.587-6.51v-2.447s-2.58,3.188-4.552,2.7-2.817-1.483-2.966-2.209a39.8,39.8,0,0,1,1.231-7.726,53.54,53.54,0,0,1,2.446-6.138s1.112-5.4-.119-7.414-8.1-7.963-8.9-9.935-2.091-4.908.86-5.931S-4933.34,1435.264-4929.1,1438.23Z" transform="translate(4970.063 -1264.627)" fill="#aa645b"/>
      <path id="Trazado_144900" data-name="Trazado 144900" d="M-4920.118,1447.064a4.406,4.406,0,0,1-1.319.994,9.9,9.9,0,0,1-7.755.459c-.949-.371-1.483-.756-1.409-.83a22.044,22.044,0,0,0,5.293.667A22.515,22.515,0,0,0-4920.118,1447.064Z" transform="translate(4975.479 -1256.75)" fill="#814842"/>
      <path id="Trazado_144901" data-name="Trazado 144901" d="M-4920.763,1465.513a5.478,5.478,0,0,1-1.779-2.832,5.368,5.368,0,0,1-.475-3.307,14.713,14.713,0,0,1,1.142,3.069A14.119,14.119,0,0,1-4920.763,1465.513Z" transform="translate(4979.105 -1250.807)" fill="#814842"/>
      <path id="Trazado_144902" data-name="Trazado 144902" d="M-4926.437,1463.541a5.413,5.413,0,0,1-1.29-2.965,5.311,5.311,0,0,1,0-3.292,13.718,13.718,0,0,1,.652,3.143A14.476,14.476,0,0,1-4926.437,1463.541Z" transform="translate(4976.743 -1251.816)" fill="#814842"/>
    </g>
    <g id="freepik--character-1--inject-2" transform="translate(-5120.294 1339.567)">
      <rect id="Rectángulo_34996" data-name="Rectángulo 34996" width="133.42" height="99.373" transform="translate(18.852 154.188)" fill="#455a64"/>
      <path id="Trazado_144903" data-name="Trazado 144903" d="M-5013.635,1349.146c-2.862-3.054-6.347-5.931-7.414-9.994-.935-3.751.371-8.037-1.617-11.343-2.461-4.063-8.541-4.448-11.477-8.1-1.482-1.794-1.928-4.2-3.336-6.005-2.4-3.084-6.851-3.766-10.736-3.218s-7.562,2.091-11.462,2.491c-5.338.578-10.928-.979-16.014.741-5.6,1.9-8.9,7.043-12.411,12.04l-4.611,5.813a20.975,20.975,0,0,1-3.114,2.713,37.557,37.557,0,0,0-5.931,4.093,9.46,9.46,0,0,0,.792,13.355q.155.14.32.271a10.155,10.155,0,0,0-6.48,10.187,28.615,28.615,0,0,0,2.091,6.806,10.175,10.175,0,0,1,.445,6.984c-.875,2.209-3.6,3.811-5.724,2.713a10.652,10.652,0,0,0,6.064,6.9,6.364,6.364,0,0,1-4.211,2.061c4.716,10.038,16.711,14.961,27.8,14.62s21.53-4.952,31.657-9.46l29.551-8.9c2.61-.7,3.574-3.929,3.441-6.613s-.92-5.457,0-8.007c1.186-3.484,5.13-5.457,6.375-8.9C-5008.209,1356.456-5010.759,1352.2-5013.635,1349.146Z" transform="translate(5167.095 -1310.318)" fill="#e0e0e0"/>
      <path id="Trazado_144904" data-name="Trazado 144904" d="M-5065.5,1315.614h-1.631c-17.793.667-27.12,16.133-25.948,33.866l.711,61.15a20.758,20.758,0,0,0,19.958,20.552h0a20.76,20.76,0,0,0,21.621-19.86c.006-.136.009-.273.013-.409.089-3.218.148-5.472.163-5.472s17.111-2.3,17.66-19.276c.281-8.229-.549-25.207-1.482-40.613A31.777,31.777,0,0,0-5065.5,1315.614Z" transform="translate(5175.366 -1307.761)" fill="#ffbe9d"/>
      <path id="Trazado_144905" data-name="Trazado 144905" d="M-5057.29,1378.457a41.17,41.17,0,0,1-22.063-7.014s5.16,12.515,22.242,11.328Z" transform="translate(5182.042 -1280.807)" fill="#eb996e"/>
      <path id="Trazado_144906" data-name="Trazado 144906" d="M-5055.189,1346.6a2.447,2.447,0,0,1-2.4,2.4,2.328,2.328,0,0,1-2.459-2.188l0-.051a2.445,2.445,0,0,1,2.4-2.417,2.329,2.329,0,0,1,2.459,2.19Z" transform="translate(5191.359 -1293.892)" fill="#263238"/>
      <path id="Trazado_144907" data-name="Trazado 144907" d="M-5052.962,1341.329c-.312.311-2.121-1.082-4.746-1.127s-4.566,1.216-4.849.89.193-.712,1.039-1.3a6.708,6.708,0,0,1,3.884-1.112,6.367,6.367,0,0,1,3.767,1.3C-5053.066,1340.617-5052.814,1341.151-5052.962,1341.329Z" transform="translate(5190.112 -1296.629)" fill="#263238"/>
      <path id="Trazado_144908" data-name="Trazado 144908" d="M-5071.379,1347.079a2.419,2.419,0,0,1-2.388,2.4,2.328,2.328,0,0,1-2.474-2.174l0-.065a2.446,2.446,0,0,1,2.4-2.417,2.329,2.329,0,0,1,2.459,2.19Z" transform="translate(5183.543 -1293.66)" fill="#263238"/>
      <path id="Trazado_144909" data-name="Trazado 144909" d="M-5070.283,1341.7c-.311.3-2.12-1.1-4.744-1.142s-4.567,1.216-4.849.89.177-.712,1.038-1.3a6.833,6.833,0,0,1,3.885-1.112,6.477,6.477,0,0,1,3.767,1.3C-5070.4,1340.977-5070.134,1341.555-5070.283,1341.7Z" transform="translate(5181.75 -1296.455)" fill="#263238"/>
      <path id="Trazado_144910" data-name="Trazado 144910" d="M-5067.133,1361.631a17.414,17.414,0,0,1,4.271-.682c.667,0,1.305-.178,1.482-.623a3.311,3.311,0,0,0-.415-1.942l-1.869-5.13c-2.609-7.31-4.448-13.345-4.181-13.419s2.654,5.738,5.249,13.048c.623,1.809,1.215,3.529,1.794,5.16a3.86,3.86,0,0,1,.282,2.639,1.6,1.6,0,0,1-1.112.949,4.24,4.24,0,0,1-1.142.148A16.9,16.9,0,0,1-5067.133,1361.631Z" transform="translate(5187.585 -1296.068)" fill="#263238"/>
      <path id="Trazado_144911" data-name="Trazado 144911" d="M-5069.508,1334.324c-.268.712-2.877.326-5.932.623s-5.59,1.1-5.931.46c-.178-.312.267-.979,1.275-1.646a10.479,10.479,0,0,1,9.1-.816C-5069.953,1333.419-5069.39,1334-5069.508,1334.324Z" transform="translate(5181.049 -1299.722)" fill="#e0e0e0"/>
      <path id="Trazado_144912" data-name="Trazado 144912" d="M-5053.809,1335.513c-.474.578-2.268-.074-4.448-.148s-4.018.311-4.448-.311c-.192-.312.119-.9.935-1.483a6.422,6.422,0,0,1,7.132.356C-5053.882,1334.609-5053.6,1335.158-5053.809,1335.513Z" transform="translate(5190.053 -1299.532)" fill="#e0e0e0"/>
      <path id="Trazado_144913" data-name="Trazado 144913" d="M-5088.591,1347.165c-.3-.134-11.655-3.707-11.521,7.962s11.862,9.119,11.862,8.778S-5088.591,1347.165-5088.591,1347.165Z" transform="translate(5172.018 -1292.827)" fill="#ffbe9d"/>
      <path id="Trazado_144914" data-name="Trazado 144914" d="M-5092.847,1358.361a4.034,4.034,0,0,1-.549.311,2.049,2.049,0,0,1-1.483,0c-1.245-.445-2.3-2.387-2.387-4.448a6.849,6.849,0,0,1,.533-2.966,2.342,2.342,0,0,1,1.483-1.572,1.008,1.008,0,0,1,1.2.534c.162.326.089.563.162.578s.238-.193.148-.682a1.366,1.366,0,0,0-.474-.727,1.573,1.573,0,0,0-1.127-.282,2.962,2.962,0,0,0-2.105,1.839,6.953,6.953,0,0,0-.667,3.262c.1,2.343,1.334,4.523,2.965,5a2.135,2.135,0,0,0,1.854-.326C-5092.877,1358.583-5092.817,1358.361-5092.847,1358.361Z" transform="translate(5172.982 -1291.597)" fill="#eb996e"/>
      <path id="Trazado_144915" data-name="Trazado 144915" d="M-5040.841,1326.966c1.869-1.082-3.915-7.073-8.6-9.089-7.073-2.966-17.793-4.775-24.243-2.817-7.726,2.373-14.116,6.376-17.883,13.538a45.862,45.862,0,0,0-4.67,23.517,13.877,13.877,0,0,0,1.794,7.088c1.676,2.551,4.833,4.107,4.775,7.666a4.822,4.822,0,0,0,1.275,3.529c2.179,2.239,4.744,0,5.931-2.12,2.477-4.611,2.654-10.068,2.773-15.3a34.637,34.637,0,0,0-.964-11.076c-.607-1.943-1.572-3.751-2.076-5.724a7.056,7.056,0,0,1,.712-5.827,6.7,6.7,0,0,1,.934-.979,12.147,12.147,0,0,1,12.01-2.55c6.613,2.194,17.9,5.442,20.759,3.144,4.152-3.292,5.116-5.4,5.116-5.4Z" transform="translate(5173.838 -1308.422)" fill="#e0e0e0"/>
      <path id="Trazado_144916" data-name="Trazado 144916" d="M-5075.4,1314.263a25.55,25.55,0,0,1,19.721.682,13.354,13.354,0,0,1,7.192,7.592c1.037,3.44-.341,7.71-3.648,9.134l-.222.148c-4.937,1.779-8.185,1.171-13.182-.445-4.2-1.364-7.962-3.855-12.173-5.19a23.725,23.725,0,0,0-13.878-.134A38.678,38.678,0,0,1-5075.4,1314.263Z" transform="translate(5176.132 -1309.212)" fill="#e0e0e0"/>
      <path id="Trazado_144917" data-name="Trazado 144917" d="M-5070.554,1357.735a.91.91,0,0,0-.489,0,.881.881,0,0,0-.43.563,5.752,5.752,0,0,0-.563,3.588,3.634,3.634,0,0,0,1.735,2.18,5.2,5.2,0,0,0,2.743.637,4.892,4.892,0,0,0,1.6-.311c.5-.208,1.675-.667,2.4-2.966l.5-1.6C-5065.068,1359.232-5068.538,1358.239-5070.554,1357.735Z" transform="translate(5185.535 -1287.442)" fill="#eb996e"/>
      <path id="Trazado_144918" data-name="Trazado 144918" d="M-5064.716,1363.9a3.5,3.5,0,0,1-2.876,1.142,4.662,4.662,0,0,1-3.233-1.231,5.094,5.094,0,0,1-1.616-3.929,2.461,2.461,0,0,1,1.1-2.106,2.8,2.8,0,0,1,2.18,0c1.215.385,2.254.756,3.158,1.082a11.916,11.916,0,0,1,2.817,1.171,12.534,12.534,0,0,1-2.965-.652l-3.173-.92a2.236,2.236,0,0,0-1.617,0,1.774,1.774,0,0,0-.7,1.483,4.441,4.441,0,0,0,1.334,3.366,4.246,4.246,0,0,0,2.758,1.2A7.424,7.424,0,0,0-5064.716,1363.9Z" transform="translate(5185.375 -1287.513)" fill="#263238"/>
      <path id="Trazado_144919" data-name="Trazado 144919" d="M-5107.216,1389.224s-13.093,6.242-19.795,28.306c-6.51,21.426-22.879,57.176-21.516,65.895s-2.446,18.238,13.079,20.418,23.413,2.4,27.491-2.61a50.949,50.949,0,0,0,6.539-10.735Z" transform="translate(5148.607 -1272.224)" fill="#2f4d6b"/>
      <path id="Trazado_144920" data-name="Trazado 144920" d="M-5025.287,1531.738l-2.545-17.242-8.6-72.315,2.476-47-4.656-12.144-4.834-3.974-18,19.617-23.9-21.782-3.914,5.575-3.336,6.643,5.753,36.565-5.931,39.294-15.035,50.711,3.833,16.056Z" transform="translate(5168.301 -1278.176)" fill="#e0e0e0"/>
      <path id="Trazado_144921" data-name="Trazado 144921" d="M-5049.792,1530.115h32.875c-2.915-20.108-6.8-46.629-7.144-47.683-.564-1.705,8.556-77.46,7.414-79.18s-37.6-14.828-37.6-14.828l-6.628-8.17a44.384,44.384,0,0,1-.771,21.856c-3.427,12.574-1.705,52.4,0,76.333C-5060.632,1492.73-5054.541,1514.708-5049.792,1530.115Z" transform="translate(5189.635 -1276.554)" fill="#2f4d6b"/>
      <path id="Trazado_144922" data-name="Trazado 144922" d="M-4971.5,1489.841l-14.057-14.828-16.311-34.46s-14.175-39.739-25.4-44.721-14.235,59.815-14.235,59.815l39.634,55.248h6.154l18-3.41Z" transform="translate(5200.314 -1269.165)" fill="#2f4d6b"/>
      <path id="Trazado_144923" data-name="Trazado 144923" d="M-5121.57,1530.917h34.071c4.677-10.76,8.449-19.937,9.992-24.863,5.709-18.223,7.414-45.581,6.835-71.173s-12.529-56.286-12.529-56.286l-4.538,7.414-32.532,8.393.815,88.018-1.572,46.574S-5121.224,1529.689-5121.57,1530.917Z" transform="translate(5161.661 -1277.356)" fill="#2f4d6b"/>
      <path id="Trazado_144924" data-name="Trazado 144924" d="M-5084,1495.766a7.656,7.656,0,0,1-.193-1.231c-.089-.875-.223-2.046-.371-3.529-.312-3.144-.727-7.562-1.246-12.974s-.652-12.084-2.832-19.024-4.73-14.5-7.8-22.316c-2.432-6.213-4.908-12.159-7.281-17.645l-.118-.267.222-.178,6.687-5.056v.534l-5.575-5.353-.134-.134v-.178c1.869-7.414,3.411-13.686,4.523-18.1.534-2.105.978-3.781,1.29-5l.355-1.3a1.8,1.8,0,0,1,.163-.445,1.481,1.481,0,0,1,0,.46l-.282,1.334c-.267,1.231-.652,2.966-1.126,5.041l-4.256,18.164v-.3l5.6,5.308.283.282-.312.237-6.658,5.086.119-.43c2.417,5.486,4.893,11.432,7.325,17.66,3.069,7.829,5.783,15.376,7.77,22.4a52.886,52.886,0,0,1,1.958,10.187c.267,3.218.5,6.228.726,8.986.43,5.427.771,9.846,1.009,12.989.1,1.483.178,2.669.237,3.544A10.307,10.307,0,0,1-5084,1495.766Z" transform="translate(5170.218 -1274.956)" fill="#263238"/>
      <path id="Trazado_144925" data-name="Trazado 144925" d="M-5059.362,1501.3a6.032,6.032,0,0,1,0-1.245l.178-3.588c.163-3.114.46-7.607.845-13.167s.891-12.188,1.646-19.528c.326-3.677,1.142-7.518,1.839-11.447s1.482-8.022,2.224-12.2c1.6-8.719,3.129-17.007,4.448-24.466l.119.326-7.814-6.761-.208-.178.148-.237,5.932-8.645v.252l-4.687-10.735c-.5-1.216-.918-2.165-1.215-2.892a8.6,8.6,0,0,1-.386-1.023,5.053,5.053,0,0,1,.519.964c.326.712.786,1.646,1.35,2.832,1.172,2.565,2.832,6.154,4.893,10.632v.133l-.089.119c-1.705,2.595-3.647,5.5-5.768,8.719v-.415l7.858,6.7.148.133v.208c-1.363,7.414-2.861,15.747-4.448,24.481l-2.254,12.2c-.712,3.974-1.482,7.71-1.854,11.373-.8,7.325-1.334,13.938-1.809,19.484s-.83,9.979-1.1,13.167c-.133,1.483-.252,2.684-.326,3.574A5.883,5.883,0,0,1-5059.362,1501.3Z" transform="translate(5191.677 -1273.894)" fill="#263238"/>
      <path id="Trazado_144926" data-name="Trazado 144926" d="M-4996.526,1455.884c2.343-.578,14.175-1.794,16.978-.682s4.982,3.514,4.626,6.376a11.307,11.307,0,0,1,1.942,5.931,5.945,5.945,0,0,1-1.364,3.944s-.237,5.812-2.847,7.414c0,0-2.669,5.59-6.125,5.753s-20.492-1.557-20.492-1.557-5.2.578-7.236-2.758-4.537-3.9-3.559-7.933,2.328-8.645,5.783-10.023l3.47-1.364s-1.616-4.448,1.675-5.486l6.006.43Z" transform="translate(5213.197 -1240.59)" fill="#ffbe9d"/>
      <path id="Trazado_144927" data-name="Trazado 144927" d="M-5005.29,1478.206a18.665,18.665,0,0,1-4.019-16.652A28.758,28.758,0,0,0-5005.29,1478.206Z" transform="translate(5215.599 -1237.305)" fill="#eb996e"/>
      <path id="Trazado_144928" data-name="Trazado 144928" d="M-5026.42,1481.482l-1.483-36.906c-.074-1.631-2.965-8.9-4.789-13.449a.725.725,0,0,1,.371-.958l.015-.006a.741.741,0,0,1,.973.388l.006.012c.49,1.171,4.8,11.536,4.908,13.953l1.483,36.906Z" transform="translate(5204.537 -1252.488)" fill="#263238"/>
      <path id="Trazado_144929" data-name="Trazado 144929" d="M-5011.022,1465.225c0,.771-3.8,1.557-8.541,1.735s-8.63-.282-8.659-1.053,3.8-1.557,8.541-1.75S-5011.053,1464.454-5011.022,1465.225Z" transform="translate(5206.726 -1236.068)" fill="#e0e0e0"/>
      <path id="Trazado_144930" data-name="Trazado 144930" d="M-4998,1464.714c0,.771-3.8,1.557-8.541,1.75s-8.615-.3-8.645-1.068,3.8-1.483,8.541-1.75S-4998.026,1463.928-4998,1464.714Z" transform="translate(5213.021 -1236.328)" fill="#e0e0e0"/>
      <path id="Trazado_144931" data-name="Trazado 144931" d="M-4999.814,1481.4a.755.755,0,0,1-.742-.7c0-.356-2.239-35.587-2.965-39.6-.638-3.529-8.512-9.831-9.416-10.379a.7.7,0,0,1-.4-.9l.015-.033a.77.77,0,0,1,.994-.415c.652.252,9.46,7.058,10.275,11.447.742,4.063,2.966,38.315,2.966,39.783a.741.741,0,0,1-.7.786h0Z" transform="translate(5213.89 -1252.868)" fill="#263238"/>
      <path id="Trazado_144932" data-name="Trazado 144932" d="M-5015.58,1466.481h-.252a2.355,2.355,0,0,1-1.482-.89.741.741,0,0,1,.08-1.045.741.741,0,0,1,1.045.082.8.8,0,0,1,.076.1.831.831,0,0,0,.5.282,1.485,1.485,0,0,0,1.1-.519.724.724,0,0,1,1.025.061l.013.013a.712.712,0,0,1,.031,1.007l-.031.031A2.967,2.967,0,0,1-5015.58,1466.481Z" transform="translate(5211.906 -1235.974)" fill="#263238"/>
      <path id="Trazado_144933" data-name="Trazado 144933" d="M-5002.636,1455.6a3.471,3.471,0,0,0-2.373,4.3,3.473,3.473,0,0,0,1.779,2.14,7.106,7.106,0,0,0,3.263.46l16.963-.385" transform="translate(5217.867 -1240.177)" fill="#ffbe9d"/>
      <path id="Trazado_144934" data-name="Trazado 144934" d="M-4982.908,1462.134a23.424,23.424,0,0,1-4.183.371c-2.595.118-6.168.252-10.112.341h-2.876a7.681,7.681,0,0,1-2.788-.326,3.839,3.839,0,0,1-2.461-3.915,3.593,3.593,0,0,1,1.69-2.654c.652-.4,1.1-.415,1.1-.371s-.371.178-.919.608a3.437,3.437,0,0,0-1.319,2.461,3.274,3.274,0,0,0,2.149,3.2,7.3,7.3,0,0,0,2.535.237h2.878c3.943-.074,7.517-.118,10.111-.1A23.623,23.623,0,0,1-4982.908,1462.134Z" transform="translate(5217.772 -1240.197)" fill="#eb996e"/>
      <path id="Trazado_144935" data-name="Trazado 144935" d="M-4997.378,1460.658c-4.211-.519-8.229,1.023-9.312,2.194a2.964,2.964,0,0,0-.062,4.193l.063.062a4.268,4.268,0,0,0,2.625.578l22.137.089" transform="translate(5216.687 -1237.787)" fill="#ffbe9d"/>
      <path id="Trazado_144936" data-name="Trazado 144936" d="M-4981.856,1467.863a5.667,5.667,0,0,1-1.482.148c-.994,0-2.447.074-4.226.1-3.574,0-8.5.074-13.953,0a33.662,33.662,0,0,1-4.034-.148,2.685,2.685,0,0,1-1.794-1.142,3.032,3.032,0,0,1-.43-1.972,3.735,3.735,0,0,1,1.972-2.966,11.06,11.06,0,0,1,2.788-1.068,14.1,14.1,0,0,1,4.241-.43,4.477,4.477,0,0,1,1.482.252,21.974,21.974,0,0,0-5.664.7c-1.557.519-4.019,1.231-4.182,3.544a1.972,1.972,0,0,0,1.595,2.288l.066.01a30.037,30.037,0,0,0,3.9.1c5.441,0,10.38.089,13.938.178l4.227.133A5.983,5.983,0,0,1-4981.856,1467.863Z" transform="translate(5216.586 -1237.875)" fill="#eb996e"/>
      <path id="Trazado_144937" data-name="Trazado 144937" d="M-5003.609,1465.781c-.683-.237-3.382-.134-3.544.563a2.131,2.131,0,0,0,.7,1.942,5.777,5.777,0,0,0,1.868,1.053c6.643,2.595,13.908,3.069,21.026,3.5" transform="translate(5216.884 -1235.319)" fill="#ffbe9d"/>
      <path id="Trazado_144938" data-name="Trazado 144938" d="M-4983.522,1472.875a21.412,21.412,0,0,1-4.314,0,67.834,67.834,0,0,1-10.38-1.231,39.727,39.727,0,0,1-5.546-1.6,10.844,10.844,0,0,1-2.343-1.068,2.816,2.816,0,0,1-1.29-1.987,1.759,1.759,0,0,1,0-.563.715.715,0,0,1,.134-.326,1.4,1.4,0,0,1,.252-.193,2.791,2.791,0,0,1,.89-.282,7.7,7.7,0,0,1,1.379,0c.771,0,1.171.208,1.156.267a5.729,5.729,0,0,1-1.142,0,8.59,8.59,0,0,0-1.319.193,2.42,2.42,0,0,0-.712.267c-.1.089-.1,0-.134.193a1.968,1.968,0,0,0,0,.415,2.282,2.282,0,0,0,1.112,1.483,11.967,11.967,0,0,0,2.225.934,44.1,44.1,0,0,0,5.471,1.483,98.94,98.94,0,0,0,10.261,1.483A27.579,27.579,0,0,1-4983.522,1472.875Z" transform="translate(5216.77 -1235.354)" fill="#eb996e"/>
      <path id="Trazado_144939" data-name="Trazado 144939" d="M-5004.728,1468.536c-1.661-.326-1.6.549-.756,1.646a8.516,8.516,0,0,0,1.689,1.735,84.625,84.625,0,0,0,7.755,5.219" transform="translate(5217.423 -1233.967)" fill="#ffbe9d"/>
      <path id="Trazado_144940" data-name="Trazado 144940" d="M-4995.942,1477.223a24.694,24.694,0,0,1-6.39-3.737,20.254,20.254,0,0,1-2.284-1.809,7.22,7.22,0,0,1-1.482-1.987.992.992,0,0,1,0-1.1.949.949,0,0,1,.8-.193c.4,0,.578.178.563.222s-.223,0-.563.074-.416,0-.475.193,0,.311.1.578a8.271,8.271,0,0,0,1.483,1.69c.607.563,1.482,1.1,2.254,1.705A64.325,64.325,0,0,1-4995.942,1477.223Z" transform="translate(5217.327 -1234.009)" fill="#eb996e"/>
      <path id="Trazado_144941" data-name="Trazado 144941" d="M-5008.2,1455.944a5.811,5.811,0,0,0,3.566,7.406l.022.007" transform="translate(5216.236 -1240.013)" fill="#ffbe9d"/>
      <path id="Trazado_144942" data-name="Trazado 144942" d="M-5004.478,1463.432c0,.1-.623.163-1.395-.311a6.123,6.123,0,0,1-2.328-2.506,5.289,5.289,0,0,1-.5-3.4c.208-.875.563-1.3.638-1.275a4.452,4.452,0,0,1-.089,1.349,5.824,5.824,0,0,0,.652,2.966,7.608,7.608,0,0,0,1.943,2.417C-5004.952,1463.2-5004.478,1463.314-5004.478,1463.432Z" transform="translate(5216.106 -1240.013)" fill="#eb996e"/>
      <path id="Trazado_144943" data-name="Trazado 144943" d="M-5123.908,1404.614a5.306,5.306,0,0,1,.178.89c.089.667.208,1.483.355,2.536.3,2.313.7,5.486,1.2,9.371.979,7.918,2.343,18.846,3.307,30.99a269.256,269.256,0,0,1,.727,31.138c-.178,3.989-.386,7.206-.623,9.43-.1,1.038-.193,1.883-.268,2.551a4.716,4.716,0,0,1-.133.89,3.714,3.714,0,0,1,0-.89,21.684,21.684,0,0,1,.119-2.565c.133-2.224.266-5.457.371-9.43a310.956,310.956,0,0,0-.949-31.138c-.963-12.114-2.239-23.057-3.084-30.99-.385-3.885-.711-7.073-.949-9.386-.089-1.053-.163-1.9-.223-2.565A3.26,3.26,0,0,1-5123.908,1404.614Z" transform="translate(5160.524 -1264.794)" fill="#263238"/>
      <g id="Grupo_88564" data-name="Grupo 88564" transform="translate(33.332 181.02)" opacity="0.3">
        <path id="Trazado_144944" data-name="Trazado 144944" d="M-5120.8,1463.011a136.255,136.255,0,0,0,14.472-13.894,6.092,6.092,0,0,0,1.854-3.232c.148-1.483-.86-2.966-1.053-4.448a14.309,14.309,0,0,1,.593-4.374,4.093,4.093,0,0,0-1.082-4.048,4.3,4.3,0,0,0-2.966-.549,18.8,18.8,0,0,0-17.074,20.384,18.784,18.784,0,0,0,4.189,10.265" transform="translate(5126.128 -1432.4)"/>
      </g>
      <path id="Trazado_144945" data-name="Trazado 144945" d="M-5132.36,1464.645c0-.445-.846-13.671-.846-13.671s-1.854-3.84-1.142-6.539c0,0-1.854-4.448-.86-6.554s5.561-5.442,7.7-5.5a60.017,60.017,0,0,0,7.547-1.334s4.241-5.561,8.659-3.855,3.336,3.44,3.336,3.44a3.172,3.172,0,0,1,2.18,2.966,7.555,7.555,0,0,1-1.482,5.2s4.685-.563,5.738,1.379c1.705,3.129-.949,6.391-.949,6.391s1.854-.163.712,2.4-2.135,2.966-2.135,2.966,2.417.712,1.483,3.84-11.255,11.106-11.255,11.106-1.215,5.13-4.018,5.694S-5131.989,1471.688-5132.36,1464.645Z" transform="translate(5154.935 -1254.052)" fill="#ffbe9d"/>
      <path id="Trazado_144946" data-name="Trazado 144946" d="M-5110.65,1430.762a9.318,9.318,0,0,0-2.076-.934,7.842,7.842,0,0,0-2.476-.074l-3.129.222c-4.448.356-8.007.89-8.051.7a26.552,26.552,0,0,1,7.992-1.483c1.112-.1,2.18-.163,3.159-.178a7.415,7.415,0,0,1,2.639.252C-5111.066,1429.784-5110.562,1430.747-5110.65,1430.762Z" transform="translate(5159.336 -1253.027)" fill="#eb996e"/>
      <path id="Trazado_144947" data-name="Trazado 144947" d="M-5107.688,1434.746a16.06,16.06,0,0,1-3.277.756l-7.918,1.483-7.9,1.676a16.162,16.162,0,0,1-3.307.578,13.969,13.969,0,0,1,3.173-1.112c2-.578,4.775-1.275,7.874-1.9s5.931-1.067,7.993-1.32A13.97,13.97,0,0,1-5107.688,1434.746Z" transform="translate(5157.546 -1250.265)" fill="#eb996e"/>
      <path id="Trazado_144948" data-name="Trazado 144948" d="M-5106.348,1440.007c0,.252-4.878.385-10.706,1.779s-10.261,3.455-10.379,3.232a10.807,10.807,0,0,1,2.832-1.483,43.288,43.288,0,0,1,7.414-2.447,44.724,44.724,0,0,1,7.681-1.127A11.626,11.626,0,0,1-5106.348,1440.007Z" transform="translate(5158.83 -1247.77)" fill="#eb996e"/>
      <path id="Trazado_144949" data-name="Trazado 144949" d="M-5108.351,1443.824a16.777,16.777,0,0,1-2.669,1.023c-1.646.593-3.885,1.483-6.316,2.625-4.879,2.239-8.778,4.226-8.9,4.018a9.76,9.76,0,0,1,2.4-1.572c1.482-.875,3.691-2.017,6.153-3.143a47.374,47.374,0,0,1,6.479-2.447A8.078,8.078,0,0,1-5108.351,1443.824Z" transform="translate(5159.409 -1245.864)" fill="#eb996e"/>
      <path id="Trazado_144950" data-name="Trazado 144950" d="M-5123.7,1458.857a8.077,8.077,0,0,1-2.595-.993,9.866,9.866,0,0,1-2.506-1.765,7.111,7.111,0,0,1-1.823-3.336,14.285,14.285,0,0,0-1.112-3.366c-.52-.934-1.187-1.735-1.572-2.55a3.894,3.894,0,0,1-.43-2.046c0-.5.237-.741.281-.727a4.441,4.441,0,0,0,.638,2.521c.4.712,1.083,1.483,1.705,2.447a14.109,14.109,0,0,1,1.246,3.514,7.616,7.616,0,0,0,3.841,4.834A14.141,14.141,0,0,1-5123.7,1458.857Z" transform="translate(5155.781 -1245.744)" fill="#eb996e"/>
      <path id="Trazado_144951" data-name="Trazado 144951" d="M-5143.772,1446.433a5.238,5.238,0,0,1,.9-2.135,9.885,9.885,0,0,1,1.482-2.061,5.92,5.92,0,0,1,2.788-1.572,15.153,15.153,0,0,1,5.605.326,13.367,13.367,0,0,1,2.253.371,4.449,4.449,0,0,1-2.313.178,19.086,19.086,0,0,0-5.368-.119,7.088,7.088,0,0,0-4.019,3.158A12.373,12.373,0,0,1-5143.772,1446.433Z" transform="translate(5150.941 -1247.449)" fill="#263238"/>
      <path id="Trazado_144952" data-name="Trazado 144952" d="M-5115.99,1460.725a2.881,2.881,0,0,1-.668,1.083,9.049,9.049,0,0,1-2.653,2.224,9.444,9.444,0,0,1-5,1.216,9.9,9.9,0,0,1-5.931-2.269,10.161,10.161,0,0,1-3.322-5.367,17.774,17.774,0,0,1-.474-5.086,31.3,31.3,0,0,1,.326-3.41,3.706,3.706,0,0,1,.267-1.231,42.5,42.5,0,0,1,0,4.641,18.95,18.95,0,0,0,.623,4.893,9.6,9.6,0,0,0,3.114,4.953,9.193,9.193,0,0,0,10.127,1.171A14.091,14.091,0,0,0-5115.99,1460.725Z" transform="translate(5155.631 -1243.904)" fill="#263238"/>
      <path id="Trazado_144953" data-name="Trazado 144953" d="M-5146.63,1455.053a6.522,6.522,0,0,1,0-3.6,6.4,6.4,0,0,1,1.275-3.366,12.276,12.276,0,0,1-.519,3.514A12.009,12.009,0,0,1-5146.63,1455.053Z" transform="translate(5149.439 -1243.807)" fill="#263238"/>
      <path id="Trazado_144954" data-name="Trazado 144954" d="M-5081.863,1401.1l3.1,8.585h6.88l3.648-8.185-6.272-9.608Z" transform="translate(5180.83 -1270.935)" fill="#455a64"/>
      <path id="Trazado_144955" data-name="Trazado 144955" d="M-5046.577,1387.614a5.985,5.985,0,0,1-.815,1.631c-.623.994-1.6,2.417-2.877,4.167-2.58,3.5-6.331,8.333-10.824,13.894l-.312.386-.281-.415-7.162-10.928-1.482-2.179h.622c-4.167,5.2-8.051,10.023-11.357,14.146l-.268.326-.252-.341-7.132-9.89-1.957-2.788a8.882,8.882,0,0,1-.638-1.023,5.581,5.581,0,0,1,.8.9l2.091,2.684,7.414,9.727h-.5c3.277-4.152,7.132-9,11.27-14.22l.326-.415.3.445,1.483,2.18,7.117,10.943h-.578c4.537-5.516,8.363-10.29,11.031-13.7,1.32-1.705,2.344-3.084,2.966-4.033A13.11,13.11,0,0,1-5046.577,1387.614Z" transform="translate(5176.268 -1273.001)" fill="#263238"/>
      <path id="Trazado_144956" data-name="Trazado 144956" d="M-5058.979,1518.7l-11.412-114.809h-6.88l-7.684,114.809Z" transform="translate(5179.337 -1265.141)" fill="#455a64"/>
      <g id="Grupo_88565" data-name="Grupo 88565" transform="translate(62.669 112.73)" opacity="0.3">
        <path id="Trazado_144957" data-name="Trazado 144957" d="M-5096.082,1386.344l-7.933,22.4,3.974,3.618-6.3,6.406s16.311,43.431,18.431,51.215,3.87,10.513,3.87,10.513-.964-11.21-1.483-16.311-16.666-46.678-16.666-46.678l6.673-5.071-5.531-5.338Z" transform="translate(5106.343 -1386.344)"/>
      </g>
      <g id="Grupo_88566" data-name="Grupo 88566" transform="translate(132.314 117)" opacity="0.3">
        <path id="Trazado_144958" data-name="Trazado 144958" d="M-5054.005,1389.224l6.228,10.9-4.4,7.236,8.007,7.132-15.2,81.4,2.713-33.051,8.882-48.8-8.125-6.687,5.916-8.971Z" transform="translate(5059.373 -1389.224)"/>
      </g>
      <path id="Trazado_144959" data-name="Trazado 144959" d="M-5030.1,1406.344a18.384,18.384,0,0,1-.163,2.506c-.178,1.735-.4,4.033-.666,6.806-.579,5.931-1.35,13.775-2.21,22.479s-1.705,16.726-2.432,22.464c-.355,2.877-.667,5.19-.919,6.791a17.16,17.16,0,0,1-.445,2.476,14.247,14.247,0,0,1,.148-2.506c.178-1.735.4-4.033.682-6.821.563-5.931,1.35-13.76,2.194-22.479s1.705-16.726,2.433-22.464c.355-2.862.666-5.19.919-6.791A13.353,13.353,0,0,1-5030.1,1406.344Z" transform="translate(5202.519 -1263.958)" fill="#263238"/>
      <path id="Trazado_144960" data-name="Trazado 144960" d="M-5045.5,1475.762c2.2,2.9,4.945,6.735,8,11.044h.923c-3.2-4.475-6.149-8.446-8.473-11.37-1.394-1.735-2.521-3.129-3.336-4.063a10.067,10.067,0,0,0-1.319-1.408,8.63,8.63,0,0,0,1.083,1.6Z" transform="translate(5196.352 -1233.244)" fill="#263238"/>
    </g>
    <g id="freepik--Table--inject-2" transform="translate(-5207.253 1581.313)">
      <rect id="Rectángulo_34997" data-name="Rectángulo 34997" width="610" height="11.815" fill="#263238"/>
      <path id="Trazado_144961" data-name="Trazado 144961" d="M-5165.81,1482.915l-.006-4.891h-11.817l.006,4.891Z" transform="translate(5221.553 -1471.099)" fill="#263238"/>
      <rect id="Rectángulo_34998" data-name="Rectángulo 34998" width="11.803" height="4.891" transform="translate(537.062 6.924)" fill="#263238"/>
    </g>
  </g>
</svg>
