<svg xmlns="http://www.w3.org/2000/svg" width="101" height="101" viewBox="0 0 101 101">
  <g id="img30" transform="translate(-739 -2193.343)">
    <circle id="Elipse_4808" data-name="Elipse 4808" cx="50.5" cy="50.5" r="50.5" transform="translate(739 2193.343)" fill="#0f0140"/>
    <g id="Grupo_106837" data-name="Grupo 106837" transform="translate(4749.631 5066.071)">
      <path id="Trazado_147689" data-name="Trazado 147689" d="M-3985.169-2843.948a36.462,36.462,0,0,1,10.717-9.192l.675,1.171a32.418,32.418,0,0,0-8.163,8.837q-4.295,7.488-4.294,19.945a59.268,59.268,0,0,0,1.632,15.225q2.875,10.506,10.825,15.722l-.923,1.171q-4.365-2.094-9.44-8.2a34.977,34.977,0,0,1-8.411-23A33.946,33.946,0,0,1-3985.169-2843.948Z" fill="#dad6f7"/>
      <path id="Trazado_147690" data-name="Trazado 147690" d="M-3951.206-2849.307a7.457,7.457,0,0,1-1.668,1.384l-11.179,7.062H-3967l10.683-10.753a10.983,10.983,0,0,1,1.42-1.171,3.074,3.074,0,0,1,1.81-.6,2.531,2.531,0,0,1,1.685.657,2.16,2.16,0,0,1,.763,1.721A2.555,2.555,0,0,1-3951.206-2849.307Z" fill="#dad6f7"/>
      <path id="Trazado_147691" data-name="Trazado 147691" d="M-3928.173-2811.9a34.757,34.757,0,0,1-4.046,8.908,35.023,35.023,0,0,1-7.488,8.34,28.37,28.37,0,0,1-5.182,3.584l-.674-1.171a30.033,30.033,0,0,0,7.985-8.482q4.471-7.665,4.472-20.264,0-10.187-2.059-16.645a26.655,26.655,0,0,0-10.4-14.338l.923-1.171a34.48,34.48,0,0,1,10.433,9.44,35.041,35.041,0,0,1,7.418,21.791A35.383,35.383,0,0,1-3928.173-2811.9Z" fill="#dad6f7"/>
    </g>
  </g>
</svg>
