<svg xmlns="http://www.w3.org/2000/svg" width="457.66" height="397.499" viewBox="0 0 457.66 397.499">
  <g id="img33" transform="translate(-21.17 -67.53)">
    <g id="freepik--Desk--inject-2">
      <path id="Trazado_148367" data-name="Trazado 148367" d="M478.83,464.74c0,.14-102.46.26-228.82.26s-228.84-.12-228.84-.26,102.44-.26,228.84-.26S478.83,464.59,478.83,464.74Z" fill="#263238"/>
    </g>
    <g id="freepik--Drink--inject-2">
      <path id="Trazado_148368" data-name="Trazado 148368" d="M51.33,415.11l7.17,49.91H84.57l6.56-49.91Z" fill="#455a64"/>
      <path id="Trazado_148369" data-name="Trazado 148369" d="M48.46,415.11c.13-3.35.9-6.35,3.46-8.32H91.13c2.15,1.63,2.8,4.78,3.09,8.32Z" fill="#455a64"/>
      <path id="Trazado_148370" data-name="Trazado 148370" d="M54.44,406.79l3.31-4.87H84.92l2.89,4.87Z" fill="#455a64"/>
      <path id="Trazado_148371" data-name="Trazado 148371" d="M91,406.62c0,.14-8.42.26-18.81.26s-18.81-.12-18.81-.26,8.42-.26,18.81-.26S91,406.48,91,406.62Z" fill="#263238"/>
      <path id="Trazado_148372" data-name="Trazado 148372" d="M94.22,415.11c0,.14-10.15.26-22.67.26s-22.68-.12-22.68-.26,10.15-.26,22.68-.26S94.22,415,94.22,415.11Z" fill="#263238"/>
      <path id="Trazado_148373" data-name="Trazado 148373" d="M52.95,426.38h36.7L87.5,442.73H55.3Z" fill="#263238"/>
      <path id="Trazado_148374" data-name="Trazado 148374" d="M69.92,348.6a1.62,1.62,0,0,1,.54.17,3.19,3.19,0,0,1,1.19,1.09,4.65,4.65,0,0,1,.71,2.45,6.41,6.41,0,0,1-1,3.23,32.851,32.851,0,0,1-2.35,3.3,9,9,0,0,0-1.89,4.05,6.9,6.9,0,0,0,1.41,4.63c1,1.45,2.23,2.79,3.37,4.31a13.49,13.49,0,0,1,1.48,2.43A7.16,7.16,0,0,1,74,377a8.14,8.14,0,0,1-1.88,4.84c-1,1.32-2.14,2.39-3.11,3.46a12.85,12.85,0,0,0-2.28,3.23,5.61,5.61,0,0,0-.5,3.16,4.72,4.72,0,0,0,.87,2.26,4.1,4.1,0,0,0,1.65,1.26h-.14a1.371,1.371,0,0,1-.4-.13,3.259,3.259,0,0,1-1.27-1,5,5,0,0,1-1-2.35,5.75,5.75,0,0,1,.46-3.34A12.629,12.629,0,0,1,68.72,385a36.349,36.349,0,0,0,3-3.46,7.66,7.66,0,0,0,1.8-4.54,6.63,6.63,0,0,0-.59-2.52,12.919,12.919,0,0,0-1.43-2.33c-1.11-1.49-2.37-2.84-3.38-4.34a7.34,7.34,0,0,1-1.45-5,9.17,9.17,0,0,1,2-4.24,37.946,37.946,0,0,0,2.37-3.23,6.22,6.22,0,0,0,1-3.05,4.42,4.42,0,0,0-.6-2.34,3.53,3.53,0,0,0-1.52-1.35Z" fill="#263238"/>
      <path id="Trazado_148375" data-name="Trazado 148375" d="M76.5,348.6a1.62,1.62,0,0,1,.54.17,3.19,3.19,0,0,1,1.19,1.09,4.65,4.65,0,0,1,.71,2.45,6.51,6.51,0,0,1-1,3.23,32.852,32.852,0,0,1-2.35,3.3,9,9,0,0,0-1.89,4.05,7,7,0,0,0,1.4,4.63c1,1.45,2.24,2.79,3.38,4.31A13.49,13.49,0,0,1,80,374.26a7.16,7.16,0,0,1,.63,2.72,8.14,8.14,0,0,1-1.88,4.84c-1,1.32-2.14,2.39-3.11,3.46a12.85,12.85,0,0,0-2.28,3.23,5.61,5.61,0,0,0-.5,3.16,4.72,4.72,0,0,0,.87,2.26,4.1,4.1,0,0,0,1.65,1.26h-.14a1.371,1.371,0,0,1-.4-.13,3.26,3.26,0,0,1-1.27-1,5,5,0,0,1-1-2.35,5.75,5.75,0,0,1,.46-3.34A12.63,12.63,0,0,1,75.3,385a36.348,36.348,0,0,0,3-3.46A7.66,7.66,0,0,0,80.1,377a6.82,6.82,0,0,0-.59-2.52,13.51,13.51,0,0,0-1.43-2.33c-1.11-1.49-2.37-2.84-3.38-4.34a7.34,7.34,0,0,1-1.45-5,9.26,9.26,0,0,1,2-4.24,36.125,36.125,0,0,0,2.38-3.23,6.22,6.22,0,0,0,1-3.05,4.42,4.42,0,0,0-.6-2.34,3.53,3.53,0,0,0-1.53-1.35Z" fill="#263238"/>
    </g>
    <g id="freepik--Articles--inject-2">
      <rect id="Rectángulo_35129" data-name="Rectángulo 35129" width="191.66" height="252.54" transform="translate(73.93 83.92)" fill="#fff"/>
      <path id="Trazado_148376" data-name="Trazado 148376" d="M265.59,336.46c0-2.07-.09-102.86-.23-252.54l.23.24L74,84.19h0l.26-.27V336.46l-.21-.21,191.66.21-191.66.22h-.22V83.66H265.88v.23C265.69,233.6,265.6,334.4,265.59,336.46Z" fill="#263238"/>
      <path id="Trazado_148377" data-name="Trazado 148377" d="M265.59,102.37c0,.09-42.91.16-95.82.16s-95.84-.07-95.84-.16,42.9-.15,95.84-.15S265.59,102.29,265.59,102.37Z" fill="#263238"/>
      <path id="Trazado_148378" data-name="Trazado 148378" d="M206.86,93.74c0,.09-14.64.16-32.69.16s-32.7-.07-32.7-.16,14.64-.15,32.7-.15S206.86,93.66,206.86,93.74Z" fill="#455a64"/>
      <path id="Trazado_148379" data-name="Trazado 148379" d="M83.51,93.74a2.12,2.12,0,1,1-2.12-2.12A2.12,2.12,0,0,1,83.51,93.74Z" fill="#e0e0e0"/>
      <path id="Trazado_148380" data-name="Trazado 148380" d="M90.69,93.74a2.11,2.11,0,1,1-.614-1.5,2.12,2.12,0,0,1,.614,1.5Z" fill="#e0e0e0"/>
      <path id="Trazado_148381" data-name="Trazado 148381" d="M97.88,93.74a2.12,2.12,0,1,1-2.12-2.12A2.12,2.12,0,0,1,97.88,93.74Z" fill="#e0e0e0"/>
      <path id="Trazado_148382" data-name="Trazado 148382" d="M146.84,128.18h-4.39l-.84,2h-2.24l4.22-9.46h2.16L150,130.2h-2.3Zm-.69-1.67-1.5-3.62-1.5,3.62Z" fill="#455a64"/>
      <path id="Trazado_148383" data-name="Trazado 148383" d="M157,130.2l-1.82-2.63h-2v2.63H151v-9.46h4.1c2.52,0,4.11,1.31,4.11,3.44a3.07,3.07,0,0,1-1.95,3l2.12,3Zm-2.05-7.67h-1.79v3.29h1.79c1.33,0,2-.62,2-1.64s-.68-1.65-2.01-1.65Z" fill="#455a64"/>
      <path id="Trazado_148384" data-name="Trazado 148384" d="M162.72,122.53h-3v-1.79h8.24v1.79h-3v7.67h-2.19Z" fill="#455a64"/>
      <path id="Trazado_148385" data-name="Trazado 148385" d="M169.11,120.74h2.19v9.46h-2.19Z" fill="#455a64"/>
      <path id="Trazado_148386" data-name="Trazado 148386" d="M173,125.47a5.2,5.2,0,0,1,9-3.21l-1.4,1.29a3.05,3.05,0,0,0-2.38-1.1,3,3,0,1,0,2.38,4.88l1.4,1.3a5.2,5.2,0,0,1-9-3.21Z" fill="#455a64"/>
      <path id="Trazado_148387" data-name="Trazado 148387" d="M183.44,120.74h2.19v7.68h4.75v1.78h-6.94Z" fill="#455a64"/>
      <path id="Trazado_148388" data-name="Trazado 148388" d="M198.93,128.45v1.75H191.6v-9.46h7.15v1.76h-5v2h4.39v1.71h-4.39v2.19Z" fill="#455a64"/>
      <path id="Trazado_148389" data-name="Trazado 148389" d="M134.69,126.32c0,.08-10.14.15-22.65.15s-22.66-.07-22.66-.15,10.14-.16,22.66-.16S134.69,126.23,134.69,126.32Z" fill="#263238"/>
      <path id="Trazado_148390" data-name="Trazado 148390" d="M255.19,126.32c0,.08-10.65.15-23.79.15s-23.79-.07-23.79-.15,10.65-.16,23.79-.16S255.19,126.23,255.19,126.32Z" fill="#263238"/>
      <rect id="Rectángulo_35130" data-name="Rectángulo 35130" width="45.96" height="44.47" transform="translate(200.64 279.3)" fill="#455a64"/>
      <g id="Grupo_106998" data-name="Grupo 106998" opacity="0.3">
        <path id="Trazado_148391" data-name="Trazado 148391" d="M204.2,319.97l12.72-22.89,10.4,14.63,6.32-7.77,9.4,16.03Z"/>
      </g>
      <g id="Grupo_106999" data-name="Grupo 106999" opacity="0.3">
        <path id="Trazado_148392" data-name="Trazado 148392" d="M230.86,290.21c2.7,3.54-1.3,7.54-4.84,4.85C223.32,291.51,227.32,287.51,230.86,290.21Z"/>
      </g>
      <g id="Grupo_107000" data-name="Grupo 107000" opacity="0.3">
        <path id="Trazado_148393" data-name="Trazado 148393" d="M243,320.09a1.23,1.23,0,0,1,0-.18v-2.52c0-1.76,0-4.31-.05-7.55,0-6.5-.06-15.75-.1-26.85l.19.18H204.21a2.432,2.432,0,0,1,.21-.22h0v37.11l-.19-.19,28.08.1,7.92.05h.03l-7.87.05-28.21.09H204V283h0c-.19.19.27-.27.23-.22h39.02V283c0,11.15-.08,20.44-.1,27v10.01a.919.919,0,0,1-.15.08Z"/>
      </g>
      <path id="Trazado_148394" data-name="Trazado 148394" d="M133.9,143.16c0,.15-10.05.26-22.44.26S89,143.31,89,143.16s10-.26,22.45-.26S133.9,143,133.9,143.16Z" fill="#263238"/>
      <path id="Trazado_148395" data-name="Trazado 148395" d="M168.53,153.94c0,.14-17.81.26-39.76.26S89,154.08,89,153.94s17.8-.26,39.76-.26S168.53,153.79,168.53,153.94Z" fill="#263238"/>
      <path id="Trazado_148396" data-name="Trazado 148396" d="M195.71,153.15c0,.14-4.82.26-10.77.26s-10.77-.12-10.77-.26,4.82-.26,10.77-.26S195.71,153,195.71,153.15Z" fill="#263238"/>
      <path id="Trazado_148397" data-name="Trazado 148397" d="M248.42,152.69c0,.14-9.95.26-22.23.26s-22.23-.12-22.23-.26,9.95-.26,22.23-.26S248.42,152.55,248.42,152.69Z" fill="#263238"/>
      <path id="Trazado_148398" data-name="Trazado 148398" d="M248,161.86c0,.14-35.71.26-79.75.26s-79.76-.12-79.76-.26,35.7-.26,79.76-.26S248,161.71,248,161.86Z" fill="#263238"/>
      <path id="Trazado_148399" data-name="Trazado 148399" d="M162.71,171.48c0,.15-16.53.26-36.9.26s-36.9-.11-36.9-.26,16.52-.26,36.9-.26S162.71,171.34,162.71,171.48Z" fill="#263238"/>
      <path id="Trazado_148400" data-name="Trazado 148400" d="M189.75,171.48a95.9,95.9,0,0,1-10.08.26,96,96,0,0,1-10.09-.26,99.4,99.4,0,0,1,10.09-.26,99.272,99.272,0,0,1,10.08.26Z" fill="#263238"/>
      <path id="Trazado_148401" data-name="Trazado 148401" d="M248,170.57c0,.14-11.59.26-25.89.26s-25.9-.12-25.9-.26,11.59-.26,25.9-.26S248,170.42,248,170.57Z" fill="#263238"/>
      <path id="Trazado_148402" data-name="Trazado 148402" d="M167.52,254c0,.15-17.8.26-39.75.26S88,254.11,88,254s17.8-.26,39.76-.26S167.52,253.82,167.52,254Z" fill="#263238"/>
      <path id="Trazado_148403" data-name="Trazado 148403" d="M194.7,253.18c0,.14-4.82.26-10.77.26s-10.77-.12-10.77-.26,4.82-.26,10.77-.26S194.7,253,194.7,253.18Z" fill="#263238"/>
      <path id="Trazado_148404" data-name="Trazado 148404" d="M247.42,252.72c0,.14-10,.26-22.23.26s-22.23-.12-22.23-.26,9.95-.26,22.23-.26S247.42,252.57,247.42,252.72Z" fill="#263238"/>
      <path id="Trazado_148405" data-name="Trazado 148405" d="M247,261.89c0,.14-35.71.26-79.75.26s-79.76-.12-79.76-.26,35.7-.27,79.76-.27S247,261.74,247,261.89Z" fill="#263238"/>
      <path id="Trazado_148406" data-name="Trazado 148406" d="M161.7,271.51c0,.15-16.52.26-36.9.26s-36.9-.11-36.9-.26,16.52-.26,36.9-.26S161.7,271.37,161.7,271.51Z" fill="#263238"/>
      <path id="Trazado_148407" data-name="Trazado 148407" d="M188.75,271.51a95.994,95.994,0,0,1-10.09.26,95.739,95.739,0,0,1-10.08-.26,99.117,99.117,0,0,1,10.08-.26A99.4,99.4,0,0,1,188.75,271.51Z" fill="#263238"/>
      <path id="Trazado_148408" data-name="Trazado 148408" d="M247,270.59c0,.15-11.6.26-25.9.26s-25.9-.11-25.9-.26,11.6-.26,25.9-.26S247,270.45,247,270.59Z" fill="#263238"/>
      <path id="Trazado_148409" data-name="Trazado 148409" d="M189.75,282.07c0,.15-22.54.26-50.34.26s-50.34-.11-50.34-.26,22.53-.26,50.34-.26S189.75,281.93,189.75,282.07Z" fill="#263238"/>
      <path id="Trazado_148410" data-name="Trazado 148410" d="M188.75,292.63c0,.15-22.5.26-50.24.26s-50.23-.11-50.23-.26,22.48-.26,50.23-.26S188.75,292.49,188.75,292.63Z" fill="#263238"/>
      <rect id="Rectángulo_35131" data-name="Rectángulo 35131" width="97.62" height="62.33" transform="translate(88.34 181.67)" fill="#ff725e"/>
      <path id="Trazado_148411" data-name="Trazado 148411" d="M181.77,239v-3.81c0-2.47,0-6.08-.05-10.71,0-9.26-.06-22.58-.11-38.9l.21.2-88.47.06h0l.26-.26v53.39l-.24-.24,63.62.12,18.27.06h.11l-18.22.06-63.78.12h-.24V185.35h.26l88.47.06h.2v.2c-.05,16.38-.08,29.74-.11,39,0,4.61,0,8.2-.05,10.66v2.77A2.791,2.791,0,0,1,181.77,239Z" fill="#263238"/>
      <g id="Grupo_107001" data-name="Grupo 107001" opacity="0.2">
        <path id="Trazado_148412" data-name="Trazado 148412" d="M95.69,239.04l25.59-32.98,18.49,21.12,14.16-12.74,25.74,24.6Z"/>
      </g>
      <g id="Grupo_107002" data-name="Grupo 107002" opacity="0.2">
        <path id="Trazado_148413" data-name="Trazado 148413" d="M145.5,202.14a5.71,5.71,0,1,1-5.71-5.71,5.71,5.71,0,0,1,5.71,5.71Z"/>
      </g>
      <path id="Trazado_148414" data-name="Trazado 148414" d="M248,181.13c0,.14-12.25.26-27.36.26s-27.37-.12-27.37-.26,12.25-.26,27.37-.26S248,181,248,181.13Z" fill="#263238"/>
      <path id="Trazado_148415" data-name="Trazado 148415" d="M248,190.83c0,.14-12.25.26-27.36.26s-27.37-.12-27.37-.26,12.25-.26,27.37-.26S248,190.68,248,190.83Z" fill="#263238"/>
      <path id="Trazado_148416" data-name="Trazado 148416" d="M246,233.05c0,.14-12.25.26-27.36.26s-27.37-.12-27.37-.26,12.25-.26,27.37-.26S246,232.9,246,233.05Z" fill="#263238"/>
      <path id="Trazado_148417" data-name="Trazado 148417" d="M246,244c0,.14-12.25.26-27.36.26s-27.37-.12-27.37-.26,12.25-.26,27.37-.26S246,243.85,246,244Z" fill="#263238"/>
      <path id="Trazado_148418" data-name="Trazado 148418" d="M230.09,200.53c0,.14-8.25.26-18.43.26s-18.43-.12-18.43-.26,8.25-.26,18.43-.26S230.09,200.39,230.09,200.53Z" fill="#263238"/>
      <path id="Trazado_148419" data-name="Trazado 148419" d="M248.37,200.42a46.319,46.319,0,0,1-6.88.26,46.319,46.319,0,0,1-6.88-.26,44.742,44.742,0,0,1,6.88-.26A44.742,44.742,0,0,1,248.37,200.42Z" fill="#263238"/>
      <path id="Trazado_148420" data-name="Trazado 148420" d="M248.37,211.17c0,.14-8.21.26-18.35.26s-18.36-.12-18.36-.26,8.22-.26,18.36-.26S248.37,211,248.37,211.17Z" fill="#263238"/>
      <path id="Trazado_148421" data-name="Trazado 148421" d="M230.09,222c0,.15-8.25.26-18.43.26s-18.43-.11-18.43-.26,8.25-.26,18.43-.26S230.09,221.89,230.09,222Z" fill="#263238"/>
      <path id="Trazado_148422" data-name="Trazado 148422" d="M248.37,221.92a46.323,46.323,0,0,1-6.88.26,46.321,46.321,0,0,1-6.88-.26,46.321,46.321,0,0,1,6.88-.26A46.319,46.319,0,0,1,248.37,221.92Z" fill="#263238"/>
      <path id="Trazado_148423" data-name="Trazado 148423" d="M204.38,210.92a25.26,25.26,0,0,1-5.07.26,25.26,25.26,0,0,1-5.07-.26,25.26,25.26,0,0,1,5.07-.26,25.259,25.259,0,0,1,5.07.26Z" fill="#263238"/>
      <path id="Trazado_148424" data-name="Trazado 148424" d="M189.75,303c0,.15-22.72.27-50.73.27s-50.74-.12-50.74-.27,22.71-.26,50.74-.26S189.75,302.83,189.75,303Z" fill="#263238"/>
      <path id="Trazado_148425" data-name="Trazado 148425" d="M191.28,314.68c0,.14-22.72.26-50.74.26s-50.74-.12-50.74-.26,22.71-.26,50.74-.26S191.28,314.53,191.28,314.68Z" fill="#263238"/>
      <rect id="Rectángulo_35132" data-name="Rectángulo 35132" width="191.66" height="252.54" transform="translate(64.02 77.34)" fill="#fff"/>
      <path id="Trazado_148426" data-name="Trazado 148426" d="M255.69,329.88c0-2.07-.1-102.86-.24-252.54l.24.23H64.05l.26-.26V329.85l-.22-.22,191.67.22L64,330.09h-.21v-.21c0-71.46,0-158.59-.05-252.54v-.26H255.9v.24C255.78,227,255.69,327.81,255.69,329.88Z" fill="#263238"/>
      <path id="Trazado_148427" data-name="Trazado 148427" d="M255.69,95.79c0,.08-42.91.15-95.83.15S64,95.87,64,95.79s42.9-.15,95.84-.15S255.69,95.7,255.69,95.79Z" fill="#263238"/>
      <path id="Trazado_148428" data-name="Trazado 148428" d="M197,87.16c0,.08-14.63.15-32.69.15s-32.69-.07-32.69-.15S146.2,87,164.26,87,197,87.07,197,87.16Z" fill="#455a64"/>
      <circle id="Elipse_4886" data-name="Elipse 4886" cx="2.12" cy="2.12" r="2.12" transform="translate(69.37 85.04)" fill="#e0e0e0"/>
      <path id="Trazado_148429" data-name="Trazado 148429" d="M80.79,87.16a2.12,2.12,0,1,1-.606-1.525A2.12,2.12,0,0,1,80.79,87.16Z" fill="#e0e0e0"/>
      <path id="Trazado_148430" data-name="Trazado 148430" d="M88,87.16a2.11,2.11,0,1,1-.61-1.535A2.12,2.12,0,0,1,88,87.16Z" fill="#e0e0e0"/>
      <path id="Trazado_148431" data-name="Trazado 148431" d="M136.94,121.59h-4.39l-.84,2h-2.25l4.22-9.46h2.16l4.23,9.46h-2.29Zm-.69-1.66-1.5-3.62-1.5,3.62Z" fill="#455a64"/>
      <path id="Trazado_148432" data-name="Trazado 148432" d="M147.08,123.62,145.26,121h-2v2.64h-2.19v-9.46h4.09c2.53,0,4.11,1.31,4.11,3.43a3.08,3.08,0,0,1-1.95,3l2.13,3ZM145,115.94h-1.78v3.3H145c1.34,0,2-.62,2-1.65S146.37,115.94,145,115.94Z" fill="#455a64"/>
      <path id="Trazado_148433" data-name="Trazado 148433" d="M152.81,115.94h-3v-1.78H158v1.78h-3v7.68h-2.19Z" fill="#455a64"/>
      <path id="Trazado_148434" data-name="Trazado 148434" d="M159.2,114.16h2.19v9.46H159.2Z" fill="#455a64"/>
      <path id="Trazado_148435" data-name="Trazado 148435" d="M163,118.89a5.21,5.21,0,0,1,9-3.22l-1.41,1.3a3.005,3.005,0,1,0,0,3.77l1.41,1.3a5.2,5.2,0,0,1-9-3.2Z" fill="#455a64"/>
      <path id="Trazado_148436" data-name="Trazado 148436" d="M173.54,114.16h2.19v7.67h4.74v1.79h-6.93Z" fill="#455a64"/>
      <path id="Trazado_148437" data-name="Trazado 148437" d="M189,121.86v1.76h-7.3v-9.46h7.15v1.75h-5V118h4.39v1.7h-4.39v2.19Z" fill="#455a64"/>
      <path id="Trazado_148438" data-name="Trazado 148438" d="M124.79,119.73c0,.09-10.15.16-22.66.16s-22.66-.07-22.66-.16,10.14-.15,22.66-.15S124.79,119.65,124.79,119.73Z" fill="#263238"/>
      <path id="Trazado_148439" data-name="Trazado 148439" d="M245.28,119.73c0,.09-10.65.16-23.78.16s-23.8-.07-23.8-.16,10.65-.15,23.8-.15S245.28,119.65,245.28,119.73Z" fill="#263238"/>
      <rect id="Rectángulo_35133" data-name="Rectángulo 35133" width="45.96" height="44.47" transform="translate(190.73 272.72)" fill="#455a64"/>
      <g id="Grupo_107003" data-name="Grupo 107003" opacity="0.3">
        <path id="Trazado_148440" data-name="Trazado 148440" d="M194.3,313.38l12.71-22.88,10.4,14.63,6.32-7.77,9.4,16.02Z"/>
      </g>
      <g id="Grupo_107004" data-name="Grupo 107004" opacity="0.3">
        <path id="Trazado_148441" data-name="Trazado 148441" d="M221,283.62c2.7,3.55-1.31,7.55-4.85,4.85C213.42,284.93,217.42,280.93,221,283.62Z"/>
      </g>
      <g id="Grupo_107005" data-name="Grupo 107005" opacity="0.3">
        <path id="Trazado_148442" data-name="Trazado 148442" d="M233.13,313.51v-2.7c0-1.76,0-4.31-.05-7.55,0-6.49,0-15.74-.09-26.85l.18.19H194.34c-.05.05.41-.41.22-.21h0v37.15l-.19-.19,28.08.09h8l-7.88.05-28.2.1h-.19V276.28h0c-.2.19.26-.28.22-.23h39.02v.19c0,11.16-.07,20.45-.09,27v10.01C233.33,313.38,233.14,313.51,233.13,313.51Z"/>
      </g>
      <path id="Trazado_148443" data-name="Trazado 148443" d="M124,136.58c0,.14-10,.26-22.45.26s-22.44-.12-22.44-.26,10-.26,22.44-.26S124,136.43,124,136.58Z" fill="#263238"/>
      <path id="Trazado_148444" data-name="Trazado 148444" d="M158.62,147.35c0,.14-17.8.26-39.75.26s-39.76-.12-39.76-.26,17.79-.26,39.76-.26S158.62,147.21,158.62,147.35Z" fill="#263238"/>
      <path id="Trazado_148445" data-name="Trazado 148445" d="M185.8,146.56c0,.15-4.82.26-10.77.26s-10.77-.11-10.77-.26,4.82-.26,10.77-.26S185.8,146.42,185.8,146.56Z" fill="#263238"/>
      <path id="Trazado_148446" data-name="Trazado 148446" d="M238.52,146.1c0,.15-10,.27-22.23.27s-22.23-.12-22.23-.27,9.95-.26,22.23-.26S238.52,146,238.52,146.1Z" fill="#263238"/>
      <path id="Trazado_148447" data-name="Trazado 148447" d="M238.06,155.27c0,.15-35.71.26-79.75.26s-79.77-.11-79.77-.26,35.71-.26,79.77-.26S238.06,155.13,238.06,155.27Z" fill="#263238"/>
      <path id="Trazado_148448" data-name="Trazado 148448" d="M152.8,164.9c0,.14-16.52.26-36.9.26S79,165,79,164.9s16.52-.26,36.9-.26S152.8,164.75,152.8,164.9Z" fill="#263238"/>
      <path id="Trazado_148449" data-name="Trazado 148449" d="M179.85,164.9a99.406,99.406,0,0,1-10.09.26,99.117,99.117,0,0,1-10.08-.26,95.752,95.752,0,0,1,10.08-.26,96,96,0,0,1,10.09.26Z" fill="#263238"/>
      <path id="Trazado_148450" data-name="Trazado 148450" d="M238.06,164c0,.15-11.6.26-25.9.26s-25.9-.11-25.9-.26,11.6-.26,25.9-.26S238.06,163.84,238.06,164Z" fill="#263238"/>
      <path id="Trazado_148451" data-name="Trazado 148451" d="M157.62,247.38c0,.14-17.8.26-39.76.26s-39.76-.12-39.76-.26,17.8-.26,39.76-.26S157.62,247.23,157.62,247.38Z" fill="#263238"/>
      <path id="Trazado_148452" data-name="Trazado 148452" d="M184.8,246.59c0,.14-4.82.26-10.77.26s-10.77-.12-10.77-.26,4.82-.26,10.77-.26S184.8,246.45,184.8,246.59Z" fill="#263238"/>
      <path id="Trazado_148453" data-name="Trazado 148453" d="M237.51,246.13c0,.15-9.95.26-22.23.26s-22.23-.11-22.23-.26,9.95-.26,22.23-.26S237.51,246,237.51,246.13Z" fill="#263238"/>
      <path id="Trazado_148454" data-name="Trazado 148454" d="M237.05,255.3c0,.14-35.71.26-79.75.26s-79.76-.12-79.76-.26,35.7-.26,79.76-.26S237.05,255.16,237.05,255.3Z" fill="#263238"/>
      <path id="Trazado_148455" data-name="Trazado 148455" d="M151.8,264.93c0,.14-16.52.26-36.9.26s-36.9-.12-36.9-.26,16.52-.26,36.9-.26S151.8,264.78,151.8,264.93Z" fill="#263238"/>
      <path id="Trazado_148456" data-name="Trazado 148456" d="M178.84,264.93a99.116,99.116,0,0,1-10.08.26,99.411,99.411,0,0,1-10.09-.26,96,96,0,0,1,10.09-.26,95.756,95.756,0,0,1,10.08.26Z" fill="#263238"/>
      <path id="Trazado_148457" data-name="Trazado 148457" d="M237.05,264c0,.14-11.59.26-25.89.26s-25.9-.12-25.9-.26,11.59-.26,25.9-.26S237.05,263.87,237.05,264Z" fill="#263238"/>
      <path id="Trazado_148458" data-name="Trazado 148458" d="M179.85,275.49c0,.14-22.54.26-50.34.26s-50.34-.12-50.34-.26,22.53-.26,50.34-.26S179.85,275.34,179.85,275.49Z" fill="#263238"/>
      <path id="Trazado_148459" data-name="Trazado 148459" d="M178.84,286.05c0,.14-22.49.26-50.23.26s-50.24-.12-50.24-.26,22.49-.26,50.24-.26S178.84,285.9,178.84,286.05Z" fill="#263238"/>
      <rect id="Rectángulo_35134" data-name="Rectángulo 35134" width="97.62" height="62.33" transform="translate(78.44 175.09)" fill="#ff725e"/>
      <path id="Trazado_148460" data-name="Trazado 148460" d="M171.86,232.46V217.95c0-9.26-.07-22.58-.11-38.9l.2.2-88.46.06h0l.26-.26v53.39l-.24-.25,63.63.12,18.27.07h.1l-18.21.07-63.79.12h-.24V178.68h.27l88.46.05h.21v.21c0,16.37-.08,29.73-.1,39,0,4.61,0,8.2-.05,10.66v2.77A2.932,2.932,0,0,1,171.86,232.46Z" fill="#263238"/>
      <g id="Grupo_107006" data-name="Grupo 107006" opacity="0.2">
        <path id="Trazado_148461" data-name="Trazado 148461" d="M85.78,232.46l25.6-32.98,18.49,21.12,14.15-12.74,25.74,24.6Z"/>
      </g>
      <g id="Grupo_107007" data-name="Grupo 107007" opacity="0.2">
        <path id="Trazado_148462" data-name="Trazado 148462" d="M135.59,195.55a5.71,5.71,0,1,1-5.7-5.7A5.71,5.71,0,0,1,135.59,195.55Z"/>
      </g>
      <path id="Trazado_148463" data-name="Trazado 148463" d="M238.06,174.54c0,.15-12.25.26-27.37.26s-27.36-.11-27.36-.26,12.25-.26,27.36-.26S238.06,174.4,238.06,174.54Z" fill="#263238"/>
      <path id="Trazado_148464" data-name="Trazado 148464" d="M238.06,184.24c0,.15-12.25.26-27.37.26s-27.36-.11-27.36-.26,12.25-.26,27.36-.26S238.06,184.1,238.06,184.24Z" fill="#263238"/>
      <path id="Trazado_148465" data-name="Trazado 148465" d="M236.1,226.46c0,.15-12.26.26-27.37.26s-27.36-.11-27.36-.26,12.25-.26,27.36-.26S236.1,226.32,236.1,226.46Z" fill="#263238"/>
      <path id="Trazado_148466" data-name="Trazado 148466" d="M236.1,237.41c0,.15-12.26.26-27.37.26s-27.36-.11-27.36-.26,12.25-.26,27.36-.26S236.1,237.27,236.1,237.41Z" fill="#263238"/>
      <path id="Trazado_148467" data-name="Trazado 148467" d="M220.18,193.94c0,.15-8.25.26-18.42.26s-18.43-.11-18.43-.26,8.25-.26,18.43-.26S220.18,193.8,220.18,193.94Z" fill="#263238"/>
      <path id="Trazado_148468" data-name="Trazado 148468" d="M238.47,193.83a44.742,44.742,0,0,1-6.88.26,44.742,44.742,0,0,1-6.88-.26,46.317,46.317,0,0,1,6.88-.26A46.319,46.319,0,0,1,238.47,193.83Z" fill="#263238"/>
      <path id="Trazado_148469" data-name="Trazado 148469" d="M238.47,204.58c0,.15-8.22.26-18.36.26s-18.36-.11-18.36-.26,8.22-.26,18.36-.26S238.47,204.44,238.47,204.58Z" fill="#263238"/>
      <path id="Trazado_148470" data-name="Trazado 148470" d="M220.18,215.45c0,.14-8.25.26-18.42.26s-18.43-.12-18.43-.26,8.25-.26,18.43-.26S220.18,215.3,220.18,215.45Z" fill="#263238"/>
      <path id="Trazado_148471" data-name="Trazado 148471" d="M238.47,215.34a46.323,46.323,0,0,1-6.88.26,46.319,46.319,0,0,1-6.88-.26,43.93,43.93,0,0,1,6.88-.27,43.929,43.929,0,0,1,6.88.27Z" fill="#263238"/>
      <path id="Trazado_148472" data-name="Trazado 148472" d="M194.47,204.33a24.4,24.4,0,0,1-5.07.26,24.4,24.4,0,0,1-5.07-.26,25.26,25.26,0,0,1,5.07-.26,25.26,25.26,0,0,1,5.07.26Z" fill="#263238"/>
      <path id="Trazado_148473" data-name="Trazado 148473" d="M179.85,296.39c0,.14-22.72.26-50.74.26s-50.74-.12-50.74-.26,22.71-.26,50.74-.26S179.85,296.25,179.85,296.39Z" fill="#263238"/>
      <path id="Trazado_148474" data-name="Trazado 148474" d="M181.37,308.09c0,.15-22.72.26-50.73.26s-50.74-.11-50.74-.26,22.71-.26,50.74-.26S181.37,308,181.37,308.09Z" fill="#263238"/>
      <rect id="Rectángulo_35135" data-name="Rectángulo 35135" width="191.66" height="252.54" transform="translate(54.5 67.81)" fill="#fff"/>
      <path id="Trazado_148475" data-name="Trazado 148475" d="M246.16,320.35c0-2.07-.09-102.86-.23-252.54l.23.24H54.52l.26-.26V320.33l-.21-.21,191.66.21-191.66.21h-.22V67.53H246.51v.23C246.26,217.49,246.16,318.28,246.16,320.35Z" fill="#263238"/>
      <path id="Trazado_148476" data-name="Trazado 148476" d="M246.16,86.26c0,.09-42.91.16-95.83.16s-95.83-.07-95.83-.16,42.9-.15,95.83-.15S246.16,86.18,246.16,86.26Z" fill="#263238"/>
      <path id="Trazado_148477" data-name="Trazado 148477" d="M187.43,77.63c0,.09-14.64.15-32.7.15S122,77.72,122,77.63s14.64-.15,32.69-.15S187.43,77.55,187.43,77.63Z" fill="#455a64"/>
      <circle id="Elipse_4887" data-name="Elipse 4887" cx="2.12" cy="2.12" r="2.12" transform="translate(59.84 75.51)" fill="#e0e0e0"/>
      <path id="Trazado_148478" data-name="Trazado 148478" d="M71.26,77.63a2.12,2.12,0,1,1-2.12-2.12A2.12,2.12,0,0,1,71.26,77.63Z" fill="#e0e0e0"/>
      <path id="Trazado_148479" data-name="Trazado 148479" d="M78.45,77.63a2.12,2.12,0,1,1-2.12-2.12A2.12,2.12,0,0,1,78.45,77.63Z" fill="#e0e0e0"/>
      <path id="Trazado_148480" data-name="Trazado 148480" d="M127.41,112.06H123l-.84,2h-2.24l4.21-9.46h2.17l4.23,9.46h-2.3Zm-.69-1.66-1.5-3.62-1.5,3.62Z" fill="#455a64"/>
      <path id="Trazado_148481" data-name="Trazado 148481" d="M137.56,114.09l-1.83-2.64h-2v2.64h-2.19v-9.46h4.09c2.53,0,4.11,1.31,4.11,3.43a3.08,3.08,0,0,1-1.94,3l2.12,3Zm-2.06-7.68h-1.78v3.3h1.78c1.34,0,2-.62,2-1.65s-.66-1.65-2-1.65Z" fill="#455a64"/>
      <path id="Trazado_148482" data-name="Trazado 148482" d="M143.28,106.41h-3v-1.78h8.24v1.78h-3v7.68h-2.19Z" fill="#455a64"/>
      <path id="Trazado_148483" data-name="Trazado 148483" d="M149.68,104.63h2.19v9.46h-2.19Z" fill="#455a64"/>
      <path id="Trazado_148484" data-name="Trazado 148484" d="M153.51,109.36a5.21,5.21,0,0,1,9-3.22l-1.41,1.3a3.035,3.035,0,1,0,0,3.83l1.41,1.29a5.2,5.2,0,0,1-9-3.2Z" fill="#455a64"/>
      <path id="Trazado_148485" data-name="Trazado 148485" d="M164,104.63h2.19v7.68h4.74v1.78H164Z" fill="#455a64"/>
      <path id="Trazado_148486" data-name="Trazado 148486" d="M179.5,112.33v1.76h-7.33v-9.46h7.15v1.76h-5v2h4.39v1.7h-4.39v2.19Z" fill="#455a64"/>
      <path id="Trazado_148487" data-name="Trazado 148487" d="M115.26,110.21c0,.08-10.14.15-22.66.15s-22.66-.07-22.66-.15,10.15-.16,22.66-.16S115.26,110.12,115.26,110.21Z" fill="#263238"/>
      <path id="Trazado_148488" data-name="Trazado 148488" d="M235.76,110.21c0,.08-10.66.15-23.79.15s-23.79-.07-23.79-.15,10.65-.16,23.79-.16S235.76,110.12,235.76,110.21Z" fill="#263238"/>
      <rect id="Rectángulo_35136" data-name="Rectángulo 35136" width="45.96" height="44.47" transform="translate(181.21 263.19)" fill="#455a64"/>
      <g id="Grupo_107008" data-name="Grupo 107008" opacity="0.3">
        <path id="Trazado_148489" data-name="Trazado 148489" d="M184.77,303.86l12.72-22.89,10.4,14.63,6.32-7.77,9.4,16.03Z"/>
      </g>
      <g id="Grupo_107009" data-name="Grupo 107009" opacity="0.3">
        <path id="Trazado_148490" data-name="Trazado 148490" d="M211.43,274.1c2.7,3.54-1.3,7.54-4.85,4.84C203.89,275.4,207.89,271.4,211.43,274.1Z"/>
      </g>
      <g id="Grupo_107010" data-name="Grupo 107010" opacity="0.3">
        <path id="Trazado_148491" data-name="Trazado 148491" d="M223.61,304a.541.541,0,0,1,0-.18V293.74c0-6.49-.06-15.74-.1-26.85l.19.19H184.86l.22-.21h0v37.12l-.19-.19,28.08.09,7.92.05h.04l-7.88.05-28.2.1h-.19V266.88h0c-.19.19.27-.27.22-.23h39.03v.18c0,11.16-.08,20.45-.1,27v10.01C223.81,303.97,223.61,304,223.61,304Z"/>
      </g>
      <path id="Trazado_148492" data-name="Trazado 148492" d="M114.47,127.05c0,.14-10,.26-22.44.26s-22.45-.12-22.45-.26,10-.26,22.45-.26S114.47,126.9,114.47,127.05Z" fill="#263238"/>
      <path id="Trazado_148493" data-name="Trazado 148493" d="M149.09,137.82c0,.15-17.8.26-39.75.26s-39.76-.11-39.76-.26,17.8-.26,39.76-.26S149.09,137.68,149.09,137.82Z" fill="#263238"/>
      <path id="Trazado_148494" data-name="Trazado 148494" d="M176.28,137c0,.14-4.83.26-10.77.26s-10.78-.12-10.78-.26,4.83-.26,10.78-.26S176.28,136.89,176.28,137Z" fill="#263238"/>
      <path id="Trazado_148495" data-name="Trazado 148495" d="M229,136.58c0,.14-10,.26-22.23.26s-22.23-.12-22.23-.26,9.95-.26,22.23-.26S229,136.43,229,136.58Z" fill="#263238"/>
      <path id="Trazado_148496" data-name="Trazado 148496" d="M228.53,145.74c0,.15-35.71.27-79.75.27S69,145.89,69,145.74s35.7-.26,79.76-.26S228.53,145.6,228.53,145.74Z" fill="#263238"/>
      <path id="Trazado_148497" data-name="Trazado 148497" d="M143.27,155.37c0,.14-16.52.26-36.89.26s-36.9-.12-36.9-.26,16.51-.26,36.9-.26S143.27,155.23,143.27,155.37Z" fill="#263238"/>
      <path id="Trazado_148498" data-name="Trazado 148498" d="M170.32,155.37a99.406,99.406,0,0,1-10.09.26,99.117,99.117,0,0,1-10.08-.26,99.113,99.113,0,0,1,10.08-.26,99.4,99.4,0,0,1,10.09.26Z" fill="#263238"/>
      <path id="Trazado_148499" data-name="Trazado 148499" d="M228.53,154.45c0,.15-11.59.26-25.9.26s-25.9-.11-25.9-.26,11.6-.26,25.9-.26S228.53,154.31,228.53,154.45Z" fill="#263238"/>
      <path id="Trazado_148500" data-name="Trazado 148500" d="M148.09,237.85c0,.14-17.8.26-39.76.26s-39.75-.12-39.75-.26,17.79-.26,39.75-.26S148.09,237.71,148.09,237.85Z" fill="#263238"/>
      <path id="Trazado_148501" data-name="Trazado 148501" d="M175.27,237.06c0,.15-4.82.26-10.77.26s-10.77-.11-10.77-.26,4.82-.26,10.77-.26S175.27,236.92,175.27,237.06Z" fill="#263238"/>
      <path id="Trazado_148502" data-name="Trazado 148502" d="M228,236.61c0,.14-10,.26-22.23.26s-22.24-.12-22.24-.26,10-.27,22.24-.27S228,236.46,228,236.61Z" fill="#263238"/>
      <path id="Trazado_148503" data-name="Trazado 148503" d="M227.53,245.77c0,.15-35.71.26-79.76.26S68,245.92,68,245.77s35.71-.26,79.76-.26S227.53,245.63,227.53,245.77Z" fill="#263238"/>
      <path id="Trazado_148504" data-name="Trazado 148504" d="M142.27,255.4c0,.14-16.52.26-36.9.26s-36.9-.12-36.9-.26,16.52-.26,36.9-.26S142.27,255.25,142.27,255.4Z" fill="#263238"/>
      <path id="Trazado_148505" data-name="Trazado 148505" d="M169.31,255.4a99.121,99.121,0,0,1-10.08.26,99.117,99.117,0,0,1-10.08-.26,95.748,95.748,0,0,1,10.08-.26,95.751,95.751,0,0,1,10.08.26Z" fill="#263238"/>
      <path id="Trazado_148506" data-name="Trazado 148506" d="M227.53,254.48c0,.15-11.6.26-25.9.26s-25.9-.11-25.9-.26,11.59-.26,25.9-.26S227.53,254.34,227.53,254.48Z" fill="#263238"/>
      <path id="Trazado_148507" data-name="Trazado 148507" d="M170.32,266c0,.14-22.54.26-50.34.26s-50.34-.12-50.34-.26,22.53-.26,50.34-.26S170.32,265.82,170.32,266Z" fill="#263238"/>
      <path id="Trazado_148508" data-name="Trazado 148508" d="M169.31,276.52c0,.14-22.49.26-50.23.26s-50.24-.12-50.24-.26,22.49-.26,50.24-.26S169.31,276.38,169.31,276.52Z" fill="#263238"/>
      <rect id="Rectángulo_35137" data-name="Rectángulo 35137" width="97.62" height="62.33" transform="translate(68.91 165.56)" fill="#dad6f7"/>
      <path id="Trazado_148509" data-name="Trazado 148509" d="M162.33,222.93V208.42c0-9.26-.06-22.58-.11-38.9l.2.2-88.46.06h0l.26-.26v53.39l-.24-.24,63.62.11,18.27.07h.11l-18.22.06-63.78.12h-.25V169.14H74l88.46.06h.21v.2c0,16.37-.08,29.74-.11,39,0,4.61,0,8.21-.05,10.67v2.77A3.213,3.213,0,0,1,162.33,222.93Z" fill="#263238"/>
      <g id="Grupo_107011" data-name="Grupo 107011" opacity="0.2">
        <path id="Trazado_148510" data-name="Trazado 148510" d="M76.26,222.93l25.59-32.98,18.49,21.12,14.15-12.74,25.74,24.6Z"/>
      </g>
      <g id="Grupo_107012" data-name="Grupo 107012" opacity="0.2">
        <path id="Trazado_148511" data-name="Trazado 148511" d="M126.06,186a5.71,5.71,0,1,1-5.7-5.7,5.71,5.71,0,0,1,5.7,5.7Z"/>
      </g>
      <path id="Trazado_148512" data-name="Trazado 148512" d="M228.53,165c0,.15-12.25.27-27.36.27s-27.37-.12-27.37-.27,12.25-.26,27.37-.26S228.53,164.87,228.53,165Z" fill="#263238"/>
      <path id="Trazado_148513" data-name="Trazado 148513" d="M228.53,174.72c0,.14-12.25.26-27.36.26s-27.37-.12-27.37-.26,12.25-.26,27.37-.26S228.53,174.57,228.53,174.72Z" fill="#263238"/>
      <path id="Trazado_148514" data-name="Trazado 148514" d="M226.57,216.93c0,.15-12.25.26-27.37.26s-27.36-.11-27.36-.26,12.25-.26,27.36-.26S226.57,216.79,226.57,216.93Z" fill="#263238"/>
      <path id="Trazado_148515" data-name="Trazado 148515" d="M226.57,227.88c0,.15-12.25.26-27.37.26s-27.36-.11-27.36-.26,12.25-.26,27.36-.26S226.57,227.74,226.57,227.88Z" fill="#263238"/>
      <path id="Trazado_148516" data-name="Trazado 148516" d="M210.65,184.42c0,.14-8.25.26-18.42.26s-18.43-.12-18.43-.26,8.25-.26,18.43-.26S210.65,184.27,210.65,184.42Z" fill="#263238"/>
      <path id="Trazado_148517" data-name="Trazado 148517" d="M228.94,184.3a44.74,44.74,0,0,1-6.88.26,44.74,44.74,0,0,1-6.88-.26,46.319,46.319,0,0,1,6.88-.26,46.317,46.317,0,0,1,6.88.26Z" fill="#263238"/>
      <path id="Trazado_148518" data-name="Trazado 148518" d="M228.94,195.06c0,.14-8.22.26-18.35.26s-18.36-.12-18.36-.26,8.21-.26,18.36-.26S228.94,194.91,228.94,195.06Z" fill="#263238"/>
      <path id="Trazado_148519" data-name="Trazado 148519" d="M210.65,205.92c0,.14-8.25.26-18.42.26s-18.43-.12-18.43-.26,8.25-.26,18.43-.26S210.65,205.78,210.65,205.92Z" fill="#263238"/>
      <path id="Trazado_148520" data-name="Trazado 148520" d="M228.94,205.81a46.319,46.319,0,0,1-6.88.26,46.319,46.319,0,0,1-6.88-.26,44.738,44.738,0,0,1,6.88-.26A44.738,44.738,0,0,1,228.94,205.81Z" fill="#263238"/>
      <path id="Trazado_148521" data-name="Trazado 148521" d="M184.94,194.81a25.261,25.261,0,0,1-5.07.26,25.261,25.261,0,0,1-5.07-.26,24.4,24.4,0,0,1,5.07-.26A24.4,24.4,0,0,1,184.94,194.81Z" fill="#263238"/>
      <path id="Trazado_148522" data-name="Trazado 148522" d="M170.32,286.86c0,.15-22.72.26-50.74.26s-50.74-.11-50.74-.26,22.72-.26,50.74-.26S170.32,286.72,170.32,286.86Z" fill="#263238"/>
      <path id="Trazado_148523" data-name="Trazado 148523" d="M171.84,298.57c0,.14-22.71.26-50.73.26s-50.74-.12-50.74-.26,22.71-.27,50.74-.27S171.84,298.42,171.84,298.57Z" fill="#263238"/>
      <circle id="Elipse_4888" data-name="Elipse 4888" cx="13.39" cy="13.39" r="13.39" transform="translate(37.3 185.96)" fill="#ebebeb"/>
      <path id="Trazado_148524" data-name="Trazado 148524" d="M64.08,199.35a25.25,25.25,0,0,0-.52-3.25A13.23,13.23,0,0,0,46.21,187a13.154,13.154,0,1,0,12.47,22.84,13.36,13.36,0,0,0,4.88-7.25,25.581,25.581,0,0,0,.52-3.24,6.86,6.86,0,0,1,0,.85,7.12,7.12,0,0,1-.08,1,11.31,11.31,0,0,1-.25,1.4A13.554,13.554,0,1,1,39.7,191.28a12.69,12.69,0,0,1,2.88-2.88,13,13,0,0,1,3.46-1.85,13.53,13.53,0,0,1,17.72,9.51,11.649,11.649,0,0,1,.25,1.4,7.22,7.22,0,0,1,.08,1,7.088,7.088,0,0,1-.01.89Z" fill="#263238"/>
      <circle id="Elipse_4889" data-name="Elipse 4889" cx="13.39" cy="13.39" r="13.39" transform="translate(238.05 185.96)" fill="#ebebeb"/>
      <path id="Trazado_148525" data-name="Trazado 148525" d="M264.83,199.35a25.251,25.251,0,0,0-.52-3.25,13.39,13.39,0,0,0-4.88-7.25A13.125,13.125,0,0,0,247,187a13.154,13.154,0,1,0,12.47,22.84,13.36,13.36,0,0,0,4.88-7.25,25.583,25.583,0,0,0,.52-3.24,5,5,0,0,1,0,.85,7.124,7.124,0,0,1-.08,1,11.308,11.308,0,0,1-.25,1.4,13.466,13.466,0,0,1-17.69,9.55,12.81,12.81,0,0,1-3.45-1.85,12.58,12.58,0,0,1-2.89-2.89,13.56,13.56,0,0,1,0-16.13,12.54,12.54,0,0,1,2.89-2.88,12.809,12.809,0,0,1,3.45-1.85,13.523,13.523,0,0,1,17.71,9.51,11.652,11.652,0,0,1,.25,1.4,7.213,7.213,0,0,1,.08,1A5.162,5.162,0,0,1,264.83,199.35Z" fill="#263238"/>
      <path id="Trazado_148526" data-name="Trazado 148526" d="M249.85,203.75a.49.49,0,0,1-.38-.18.51.51,0,0,1,.06-.71l4.2-3.51-4.2-3.52a.49.49,0,0,1-.06-.7.5.5,0,0,1,.7-.07l4.65,3.9a.5.5,0,0,1,.18.39.46.46,0,0,1-.18.38l-4.65,3.9a.47.47,0,0,1-.32.12Z" fill="#263238"/>
      <path id="Trazado_148527" data-name="Trazado 148527" d="M53,203.75a.52.52,0,0,1-.33-.12L48,199.73a.49.49,0,0,1-.17-.38A.52.52,0,0,1,48,199l4.65-3.9a.52.52,0,0,1,.71.07.49.49,0,0,1-.06.7l-4.2,3.52,4.2,3.51a.51.51,0,0,1,.06.71A.49.49,0,0,1,53,203.75Z" fill="#263238"/>
    </g>
    <g id="freepik--Character--inject-2">
      <path id="Trazado_148528" data-name="Trazado 148528" d="M303.55,331l-23.4,77L231,431.39l3.26,26.43,46.18-11c24.22-4.9,36.93-14,42.3-36.7L332,379.84Z" fill="#0f0140"/>
      <path id="Trazado_148529" data-name="Trazado 148529" d="M421.73,309a7.522,7.522,0,0,1-1.39.15,34.574,34.574,0,0,0-3.76.46,17.32,17.32,0,0,0-5.24,1.87,24.691,24.691,0,0,0-5.48,4.07,26.472,26.472,0,0,0-4,5.57,48.474,48.474,0,0,0-2.41,5.08c-.61,1.49-1.05,2.71-1.36,3.56a9.386,9.386,0,0,1-.5,1.3,7.6,7.6,0,0,1,.32-1.36c.25-.87.65-2.11,1.22-3.62a42.868,42.868,0,0,1,2.33-5.17,26.258,26.258,0,0,1,4-5.7,24.292,24.292,0,0,1,5.61-4.12,16.82,16.82,0,0,1,5.4-1.81,26.488,26.488,0,0,1,3.81-.32A7.668,7.668,0,0,1,421.73,309Z" fill="#263238"/>
      <path id="Trazado_148530" data-name="Trazado 148530" d="M249.51,436.12l14.56-9.66a7.25,7.25,0,0,1,4.89-1L280.1,427l25.54,12.81,12.85-1L317.44,461s-11.38,0-15.82-1-10.46-5.34-10.46-5.34,1.37,2.33.53,4-7,4.11-7,4.11-4.32,1.26-4.9-1.78c0,0-7.53.58-7.94-5.44,0,0-11.32-2.58-9.4-7.75,1.43-3.84,2.82-6.63,2.82-6.63l3.79-7.29-3.75-.87s-7.14,4.73-10.15,5.06S249.51,436.12,249.51,436.12Z" fill="#ffbe9d"/>
      <path id="Trazado_148531" data-name="Trazado 148531" d="M277.72,438.59a30.12,30.12,0,0,0-2.54,1.82,12.66,12.66,0,0,0-3.94,6.2,13.81,13.81,0,0,0-.16,4.08c.11,1.27.3,2.41.47,3.36a25,25,0,0,1,.53,3.1,3,3,0,0,1-.29-.8c-.15-.52-.36-1.28-.58-2.23a30.66,30.66,0,0,1-.58-3.39,13.549,13.549,0,0,1,.14-4.23,12.3,12.3,0,0,1,4.19-6.36,11,11,0,0,1,2-1.25A2.189,2.189,0,0,1,277.72,438.59Z" fill="#eb996e"/>
      <path id="Trazado_148532" data-name="Trazado 148532" d="M283.42,445.19h-.8a4.3,4.3,0,0,0-2,.58,5.41,5.41,0,0,0-2.09,2.25,7.78,7.78,0,0,0-.67,3.74,22.719,22.719,0,0,0,.6,3.87c.26,1.19.5,2.25.74,3.13.47,1.78.9,2.83.83,2.86a2.771,2.771,0,0,1-.39-.71,19.993,19.993,0,0,1-.77-2.05c-.28-.88-.57-1.95-.84-3.13a20.591,20.591,0,0,1-.66-3.95,8,8,0,0,1,.76-4,5.43,5.43,0,0,1,2.33-2.35,4,4,0,0,1,2.17-.47,1.64,1.64,0,0,1,.79.23Z" fill="#eb996e"/>
      <path id="Trazado_148533" data-name="Trazado 148533" d="M287.33,454.78c-.05,0,.06-.3.4-.57a2.94,2.94,0,0,1,1.57-.58,2.1,2.1,0,0,1,1.62.46c.34.31.37.62.32.63s-.21-.18-.52-.36a2.43,2.43,0,0,0-1.38-.24,6.371,6.371,0,0,0-2.01.66Z" fill="#eb996e"/>
      <path id="Trazado_148534" data-name="Trazado 148534" d="M288.27,450.34c.05,0,.27.17.39.59a3.92,3.92,0,0,1,.11,1.66,3.33,3.33,0,0,1-.6,1.57c-.29.35-.57.44-.6.39s.14-.24.31-.58a4.531,4.531,0,0,0,.4-1.45,7.422,7.422,0,0,0,.05-1.52C288.3,450.61,288.21,450.38,288.27,450.34Z" fill="#eb996e"/>
      <path id="Trazado_148535" data-name="Trazado 148535" d="M262.46,447.86a3.37,3.37,0,0,1,.32-.9c.23-.56.58-1.36,1-2.36.89-2,2.16-4.71,3.58-7.7.51-1.08,1-2.11,1.47-3.07h0A6.86,6.86,0,0,1,272,432a7,7,0,0,1,2.77-.21,5.9,5.9,0,0,1,1.75.48,1.8,1.8,0,0,1,.57.33,12.213,12.213,0,0,0-2.35-.52,7,7,0,0,0-5.46,2v-.06c-.46,1-.95,2-1.45,3.08-1.42,3-2.74,5.7-3.71,7.64-.48,1-.89,1.76-1.17,2.29A4,4,0,0,1,262.46,447.86Z" fill="#eb996e"/>
      <path id="Trazado_148536" data-name="Trazado 148536" d="M447.68,404.25s-2.27-68.68-5.16-78.17S436.1,311.37,429,306.75c-8.14-5.26-36.6-11.22-37.57-12.09l-47.88.95-2.87.32a42.2,42.2,0,0,0-35.58,28.32q-.3.9-.57,1.83c-5.8,19.84,16.95,48.39,16.95,47.13.05,5.93.44,11.61,1.45,15.66,3.31,13.21,32.19,35.38,33.85,41.83s2.48,34.05,2.48,34.05,45.12.34,65.3.24l51.52-.24Z" fill="#0f0140"/>
      <path id="Trazado_148537" data-name="Trazado 148537" d="M319.79,322.81s.1.27.26.78a23.062,23.062,0,0,1,.61,2.3,45.259,45.259,0,0,1,1,8.65,111.428,111.428,0,0,1-.46,12.92c-.38,4.84-1,10.15-1.24,15.75a79.8,79.8,0,0,0,.52,15.73A46.3,46.3,0,0,0,324,391.25a44.759,44.759,0,0,0,4.36,7.49c.61.82,1.12,1.44,1.44,1.87a4.288,4.288,0,0,1,.48.67,5.93,5.93,0,0,1-.55-.61c-.35-.41-.89-1-1.52-1.82a41.139,41.139,0,0,1-4.52-7.45,45.42,45.42,0,0,1-3.65-12.4,78.331,78.331,0,0,1-.57-15.82c.28-5.61.88-10.92,1.28-15.76a117.665,117.665,0,0,0,.56-12.87,48.64,48.64,0,0,0-.88-8.63c-.17-1-.4-1.77-.51-2.3a4.358,4.358,0,0,1-.13-.81Z" fill="#263238"/>
      <g id="Grupo_107013" data-name="Grupo 107013" opacity="0.3">
        <path id="Trazado_148538" data-name="Trazado 148538" d="M435.16,354.25a699.353,699.353,0,0,0-23.23,96l-5.31,9.4c6.68-.93,12.27-5.87,15.67-11.7s5-12.52,6.49-19.09C434.45,404.32,440.15,378.9,435.16,354.25Z"/>
      </g>
      <path id="Trazado_148539" data-name="Trazado 148539" d="M315,436.36l66.77-7.78s14-84.45,14.34-85.95,5.06-27.79,18.29-30.05,25.29,3,26.07,15.78c.62,10.21-14.2,83.57-23.54,117.54-2.69,9.77-13.4,18.42-23.86,18.62-27.29.51-77.76,0-77.76,0Z" fill="#0f0140"/>
      <path id="Trazado_148540" data-name="Trazado 148540" d="M396.06,342.63c-.26,1.62-5.57,33.89-14.14,86v.14h-.14c-19.67,3.37-42.11,3.82-66.54,8l.2-.24c.09,7.82,0,19.53.08,28l-.24-.24,25.26.17c14.13.07,27.93.08,41.25,0l9.9-.12a23.5,23.5,0,0,0,9.39-1.78,28.16,28.16,0,0,0,13.71-12.13l.54-1,.45-1a17.751,17.751,0,0,0,.77-2.11c.44-1.43.79-2.9,1.18-4.34.79-2.87,1.49-5.73,2.2-8.54q2.1-8.43,3.93-16.41c2.45-10.6,4.59-20.52,6.5-29.58,3.76-18.12,6.55-32.85,8.19-43.07.41-2.56.77-4.83,1-6.8.14-1,.26-1.9.38-2.74s.16-1.59.23-2.27a27,27,0,0,0,.21-3.09,8.524,8.524,0,0,1,.05-1.05v1.05a24.814,24.814,0,0,1-.16,3.1c-.06.68-.14,1.44-.21,2.28s-.23,1.75-.35,2.73c-.24,2-.59,4.26-1,6.82-1.58,10.23-4.32,25-8,43.11-1.88,9.07-4,19-6.44,29.6q-1.82,8-3.9,16.42c-.71,2.82-1.41,5.68-2.19,8.56-.4,1.44-.74,2.89-1.18,4.35a17.508,17.508,0,0,1-.79,2.16l-.46,1.06-.54,1A28.66,28.66,0,0,1,401.24,463a23.93,23.93,0,0,1-9.56,1.82l-9.9.13c-13.33.11-27.13.1-41.26,0l-25.27-.18H315v-.24c-.09-8.44,0-20.16-.06-28v-.2h.19c24.44-4.16,46.88-4.58,66.55-7.93l-.16.16c4.36-26.08,8-47.56,10.46-62.53,1.27-7.47,2.27-13.32,3-17.31.35-2,.62-3.49.8-4.53S396.06,342.63,396.06,342.63Z" fill="#263238"/>
      <g id="Grupo_107014" data-name="Grupo 107014" opacity="0.3">
        <path id="Trazado_148541" data-name="Trazado 148541" d="M319.09,368.7c-.17-10.5,2.83-21.51,2.78-32.91a116.348,116.348,0,0,0-6.87,28c-.76,6.57-.95,13.33.93,19.67s6.07,12.24,12.12,14.9C321.78,389.93,319.26,379.19,319.09,368.7Z"/>
      </g>
      <path id="Trazado_148542" data-name="Trazado 148542" d="M317,242.2a17.54,17.54,0,0,1-6.89-17.44,3.26,3.26,0,0,0,0-2.18,3.21,3.21,0,0,0-1.48-1.15,13,13,0,0,1-6.51-7.85,10.06,10.06,0,0,1,2.49-9.69c-5.1-1.75-7.32-8.6-5-13.48s8.17-7.45,13.53-6.87c-1.88-2.71-1.12-6.65,1.06-9.13s5.43-3.71,8.66-4.34c4.34-.84,9.56-.4,12.09,3.24.21-2.71,2.9-4.57,5.52-5.25,7-1.83,15.1,2.7,17.23,9.68,2.22-1.68,4.79-3.11,7.57-3.16s5.74,1.62,6.39,4.33c1.15-2.5,4.13-3.56,6.85-3.84a9.85,9.85,0,0,1,5.78.86,4.85,4.85,0,0,1,2.62,4.91,7.75,7.75,0,0,1,6.83,13.84,9.87,9.87,0,0,1,.88,16.79c1.66.12,2.52,2.35,1.79,3.85a5.25,5.25,0,0,1-4.08,2.54q1.08,8.58,2.17,17.15c.47,3.69.93,7.46.23,11.11s-2.78,7.24-6.14,8.79" fill="#263238"/>
      <path id="Trazado_148543" data-name="Trazado 148543" d="M315,225.67c-1-13.92,11.91-29.75,25.81-30.18l45.58,2.38.86,7.45,5.87,94.22L351.47,336.6l-5.27-42.38s-18-.51-24.74-23C318.09,260,316.1,241.15,315,225.67Z" fill="#ffbe9d"/>
      <path id="Trazado_148544" data-name="Trazado 148544" d="M323.17,242.83a3,3,0,0,0,3.24,2.59,2.85,2.85,0,0,0,2.66-3.08,3,3,0,0,0-3.23-2.59,2.84,2.84,0,0,0-2.67,3.08Z" fill="#263238"/>
      <path id="Trazado_148545" data-name="Trazado 148545" d="M320.36,234.88c.41.33,2.41-1.63,5.58-2s5.69.84,6,.4c.15-.19-.32-.84-1.43-1.44a8.17,8.17,0,0,0-4.86-.8,7.77,7.77,0,0,0-4.37,2.12C320.39,234,320.15,234.73,320.36,234.88Z" fill="#263238"/>
      <path id="Trazado_148546" data-name="Trazado 148546" d="M352.91,240a3,3,0,0,0,3.24,2.59,2.84,2.84,0,0,0,2.66-3.08,3,3,0,0,0-3.24-2.59,2.85,2.85,0,0,0-2.66,3.08Z" fill="#263238"/>
      <path id="Trazado_148547" data-name="Trazado 148547" d="M351.53,231.89c.42.34,2.42-1.63,5.58-2s5.7.84,6,.4c.14-.19-.32-.84-1.44-1.43a8.07,8.07,0,0,0-4.85-.81,7.77,7.77,0,0,0-4.38,2.12C351.56,231,351.33,231.74,351.53,231.89Z" fill="#263238"/>
      <path id="Trazado_148548" data-name="Trazado 148548" d="M343.26,256.33c0-.18-2-.25-5.26-.22-.82,0-1.61,0-1.82-.57a4.18,4.18,0,0,1,.21-2.47c.49-2.07,1-4.24,1.55-6.51,2.11-9.25,3.52-16.81,3.15-16.89s-2.39,7.35-4.5,16.6c-.5,2.27-1,4.45-1.44,6.52a4.8,4.8,0,0,0,0,3.24,2.06,2.06,0,0,0,1.49,1,5.439,5.439,0,0,0,1.4,0C341.28,256.77,343.27,256.51,343.26,256.33Z" fill="#263238"/>
      <path id="Trazado_148549" data-name="Trazado 148549" d="M346.2,294.22a58.69,58.69,0,0,0,29.57-12.44s-5.48,18.35-28.71,19.35Z" fill="#eb996e"/>
      <path id="Trazado_148550" data-name="Trazado 148550" d="M345.64,263.8a5.77,5.77,0,0,1,4.82-2.83,5.22,5.22,0,0,1,3.85,1.45,3.35,3.35,0,0,1,.77,3.75,3.86,3.86,0,0,1-4,1.62,11.9,11.9,0,0,1-4.37-1.87,3.28,3.28,0,0,1-1-.81,1.07,1.07,0,0,1-.16-1.18" fill="#eb996e"/>
      <path id="Trazado_148551" data-name="Trazado 148551" d="M352.86,257.25c-.51,0-.05,3.49-2.65,6.34s-6.31,3-6.27,3.46c0,.22.9.56,2.45.39a8.61,8.61,0,0,0,5.26-2.7,7.51,7.51,0,0,0,2-5.28C353.6,258,353.1,257.2,352.86,257.25Z" fill="#263238"/>
      <path id="Trazado_148552" data-name="Trazado 148552" d="M349,220.67c.43.82,3.53,0,7.3-.08s6.91.54,7.29-.3c.17-.4-.46-1.14-1.78-1.81a12.59,12.59,0,0,0-11.12.29C349.43,219.51,348.84,220.28,349,220.67Z" fill="#263238"/>
      <path id="Trazado_148553" data-name="Trazado 148553" d="M320.26,225.53c.66.64,2.74-.41,5.35-.8s4.9-.18,5.31-1c.17-.39-.27-1.07-1.34-1.62a7.79,7.79,0,0,0-8.58,1.46C320.17,224.42,320,225.21,320.26,225.53Z" fill="#263238"/>
      <path id="Trazado_148554" data-name="Trazado 148554" d="M320.8,197.85a11.23,11.23,0,0,0,17.43,11.53c-1.32,1.67-.7,4.33.91,5.72a8.15,8.15,0,0,0,6,1.58,15.55,15.55,0,0,0,11.33-6.36,11.36,11.36,0,0,0,17.19,6.6,10.8,10.8,0,0,0-.67,12.14,10.41,10.41,0,0,0,19.17-4.55A11.72,11.72,0,0,0,394.27,206a7,7,0,0,0,3.69-6,14.43,14.43,0,0,0-1.71-7.07c-2.62-5.39-7.11-10.07-12.81-11.87s-12.59-.2-16.18,4.6a3.32,3.32,0,0,1-1.46,1.35,2.91,2.91,0,0,1-2.49-.92c-3.19-2.57-6.53-5.35-10.59-5.89a11,11,0,0,0-11.54,7.3c-3.36-4.34-9.63-6.53-14.64-4.32S319,192.47,322.08,197" fill="#263238"/>
      <path id="Trazado_148555" data-name="Trazado 148555" d="M381.42,230.51A49.75,49.75,0,0,0,386,243.87c.91,1.78,2.22,3.72,4.21,3.89a4.275,4.275,0,0,0,4.05-3,11.4,11.4,0,0,0,.13-5.42,146.74,146.74,0,0,0-4.6-18.88" fill="#263238"/>
      <path id="Trazado_148556" data-name="Trazado 148556" d="M386.92,233.47c.27-.18,11-5.64,12.81,6.07s-10.29,11.11-10.36,10.78S386.92,233.47,386.92,233.47Z" fill="#ffbe9d"/>
      <path id="Trazado_148557" data-name="Trazado 148557" d="M392.25,245.33c.05-.05.23.11.59.22a2,2,0,0,0,1.53-.21c1.16-.64,1.9-2.77,1.63-4.89a6.69,6.69,0,0,0-1-2.83,2.36,2.36,0,0,0-1.76-1.33,1,1,0,0,0-1.12.74c-.1.35,0,.58-.05.61s-.28-.16-.26-.66a1.31,1.31,0,0,1,.34-.81,1.57,1.57,0,0,1,1.08-.47,2.89,2.89,0,0,1,2.4,1.49,7,7,0,0,1,1.21,3.16c.28,2.37-.58,4.77-2.19,5.52a2.18,2.18,0,0,1-1.91,0C392.32,245.61,392.21,245.36,392.25,245.33Z" fill="#eb996e"/>
      <path id="Trazado_148558" data-name="Trazado 148558" d="M356.72,207.92a1.491,1.491,0,0,1-.35.14c-.24.08-.59.19-1.06.31a16.5,16.5,0,0,1-4.14.56,11.78,11.78,0,0,1-3-.38,8.34,8.34,0,0,1-5.69-4.77,6.32,6.32,0,0,1-.26-4.51l.42.28a15.59,15.59,0,0,1-8.95,4.12,15.14,15.14,0,0,1-5.46-.36,9.7,9.7,0,0,1-2.66-1.09,5.52,5.52,0,0,1-2-2.18,7.75,7.75,0,0,1-.74-3.37,22.461,22.461,0,0,1,.21-3.31,11.26,11.26,0,0,1,.81-3.14,3.73,3.73,0,0,1,2.32-2.19l.2.53a9.31,9.31,0,0,1-6.05.58,10,10,0,0,1-4.87-2.66,8.45,8.45,0,0,1-2.34-4.36,9.89,9.89,0,0,1,3.2-9.32,6.079,6.079,0,0,1,1.81-1.13,17.665,17.665,0,0,0-1.69,1.27,9.84,9.84,0,0,0-2.87,5,9.57,9.57,0,0,0,0,4.07,8,8,0,0,0,2.27,4.1,9.59,9.59,0,0,0,4.65,2.49,8.81,8.81,0,0,0,5.69-.58l.2.54a3.17,3.17,0,0,0-1.95,1.88,10.351,10.351,0,0,0-.75,3c-.24,2.08-.48,4.38.48,6.32a6.17,6.17,0,0,0,4.29,3,14.41,14.41,0,0,0,5.25.36,15.06,15.06,0,0,0,8.66-3.92l.77-.72-.35,1a5.86,5.86,0,0,0,.2,4.15,8.1,8.1,0,0,0,2.32,3.06,8.26,8.26,0,0,0,3,1.54,11,11,0,0,0,2.89.42,18,18,0,0,0,4.11-.4,12.131,12.131,0,0,1,1.43-.33Z" fill="#fff"/>
      <path id="Trazado_148559" data-name="Trazado 148559" d="M319.89,207.74a2.617,2.617,0,0,1-.73.47,6.129,6.129,0,0,1-2.33.58,5.92,5.92,0,0,1-3.48-.83,2.93,2.93,0,0,1-1.34-1.78,2.23,2.23,0,0,1,.77-2.31l.3.51-.2.09a9.3,9.3,0,0,1-7.88-.23,8,8,0,0,1-2-1.4c-.41-.41-.59-.67-.56-.7a16.641,16.641,0,0,0,2.73,1.72,9.32,9.32,0,0,0,7.46.06l.18-.08,2.68-1.15-2.38,1.67a1.65,1.65,0,0,0-.54,1.69,2.5,2.5,0,0,0,1.07,1.46,5.78,5.78,0,0,0,3.17.86A10.2,10.2,0,0,0,319.89,207.74Z" fill="#fff"/>
      <path id="Trazado_148560" data-name="Trazado 148560" d="M400.21,247.68a5.32,5.32,0,0,1,2.07,1.1,12.3,12.3,0,0,1,4,5,11,11,0,0,1-.38,9.47,10.66,10.66,0,0,1-10.05,5.55,9.79,9.79,0,0,1-5.74-2.35,12.65,12.65,0,0,1-3.41-4.62,11.09,11.09,0,0,1,.12-9.49,9.7,9.7,0,0,1,4.66-4.4,4.44,4.44,0,0,1,2.29-.53c0,.11-.8.24-2.09.94a9.85,9.85,0,0,0-4.12,4.37,10.38,10.38,0,0,0,.13,8.67c1.35,3,4.34,6,8.24,6.23a9.63,9.63,0,0,0,9-4.89,10.29,10.29,0,0,0,.57-8.64,12.89,12.89,0,0,0-3.56-4.94C400.89,248.17,400.16,247.77,400.21,247.68Z" fill="#455a64"/>
      <path id="Trazado_148561" data-name="Trazado 148561" d="M334,248.64a22.653,22.653,0,0,0-.52-3.32,13.66,13.66,0,0,0-5-7.44,13.46,13.46,0,0,0-12.78-1.9,12.289,12.289,0,0,0-3.41,1.84,12.641,12.641,0,0,0-2.84,2.86,13.49,13.49,0,0,0,6.26,20.63,13.7,13.7,0,0,0,7.09.6,13.4,13.4,0,0,0,5.69-2.51,13.68,13.68,0,0,0,5-7.43,22.653,22.653,0,0,0,.52-3.33,4.2,4.2,0,0,1,0,.88,6.162,6.162,0,0,1-.08,1.06,9,9,0,0,1-.26,1.44,13.67,13.67,0,0,1-5,7.68,13.928,13.928,0,0,1-19.68-19.32,13,13,0,0,1,3-3,12.751,12.751,0,0,1,3.54-1.89,13.83,13.83,0,0,1,13.17,2.06,13.6,13.6,0,0,1,5,7.68,8.921,8.921,0,0,1,.26,1.43,6.23,6.23,0,0,1,.08,1.06A4.2,4.2,0,0,1,334,248.64Z" fill="#263238"/>
      <path id="Trazado_148562" data-name="Trazado 148562" d="M369.35,246.3a24.082,24.082,0,0,0-.53-3.33,13.6,13.6,0,0,0-5-7.43,13.46,13.46,0,0,0-12.78-1.9,12.29,12.29,0,0,0-3.41,1.84,12.681,12.681,0,0,0-2.85,2.86,13.44,13.44,0,0,0,0,15.92,12.68,12.68,0,0,0,2.85,2.86A12.29,12.29,0,0,0,351,259a13.57,13.57,0,0,0,7.08.61,13.391,13.391,0,0,0,5.7-2.51,13.66,13.66,0,0,0,5-7.44,24.549,24.549,0,0,0,.52-3.32,5.352,5.352,0,0,1,0,.88,6.234,6.234,0,0,1-.08,1.06,10.2,10.2,0,0,1-.26,1.43,13.761,13.761,0,0,1-18.09,9.71,12.89,12.89,0,0,1-3.54-1.89,13.191,13.191,0,0,1-3-3,13.9,13.9,0,0,1,0-16.52,13.19,13.19,0,0,1,3-3,12.89,12.89,0,0,1,3.54-1.89A13.85,13.85,0,0,1,364,235.24a13.64,13.64,0,0,1,5,7.68,10.311,10.311,0,0,1,.26,1.44,6.23,6.23,0,0,1,.08,1.06,5.353,5.353,0,0,1,.01.88Z" fill="#263238"/>
      <path id="Trazado_148563" data-name="Trazado 148563" d="M342.42,243.41c-.06.07-.49-.3-1.29-.67a6.92,6.92,0,0,0-6.58.47c-.74.48-1.12.9-1.19.85s.24-.56,1-1.15a6.22,6.22,0,0,1,3.4-1.29,6.36,6.36,0,0,1,3.56.79C342.11,242.9,342.46,243.38,342.42,243.41Z" fill="#263238"/>
      <path id="Trazado_148564" data-name="Trazado 148564" d="M388.17,234.16c0,.13-4.35,1.54-9.81,3.13a101.823,101.823,0,0,1-9.95,2.63,101.007,101.007,0,0,1,9.81-3.13,101,101,0,0,1,9.95-2.63Z" fill="#263238"/>
      <path id="Trazado_148565" data-name="Trazado 148565" d="M319.25,258.67a1.64,1.64,0,0,1-.68,0,8.55,8.55,0,0,1-1.81-.44,9.77,9.77,0,0,1-6.47-9.63,8.42,8.42,0,0,1,.28-1.84,1.81,1.81,0,0,1,.25-.64c.09,0-.18,1-.16,2.49a10.08,10.08,0,0,0,6.23,9.28C318.3,258.48,319.27,258.58,319.25,258.67Z" fill="#fff"/>
      <path id="Trazado_148566" data-name="Trazado 148566" d="M346.31,255.23a3.265,3.265,0,0,1-.57-.58,10.92,10.92,0,0,1-1.19-1.84A13,13,0,0,1,345.67,239a10.632,10.632,0,0,1,1.47-1.63c.39-.35.63-.51.65-.48a25.761,25.761,0,0,0-1.82,2.32,13.56,13.56,0,0,0-1.09,13.46C345.64,254.3,346.38,255.18,346.31,255.23Z" fill="#fff"/>
      <path id="Trazado_148567" data-name="Trazado 148567" d="M350.93,257.78c-.07.13-.55,0-1.09-.25s-.91-.59-.85-.72.55,0,1.09.25S351,257.65,350.93,257.78Z" fill="#fff"/>
      <path id="Trazado_148568" data-name="Trazado 148568" d="M261.93,464.74H123.5l-20.85-95.32a7.42,7.42,0,0,1,7.27-9l122.71.27a7.41,7.41,0,0,1,7.23,5.789Z" fill="#e0e0e0"/>
      <path id="Trazado_148569" data-name="Trazado 148569" d="M261.93,464.74h65.52a8.42,8.42,0,0,0-8.42-8.42H254.48Z" fill="#e0e0e0"/>
      <path id="Trazado_148570" data-name="Trazado 148570" d="M254.48,464.74a1.4,1.4,0,0,1-.1-.26,3.648,3.648,0,0,0-.22-.78c-.19-.73-.46-1.74-.8-3-.68-2.61-1.64-6.41-2.8-11.11-2.31-9.4-5.36-22.41-8.64-36.81s-6.28-27.42-8.5-36.84l-2.64-11.15-.7-3c-.07-.33-.13-.59-.18-.8s0-.27,0-.27a1.4,1.4,0,0,1,.1.26,3.811,3.811,0,0,0,.22.78c.19.73.46,1.74.8,3,.68,2.62,1.64,6.42,2.8,11.12,2.31,9.39,5.36,22.41,8.64,36.81s6.28,27.42,8.5,36.83l2.64,11.15c.3,1.29.53,2.31.7,3,.07.32.13.58.18.79A.389.389,0,0,1,254.48,464.74Z" fill="#263238"/>
      <path id="Trazado_148571" data-name="Trazado 148571" d="M174.24,402c-2.2-.47-4.3,1.55-4.79,3.75a6.49,6.49,0,0,0,2.56,6.63,6,6,0,0,0,7-.3,5.57,5.57,0,0,0,1.25-6.83c-1.27-2.17-5.92-4.08-8.17-3" fill="#fff"/>
    </g>
  </g>
</svg>
