<svg xmlns="http://www.w3.org/2000/svg" xmlns:xlink="http://www.w3.org/1999/xlink" width="318" height="144" viewBox="0 0 318 144">
  <defs>
    <filter id="Rectángulo_35220" x="0" y="0" width="318" height="144" filterUnits="userSpaceOnUse">
      <feOffset dy="3" input="SourceAlpha"/>
      <feGaussianBlur stdDeviation="3" result="blur"/>
      <feFlood flood-opacity="0.161"/>
      <feComposite operator="in" in2="blur"/>
      <feComposite in="SourceGraphic"/>
    </filter>
  </defs>
  <g id="img4" transform="translate(9 6)">
    <g transform="matrix(1, 0, 0, 1, -9, -6)" filter="url(#Rectángulo_35220)">
      <rect id="Rectángulo_35220-2" data-name="Rectángulo 35220" width="300" height="126" rx="22" transform="translate(9 6)" fill="#fff"/>
    </g>
    <path id="Sustracción_2" data-name="Sustracción 2" d="M107,126H22A21.981,21.981,0,0,1,0,104V22A21.981,21.981,0,0,1,22,0h85V126Z" fill="#3e2ea6"/>
    <path id="Trazado_148843" data-name="Trazado 148843" d="M37.289,15.117h4.977V17h-7.32V5.625h2.344ZM48.359,17a2.507,2.507,0,0,1-.227-.758A2.732,2.732,0,0,1,46,17.156a3,3,0,0,1-2.059-.719,2.312,2.312,0,0,1-.816-1.812,2.389,2.389,0,0,1,1-2.062A4.915,4.915,0,0,1,47,11.836h1.039v-.484a1.393,1.393,0,0,0-.3-.937,1.183,1.183,0,0,0-.949-.352,1.345,1.345,0,0,0-.895.273.929.929,0,0,0-.324.75H43.313a2.268,2.268,0,0,1,.453-1.359,3,3,0,0,1,1.281-.98,4.669,4.669,0,0,1,1.859-.355,3.689,3.689,0,0,1,2.48.785,2.747,2.747,0,0,1,.918,2.207v3.664a4.041,4.041,0,0,0,.336,1.82V17Zm-1.867-1.57a1.945,1.945,0,0,0,.922-.223,1.462,1.462,0,0,0,.625-.6V13.156H47.2q-1.7,0-1.8,1.172l-.008.133a.9.9,0,0,0,.3.7A1.153,1.153,0,0,0,46.492,15.43Zm13.047-.094a1.481,1.481,0,0,0,1.016-.344,1.2,1.2,0,0,0,.406-.914h2.117a2.9,2.9,0,0,1-.469,1.574,3.093,3.093,0,0,1-1.262,1.109,3.949,3.949,0,0,1-1.77.395A3.67,3.67,0,0,1,56.719,16a4.56,4.56,0,0,1-1.047-3.184v-.148a4.508,4.508,0,0,1,1.039-3.117,3.627,3.627,0,0,1,2.852-1.164,3.555,3.555,0,0,1,2.543.9,3.2,3.2,0,0,1,.973,2.4H60.961a1.551,1.551,0,0,0-.406-1.072,1.51,1.51,0,0,0-2.223.163,3.333,3.333,0,0,0-.4,1.866v.235a3.375,3.375,0,0,0,.4,1.878A1.377,1.377,0,0,0,59.539,15.336ZM64.016,12.7a5.013,5.013,0,0,1,.484-2.242A3.546,3.546,0,0,1,65.895,8.93a4.069,4.069,0,0,1,2.113-.539A3.849,3.849,0,0,1,70.8,9.438a4.2,4.2,0,0,1,1.207,2.844l.016.578a4.418,4.418,0,0,1-1.086,3.121,4.209,4.209,0,0,1-5.832,0,4.5,4.5,0,0,1-1.09-3.187Zm2.258.16a3.16,3.16,0,0,0,.453,1.843,1.628,1.628,0,0,0,2.578.008,3.457,3.457,0,0,0,.461-2.015A3.128,3.128,0,0,0,69.3,10.86a1.5,1.5,0,0,0-1.3-.649,1.474,1.474,0,0,0-1.281.646A3.516,3.516,0,0,0,66.273,12.856Zm9.258-4.309.07.945a2.971,2.971,0,0,1,2.43-1.1A2.255,2.255,0,0,1,80.273,9.68a2.9,2.9,0,0,1,2.539-1.289,2.521,2.521,0,0,1,2.047.8,3.681,3.681,0,0,1,.672,2.41V17H83.266V11.609a1.61,1.61,0,0,0-.281-1.051,1.246,1.246,0,0,0-.992-.332,1.409,1.409,0,0,0-1.406.969l.008,5.8H78.336V11.617a1.59,1.59,0,0,0-.289-1.062,1.259,1.259,0,0,0-.984-.328,1.463,1.463,0,0,0-1.391.8V17H73.414V8.547Zm16.8,7.594a2.831,2.831,0,0,1-2.312,1.016,2.67,2.67,0,0,1-2.074-.781,3.335,3.335,0,0,1-.73-2.289V8.547h2.258v5.467q0,1.322,1.2,1.322a1.63,1.63,0,0,0,1.578-.8V8.547h2.266V17H92.391ZM98.3,8.547l.07.977a2.951,2.951,0,0,1,2.43-1.133,2.453,2.453,0,0,1,2,.789,3.682,3.682,0,0,1,.672,2.359V17h-2.258V11.594a1.465,1.465,0,0,0-.312-1.043,1.4,1.4,0,0,0-1.039-.324,1.553,1.553,0,0,0-1.43.813V17H96.172V8.547ZM107.563,17H105.3V8.547h2.266Zm-2.4-10.641a1.112,1.112,0,0,1,.34-.836,1.465,1.465,0,0,1,1.848,0,1.105,1.105,0,0,1,.344.836,1.108,1.108,0,0,1-.348.844,1.448,1.448,0,0,1-1.836,0A1.108,1.108,0,0,1,105.164,6.359Zm7.773,8.977a1.481,1.481,0,0,0,1.016-.344,1.2,1.2,0,0,0,.406-.914h2.117a2.9,2.9,0,0,1-.469,1.574,3.093,3.093,0,0,1-1.262,1.109,3.949,3.949,0,0,1-1.77.395A3.67,3.67,0,0,1,110.117,16a4.56,4.56,0,0,1-1.047-3.184v-.148a4.508,4.508,0,0,1,1.039-3.117,3.627,3.627,0,0,1,2.852-1.164,3.555,3.555,0,0,1,2.543.9,3.2,3.2,0,0,1,.973,2.4h-2.117a1.551,1.551,0,0,0-.406-1.072,1.51,1.51,0,0,0-2.223.163,3.333,3.333,0,0,0-.4,1.866v.235a3.375,3.375,0,0,0,.4,1.878A1.377,1.377,0,0,0,112.938,15.336ZM122.664,17a2.507,2.507,0,0,1-.227-.758,2.732,2.732,0,0,1-2.133.914,3,3,0,0,1-2.059-.719,2.312,2.312,0,0,1-.816-1.812,2.389,2.389,0,0,1,1-2.062,4.915,4.915,0,0,1,2.879-.727h1.039v-.484a1.393,1.393,0,0,0-.3-.937,1.183,1.183,0,0,0-.949-.352,1.345,1.345,0,0,0-.895.273.929.929,0,0,0-.324.75h-2.258a2.268,2.268,0,0,1,.453-1.359,3,3,0,0,1,1.281-.98,4.669,4.669,0,0,1,1.859-.355,3.689,3.689,0,0,1,2.48.785,2.747,2.747,0,0,1,.918,2.207v3.664a4.041,4.041,0,0,0,.336,1.82V17ZM120.8,15.43a1.945,1.945,0,0,0,.922-.223,1.462,1.462,0,0,0,.625-.6V13.156H121.5q-1.7,0-1.8,1.172l-.008.133a.9.9,0,0,0,.3.7A1.153,1.153,0,0,0,120.8,15.43Zm9.063-.094a1.481,1.481,0,0,0,1.016-.344,1.2,1.2,0,0,0,.406-.914H133.4a2.9,2.9,0,0,1-.469,1.574,3.093,3.093,0,0,1-1.262,1.109,3.949,3.949,0,0,1-1.77.395A3.67,3.67,0,0,1,127.039,16a4.56,4.56,0,0,1-1.047-3.184v-.148a4.508,4.508,0,0,1,1.039-3.117,3.627,3.627,0,0,1,2.852-1.164,3.555,3.555,0,0,1,2.543.9,3.2,3.2,0,0,1,.973,2.4h-2.117a1.551,1.551,0,0,0-.406-1.072,1.51,1.51,0,0,0-2.223.163,3.333,3.333,0,0,0-.4,1.866v.235a3.375,3.375,0,0,0,.4,1.878A1.377,1.377,0,0,0,129.859,15.336ZM137.07,17H134.8V8.547h2.266Zm-2.4-10.641a1.112,1.112,0,0,1,.34-.836,1.465,1.465,0,0,1,1.848,0,1.105,1.105,0,0,1,.344.836,1.109,1.109,0,0,1-.348.844,1.448,1.448,0,0,1-1.836,0A1.109,1.109,0,0,1,134.672,6.359Zm3.906,6.336a5.013,5.013,0,0,1,.484-2.242,3.546,3.546,0,0,1,1.395-1.523,4.069,4.069,0,0,1,2.113-.539,3.849,3.849,0,0,1,2.793,1.047,4.2,4.2,0,0,1,1.207,2.844l.016.578A4.418,4.418,0,0,1,145.5,15.98a4.209,4.209,0,0,1-5.832,0,4.5,4.5,0,0,1-1.09-3.187Zm2.258.16a3.16,3.16,0,0,0,.453,1.843,1.628,1.628,0,0,0,2.578.008,3.457,3.457,0,0,0,.461-2.015,3.128,3.128,0,0,0-.461-1.831,1.5,1.5,0,0,0-1.3-.649,1.474,1.474,0,0,0-1.281.646A3.516,3.516,0,0,0,140.836,12.856ZM143.016,5h2.461l-2.164,2.422h-1.836Zm7.039,3.547.07.977a2.951,2.951,0,0,1,2.43-1.133,2.453,2.453,0,0,1,2,.789,3.682,3.682,0,0,1,.672,2.359V17h-2.258V11.594a1.465,1.465,0,0,0-.312-1.043,1.4,1.4,0,0,0-1.039-.324,1.553,1.553,0,0,0-1.43.813V17H147.93V8.547Zm-73.223,29.7,1.57-5.7h2.359L77.91,41H75.754L72.9,32.547h2.359Zm8.813,2.914a4.15,4.15,0,0,1-3.027-1.141,4.054,4.054,0,0,1-1.168-3.039v-.219a5.106,5.106,0,0,1,.492-2.277,3.612,3.612,0,0,1,1.395-1.547,3.914,3.914,0,0,1,2.059-.543,3.508,3.508,0,0,1,2.73,1.094,4.444,4.444,0,0,1,1,3.1v.922H83.738a2.1,2.1,0,0,0,.66,1.328,2,2,0,0,0,1.395.5,2.437,2.437,0,0,0,2.039-.945l1.109,1.242a3.389,3.389,0,0,1-1.375,1.121A4.511,4.511,0,0,1,85.645,41.156Zm-.258-6.945a1.411,1.411,0,0,0-1.09.455,2.357,2.357,0,0,0-.535,1.3H86.9v-.181a1.681,1.681,0,0,0-.406-1.165A1.456,1.456,0,0,0,85.387,34.211Zm9.766.453a6.134,6.134,0,0,0-.812-.062,1.654,1.654,0,0,0-1.68.867V41H90.4V32.547h2.133l.063,1.008a2.092,2.092,0,0,1,1.883-1.164,2.366,2.366,0,0,1,.7.1Zm8.7,2.188a5.119,5.119,0,0,1-.867,3.168,2.872,2.872,0,0,1-2.422,1.137,2.639,2.639,0,0,1-2.2-1.055l-.1.9H96.238V29H98.5v4.3a2.571,2.571,0,0,1,2.055-.914,2.9,2.9,0,0,1,2.426,1.137,5.126,5.126,0,0,1,.879,3.2Zm-2.258-.164a3.363,3.363,0,0,0-.406-1.871,1.374,1.374,0,0,0-1.211-.59,1.489,1.489,0,0,0-1.484.883v3.336a1.509,1.509,0,0,0,1.5.891,1.394,1.394,0,0,0,1.438-1.078A5.562,5.562,0,0,0,101.6,36.688ZM110.145,41a2.507,2.507,0,0,1-.227-.758,2.732,2.732,0,0,1-2.133.914,3,3,0,0,1-2.059-.719,2.312,2.312,0,0,1-.816-1.812,2.389,2.389,0,0,1,1-2.062,4.915,4.915,0,0,1,2.879-.727h1.039v-.484a1.393,1.393,0,0,0-.3-.937,1.183,1.183,0,0,0-.949-.352,1.345,1.345,0,0,0-.895.273.929.929,0,0,0-.324.75H105.1a2.268,2.268,0,0,1,.453-1.359,3,3,0,0,1,1.281-.98,4.669,4.669,0,0,1,1.859-.355,3.689,3.689,0,0,1,2.48.785,2.747,2.747,0,0,1,.918,2.207v3.664a4.041,4.041,0,0,0,.336,1.82V41Zm-1.867-1.57a1.945,1.945,0,0,0,.922-.223,1.462,1.462,0,0,0,.625-.6V37.156h-.844q-1.7,0-1.8,1.172l-.008.133a.9.9,0,0,0,.3.7A1.153,1.153,0,0,0,108.277,39.43Zm7.93,1.57h-2.266V29h2.266Z" transform="translate(104 51)" fill="#12263f"/>
    <g id="conversation" transform="translate(1.629 11.219)">
      <path id="Trazado_148788" data-name="Trazado 148788" d="M180.592,475.606l-1.916-10.539-21.557,7.186,1.2,3.353Z" transform="translate(-121.909 -360.635)" fill="#415a6b"/>
      <path id="Trazado_148789" data-name="Trazado 148789" d="M280.821,314.45l2.156-1.916s7.665,6.707,4.79,9.1C285.132,324.271,280.581,316.606,280.821,314.45Z" transform="translate(-217.826 -242.354)" fill="#344a5e"/>
      <path id="Trazado_148790" data-name="Trazado 148790" d="M275.086,283.939s1.2-.719,1.2-1.2a9.91,9.91,0,0,1,1.437-2.635,24.015,24.015,0,0,1,2.874-2.635c.479-.479,2.156-3.593,2.874-4.072.479-.479,1.2,0,1.437,0,.24.24,0,.958-.24,1.677s-2.4,3.353-2.635,3.832.24.719.958.958c.719,0,3.832.24,4.79-.479a3.221,3.221,0,0,1,1.916-.479c.479-.24,3.353-1.916,4.072,0l-1.437.958s-1.677.958-2.635,1.437a15.316,15.316,0,0,0-2.4.958,3.2,3.2,0,0,0,.24,1.2,1.61,1.61,0,0,1-.719,1.677,3.433,3.433,0,0,1-.479,1.677,7.7,7.7,0,0,0-.719,1.2,2.489,2.489,0,0,1-1.916.958c-.719,0-2.874.958-4.072,1.2-1.2.479-6.946.958-6.946.958S270.535,285.855,275.086,283.939Z" transform="translate(-211.133 -211.842)" fill="#febe9d"/>
      <path id="Trazado_148791" data-name="Trazado 148791" d="M245.785,312.533s-2.4,1.916,0,6.228,4.79,3.114,4.79,3.114S243.151,328.1,239.8,329.3a17.533,17.533,0,0,1-5.27,1.2L232.851,319a50.238,50.238,0,0,1,5.988-2.156c1.437-.24,1.437-1.437,2.4-1.677C242.432,314.928,245.785,312.533,245.785,312.533Z" transform="translate(-180.635 -242.353)" fill="#415a6b"/>
      <g id="Grupo_107127" data-name="Grupo 107127" transform="translate(44.551 51.258)">
        <path id="Trazado_148792" data-name="Trazado 148792" d="M207.341,267.308l1.437,7.186s1.2,11.018,2.635,12.695c.719.958.958,3.114,1.2,4.79h3.114a16.706,16.706,0,0,0-1.437-4.072,33.754,33.754,0,0,1-3.114-10.779c-.24-2.635-1.677-26.348-2.4-29.7s-1.677-4.79-2.156-7.665-.719-8.862-1.916-10.06c-1.2-.958-5.988-1.437-5.988-1.437s1.677,6.707,2.874,9.1C202.55,239.763,207.1,262.758,207.341,267.308Z" transform="translate(-198.718 -228.266)" fill="#344a5e"/>
        <path id="Trazado_148793" data-name="Trazado 148793" d="M213.652,278.4c0,.24,0,.24.24.479C213.652,278.879,213.652,278.64,213.652,278.4Z" transform="translate(-210.299 -267.142)" fill="#344a5e"/>
      </g>
      <path id="Trazado_148794" data-name="Trazado 148794" d="M143.475,133.333l3.353,3.832a16.61,16.61,0,0,0,.719,3.832c.24.958-1.437,2.156-1.677,2.635s.958,3.593.958,4.79-1.437,1.2-2.156,1.2c0,0,0,2.4-1.2,1.916,0,0,.958.958,0,1.677s.24,3.832-2.635,3.593-5.509-.24-5.509-.24l.24,10.3-10.539-3.114-3.114-12.216,2.156-3.593c.479-1.2,5.749-11.5,5.749-11.5Z" transform="translate(-94.612 -103.393)" fill="#febe9d"/>
      <path id="Trazado_148795" data-name="Trazado 148795" d="M166.763,208.678a22.607,22.607,0,0,0,3.353.24c-.479-.24-5.749-4.072-7.665-8.383,0,0,.958,6.707,4.311,11.018Z" transform="translate(-126.044 -155.504)" fill="#eb996e"/>
      <path id="Trazado_148796" data-name="Trazado 148796" d="M144.872,300.643h0c-1.437,2.874-5.749,6.467-20.36,5.27l-10.06-51.737,7.9-3.114,2.4.958a9.294,9.294,0,0,1,1.916,2.156,2.4,2.4,0,0,0,1.437,1.2s1.437-3.353,1.437-5.03c0-1.437,5.27,1.437,5.27,1.437s.479.958,1.2,2.635h0a5.238,5.238,0,0,1,.719,2.156c0,.24,0,.24.24.479a15.215,15.215,0,0,1,.479,1.677v.958a.88.88,0,0,0,.24.719v.958a.88.88,0,0,0,.24.719v.479h0v.958c.24.719.24,1.437.479,2.156v.24c.24,1.2.479,2.635.719,4.072v.479c.24.719.24,1.437.479,1.916v1.437a.88.88,0,0,0,.24.719v.479a.88.88,0,0,0,.24.719v.479a.88.88,0,0,0,.24.719v.24a.88.88,0,0,0,.24.719h0a10.367,10.367,0,0,0,.24,1.2v1.2a2.159,2.159,0,0,0,.24,1.2v2.875l1.437,7.186C143.434,291.3,143.913,296.572,144.872,300.643Z" transform="translate(-88.823 -193.816)" fill="#ced6e0"/>
      <path id="Trazado_148797" data-name="Trazado 148797" d="M181.022,336.84c.479-1.2,1.2-2.4,1.2-3.353.24-1.677-.719-6.707-2.156-10.3a122.069,122.069,0,0,1-4.551-15.569c-.479-2.874-.479-6.467-1.437-10.06a33.022,33.022,0,0,1-.958-7.425,39,39,0,0,0,.719,7.425c.479,1.437,1.437,10.06,1.437,10.06.479,3.593,3.353,12.455,4.79,15.809a33.809,33.809,0,0,1,1.916,10.06,14.959,14.959,0,0,1-.958,3.353Z" transform="translate(-134.315 -224.983)" fill="#adb3ba"/>
      <path id="Trazado_148798" data-name="Trazado 148798" d="M55.773,293.633A62.913,62.913,0,0,0,57.21,281.9c0-5.27-2.635-11.737-2.635-11.737L40.2,230.4s-8.383,3.114-12.455,4.79-5.03,3.832-5.03,3.832l5.509,54.612Z" transform="translate(-17.689 -178.662)" fill="#344a5e"/>
      <path id="Trazado_148799" data-name="Trazado 148799" d="M96.734,216.533s-4.311,2.635-5.03,4.072a11.575,11.575,0,0,0-.719,4.072l2.874,1.677L91.7,228.27s18.443,34.252,18.922,42.635c0,0-2.4-14.132-4.072-21.557S96.734,219.168,96.734,216.533Z" transform="translate(-70.625 -167.91)" fill="#415a6b"/>
      <path id="Trazado_148800" data-name="Trazado 148800" d="M156.184,426.667h7.186a12.468,12.468,0,0,1,1.2.719c.479.24,2.4,1.437,3.114,1.437a2.625,2.625,0,0,1,.958.479l1.916.24s.958,3.114-4.072,1.677l-2.874-1.2A11.055,11.055,0,0,1,166,431.7a17.873,17.873,0,0,0,2.874,1.677c.24.24,1.437.719,1.677.958s2.4,0,2.635,1.2c.24.958-1.2.958-1.2.958h-2.874s-.479,1.677-1.2,1.437l-.958-.24a1.869,1.869,0,0,1,0,1.2,1.374,1.374,0,0,1-1.677.479l-.719-.24s.24,1.437-1.677.958a5.912,5.912,0,0,1-2.635-.958,2.071,2.071,0,0,1-1.437-.719c-.719-.479-3.832-2.4-3.832-2.4S155.465,427.865,156.184,426.667Z" transform="translate(-120.255 -330.858)" fill="#febe9d"/>
      <path id="Trazado_148801" data-name="Trazado 148801" d="M203.579,281.938c-.24-.479-4.311-12.455-4.551-17.006-.479-4.79-3.353-16.048-5.988-21.078-1.677-3.114-.958-4.79-.24-5.988.479,0,1.2.24,1.916.24l1.2,1.916h1.2s3.353,11.018,4.79,19.162C203.1,267.088,203.1,279.064,203.579,281.938Z" transform="translate(-148.967 -184.453)" fill="#415a6b"/>
      <path id="Trazado_148802" data-name="Trazado 148802" d="M286.927,397.141s-5.749-.479-6.946-1.677-1.2-7.665.24-8.383S286.927,397.141,286.927,397.141Z" transform="translate(-216.507 -300.134)" fill="#adb3ba"/>
      <path id="Trazado_148803" data-name="Trazado 148803" d="M233.9,371.353s-3.353-.958-2.156-3.353l4.072.719a20.429,20.429,0,0,1,5.27,1.916c1.916,1.2,0,8.862,0,8.862s-.479.479-2.156.479a10.77,10.77,0,0,1-4.311-.719c-1.2-.479-3.832-1.2-5.03-2.4-1.2-.958-5.269-5.269-5.269-5.269s.479-1.2,2.874,0a15.118,15.118,0,0,1,2.156.958l2.4.479H235.1a4.475,4.475,0,0,0,.958-.719A11.8,11.8,0,0,1,233.9,371.353Z" transform="translate(-174.019 -285.365)" fill="#febe9d"/>
      <path id="Trazado_148804" data-name="Trazado 148804" d="M286.447,393.6s1.916,8.623-2.4,6.946l13.174,8.383,3.353-10.06Z" transform="translate(-220.339 -305.216)" fill="#344a5e"/>
      <path id="Trazado_148805" data-name="Trazado 148805" d="M240.431,348.524s-.24-.479-1.437-.719a38.782,38.782,0,0,1-4.072-1.437,2.539,2.539,0,0,1-1.437-.958c-.719-.719-3.832-4.311-3.832-4.311s.719-.719,1.2-.24l-1.2-.958a2.581,2.581,0,0,1,3.353.479,6.284,6.284,0,0,1,2.874,1.916l2.156.958,4.072.479,1.677-.719s-1.677-.719-1.677-2.156,1.677-1.2,2.635-.719c.958.719.719.958,1.916,1.2a3.688,3.688,0,0,1,2.4,1.2l.24.479s-2.156,5.749-4.79,5.749C242.107,348.524,240.431,348.524,240.431,348.524Z" transform="translate(-178.154 -263.254)" fill="#febe9d"/>
      <g id="Grupo_107128" data-name="Grupo 107128" transform="translate(52.695 77.366)">
        <path id="Trazado_148806" data-name="Trazado 148806" d="M234.985,344.533l.24.24.719.719.958.958,1.2,1.2c.479.479.958.719,1.2,1.2l.24.24.24.24c.24,0,.479.24.719.24.479.24.719.479.958.479l.24.24h0a.235.235,0,0,1-.24-.24.837.837,0,0,0-.479-.24c-.24,0-.24-.24-.479-.24s-.479-.24-.719-.24a2660.289,2660.289,0,0,1-.479-.479,6.353,6.353,0,0,1-1.437-1.2c-.479-.479-.958-.719-1.2-1.2-.24-.24-.24-.479-.479-.479-.24-.24-.24-.479-.479-.479l-.719-.719C235.225,344.773,234.985,344.533,234.985,344.533Z" transform="translate(-234.985 -344.533)" fill="#f7b64c"/>
        <path id="Trazado_148807" data-name="Trazado 148807" d="M241.385,344.533l.24.24a3.3,3.3,0,0,1,.719.958c.24.24.479.719.958,1.2a6.354,6.354,0,0,1,1.437,1.2c.24.24.479.479.719.479.24.24.479.24.719.479a3.4,3.4,0,0,0,1.437.479,1.81,1.81,0,0,0,.958.24.836.836,0,0,1,.479.24h-.479c-.239,0-.719-.24-.958-.24s-.479-.24-.719-.24-.479-.24-.719-.24c-.479-.24-.958-.719-1.437-.958-.24-.24-.479-.479-.719-.479-.24-.24-.479-.479-.719-.479-.24-.24-.479-.479-.479-.719-.24-.24-.24-.479-.479-.479-.24-.479-.479-.719-.479-.958Z" transform="translate(-239.948 -344.533)" fill="#f7b64c"/>
      </g>
      <path id="Trazado_148808" data-name="Trazado 148808" d="M382.448,178.852l-6.707-.719s-2.635,5.749-2.635,6.946a2.986,2.986,0,0,1,0,2.156c-.479.958-2.635,2.874-2.874,3.832a1.81,1.81,0,0,0,.719,1.916l.958.479s-1.437,2.156,0,2.635c0,0-.958.24-.479,1.437s-1.916,4.072,1.916,4.79,5.27,2.874,5.03,4.551-4.551,7.425-4.551,7.425c-7.665,10.3,5.03,4.79,7.425,1.677l12.216-9.1-1.677-18.443Z" transform="translate(-287.117 -138.133)" fill="#febe9d"/>
      <path id="Trazado_148809" data-name="Trazado 148809" d="M351.5,316.628l-3.353,3.114,2.4-7.186s-4.311,3.593-6.228,6.946-6.228,17.964-5.27,24.91L340,351.6l18.683-35.689,2.4-5.509Z" transform="translate(-262.877 -240.699)" fill="#ced6e0"/>
      <path id="Trazado_148810" data-name="Trazado 148810" d="M349.6,316.8s-4.551,6.467-5.27,9.82-5.27,13.653-5.509,19.162l-.24,5.749s-1.2-13.653,1.437-20.839a62.64,62.64,0,0,1,7.425-13.653Z" transform="translate(-262.412 -245.662)" fill="#415a6b"/>
      <path id="Trazado_148811" data-name="Trazado 148811" d="M357.639,342.435a10.474,10.474,0,0,0-1.437-2.4c-1.2-1.437-.24-5.03-.479-7.186s4.79-10.539,6.467-14.371c1.437-4.072,3.593-16.767,1.437-20.839a8.332,8.332,0,0,0-6.467-4.311s-10.779,8.623-16.287,13.174-13.892,15.33-15.33,23.952a63.842,63.842,0,0,0-.958,12.216l33.054-.24Z" transform="translate(-251.77 -227.464)" fill="#344a5e"/>
      <path id="Trazado_148812" data-name="Trazado 148812" d="M371.765,291.2l3.832,3.114a77,77,0,0,0-13.174,8.623c-5.988,5.03-12.934,12.934-14.371,15.809,0,0,5.03-10.779,13.413-18.2C369.609,293.116,371.765,291.2,371.765,291.2Z" transform="translate(-269.967 -225.81)" fill="#415a6b"/>
      <path id="Trazado_148813" data-name="Trazado 148813" d="M388.585,268.736h0a6.366,6.366,0,0,1,3.593,2.635c4.79-2.635,6.467-7.9,6.707-7.9C393.615,269.694,388.585,268.736,388.585,268.736Z" transform="translate(-301.398 -204.304)" fill="#eb996e"/>
      <path id="Trazado_148814" data-name="Trazado 148814" d="M409.118,284.179l1.677,2.874a56.477,56.477,0,0,1-7.9,5.27l-1.2-.719s-1.2,2.635-6.707,4.79c2.4-4.072,10.06-10.539,13.413-12.216A.449.449,0,0,1,409.118,284.179Z" transform="translate(-306.362 -220.227)" fill="#f3f3f3"/>
      <path id="Trazado_148815" data-name="Trazado 148815" d="M393.919,165.133a74.049,74.049,0,0,0,3.114,7.425c2.156,4.551,3.593,7.186,6.467,6.707s3.114-2.156,4.311-.479-.479,8.862,1.677,12.455,8.623,9.82,7.665,17.485l-1.2,7.665a15.173,15.173,0,0,0,4.551-9.341c.479-5.749-.958-8.623-1.437-17.006s-.24-18.922-3.593-23.234S399.668,157.948,393.919,165.133Z" transform="translate(-305.535 -125.133)" fill="#f3705a"/>
      <ellipse id="Elipse_4905" data-name="Elipse 4905" cx="2.395" cy="3.833" rx="2.395" ry="3.833" transform="matrix(-0.931, -0.364, 0.364, -0.931, 100.976, 60.475)" fill="#febe9d"/>
      <path id="Trazado_148816" data-name="Trazado 148816" d="M299.778,338.964s2.635-11.5,11.258-11.5,8.623,7.425,8.144,11.258a19.017,19.017,0,0,1-4.311,9.1c-1.916,1.916-15.09,15.33-15.09,15.33s-2.874,3.353-5.749,2.156-10.779-9.581-11.5-11.258a17.323,17.323,0,0,0-4.072-5.27c-1.437-.958-9.341-9.581-9.341-9.581s8.144-2.156,9.82-4.311.958-2.874.958-2.874,3.593,4.311,4.551,5.749,4.551,4.551,5.749,6.707,2.156,4.311,2.874,5.27a5.365,5.365,0,0,0,2.4,1.677c.24,0,.24-1.677.479-2.156C295.945,348.785,299.778,338.964,299.778,338.964Z" transform="translate(-208.759 -253.933)" fill="#415a6b"/>
      <path id="Trazado_148817" data-name="Trazado 148817" d="M393.919,178.133a19.1,19.1,0,0,0,1.916,7.665c1.916,3.832,2.635,5.03,2.635,5.03s-3.353-8.623-3.114-10.539" transform="translate(-305.535 -138.133)" fill="#f3705a"/>
      <path id="Trazado_148818" data-name="Trazado 148818" d="M382.252,297.6l-6.467,5.03s2.156,3.832,1.677,5.509l-.719,1.677s5.988-9.341,6.228-10.3A2.393,2.393,0,0,0,382.252,297.6Z" transform="translate(-291.473 -230.773)" fill="#f3f3f3"/>
      <path id="Trazado_148819" data-name="Trazado 148819" d="M128.4,116.082s1.437.958,2.635-1.437,1.2-4.551,3.114-5.03,3.353,2.635,3.593,5.27h1.437s-.24-3.114,1.677-4.551c1.677-1.437,6.946-3.114,7.9-4.072a4.732,4.732,0,0,1,2.874-.958,3.991,3.991,0,0,0,1.437-5.749c-2.4-3.832-10.539-10.3-18.443-5.749C122.653,100.514,130.557,109.855,128.4,116.082Z" transform="translate(-99.18 -71.531)" fill="#344a5e"/>
      <g id="Grupo_107129" data-name="Grupo 107129" transform="translate(25.811 47.186)">
        <path id="Trazado_148820" data-name="Trazado 148820" d="M117.235,210.133s5.988,9.341,8.144,11.018a5.3,5.3,0,0,0-2.874.479c-1.677.719-6.467,2.4-6.467,2.4s-.24-8.144-.719-9.82A3.69,3.69,0,0,1,117.235,210.133Z" transform="translate(-115.261 -210.133)" fill="#f3f3f3"/>
        <path id="Trazado_148821" data-name="Trazado 148821" d="M177.865,238a4.045,4.045,0,0,1-.479-1.2h0C177.625,237.279,177.865,237.519,177.865,238Z" transform="translate(-163.436 -230.812)" fill="#f3f3f3"/>
        <path id="Trazado_148822" data-name="Trazado 148822" d="M179.586,240.393c.24.479,1.437,1.916-3.114,5.988-.958.958-2.874.719-3.353,2.635a28.26,28.26,0,0,1,.24-3.832c.24-1.2,1.677-4.072.958-6.946a1.83,1.83,0,0,0-.479-1.2h0l2.635-.24a3.464,3.464,0,0,1,1.677.479l3.114,3.114C181.5,240.153,179.586,239.914,179.586,240.393Z" transform="translate(-160.127 -230.812)" fill="#f3f3f3"/>
      </g>
      <path id="Trazado_148823" data-name="Trazado 148823" d="M3.193,276.041s-.719-9.82,3.832-10.539c4.79-.719,7.9,12.455,8.623,16.288.479,3.832.479,13.413,0,13.892s1.2,2.4,1.437,3.114,3.114-.24,4.551.479,2.874,2.156,3.593,2.156h11.5s-2.156,11.5-1.437,15.33c0,0-12.934-2.4-15.33-3.353S8.222,309.1,5.588,307.9s-5.27-3.353-5.27-5.749S3.193,276.041,3.193,276.041Z" transform="translate(-0.318 -205.861)" fill="#415a6b"/>
      <path id="Trazado_148824" data-name="Trazado 148824" d="M320.319,12.7c0,7.186,8.383,12.695,18.922,12.695h.24l12.934,6.946V21.8c3.353-2.4,5.509-5.509,5.509-9.1C357.924,5.51,349.541,0,339,0,328.942,0,320.319,5.749,320.319,12.7Z" transform="translate(-248.462 -0.001)" fill="#8a7cbf"/>
      <g id="Grupo_107130" data-name="Grupo 107130" transform="translate(77.845 9.581)">
        <ellipse id="Elipse_4906" data-name="Elipse 4906" cx="3.114" cy="3.114" rx="3.114" ry="3.114" transform="translate(19.88)" fill="#fff"/>
        <ellipse id="Elipse_4907" data-name="Elipse 4907" cx="3.114" cy="3.114" rx="3.114" ry="3.114" transform="translate(9.82)" fill="#fff"/>
        <ellipse id="Elipse_4908" data-name="Elipse 4908" cx="3.114" cy="3.114" rx="3.114" ry="3.114" fill="#fff"/>
      </g>
      <path id="Trazado_148825" data-name="Trazado 148825" d="M280.057,56.429c0,7.186-8.383,12.695-18.922,12.695h-.24l-12.934,6.946V65.53c-3.353-2.4-5.509-5.509-5.509-9.1,0-7.186,8.383-12.695,18.922-12.695C271.674,43.734,280.057,49.482,280.057,56.429Z" transform="translate(-188.08 -33.914)" fill="#dad6f7"/>
      <g id="Grupo_107131" data-name="Grupo 107131" transform="translate(60.121 19.401)">
        <ellipse id="Elipse_4909" data-name="Elipse 4909" cx="3.114" cy="3.114" rx="3.114" ry="3.114" fill="#fff"/>
        <ellipse id="Elipse_4910" data-name="Elipse 4910" cx="3.114" cy="3.114" rx="3.114" ry="3.114" transform="translate(9.82)" fill="#fff"/>
        <ellipse id="Elipse_4911" data-name="Elipse 4911" cx="3.114" cy="3.114" rx="3.114" ry="3.114" transform="translate(19.88)" fill="#fff"/>
      </g>
    </g>
  </g>
</svg>
