<svg xmlns="http://www.w3.org/2000/svg" xmlns:xlink="http://www.w3.org/1999/xlink" width="318" height="144" viewBox="0 0 318 144">
  <defs>
    <filter id="Rectángulo_35223" x="0" y="0" width="318" height="144" filterUnits="userSpaceOnUse">
      <feOffset dy="3" input="SourceAlpha"/>
      <feGaussianBlur stdDeviation="3" result="blur"/>
      <feFlood flood-opacity="0.161"/>
      <feComposite operator="in" in2="blur"/>
      <feComposite in="SourceGraphic"/>
    </filter>
  </defs>
  <g id="img5" transform="translate(9.378 6)">
    <g transform="matrix(1, 0, 0, 1, -9.38, -6)" filter="url(#Rectángulo_35223)">
      <rect id="Rectángulo_35223-2" data-name="Rectángulo 35223" width="300" height="126" rx="22" transform="translate(9 6)" fill="#fff"/>
    </g>
    <path id="Sustracción_3" data-name="Sustracción 3" d="M107,126H22A21.982,21.982,0,0,1,0,104V22A21.981,21.981,0,0,1,22,0h85V126Z" transform="translate(-0.378)" fill="#3e2ea6"/>
    <path id="Trazado_148844" data-name="Trazado 148844" d="M37.289,15.117h4.977V17h-7.32V5.625h2.344ZM48.359,17a2.507,2.507,0,0,1-.227-.758A2.732,2.732,0,0,1,46,17.156a3,3,0,0,1-2.059-.719,2.312,2.312,0,0,1-.816-1.812,2.389,2.389,0,0,1,1-2.062A4.915,4.915,0,0,1,47,11.836h1.039v-.484a1.393,1.393,0,0,0-.3-.937,1.183,1.183,0,0,0-.949-.352,1.345,1.345,0,0,0-.895.273.929.929,0,0,0-.324.75H43.313a2.268,2.268,0,0,1,.453-1.359,3,3,0,0,1,1.281-.98,4.669,4.669,0,0,1,1.859-.355,3.689,3.689,0,0,1,2.48.785,2.747,2.747,0,0,1,.918,2.207v3.664a4.041,4.041,0,0,0,.336,1.82V17Zm-1.867-1.57a1.945,1.945,0,0,0,.922-.223,1.462,1.462,0,0,0,.625-.6V13.156H47.2q-1.7,0-1.8,1.172l-.008.133a.9.9,0,0,0,.3.7A1.153,1.153,0,0,0,46.492,15.43Zm13.047-.094a1.481,1.481,0,0,0,1.016-.344,1.2,1.2,0,0,0,.406-.914h2.117a2.9,2.9,0,0,1-.469,1.574,3.093,3.093,0,0,1-1.262,1.109,3.949,3.949,0,0,1-1.77.395A3.67,3.67,0,0,1,56.719,16a4.56,4.56,0,0,1-1.047-3.184v-.148a4.508,4.508,0,0,1,1.039-3.117,3.627,3.627,0,0,1,2.852-1.164,3.555,3.555,0,0,1,2.543.9,3.2,3.2,0,0,1,.973,2.4H60.961a1.551,1.551,0,0,0-.406-1.072,1.51,1.51,0,0,0-2.223.163,3.333,3.333,0,0,0-.4,1.866v.235a3.375,3.375,0,0,0,.4,1.878A1.377,1.377,0,0,0,59.539,15.336ZM64.016,12.7a5.013,5.013,0,0,1,.484-2.242A3.546,3.546,0,0,1,65.895,8.93a4.069,4.069,0,0,1,2.113-.539A3.849,3.849,0,0,1,70.8,9.438a4.2,4.2,0,0,1,1.207,2.844l.016.578a4.418,4.418,0,0,1-1.086,3.121,4.209,4.209,0,0,1-5.832,0,4.5,4.5,0,0,1-1.09-3.187Zm2.258.16a3.16,3.16,0,0,0,.453,1.843,1.628,1.628,0,0,0,2.578.008,3.457,3.457,0,0,0,.461-2.015A3.128,3.128,0,0,0,69.3,10.86a1.5,1.5,0,0,0-1.3-.649,1.474,1.474,0,0,0-1.281.646A3.516,3.516,0,0,0,66.273,12.856Zm9.258-4.309.07.945a2.971,2.971,0,0,1,2.43-1.1A2.255,2.255,0,0,1,80.273,9.68a2.9,2.9,0,0,1,2.539-1.289,2.521,2.521,0,0,1,2.047.8,3.681,3.681,0,0,1,.672,2.41V17H83.266V11.609a1.61,1.61,0,0,0-.281-1.051,1.246,1.246,0,0,0-.992-.332,1.409,1.409,0,0,0-1.406.969l.008,5.8H78.336V11.617a1.59,1.59,0,0,0-.289-1.062,1.259,1.259,0,0,0-.984-.328,1.463,1.463,0,0,0-1.391.8V17H73.414V8.547Zm16.8,7.594a2.831,2.831,0,0,1-2.312,1.016,2.67,2.67,0,0,1-2.074-.781,3.335,3.335,0,0,1-.73-2.289V8.547h2.258v5.467q0,1.322,1.2,1.322a1.63,1.63,0,0,0,1.578-.8V8.547h2.266V17H92.391ZM98.3,8.547l.07.977a2.951,2.951,0,0,1,2.43-1.133,2.453,2.453,0,0,1,2,.789,3.682,3.682,0,0,1,.672,2.359V17h-2.258V11.594a1.465,1.465,0,0,0-.312-1.043,1.4,1.4,0,0,0-1.039-.324,1.553,1.553,0,0,0-1.43.813V17H96.172V8.547ZM107.563,17H105.3V8.547h2.266Zm-2.4-10.641a1.112,1.112,0,0,1,.34-.836,1.465,1.465,0,0,1,1.848,0,1.105,1.105,0,0,1,.344.836,1.108,1.108,0,0,1-.348.844,1.448,1.448,0,0,1-1.836,0A1.108,1.108,0,0,1,105.164,6.359Zm7.773,8.977a1.481,1.481,0,0,0,1.016-.344,1.2,1.2,0,0,0,.406-.914h2.117a2.9,2.9,0,0,1-.469,1.574,3.093,3.093,0,0,1-1.262,1.109,3.949,3.949,0,0,1-1.77.395A3.67,3.67,0,0,1,110.117,16a4.56,4.56,0,0,1-1.047-3.184v-.148a4.508,4.508,0,0,1,1.039-3.117,3.627,3.627,0,0,1,2.852-1.164,3.555,3.555,0,0,1,2.543.9,3.2,3.2,0,0,1,.973,2.4h-2.117a1.551,1.551,0,0,0-.406-1.072,1.51,1.51,0,0,0-2.223.163,3.333,3.333,0,0,0-.4,1.866v.235a3.375,3.375,0,0,0,.4,1.878A1.377,1.377,0,0,0,112.938,15.336ZM122.664,17a2.507,2.507,0,0,1-.227-.758,2.732,2.732,0,0,1-2.133.914,3,3,0,0,1-2.059-.719,2.312,2.312,0,0,1-.816-1.812,2.389,2.389,0,0,1,1-2.062,4.915,4.915,0,0,1,2.879-.727h1.039v-.484a1.393,1.393,0,0,0-.3-.937,1.183,1.183,0,0,0-.949-.352,1.345,1.345,0,0,0-.895.273.929.929,0,0,0-.324.75h-2.258a2.268,2.268,0,0,1,.453-1.359,3,3,0,0,1,1.281-.98,4.669,4.669,0,0,1,1.859-.355,3.689,3.689,0,0,1,2.48.785,2.747,2.747,0,0,1,.918,2.207v3.664a4.041,4.041,0,0,0,.336,1.82V17ZM120.8,15.43a1.945,1.945,0,0,0,.922-.223,1.462,1.462,0,0,0,.625-.6V13.156H121.5q-1.7,0-1.8,1.172l-.008.133a.9.9,0,0,0,.3.7A1.153,1.153,0,0,0,120.8,15.43Zm9.063-.094a1.481,1.481,0,0,0,1.016-.344,1.2,1.2,0,0,0,.406-.914H133.4a2.9,2.9,0,0,1-.469,1.574,3.093,3.093,0,0,1-1.262,1.109,3.949,3.949,0,0,1-1.77.395A3.67,3.67,0,0,1,127.039,16a4.56,4.56,0,0,1-1.047-3.184v-.148a4.508,4.508,0,0,1,1.039-3.117,3.627,3.627,0,0,1,2.852-1.164,3.555,3.555,0,0,1,2.543.9,3.2,3.2,0,0,1,.973,2.4h-2.117a1.551,1.551,0,0,0-.406-1.072,1.51,1.51,0,0,0-2.223.163,3.333,3.333,0,0,0-.4,1.866v.235a3.375,3.375,0,0,0,.4,1.878A1.377,1.377,0,0,0,129.859,15.336ZM137.07,17H134.8V8.547h2.266Zm-2.4-10.641a1.112,1.112,0,0,1,.34-.836,1.465,1.465,0,0,1,1.848,0,1.105,1.105,0,0,1,.344.836,1.109,1.109,0,0,1-.348.844,1.448,1.448,0,0,1-1.836,0A1.109,1.109,0,0,1,134.672,6.359Zm3.906,6.336a5.013,5.013,0,0,1,.484-2.242,3.546,3.546,0,0,1,1.395-1.523,4.069,4.069,0,0,1,2.113-.539,3.849,3.849,0,0,1,2.793,1.047,4.2,4.2,0,0,1,1.207,2.844l.016.578A4.418,4.418,0,0,1,145.5,15.98a4.209,4.209,0,0,1-5.832,0,4.5,4.5,0,0,1-1.09-3.187Zm2.258.16a3.16,3.16,0,0,0,.453,1.843,1.628,1.628,0,0,0,2.578.008,3.457,3.457,0,0,0,.461-2.015,3.128,3.128,0,0,0-.461-1.831,1.5,1.5,0,0,0-1.3-.649,1.474,1.474,0,0,0-1.281.646A3.516,3.516,0,0,0,140.836,12.856ZM143.016,5h2.461l-2.164,2.422h-1.836Zm7.039,3.547.07.977a2.951,2.951,0,0,1,2.43-1.133,2.453,2.453,0,0,1,2,.789,3.682,3.682,0,0,1,.672,2.359V17h-2.258V11.594a1.465,1.465,0,0,0-.312-1.043,1.4,1.4,0,0,0-1.039-.324,1.553,1.553,0,0,0-1.43.813V17H147.93V8.547Zm-85.3,24,.07.977a2.951,2.951,0,0,1,2.43-1.133,2.453,2.453,0,0,1,2,.789,3.682,3.682,0,0,1,.672,2.359V41H67.664V35.594a1.465,1.465,0,0,0-.312-1.043,1.4,1.4,0,0,0-1.039-.324,1.553,1.553,0,0,0-1.43.813V41H62.625V32.547ZM71.281,36.7a5.013,5.013,0,0,1,.484-2.242A3.546,3.546,0,0,1,73.16,32.93a4.069,4.069,0,0,1,2.113-.539,3.849,3.849,0,0,1,2.793,1.047,4.2,4.2,0,0,1,1.207,2.844l.016.578A4.418,4.418,0,0,1,78.2,39.98a4.209,4.209,0,0,1-5.832,0,4.5,4.5,0,0,1-1.09-3.187Zm2.258.16a3.16,3.16,0,0,0,.453,1.843,1.628,1.628,0,0,0,2.578.008,3.457,3.457,0,0,0,.461-2.015,3.128,3.128,0,0,0-.461-1.831,1.5,1.5,0,0,0-1.3-.649,1.474,1.474,0,0,0-1.281.646A3.516,3.516,0,0,0,73.539,36.856Zm14.289,1.387,1.57-5.7h2.359L88.906,41H86.75L83.9,32.547h2.359Zm8.813,2.914a4.15,4.15,0,0,1-3.027-1.141,4.054,4.054,0,0,1-1.168-3.039v-.219a5.106,5.106,0,0,1,.492-2.277,3.612,3.612,0,0,1,1.395-1.547,3.914,3.914,0,0,1,2.059-.543,3.508,3.508,0,0,1,2.73,1.094,4.444,4.444,0,0,1,1,3.1v.922H94.734a2.1,2.1,0,0,0,.66,1.328,2,2,0,0,0,1.395.5,2.437,2.437,0,0,0,2.039-.945l1.109,1.242a3.389,3.389,0,0,1-1.375,1.121A4.511,4.511,0,0,1,96.641,41.156Zm-.258-6.945a1.411,1.411,0,0,0-1.09.455,2.357,2.357,0,0,0-.535,1.3H97.9v-.181a1.681,1.681,0,0,0-.406-1.165A1.456,1.456,0,0,0,96.383,34.211Zm9.766.453a6.134,6.134,0,0,0-.812-.062,1.654,1.654,0,0,0-1.68.867V41H101.4V32.547h2.133l.063,1.008a2.092,2.092,0,0,1,1.883-1.164,2.366,2.366,0,0,1,.7.1Zm8.7,2.188a5.119,5.119,0,0,1-.867,3.168,2.872,2.872,0,0,1-2.422,1.137,2.639,2.639,0,0,1-2.2-1.055l-.1.9h-2.031V29h2.258v4.3a2.571,2.571,0,0,1,2.055-.914,2.9,2.9,0,0,1,2.426,1.137,5.126,5.126,0,0,1,.879,3.2Zm-2.258-.164a3.363,3.363,0,0,0-.406-1.871,1.374,1.374,0,0,0-1.211-.59,1.489,1.489,0,0,0-1.484.883v3.336a1.509,1.509,0,0,0,1.5.891,1.394,1.394,0,0,0,1.438-1.078A5.562,5.562,0,0,0,112.594,36.688ZM121.141,41a2.507,2.507,0,0,1-.227-.758,2.732,2.732,0,0,1-2.133.914,3,3,0,0,1-2.059-.719,2.312,2.312,0,0,1-.816-1.812,2.389,2.389,0,0,1,1-2.062,4.915,4.915,0,0,1,2.879-.727h1.039v-.484a1.393,1.393,0,0,0-.3-.937,1.183,1.183,0,0,0-.949-.352,1.345,1.345,0,0,0-.895.273.929.929,0,0,0-.324.75h-2.258a2.268,2.268,0,0,1,.453-1.359,3,3,0,0,1,1.281-.98,4.669,4.669,0,0,1,1.859-.355,3.689,3.689,0,0,1,2.48.785,2.747,2.747,0,0,1,.918,2.207v3.664a4.041,4.041,0,0,0,.336,1.82V41Zm-1.867-1.57a1.945,1.945,0,0,0,.922-.223,1.462,1.462,0,0,0,.625-.6V37.156h-.844q-1.7,0-1.8,1.172l-.008.133a.9.9,0,0,0,.3.7A1.153,1.153,0,0,0,119.273,39.43ZM127.2,41h-2.266V29H127.2Z" transform="translate(104.622 51)" fill="#12263f"/>
    <g id="skills" transform="translate(0 9.313)">
      <g id="Grupo_107132" data-name="Grupo 107132" transform="translate(72.352 13.149)">
        <path id="Trazado_148826" data-name="Trazado 148826" d="M348.606,148.494H336.43a2.3,2.3,0,0,1-2.435-2.435V60.1a2.3,2.3,0,0,1,2.435-2.435h12.176v4.87h-9.74v81.089h9.74Z" transform="translate(-330.099 -57.664)" fill="#415a6b"/>
        <rect id="Rectángulo_35216" data-name="Rectángulo 35216" width="17.289" height="4.87" transform="translate(0 42.858)" fill="#415a6b"/>
      </g>
      <g id="Grupo_107133" data-name="Grupo 107133" transform="translate(10.5 96.674)">
        <path id="Trazado_148827" data-name="Trazado 148827" d="M53.544,435.532l-4.383,1.218L46,431.392l4.383-1.461Z" transform="translate(-45.995 -428.47)" fill="#febe9d"/>
        <path id="Trazado_148828" data-name="Trazado 148828" d="M260.327,428.888l-3.653,4.627L254,426.453l5.114-2.922Z" transform="translate(-206.51 -423.531)" fill="#febe9d"/>
      </g>
      <g id="Grupo_107134" data-name="Grupo 107134" transform="translate(0 40.423)">
        <path id="Trazado_148829" data-name="Trazado 148829" d="M251.245,179.566l1.948-2.435s4.14,4.383,5.6,9.253,2.192,10.227,3.409,13.15,4.627,9.741,3.409,13.88c-.974,4.14-6.331,17.776-6.818,19.237l-.731,1.7-3.653,6.088a10.923,10.923,0,0,0-6.575-4.87l2.192-5.6a13.626,13.626,0,0,0,1.461-4.383c.244-2.192,0-3.409.487-5.844.487-2.192.974-5.357,1.217-6.331.244-1.217,1.217-2.679.487-4.14s-6.088-12.663-6.088-12.663Z" transform="translate(-191.069 -177.131)" fill="#e8eae9"/>
        <path id="Trazado_148830" data-name="Trazado 148830" d="M14.884,180.632,12.936,178.2s-4.14,4.383-5.6,9.253-2.192,10.471-3.653,13.393-4.627,9.741-3.409,13.88c.974,4.14,6.331,17.776,6.818,19.237a5.572,5.572,0,0,0,.731,1.7l3.653,6.088a10.923,10.923,0,0,1,6.575-4.87l-2.192-5.6A13.627,13.627,0,0,1,14.4,226.9c-.244-2.192,0-3.409-.487-5.844-.487-2.192-.974-5.357-1.217-6.331-.487-1.217-1.461-2.679-.731-4.14s6.088-12.663,6.088-12.663Z" transform="translate(0 -177.954)" fill="#e8eae9"/>
      </g>
      <g id="Grupo_107135" data-name="Grupo 107135" transform="translate(25.287 6.087)">
        <path id="Trazado_148831" data-name="Trazado 148831" d="M138.464,41.828s-.244,5.114-.974,6.818v5.6l-5.6,7.062-8.523-4.627V49.864a31.314,31.314,0,0,1-1.7-8.036c-.244-3.9-.974-8.279-.487-10.227s8.766-4.87,11.445-4.87,5.844,3.409,6.088,5.114C138.951,33.061,139.195,40.854,138.464,41.828Z" transform="translate(-118.672 -26.73)" fill="#febe9d"/>
        <ellipse id="Elipse_4912" data-name="Elipse 4912" cx="3.409" cy="1.461" rx="3.409" ry="1.461" transform="translate(18.377 16.196) rotate(-78.27)" fill="#febe9d"/>
        <ellipse id="Elipse_4913" data-name="Elipse 4913" cx="3.409" cy="1.461" rx="3.409" ry="1.461" transform="translate(2.861 9.313) rotate(78.27)" fill="#febe9d"/>
      </g>
      <path id="Trazado_148832" data-name="Trazado 148832" d="M113.972,21.128h.487s-.731-3.166-.244-4.383a10.207,10.207,0,0,0,.974-3.653c0-1.217,0-2.679,1.7-2.435a96.608,96.608,0,0,0,11.932.244c1.948-.243,1.948,2.922,1.948,3.9s.731,3.166.731,3.9a13.454,13.454,0,0,1-.244,2.192h.244a41.246,41.246,0,0,0,1.948-8.036A12.285,12.285,0,0,0,124.2.917c-7.305-1.948-10.958,4.14-10.227,6.331,0,0-3.409.731-2.435,5.6A46.125,46.125,0,0,0,113.972,21.128Z" transform="translate(-85.939 -0.43)" fill="#415a6b"/>
      <path id="Trazado_148833" data-name="Trazado 148833" d="M137.416,128.332c-3.409-.244-6.088-4.627-6.088-4.627v6.818l3.9,2.192c9.5-3.653,10.227-9.984,10.227-9.984C144.478,124.923,140.825,128.575,137.416,128.332Z" transform="translate(-101.347 -94.727)" fill="#eb996e"/>
      <path id="Trazado_148834" data-name="Trazado 148834" d="M89.2,138.639a19.282,19.282,0,0,0,4.627,3.166c2.922,1.461,10.714,3.9,12.175,4.87,0,0,.487,10.471-5.357,19.237,0,0-1.217,25.325,0,30.926,0,0-12.906,3.653-17.289,3.653s-18.994-3.653-20.455-4.627c-1.7-.974,1.948-13.637,2.192-15.828,0-1.948-2.435-13.637-2.435-13.637s-7.062-12.663-5.6-19.724a85.562,85.562,0,0,0,9.01-3.9,31.1,31.1,0,0,0,7.062-5.114l6.575,5.357,2.192-.244,5.357-1.461Z" transform="translate(-43.877 -106.252)" fill="#ced6e0"/>
      <g id="Grupo_107136" data-name="Grupo 107136" transform="translate(34.121 37.501)">
        <path id="Trazado_148835" data-name="Trazado 148835" d="M151.9,167.74a3.356,3.356,0,0,1,2.192,0c.244-.974,1.461-1.948,2.679-2.679l-4.14-.731h-.974l-2.192.731A3.758,3.758,0,0,1,151.9,167.74Z" transform="translate(-149.462 -164.331)" fill="#415a6b"/>
        <path id="Trazado_148836" data-name="Trazado 148836" d="M159.388,214.447c-1.461,1.461-2.192,2.435-3.9,3.9l-3.9-3.9s.731-31.657.974-33.361.974-5.114.974-5.114l1.7-.974.731,1.217a34.841,34.841,0,0,1,1.217,7.062C157.2,185.225,158.657,204.219,159.388,214.447Z" transform="translate(-151.108 -172.563)" fill="#415a6b"/>
      </g>
      <g id="Grupo_107137" data-name="Grupo 107137" transform="translate(28.374 30.439)">
        <path id="Trazado_148837" data-name="Trazado 148837" d="M171.793,136.6s-3.166,4.627-6.331,6.088c0,0,3.409,2.435,3.653,3.9,0,0,4.383-5.357,4.383-7.305A2.989,2.989,0,0,0,171.793,136.6Z" transform="translate(-156.063 -135.867)" fill="#f3f3f3"/>
        <path id="Trazado_148838" data-name="Trazado 148838" d="M132.715,140.216a10.217,10.217,0,0,0-2.922,3.9s-4.14-4.383-5.357-7.305a1.938,1.938,0,0,1,.487-2.192l1.217-1.217C125.9,133.4,126.871,137.781,132.715,140.216Z" transform="translate(-124.29 -133.398)" fill="#f3f3f3"/>
      </g>
      <path id="Trazado_148839" data-name="Trazado 148839" d="M101.074,390.951s1.7,7.792,3.409,11.445.974,5.357.974,5.357-2.192,1.7-2.192,10.471H82.08l-.244-.974-.487.974H60.895a26.326,26.326,0,0,0-3.166-12.663,44.815,44.815,0,0,1,3.166-8.279,30.933,30.933,0,0,0,2.679-6.818A78.078,78.078,0,0,0,101.074,390.951Z" transform="translate(-44.55 -301.339)" fill="#415a6b"/>
      <path id="Trazado_148840" data-name="Trazado 148840" d="M406.765,4.935V26.364a4.885,4.885,0,0,1-4.87,4.87H380.466a4.885,4.885,0,0,1-4.87-4.87V4.935a4.885,4.885,0,0,1,4.87-4.87H401.9A4.884,4.884,0,0,1,406.765,4.935Z" transform="translate(-289.851 -0.065)" fill="#ef6c00"/>
      <rect id="Rectángulo_35217" data-name="Rectángulo 35217" width="16.559" height="16.559" transform="translate(93.051 7.305)" fill="#d55b13"/>
      <path id="Trazado_148841" data-name="Trazado 148841" d="M406.765,192.668V214.1a4.885,4.885,0,0,1-4.87,4.87H380.466a4.885,4.885,0,0,1-4.87-4.87V192.668a4.885,4.885,0,0,1,4.87-4.87H401.9A4.885,4.885,0,0,1,406.765,192.668Z" transform="translate(-289.851 -144.94)" fill="#0f0140"/>
      <rect id="Rectángulo_35218" data-name="Rectángulo 35218" width="16.559" height="16.559" transform="translate(93.051 50.163)" fill="#180c81"/>
      <path id="Trazado_148842" data-name="Trazado 148842" d="M406.765,380.4V401.83a4.885,4.885,0,0,1-4.87,4.87H380.466a4.885,4.885,0,0,1-4.87-4.87V380.4a4.885,4.885,0,0,1,4.87-4.87H401.9A4.885,4.885,0,0,1,406.765,380.4Z" transform="translate(-289.851 -289.815)" fill="#05dbf2"/>
      <rect id="Rectángulo_35219" data-name="Rectángulo 35219" width="16.559" height="16.559" transform="translate(93.051 93.021)" fill="#00b1c6"/>
    </g>
  </g>
</svg>
