<svg xmlns="http://www.w3.org/2000/svg" xmlns:xlink="http://www.w3.org/1999/xlink" width="525" height="411.351" viewBox="0 0 525 411.351">
  <defs>
    <linearGradient id="linear-gradient" x1="0.5" y1="0.05" x2="0.5" y2="0.981" gradientUnits="objectBoundingBox">
      <stop offset="0.182" stop-color="#5e58e8"/>
      <stop offset="0.821" stop-color="#1c195e"/>
    </linearGradient>
    <linearGradient id="linear-gradient-2" x1="0.376" y1="-0.036" x2="0.366" y2="1.081" gradientUnits="objectBoundingBox">
      <stop offset="0" stop-color="#fff"/>
      <stop offset="0.087" stop-color="#f7f7f7"/>
      <stop offset="0.217" stop-color="#e2e2e2"/>
      <stop offset="0.376" stop-color="silver"/>
      <stop offset="0.556" stop-color="#919191"/>
      <stop offset="0.755" stop-color="#545454"/>
      <stop offset="0.967" stop-color="#0c0c0c"/>
      <stop offset="1"/>
    </linearGradient>
    <clipPath id="clip-path">
      <ellipse id="Elipse_4685" data-name="Elipse 4685" cx="84.029" cy="48.515" rx="84.029" ry="48.515" fill="url(#linear-gradient)"/>
    </clipPath>
    <linearGradient id="linear-gradient-4" x1="5488.293" y1="0.061" x2="5488.293" y2="0.901" gradientUnits="objectBoundingBox">
      <stop offset="0" stop-color="#7d78ff"/>
      <stop offset="1" stop-color="#23207a"/>
    </linearGradient>
    <linearGradient id="linear-gradient-5" x1="5503.251" y1="0.061" x2="5503.251" y2="0.901" xlink:href="#linear-gradient-4"/>
    <linearGradient id="linear-gradient-6" x1="5518.21" y1="0.061" x2="5518.21" y2="0.901" xlink:href="#linear-gradient-4"/>
    <linearGradient id="linear-gradient-7" x1="5533.167" y1="0.061" x2="5533.167" y2="0.901" xlink:href="#linear-gradient-4"/>
    <linearGradient id="linear-gradient-8" x1="5548.127" y1="0.061" x2="5548.127" y2="0.901" xlink:href="#linear-gradient-4"/>
    <linearGradient id="linear-gradient-9" x1="5563.084" y1="0.061" x2="5563.084" y2="0.901" xlink:href="#linear-gradient-4"/>
    <linearGradient id="linear-gradient-10" x1="5578.043" y1="0.061" x2="5578.043" y2="0.901" xlink:href="#linear-gradient-4"/>
    <linearGradient id="linear-gradient-11" x1="5778.141" y1="0.061" x2="5778.141" y2="0.901" xlink:href="#linear-gradient-4"/>
    <linearGradient id="linear-gradient-12" x1="5793.1" y1="0.061" x2="5793.1" y2="0.901" xlink:href="#linear-gradient-4"/>
    <linearGradient id="linear-gradient-13" x1="5808.059" y1="0.061" x2="5808.059" y2="0.901" xlink:href="#linear-gradient-4"/>
    <clipPath id="clip-path-2">
      <path id="Trazado_144417" data-name="Trazado 144417" d="M-3490.861-1050.715H-3306.2v172.709h-7.086c1.273,13.3-6.875,26.841-24.47,37-32.816,18.946-86.02,18.946-118.835,0-17.595-10.159-25.743-23.7-24.469-37h-9.8Z" transform="translate(3490.861 1050.715)" fill="none"/>
    </clipPath>
    <radialGradient id="radial-gradient" cx="0.5" cy="0.5" r="0.5" gradientTransform="matrix(-1, 0, 0, 1, 3636.792, 0)" gradientUnits="objectBoundingBox">
      <stop offset="0" stop-color="#ade9ff"/>
      <stop offset="1"/>
    </radialGradient>
    <radialGradient id="radial-gradient-2" cx="0.5" cy="0.5" r="0.5" gradientTransform="matrix(-1, 0, 0, 1, 3728.361, 0)" xlink:href="#radial-gradient"/>
    <radialGradient id="radial-gradient-3" cx="0.5" cy="0.5" r="0.5" gradientTransform="matrix(-1, 0, 0, 1, 2076.791, 0)" gradientUnits="objectBoundingBox">
      <stop offset="0" stop-color="#fff"/>
      <stop offset="1"/>
    </radialGradient>
    <radialGradient id="radial-gradient-4" cx="0.5" cy="0.5" r="0.5" gradientTransform="matrix(-1, 0, 0, 1, 1548.341, 0)" xlink:href="#radial-gradient-3"/>
    <radialGradient id="radial-gradient-5" cx="0.5" cy="0.5" r="0.5" gradientTransform="matrix(-1, 0, 0, 1, 1827.254, 0)" xlink:href="#radial-gradient-3"/>
    <radialGradient id="radial-gradient-6" cx="0.5" cy="0.5" r="0.5" gradientTransform="matrix(-1, 0, 0, 1, 3175.259, 0)" xlink:href="#radial-gradient"/>
    <radialGradient id="radial-gradient-7" cx="0.5" cy="0.5" r="0.5" gradientTransform="matrix(-1, 0, 0, 1, 3068.458, 0)" xlink:href="#radial-gradient"/>
    <radialGradient id="radial-gradient-8" cx="0.5" cy="0.5" r="0.5" gradientTransform="matrix(-1, 0, 0, 1, 3155.617, 0)" xlink:href="#radial-gradient"/>
    <radialGradient id="radial-gradient-9" cx="0.5" cy="0.5" r="0.5" gradientTransform="matrix(-1, 0, 0, 1, 3007.718, 0)" xlink:href="#radial-gradient"/>
    <radialGradient id="radial-gradient-10" cx="0.5" cy="0.5" r="0.5" gradientTransform="matrix(-1, 0, 0, 1, 2400.972, 0)" xlink:href="#radial-gradient"/>
    <radialGradient id="radial-gradient-11" cx="0.5" cy="0.5" r="0.5" gradientTransform="matrix(-1, 0, 0, 1, 2351.995, 0)" xlink:href="#radial-gradient"/>
    <radialGradient id="radial-gradient-12" cx="0.5" cy="0.5" r="0.5" gradientTransform="matrix(-1, 0, 0, 1, 1485.721, 0)" xlink:href="#radial-gradient"/>
    <radialGradient id="radial-gradient-13" cx="0.5" cy="0.5" r="0.5" gradientTransform="matrix(-1, 0, 0, 1, 3572.585, 0)" xlink:href="#radial-gradient"/>
  </defs>
  <g id="banner-principal" transform="translate(-895.333 -136.649)">
    <g id="Grupo_88438" data-name="Grupo 88438" transform="translate(4572.542 1257.271)">
      <g id="Grupo_88373" data-name="Grupo 88373" transform="translate(-3632.419 -1099.244)">
        <g id="Grupo_88367" data-name="Grupo 88367" transform="translate(0 5.932)">
          <g id="Grupo_88365" data-name="Grupo 88365" transform="translate(6.805 65.724)" opacity="0.6">
            <path id="Trazado_144312" data-name="Trazado 144312" d="M-3574.22-1010.927l-37.18,21.47c-4.636,2.669-8.672,1.967-10.677-1.315a10.571,10.571,0,0,0,5.581-1.623l37.193-21.47Z" transform="translate(3622.077 1013.865)" fill="#1caad9" opacity="0.4"/>
          </g>
          <path id="Trazado_144313" data-name="Trazado 144313" d="M-3624.45-1006.109v-25.631c0-7.68,5.392-17.019,12.043-20.858l55.255-31.9c3.326-1.92,6.337-2.1,8.516-.844l-5.435-3.137c-2.179-1.259-5.191-1.078-8.517.843l-55.256,31.9c-6.651,3.84-12.043,13.179-12.043,20.859v25.63c0,3.841,1.348,6.539,3.528,7.8l5.436,3.138C-3623.1-999.571-3624.449-1002.269-3624.45-1006.109Z" transform="translate(3629.886 1089.284)" fill="#fcecdf"/>
          <path id="Trazado_144314" data-name="Trazado 144314" d="M-3556.349-1084.037l-55.256,31.9c-6.651,3.84-12.042,13.178-12.042,20.858v25.631c0,7.679,5.393,10.793,12.043,6.953l37.188-21.47,14.684,7.065v-15.542l3.384-1.954c6.652-3.84,12.044-13.179,12.044-20.859v-25.63C-3544.307-1084.764-3549.7-1087.877-3556.349-1084.037Z" transform="translate(3629.084 1088.821)" fill="#ef6c00"/>
          <g id="Grupo_88366" data-name="Grupo 88366" transform="translate(15.907 14.461)" opacity="0.9" style="mix-blend-mode: screen;isolation: isolate">
            <path id="Trazado_144315" data-name="Trazado 144315" d="M-3611.571-1026.728a14.9,14.9,0,0,1,1.994-7.674,12.277,12.277,0,0,1,4.527-4.6q2.576-1.488,4.392-.306t1.818,4.155a20.9,20.9,0,0,1-1.184,6.607q-.646,1.954-3.013,7.182-.643,1.429-1.909,4.389l-.706,1.63q-.686,1.6-1.039,2.494a2.863,2.863,0,0,0-.167.528l7.706-4.449v4.437l-12.482,7.206v-4.158a20.222,20.222,0,0,1,.857-2.151q.4-.923.9-2.051l1.022-2.289q.893-1.929,2.806-6.151a59.037,59.037,0,0,0,2.7-6.858,14.094,14.094,0,0,0,.728-4.04,2.452,2.452,0,0,0-.665-1.943,1.558,1.558,0,0,0-1.868.072,5.426,5.426,0,0,0-2.326,3.526,7.147,7.147,0,0,0-.228,1.858v1.151l-3.864,2.23Z" transform="translate(3611.633 1068.467)" fill="#fff"/>
            <path id="Trazado_144316" data-name="Trazado 144316" d="M-3596.738-1025.007l6.936-23.046,3.925-2.266v19.04l2.513-1.45v4.556l-2.513,1.451v6.475l-3.925,2.266v-6.474l-6.936,4Zm6.936-4v-9.392l-3.242,11.263Z" transform="translate(3609.718 1069.814)" fill="#fff"/>
            <path id="Trazado_144317" data-name="Trazado 144317" d="M-3567.435-1063.385l3.2-1.848-10.863,39.149-3.2,1.848Z" transform="translate(3607.348 1071.731)" fill="#fff"/>
            <path id="Trazado_144318" data-name="Trazado 144318" d="M-3547.265-1072.69v4.557l-5.5,28.693-3.853,2.225,5.5-28.693-7.943,4.586v-4.557Z" transform="translate(3604.875 1072.69)" fill="#fff"/>
            <path id="Trazado_144319" data-name="Trazado 144319" d="M-3611.571-1026.728a14.9,14.9,0,0,1,1.994-7.674,12.277,12.277,0,0,1,4.527-4.6q2.576-1.488,4.392-.306t1.818,4.155a20.9,20.9,0,0,1-1.184,6.607q-.646,1.954-3.013,7.182-.643,1.429-1.909,4.389l-.706,1.63q-.686,1.6-1.039,2.494a2.863,2.863,0,0,0-.167.528l7.706-4.449v4.437l-12.482,7.206v-4.158a20.222,20.222,0,0,1,.857-2.151q.4-.923.9-2.051l1.022-2.289q.893-1.929,2.806-6.151a59.037,59.037,0,0,0,2.7-6.858,14.094,14.094,0,0,0,.728-4.04,2.452,2.452,0,0,0-.665-1.943,1.558,1.558,0,0,0-1.868.072,5.426,5.426,0,0,0-2.326,3.526,7.147,7.147,0,0,0-.228,1.858v1.151l-3.864,2.23Z" transform="translate(3611.633 1068.467)" fill="#fff"/>
            <path id="Trazado_144320" data-name="Trazado 144320" d="M-3596.738-1025.007l6.936-23.046,3.925-2.266v19.04l2.513-1.45v4.556l-2.513,1.451v6.475l-3.925,2.266v-6.474l-6.936,4Zm6.936-4v-9.392l-3.242,11.263Z" transform="translate(3609.718 1069.814)" fill="#fff"/>
            <path id="Trazado_144321" data-name="Trazado 144321" d="M-3567.435-1063.385l3.2-1.848-10.863,39.149-3.2,1.848Z" transform="translate(3607.348 1071.731)" fill="#fff"/>
            <path id="Trazado_144322" data-name="Trazado 144322" d="M-3547.265-1072.69v4.557l-5.5,28.693-3.853,2.225,5.5-28.693-7.943,4.586v-4.557Z" transform="translate(3604.875 1072.69)" fill="#fff"/>
          </g>
        </g>
        <g id="Grupo_88369" data-name="Grupo 88369" transform="translate(80.311)">
          <path id="Trazado_144323" data-name="Trazado 144323" d="M-3516.071-987.281l-5.088-2.937v-14.546l5.088,2.937Z" transform="translate(3535.599 1084.351)" fill="#fcecdf"/>
          <path id="Trazado_144324" data-name="Trazado 144324" d="M-3517.273-1001.827l-3.167,1.827c-3.872,2.234-8.123,2.208-10.1-1.392,2.783,0,4.887-1.477,8.174-3.372Z" transform="translate(3536.805 1084.351)" fill="#1caad9" opacity="0.6"/>
          <path id="Trazado_144325" data-name="Trazado 144325" d="M-3526.458-1064.693l51.716-29.858c3.112-1.8,5.93-1.967,7.97-.79l5.088,2.938c-2.04-1.177-4.857-1.007-7.97.79l-51.716,29.857c-6.225,3.595-11.271,12.335-11.271,19.523v23.988c0,3.594,1.262,6.119,3.3,7.3l-5.088-2.938c-2.04-1.177-3.3-3.7-3.3-7.3v-23.989C-3537.729-1052.359-3532.682-1061.1-3526.458-1064.693Z" transform="translate(3537.729 1096.09)" fill="#fcecdf"/>
          <path id="Trazado_144326" data-name="Trazado 144326" d="M-3520.619-1061.323l51.717-29.857c6.224-3.594,11.271-.681,11.271,6.507v23.989c0,7.189-5.047,15.928-11.272,19.523l-34.806,20.094-13.742,22.48v-14.546l-3.168,1.829c-6.225,3.594-11.272.681-11.272-6.507V-1041.8C-3531.89-1048.989-3526.844-1057.729-3520.619-1061.323Z" transform="translate(3536.979 1095.657)" fill="#ef6c00"/>
          <g id="Grupo_88368" data-name="Grupo 88368" transform="translate(31.874 21.701)" opacity="0.9" style="mix-blend-mode: screen;isolation: isolate">
            <path id="Trazado_144327" data-name="Trazado 144327" d="M-3489.76-1069.018c6.639-3.833,10.75-2.6,10.75,3.8,0,8.637-7.629,14.186-7.629,20.878l-6.588,3.8c0-8.809,6.093-12.841,6.093-18.333,0-2.4-1.289-2.746-3.468-1.488-2.427,1.4-3.716,3.805-3.765,7.265l-6.787,3.918A22.674,22.674,0,0,1-3489.76-1069.018Zm3.964,33.464a9.016,9.016,0,0,1-4.26,7.435c-2.478,1.431-4.21.372-4.211-2.546a8.82,8.82,0,0,1,4.211-7.35C-3487.579-1039.444-3485.8-1038.472-3485.8-1035.554Z" transform="translate(3501.153 1071.188)" fill="#fff"/>
          </g>
        </g>
        <g id="Grupo_88372" data-name="Grupo 88372" transform="translate(23.567 89.338)">
          <path id="Trazado_144328" data-name="Trazado 144328" d="M-3579.2-990.346c6.527-3.769,12.437-4.125,16.715-1.656l7.622,4.4c-4.278-2.47-10.187-2.112-16.715,1.656-13.054,7.537-23.638,25.867-23.637,40.942,0,7.537,2.646,12.834,6.924,15.3l-7.621-4.4c-4.278-2.47-6.924-7.766-6.924-15.3C-3602.843-964.479-3592.26-982.809-3579.2-990.346Z" transform="translate(3602.843 993.575)" fill="#fcecdf"/>
          <path id="Trazado_144329" data-name="Trazado 144329" d="M-3594.1-944.357c0,15.075,10.583,21.185,23.638,13.648s23.638-25.867,23.638-40.942-10.583-21.185-23.639-13.648S-3594.1-959.432-3594.1-944.357Z" transform="translate(3601.719 992.926)" fill="#05dbf2"/>
          <path id="Trazado_144330" data-name="Trazado 144330" d="M-3589.987-945.743c0,12.79,8.979,17.975,20.056,11.58s20.055-21.948,20.055-34.738-8.979-17.975-20.056-11.58S-3589.987-958.534-3589.987-945.743Z" transform="translate(3601.19 992.244)" fill="#fff"/>
          <path id="Trazado_144331" data-name="Trazado 144331" d="M-3569.627-934.29c11.077-6.395,20.056-21.948,20.056-34.738,0-6.24-2.142-10.664-5.618-12.822,3.785,2.027,6.143,6.576,6.143,13.125,0,12.79-8.979,28.343-20.056,34.738-5.672,3.275-10.79,3.507-14.438,1.242C-3579.934-930.813-3575.032-931.17-3569.627-934.29Z" transform="translate(3600.362 992.068)" fill="#b8b8b8"/>
          <g id="Grupo_88371" data-name="Grupo 88371" transform="translate(12.388 12.812)">
            <path id="Trazado_144332" data-name="Trazado 144332" d="M-3566.229-956.708l-.617-.584,11.773-17.1c.225-.327.546-.461.716-.3s.126.557-.1.884Z" transform="translate(3585.828 978.345)" fill="#4f4ad1"/>
            <path id="Trazado_144333" data-name="Trazado 144333" d="M-3568.1-955.452l-1.11,2.624-7-1.183c-.474-.08-.609-.733-.3-1.457s.939-1.247,1.414-1.167Z" transform="translate(3587.091 976.016)" fill="#4f4ad1"/>
            <g id="Grupo_88370" data-name="Grupo 88370" transform="translate(11.78 10.031)">
              <path id="Trazado_144334" data-name="Trazado 144334" d="M-3570.935-952.828a.467.467,0,0,1,.18-.389l18.618-14.094c.118-.089.229-.059.247.066a.466.466,0,0,1-.18.39l-18.618,14.094C-3570.806-952.673-3570.917-952.7-3570.935-952.828Z" transform="translate(3574.574 967.363)" fill="#f8b52f"/>
              <path id="Trazado_144335" data-name="Trazado 144335" d="M-3574.813-947.683q-.5-.217-.157-1.074l3.826-2.9q.472.239.157,1.074Z" transform="translate(3575.11 965.344)" fill="#f8b52f"/>
            </g>
            <path id="Trazado_144336" data-name="Trazado 144336" d="M-3565.671-954.855a3.366,3.366,0,0,1-1.523,2.638c-.841.486-1.523.092-1.523-.879a3.368,3.368,0,0,1,1.523-2.638C-3566.354-956.22-3565.671-955.826-3565.671-954.855Z" transform="translate(3586.068 975.925)" fill="#f8b52f"/>
            <path id="Trazado_144337" data-name="Trazado 144337" d="M-3567.046-971.422c-.173.1-.315.024-.321-.172l-.194-6.443a.707.707,0,0,1,.321-.568l.387-.224c.181-.1.327-.015.321.2l-.194,6.667A.71.71,0,0,1-3567.046-971.422Z" transform="translate(3585.92 978.873)" fill="#4f4ad1"/>
            <path id="Trazado_144338" data-name="Trazado 144338" d="M-3582.31-945.4a.713.713,0,0,1-.309.549l-5.677,3.5c-.181.112-.331.031-.331-.179v-.447a.705.705,0,0,1,.331-.562l5.677-3.053C-3582.447-945.685-3582.31-945.6-3582.31-945.4Z" transform="translate(3588.628 974.6)" fill="#4f4ad1"/>
            <path id="Trazado_144339" data-name="Trazado 144339" d="M-3567.046-937.055c.173-.1.315-.023.321.173l.194,6.444a.705.705,0,0,1-.32.568l-.388.223c-.181.1-.327.015-.321-.2l.194-6.667A.713.713,0,0,1-3567.046-937.055Z" transform="translate(3585.92 973.503)" fill="#4f4ad1"/>
            <path id="Trazado_144340" data-name="Trazado 144340" d="M-3552.562-962.609a.711.711,0,0,1,.309-.549l5.677-3.5c.181-.112.331-.031.331.178v.448a.7.7,0,0,1-.331.561l-5.677,3.054C-3552.425-962.325-3552.562-962.409-3552.562-962.609Z" transform="translate(3583.991 977.309)" fill="#4f4ad1"/>
          </g>
        </g>
      </g>
      <g id="Grupo_88411" data-name="Grupo 88411" transform="translate(-3616.38 -1059.701)">
        <path id="Trazado_144341" data-name="Trazado 144341" d="M-3357.993-940.11c118.753,68.521,102.781,59.3,110.108,63.546,2.627,1.544,8.5,4.5,8.52,10.084.024,3.106-1.982,6.2-6.091,8.575l-217.48,125.562c-8.192,4.646-21.638,4.57-29.972-.228l-112.278-64.821c-4.2-2.462-6.355-5.6-6.287-8.846-.149-3.033,1.893-6.065,5.839-8.428l217.479-125.562C-3379.873-945.011-3366.364-944.971-3357.993-940.11Z" transform="translate(3611.481 1036.97)" fill="#7974f2" opacity="0.15" style="mix-blend-mode: multiply;isolation: isolate"/>
        <g id="Grupo_88385" data-name="Grupo 88385" transform="translate(5.071 80.407)">
          <g id="Grupo_88374" data-name="Grupo 88374" transform="translate(0.002)">
            <path id="Trazado_144342" data-name="Trazado 144342" d="M-3361.452-954.905c114.406,66.013,99.018,57.129,106.077,61.219,2.531,1.488,8.187,4.332,8.208,9.716.023,2.993-1.909,5.976-5.869,8.261l-209.517,120.965c-7.893,4.476-20.847,4.4-28.875-.22L-3599.6-817.413c-4.049-2.372-6.122-5.4-6.057-8.522-.144-2.922,1.823-5.844,5.625-8.12l209.518-120.966C-3382.53-959.627-3369.515-959.589-3361.452-954.905Z" transform="translate(3605.659 958.447)" fill="#5e58e8"/>
            <path id="Trazado_144343" data-name="Trazado 144343" d="M-3596.46-818.586c-3.277-1.922-5.051-4.412-5-7.012-.12-2.491,1.515-4.833,4.6-6.681l209.467-120.934c6.532-3.772,17.231-3.732,23.848.089,0,0,94.514,54.534,99.383,57.345,3.3,1.9,6.732,3.894,6.732,3.894l.863.5c2.189,1.265,6.263,3.617,6.28,7.733.019,2.566-1.685,4.966-4.8,6.765L-3464.6-755.926c-6.47,3.668-17.117,3.575-23.713-.222Z" transform="translate(3605.12 958.134)" fill="#c6d4f8"/>
            <path id="Trazado_144344" data-name="Trazado 144344" d="M-3250.889-891.386l-.863-.5s-3.434-1.991-6.732-3.894c-4.869-2.811-99.383-57.345-99.383-57.345-6.618-3.82-17.315-3.861-23.848-.089L-3557.33-851.824c68.2,8.827,164.108,14.823,249.661,8.573l58.261-33.636c3.114-1.8,4.817-4.2,4.8-6.765C-3244.626-887.769-3248.7-890.121-3250.889-891.386Z" transform="translate(3599.447 958.134)" opacity="0.8" fill="url(#linear-gradient-2)" style="mix-blend-mode: screen;isolation: isolate"/>
          </g>
          <path id="Trazado_144345" data-name="Trazado 144345" d="M-3599.533-796.822a17.659,17.659,0,0,1-1.855-1.247c-6.253,4.615-5.616,11.384,1.855,15.7l108.154,62.445v-14.456Z" transform="translate(3605.66 937.831)" fill="#423eaf"/>
          <path id="Trazado_144346" data-name="Trazado 144346" d="M-3445.489-724.831c-7.946,4.589-20.952,4.514-29.035-.152v14.456c8.083,4.665,21.089,4.74,29.035.151Z" transform="translate(3588.804 928.436)" fill="#4f4ad1"/>
          <path id="Trazado_144347" data-name="Trazado 144347" d="M-3231.9-863.491l-209.31,120.855v14.455l209.31-120.855Z" transform="translate(3584.521 946.241)" fill="#423eaf"/>
          <path id="Trazado_144348" data-name="Trazado 144348" d="M-3201.021-850.253c3.91-2.261,5.789-5.235,5.79-8.227.079-.018.079-14.473.079-14.473,0,2.555-1.431,5.093-4.273,7.19a16.879,16.879,0,0,1-1.6,1.055Z" transform="translate(3553.647 947.457)" fill="#4f4ad1"/>
          <path id="Trazado_144349" data-name="Trazado 144349" d="M-3441.235-742.636l-.2,7.72,209.5-120.961.007-7.614Z" transform="translate(3584.551 946.241)" fill="#423eaf"/>
          <path id="Trazado_144350" data-name="Trazado 144350" d="M-3599.537-797.88v14.444c-4.084-2.347-6.125-5.454-6.125-8.5v-14.475c0,2.56,1.433,5.15,4.267,7.283A16.494,16.494,0,0,0-3599.537-797.88Z" transform="translate(3605.662 938.903)" fill="#4f4ad1"/>
          <g id="Grupo_88384" data-name="Grupo 88384" transform="translate(12.187 148.643)">
            <g id="Grupo_88378" data-name="Grupo 88378" transform="translate(74.6 43.069)">
              <g id="Grupo_88377" data-name="Grupo 88377">
                <g id="Grupo_88375" data-name="Grupo 88375">
                  <path id="Trazado_144351" data-name="Trazado 144351" d="M-3503.562-736.109c0,.8-.562,1.126-1.256.725a2.775,2.775,0,0,1-1.256-2.175c0-.8.562-1.125,1.256-.725A2.776,2.776,0,0,1-3503.562-736.109Z" transform="translate(3506.074 738.456)" fill="#2b2873"/>
                  <path id="Trazado_144352" data-name="Trazado 144352" d="M-3498.338-733.093c0,.8-.563,1.125-1.257.725a2.779,2.779,0,0,1-1.256-2.175c0-.8.563-1.126,1.256-.725A2.776,2.776,0,0,1-3498.338-733.093Z" transform="translate(3505.403 738.068)" fill="#2b2873"/>
                  <path id="Trazado_144353" data-name="Trazado 144353" d="M-3493.116-730.078c0,.8-.562,1.126-1.255.725a2.775,2.775,0,0,1-1.256-2.175c0-.8.562-1.125,1.256-.725A2.776,2.776,0,0,1-3493.116-730.078Z" transform="translate(3504.731 737.68)" fill="#2b2873"/>
                  <path id="Trazado_144354" data-name="Trazado 144354" d="M-3487.892-727.062c0,.8-.562,1.126-1.256.725a2.776,2.776,0,0,1-1.256-2.175c0-.8.562-1.126,1.256-.725A2.775,2.775,0,0,1-3487.892-727.062Z" transform="translate(3504.059 737.293)" fill="#2b2873"/>
                  <path id="Trazado_144355" data-name="Trazado 144355" d="M-3482.669-724.046c0,.8-.562,1.125-1.255.725a2.777,2.777,0,0,1-1.256-2.175c0-.8.563-1.126,1.256-.725A2.773,2.773,0,0,1-3482.669-724.046Z" transform="translate(3503.388 736.905)" fill="#2b2873"/>
                </g>
                <g id="Grupo_88376" data-name="Grupo 88376" transform="translate(0 4.532)">
                  <path id="Trazado_144356" data-name="Trazado 144356" d="M-3503.562-730.908c0,.8-.562,1.126-1.256.725a2.775,2.775,0,0,1-1.256-2.175c0-.8.562-1.125,1.256-.725A2.776,2.776,0,0,1-3503.562-730.908Z" transform="translate(3506.074 733.255)" fill="#2b2873"/>
                  <path id="Trazado_144357" data-name="Trazado 144357" d="M-3498.338-727.892c0,.8-.563,1.125-1.257.725a2.779,2.779,0,0,1-1.256-2.175c0-.8.563-1.126,1.256-.725A2.776,2.776,0,0,1-3498.338-727.892Z" transform="translate(3505.403 732.867)" fill="#2b2873"/>
                  <path id="Trazado_144358" data-name="Trazado 144358" d="M-3493.116-724.877c0,.8-.562,1.126-1.255.725a2.775,2.775,0,0,1-1.256-2.175c0-.8.562-1.125,1.256-.725A2.776,2.776,0,0,1-3493.116-724.877Z" transform="translate(3504.731 732.479)" fill="#2b2873"/>
                  <path id="Trazado_144359" data-name="Trazado 144359" d="M-3487.892-721.861c0,.8-.562,1.125-1.256.725a2.775,2.775,0,0,1-1.256-2.175c0-.8.562-1.126,1.256-.725A2.776,2.776,0,0,1-3487.892-721.861Z" transform="translate(3504.059 732.092)" fill="#2b2873"/>
                  <path id="Trazado_144360" data-name="Trazado 144360" d="M-3482.669-718.845c0,.8-.562,1.125-1.255.725a2.777,2.777,0,0,1-1.256-2.175c0-.8.563-1.126,1.256-.725A2.775,2.775,0,0,1-3482.669-718.845Z" transform="translate(3503.388 731.704)" fill="#2b2873"/>
                </g>
              </g>
              <path id="Trazado_144361" data-name="Trazado 144361" d="M-3496.161-732.865c-.445-.371-.809-.056-.809.584a2.775,2.775,0,0,0,1.256,2.175c.6.346,1.077.127,1.2-.449a1.187,1.187,0,0,1-.394-.135A2.775,2.775,0,0,1-3496.161-732.865Zm-9.1-5.256c-.444-.371-.809-.056-.809.584a2.775,2.775,0,0,0,1.256,2.175c.6.346,1.077.127,1.2-.449a1.19,1.19,0,0,1-.394-.135A2.777,2.777,0,0,1-3505.265-738.12Zm4.552,2.628c-.444-.371-.808-.055-.808.584a2.774,2.774,0,0,0,1.256,2.176c.6.346,1.077.127,1.2-.449a1.18,1.18,0,0,1-.393-.136A2.775,2.775,0,0,1-3500.713-735.493Zm9.1,5.257c-.445-.371-.809-.056-.809.584a2.776,2.776,0,0,0,1.256,2.175c.6.346,1.077.127,1.2-.449a1.187,1.187,0,0,1-.394-.135A2.777,2.777,0,0,1-3491.61-730.236Zm6.2,4.938a1.17,1.17,0,0,1-.393-.135,2.775,2.775,0,0,1-1.256-2.175c-.444-.371-.809-.056-.809.585a2.775,2.775,0,0,0,1.256,2.175C-3486.011-724.5-3485.533-724.722-3485.408-725.3Zm-6.2-.405c-.445-.371-.809-.056-.809.584a2.776,2.776,0,0,0,1.256,2.175c.6.346,1.077.127,1.2-.449a1.2,1.2,0,0,1-.394-.135A2.776,2.776,0,0,1-3491.61-725.7Zm4.552,2.627c-.444-.371-.81-.055-.81.585a2.779,2.779,0,0,0,1.256,2.175c.6.345,1.077.127,1.2-.449a1.185,1.185,0,0,1-.393-.136A2.775,2.775,0,0,1-3487.057-723.076Zm-13.656-7.884c-.444-.37-.809-.055-.809.585a2.776,2.776,0,0,0,1.256,2.175c.6.346,1.077.126,1.2-.449a1.18,1.18,0,0,1-.393-.136A2.773,2.773,0,0,1-3500.713-730.961Zm4.552,2.628c-.445-.371-.809-.056-.809.584a2.775,2.775,0,0,0,1.256,2.175c.6.346,1.076.127,1.2-.449a1.183,1.183,0,0,1-.393-.135A2.776,2.776,0,0,1-3496.161-728.332Zm-9.1-5.256c-.444-.371-.809-.056-.809.584a2.775,2.775,0,0,0,1.256,2.175c.6.346,1.077.127,1.2-.449a1.182,1.182,0,0,1-.394-.135A2.776,2.776,0,0,1-3505.265-733.588Z" transform="translate(3506.074 738.433)" fill="#5e58e8"/>
            </g>
            <g id="Grupo_88382" data-name="Grupo 88382">
              <g id="Grupo_88381" data-name="Grupo 88381">
                <g id="Grupo_88379" data-name="Grupo 88379">
                  <path id="Trazado_144362" data-name="Trazado 144362" d="M-3589.166-785.531c0,.8-.563,1.126-1.256.725a2.776,2.776,0,0,1-1.257-2.175c0-.8.563-1.125,1.257-.725A2.778,2.778,0,0,1-3589.166-785.531Z" transform="translate(3591.678 787.878)" fill="#2b2873"/>
                  <path id="Trazado_144363" data-name="Trazado 144363" d="M-3583.942-782.515c0,.8-.562,1.125-1.256.725a2.775,2.775,0,0,1-1.256-2.175c0-.8.562-1.126,1.256-.725A2.775,2.775,0,0,1-3583.942-782.515Z" transform="translate(3591.007 787.49)" fill="#2b2873"/>
                  <path id="Trazado_144364" data-name="Trazado 144364" d="M-3578.719-779.5c0,.8-.562,1.126-1.256.725a2.774,2.774,0,0,1-1.255-2.175c0-.8.562-1.125,1.255-.725A2.776,2.776,0,0,1-3578.719-779.5Z" transform="translate(3590.335 787.102)" fill="#2b2873"/>
                  <path id="Trazado_144365" data-name="Trazado 144365" d="M-3573.5-776.484c0,.8-.562,1.126-1.256.725a2.776,2.776,0,0,1-1.256-2.175c0-.8.562-1.126,1.256-.725A2.775,2.775,0,0,1-3573.5-776.484Z" transform="translate(3589.663 786.715)" fill="#2b2873"/>
                  <path id="Trazado_144366" data-name="Trazado 144366" d="M-3568.272-773.468c0,.8-.562,1.125-1.256.725a2.776,2.776,0,0,1-1.256-2.175c0-.8.562-1.126,1.256-.725A2.773,2.773,0,0,1-3568.272-773.468Z" transform="translate(3588.992 786.327)" fill="#2b2873"/>
                </g>
                <g id="Grupo_88380" data-name="Grupo 88380" transform="translate(0 4.532)">
                  <path id="Trazado_144367" data-name="Trazado 144367" d="M-3589.167-780.33c0,.8-.562,1.126-1.256.725a2.776,2.776,0,0,1-1.256-2.175c0-.8.562-1.125,1.256-.725A2.776,2.776,0,0,1-3589.167-780.33Z" transform="translate(3591.678 782.677)" fill="#2b2873"/>
                  <path id="Trazado_144368" data-name="Trazado 144368" d="M-3583.942-777.314c0,.8-.562,1.125-1.256.725a2.775,2.775,0,0,1-1.256-2.175c0-.8.562-1.126,1.256-.725A2.775,2.775,0,0,1-3583.942-777.314Z" transform="translate(3591.007 782.289)" fill="#2b2873"/>
                  <path id="Trazado_144369" data-name="Trazado 144369" d="M-3578.719-774.3c0,.8-.562,1.126-1.256.725a2.773,2.773,0,0,1-1.255-2.175c0-.8.562-1.125,1.255-.725A2.775,2.775,0,0,1-3578.719-774.3Z" transform="translate(3590.335 781.901)" fill="#2b2873"/>
                  <path id="Trazado_144370" data-name="Trazado 144370" d="M-3573.5-771.283c0,.8-.563,1.126-1.256.725a2.776,2.776,0,0,1-1.257-2.175c0-.8.563-1.126,1.257-.725A2.779,2.779,0,0,1-3573.5-771.283Z" transform="translate(3589.664 781.514)" fill="#2b2873"/>
                  <path id="Trazado_144371" data-name="Trazado 144371" d="M-3568.272-768.267c0,.8-.562,1.125-1.256.725a2.776,2.776,0,0,1-1.256-2.175c0-.8.562-1.126,1.256-.725A2.775,2.775,0,0,1-3568.272-768.267Z" transform="translate(3588.992 781.126)" fill="#2b2873"/>
                </g>
              </g>
              <path id="Trazado_144372" data-name="Trazado 144372" d="M-3581.765-782.287c-.443-.371-.809-.056-.809.584a2.775,2.775,0,0,0,1.256,2.175c.6.346,1.077.127,1.2-.449a1.2,1.2,0,0,1-.394-.135A2.778,2.778,0,0,1-3581.765-782.287Zm-9.1-5.256c-.445-.371-.81-.056-.81.584a2.774,2.774,0,0,0,1.257,2.175c.6.346,1.076.127,1.2-.449a1.2,1.2,0,0,1-.394-.135A2.778,2.778,0,0,1-3590.868-787.542Zm4.552,2.627c-.445-.371-.809-.055-.809.585a2.776,2.776,0,0,0,1.256,2.175c.6.346,1.077.127,1.2-.449a1.189,1.189,0,0,1-.393-.136A2.774,2.774,0,0,1-3586.317-784.915Zm9.1,5.257c-.444-.371-.809-.056-.809.584a2.774,2.774,0,0,0,1.256,2.175c.6.346,1.077.127,1.2-.449a1.179,1.179,0,0,1-.393-.135A2.776,2.776,0,0,1-3577.213-779.658Zm6.2,4.939a1.187,1.187,0,0,1-.394-.136,2.774,2.774,0,0,1-1.256-2.175c-.445-.371-.809-.056-.809.585a2.776,2.776,0,0,0,1.256,2.175C-3571.615-773.925-3571.137-774.144-3571.011-774.72Zm-6.2-.406c-.444-.371-.809-.056-.809.584a2.777,2.777,0,0,0,1.257,2.175c.6.346,1.076.127,1.2-.449a1.177,1.177,0,0,1-.393-.135A2.776,2.776,0,0,1-3577.213-775.126Zm4.552,2.627c-.445-.371-.809-.055-.809.585a2.777,2.777,0,0,0,1.256,2.175c.6.345,1.077.127,1.2-.449a1.183,1.183,0,0,1-.393-.136A2.775,2.775,0,0,1-3572.661-772.5Zm-13.656-7.884c-.445-.37-.809-.055-.809.585a2.776,2.776,0,0,0,1.256,2.175c.6.346,1.076.126,1.2-.449a1.178,1.178,0,0,1-.393-.136A2.773,2.773,0,0,1-3586.317-780.383Zm4.551,2.628c-.444-.371-.809-.056-.809.584a2.775,2.775,0,0,0,1.256,2.175c.6.346,1.077.127,1.2-.449a1.186,1.186,0,0,1-.394-.135A2.779,2.779,0,0,1-3581.765-777.754Zm-9.1-5.256c-.444-.371-.809-.056-.809.584a2.776,2.776,0,0,0,1.256,2.175c.6.346,1.077.127,1.2-.449a1.192,1.192,0,0,1-.394-.135A2.779,2.779,0,0,1-3590.869-783.01Z" transform="translate(3591.678 787.855)" fill="#5e58e8"/>
            </g>
            <g id="Grupo_88383" data-name="Grupo 88383" transform="translate(37.127 22.752)">
              <path id="Trazado_144373" data-name="Trazado 144373" d="M-3530.591-746.27l-15.9-9.179a5.713,5.713,0,0,1-2.583-4.476c0-1.647,1.156-2.315,2.583-1.491l15.9,9.179a5.713,5.713,0,0,1,2.583,4.475C-3528.008-746.114-3529.165-745.446-3530.591-746.27Z" transform="translate(3549.075 761.769)" fill="#2b2873"/>
              <path id="Trazado_144374" data-name="Trazado 144374" d="M-3528.741-747.276l-15.9-9.18a5.711,5.711,0,0,1-2.583-4.475,2.4,2.4,0,0,1,.133-.683c-1.128-.332-1.983.3-1.983,1.7a5.713,5.713,0,0,0,2.583,4.476l15.9,9.179c1.193.689,2.153.29,2.45-.808A2.392,2.392,0,0,1-3528.741-747.276Z" transform="translate(3549.075 761.76)" fill="#5e58e8"/>
            </g>
          </g>
        </g>
        <g id="Grupo_88410" data-name="Grupo 88410" transform="translate(105.115)">
          <ellipse id="Elipse_4683" data-name="Elipse 4683" cx="88.667" cy="51.194" rx="88.667" ry="51.194" transform="translate(5.017 124.21)" fill="#fff" opacity="0.4" style="mix-blend-mode: screen;isolation: isolate"/>
          <g id="Grupo_88387" data-name="Grupo 88387" transform="translate(9.655 126.888)">
            <ellipse id="Elipse_4684" data-name="Elipse 4684" cx="84.029" cy="48.515" rx="84.029" ry="48.515" fill="url(#linear-gradient)"/>
            <g id="Grupo_88386" data-name="Grupo 88386" clip-path="url(#clip-path)">
              <rect id="Rectángulo_34933" data-name="Rectángulo 34933" width="0.995" height="92.33" transform="translate(162.901 10.113)" fill="url(#linear-gradient-4)"/>
              <rect id="Rectángulo_34934" data-name="Rectángulo 34934" width="0.995" height="92.33" transform="translate(155.462 10.113)" fill="url(#linear-gradient-5)"/>
              <rect id="Rectángulo_34935" data-name="Rectángulo 34935" width="0.995" height="92.33" transform="translate(148.023 10.113)" fill="url(#linear-gradient-6)"/>
              <rect id="Rectángulo_34936" data-name="Rectángulo 34936" width="0.995" height="92.33" transform="translate(140.584 10.113)" fill="url(#linear-gradient-7)"/>
              <rect id="Rectángulo_34937" data-name="Rectángulo 34937" width="0.995" height="92.33" transform="translate(133.145 10.113)" fill="url(#linear-gradient-8)"/>
              <rect id="Rectángulo_34938" data-name="Rectángulo 34938" width="0.995" height="92.33" transform="translate(125.706 10.113)" fill="url(#linear-gradient-9)"/>
              <rect id="Rectángulo_34939" data-name="Rectángulo 34939" width="0.995" height="92.33" transform="translate(118.267 10.113)" fill="url(#linear-gradient-10)"/>
              <rect id="Rectángulo_34940" data-name="Rectángulo 34940" width="0.995" height="92.33" transform="translate(18.754 10.113)" fill="url(#linear-gradient-11)"/>
              <rect id="Rectángulo_34941" data-name="Rectángulo 34941" width="0.995" height="92.33" transform="translate(11.315 10.113)" fill="url(#linear-gradient-12)"/>
              <rect id="Rectángulo_34942" data-name="Rectángulo 34942" width="0.995" height="92.33" transform="translate(3.875 10.113)" fill="url(#linear-gradient-13)"/>
            </g>
          </g>
          <g id="Grupo_88409" data-name="Grupo 88409">
            <g id="Grupo_88408" data-name="Grupo 88408" clip-path="url(#clip-path-2)">
              <g id="Grupo_88406" data-name="Grupo 88406" transform="translate(14.181 7.018)">
                <g id="Grupo_88397" data-name="Grupo 88397" transform="translate(0 70.688)">
                  <g id="Grupo_88392" data-name="Grupo 88392" transform="translate(23.024 0.793)">
                    <g id="Grupo_88389" data-name="Grupo 88389">
                      <g id="Grupo_88388" data-name="Grupo 88388">
                        <path id="Trazado_144375" data-name="Trazado 144375" d="M-3367.749-943.236c-2.141,5.981-14.1,33.544-23.739,46.218a117.589,117.589,0,0,0-16.857,29.79c-2.227,5.539-6.223,16.344-10.241,27.621-.62-8.457-1.484-18.549-.05-27.771,1.056-6.751,4.61-16.008,7.536-22.895,1.991-4.689,3.69-8.279,4.1-9.236,1.035-2.363,2.8-10.912,2.512-13.117-.264-1.955,4.325-7.494,8.657-10.47,3.354,3.882,7.894,8.229,11.384,10.013,3.711-7.08,15.609-29.5,17.171-34.664,1.085-3.547-.763-10.8-3.918-12.2a6.131,6.131,0,0,1-.064-.693C-3365.187-957-3365.652-949.088-3367.749-943.236Z" transform="translate(3444.472 960.636)" fill="#ceccfc"/>
                        <path id="Trazado_144376" data-name="Trazado 144376" d="M-3412.162-913.173c-1.919,2.955-2.8,3.1-9.142,11.355-6.23,8.115-14.381,24.787-13.517,52.935.214,6.773.385,26.136.3,27.92.3,1.356,2.191,4.925,3.775,7.779l-14.159-4.417a146.666,146.666,0,0,1-3.262-19.327c.085-13.032,1.149-33.486,3.419-43.214,3.954-17,15.444-39.581,27.756-57.153-.086.007-.172.007-.25.015.3-.022.614-.043.942-.071-1.613,3.947-4.746,10.405-4.746,10.405,3.633.172,6.3.3,8.957.315C-3411.441-922.75-3410.457-915.8-3412.162-913.173Z" transform="translate(3448.168 957.643)" fill="#ceccfc"/>
                      </g>
                      <path id="Trazado_144377" data-name="Trazado 144377" d="M-3421.048-926.947s3.133-6.458,4.746-10.405c-.329.029-.642.05-.942.071.078-.008.164-.008.25-.015-12.312,17.571-23.8,40.153-27.756,57.153-2.27,9.728-3.333,30.183-3.419,43.214a146.666,146.666,0,0,0,3.262,19.327l7.209,2.249c.2-10.377.529-36.981-1.643-47.005-2.32-10.7-1.606-25.871,3.033-36.042,3.3-7.234,10.75-19.97,15.805-28.522Z" transform="translate(3448.168 957.643)" fill="#bdbafc"/>
                    </g>
                    <g id="Grupo_88390" data-name="Grupo 88390" transform="translate(13.283 30.696)">
                      <path id="Trazado_144378" data-name="Trazado 144378" d="M-3406.22-908.1c.208,1.568-.626,6.343-1.575,10.124a21.9,21.9,0,0,1-.937,2.993c-.414.957-2.113,4.546-4.1,9.236-2.927,6.887-6.48,16.144-7.536,22.895-1.435,9.222-.571,19.313.05,27.771-1.62,4.532-3.233,9.135-4.746,13.51a79.634,79.634,0,0,0-1.464,10.626l-2.255-.707c-1.584-2.854-3.475-6.423-3.775-7.779.086-1.785-.086-21.148-.3-27.92-.864-28.148,7.287-44.82,13.517-52.935,6.345-8.257,7.223-8.4,9.142-11.355,1.706-2.626.721-9.577.072-13.46,2.6,0,5.121-.092,7.908-.315.2,1.56,3.628,5.653,4.66,6.844C-3401.9-915.592-3406.484-910.053-3406.22-908.1Z" transform="translate(3432.926 925.412)" fill="#05dbf2"/>
                      <path id="Trazado_144379" data-name="Trazado 144379" d="M-3403.417-907.775c.292,2.211-1.476,10.762-2.511,13.123-.416.955-2.114,4.545-4.1,9.231-3.608-12.044,2.936-23.009,3.475-24.963.5-1.8,5.252-9.215,8.206-12.495a44.717,44.717,0,0,0,3.59,4.634C-3399.093-915.265-3403.681-909.729-3403.417-907.775Z" transform="translate(3430.121 925.086)" fill="#19c2d8"/>
                    </g>
                    <g id="Grupo_88391" data-name="Grupo 88391" transform="translate(27.12 0.693)">
                      <path id="Trazado_144380" data-name="Trazado 144380" d="M-3364.479-947.644c-1.562,5.16-13.46,27.584-17.171,34.664-6.216-3.177-15.745-14.466-16.044-16.857,8.008-1.106,19.9-6.908,24.536-11.669,4.379-4.491,5.991-10.537,5.853-12.924a24.788,24.788,0,0,1-1.092-5.41C-3365.243-958.442-3363.395-951.191-3364.479-947.644Z" transform="translate(3414.559 959.841)" fill="#ecebff"/>
                      <path id="Trazado_144381" data-name="Trazado 144381" d="M-3400.183-927.089a117.655,117.655,0,0,1-16.865,0s3.133-6.458,4.746-10.405a61.4,61.4,0,0,0,6.2-.964C-3406.1-937.545-3403.116-929.087-3400.183-927.089Z" transform="translate(3417.047 957.092)" fill="#ecebff"/>
                    </g>
                  </g>
                  <g id="Grupo_88396" data-name="Grupo 88396">
                    <g id="Grupo_88393" data-name="Grupo 88393" transform="translate(0 0.644)">
                      <path id="Trazado_144382" data-name="Trazado 144382" d="M-3318.208-883.693c-1.07,5.888-.535,27.12-.179,33.544s-.177,20.876-.177,24.266-28.192,26.407-56.2,26.585a149.014,149.014,0,0,1-49.446-8.236c-1.02-.378-1.663-.642-1.884-.742.835-7.023.957-10.648,1.906-14.573,2.227-3.212,17.4-26.585,26.407-35.949a203.575,203.575,0,0,1,23.494-20.733c5.824-4.461,13.739-13.738,13.739-14.331s-2.741-4.047-3.569-5.652-2.676-5.71-2.262-6.424,3.09-1.663,4.46-2.02,5.888-1.549,6.366-2.084,1.127-5.41,1.306-14.331a52.046,52.046,0,0,0-.692-11.006c.935.722,2.07,1.642,3.3,2.684,4.988,4.218,11.7,10.413,14.395,13.2,3.812,3.925,14.931,15.109,17.25,21.353S-3317.136-889.581-3318.208-883.693Z" transform="translate(3468.354 957.538)" fill="#5e58e8"/>
                      <path id="Trazado_144383" data-name="Trazado 144383" d="M-3432.209-944.057c0,.714-.271,1.156-1.648,1.605s-8.222.478-9,1.192-7.415,21.426-8.8,29.141c-2.32,12.9-3.212,45.5-2.677,53.527a125.042,125.042,0,0,0,2.769,18.648,152.245,152.245,0,0,0,3.475,20.341,107.049,107.049,0,0,1-18.905-8.628c-3.454-2.085-6.366-4.325-7.594-6.452.628-3.3,4.639-29.168,5.445-33.994.806-4.81,4.639-12.575,5.089-15.073s2.584-12.932,3.925-16.857c.85-2.5,1.92-8.786,2.676-14.153.969-6.847.728-6.715,1.156-9.549.928-6,3.94-18.77,7.851-25.729,4.46-7.936,8.208-9.278,10.97-10.349,2.3-.885,4.838-.179,7.165.343-.278.678.164,3.768.606,4.061a7.186,7.186,0,0,0,.036,1.827c-1.356.328-2.6.685-3.076,1.356C-3433.635-951.551-3432.209-944.771-3432.209-944.057Z" transform="translate(3474.588 960.807)" fill="#5e58e8"/>
                    </g>
                    <g id="Grupo_88394" data-name="Grupo 88394" transform="translate(7.594 22.803)">
                      <path id="Trazado_144384" data-name="Trazado 144384" d="M-3350.98-915.631c-.593,8.086-2.612,7.081-6.124,7.851s-6.6,2.441-6.544,3.983,3.276,6.666,4.817,8.386.714,2.676.357,3.276c-5.653,9.413-20.219,19.327-30.389,29.5s-23.211,25.992-31.094,39.7c-1.55,2.7-2.48,9.638-2.48,15.555-1.021-.378-3.438-.793-3.659-.893.05-.421.442-3.947.442-3.947a79.68,79.68,0,0,1,1.463-10.627c2.568-3.719,17.474-26.659,26.407-35.949a203.575,203.575,0,0,1,23.494-20.733c5.824-4.461,13.739-13.738,13.739-14.331s-2.741-4.047-3.569-5.652-2.676-5.71-2.262-6.424,3.09-1.663,4.46-2.02,5.888-1.549,6.366-2.084c.908-1.032,2.112-18.4.614-25.337.935.722,2.07,1.642,3.3,2.684C-3350.7-928.877-3350.509-921.961-3350.98-915.631Z" transform="translate(3460.76 935.379)" fill="#423eaf"/>
                      <path id="Trazado_144385" data-name="Trazado 144385" d="M-3310.677-893.782c-.051-.108-.1-.214-.153-.324-11.295,1.782-33.345,33.026-37.181,47.032-3,10.942,2.843,18.278-.208,30.3a78.912,78.912,0,0,0-2.29,14.125c0,.8,3.836-3.836,3.836-3.836,7.428-12.689,1.992-26.69-.384-35.594C-3344.607-860.667-3320.98-890.909-3310.677-893.782Z" transform="translate(3451.044 930.074)" fill="#423eaf"/>
                      <path id="Trazado_144386" data-name="Trazado 144386" d="M-3454.762-876.225c0,2.376-1.9,33.187-2.141,36.755s-2.141,16.536-2.141,19.034c0,.614-6.851-2.091-6.829-2.412.114-1.863,3.825-7.244,4.332-11.5.6-5,3.333-27.72,3.333-29.383s1.663-27.713,1.784-30.1c.085-1.713.3-10.049.093-15.545.436-3.075.764-5.852.893-7.443.042-.543.135-1.257.264-2.105,1.313,1.077,2.42,2.22,2.32,3.683-.121,1.784-1.841,11.54-2.02,16.357C-3455.075-893.525-3454.762-878.6-3454.762-876.225Z" transform="translate(3465.874 933.264)" fill="#423eaf"/>
                    </g>
                    <g id="Grupo_88395" data-name="Grupo 88395" transform="translate(20.104)">
                      <path id="Trazado_144387" data-name="Trazado 144387" d="M-3361.64-911.322c1.371-.356,5.889-1.549,6.366-2.084.876-1,1.8-15.383,1.028-22.589-.254-2.117-.669-4.864-1.777-6.644-1.156-1.87-6.952-7.359-9.278-12.355-1.077-2.315-4.292-5.25-6.562-6.552.01.277.02.553.037.823,5.76,3.524,5.8,10.952,3.5,17.371-2.141,5.981-14.1,33.544-23.739,46.218a117.6,117.6,0,0,0-16.857,29.79c-3.1,7.712-9.556,25.425-14.987,41.131,2.6-3.767,17.482-26.667,26.407-35.949a203.574,203.574,0,0,1,23.494-20.733c5.824-4.461,13.739-13.738,13.739-14.331s-2.74-4.047-3.568-5.652-2.677-5.71-2.262-6.424S-3363.01-910.965-3361.64-911.322Z" transform="translate(3447.969 961.546)" fill="#7d79e8"/>
                      <path id="Trazado_144388" data-name="Trazado 144388" d="M-3417.424-939.329c-12.312,17.571-23.8,40.153-27.756,57.153-2.27,9.728-3.333,30.183-3.419,43.215a125.064,125.064,0,0,1-2.77-18.648c-.535-8.03.357-40.624,2.677-53.527,1.384-7.715,8.029-28.427,8.8-29.141s7.616-.743,9-1.192,1.648-.891,1.648-1.605-1.427-7.494-.535-8.743c.478-.671,1.72-1.027,3.076-1.356a4.628,4.628,0,0,0,1.035,2.748C-3426.123-942.914-3424.9-938.705-3417.424-939.329Z" transform="translate(3451.519 960.47)" fill="#7d79e8"/>
                    </g>
                  </g>
                </g>
                <g id="Grupo_88405" data-name="Grupo 88405" transform="translate(33.973)">
                  <g id="Grupo_88400" data-name="Grupo 88400" transform="translate(6.973 32.316)">
                    <g id="Grupo_88398" data-name="Grupo 88398" transform="translate(20.139 33.788)">
                      <path id="Trazado_144389" data-name="Trazado 144389" d="M-3374.032-942.4c-4.639,4.761-16.529,10.563-24.536,11.669-2.909-2.014-5.923-10.383-5.923-11.376,9.794-1.879,12.475-3.438,13.189-3.676,5.051-2.31,9.987-7.013,11.869-10.527a47.489,47.489,0,0,0,4.1-10.491,16.144,16.144,0,0,1,5.952,3.019,25.158,25.158,0,0,0,1.206,8.457C-3368.052-953.133-3369.519-947.03-3374.032-942.4Z" transform="translate(3404.492 966.806)" fill="#ffa85c"/>
                      <path id="Trazado_144390" data-name="Trazado 144390" d="M-3371.721-944.876a33.717,33.717,0,0,0-.628-4.1c-.6-2.369-3.148-2.706-10.885,2.051-6.235,3.829-14.874,4.678-19.322,4.492a53.5,53.5,0,0,0,12.248-3.705,28,28,0,0,0,11.124-10.169,52.067,52.067,0,0,0,3.688-8.913c.1-.354.239-.911.407-1.583a16.119,16.119,0,0,1,5.951,3.025,25.259,25.259,0,0,0,1.211,8.453C-3367.83-953.674-3368.732-949.1-3371.721-944.876Z" transform="translate(3404.243 966.806)" fill="#ff983e"/>
                    </g>
                    <g id="Grupo_88399" data-name="Grupo 88399">
                      <path id="Trazado_144391" data-name="Trazado 144391" d="M-3377.2-976.45c-.161.685-1.319,5.571-1.521,6.243a52.073,52.073,0,0,1-3.688,8.913c-2.026,3.674-6.941,8.315-11.867,10.523a55.735,55.735,0,0,1-9.8,2.989c-14.431,3.053-19.3,3.373-18.526-9.382a4.979,4.979,0,0,1-1.062-2.972,6.339,6.339,0,0,1-.009-1.6c-.442-.292-.883-3.387-.592-4.051-.071-.221-1.476-.371-2.21-1.256s-.072-3.386,1.255-5.084c-.371-1.769-.964-10.39-.663-11.5s.513-4.934-.22-5.6a6.784,6.784,0,0,1-1.469-4.669c2.794-.4,5.1-4.548,6.243-7.109.681-1.47.819-2.3,2.1-3.228,1.873-1.374,5.085-1.74,6.562-.919a39.209,39.209,0,0,0,5.412,2.016,43.713,43.713,0,0,0,5.288,1.221c.39.07,1.3.2,2.263.3a30.947,30.947,0,0,0,4.625.124c0,10.381,7.161,8.018,10.275,14.033,1.318,2.529.673,9.17,2.883,10.612C-3381.017-976.255-3378.278-976.383-3377.2-976.45Z" transform="translate(3427.601 1005.578)" fill="#ffba7b"/>
                      <path id="Trazado_144392" data-name="Trazado 144392" d="M-3376.649-975.924c-.164.685-1.32,5.567-1.52,6.238a51.753,51.753,0,0,1-3.69,8.913c-1.987,3.611-6.876,8.284-11.869,10.527-4.708,2.121-12.1,3.554-17.186,4.383-4.539.661-8.379.7-10.07-2.313a23.888,23.888,0,0,1,2.426-5.738c.814-1.47-.221-6.559-.221-8.914s-.956-1.841-2.5-2.434a3.159,3.159,0,0,1-1.991-3.54c.371-1.177,3.6-10.1,5.081-12.6s5.381-3.318,6.859-3.318,6.78-.072,7.365-1.549c.5-1.264.528-10.984,1.813-15.245a33.7,33.7,0,0,0,7.622.55c0,10.377,7.158,8.015,10.27,14.031,1.32,2.534.678,9.171,2.884,10.612C-3380.467-975.732-3377.733-975.861-3376.649-975.924Z" transform="translate(3427.055 1005.056)" fill="#ffad63"/>
                    </g>
                  </g>
                  <g id="Grupo_88402" data-name="Grupo 88402">
                    <path id="Trazado_144393" data-name="Trazado 144393" d="M-3356.646-1013.116a29.168,29.168,0,0,0-2.372-6.063,25.712,25.712,0,0,0-8.564-9.959c.442-3.877-2.9-9.184-6.633-11.5s-7.11-.918-13.964-1.914-14.049,4.89-15.988,5.792a45.381,45.381,0,0,0-4.15,2.3c-2.962.73-4.053,2.6-5.3,3.308-.91.579-1.641,1.021-2.049,1.233-1.557.774-11.055,5.418-11.727,8.513,0,0-10.825,8.18-7.619,18.683.884,2.9,2.985,4.311,6.191,4.09s5.74-5.306,7.067-8.512a4.356,4.356,0,0,1,1.5-1.854c1.871-1.378,5.086-1.743,6.565-.918,1.93.927,9.6,4.082,17.586,3.657,0,.332,0,.647.017.952.008.093.017.179.017.264.553,8.988,7.254,7.049,10.239,12.823,1.318,2.525.672,9.168,2.883,10.6a6.243,6.243,0,0,0,2.858.442,38.227,38.227,0,0,0,4.26-.263c.74-.077,1.489-.17,2.237-.281.22-.025.425-.059.638-.085.527-.076,1.046-.161,1.548-.238.85-.143,5.089-.882,5.808-1.344,1.132-.692-.163.728,4.864-5.749C-3355.651-995.64-3355.429-1008.354-3356.646-1013.116Z" transform="translate(3435.603 1042.661)" fill="#423eaf"/>
                    <g id="Grupo_88401" data-name="Grupo 88401" transform="translate(0.898 0.614)">
                      <path id="Trazado_144394" data-name="Trazado 144394" d="M-3370.7-1037.513a14.242,14.242,0,0,0-3.378-3.032,9.941,9.941,0,0,0-4.951-1.413,4.624,4.624,0,0,1-3.887,1.931c-1.7-.141-12.756,3.685-13.323,6.378s-4.96,2.693-7.37,3.969-4.961,5.67-7.937,6.378-4.252,7.37-7.512,8.078c-4.211.916-2.2,16.619-15.166,13.465-.117-.029-.229-.045-.344-.07,1.012,2.351,3,3.492,5.887,3.292,3.2-.221,5.74-5.306,7.067-8.512a4.351,4.351,0,0,1,1.5-1.854c1.871-1.378,5.086-1.743,6.565-.919.483.232,1.324.6,2.441,1.023.509-2.387,1.976-4.647,5.094-6.78,4.039-2.764,11.812-6.753,13.606-9.354,1.418-2.056,5.812-2.764,8.93-2.622s5.952-.284,7.653-3.969A16.752,16.752,0,0,1-3370.7-1037.513Z" transform="translate(3434.573 1041.957)" fill="#34308a"/>
                      <path id="Trazado_144395" data-name="Trazado 144395" d="M-3353.191-1017.184c-8.5,8.457-30.18,13.88-37.052,14.142a1.412,1.412,0,0,1-.017-.264c-.017-.306-.017-.62-.017-.953,5.582-2.327,13.368-8.419,18-12.381,4.72-4.048,8.768-8.071,10.519-10.5A25.714,25.714,0,0,1-3353.191-1017.184Z" transform="translate(3428.879 1040.053)" fill="#34308a"/>
                    </g>
                  </g>
                  <g id="Grupo_88404" data-name="Grupo 88404" transform="translate(21.99 6.679)">
                    <g id="Grupo_88403" data-name="Grupo 88403" transform="translate(6.994 61.644)">
                      <path id="Trazado_144396" data-name="Trazado 144396" d="M-3397.806-946.87l-.025-.639c20.845-.842,32.929-14.889,33.805-16.751l.579.272C-3364.343-962.084-3376.655-947.725-3397.806-946.87Z" transform="translate(3401.764 964.26)" fill="#ffd56e"/>
                      <path id="Trazado_144397" data-name="Trazado 144397" d="M-3398-945.338a.742.742,0,0,1,.053.992c-.334.2-2.152.9-2.531,1.042s-1.284.214-1.628-.408c-.51-.925-.247-2.37,1.319-2.11A24.635,24.635,0,0,1-3398-945.338Z" transform="translate(3402.344 961.894)" fill="#131416"/>
                    </g>
                    <path id="Trazado_144398" data-name="Trazado 144398" d="M-3361.371-983.277a19.292,19.292,0,0,1-1.139,4.839c-2.312-15.338-6.092-27.682-16.021-40.19-3.223-4.074-5.536-7.118-12.025-11.319a23.884,23.884,0,0,0-11.464-3.946,8.772,8.772,0,0,0-7.985,3.5c-.127.077-.247.161-.365.229a13.055,13.055,0,0,1,5.127-4.073c6.7-2.88,19.58,2.327,30.386,16.583a53.209,53.209,0,0,1,6.743,11.472C-3363.089-994.019-3361.371-988.847-3361.371-983.277Z" transform="translate(3410.37 1034.997)" fill="#131416"/>
                    <path id="Trazado_144399" data-name="Trazado 144399" d="M-3362.456-978.282c-.927-1.854-1.71-3.87-3.666-4.575a46.535,46.535,0,0,0-3.571-20.01c-5.65-13.3-17.221-28.493-31.465-30.58-5.609-.851-7.937,2.73-8.794,3.215a8.765,8.765,0,0,1,7.985-3.5,23.885,23.885,0,0,1,11.464,3.946c6.488,4.2,8.8,7.245,12.025,11.319C-3368.533-1005.947-3364.761-993.574-3362.456-978.282Z" transform="translate(3410.316 1034.841)" fill="#414d59"/>
                    <path id="Trazado_144400" data-name="Trazado 144400" d="M-3364.018-964.928a4.6,4.6,0,0,1-4.457.814,12.366,12.366,0,0,1-3.661-2.52c-2.393-4.237,1.454-13.589,10.488-17.412.124,1.043.212,2.087.265,3.139a19.674,19.674,0,0,0-6.375,7.013c-.86,1.678-3.192,7.818.2,9.32A3.674,3.674,0,0,0-3364.018-964.928Z" transform="translate(3405.545 1028.447)" fill="#131416"/>
                    <path id="Trazado_144401" data-name="Trazado 144401" d="M-3360.358-976.893c0,.447-.012.9-.027,1.346-5.278,4.255-4.857,9.7-2.2,11a.9.9,0,0,1-.419-.1C-3365.958-965.954-3367.082-972.2-3360.358-976.893Z" transform="translate(3404.581 1027.528)" fill="#2f3136"/>
                    <path id="Trazado_144402" data-name="Trazado 144402" d="M-3361.529-964.231c-3.357-.282-4.648-6.484,1.268-11.253,1.966.714,2.717,2.694,3.666,4.578a24.357,24.357,0,0,0,1.2-5.5C-3351.255-974.186-3354.4-963.637-3361.529-964.231Z" transform="translate(3404.458 1027.465)" fill="#212326"/>
                    <path id="Trazado_144403" data-name="Trazado 144403" d="M-3360.5-977.619c0,.209,0,.42,0,.633-6.724,4.695-5.6,10.939-2.641,12.251a2.136,2.136,0,0,1-2.737-.537C-3367.3-967.064-3366.451-973.771-3360.5-977.619Z" transform="translate(3404.728 1027.621)" fill="#131416"/>
                    <path id="Trazado_144404" data-name="Trazado 144404" d="M-3363.448-965.1a2.6,2.6,0,0,0,.386.14,4.444,4.444,0,0,1-.441.5,3.678,3.678,0,0,1-3.534.351c-2.237-.993-2.273-4.082-.676-8.272,1.419-3.718,4.991-6.876,6.842-8.06q.064,1.224.066,2.46c-5.935,3.84-6.8,10.549-5.381,12.347A2.136,2.136,0,0,0-3363.448-965.1Z" transform="translate(3405.03 1027.984)" fill="#f8c750"/>
                    <path id="Trazado_144405" data-name="Trazado 144405" d="M-3352.683-978.175a3.473,3.473,0,0,0-2.011-3.236c-.124-.575-.272-1.2-.451-1.876a4.76,4.76,0,0,1,1.652,1.344A4.5,4.5,0,0,1-3352.683-978.175Z" transform="translate(3403.271 1028.35)" fill="#131416"/>
                    <path id="Trazado_144406" data-name="Trazado 144406" d="M-3352.857-975.708a3.379,3.379,0,0,0-.322-.49,3.063,3.063,0,0,0-1.04-2.539c-.09-.714-.219-1.5-.409-2.4C-3352.555-980.187-3352.315-977.915-3352.857-975.708Z" transform="translate(3403.205 1028.073)" fill="#f8c750"/>
                    <path id="Trazado_144407" data-name="Trazado 144407" d="M-3353.218-975.968a3.38,3.38,0,0,0-.867-.693,7.76,7.76,0,0,0-.073-1.723A2.677,2.677,0,0,1-3353.218-975.968Z" transform="translate(3403.144 1027.719)" fill="#131416"/>
                    <path id="Trazado_144408" data-name="Trazado 144408" d="M-3353.351-975.954a3.061,3.061,0,0,0-.724-.539c.013-.2.017-.4.017-.587A1.841,1.841,0,0,1-3353.351-975.954Z" transform="translate(3403.134 1027.552)" fill="#2f3136"/>
                  </g>
                </g>
              </g>
              <g id="Grupo_88407" data-name="Grupo 88407" transform="translate(12.593 159.032)">
                <path id="Trazado_144409" data-name="Trazado 144409" d="M-3354.767-825.537a1.53,1.53,0,0,0,1.53,1.53,1.53,1.53,0,0,0,1.531-1.53,1.53,1.53,0,0,0-1.531-1.53A1.53,1.53,0,0,0-3354.767-825.537Z" transform="translate(3460.774 862.934)" opacity="0.6" fill="url(#radial-gradient)" style="mix-blend-mode: screen;isolation: isolate"/>
                <path id="Trazado_144410" data-name="Trazado 144410" d="M-3434.375-808.854a1.531,1.531,0,0,0,1.531,1.53,1.531,1.531,0,0,0,1.53-1.53,1.531,1.531,0,0,0-1.53-1.531A1.531,1.531,0,0,0-3434.375-808.854Z" transform="translate(3471.007 860.79)" opacity="0.6" fill="url(#radial-gradient-2)" style="mix-blend-mode: screen;isolation: isolate"/>
                <path id="Trazado_144411" data-name="Trazado 144411" d="M-3467.3-830.659a2.774,2.774,0,0,0,2.774,2.774,2.774,2.774,0,0,0,2.774-2.774,2.774,2.774,0,0,0-2.774-2.774A2.774,2.774,0,0,0-3467.3-830.659Z" transform="translate(3475.239 863.753)" opacity="0.6" fill="url(#radial-gradient-3)" style="mix-blend-mode: screen;isolation: isolate"/>
                <circle id="Elipse_4686" data-name="Elipse 4686" cx="3.73" cy="3.73" r="3.73" transform="translate(0 15.686)" opacity="0.6" fill="url(#radial-gradient-4)" style="mix-blend-mode: screen;isolation: isolate"/>
                <path id="Trazado_144412" data-name="Trazado 144412" d="M-3404.412-803.816a3.092,3.092,0,0,0,3.093,3.092,3.092,3.092,0,0,0,3.092-3.092,3.093,3.093,0,0,0-3.092-3.093A3.093,3.093,0,0,0-3404.412-803.816Z" transform="translate(3467.155 860.343)" opacity="0.6" fill="url(#radial-gradient-5)" style="mix-blend-mode: screen;isolation: isolate"/>
                <path id="Trazado_144413" data-name="Trazado 144413" d="M-3471.581-866.407a1.817,1.817,0,0,0,1.817,1.817,1.817,1.817,0,0,0,1.817-1.817,1.817,1.817,0,0,0-1.817-1.818A1.817,1.817,0,0,0-3471.581-866.407Z" transform="translate(3475.79 868.225)" opacity="0.6" fill="url(#radial-gradient-6)" style="mix-blend-mode: screen;isolation: isolate"/>
                <circle id="Elipse_4687" data-name="Elipse 4687" cx="1.817" cy="1.817" r="1.817" transform="translate(100.619 53.434)" opacity="0.6" fill="url(#radial-gradient-7)" style="mix-blend-mode: screen;isolation: isolate"/>
                <path id="Trazado_144414" data-name="Trazado 144414" d="M-3451.972-841.383a1.817,1.817,0,0,0,1.817,1.817,1.818,1.818,0,0,0,1.818-1.817,1.818,1.818,0,0,0-1.818-1.818A1.818,1.818,0,0,0-3451.972-841.383Z" transform="translate(3473.269 865.008)" opacity="0.6" fill="url(#radial-gradient-8)" style="mix-blend-mode: screen;isolation: isolate"/>
                <path id="Trazado_144415" data-name="Trazado 144415" d="M-3297.732-844.9a1.818,1.818,0,0,0,1.818,1.818,1.818,1.818,0,0,0,1.817-1.818,1.817,1.817,0,0,0-1.817-1.817A1.818,1.818,0,0,0-3297.732-844.9Z" transform="translate(3453.442 865.46)" opacity="0.6" fill="url(#radial-gradient-9)" style="mix-blend-mode: screen;isolation: isolate"/>
                <circle id="Elipse_4688" data-name="Elipse 4688" cx="2.385" cy="2.385" r="2.385" transform="translate(25.193 37.722)" opacity="0.6" fill="url(#radial-gradient-10)" style="mix-blend-mode: screen;isolation: isolate"/>
                <circle id="Elipse_4689" data-name="Elipse 4689" cx="2.385" cy="2.385" r="2.385" transform="translate(83.6 45.284)" opacity="0.6" fill="url(#radial-gradient-11)" style="mix-blend-mode: screen;isolation: isolate"/>
                <circle id="Elipse_4690" data-name="Elipse 4690" cx="3.73" cy="3.73" r="3.73" transform="translate(116.783 46.006)" opacity="0.4" fill="url(#radial-gradient-12)" style="mix-blend-mode: screen;isolation: isolate"/>
                <path id="Trazado_144416" data-name="Trazado 144416" d="M-3298.061-866.146a1.53,1.53,0,0,0,1.53,1.53,1.53,1.53,0,0,0,1.53-1.53,1.53,1.53,0,0,0-1.53-1.53A1.53,1.53,0,0,0-3298.061-866.146Z" transform="translate(3453.484 868.154)" opacity="0.6" fill="url(#radial-gradient-13)" style="mix-blend-mode: screen;isolation: isolate"/>
              </g>
            </g>
          </g>
        </g>
      </g>
      <g id="Grupo_88415" data-name="Grupo 88415" transform="translate(-3384.268 -1120.622)">
        <path id="Trazado_144418" data-name="Trazado 144418" d="M-3259.224-1069.446v47.543l-85.907-49.609v-47.528l2.375,1.378Z" transform="translate(3345.131 1120.419)" fill="#c6d4f8"/>
        <g id="Grupo_88414" data-name="Grupo 88414" transform="translate(1.441 24.787)" opacity="0.9" style="mix-blend-mode: screen;isolation: isolate">
          <path id="Trazado_144419" data-name="Trazado 144419" d="M-3330.17-1080.617l40.529,23.4a7.733,7.733,0,0,1,3.486,6.038v7.426c0,2.228-1.569,3.119-3.485,2.013l-35.912-20.733a7.711,7.711,0,0,1-3.485-6.037v-7.426a7.43,7.43,0,0,0-1.355-3.969C-3330.7-1080.363-3330.561-1080.842-3330.17-1080.617Zm9.192,17.594,30.146,17.4c.71.41,1.286.078,1.286-.742a2.84,2.84,0,0,0-1.286-2.227l-30.146-17.4c-.711-.41-1.286-.078-1.286.743A2.841,2.841,0,0,0-3320.978-1063.023Zm-3.135-7.936,33.281,19.214c.711.41,1.286.078,1.286-.742a2.841,2.841,0,0,0-1.286-2.228l-33.281-19.215c-.711-.411-1.286-.078-1.286.742A2.841,2.841,0,0,0-3324.112-1070.959Z" transform="translate(3341.818 1090.699)" fill="#fff"/>
          <path id="Trazado_144420" data-name="Trazado 144420" d="M-3312.619-1089.693c0-2.213,1.568-3.119,3.486-2.012l40.529,23.4c.391.227.532.869.223.967a2.275,2.275,0,0,0-1.355,2.4v7.426c0,2.228-1.57,3.119-3.486,2.013l-35.912-20.733a7.712,7.712,0,0,1-3.485-6.037Zm20.958,20.238,17.2,9.932c.711.41,1.286.078,1.286-.742a2.84,2.84,0,0,0-1.286-2.228l-17.2-9.932c-.71-.41-1.286-.078-1.286.743A2.842,2.842,0,0,0-3291.661-1069.456Zm-16.077-15.161,33.281,19.215c.711.411,1.286.078,1.286-.743a2.842,2.842,0,0,0-1.286-2.228l-33.281-19.214c-.711-.41-1.286-.078-1.286.743A2.841,2.841,0,0,0-3307.738-1084.616Z" transform="translate(3339.511 1092.178)" fill="#fff"/>
          <g id="Grupo_88413" data-name="Grupo 88413" transform="translate(72.984 26.667)">
            <path id="Trazado_144421" data-name="Trazado 144421" d="M-3256.8-1061.577a4.362,4.362,0,0,1,2.171.652,9.741,9.741,0,0,1,4.469,7.74c0,2.185-1.15,3.6-2.929,3.6a4.361,4.361,0,0,1-2.171-.652,9.742,9.742,0,0,1-4.469-7.741C-3259.728-1060.165-3258.577-1061.577-3256.8-1061.577Zm1.854,10.79c2.295,1.324,4.154.25,4.154-2.4a9.181,9.181,0,0,0-4.153-7.194c-2.294-1.325-4.154-.251-4.154,2.4A9.183,9.183,0,0,0-3254.944-1050.787Z" transform="translate(3259.728 1061.577)" fill="#fff"/>
            <g id="Grupo_88412" data-name="Grupo 88412" transform="translate(1.465 2.684)">
              <path id="Trazado_144422" data-name="Trazado 144422" d="M-3256.328-1057.2a4.028,4.028,0,0,0,1.821,3.156c1.007.581,1.822.11,1.822-1.052a4.028,4.028,0,0,0-1.822-3.156C-3255.513-1058.829-3256.328-1058.358-3256.328-1057.2Z" transform="translate(3257.826 1058.497)" fill="#fff"/>
              <path id="Trazado_144423" data-name="Trazado 144423" d="M-3254.728-1049.9a8.851,8.851,0,0,1-3.319-3.857,2.355,2.355,0,0,1,3.319-.472,8.769,8.769,0,0,1,3.32,4.3C-3252.165-1049.192-3253.364-1049.115-3254.728-1049.9Z" transform="translate(3258.047 1058.008)" fill="#fff"/>
            </g>
          </g>
          <path id="Trazado_144424" data-name="Trazado 144424" d="M-3340.548-1086.53a4.367,4.367,0,0,1,2.172.653,9.741,9.741,0,0,1,4.469,7.739c0,2.186-1.15,3.6-2.93,3.6a4.36,4.36,0,0,1-2.172-.652,9.744,9.744,0,0,1-4.469-7.741C-3343.478-1085.117-3342.328-1086.53-3340.548-1086.53Zm1.855,2.934c-1.007-.581-1.822-.11-1.822,1.052a4.029,4.029,0,0,0,1.822,3.156c1.007.58,1.822.11,1.822-1.053A4.027,4.027,0,0,0-3338.693-1083.6Zm0,7.856c1.363.788,2.562.71,3.32-.024a10.521,10.521,0,0,0-1.861-3.039,1.452,1.452,0,0,1-.645.168,2.126,2.126,0,0,1-1.066-.317,4.221,4.221,0,0,1-1.483-1.562,2.2,2.2,0,0,0-1.585.918A8.843,8.843,0,0,0-3338.693-1075.74Z" transform="translate(3343.478 1091.452)" fill="#fff"/>
        </g>
        <path id="Trazado_144425" data-name="Trazado 144425" d="M-3256.85-1071.027l-2.375,1.378-83.532-48.216-2.375-1.378,2.375-1.378Z" transform="translate(3345.131 1120.622)" fill="#908ce6"/>
        <path id="Trazado_144426" data-name="Trazado 144426" d="M-3244.178-1063.712v47.543l-2.375,1.378v-47.543Z" transform="translate(3332.459 1113.306)" fill="#4f4ad1"/>
      </g>
      <g id="Grupo_88419" data-name="Grupo 88419" transform="translate(-3649.589 -790.166)">
        <g id="Grupo_88417" data-name="Grupo 88417" transform="translate(0 0)">
          <path id="Trazado_144427" data-name="Trazado 144427" d="M-3594.256-692.343c0-14.011-9.836-31.048-21.97-38.054-6.067-3.5-11.56-3.834-15.535-1.539l6.938-4.005c3.975-2.3,9.468-1.964,15.535,1.538,12.134,7.006,21.97,24.043,21.97,38.054,0,7.006-2.459,11.928-6.436,14.223l-6.938,4.006C-3596.715-680.415-3594.256-685.338-3594.256-692.343Z" transform="translate(3647.298 740.904)" fill="#ef6c00"/>
          <g id="Grupo_88416" data-name="Grupo 88416">
            <ellipse id="Elipse_4691" data-name="Elipse 4691" cx="17.939" cy="31.07" rx="17.939" ry="31.07" transform="translate(0 17.939) rotate(-30)" fill="#fc9744"/>
          </g>
        </g>
        <g id="Grupo_88418" data-name="Grupo 88418" transform="translate(16.677 16.288)" opacity="0.9" style="mix-blend-mode: screen;isolation: isolate">
          <path id="Trazado_144428" data-name="Trazado 144428" d="M-3616.31-691.935a4.659,4.659,0,0,1-1.8-2.177l-7.516-17.788c-.644-1.523-.357-2.9.641-3.062s2.328.931,2.971,2.454l5.637,13.34,9.523-12.977c.607-.83,1.926-.451,2.946.837s1.355,3.006.748,3.834l-11.3,15.394a1.312,1.312,0,0,1-1.807.169Z" transform="translate(3629.877 721.734)" fill="#fff"/>
          <path id="Trazado_144429" data-name="Trazado 144429" d="M-3605.547-701.55l-2.152,2.932,0,9.06c0,2.11-1.489,2.966-3.317,1.909l-13.972-8.077a7.334,7.334,0,0,1-3.312-5.74l.009-16.128c0-2.11,1.489-2.967,3.317-1.91l13.3,7.687,1.26-1.717c-.193-.135-.388-.261-.585-.376l-13.972-8.076c-3.012-1.741-5.465-.329-5.467,3.149l-.008,16.128a12.093,12.093,0,0,0,5.46,9.465l13.971,8.076c3.012,1.741,5.466.329,5.467-3.148Z" transform="translate(3630.453 722.73)" fill="#fff"/>
        </g>
      </g>
      <g id="Grupo_88435" data-name="Grupo 88435" transform="translate(-3418.114 -849.473)">
        <g id="Grupo_88425" data-name="Grupo 88425" transform="translate(49.861 62.251)">
          <g id="Grupo_88421" data-name="Grupo 88421">
            <path id="Trazado_144430" data-name="Trazado 144430" d="M-3296.083-707.255c0-9.573-6.72-21.214-15.011-26-4.145-2.393-7.9-2.62-10.615-1.052l4.74-2.736c2.718-1.569,6.47-1.342,10.615,1.051,8.291,4.787,15.012,16.427,15.012,26,0,4.786-1.681,8.15-4.4,9.718l-4.741,2.737C-3297.763-699.1-3296.083-702.468-3296.083-707.255Z" transform="translate(3326.105 738.042)" fill="#5e58e8"/>
            <g id="Grupo_88420" data-name="Grupo 88420" transform="translate(0 2.737)">
              <path id="Trazado_144431" data-name="Trazado 144431" d="M-3326.754-724.185c0,9.574,6.721,21.214,15.01,26s15.012.906,15.012-8.668-6.721-21.214-15.011-26S-3326.754-733.758-3326.754-724.185Z" transform="translate(3326.754 734.902)" fill="#8985ff"/>
            </g>
          </g>
          <g id="Grupo_88424" data-name="Grupo 88424" transform="translate(2.808 7.185)" opacity="0.9" style="mix-blend-mode: screen;isolation: isolate">
            <g id="Grupo_88422" data-name="Grupo 88422">
              <path id="Trazado_144432" data-name="Trazado 144432" d="M-3323.313-727.551l4.208,7.238,3.814-2.247-4.208-7.238a5.848,5.848,0,0,1,1.583.642,12.474,12.474,0,0,1,5.671,9.757,5.312,5.312,0,0,1-.486,2.4l.859,1.459-2.761,1.754-.915-1.554a5.216,5.216,0,0,1-2.312-.748,12.472,12.472,0,0,1-5.671-9.758A5.979,5.979,0,0,1-3323.313-727.551Zm19.263,25.286c.68,1.17.687,2.442.012,2.839l-.377.221c-.674.4-1.772-.231-2.452-1.4l-5.456-9.264,2.824-1.645Zm-2.335.962.882.5.619-.364-.005-1.02-.626-1.077-.879-.5-.619.365,0,1.018Z" transform="translate(3323.532 729.798)" fill="#fff"/>
              <path id="Trazado_144433" data-name="Trazado 144433" d="M-3301.232-717.524c.894,1.539.9,3.209.017,3.73l-3.548,2.091c-1.615-1.17-2.633-.8-2.336.128l-.641.378-2.159-3.715.641-.377c.655.714,1.478,0,1.256-1.986l3.547-2.091C-3303.569-719.887-3302.126-719.063-3301.232-717.524ZM-3306-714.2c-.184.108-.182.454,0,.773l.087.149c.184.318.484.489.666.381l3.566-2.1c.183-.108.182-.454,0-.772l-.086-.149c-.185-.319-.484-.49-.667-.382Zm-1.208-2.077c-.183.108-.181.454,0,.772l.086.149c.186.319.485.489.667.382l3.566-2.1c.183-.108.181-.454,0-.773l-.086-.149c-.185-.318-.484-.489-.667-.381Zm-9.8,6.823.253.324,7.285-4.629.939,1.614-7.454,4.341.157.381a1.391,1.391,0,0,1,.088.895.618.618,0,0,1-.479.471l-2.284.426-1.368-2.353,1.488-1.8a.614.614,0,0,1,.642-.19A1.376,1.376,0,0,1-3317.005-709.451Z" transform="translate(3323.062 728.477)" fill="#fff"/>
            </g>
            <g id="Grupo_88423" data-name="Grupo 88423">
              <path id="Trazado_144434" data-name="Trazado 144434" d="M-3323.313-727.551l4.208,7.238,3.814-2.247-4.208-7.238a5.848,5.848,0,0,1,1.583.642,12.474,12.474,0,0,1,5.671,9.757,5.312,5.312,0,0,1-.486,2.4l.859,1.459-2.761,1.754-.915-1.554a5.216,5.216,0,0,1-2.312-.748,12.472,12.472,0,0,1-5.671-9.758A5.979,5.979,0,0,1-3323.313-727.551Zm19.263,25.286c.68,1.17.687,2.442.012,2.839l-.377.221c-.674.4-1.772-.231-2.452-1.4l-5.456-9.264,2.824-1.645Zm-2.335.962.882.5.619-.364-.005-1.02-.626-1.077-.879-.5-.619.365,0,1.018Z" transform="translate(3323.532 729.798)" fill="#fff"/>
              <path id="Trazado_144435" data-name="Trazado 144435" d="M-3301.232-717.524c.894,1.539.9,3.209.017,3.73l-3.548,2.091c-1.615-1.17-2.633-.8-2.336.128l-.641.378-2.159-3.715.641-.377c.655.714,1.478,0,1.256-1.986l3.547-2.091C-3303.569-719.887-3302.126-719.063-3301.232-717.524ZM-3306-714.2c-.184.108-.182.454,0,.773l.087.149c.184.318.484.489.666.381l3.566-2.1c.183-.108.182-.454,0-.772l-.086-.149c-.185-.319-.484-.49-.667-.382Zm-1.208-2.077c-.183.108-.181.454,0,.772l.086.149c.186.319.485.489.667.382l3.566-2.1c.183-.108.181-.454,0-.773l-.086-.149c-.185-.318-.484-.489-.667-.381Zm-9.8,6.823.253.324,7.285-4.629.939,1.614-7.454,4.341.157.381a1.391,1.391,0,0,1,.088.895.618.618,0,0,1-.479.471l-2.284.426-1.368-2.353,1.488-1.8a.614.614,0,0,1,.642-.19A1.376,1.376,0,0,1-3317.005-709.451Z" transform="translate(3323.062 728.477)" fill="#fff"/>
            </g>
          </g>
        </g>
        <g id="Grupo_88428" data-name="Grupo 88428" transform="translate(93.503 31.126)">
          <g id="Grupo_88427" data-name="Grupo 88427">
            <path id="Trazado_144436" data-name="Trazado 144436" d="M-3246-742.971c0-9.574-6.721-21.214-15.012-26-4.146-2.393-7.9-2.62-10.614-1.051l4.74-2.737c2.717-1.569,6.47-1.342,10.615,1.051,8.291,4.787,15.012,16.428,15.012,26,0,4.787-1.68,8.15-4.4,9.718l-4.741,2.737C-3247.683-734.822-3246-738.185-3246-742.971Z" transform="translate(3276.025 773.759)" fill="#ef6c00"/>
            <g id="Grupo_88426" data-name="Grupo 88426" transform="translate(0 2.737)">
              <path id="Trazado_144437" data-name="Trazado 144437" d="M-3276.674-759.9c0,9.573,6.721,21.214,15.012,26s15.011.906,15.012-8.667-6.721-21.214-15.012-26S-3276.674-769.475-3276.674-759.9Z" transform="translate(3276.674 770.618)" fill="#fc9744"/>
            </g>
          </g>
          <path id="Trazado_144438" data-name="Trazado 144438" d="M-3262.016-761.7l2.977,8.684,6.657,4.96-4.817,2.641,1.137,8.312-5.954-7.052-5.954.177,1.137-7-4.817-8.2,6.657,2.726Z" transform="translate(3276.028 772.209)" fill="#fff" opacity="0.9" style="mix-blend-mode: screen;isolation: isolate"/>
        </g>
        <g id="Grupo_88431" data-name="Grupo 88431" transform="translate(0 90.984)">
          <g id="Grupo_88430" data-name="Grupo 88430" transform="translate(0 0)">
            <path id="Trazado_144439" data-name="Trazado 144439" d="M-3346.163-671.538c0-9.573-6.721-21.214-15.011-26-4.146-2.394-7.9-2.62-10.615-1.052l4.741-2.737c2.716-1.568,6.47-1.341,10.615,1.052,8.29,4.786,15.011,16.427,15.01,26,0,4.786-1.68,8.15-4.4,9.718l-4.74,2.737C-3347.843-663.388-3346.163-666.752-3346.163-671.538Z" transform="translate(3382.403 704.718)" fill="#ef6c00"/>
            <g id="Grupo_88429" data-name="Grupo 88429">
              <ellipse id="Elipse_4692" data-name="Elipse 4692" cx="12.257" cy="21.229" rx="12.257" ry="21.229" transform="matrix(0.866, -0.5, 0.5, 0.866, 0, 12.257)" fill="#fc9744"/>
            </g>
          </g>
          <path id="Trazado_144440" data-name="Trazado 144440" d="M-3371.069-694.658c.109.19.222.39.341.594,1.678,2.9,4.344,7.157,5.6,8.9a3.185,3.185,0,0,1-1.326.38c-1.729-1.9-4.489-7.008-5.326-8.579A1.607,1.607,0,0,1-3371.069-694.658Zm3.945.538c5.287,3.258,7.7,8.1,10.316,12.631s5.611,9.04,5.8,15.249a4.646,4.646,0,0,1-1.3,3.56c-1.695-2.874-4.368-7.889-5.257-9.889a4.47,4.47,0,0,1,.741-.349c.525-.181,1.1-1.12.524-2.721s-1.639-2.651-2.739-4.553-1.478-3.349-2.579-4.647-2.2-1.268-2.618-.906a4.366,4.366,0,0,1-.673.471c-1.29-1.771-4.3-6.589-5.943-9.494A4.631,4.631,0,0,1-3367.124-694.12Zm14.261,30.975.345.594a1.594,1.594,0,0,1-1.479-.029c-.942-1.51-3.987-6.453-4.773-8.9a3.244,3.244,0,0,1,.993-.961C-3356.89-670.48-3354.539-666.046-3352.863-663.145Z" transform="translate(3382.402 703.771)" fill="#fff" opacity="0.9" style="mix-blend-mode: screen;isolation: isolate"/>
        </g>
        <g id="Grupo_88434" data-name="Grupo 88434" transform="translate(137.145)">
          <g id="Grupo_88433" data-name="Grupo 88433">
            <path id="Trazado_144441" data-name="Trazado 144441" d="M-3195.922-778.688c0-9.573-6.72-21.214-15.011-26-4.146-2.393-7.9-2.62-10.615-1.051l4.741-2.737c2.716-1.569,6.469-1.342,10.615,1.051,8.29,4.787,15.011,16.428,15.011,26,0,4.787-1.68,8.15-4.4,9.719l-4.74,2.737C-3197.6-770.539-3195.922-773.9-3195.922-778.688Z" transform="translate(3225.945 809.476)" fill="#5e58e8"/>
            <g id="Grupo_88432" data-name="Grupo 88432" transform="translate(0 2.737)">
              <path id="Trazado_144442" data-name="Trazado 144442" d="M-3226.594-795.618c0,9.573,6.721,21.214,15.012,26s15.011.906,15.011-8.667-6.72-21.214-15.011-26S-3226.594-805.191-3226.594-795.618Z" transform="translate(3226.594 806.335)" fill="#8985ff"/>
            </g>
          </g>
          <path id="Trazado_144443" data-name="Trazado 144443" d="M-3212-795.265c5.84,3.372,10.575,9.774,10.575,14.3a3.792,3.792,0,0,1-4.016,4.1c.51,2.17,1.824,5.3,3.5,6.824a25.607,25.607,0,0,1-8.022-7.815,18.784,18.784,0,0,1-2.039-1.022c-5.841-3.372-10.576-9.775-10.576-14.3S-3217.837-798.637-3212-795.265Zm5.53,14.91c.992.573,1.8.109,1.8-1.036a3.97,3.97,0,0,0-1.8-3.111c-.991-.573-1.8-.108-1.8,1.037A3.967,3.967,0,0,0-3206.467-780.355Zm-5.588-3.225c.992.573,1.8.108,1.8-1.037a3.968,3.968,0,0,0-1.8-3.11c-.992-.573-1.8-.108-1.8,1.037A3.969,3.969,0,0,0-3212.054-783.58Zm-5.587-3.225c.992.573,1.8.108,1.8-1.037a3.969,3.969,0,0,0-1.8-3.11c-.991-.573-1.8-.109-1.8,1.036A3.968,3.968,0,0,0-3217.642-786.806Z" transform="translate(3226.077 807.91)" fill="#fff"/>
        </g>
      </g>
      <g id="Grupo_88437" data-name="Grupo 88437" transform="translate(-3310.765 -993.367)">
        <path id="Trazado_144444" data-name="Trazado 144444" d="M-3214.976-947.306v19.286l-45.81-26.454v-19.278l1.267.735Z" transform="translate(3260.786 974.487)" fill="#c6d4f8"/>
        <g id="Grupo_88436" data-name="Grupo 88436" transform="translate(1.762 8.027)" opacity="0.9" style="mix-blend-mode: screen;isolation: isolate">
          <path id="Trazado_144445" data-name="Trazado 144445" d="M-3252.661-965.384l1.886,5.5,4.217,3.142-3.052,1.673.72,5.265-3.771-4.467-3.772.112.72-4.434-3.052-5.2,4.217,1.727Z" transform="translate(3258.764 965.384)" fill="#fff"/>
          <path id="Trazado_144446" data-name="Trazado 144446" d="M-3235.866-955.688l1.886,5.5,4.217,3.142-3.052,1.673.72,5.265-3.772-4.467-3.771.112.72-4.434-3.051-5.2,4.217,1.727Z" transform="translate(3256.605 964.137)" fill="#fff"/>
          <path id="Trazado_144447" data-name="Trazado 144447" d="M-3219.072-945.992l1.886,5.5,4.217,3.142-3.052,1.673.72,5.265-3.771-4.467-3.772.112.721-4.434-3.052-5.2,4.217,1.727Z" transform="translate(3254.446 962.891)" fill="#fff"/>
        </g>
        <path id="Trazado_144448" data-name="Trazado 144448" d="M-3213.709-948.149l-1.267.735-44.543-25.712-1.267-.735,1.267-.735Z" transform="translate(3260.786 974.595)" fill="#908ce6"/>
        <path id="Trazado_144449" data-name="Trazado 144449" d="M-3206.952-944.248v19.286l-1.267.735v-19.286Z" transform="translate(3254.029 970.694)" fill="#4f4ad1"/>
      </g>
    </g>
    <rect id="Rectángulo_34943" data-name="Rectángulo 34943" width="525" height="404" transform="translate(895.333 144)" fill="none"/>
  </g>
</svg>
