<svg id="icon2" xmlns="http://www.w3.org/2000/svg" width="61.046" height="61.047" viewBox="0 0 61.046 61.047">
  <path id="Trazado_147677" data-name="Trazado 147677" d="M985.009,987.8a30.523,30.523,0,1,1,30.523-30.523A30.557,30.557,0,0,1,985.009,987.8Z" transform="translate(-954.486 -926.756)" fill="#3e2ea6"/>
  <path id="Trazado_147678" data-name="Trazado 147678" d="M1045.361,1010.115c-1.763-1.912-3.362-3.2-5.274-1.442l-19.541,18.015-4.933-5.642c-1.712-1.955-3.439-.844-5.4.867s-3.406,3.376-1.693,5.335l5.1,5.827,4.159,4.756a3.024,3.024,0,0,0,4.327.233l4.646-4.282,19.723-18.182C1048.385,1013.837,1047.124,1012.026,1045.361,1010.115Z" transform="translate(-997.756 -992.611)" fill="#fff"/>
</svg>
