<svg xmlns="http://www.w3.org/2000/svg" width="60" height="60" viewBox="0 0 60 60">
  <g id="icon-b1" transform="translate(-217 -5384.735)">
    <circle id="Elipse_4915" data-name="Elipse 4915" cx="30" cy="30" r="30" transform="translate(217 5384.735)" fill="#005964"/>
    <g id="Grupo_107176" data-name="Grupo 107176" transform="translate(-374.145 5125.17)">
      <path id="Trazado_148849" data-name="Trazado 148849" d="M635.466,290.31a1.2,1.2,0,0,0-1.124,1.114,13.125,13.125,0,1,1-14.381-12.99v2.942a1.475,1.475,0,0,0,.566,1.113,1.259,1.259,0,0,0,.69.134.845.845,0,0,0,.556-.134l7.409-4.344a.94.94,0,0,0,.555-.981c0-.4-.144-.958-.555-1.092l-7.409-4.211a1.03,1.03,0,0,0-.556-.267h-.133c-.145,0-.289.133-.557.267a1.262,1.262,0,0,0-.566,1.137v2.919a15.6,15.6,0,1,0,16.751,15.507,1.225,1.225,0,0,0-1.246-1.114Z" fill="#fefaf7" fill-rule="evenodd"/>
    </g>
  </g>
</svg>
