<svg xmlns="http://www.w3.org/2000/svg" width="610" height="372" viewBox="0 0 610 372">
  <g id="img-intro1" transform="translate(-180 -1139)">
    <g id="Grupo_88460" data-name="Grupo 88460" transform="translate(5043.401 1281.614)">
      <g id="freepik--Puzzle--inject-5" transform="translate(-4778.401 -45.996)">
        <path id="Trazado_144484" data-name="Trazado 144484" d="M-4569.036,77.3a23.791,23.791,0,0,1,12.018,2.636,13.428,13.428,0,0,0,5.464,1.338l4.879-.1.064-54.25a9.3,9.3,0,0,0-9.326-9.278h-.008l-51.575.192V16.761A14.445,14.445,0,0,1-4606,10.487a28.535,28.535,0,0,0,2.452-17.418,29,29,0,0,0-33.663-23.416,29,29,0,0,0-23.873,28.376A28.4,28.4,0,0,0-4658.6,9.55a14.3,14.3,0,0,1,1.29,5.809l.3,2.444h-62.15a9.3,9.3,0,0,0-9.334,9.27h0V80.121h-4.431a13.523,13.523,0,0,1-5.929-1.434,28.04,28.04,0,0,0-16.826-2.316,27.441,27.441,0,0,0-22.107,31.9,27.441,27.441,0,0,0,26.8,22.547,26.945,26.945,0,0,0,10.969-2.332,13.616,13.616,0,0,1,5.5-1.218h5.688l.112,64.9a7.581,7.581,0,0,0,7.6,7.555h166.373c4.2,0,7.491-5.272,7.491-9.446V131.335h-6.73a12.116,12.116,0,0,0-4.543.889,25.182,25.182,0,0,1-32.76-13.965,25.174,25.174,0,0,1-1.8-10.288C-4592.583,95.352-4581.687,78.182-4569.036,77.3Z" transform="translate(4778.367 30.961)" fill="#e0e0e0"/>
        <path id="Trazado_144485" data-name="Trazado 144485" d="M-4569.069,77.263l-.441.056a12.42,12.42,0,0,0-1.306.2,17.915,17.915,0,0,0-4.879,1.731c-4.062,2.075-9.382,6.8-13.4,14.7a35.088,35.088,0,0,0-3.942,14.109,26,26,0,0,0,1.146,8.341,24.773,24.773,0,0,0,4.27,8.052,25,25,0,0,0,17.523,9.334,24.521,24.521,0,0,0,11.009-1.514,13.15,13.15,0,0,1,5.769-1.09h6.161V189.7a11.5,11.5,0,0,1-.144,2.163,11.3,11.3,0,0,1-.593,2.091,10.991,10.991,0,0,1-2.316,3.71,6.832,6.832,0,0,1-3.854,2.155c-.8.08-1.49.048-2.235.056h-159.931c-1.882,0-3.741.04-5.672-.04a7.82,7.82,0,0,1-7.019-8.012V174.515q0-23.235-.088-47.312l.208.208h-3.549a34.589,34.589,0,0,0-3.542.08,13.419,13.419,0,0,0-3.421.873,35.448,35.448,0,0,1-3.381,1.306,27.241,27.241,0,0,1-27.506-6.682,27.721,27.721,0,0,1-4.607-5.985,26.855,26.855,0,0,1-1.6-3.437c-.224-.593-.488-1.17-.665-1.779l-.5-1.843A27.618,27.618,0,0,1-4763.4,78.7a27.632,27.632,0,0,1,8.613-2.684,28.505,28.505,0,0,1,9.038.208A28.858,28.858,0,0,1-4741.4,77.4c.712.256,1.41.537,2.091.857a20.485,20.485,0,0,0,2.035.873c2.764,1.09,5.785.7,8.733.8l-.208.208v-50.6a25.847,25.847,0,0,1,.168-4.15,9.2,9.2,0,0,1,1.642-3.822,9.487,9.487,0,0,1,7.059-3.9h62.815l-.184.208c-.1-.8-.208-1.6-.3-2.4h0a13.828,13.828,0,0,0-.746-4.383c-.232-.705-.544-1.37-.8-2.075s-.545-1.4-.8-2.115a28.864,28.864,0,0,1-1.386-8.813l.12-2.211a5.107,5.107,0,0,1,.08-1.106l.176-1.1c.136-.721.2-1.458.393-2.163l.593-2.123a6.089,6.089,0,0,1,.353-1.034l.4-1.018a13.834,13.834,0,0,1,.889-2l1.01-1.931,1.194-1.939a28.2,28.2,0,0,1,5.881-6.217l.8-.673.889-.585c.6-.385,1.178-.8,1.787-1.146a31.669,31.669,0,0,1,3.806-1.8,29.032,29.032,0,0,1,8.084-1.931,27.29,27.29,0,0,1,4.119-.064c.681.04,1.362.056,2.043.128l2.011.3a29.413,29.413,0,0,1,14.149,7.075,28.777,28.777,0,0,1,8.813,27.626,30.314,30.314,0,0,1-2.4,6.794,14.639,14.639,0,0,0-1.049,3.341,17.339,17.339,0,0,0-.216,3.469l-.152-.152,39.259-.128h11.1c.721,0,1.434,0,2.164.04a9.558,9.558,0,0,1,4.006,1.362,9.328,9.328,0,0,1,4.4,6.69,36.194,36.194,0,0,1,.1,3.966v3.846c-.04,20.279-.072,36.4-.1,47.744v.056h-.063c-1.963,0-3.79.12-5.5.08a13.733,13.733,0,0,1-4.567-1.194,29.99,29.99,0,0,0-6.738-2.4,20.353,20.353,0,0,0-4.19-.449h-1.386a12.513,12.513,0,0,1,1.386-.056,19.941,19.941,0,0,1,4.207.417,30.1,30.1,0,0,1,6.762,2.4,13.971,13.971,0,0,0,4.535,1.17c1.7,0,3.533-.064,5.5-.1l-.057.064V29.543a35.608,35.608,0,0,0-.1-3.934,9.125,9.125,0,0,0-4.294-6.522,9.238,9.238,0,0,0-3.926-1.314c-.705-.056-1.418-.048-2.139-.04h-11.129l-39.26.16h-.144v-.144a16.878,16.878,0,0,1,.216-3.525,15.621,15.621,0,0,1,1.065-3.413,29.413,29.413,0,0,0,2.4-6.73,28.5,28.5,0,0,0-8.717-27.313,29.065,29.065,0,0,0-14-6.987l-1.987-.3c-.673-.072-1.346-.088-2.027-.128a26.445,26.445,0,0,0-4.062.064,28.515,28.515,0,0,0-8.012,1.915,30.559,30.559,0,0,0-3.766,1.779c-.6.361-1.169.8-1.763,1.138l-.873.577-.8.665a28.027,28.027,0,0,0-5.8,6.145L-4657-16.583l-1,1.907a14.525,14.525,0,0,0-.874,1.971l-.393,1a5.981,5.981,0,0,0-.353,1.026l-.577,2.091c-.192.7-.256,1.426-.393,2.139l-.177,1.082c-.047.361-.047.729-.072,1.09l-.12,2.187a28.319,28.319,0,0,0,1.37,8.7,20.913,20.913,0,0,0,.8,2.1,21.629,21.629,0,0,1,.849,2.091,14.042,14.042,0,0,1,.8,4.5h0c.1.8.2,1.6.313,2.444v.208h-.216l-62.792.048a9.087,9.087,0,0,0-6.762,3.742,8.824,8.824,0,0,0-1.6,3.654,26.381,26.381,0,0,0-.152,4.142V80.364h-4.647a13.319,13.319,0,0,1-4.438-.8c-.705-.24-1.4-.585-2.067-.889a17.24,17.24,0,0,0-2.051-.8,27.151,27.151,0,0,0-4.295-1.162,28.1,28.1,0,0,0-8.9-.208,27.161,27.161,0,0,0-22.988,30.773q.193,1.327.514,2.63l.489,1.811c.176.6.44,1.17.657,1.755a26.106,26.106,0,0,0,1.6,3.381,27.356,27.356,0,0,0,17.283,13,26.8,26.8,0,0,0,14.342-.521,34.949,34.949,0,0,0,3.357-1.3,14.258,14.258,0,0,1,3.525-.905c1.218-.136,2.4-.064,3.589-.08h3.757v.24q0,24.036.081,47.312v17.306a7.4,7.4,0,0,0,6.658,7.579c1.851.072,3.766,0,5.608.04h159.955a19.923,19.923,0,0,0,2.188-.048,6.471,6.471,0,0,0,3.669-2.051,10.719,10.719,0,0,0,2.251-3.605,11.31,11.31,0,0,0,.585-2.035,11.532,11.532,0,0,0,.136-2.107v-58.4l.128.128h-6.033a12.816,12.816,0,0,0-5.689,1.066,24.964,24.964,0,0,1-11.113,1.514,25.176,25.176,0,0,1-17.627-9.438,24.853,24.853,0,0,1-4.294-8.124,25.916,25.916,0,0,1-1.089-8.365A35.252,35.252,0,0,1-4589.2,93.92c4.006-7.908,9.4-12.643,13.485-14.694a17.775,17.775,0,0,1,4.9-1.715,11.57,11.57,0,0,1,1.306-.176Z" transform="translate(4778.401 30.998)" fill="#263238"/>
        <path id="Trazado_144486" data-name="Trazado 144486" d="M-4307.163,91.686a27.737,27.737,0,0,0-11.329,2.4,14.6,14.6,0,0,1-3.79,1.114V38.181a7.586,7.586,0,0,0-7.579-7.6h-59.354v6.73a12.245,12.245,0,0,0,.89,4.535,24.894,24.894,0,0,1,1.835,9.39,25.2,25.2,0,0,1-25.175,25.221,25.2,25.2,0,0,1-25.222-25.175,25.211,25.211,0,0,1,2.364-10.678,12.431,12.431,0,0,0,1.234-5.3V30.585l-60.091-.192a9.334,9.334,0,0,0-9.334,9.334l-.056,52.88h-4.1a13.655,13.655,0,0,1-1.4-.048,30.7,30.7,0,0,0-42.894,6.745,30.7,30.7,0,0,0,6.746,42.893,30.7,30.7,0,0,0,33.3,1.84,11.668,11.668,0,0,1,2.484-.272h5.264v59.026a9.335,9.335,0,0,0,9.334,9.334h164.161a7.6,7.6,0,0,0,7.6-7.6v-60.1a14.956,14.956,0,0,1,2.949,1.082,27.818,27.818,0,0,0,17.018,2.4,28.331,28.331,0,0,0,22.865-32.9A28.329,28.329,0,0,0-4307.123,91.7Z" transform="translate(4734.401 18.795)" fill="#f5f5f5"/>
        <path id="Trazado_144487" data-name="Trazado 144487" d="M-4307.218,91.633l1.787.08a14.712,14.712,0,0,1,2.2.208l1.4.232a9.894,9.894,0,0,1,1.6.361l1.778.489c.617.208,1.25.481,1.923.737.329.136.681.256,1.026.409l1.025.537a18.7,18.7,0,0,1,2.147,1.2,28.322,28.322,0,0,1,13.236,22.17c0,.689.1,1.378.1,2.083s-.072,1.4-.112,2.123a4.853,4.853,0,0,1-.08,1.074c-.08.353-.1.721-.16,1.082l-.168,1.1c-.088.353-.168.721-.256,1.082a28.709,28.709,0,0,1-10.312,15.96,28.734,28.734,0,0,1-9.542,4.807c-.881.272-1.8.409-2.716.625a16.45,16.45,0,0,1-2.812.337,27.417,27.417,0,0,1-5.777-.168,27.789,27.789,0,0,1-5.777-1.41c-1.923-.649-3.662-1.771-5.657-2.219l.161-.128v59.755a9.624,9.624,0,0,1-.04,1.074,7.984,7.984,0,0,1-.176,1.074,7.786,7.786,0,0,1-5.961,5.793,10.749,10.749,0,0,1-2.2.168h-162.639a13.338,13.338,0,0,1-2.812-.192,10.254,10.254,0,0,1-2.668-.977,9.684,9.684,0,0,1-3.918-4.062,9.177,9.177,0,0,1-.89-2.716,17.1,17.1,0,0,1-.144-2.844V143.72l.208.2h-5.761a12.369,12.369,0,0,0-1.947.256h.057a30.855,30.855,0,0,1-12.491,3.95,30.879,30.879,0,0,1-32.049-20.735,31.86,31.86,0,0,1-1.69-9.783,33.107,33.107,0,0,1,1.49-9.775,30.751,30.751,0,0,1,4.447-8.749,33.555,33.555,0,0,1,3.205-3.734l1.819-1.65c.608-.537,1.3-.994,1.938-1.49a32.111,32.111,0,0,1,8.677-4.367,34,34,0,0,1,9.559-1.426,30.763,30.763,0,0,1,17.955,5.929l-.1-.04c1.811.088,3.662,0,5.488.048l-.208.2q0-16.946.04-33.443v-18.4c0-.673,0-1.354.057-2.043a9.55,9.55,0,0,1,7.86-8.373,25.932,25.932,0,0,1,4.006-.144h11.866l15.576.056,30.278.1h.185v4.423a12.654,12.654,0,0,1-.593,4.206,16.662,16.662,0,0,1-.8,1.963c-.289.625-.537,1.266-.8,1.915a25,25,0,0,0,6.129,26.128,25.9,25.9,0,0,0,6.337,4.551,24.656,24.656,0,0,0,14.887,2.4,25.028,25.028,0,0,0,13.2-6.306,24.525,24.525,0,0,0,4.559-5.609,23.736,23.736,0,0,0,2.74-6.546,24.6,24.6,0,0,0-.3-13.693c-.3-1.09-.8-2.107-1.129-3.2a12.424,12.424,0,0,1-.457-3.381v-6.8h58.048a22.319,22.319,0,0,1,2.315.056,8.106,8.106,0,0,1,2.228.6,7.746,7.746,0,0,1,4.607,7.115v8.357c0,21.633,0,38.114-.048,48.618l-.064-.056c2.676-.345,4.687-1.642,6.586-2.163A27.963,27.963,0,0,1-4311,91.8a28.559,28.559,0,0,1,2.852-.224h0a28.329,28.329,0,0,0-7.58,1.346c-1.882.521-3.894,1.835-6.594,2.2h-.056v-.056c0-10.5,0-26.969-.056-48.618V38.088a7.508,7.508,0,0,0-4.471-6.9,7.734,7.734,0,0,0-2.163-.585c-.745-.072-1.522-.048-2.292-.048h-57.912l.152-.144v6.65a11.843,11.843,0,0,0,.449,3.3c.3,1.066.8,2.1,1.129,3.2a24.933,24.933,0,0,1,.313,13.869A24.078,24.078,0,0,1-4390,64.063a24.654,24.654,0,0,1-4.615,5.673,25.318,25.318,0,0,1-13.38,6.41,24.98,24.98,0,0,1-15.1-2.444,26.273,26.273,0,0,1-6.41-4.615,25.519,25.519,0,0,1-4.767-6.458,25.017,25.017,0,0,1-1.386-20.03c.24-.657.5-1.314.8-1.947a16.415,16.415,0,0,0,.8-1.923,12.38,12.38,0,0,0,.577-4.094V30.4l.184.184-30.278-.088-15.576-.048h-11.922a25.815,25.815,0,0,0-3.95.128,9.158,9.158,0,0,0-7.523,8.012c-.057.649-.064,1.322-.057,2V92.65h-.208c-1.835,0-3.646.048-5.521-.048h-.056l-.057-.04a30.445,30.445,0,0,0-17.707-5.849,33.99,33.99,0,0,0-9.43,1.41,31.512,31.512,0,0,0-8.613,4.423c-.633.5-1.306.937-1.915,1.474l-1.787,1.6a32.788,32.788,0,0,0-3.141,3.686,30.464,30.464,0,0,0-4.439,8.621,32.963,32.963,0,0,0-1.466,9.615,30.661,30.661,0,0,0,8.813,21.216,30.742,30.742,0,0,0,24.461,8.894,30.442,30.442,0,0,0,12.323-3.846h0a12.234,12.234,0,0,1,2.011-.264h5.993v57.968a15.3,15.3,0,0,0,.136,2.78,8.6,8.6,0,0,0,.849,2.6,9.286,9.286,0,0,0,3.83,3.854,10.105,10.105,0,0,0,2.556.937,13.456,13.456,0,0,0,2.732.192h162.679a10.518,10.518,0,0,0,2.14-.152,7.451,7.451,0,0,0,5.712-5.56,8.437,8.437,0,0,0,.216-2.067V144.249h.16c2.051.473,3.79,1.6,5.672,2.235a27.991,27.991,0,0,0,5.729,1.41,27.505,27.505,0,0,0,5.729.168c.937-.056,1.866-.184,2.788-.329a19.892,19.892,0,0,0,2.692-.617,28.226,28.226,0,0,0,19.734-20.559c.088-.361.176-.721.256-1.082l.168-1.082.168-1.074c.056-.361.048-.721.072-1.074q.056-1.073.12-2.115c0-.689-.064-1.378-.088-2.067a28.279,28.279,0,0,0-13.124-22.09,17.791,17.791,0,0,0-2.14-1.2l-1.017-.537c-.345-.152-.689-.28-1.026-.417-.665-.256-1.3-.529-1.907-.737l-1.779-.5a9.783,9.783,0,0,0-1.6-.377l-1.4-.232a13.812,13.812,0,0,0-2.2-.224Z" transform="translate(4734.457 18.848)" fill="#263238"/>
      </g>
      <g id="freepik--Characters--inject-5" transform="translate(-4696.093 -97.256)">
        <path id="Trazado_144488" data-name="Trazado 144488" d="M-4494.924,119.779a8.857,8.857,0,0,1,5.08-.865c2.38.521,11.017,6.153,11.017,6.153l6.962-1.3,4.134,19.678-27.193,11.265Z" transform="translate(4639.743 52.482)" fill="#ae7461"/>
        <path id="Trazado_144489" data-name="Trazado 144489" d="M-4520.574,126.646s6.226-.8,8.477-1.915,7.628-5.9,8.75-5.809,5.208.865,5.208.865l-1.65,4.944s8.148,4.943,10.576,6.762,10.056,9.967,10.416,11.962-.256,4.335-1.209,5.112-4.423-.8-4.423-.8a4.308,4.308,0,0,1-.8,3.549c-1.3,1.739-4.327,1.13-4.327,1.13s-.264,2.86-1.65,3.381-4.511-1.042-4.511-1.042-.938,2.4-2.067,2.684-4.342-1.6-4.342-1.6-13.869-9.967-16.986-11.441a15.937,15.937,0,0,0-4.078-1.562Z" transform="translate(4645.362 52.457)" fill="#ffbe9d"/>
        <path id="Trazado_144490" data-name="Trazado 144490" d="M-4489.423,162.749c-.057,0-.1-.24-.241-.609a10.318,10.318,0,0,0-.7-1.386,8.493,8.493,0,0,1-1.066-1.971,4.959,4.959,0,0,1,1.434,1.763,5.415,5.415,0,0,1,.617,1.514C-4489.311,162.485-4489.375,162.757-4489.423,162.749Z" transform="translate(4639.049 44.533)" fill="#eb996e"/>
        <path id="Trazado_144491" data-name="Trazado 144491" d="M-4482.64,160.363a22.455,22.455,0,0,1-1.754-2.62c-.946-1.442-1.963-2.4-1.891-2.5a6.13,6.13,0,0,1,2.244,2.267A8.531,8.531,0,0,1-4482.64,160.363Z" transform="translate(4638.026 45.237)" fill="#eb996e"/>
        <path id="Trazado_144492" data-name="Trazado 144492" d="M-4475.648,153.926c-.12,0-.5-1.466-1.466-3.085s-2.059-2.7-1.971-2.788a8.515,8.515,0,0,1,3.438,5.873Z" transform="translate(4636.595 46.666)" fill="#eb996e"/>
        <path id="Trazado_144493" data-name="Trazado 144493" d="M-4479.874,141.883a7.783,7.783,0,0,1,.208,4.679,10.185,10.185,0,0,1-.161-2.34A10.74,10.74,0,0,1-4479.874,141.883Z" transform="translate(4636.759 47.892)" fill="#eb996e"/>
        <path id="Trazado_144494" data-name="Trazado 144494" d="M-4505.044,129.519s2.163-6.931,2.94-7.8,8.012-2.772,8.012-2.772l2.251,5.809-1.6,1.7-3.469-.224S-4499.067,131.947-4505.044,129.519Z" transform="translate(4641.754 52.453)" fill="#ae7461"/>
        <path id="Trazado_144495" data-name="Trazado 144495" d="M-4521.753,149.263s-.994.761,0,2.58,3.677.521,4.542,0c0,0-1.3,3.037.345,4.006a6.48,6.48,0,0,0,3.646.689s-.088,1.819,2.251,3.037,2.949,0,2.949,0,.256,3.029,2.94,3.293,3.638-.665,3.638-.665l-1.21-1.795s1.563-3.2.353-4.559a4.183,4.183,0,0,0-3.205-1.218s.537-2.812-1.009-3.6a2.844,2.844,0,0,0-3.918.911,3.016,3.016,0,0,0-.184.347s-.176-3.085-2.4-3.013a5.017,5.017,0,0,0-3.469,1.45Z" transform="translate(4645.164 46.425)" fill="#ae7461"/>
        <path id="Trazado_144496" data-name="Trazado 144496" d="M-4508.386,153.023a6.6,6.6,0,0,1-1.034,2.316,6.711,6.711,0,0,1-1.514,2.019,9.152,9.152,0,0,1,1.153-2.235A9.285,9.285,0,0,1-4508.386,153.023Z" transform="translate(4642.925 45.678)" fill="#6f4439"/>
        <path id="Trazado_144497" data-name="Trazado 144497" d="M-4502.046,156.433a6.072,6.072,0,0,1-1.177,2.4,6.209,6.209,0,0,1-1.811,1.971q1.438-2.222,2.988-4.367Z" transform="translate(4641.752 45)" fill="#6f4439"/>
        <path id="Trazado_144498" data-name="Trazado 144498" d="M-4572.411,197.253h-13.148l-3.365,47.817h13.188c2.243-7.283,7.852-45.229,7.852-45.229Z" transform="translate(4658.428 36.886)" fill="#263238"/>
        <path id="Trazado_144499" data-name="Trazado 144499" d="M-4663.139,197.253s-8.421,19.734-7.58,27.722,5.568,20.095,5.568,20.095h65.123a150.691,150.691,0,0,0,3.2-16.537c1.411-9.871,5.192-31.247,5.192-31.247Z" transform="translate(4674.699 36.886)" fill="#263238"/>
        <path id="Trazado_144500" data-name="Trazado 144500" d="M-4574.532-49.12c-2.2-2.78-4.919-5.448-5.48-8.95-.521-3.2.889-6.73-.553-9.615-1.779-3.6-6.875-4.295-9.086-7.636-1.065-1.6-1.322-3.67-2.4-5.3-1.795-2.772-5.5-3.662-8.813-3.477s-6.474,1.21-9.783,1.322c-4.535.1-9.126-1.6-13.524-.521-4.855,1.194-8.013,5.288-11.306,9.238l-4.294,4.559a17.644,17.644,0,0,1-2.812,2.067c-1.763,1.018-3.75,1.683-5.288,3.021a7.968,7.968,0,0,0,0,11.546,8.564,8.564,0,0,0-6.169,8.108c0,2.011.8,3.934,1.266,5.881s.8,4.1-.12,5.9-3.31,2.948-5.016,1.883a9.039,9.039,0,0,0,4.615,6.233,5.377,5.377,0,0,1-3.694,1.426c3.253,8.813,13,13.789,22.354,14.286s18.476-2.628,27.321-5.7l25.5-5.344c2.235-.4,3.285-3.045,3.357-5.32s-.385-4.655.529-6.738c1.242-2.852,4.7-4.23,5.993-7.067C-4570.494-42.566-4572.336-46.323-4574.532-49.12Z" transform="translate(4672.142 92.817)" fill="#263238"/>
        <path id="Trazado_144501" data-name="Trazado 144501" d="M-4630.53-25.549a103.736,103.736,0,0,1-3.622-17.555,36.945,36.945,0,0,1,2.323-17.627c.361-.8,3.349-6.41,4.247-6.257.641.1-1.29,5.328-.994,5.9,2.836,5.5,3.349,11.962,2.532,18.1a80.933,80.933,0,0,1-4.487,17.418" transform="translate(4667.457 89.413)" fill="#263238"/>
        <path id="Trazado_144502" data-name="Trazado 144502" d="M-4629.528-50.374c.281-15.007,9.254-27.346,24.245-26.64l1.378.144a26.824,26.824,0,0,1,24.037,27.329c-.32,13-.8,27.37-1.651,34.276-1.69,14.3-16.248,15.023-16.248,15.023l-.393,23.62L-4632.244-.234Z" transform="translate(4667.04 91.411)" fill="#ffbe9d"/>
        <path id="Trazado_144503" data-name="Trazado 144503" d="M-4593.725,16.958a34.812,34.812,0,0,1-18.06-7.475s3.357,12.1,17.779,12.315Z" transform="translate(4662.973 74.211)" fill="#eb996e"/>
        <path id="Trazado_144504" data-name="Trazado 144504" d="M-4574.113-29.373a2.058,2.058,0,0,1-2.2,1.851,1.954,1.954,0,0,1-1.909-2c0-.023,0-.046,0-.068a2.059,2.059,0,0,1,2.188-1.859,1.978,1.978,0,0,1,1.917,2.04Z" transform="translate(4656.3 82.349)" fill="#263238"/>
        <path id="Trazado_144505" data-name="Trazado 144505" d="M-4573.507-36.344c-.28.24-1.707-1.074-3.91-1.3s-3.934.705-4.143.409c-.1-.128.208-.585.961-1.026a5.725,5.725,0,0,1,3.349-.657,5.375,5.375,0,0,1,3.077,1.37C-4573.547-36.936-4573.371-36.448-4573.507-36.344Z" transform="translate(4656.968 83.839)" fill="#263238"/>
        <path id="Trazado_144506" data-name="Trazado 144506" d="M-4598.942-29.373a2.052,2.052,0,0,1-2.187,1.851,1.962,1.962,0,0,1-1.917-2.008c0-.02,0-.039,0-.059a2.059,2.059,0,0,1,2.188-1.859,1.978,1.978,0,0,1,1.917,2.04Z" transform="translate(4661.236 82.349)" fill="#263238"/>
        <path id="Trazado_144507" data-name="Trazado 144507" d="M-4600.527-38.082c-.28.24-1.714-1.066-3.918-1.29s-3.926.705-4.134.409c-.1-.136.2-.585.961-1.026a5.656,5.656,0,0,1,3.349-.657,5.422,5.422,0,0,1,3.077,1.362C-4600.575-38.683-4600.391-38.178-4600.527-38.082Z" transform="translate(4662.339 84.183)" fill="#263238"/>
        <path id="Trazado_144508" data-name="Trazado 144508" d="M-4590.924-19.853a14.685,14.685,0,0,1,3.637-.272c.569,0,1.114-.048,1.25-.425a2.889,2.889,0,0,0-.2-1.707q-.576-2.131-1.209-4.455c-1.667-6.338-2.812-11.521-2.556-11.586s1.818,5.016,3.477,11.353q.6,2.34,1.138,4.471a3.2,3.2,0,0,1,.064,2.235,1.417,1.417,0,0,1-1.009.729,3.7,3.7,0,0,1-.969,0A13.634,13.634,0,0,1-4590.924-19.853Z" transform="translate(4658.826 83.709)" fill="#263238"/>
        <path id="Trazado_144509" data-name="Trazado 144509" d="M-4599.309-14.227c.36,0,.112,2.4,1.979,4.311s4.438,1.923,4.423,2.259c0,.152-.617.4-1.7.32a6.022,6.022,0,0,1-3.7-1.747,5.241,5.241,0,0,1-1.506-3.605C-4599.8-13.7-4599.469-14.259-4599.309-14.227Z" transform="translate(4660.593 78.925)" fill="#263238"/>
        <path id="Trazado_144510" data-name="Trazado 144510" d="M-4600.021-49.119c-.281.577-2.444.064-5.064.1s-4.808.521-5.064-.056c-.12-.272.3-.8,1.2-1.282a8.811,8.811,0,0,1,7.715-.04C-4600.358-49.912-4599.894-49.391-4600.021-49.119Z" transform="translate(4662.651 86.287)" fill="#263238"/>
        <path id="Trazado_144511" data-name="Trazado 144511" d="M-4573.524-45.621c-.441.457-1.907-.224-3.726-.441s-3.4,0-3.7-.577c-.128-.272.168-.745.889-1.146a5.449,5.449,0,0,1,5.985.8C-4573.484-46.382-4573.332-45.845-4573.524-45.621Z" transform="translate(4656.85 85.705)" fill="#263238"/>
        <path id="Trazado_144512" data-name="Trazado 144512" d="M-4631.348-30.575c-.232-.128-9.534-3.95-10.256,5.873s9.294,8.493,9.351,8.245S-4631.348-30.575-4631.348-30.575Z" transform="translate(4668.907 82.341)" fill="#ffbe9d"/>
        <path id="Trazado_144513" data-name="Trazado 144513" d="M-4634.381-19.629c0-.04-.176.1-.472.216a1.732,1.732,0,0,1-1.282-.072c-1.01-.449-1.763-2.163-1.683-3.942a5.676,5.676,0,0,1,.657-2.4,1.988,1.988,0,0,1,1.386-1.218.866.866,0,0,1,.97.545c.112.28.04.473.088.5s.224-.152.176-.561a1.105,1.105,0,0,0-.344-.649,1.312,1.312,0,0,0-.93-.32,2.4,2.4,0,0,0-1.9,1.394,5.967,5.967,0,0,0-.8,2.692c-.08,1.987.8,3.918,2.188,4.431a1.845,1.845,0,0,0,1.6-.144C-4634.413-19.4-4634.349-19.613-4634.381-19.629Z" transform="translate(4668.287 81.571)" fill="#eb996e"/>
        <path id="Trazado_144514" data-name="Trazado 144514" d="M-4585.553-66.694c1.651-.8-2.8-6.233-6.585-8.261-5.737-3.061-14.654-5.288-20.2-4.094-6.683,1.434-12.339,4.351-16.024,10.1a38.653,38.653,0,0,0-5.608,19.462,11.778,11.778,0,0,0,.993,6.1c1.234,2.259,3.782,3.8,3.47,6.786a4.143,4.143,0,0,0,.8,3.069c1.675,2.027,4.006.369,5.12-1.362,2.4-3.718,2.94-8.293,3.413-12.691a29.325,29.325,0,0,0,0-9.39c-.376-1.667-1.05-3.269-1.33-4.952a5.93,5.93,0,0,1,1.01-4.863,6.163,6.163,0,0,1,.849-.8,10.28,10.28,0,0,1,10.3-1.282c5.408,2.316,14.671,5.849,17.267,4.134,3.726-2.476,4.687-4.182,4.687-4.182Z" transform="translate(4667.387 91.875)" fill="#263238"/>
        <path id="Trazado_144515" data-name="Trazado 144515" d="M-4609.814-80.794a21.649,21.649,0,0,1,16.553,1.979c2.588,1.6,4.871,3.95,5.5,6.914s-.842,6.458-3.718,7.419l-.2.112c-4.287,1.138-6.971.4-11.057-1.314-3.446-1.442-6.41-3.814-9.879-5.248a20.026,20.026,0,0,0-11.674-1.09A32.689,32.689,0,0,1-4609.814-80.794Z" transform="translate(4665.457 92.315)" fill="#263238"/>
        <path id="Trazado_144516" data-name="Trazado 144516" d="M-4603.114-82.727a4.21,4.21,0,0,1,1,.1,15.373,15.373,0,0,1,2.644.713,17.018,17.018,0,0,1,3.621,1.867,14.305,14.305,0,0,1,3.605,3.453,13.4,13.4,0,0,1,1.979,4.583,23.422,23.422,0,0,1,.609,4.006c.081,1.154.081,2.091.072,2.732a4.713,4.713,0,0,1-.072,1,4.627,4.627,0,0,1-.088-1c-.04-.641-.088-1.6-.208-2.708a26.8,26.8,0,0,0-.681-3.95,13.617,13.617,0,0,0-1.955-4.439,14.117,14.117,0,0,0-3.485-3.373,17.513,17.513,0,0,0-3.509-1.907A36.028,36.028,0,0,0-4603.114-82.727Z" transform="translate(4661.249 92.541)" fill="#455a64"/>
        <path id="Trazado_144517" data-name="Trazado 144517" d="M-4591.824-83.437a3.841,3.841,0,0,1,.849.232,7.313,7.313,0,0,1,.97.369l1.226.617a12.707,12.707,0,0,1,5.1,5.993,14.744,14.744,0,0,1,.721,2.163,14.5,14.5,0,0,1,.321,2.1,14.081,14.081,0,0,1,.04,1.915,13.281,13.281,0,0,1-.225,1.659,8.864,8.864,0,0,1-.369,1.33,5.915,5.915,0,0,1-.392.953,3.668,3.668,0,0,1-.457.8,17.527,17.527,0,0,0,.929-3.1,15.215,15.215,0,0,0,.168-1.6,16.893,16.893,0,0,0-.072-1.867,16.116,16.116,0,0,0-.337-2.035,16.878,16.878,0,0,0-.713-2.091,13.018,13.018,0,0,0-4.863-5.9l-1.178-.665a8.683,8.683,0,0,0-.929-.425A3.168,3.168,0,0,1-4591.824-83.437Z" transform="translate(4659.005 92.682)" fill="#455a64"/>
        <path id="Trazado_144518" data-name="Trazado 144518" d="M-4602.082,38.65c0,1.354,6.754,31.031,9.342,38.322s10.777,80.394,9.7,85.6-3.878,5-3.878,5-66.165-4.166-73.279-3.541-10.127.417-11.85-7.708.047-50.34-1.459-60.548-1.522-15.151-2.107-30.31c-.5-13.148,2.484-23.684,8.733-31.3s20.087-15.3,20.087-15.3l4.911-7.163,34.725,18.372.8-4.182,2.107,6.506Z" transform="translate(4675.672 73.768)" fill="#455a64"/>
        <g id="Grupo_88456" data-name="Grupo 88456" transform="translate(7.811 139.531)" opacity="0.3">
          <path id="Trazado_144519" data-name="Trazado 144519" d="M-4585.217,142.525c-.585-1.474-2.46-1.851-4.006-2.019-14.718-1.6-30.029-5.312-40.782-15.488-4.2-4.006-7.515-8.813-10.712-13.621-6.987-10.56-13.548-21.392-20.11-32.225l-5.1,1.915c3.132,15.287,6.209,26.352,11.3,38.883s9.046,24.693,21.945,28.8c8.341,2.652,24.181.617,32.906-.064a51.584,51.584,0,0,0,10.768-1.683,7.212,7.212,0,0,0,2.933-1.49A2.892,2.892,0,0,0-4585.217,142.525Z" transform="translate(4665.924 -79.173)"/>
        </g>
        <path id="Trazado_144520" data-name="Trazado 144520" d="M-4668.387,68.5c.376.681,29.821,63.577,42.969,66.164s54.01,3.2,61.982,1.675,15.776-2.908,15.776-2.908,5.777-13.717.505-25.4l-10.977.345s-30.518-1.651-34.829-2.828-8.012-5.216-11.914-5l-23.235-54.026s-15.087-14.013-25.863-9.7S-4671.552,62.89-4668.387,68.5Z" transform="translate(4674.379 68.941)" fill="#455a64"/>
        <path id="Trazado_144521" data-name="Trazado 144521" d="M-4529.8,153.68a4.735,4.735,0,0,1,.216-1.058c.176-.673.392-1.65.617-2.86s.441-2.668.585-4.295a45.669,45.669,0,0,0,.112-5.3,43.316,43.316,0,0,0-1.491-9.5c-.328-1.194-.625-2.147-.857-2.8a6.288,6.288,0,0,1-.3-1.034,5.206,5.206,0,0,1,.457.977,28.386,28.386,0,0,1,.985,2.772,38.672,38.672,0,0,1,1.6,9.575,42.571,42.571,0,0,1-.145,5.352,37.08,37.08,0,0,1-.681,4.319,26.745,26.745,0,0,1-.753,2.844A6.177,6.177,0,0,1-4529.8,153.68Z" transform="translate(4646.899 50.886)" fill="#263238"/>
        <path id="Trazado_144522" data-name="Trazado 144522" d="M-4627.907,49.153s.152.32.44.953l1.234,2.82,4.735,10.816c4.054,9.382,9.878,22.883,16.994,39.364l-.16-.1a10.034,10.034,0,0,1,5.152,1.6c1.6.881,3.148,1.907,4.847,2.684a16.237,16.237,0,0,0,5.528,1.282c1.931.232,3.9.4,5.9.577,8.012.657,16.5,1.186,25.335,1.675h0l10.976-.353h.137l.056.12a28.25,28.25,0,0,1,2.147,12.6,41.177,41.177,0,0,1-2.692,12.972v.1h-.112l-6.979,1.29-7.644,1.41a51.522,51.522,0,0,1-7.644.8c-5.08.224-10.08.248-15,.224s-9.743-.144-14.47-.32-9.342-.409-13.853-.753c-2.251-.16-4.47-.377-6.666-.617a46.915,46.915,0,0,1-6.41-1.074,11.379,11.379,0,0,1-2.8-1.6,24.712,24.712,0,0,1-2.4-2.083,50.939,50.939,0,0,1-4.078-4.6,169.364,169.364,0,0,1-12.371-18.6c-6.9-11.794-11.882-21.673-15.3-28.5-1.7-3.421-2.988-6.089-3.854-7.908s-1.29-2.78-1.29-2.78.128.232.353.7.577,1.154,1.018,2.051l3.918,7.868c3.469,6.8,8.485,16.657,15.415,28.419a169.352,169.352,0,0,0,12.323,18.516,50.258,50.258,0,0,0,4.054,4.559,23.849,23.849,0,0,0,2.339,2.051,10.847,10.847,0,0,0,2.708,1.554,47.177,47.177,0,0,0,6.37,1.042c2.179.24,4.4.449,6.65.609,4.5.337,9.118.577,13.837.745s9.55.28,14.422.3,9.911,0,14.975-.232a51.741,51.741,0,0,0,7.587-.8l7.636-1.41,6.987-1.29-.161.128a40.843,40.843,0,0,0,2.668-12.819,27.943,27.943,0,0,0-2.155-12.411l.192.12-10.977.345h0c-8.813-.5-17.322-1.034-25.343-1.707-2-.176-4.006-.353-5.913-.585-.978-.112-1.939-.232-2.893-.417a10.69,10.69,0,0,1-2.74-.905c-1.731-.8-3.285-1.835-4.872-2.708a9.693,9.693,0,0,0-4.968-1.546h-.112l-.048-.1c-7.059-16.513-12.819-30.03-16.825-39.42l-4.607-10.84-1.194-2.836C-4627.755,49.481-4627.907,49.153-4627.907,49.153Z" transform="translate(4674.176 66.326)" fill="#263238"/>
        <path id="Trazado_144523" data-name="Trazado 144523" d="M-4630.148,42.074s-.409-.377-1.146-1.058a21.671,21.671,0,0,0-3.365-2.54A21.989,21.989,0,0,0-4640.38,36a20.479,20.479,0,0,0-14.855,1.49,21.649,21.649,0,0,0-5.12,3.557,21.287,21.287,0,0,0-2.8,3.2,14.61,14.61,0,0,1-.914,1.258,1.639,1.639,0,0,1,.184-.361c.136-.224.3-.577.593-.994a19.561,19.561,0,0,1,2.732-3.277,20.976,20.976,0,0,1,26.047-2.6,18.788,18.788,0,0,1,3.325,2.676,11.468,11.468,0,0,1,.8.849A1.482,1.482,0,0,1-4630.148,42.074Z" transform="translate(4673.365 69.158)" fill="#263238"/>
        <path id="Trazado_144524" data-name="Trazado 144524" d="M-4589.867,116.633a27.019,27.019,0,0,1-1.482,4.567,28.427,28.427,0,0,1-1.875,4.415,26.89,26.89,0,0,1,1.482-4.559A28.5,28.5,0,0,1-4589.867,116.633Z" transform="translate(4659.283 52.912)" fill="#263238"/>
        <path id="Trazado_144525" data-name="Trazado 144525" d="M-4522.843,129.54a.443.443,0,0,1,.3,0,1.144,1.144,0,0,1,.585.577,1.248,1.248,0,0,1,0,1.25,1.417,1.417,0,0,1-1.386.641,1.339,1.339,0,0,1-1.049-1.122,1.273,1.273,0,0,1,.4-1.178,1.038,1.038,0,0,1,.8-.256c.192,0,.289.064.28.088a1.541,1.541,0,0,0-.865.377,1.034,1.034,0,0,0-.225.9,1,1,0,0,0,.737.8,1.1,1.1,0,0,0,1.01-.449.984.984,0,0,0,.072-.913C-4522.418,129.676-4522.859,129.6-4522.843,129.54Z" transform="translate(4645.604 50.365)" fill="#263238"/>
        <path id="Trazado_144526" data-name="Trazado 144526" d="M-4598.628,34.19a5.191,5.191,0,0,1-.8-.409l-2.2-1.258.16-.064c-.433,2.187-.857,5.408-1.6,9.27l-.056.256-.216-.136c-3.205-2.035-7.1-4.359-11.217-6.85-3.077-1.843-5.953-3.7-8.6-5.3s-5.1-2.981-7.147-4.126l-4.864-2.708-1.322-.737a5.165,5.165,0,0,1-.449-.28,2.048,2.048,0,0,1,.489.208l1.354.673c1.178.593,2.86,1.466,4.936,2.588s4.519,2.468,7.211,4.006l8.621,5.288c4.126,2.492,8.012,4.807,11.217,6.9l-.273.112c.761-3.83,1.234-7.059,1.731-9.238v-.144l.128.072,2.139,1.338A5.6,5.6,0,0,1-4598.628,34.19Z" transform="translate(4667.972 71.754)" fill="#263238"/>
        <g id="Grupo_88457" data-name="Grupo 88457" transform="translate(35.941 96.185)" opacity="0.3">
          <path id="Trazado_144527" data-name="Trazado 144527" d="M-4630.814,25.073l18.124,13.509c4.006,2.973,8.068,5.993,12.819,7.507l-.28-12.611L-4602,42.291Z" transform="translate(4630.814 -25.073)"/>
        </g>
        <path id="Trazado_144528" data-name="Trazado 144528" d="M-4399.751-61.871a6.5,6.5,0,0,1-7.308-5.571,6.5,6.5,0,0,1,4.311-7.008,6.763,6.763,0,0,1-.047-9.563,6.763,6.763,0,0,1,5.72-1.942,8.085,8.085,0,0,1,8.259-7.906,8.08,8.08,0,0,1,3.808,1.048,9.1,9.1,0,0,1,11.217-.441,6.467,6.467,0,0,1,7.634,5.034,6.467,6.467,0,0,1-1.721,5.83" transform="translate(4622.288 94.976)" fill="#263238"/>
        <path id="Trazado_144529" data-name="Trazado 144529" d="M-4399.382-58.924a27.57,27.57,0,0,1,26.953-25.9H-4371c15.408.585,23.516,14,22.506,29.373l.914,54.883h0l-37.433,13.412-.329-19.766s-14.839-2-15.319-16.826C-4400.88-30.833-4400.184-45.591-4399.382-58.924Z" transform="translate(4621.013 92.959)" fill="#ae7461"/>
        <path id="Trazado_144530" data-name="Trazado 144530" d="M-4381.684,10.878a35.871,35.871,0,0,0,19.229-6.065s-4.342,10.736-19.125,9.7Z" transform="translate(4617.232 75.14)" fill="#6f4439"/>
        <path id="Trazado_144531" data-name="Trazado 144531" d="M-4393.864-36.293a2.114,2.114,0,0,0,2.075,2.091,2.02,2.02,0,0,0,2.137-1.894c0-.021,0-.041,0-.061a2.115,2.115,0,0,0-2.075-2.091,2.026,2.026,0,0,0-2.137,1.91Z" transform="translate(4619.653 83.7)" fill="#263238"/>
        <path id="Trazado_144532" data-name="Trazado 144532" d="M-4394.931-44.114c.264.272,1.843-.945,4.11-.985s3.966,1.058,4.207.8c.112-.128-.16-.617-.9-1.13a5.815,5.815,0,0,0-3.373-.969,5.608,5.608,0,0,0-3.269,1.13C-4394.819-44.739-4395.043-44.234-4394.931-44.114Z" transform="translate(4619.871 85.32)" fill="#263238"/>
        <path id="Trazado_144533" data-name="Trazado 144533" d="M-4368.024-36.293a2.107,2.107,0,0,0,2.083,2.083A2.02,2.02,0,0,0-4363.8-36.1c0-.018,0-.035,0-.053a2.122,2.122,0,0,0-2.083-2.091,2.035,2.035,0,0,0-2.138,1.927Z" transform="translate(4614.517 83.7)" fill="#263238"/>
        <path id="Trazado_144534" data-name="Trazado 144534" d="M-4367.014-44.154c.265.272,1.843-.945,4.11-.985s4.006,1.058,4.207.8c.12-.128-.161-.617-.9-1.13a5.8,5.8,0,0,0-3.349-.969,5.608,5.608,0,0,0-3.269,1.13C-4366.95-44.779-4367.15-44.274-4367.014-44.154Z" transform="translate(4614.324 85.328)" fill="#263238"/>
        <path id="Trazado_144535" data-name="Trazado 144535" d="M-4378.317-27.049a15.078,15.078,0,0,0-3.7-.585c-.585-.048-1.138-.152-1.242-.545a3,3,0,0,1,.353-1.731q.781-2.127,1.6-4.455c2.259-6.338,3.877-11.546,3.621-11.634s-2.291,4.976-4.551,11.313q-.8,2.34-1.554,4.479a3.359,3.359,0,0,0-.249,2.283,1.453,1.453,0,0,0,.969.8,3.824,3.824,0,0,0,.986.112C-4379.751-26.9-4378.357-26.912-4378.317-27.049Z" transform="translate(4617.719 85.24)" fill="#263238"/>
        <path id="Trazado_144536" data-name="Trazado 144536" d="M-4368.071-53.856c.313.569,2.243-.1,4.639-.216s4.423.224,4.631-.377c.088-.288-.344-.8-1.218-1.242a7.268,7.268,0,0,0-3.613-.681,6.942,6.942,0,0,0-3.454,1.138C-4367.871-54.689-4368.208-54.128-4368.071-53.856Z" transform="translate(4614.532 87.306)" fill="#263238"/>
        <path id="Trazado_144537" data-name="Trazado 144537" d="M-4395.462-54.2c.489.513,2.347-.064,4.607-.136s4.174.264,4.6-.288c.193-.264-.12-.8-.969-1.242a7.755,7.755,0,0,0-7.419.337C-4395.43-54.973-4395.679-54.436-4395.462-54.2Z" transform="translate(4619.986 87.357)" fill="#263238"/>
        <path id="Trazado_144538" data-name="Trazado 144538" d="M-4397.454-66.179s3.709-9.342,8.132-11.594c5.353-2.724,7.8,3.157,12.924,1.6s10.231-4.158,15.575-.28c5.857,4.238,3.205,7.355,3.7,13.909,1.987,26.576,7,34,8.125,21.441.128-1.378,3.918-2.548,4.359-8.357.584-7.539.681-16.673-1.106-21.977-1.506-4.471-4.134-7.531-8.813-10.864-7.372-5.256-17.347-5.168-24.1-4.351S-4398.312-77.748-4397.454-66.179Z" transform="translate(4620.375 93.403)" fill="#263238"/>
        <path id="Trazado_144539" data-name="Trazado 144539" d="M-4338.2-31.151a4.006,4.006,0,0,1,4.046-3.965c.07,0,.14,0,.208.007,2.765.208,5.865,1.707,5.8,7.411-.12,10.119-10.255,7.916-10.271,7.628S-4338.286-26.92-4338.2-31.151Z" transform="translate(4608.632 83.077)" fill="#ae7461"/>
        <path id="Trazado_144540" data-name="Trazado 144540" d="M-4335.607-23.049a4.174,4.174,0,0,0,.473.264,1.758,1.758,0,0,0,1.314,0c1.074-.377,2-2.067,2.059-3.886a5.72,5.72,0,0,0-.464-2.532,2.026,2.026,0,0,0-1.306-1.37.906.906,0,0,0-1.05.473c-.136.28-.072.489-.128.5s-.216-.176-.128-.593a1.12,1.12,0,0,1,.409-.625,1.279,1.279,0,0,1,.977-.248,2.465,2.465,0,0,1,1.819,1.6,6,6,0,0,1,.577,2.828c-.088,2.035-1.154,3.934-2.62,4.343a1.907,1.907,0,0,1-1.6-.288C-4335.591-22.808-4335.647-23.033-4335.607-23.049Z" transform="translate(4608.075 82.274)" fill="#6f4439"/>
        <path id="Trazado_144541" data-name="Trazado 144541" d="M-4348.927-61.9a9.524,9.524,0,0,1-4.238,2.059c-1.6.192-3.405-.681-3.71-2.243-.128-.705,0-1.522-.448-2.059s-1.6-.409-2.4-.3a6.451,6.451,0,0,1-6.794-4.487c-.721,1.138-2.476,1.122-3.622.417a14.387,14.387,0,0,1-2.812-2.892,4.161,4.161,0,0,0-3.509-1.667,9.787,9.787,0,0,1-2.187.529c-1.33-.088-2.011-1.6-2.235-2.94s-.417-2.852-1.554-3.541-2.4-.232-3.622,0-2.8-.048-3.141-1.234a2.4,2.4,0,0,1,.417-1.843,6.529,6.529,0,0,1,7.675-2.636,8.878,8.878,0,0,1,10.906-6.221,8.88,8.88,0,0,1,5.367,4.162,9.021,9.021,0,0,1,12.753.382,9.032,9.032,0,0,1,1.717,2.614,6.53,6.53,0,0,1,8.068,4.492,6.528,6.528,0,0,1-.513,4.85,6.215,6.215,0,0,1,3.509,4.871c.08,2.091-1.915,4.214-3.95,3.71a3.613,3.613,0,0,1-1.467,4.895,3.615,3.615,0,0,1-4.71-1.161" transform="translate(4618.735 94.241)" fill="#263238"/>
        <path id="Trazado_144542" data-name="Trazado 144542" d="M-4379.926-79.437a.468.468,0,0,0,0,.184,1.689,1.689,0,0,0,.072.537,6.309,6.309,0,0,0,.8,1.931,7.252,7.252,0,0,0,2.291,2.348,6.736,6.736,0,0,0,4.167,1.1l-.176-.224a3.669,3.669,0,0,0,.256,2.788,10.283,10.283,0,0,0,1.787,2.452,7.424,7.424,0,0,0,1.153,1.138,3.477,3.477,0,0,0,1.6.561,3.679,3.679,0,0,0,3.205-1.226l-.377-.1a7.6,7.6,0,0,0,3.325,5.184,5.526,5.526,0,0,0,3.341,1.018,9.833,9.833,0,0,0,3.252-.8l-.272-.112a7.965,7.965,0,0,0,2.46,3.069,4.238,4.238,0,0,0,3.557.913,5.559,5.559,0,0,0,4.2-4.447l-.224.112a5.2,5.2,0,0,0,3.485.441,5.614,5.614,0,0,0,2.4-1.13,4.888,4.888,0,0,0,1.105-1.258,2.521,2.521,0,0,0,.249-.529,6.129,6.129,0,0,1-1.458,1.651,5.457,5.457,0,0,1-2.34,1.026,4.991,4.991,0,0,1-3.293-.473l-.192-.1v.216a5.255,5.255,0,0,1-4.006,4.118,3.857,3.857,0,0,1-3.205-.841,7.517,7.517,0,0,1-2.307-2.916l-.081-.184-.192.072a9.45,9.45,0,0,1-3.117.745,5.069,5.069,0,0,1-3.085-.945,7.212,7.212,0,0,1-3.141-4.879l-.072-.481-.313.377a3.294,3.294,0,0,1-2.852,1.09,3.133,3.133,0,0,1-1.426-.489,7.22,7.22,0,0,1-1.09-1.066,9.985,9.985,0,0,1-1.738-2.348,3.255,3.255,0,0,1-.272-2.516l.08-.248h-.256a6.541,6.541,0,0,1-4.006-.986A7.291,7.291,0,0,1-4378.9-76.9,7.865,7.865,0,0,1-4379.926-79.437Z" transform="translate(4616.885 91.887)" fill="#455a64"/>
        <path id="Trazado_144543" data-name="Trazado 144543" d="M-4368.575-21.368c-.36.04.056,2.4-1.683,4.479s-4.327,2.243-4.287,2.58c0,.152.649.361,1.723.2a6.046,6.046,0,0,0,3.605-2.019,5.264,5.264,0,0,0,1.258-3.694C-4368.046-20.863-4368.439-21.424-4368.575-21.368Z" transform="translate(4615.813 80.345)" fill="#263238"/>
        <path id="Trazado_144544" data-name="Trazado 144544" d="M-4470.214,117.242c1.282-.513,43.626-5.609,43.626-5.609l17.178-14.55-1.6,42.112-54.065,5.208Z" transform="translate(4634.831 56.798)" fill="#3e2ea6"/>
        <path id="Trazado_144545" data-name="Trazado 144545" d="M-4404.985,105.123c-.513.256-4.759,4.006-4.759,4.006l1.3,32.425Z" transform="translate(4622.81 55.2)" opacity="0.3" style="isolation: isolate"/>
        <path id="Trazado_144546" data-name="Trazado 144546" d="M-4331.507,200.293h-71.517s3.782,20.183,5.184,29.477a119.448,119.448,0,0,0,3.453,15.9h64.779s4.807-11.722,5.68-19.229S-4331.507,200.293-4331.507,200.293Z" transform="translate(4621.474 36.281)" fill="#263238"/>
        <path id="Trazado_144547" data-name="Trazado 144547" d="M-4409.895,203.333s-2,23,0,42.945h24.773V227.906Z" transform="translate(4623.017 35.677)" fill="#263238"/>
        <path id="Trazado_144548" data-name="Trazado 144548" d="M-4392.494,50.964l7.708-16.826.954-10.416s14.783-9.294,21.793-12.819a152.9,152.9,0,0,1,16.473-6.69v9.839Z" transform="translate(4619.381 75.259)" fill="#ebebeb"/>
        <path id="Trazado_144549" data-name="Trazado 144549" d="M-4332.238,138.072s4.191-56.261,4.471-60.444c0,0,2.476-30.062-2.86-41.5s-17.282-21.513-17.282-21.513l-1.106-6.009-23.323,14.71-10.784,9.374A108.214,108.214,0,0,0-4393.3,45.347c-3.061,4.238-6.466,9.687-8.012,16.537-.553,2.508-6.97,32.457-7.163,53.329,0,0-.986,18.22-2.043,28.531-1.3,12.771-3.285,41.88-2.853,59.122l75.659-2.308c18.684-2.852,15.4-4.711,15.4-4.711Z" transform="translate(4623.543 74.386)" fill="#3e2ea6"/>
        <path id="Trazado_144550" data-name="Trazado 144550" d="M-4348.62,16.493l-.521.24-1.546.641c-.657.32-1.458.737-2.4,1.226a26.1,26.1,0,0,0-3.093,1.931,86.021,86.021,0,0,0-16.609,15.351l-.04.056h-.064l-7.259,1.338.161-.184c-.112,3.373-.232,6.906-.361,10.568v.08l-.064.064a100.177,100.177,0,0,0-10.664,11.7,46.368,46.368,0,0,0-3.654,5.52l-.4.713-.3.745a14.123,14.123,0,0,0-.553,1.506c-.321,1.026-.642,2.043-.905,3.069-1.114,4.086-2.043,8.076-2.909,11.874-1.714,7.6-3.148,14.478-4.342,20.247-2.4,11.554-3.709,18.724-3.709,18.724a12.93,12.93,0,0,1,.168-1.314c.128-.857.345-2.123.633-3.75.593-3.245,1.474-7.932,2.62-13.717s2.556-12.659,4.263-20.271c.849-3.806,1.771-7.8,2.884-11.9.265-1.034.585-2.059.914-3.093a14.066,14.066,0,0,1,.553-1.538l.313-.8.4-.729a45.382,45.382,0,0,1,3.693-5.609,100.381,100.381,0,0,1,10.745-11.674l-.064.144c.128-3.662.256-7.211.376-10.568v-.152h.152l7.259-1.314-.1.064a83.763,83.763,0,0,1,16.77-15.3c1.122-.8,2.219-1.354,3.133-1.9a24.976,24.976,0,0,1,2.4-1.186l1.563-.6Z" transform="translate(4622.435 72.818)" fill="#263238"/>
        <path id="Trazado_144551" data-name="Trazado 144551" d="M-4368.234,66.964l.913,75.066-11.433,73.119h30.134s13.7-55.516,16.89-67.182c3.092-11.329,7.74-68.352,8.148-71.148.161-1.1,3.43-20.832-6.193-30.086" transform="translate(4616.65 66.807)" fill="#3e2ea6"/>
        <path id="Trazado_144552" data-name="Trazado 144552" d="M-4329.835,46.733s.224.208.633.625a17.723,17.723,0,0,1,1.651,2.027,25.2,25.2,0,0,1,3.757,9.23,51.516,51.516,0,0,1,.577,15.84c-.457,3.069-.681,6.362-1.01,9.863s-.657,7.211-1.009,11.081c-.721,7.772-1.53,16.289-2.508,25.423-.5,4.559-1.025,9.286-1.674,14.141a115.805,115.805,0,0,1-2.652,14.879c-5.04,20.03-10.576,42.128-16.4,65.331v.16h-30.583V215.1c4.23-26.969,8.14-51.863,11.474-73.111h0c-.241-22.731-.441-41.495-.585-54.587-.056-6.538-.1-11.65-.136-15.151v-5.36s0,.457.048,1.354.04,2.243.072,4.006c.048,3.493.128,8.613.232,15.151.168,13.092.424,31.856.729,54.587h0c-3.317,21.256-7.211,46.15-11.4,73.127l-.2-.24h30.134l-.2.152,16.441-65.323a115.609,115.609,0,0,0,2.66-14.831c.649-4.847,1.178-9.575,1.69-14.133.994-9.126,1.819-17.627,2.564-25.407q.546-5.832,1.033-11.081c.345-3.485.585-6.818,1.042-9.871a51.89,51.89,0,0,0-.5-15.776,25.421,25.421,0,0,0-3.678-9.238,17.988,17.988,0,0,0-1.6-2.043A7.385,7.385,0,0,1-4329.835,46.733Z" transform="translate(4616.709 66.807)" fill="#263238"/>
        <path id="Trazado_144553" data-name="Trazado 144553" d="M-4349.465,173.233a12.226,12.226,0,0,1-2.331-.673c-1.418-.481-3.349-1.218-5.44-2.147s-3.934-1.867-5.24-2.6a12.014,12.014,0,0,1-2.067-1.274,15.981,15.981,0,0,1,2.2,1.018c1.338.657,3.205,1.546,5.272,2.476s4.006,1.7,5.376,2.251A16.975,16.975,0,0,1-4349.465,173.233Z" transform="translate(4613.825 42.99)" fill="#263238"/>
        <path id="Trazado_144554" data-name="Trazado 144554" d="M-4410.126,162.364a.746.746,0,0,1,0-.192v-.577c0-.537.064-1.274.12-2.211.12-1.947.3-4.711.513-8.116.465-6.85,1.122-16.313,2.051-26.745s1.987-19.878,2.86-26.689c.433-3.405.8-6.161,1.082-8.06.136-.921.248-1.65.329-2.187.04-.224.072-.409.1-.561a.664.664,0,0,1,.048-.192v.192a2.4,2.4,0,0,1-.056.577c-.056.537-.145,1.266-.249,2.2-.232,1.939-.553,4.7-.953,8.076-.8,6.818-1.811,16.249-2.74,26.68s-1.6,19.894-2.164,26.737c-.272,3.4-.5,6.153-.649,8.108-.08.929-.152,1.667-.2,2.2a4.513,4.513,0,0,1-.056.569A.537.537,0,0,1-4410.126,162.364Z" transform="translate(4622.888 58.835)" fill="#263238"/>
        <path id="Trazado_144555" data-name="Trazado 144555" d="M-4335.659,32.152a38.2,38.2,0,0,0-2.836-5.977,39.533,39.533,0,0,0-4.158-5.152,6.635,6.635,0,0,1,1.53,1.234,20.175,20.175,0,0,1,2.981,3.694,19.835,19.835,0,0,1,2.035,4.287A6.78,6.78,0,0,1-4335.659,32.152Z" transform="translate(4609.474 71.917)" fill="#263238"/>
        <path id="Trazado_144556" data-name="Trazado 144556" d="M-4401.388,150.742a.91.91,0,0,1,.072.545,2.212,2.212,0,0,1-.657,1.362,2.083,2.083,0,0,1-2.171.5,2.4,2.4,0,0,1-1.122-.8,2.239,2.239,0,0,1-.449-1.41,2.929,2.929,0,0,1,.577-1.747,1.816,1.816,0,0,1,.705-.553c.289-.1.5-.16.737-.232h.056a2.455,2.455,0,0,1,1.45.417,1.849,1.849,0,0,1,.673.953,1.983,1.983,0,0,1,.128.977c-.056,0-.1-.353-.329-.9a1.725,1.725,0,0,0-.641-.8,2.273,2.273,0,0,0-1.282-.3h.056c-.216.08-.5.16-.7.24a1.5,1.5,0,0,0-.537.449,2.633,2.633,0,0,0-.48,1.5,1.915,1.915,0,0,0,1.282,1.843,1.787,1.787,0,0,0,1.843-.345,2.194,2.194,0,0,0,.7-1.17C-4401.4,150.935-4401.428,150.75-4401.388,150.742Z" transform="translate(4622.009 46.597)" fill="#263238"/>
        <path id="Trazado_144557" data-name="Trazado 144557" d="M-4402.788,183.872a.913.913,0,0,1,.072.545,2.174,2.174,0,0,1-.657,1.362,2.074,2.074,0,0,1-2.171.5,2.476,2.476,0,0,1-1.122-.8,2.245,2.245,0,0,1-.449-1.41,2.957,2.957,0,0,1,.577-1.747,1.82,1.82,0,0,1,.705-.553c.289-.1.5-.16.737-.232h.056a2.455,2.455,0,0,1,1.45.417,1.849,1.849,0,0,1,.673.953,1.989,1.989,0,0,1,.128.977c-.048,0-.1-.353-.329-.9a1.67,1.67,0,0,0-.641-.8,2.274,2.274,0,0,0-1.282-.3h.056c-.216.08-.5.16-.689.24a1.448,1.448,0,0,0-.545.449,2.638,2.638,0,0,0-.481,1.5,1.916,1.916,0,0,0,1.282,1.843,1.787,1.787,0,0,0,1.843-.345,2.193,2.193,0,0,0,.7-1.17C-4402.8,184.073-4402.828,183.88-4402.788,183.872Z" transform="translate(4622.288 40.011)" fill="#263238"/>
        <path id="Trazado_144558" data-name="Trazado 144558" d="M-4326.8,40.467c-.04.072-1.033-.569-2.8-1.242a19.307,19.307,0,0,0-3.2-.905,20.922,20.922,0,0,0-4.006-.353,21.2,21.2,0,0,0-4.006.465,19.472,19.472,0,0,0-3.141.994c-1.738.721-2.716,1.386-2.764,1.314a3.207,3.207,0,0,1,.665-.5,6.511,6.511,0,0,1,.8-.5,12.52,12.52,0,0,1,1.146-.585,17.83,17.83,0,0,1,3.2-1.1,18.548,18.548,0,0,1,8.181-.112,18.268,18.268,0,0,1,3.205,1.01,11.31,11.31,0,0,1,1.162.553,6.029,6.029,0,0,1,.849.481A3.2,3.2,0,0,1-4326.8,40.467Z" transform="translate(4610.281 68.634)" fill="#263238"/>
        <g id="Grupo_88458" data-name="Grupo 88458" transform="translate(217.473 102.699)" opacity="0.3">
          <path id="Trazado_144559" data-name="Trazado 144559" d="M-4404.244,109.823c3.261-4.751,4.463-9.23,6.209-14.726,2.588-8.164,3.309-17.386,7.379-24.926,2.4-4.439,5.208-8.99,9.375-11.842s4.663-6.306,4.583-15.848a11.346,11.346,0,0,0,6.337-2.6A16.175,16.175,0,0,0-4366.8,33.2c-2.035,2.219-5.432,5.889-5.432,5.889s-7.363,1.37-7.259,1.322c-.176,3.67-.184,6.9-.369,10.568,0,0-14.125,14.991-15.223,18S-4404.244,109.823-4404.244,109.823Z" transform="translate(4404.244 -33.203)"/>
        </g>
        <g id="Grupo_88459" data-name="Grupo 88459" transform="translate(269.92 152.014)" opacity="0.3">
          <path id="Trazado_144560" data-name="Trazado 144560" d="M-4338.784,215.633c17.907-33.883,23.468-78.439,22.434-120.88,0,0-5.136,51.59-6.874,60.444S-4338.784,215.633-4338.784,215.633Z" transform="translate(4338.784 -94.753)"/>
        </g>
        <path id="Trazado_144561" data-name="Trazado 144561" d="M-4344.609,9.683a1.966,1.966,0,0,1-.4.312l-1.193.8-4.455,2.916-14.67,9.494-6.337,4.006h0l-2.019,1.6a16.465,16.465,0,0,0-1.811,1.546c-1.114,1.074-2.1,2.115-2.989,3.061l-.16.168-.088-.208-2.308-5.368c-.248-.6-.448-1.09-.609-1.466a2.323,2.323,0,0,1-.184-.521,2.313,2.313,0,0,1,.264.489c.176.361.4.8.681,1.426l2.4,5.288-.249-.04c.874-.961,1.851-2.019,2.964-3.109a16.108,16.108,0,0,1,1.827-1.6l2.011-1.6h0l6.33-4.062,14.767-9.366,4.5-2.8,1.234-.737A2.634,2.634,0,0,1-4344.609,9.683Z" transform="translate(4617.262 74.172)" fill="#263238"/>
      </g>
      <g id="freepik--speech-bubble--inject-5" transform="translate(-4587.794 -106.444)">
        <path id="Trazado_144562" data-name="Trazado 144562" d="M-4443.767-50.317l-10.007-1.17a32.193,32.193,0,0,1-45.526.365,32.193,32.193,0,0,1-.365-45.526,32.194,32.194,0,0,1,45.527-.365,32.193,32.193,0,0,1,6.846,36h0Z" transform="translate(4534.224 106.407)" fill="#fff"/>
        <path id="Trazado_144563" data-name="Trazado 144563" d="M-4443.783-50.353s-.088-.24-.249-.705l-.7-2.051-2.66-7.924h.177a.1.1,0,0,1-.136,0h0a.106.106,0,0,1,0-.12,32.188,32.188,0,0,0,2.6-15.616,31.706,31.706,0,0,0-.8-4.887,35.833,35.833,0,0,0-1.707-5.016,31.913,31.913,0,0,0-41.9-16.772,31.914,31.914,0,0,0-19.074,25.153,32.52,32.52,0,0,0,1.474,14.614,31.4,31.4,0,0,0,7.267,11.762,31.994,31.994,0,0,0,21.961,9.687h1.37a8.294,8.294,0,0,0,1.346-.04l2.62-.232a44.734,44.734,0,0,0,4.872-1.066,32,32,0,0,0,13.5-8.1.079.079,0,0,1,.08,0l7.411.921,1.923.248.665.088-.625-.056-1.907-.2-7.492-.8h.081a31.935,31.935,0,0,1-13.6,8.22,43.811,43.811,0,0,1-4.912,1.1l-2.644.248a8.6,8.6,0,0,1-1.362.048h-1.386a32.345,32.345,0,0,1-29.645-21.633,32.855,32.855,0,0,1-1.506-14.806,32.152,32.152,0,0,1,5.688-14.51,13.282,13.282,0,0,1,1.186-1.554l1.242-1.506,1.37-1.378a14.651,14.651,0,0,1,1.418-1.306l1.482-1.226c.48-.417,1.049-.729,1.563-1.1a17.694,17.694,0,0,1,1.6-1.042l1.667-.9a31.948,31.948,0,0,1,14.149-3.63,32.44,32.44,0,0,1,23.988,9.951,32.135,32.135,0,0,1,6.41,9.711,35,35,0,0,1,1.707,5.072,31.638,31.638,0,0,1,.8,4.943,32.14,32.14,0,0,1-2.788,15.712l-.168-.1h0a.111.111,0,0,1,.144,0,.2.2,0,0,1,0,.048c1.114,3.5,1.979,6.193,2.564,8.012.281.889.5,1.6.641,2.043A4.823,4.823,0,0,0-4443.783-50.353Z" transform="translate(4534.24 106.444)" fill="#263238"/>
        <path id="Trazado_144564" data-name="Trazado 144564" d="M-4487.114-68.059l3.846-4.254,8.156,6.554L-4463-79.677l3.966,3.862L-4475.3-57.924Z" transform="translate(4529.891 101.123)" fill="#05dbf2"/>
        <path id="Trazado_144565" data-name="Trazado 144565" d="M-4538.188-44.768l6.354-.8a.088.088,0,0,1,.064,0,27.5,27.5,0,0,0,11.578,6.947,39.513,39.513,0,0,0,4.174.913l2.251.2a6.936,6.936,0,0,0,1.154,0h1.178a27.3,27.3,0,0,0,9.743-2.115c.8-.353,1.667-.745,2.476-1.186l-.746-.3a31.946,31.946,0,0,1-10.528-7.131,31.143,31.143,0,0,1-7.211-11.674,32.309,32.309,0,0,1-1.482-14.47,31.5,31.5,0,0,1,5.608-14.222,14.378,14.378,0,0,1,1.17-1.522l1.218-1.474.521-.529h-.9a27.527,27.527,0,0,0-20.327,8.389,27.206,27.206,0,0,0-5.5,8.188,30.461,30.461,0,0,0-1.466,4.3,27.358,27.358,0,0,0,1.547,17.579.107.107,0,0,1,0,.1l-2.268,6.738c-.256.8-.457,1.354-.6,1.763s-.208.6-.208.6l.569-.08Z" transform="translate(4540.48 103.599)" fill="#f5f5f5"/>
        <path id="Trazado_144566" data-name="Trazado 144566" d="M-4538.212-44.826s-.185.04-.553.1l-1.658.24h-.08v-.08c.625-1.875,1.65-4.984,3.021-9.126v-.048h0l-.056-.128-.112-.264-.216-.537c-.152-.361-.28-.737-.425-1.122q-.4-1.2-.721-2.4a26.867,26.867,0,0,1-.8-5.536,27.2,27.2,0,0,1,.449-6.249,27.738,27.738,0,0,1,.849-3.269,23.345,23.345,0,0,1,1.29-3.277,27.393,27.393,0,0,1,10.015-11.489,27.673,27.673,0,0,1,16.433-4.367h.457l-.32.32-.521.529h0a32.443,32.443,0,0,0-7.6,15.159,31.432,31.432,0,0,0,19.59,35.39l.393.144-.369.176a32.856,32.856,0,0,1-4.335,1.883,28.4,28.4,0,0,1-4.358,1.082,29.165,29.165,0,0,1-8.2.112h0c-.93-.192-1.835-.345-2.716-.537a23.394,23.394,0,0,1-2.532-.745,27.838,27.838,0,0,1-4.391-1.979,27.056,27.056,0,0,1-6.1-4.655c0-.072-.184,0-.3,0l-.376.04-.713.088-1.3.152-2.035.232-1.242.136h-.433l.425-.072,1.242-.176,2.027-.272,1.3-.168.713-.1.376-.048h.193a.254.254,0,0,1,.12,0,.115.115,0,0,1,.08,0h.04a27.331,27.331,0,0,0,6.1,4.567,27.811,27.811,0,0,0,9.615,3.2h0a35.366,35.366,0,0,0,3.95.216,26.993,26.993,0,0,0,4.182-.361,27.983,27.983,0,0,0,4.3-1.082,33.7,33.7,0,0,0,4.271-1.875v.32a31.753,31.753,0,0,1-19.871-35.71,32.7,32.7,0,0,1,7.7-15.343h0l.528-.529.137.353a27.242,27.242,0,0,0-26.12,15.52,23.117,23.117,0,0,0-1.282,3.2,26.411,26.411,0,0,0-.857,3.2,27.115,27.115,0,0,0,.288,11.666c.208.8.44,1.651.7,2.4.136.377.264.753.408,1.114l.216.537.112.256.048.128a.2.2,0,0,1-.041.256v-.048c-1.418,4.142-2.468,7.259-3.132,9.086l-.048-.056,1.667-.2Z" transform="translate(4540.504 103.657)" fill="#263238"/>
      </g>
    </g>
    <rect id="Rectángulo_35085" data-name="Rectángulo 35085" width="610" height="372" transform="translate(180 1139)" fill="none"/>
  </g>
</svg>
