<svg xmlns="http://www.w3.org/2000/svg" width="429.546" height="384.999" viewBox="0 0 429.546 384.999">
  <g id="img13" transform="translate(-28 -72.811)">
    <g id="freepik--Character--inject-8" transform="translate(41.759 159.236)">
      <path id="Trazado_145308" data-name="Trazado 145308" d="M390.452,244.315c6.787-8.1,10.714-10.327,15.65-15.815,4.15-4.635,8.378-9.386,10.821-15.117s2.8-12.722-.64-17.909a159.987,159.987,0,0,0-19.024-2.666c-8.116-.446-11.888-.378-11.888-.378L380.872,206,389,209.321l-16.639,15.058L359.22,239.661l6.574,18.956,8.843.814Z" transform="translate(-51.819 -164.266)" fill="#ffbe9d"/>
      <path id="Trazado_145309" data-name="Trazado 145309" d="M402.94,196.93a19.954,19.954,0,0,1-2.153,2.24l-5.333,5.236c-2.094,2.046-4.014,3.879-5.449,5.149a17.291,17.291,0,0,1-2.395,1.939,21.649,21.649,0,0,1,2.153-2.23l5.333-5.246c2.094-2.046,4.014-3.879,5.449-5.139a17.933,17.933,0,0,1,2.4-1.949Z" transform="translate(-52.681 -164.403)" fill="#eb996e"/>
      <path id="Trazado_145310" data-name="Trazado 145310" d="M415.555,200.563c-.068.058-.456-.368-1.231-.824a5.662,5.662,0,0,0-3.316-.785,5.818,5.818,0,0,0-3.142,1.348c-.679.582-.97,1.076-1.057,1.038s.145-.6.814-1.3a5.284,5.284,0,0,1,6.9-.6C415.3,200,415.594,200.534,415.555,200.563Z" transform="translate(-53.263 -164.448)" fill="#eb996e"/>
      <path id="Trazado_145311" data-name="Trazado 145311" d="M383.688,197.918a5.537,5.537,0,0,0,3.384-7.233,21.885,21.885,0,0,0-2.414-3.452,12.079,12.079,0,0,1-1.144-2.124L382.175,181c-.9-3.452-1.648-6.943-4.334-9.124-2.434-1.939-5.818-2.269-8.61-3.675-2.046-1.018-3.762-2.608-5.769-3.7s-4.577-1.629-6.526-.427c-1.134.708-1.939,1.939-3.045,2.608-2.376,1.435-5.769.368-7.941,2.085-1.765,1.406-1.939,4.014-3.2,5.876-1.377,2.017-2.22,3.879-4.412,5a6.206,6.206,0,0,0-3.491,5.643c0,2.153-.31,3.132-.368,5.284a13.254,13.254,0,0,1-1.493,4.6c-.621,1.435-1.794,7.039-.514,7.951l14.622,6.584c4.625,4.538,9.405,9.192,15.4,11.636l1.154,1.551c-1.377.175,14.632-1.425,17.308-11.054a9.532,9.532,0,0,1,1.668-3.723,17.3,17.3,0,0,0,2.531-3.306,5.934,5.934,0,0,0-1.464-6.884Z" transform="translate(-50.989 -163.384)" fill="#263238"/>
      <path id="Trazado_145312" data-name="Trazado 145312" d="M369.38,214.788a79.433,79.433,0,0,0,8.358-11.122,28.119,28.119,0,0,0,4.208-13.138c0-.7-.223-5.595-.892-5.818-.485-.145-.863,4.169-1.27,4.47a23.969,23.969,0,0,0-7.757,11.868,63.425,63.425,0,0,0-2.628,13.72" transform="translate(-52.127 -164.031)" fill="#263238"/>
      <path id="Trazado_145313" data-name="Trazado 145313" d="M339.247,244.2c6.72,2.6,20.265-8.853,20.265-8.853l15.815-37.234c4.78-10.666,2.579-22.3-8.174-26.752l-.97-.349a20.818,20.818,0,0,0-25.928,11.219c-4.092,9.231-8.494,19.49-10.22,24.609-3.559,10.6,6.419,15.941,6.419,15.941s-.921,2.414-2.143,5.469c-2.725,6.846,2.22,15.087,4.984,15.95Z" transform="translate(-50.909 -163.58)" fill="#ffbe9d"/>
      <path id="Trazado_145314" data-name="Trazado 145314" d="M336.6,224.44a27,27,0,0,0,15.165.737s-6.031,6.506-16.232,1.871Z" transform="translate(-51.099 -165.238)" fill="#eb996e"/>
      <path id="Trazado_145315" data-name="Trazado 145315" d="M339.23,192.245c.126.262,1.561-.184,3.18.388s2.521,1.794,2.773,1.658.048-.475-.339-1.038a4.4,4.4,0,0,0-2.133-1.571,4.227,4.227,0,0,0-2.608-.068C339.462,191.828,339.172,192.119,339.23,192.245Z" transform="translate(-51.211 -164.236)" fill="#263238"/>
      <path id="Trazado_145316" data-name="Trazado 145316" d="M355.67,197.285c.116.262,1.551-.184,3.171.388s2.531,1.8,2.773,1.668.048-.485-.339-1.038a4.363,4.363,0,0,0-2.133-1.58,4.218,4.218,0,0,0-2.608-.058C355.9,196.868,355.6,197.169,355.67,197.285Z" transform="translate(-51.711 -164.389)" fill="#263238"/>
      <path id="Trazado_145317" data-name="Trazado 145317" d="M346.821,204.7a11.636,11.636,0,0,0-2.463-1.4c-.4-.184-.766-.407-.737-.708a2.268,2.268,0,0,1,.708-1.134l2.327-2.725c3.277-3.879,5.818-7.156,5.634-7.282s-2.909,2.909-6.206,6.787l-2.279,2.754a2.492,2.492,0,0,0-.785,1.551,1.086,1.086,0,0,0,.465.844,3.191,3.191,0,0,0,.669.349,10.733,10.733,0,0,0,2.666.96Z" transform="translate(-51.327 -164.236)" fill="#263238"/>
      <path id="Trazado_145318" data-name="Trazado 145318" d="M351.249,208c-.262-.107-.873,1.658-2.822,2.376s-3.752-.126-3.879.116.3.485,1.086.785a4.664,4.664,0,0,0,3.18,0,4.034,4.034,0,0,0,2.25-2.036C351.414,208.533,351.375,208,351.249,208Z" transform="translate(-51.372 -164.739)" fill="#263238"/>
      <path id="Trazado_145319" data-name="Trazado 145319" d="M359.91,187.594c0,.495,1.7.853,3.52,1.745s3.18,1.939,3.568,1.648c.184-.155.058-.659-.417-1.309a6.487,6.487,0,0,0-2.395-1.939,6.584,6.584,0,0,0-3.006-.669C360.385,187.128,359.91,187.351,359.91,187.594Z" transform="translate(-51.84 -164.103)" fill="#263238"/>
      <path id="Trazado_145320" data-name="Trazado 145320" d="M343.93,182.6c.155.475,1.406.475,2.754.97s2.395,1.115,2.793.824c.184-.145.136-.582-.242-1.105a4,4,0,0,0-2.027-1.377,3.956,3.956,0,0,0-2.443,0C344.153,182.059,343.862,182.379,343.93,182.6Z" transform="translate(-51.354 -163.941)" fill="#263238"/>
      <path id="Trazado_145321" data-name="Trazado 145321" d="M372.934,206.75c.213,0,8.009.4,5.255,7.534s-9.357,2.909-9.289,2.686S372.934,206.75,372.934,206.75Z" transform="translate(-52.113 -164.701)" fill="#ffbe9d"/>
      <path id="Trazado_145322" data-name="Trazado 145322" d="M372.229,215.206a2.1,2.1,0,0,0,.262.31,1.3,1.3,0,0,0,.921.378c.863,0,1.939-.97,2.492-2.211a4.373,4.373,0,0,0,.33-1.939,1.532,1.532,0,0,0-.562-1.319.679.679,0,0,0-.863.058c-.175.165-.184.32-.223.32s-.107-.175.058-.456a.844.844,0,0,1,.456-.33.97.97,0,0,1,.756.078,1.939,1.939,0,0,1,.873,1.61,4.5,4.5,0,0,1-.339,2.153c-.6,1.425-1.852,2.482-3,2.385a1.435,1.435,0,0,1-1.067-.63C372.171,215.381,372.2,215.206,372.229,215.206Z" transform="translate(-52.213 -164.799)" fill="#eb996e"/>
      <path id="Trazado_145323" data-name="Trazado 145323" d="M350.107,172.236c-.9-1.086,4.024-3.452,7.359-3.607,5.042-.252,12.043,1.144,15.514,3.82,4.208,3.229,7.214,7.156,7.893,12.411a30.174,30.174,0,0,1-2.521,15.514,9.086,9.086,0,0,1-2.725,3.946c-1.619,1.183-3.878,1.416-4.693,3.617a3.21,3.21,0,0,1-1.6,1.881c-1.842.863-2.909-1.067-3.142-2.657-.456-3.4.688-6.787,1.813-10.045a22.5,22.5,0,0,1,3.132-6.584c.814-1.047,1.823-1.939,2.579-3.035a4.615,4.615,0,0,0,.9-3.752,5.321,5.321,0,0,0-.349-.814,7.961,7.961,0,0,0-6.787-4.315c-4.567-.165-12.246-.766-13.488-2.831a12.4,12.4,0,0,1-1.939-4.489Z" transform="translate(-51.539 -163.542)" fill="#263238"/>
      <path id="Trazado_145324" data-name="Trazado 145324" d="M373.128,171.3a16.736,16.736,0,0,0-12.275-4.1,8.727,8.727,0,0,0-6.157,3.016c-1.425,1.871-1.551,4.848.145,6.448l.107.145c2.628,2.22,4.761,2.6,8.2,2.744,2.909.136,5.818-.543,8.668-.4a15.514,15.514,0,0,1,8.562,3.1A25.317,25.317,0,0,0,373.128,171.3Z" transform="translate(-51.648 -163.498)" fill="#263238"/>
      <path id="Trazado_145325" data-name="Trazado 145325" d="M383.894,187.23a6.371,6.371,0,0,1-1.367,1.794,15.689,15.689,0,0,1-4.422,3.2,15.9,15.9,0,0,1-5.236,1.522,6.875,6.875,0,0,1-2.259,0,19.761,19.761,0,0,0,13.284-6.5Z" transform="translate(-52.165 -164.108)" fill="#455a64"/>
      <path id="Trazado_145326" data-name="Trazado 145326" d="M386.219,189.63a2.336,2.336,0,0,1-.3.814,13.274,13.274,0,0,1-1.2,2.046,16.028,16.028,0,0,1-5.905,5.081,16.28,16.28,0,0,1-7.621,1.687,14.389,14.389,0,0,1-2.356-.271,2.763,2.763,0,0,1-.834-.271c0-.1,1.222.175,3.2.145a17.017,17.017,0,0,0,7.379-1.774,17.24,17.24,0,0,0,5.818-4.848C385.628,190.716,386.142,189.581,386.219,189.63Z" transform="translate(-52.085 -164.181)" fill="#455a64"/>
      <path id="Trazado_145327" data-name="Trazado 145327" d="M288.4,269.876,254.079,234,246.7,245.636l9.1,17.4s9.919,16.251,15.029,21.972,5.478,4.489,5.478,4.489Z" transform="translate(-48.401 -165.528)" fill="#ffbe9d"/>
      <path id="Trazado_145328" data-name="Trazado 145328" d="M240.7,223.258c-.116-.078-6.128-.97-8.523-1.309a2.511,2.511,0,0,0-1.765.388l-3.607,2.395-2.957,6.273.882.591-.9,5.663a1.794,1.794,0,0,0,2.909-.213,24.921,24.921,0,0,0,2.618-4.247l3.879-.068-.175.359-4,1.018-1.338,3.4,1.193,3.52,2.7,2.463,1.164-.048,2.191,1.319s2.22-1.939.339-3.879c0,0,1.813,1.784,2.812,1.086l8.145,3.7,6.409-6.186,1.736-4.926s-10.21-10.007-10.831-10.482a10.667,10.667,0,0,0-2.87-.824Z" transform="translate(-47.707 -165.162)" fill="#ffbe9d"/>
      <path id="Trazado_145329" data-name="Trazado 145329" d="M235.641,241.171a8.09,8.09,0,0,1-.068-1.231,3.811,3.811,0,0,0-1.367-2.434l-.145-.116-.145-.107.048-.175a5.168,5.168,0,0,0,.107-2.744,9.211,9.211,0,0,1-.31-1.154,2.094,2.094,0,0,1,.64,1.057,4.761,4.761,0,0,1,.048,3l-.1-.281.165.126a3.714,3.714,0,0,1,1.406,2.8C235.932,240.763,235.69,241.19,235.641,241.171Z" transform="translate(-48.008 -165.504)" fill="#eb996e"/>
      <path id="Trazado_145330" data-name="Trazado 145330" d="M232.643,243.855a2.958,2.958,0,0,0-.155-4.257c-.213-.3-.446-.582-.669-.863l-.087-.107v-.136a2.356,2.356,0,0,0-.436-2.366c-.427-.485-.834-.63-.8-.7s.465,0,1.038.475a2.618,2.618,0,0,1,.669,2.763l-.048-.242q.349.407.7.873a4.993,4.993,0,0,1,.882,1.813,2.831,2.831,0,0,1-.1,1.677C233.312,243.739,232.643,243.914,232.643,243.855Z" transform="translate(-47.909 -165.571)" fill="#eb996e"/>
      <path id="Trazado_145331" data-name="Trazado 145331" d="M233.862,237.449c.078.116-.281.475-.8.8s-.97.495-1.057.368.281-.475.8-.8S233.784,237.332,233.862,237.449Z" transform="translate(-47.955 -165.632)" fill="#eb996e"/>
      <path id="Trazado_145332" data-name="Trazado 145332" d="M235.183,241.919c-.145,0-.359-.688-.97-1.377s-1.212-1.047-1.164-1.183.9.058,1.561.863S235.319,241.919,235.183,241.919Z" transform="translate(-47.987 -165.69)" fill="#eb996e"/>
      <path id="Trazado_145333" data-name="Trazado 145333" d="M237.83,241.732c-.136-.068.659-1.862.97-4.237s0-4.305.136-4.325a8.445,8.445,0,0,1,.368,4.392A8.542,8.542,0,0,1,237.83,241.732Z" transform="translate(-48.131 -165.503)" fill="#eb996e"/>
      <path id="Trazado_145334" data-name="Trazado 145334" d="M229.144,227.69c.068,0,0,.378-.2.921A6.341,6.341,0,0,1,227.8,230.6a3.413,3.413,0,0,1-2.027,1.144c-.621.078-.97-.107-.97-.165s.368,0,.882-.184a3.878,3.878,0,0,0,1.736-1.134,10.763,10.763,0,0,0,1.193-1.794C228.872,227.991,229.086,227.661,229.144,227.69Z" transform="translate(-47.736 -165.337)" fill="#eb996e"/>
      <path id="Trazado_145335" data-name="Trazado 145335" d="M233.689,232.286c-.087-.107.116-.407.33-.766s.4-.669.543-.64.165.465-.107.911S233.767,232.4,233.689,232.286Z" transform="translate(-48.005 -165.434)" fill="#eb996e"/>
      <path id="Trazado_145336" data-name="Trazado 145336" d="M207.81,221.936l.1,14.69c0,4.935,19.877,4.771,19.625-.136,0-.291-.1-14.69-.1-14.69Z" transform="translate(-47.22 -165.158)" fill="#455a64"/>
      <path id="Trazado_145337" data-name="Trazado 145337" d="M227.546,224.456a11.112,11.112,0,0,1,3.539,0,3.394,3.394,0,0,1,2.24,1.154,3.879,3.879,0,0,1,.533,1.939,7.553,7.553,0,0,1-.378,3.811,4.906,4.906,0,0,1-2.589,2.346,7.873,7.873,0,0,1-3.481.5v-2.24a9.385,9.385,0,0,0,2.085-.126,3.219,3.219,0,0,0,1.823-.97,4.441,4.441,0,0,0,.766-3.287,2.386,2.386,0,0,0-.368-1.3,2.094,2.094,0,0,0-1.707-.64,6.322,6.322,0,0,0-2.424.485" transform="translate(-47.815 -165.234)" fill="#455a64"/>
      <path id="Trazado_145338" data-name="Trazado 145338" d="M220.417,190.957a.747.747,0,0,1-.417.175,1.377,1.377,0,0,1-1.164-.553,1.765,1.765,0,0,1-.4-.882,1.29,1.29,0,0,1,.359-1.105,2.172,2.172,0,0,1,2.657-.252,2.986,2.986,0,0,1,1.193,3.035,6.923,6.923,0,0,1-1.755,3.345,11.635,11.635,0,0,0-2.23,3.3,3.8,3.8,0,0,0,.737,3.879c.97,1.1,2.269,1.823,3.3,2.909a3.762,3.762,0,0,1,1.038,1.939,3.258,3.258,0,0,1-.339,2.085,7.621,7.621,0,0,1-2.666,2.667,11.636,11.636,0,0,0-2.453,2.007,6.981,6.981,0,0,0-1.581,4.208,15.519,15.519,0,0,0,.107,1.7,1.484,1.484,0,0,1-.145-.427,5.817,5.817,0,0,1-.155-1.27,6.894,6.894,0,0,1,1.5-4.431,10.967,10.967,0,0,1,2.482-2.124,7.33,7.33,0,0,0,2.492-2.531,2.744,2.744,0,0,0,.281-1.794,3.278,3.278,0,0,0-.921-1.687c-.97-.97-2.279-1.707-3.326-2.909a4.315,4.315,0,0,1-.824-4.354,11.839,11.839,0,0,1,2.356-3.423,6.555,6.555,0,0,0,1.687-3.113,2.6,2.6,0,0,0-.97-2.667,1.881,1.881,0,0,0-2.269.136,1.241,1.241,0,0,0,0,1.668,1.27,1.27,0,0,0,.97.572C220.272,191.016,220.4,190.909,220.417,190.957Z" transform="translate(-47.484 -164.131)" fill="#263238"/>
      <path id="Trazado_145339" data-name="Trazado 145339" d="M228.985,225.778l7.757-.368,8.8,2.5,10.986,9.376s-8.387,6.225-11.1,3.51-5.886-8.727-5.886-8.727l-3.122-1.319S226.173,230.724,228.985,225.778Z" transform="translate(-47.848 -165.268)" fill="#ffbe9d"/>
      <path id="Trazado_145340" data-name="Trazado 145340" d="M251.47,232.953a2.462,2.462,0,0,1-.436-.31l-1.212-.97-4.363-3.626h.068l-8.824-2.453h.029l-7.757.378.213-.126-.068.116a2.133,2.133,0,0,0,0,2.434,4.645,4.645,0,0,0,2.24,1.319,19.062,19.062,0,0,0,5.052.737h.048l3.113,1.338h.068v.068a61.975,61.975,0,0,0,3.946,6.555c.524.747.97,1.309,1.28,1.687a3.878,3.878,0,0,1,.475.591,3.7,3.7,0,0,1-.562-.5,20.3,20.3,0,0,1-1.387-1.639,53.127,53.127,0,0,1-4.121-6.506l.107.1-3.132-1.3h.087a18.869,18.869,0,0,1-5.207-.727,5.11,5.11,0,0,1-2.482-1.474,2.23,2.23,0,0,1-.485-1.493,3.51,3.51,0,0,1,.465-1.484l.058-.136.068-.116h.223l7.757-.349h.078l8.785,2.55h0l4.276,3.752c.456.417.834.766,1.144,1.038A1.52,1.52,0,0,1,251.47,232.953Z" transform="translate(-47.838 -165.257)" fill="#eb996e"/>
      <path id="Trazado_145341" data-name="Trazado 145341" d="M227.394,237.58a4.888,4.888,0,0,1-.659.446,6.44,6.44,0,0,1-.824.417,10.24,10.24,0,0,1-1.144.475,20.061,20.061,0,0,1-7.039,1.134,21.953,21.953,0,0,1-7.02-1.212,15.184,15.184,0,0,1-1.988-.844c-.456-.233-.7-.378-.679-.417s1.057.407,2.773.921a25.356,25.356,0,0,0,6.923,1.047,22.456,22.456,0,0,0,6.913-.97C226.327,238.045,227.316,237.5,227.394,237.58Z" transform="translate(-47.227 -165.637)" fill="#263238"/>
      <path id="Trazado_145342" data-name="Trazado 145342" d="M228.1,236.975a54.775,54.775,0,0,1-.281-7.582,55.509,55.509,0,0,1,.223-7.592,58.68,58.68,0,0,1,.281,7.583A59.379,59.379,0,0,1,228.1,236.975Z" transform="translate(-47.826 -165.158)" fill="#263238"/>
      <path id="Trazado_145343" data-name="Trazado 145343" d="M218.056,220.119a1.188,1.188,0,0,1-.165-.242,3.451,3.451,0,0,1-.252-.8,4.848,4.848,0,0,1,.582-3.016,11.46,11.46,0,0,1,3.074-3.365,10.326,10.326,0,0,0,3.481-4.063,3.791,3.791,0,0,0,.1-2.628,5.566,5.566,0,0,0-1.445-2.075c-1.193-1.144-2.473-2.143-3.025-3.394a3.161,3.161,0,0,1,.126-3.045,1.823,1.823,0,0,1,.611-.582c.175-.1.271-.126.281-.107a3.267,3.267,0,0,0-.727.8,3,3,0,0,0,0,2.783c.553,1.134,1.774,2.046,3.035,3.219a5.963,5.963,0,0,1,1.58,2.24,4.227,4.227,0,0,1-.087,2.967,10.481,10.481,0,0,1-3.617,4.247,11.481,11.481,0,0,0-3.054,3.171,4.906,4.906,0,0,0-.708,2.831A10.733,10.733,0,0,0,218.056,220.119Z" transform="translate(-47.517 -164.398)" fill="#263238"/>
      <path id="Trazado_145344" data-name="Trazado 145344" d="M85.154,229.888,66.246,215.605s8.174-24,4.945-26.975l-29,35.634,28.517,23.455Z" transform="translate(-42.19 -164.151)" fill="#0f0140"/>
      <g id="Grupo_88717" data-name="Grupo 88717" transform="translate(0 24.479)" opacity="0.3">
        <path id="Trazado_145345" data-name="Trazado 145345" d="M85.154,229.888,66.246,215.605s8.174-24,4.945-26.975l-29,35.634,28.517,23.455Z" transform="translate(-42.19 -188.63)"/>
      </g>
      <path id="Trazado_145346" data-name="Trazado 145346" d="M59.271,229.011a1.881,1.881,0,0,1-2.482-.349,1.794,1.794,0,0,1,.32-2.453,1.939,1.939,0,0,1,2.628.378,1.871,1.871,0,0,1-.621,2.521" transform="translate(-42.623 -165.281)" fill="#e0e0e0"/>
      <g id="Grupo_88718" data-name="Grupo 88718" transform="translate(0 24.45)" opacity="0.6">
        <path id="Trazado_145347" data-name="Trazado 145347" d="M42.19,224.263l2.967,2.25,26.7-35s.6-2.153-.659-2.909Z" transform="translate(-42.19 -188.6)" fill="#fff"/>
      </g>
      <path id="Trazado_145348" data-name="Trazado 145348" d="M67.544,216c-.184-.136-.97.669-2.23,1.067s-2.356.262-2.414.475,1.154.776,2.666.271S67.729,216.1,67.544,216Z" transform="translate(-42.819 -164.981)" fill="#263238"/>
      <path id="Trazado_145349" data-name="Trazado 145349" d="M69.088,210.849c-.136-.175-1.047.339-2.259.33s-2.133-.465-2.269-.291.756,1.076,2.269,1.076S69.253,210.994,69.088,210.849Z" transform="translate(-42.869 -164.824)" fill="#263238"/>
      <path id="Trazado_145350" data-name="Trazado 145350" d="M66.4,204.909c-.165.126.5,1.076,1.823,1.406s2.356-.175,2.269-.368-.97-.1-2.075-.388S66.554,204.754,66.4,204.909Z" transform="translate(-42.925 -164.644)" fill="#263238"/>
      <path id="Trazado_145351" data-name="Trazado 145351" d="M71.649,219.86c-.213-.058-.621.97-1.493,1.862s-1.8,1.445-1.726,1.658,1.3,0,2.308-1.125S71.891,219.879,71.649,219.86Z" transform="translate(-42.987 -165.099)" fill="#263238"/>
      <path id="Trazado_145352" data-name="Trazado 145352" d="M94.756,215.564l-17-16.484s11.112-22.825,8.2-26.18L52.81,204.7,78.2,231.485Z" transform="translate(-42.513 -163.673)" fill="#0f0140"/>
      <path id="Trazado_145353" data-name="Trazado 145353" d="M69.307,211.407a1.881,1.881,0,0,1-2.424-.65,1.813,1.813,0,0,1,.621-2.4,1.939,1.939,0,0,1,2.56.708,1.881,1.881,0,0,1-.97,2.424" transform="translate(-42.933 -164.743)" fill="#e0e0e0"/>
      <g id="Grupo_88719" data-name="Grupo 88719" transform="translate(10.297 9.256)" opacity="0.6">
        <path id="Trazado_145354" data-name="Trazado 145354" d="M52.81,204.7l2.666,2.6,30.805-31.464s.863-2.056-.3-2.909Z" transform="translate(-52.81 -172.93)" fill="#fff"/>
      </g>
      <path id="Trazado_145355" data-name="Trazado 145355" d="M79.11,199.529c-.155-.155-1.038.543-2.337.785s-2.366,0-2.453.184,1.047.911,2.608.582S79.294,199.646,79.11,199.529Z" transform="translate(-43.166 -164.481)" fill="#263238"/>
      <path id="Trazado_145356" data-name="Trazado 145356" d="M81.288,194.591c-.116-.194-1.076.2-2.288,0s-2.056-.737-2.211-.572.621,1.173,2.123,1.348S81.434,194.746,81.288,194.591Z" transform="translate(-43.24 -164.313)" fill="#263238"/>
      <path id="Trazado_145357" data-name="Trazado 145357" d="M79.349,188.359c-.184.107.368,1.134,1.639,1.619s2.356.116,2.3-.087-.97-.223-2.017-.64S79.523,188.224,79.349,188.359Z" transform="translate(-43.318 -164.142)" fill="#263238"/>
      <path id="Trazado_145358" data-name="Trazado 145358" d="M82.715,203.85c-.213-.078-.737.853-1.716,1.668s-1.939,1.212-1.939,1.435,1.29.136,2.424-.844S82.88,203.9,82.715,203.85Z" transform="translate(-43.31 -164.613)" fill="#263238"/>
      <path id="Trazado_145359" data-name="Trazado 145359" d="M87.839,208.27s51,40.288,60.573,41.481l10.86,1.765,21.826,9.4,67.38,35.479,21.128,14.758,10.85,20.5.921,12.314s-48.743,5.934-55.918,1.551S156.78,295.2,153.59,291.61,92.406,263.7,69.29,223.891Z" transform="translate(-43.013 -164.747)" fill="#263238"/>
      <path id="Trazado_145360" data-name="Trazado 145360" d="M61.32,247.4s36.991,34.354,62.91,44.322a316.687,316.687,0,0,1,46.639,22.718l43.468,23.669,55.841-25.21L259.153,293.13,168.483,271.8,76.417,225.13S61.718,240.227,61.32,247.4Z" transform="translate(-42.771 -165.259)" fill="#263238"/>
      <path id="Trazado_145361" data-name="Trazado 145361" d="M250.9,326.054a23.126,23.126,0,0,1,21.584-11.636" transform="translate(-48.529 -167.969)" fill="#263238"/>
      <path id="Trazado_145362" data-name="Trazado 145362" d="M255.873,305.66a12.751,12.751,0,0,1-4.043,13.652" transform="translate(-48.557 -167.705)" fill="#263238"/>
      <path id="Trazado_145363" data-name="Trazado 145363" d="M222.93,282.2a5.263,5.263,0,0,1,1.038.446c.65.32,1.581.8,2.725,1.406,2.288,1.212,5.4,2.967,8.727,5.032s6.351,4.043,8.465,5.537c1.057.737,1.939,1.348,2.482,1.794a4.849,4.849,0,0,1,.873.717,4.905,4.905,0,0,1-.97-.562l-2.57-1.658c-2.172-1.406-5.168-3.336-8.533-5.4s-6.438-3.879-8.727-5.149l-2.647-1.542a4.259,4.259,0,0,1-.863-.621Z" transform="translate(-47.679 -166.992)" fill="#455a64"/>
      <path id="Trazado_145364" data-name="Trazado 145364" d="M228.026,344.876l-.436-.271-1.251-.853-4.848-3.326L203.882,328.14,177.8,309.862l-15.4-10.811-8.135-5.721q-4.1-2.909-8.494-5.7c-5.866-3.646-11.762-6.972-17.24-10.52s-10.666-7.088-15.6-10.54-9.551-6.739-13.817-9.939a135.889,135.889,0,0,1-11.4-9.512,105.449,105.449,0,0,1-14.147-16.144c-.737-1.028-1.367-1.939-1.939-2.783s-.97-1.5-1.338-2.065-.611-.97-.8-1.29-.262-.456-.262-.456.116.145.3.427l.844,1.261c.368.562.824,1.241,1.387,2.046s1.193,1.726,1.939,2.744a108.7,108.7,0,0,0,14.224,16,140.982,140.982,0,0,0,11.4,9.435c4.276,3.18,8.95,6.438,13.846,9.9s10.094,6.991,15.592,10.5S140.119,283.547,146,287.2c2.909,1.833,5.818,3.752,8.523,5.721l8.135,5.721,15.378,10.831,26.015,18.374,17.521,12.421,4.751,3.394,1.222.892a4.917,4.917,0,0,1,.485.32Z" transform="translate(-43.011 -165.236)" fill="#455a64"/>
      <path id="Trazado_145365" data-name="Trazado 145365" d="M331.7,230.11s-17.754,9.59-21.07,13.575c-3.083,3.723-37.447,38.106-37.447,38.106s-22.234,6.613-21.332,8.465c1.581,3.384,7.815,9.464,11.151,12.605a31.029,31.029,0,0,1,3.995,4.509c2.812,3.879,8.31,11.471,12.848,17.8a42.314,42.314,0,0,1,7.059,19.451L302.58,336c8-3.229,12.363-11.975,21.157-16.484l26.413-28.43,8.048-16.435,2.676-40.443-3.811.271L342.3,236.422S329.507,235.026,331.7,230.11Z" transform="translate(-48.557 -165.41)" fill="#0f0140"/>
      <path id="Trazado_145366" data-name="Trazado 145366" d="M348.761,240.652l12.149-5.372a107.16,107.16,0,0,1,9.7-8.3s-15.155,18.879-1.852,25.21,24.066-10.356,24.066-10.356a83.208,83.208,0,0,0-4.228,7.34c-1.551,3.219-9.444,13.488-9.444,13.488a18.423,18.423,0,0,1-4.771,10.278c-4.538,5.188-9.638,13.778-13.691,15.979s-13.109,6.235-13.109,6.235a115.328,115.328,0,0,1-1.658-29.768C347.249,249.834,348.761,240.652,348.761,240.652Z" transform="translate(-51.405 -165.315)" fill="#0f0140"/>
      <path id="Trazado_145367" data-name="Trazado 145367" d="M368.124,255.882a5.537,5.537,0,0,1-1.028-.747,20.307,20.307,0,0,1-2.5-2.424,9.909,9.909,0,0,1-2.269-4.645,16.135,16.135,0,0,1,.378-6.332,32.6,32.6,0,0,1,4.7-10.414c.8-1.222,1.513-2.172,2.017-2.822a6.249,6.249,0,0,1,.834-.97,5.643,5.643,0,0,1-.669,1.076c-.456.679-1.115,1.658-1.881,2.909a34.907,34.907,0,0,0-4.509,10.336,16.163,16.163,0,0,0-.417,6.128,9.8,9.8,0,0,0,2.094,4.509C366.727,254.709,368.2,255.8,368.124,255.882Z" transform="translate(-51.908 -165.332)" fill="#263238"/>
      <path id="Trazado_145368" data-name="Trazado 145368" d="M365.959,270.826a2.723,2.723,0,0,1-.465.223c-.31.126-.776.32-1.387.543a17.522,17.522,0,0,1-5.391,1.028,8.116,8.116,0,0,1-3.723-.853,6.943,6.943,0,0,1-3.035-3.19c-1.377-2.841-1.532-6.351-1.241-9.851a39.039,39.039,0,0,1,2.046-9.754,34.509,34.509,0,0,1,3.878-7.166c1.309-1.939,2.463-3.384,3.268-4.392.388-.456.7-.834.97-1.144s.339-.388.359-.378a2.379,2.379,0,0,1-.281.436l-.863,1.212c-.766,1.038-1.871,2.54-3.132,4.46a35.333,35.333,0,0,0-3.7,7.136,40.286,40.286,0,0,0-1.988,9.628c-.281,3.462-.126,6.9,1.164,9.609a6.593,6.593,0,0,0,2.793,3.025,7.893,7.893,0,0,0,3.539.863,19.082,19.082,0,0,0,5.323-.853l1.406-.456a2.057,2.057,0,0,1,.465-.126Z" transform="translate(-51.557 -165.586)" fill="#263238"/>
      <path id="Trazado_145369" data-name="Trazado 145369" d="M360.982,235.05a24.326,24.326,0,0,1-2.143,1.745,41.549,41.549,0,0,0-4.78,4.577,42.5,42.5,0,0,0-3.976,5.294,23.724,23.724,0,0,1-1.474,2.327,10.665,10.665,0,0,1,1.173-2.511,31.939,31.939,0,0,1,3.879-5.449,32.309,32.309,0,0,1,4.945-4.518,11.179,11.179,0,0,1,2.376-1.464Z" transform="translate(-51.496 -165.56)" fill="#263238"/>
      <g id="Grupo_88720" data-name="Grupo 88720" transform="translate(297.085 69.49)" opacity="0.3">
        <path id="Trazado_145370" data-name="Trazado 145370" d="M361.757,235.05h0a44.215,44.215,0,0,0-13.177,29.477c0,.97.262,2.259,1.231,2.279a1.3,1.3,0,0,0,1.183-1.115,6.255,6.255,0,0,0-.145-1.745,40.732,40.732,0,0,1,2.269-15.107C354.737,243.9,358.684,239.21,361.757,235.05Z" transform="translate(-348.58 -235.05)"/>
      </g>
      <g id="Grupo_88721" data-name="Grupo 88721" transform="translate(307.876 63.333)" opacity="0.3">
        <path id="Trazado_145371" data-name="Trazado 145371" d="M368.97,228.7c-3.306,3.694-6.4,7.689-8.067,12.353s-1.745,10.084.785,14.341c.7,1.173,2.1,2.356,3.287,1.668a2.123,2.123,0,0,0,.679-2.511,10.57,10.57,0,0,0-1.493-2.385c-2.3-3.345-2.376-7.815-1.173-11.694s3.52-7.282,5.818-10.666" transform="translate(-359.71 -228.7)"/>
      </g>
      <g id="Grupo_88722" data-name="Grupo 88722" transform="translate(212.707 135.822)" opacity="0.3">
        <path id="Trazado_145372" data-name="Trazado 145372" d="M261.56,303.46a51.66,51.66,0,0,0,18.559,7.253c5.585.873,11.277-.107,16.862-.97,14.544-2.347,29.37-4.47,44.011-6.244H261.56" transform="translate(-261.56 -303.46)"/>
      </g>
      <path id="Trazado_145373" data-name="Trazado 145373" d="M316.06,348.2a2.589,2.589,0,0,1,.853-.242,8.959,8.959,0,0,1,2.395-.087,11.9,11.9,0,0,1,7.088,3.355,12.654,12.654,0,0,1,2.618,3.5,8.533,8.533,0,0,1,.882,3.471,8.98,8.98,0,0,1-.242,2.395,2.8,2.8,0,0,1-.3.824,18.426,18.426,0,0,0,.194-3.2,8.592,8.592,0,0,0-.97-3.277,12.77,12.77,0,0,0-2.55-3.355,12.314,12.314,0,0,0-6.787-3.365,19.063,19.063,0,0,0-3.18-.019Z" transform="translate(-50.508 -168.985)" fill="#263238"/>
      <rect id="Rectángulo_35038" data-name="Rectángulo 35038" width="112.302" height="21.729" rx="10.33" transform="translate(166.805 179.213)" fill="#455a64"/>
      <rect id="Rectángulo_35039" data-name="Rectángulo 35039" width="17.25" height="135.05" rx="8.2" transform="matrix(0.834, 0.552, -0.552, 0.834, 330.551, 81.707)" fill="#455a64"/>
      <path id="Trazado_145374" data-name="Trazado 145374" d="M261.86,325c.194,0,6.787,6.448,8.339,10.811s3.578,15.02,4.509,19.073c1.29,5.556,3.345,10.908,10.937,11.257l28.749.116a5.2,5.2,0,0,0,4.383-2.376L343.939,325h-7.864l-21.962,32.715h-24.9a5.614,5.614,0,0,1-4.489-2.133,4.112,4.112,0,0,1-.756-1.513c-.562-2.25-2.531-13.9-4.916-18.966a93.3,93.3,0,0,0-5.76-10.1Z" transform="translate(-48.862 -168.292)" fill="#263238"/>
      <path id="Trazado_145375" data-name="Trazado 145375" d="M288.779,363.095a1.774,1.774,0,1,1-1.765-1.765,1.774,1.774,0,0,1,1.765,1.765Z" transform="translate(-49.571 -169.396)" fill="#455a64"/>
      <path id="Trazado_145376" data-name="Trazado 145376" d="M317.459,363.095a1.774,1.774,0,1,1-1.765-1.765A1.774,1.774,0,0,1,317.459,363.095Z" transform="translate(-50.442 -169.396)" fill="#455a64"/>
      <rect id="Rectángulo_35040" data-name="Rectángulo 35040" width="98.65" height="5.343" rx="2.54" transform="translate(204.029 151.394)" fill="#263238"/>
      <path id="Trazado_145377" data-name="Trazado 145377" d="M293.593,319.51h-.97l-2.812.058-10.511.126c-4.489,0-9.89.087-15.989.068H258.6c-1.59,0-3.336-.32-4.722.5a1.794,1.794,0,0,0-.873,1.939,2.4,2.4,0,0,0,1.542,1.7,12.063,12.063,0,0,0,5.168.688h19.063l49.17.078,14.9.078,4.053.048h1.047a1.647,1.647,0,0,1,.359,0H346.9l-4.053.048-14.9.078-49.17.078h-19a12.121,12.121,0,0,1-5.4-.737,2.851,2.851,0,0,1-1.8-2.036c0-.233-.058-.456-.048-.708a2.347,2.347,0,0,1,.194-.688,2.473,2.473,0,0,1,.97-1.028,5.11,5.11,0,0,1,2.521-.621c.853,0,1.648.058,2.453.068l4.7.068h30Z" transform="translate(-48.578 -168.115)" fill="#455a64"/>
      <path id="Trazado_145378" data-name="Trazado 145378" d="M273.5,349.244a4.759,4.759,0,0,1-.33-1.018c-.2-.766-.446-1.707-.727-2.812a84.424,84.424,0,0,0-2.676-9.192,33.028,33.028,0,0,0-2.23-4.732,27.486,27.486,0,0,0-2.492-3.471c-1.6-1.852-2.783-2.812-2.715-2.909a5.458,5.458,0,0,1,.863.64,17.8,17.8,0,0,1,2.114,2.017,23.274,23.274,0,0,1,2.628,3.462,30.252,30.252,0,0,1,2.308,4.8,64.688,64.688,0,0,1,2.55,9.279c.252,1.2.446,2.182.572,2.86A4.3,4.3,0,0,1,273.5,349.244Z" transform="translate(-48.876 -168.296)" fill="#455a64"/>
      <rect id="Rectángulo_35041" data-name="Rectángulo 35041" width="6.254" height="78.821" transform="translate(221.735 200.942)" fill="#263238"/>
      <path id="Trazado_145379" data-name="Trazado 145379" d="M276.01,438.88,341,451.669v6.787l-64.994-9.784Z" transform="translate(-49.291 -171.751)" fill="#263238"/>
      <circle id="Elipse_4773" data-name="Elipse 4773" cx="5.76" cy="5.76" r="5.76" transform="translate(280.194 285.843)" fill="#263238"/>
      <path id="Trazado_145380" data-name="Trazado 145380" d="M272.633,438.88,220.05,451.718v6.787l52.583-10.453Z" transform="translate(-47.592 -171.751)" fill="#263238"/>
      <circle id="Elipse_4774" data-name="Elipse 4774" cx="5.76" cy="5.76" r="5.76" transform="translate(172.458 285.843)" fill="#263238"/>
      <circle id="Elipse_4775" data-name="Elipse 4775" cx="5.76" cy="5.76" r="5.76" transform="translate(219.117 285.843)" fill="#263238"/>
      <path id="Trazado_145381" data-name="Trazado 145381" d="M280.461,456.636H267.42l.126-49.306H280.6Z" transform="translate(-49.031 -170.793)" fill="#263238"/>
      <path id="Trazado_145382" data-name="Trazado 145382" d="M280.123,407.431a38.516,38.516,0,0,1-6.176.252,38.439,38.439,0,0,1-6.167-.252,38.432,38.432,0,0,1,6.167-.252,38.509,38.509,0,0,1,6.177.252Z" transform="translate(-49.041 -170.787)" fill="#455a64"/>
      <path id="Trazado_145383" data-name="Trazado 145383" d="M279.7,449.561a38.51,38.51,0,0,1-6.177.252,38.51,38.51,0,0,1-6.177-.252,38.514,38.514,0,0,1,6.177-.252,38.513,38.513,0,0,1,6.177.252Z" transform="translate(-49.028 -172.067)" fill="#455a64"/>
    </g>
    <g id="freepik--Table--inject-8" transform="translate(47.441 281.541)">
      <rect id="Rectángulo_35042" data-name="Rectángulo 35042" width="308.885" height="13.507" transform="translate(0 0.01)" fill="#455a64"/>
      <path id="Trazado_145384" data-name="Trazado 145384" d="M113.5,289.73s0,.058-.1.145-.175.233-.32.407a6.372,6.372,0,0,1-1.551,1.241,8.833,8.833,0,0,1-2.986.97,21.028,21.028,0,0,1-4.16.174,39.552,39.552,0,0,1-5.013-.572,44.307,44.307,0,0,0-5.711-.679,35.276,35.276,0,0,0-12.838,2.492c-4.412,1.61-8.562,3.4-12.44,4.489a34.644,34.644,0,0,1-5.682,1.134,24.368,24.368,0,0,1-5.052,0,17.162,17.162,0,0,1-6.923-2.221,10.663,10.663,0,0,1-2.143-1.6s.058,0,.155.1l.407.3a14.288,14.288,0,0,0,1.658,1.076,17.453,17.453,0,0,0,6.875,2.075,23.978,23.978,0,0,0,4.994,0,34.48,34.48,0,0,0,5.624-1.144c3.879-1.105,8-2.909,12.431-4.48a35.168,35.168,0,0,1,12.983-2.482,43.958,43.958,0,0,1,5.74.717,41.9,41.9,0,0,0,4.974.621,21.467,21.467,0,0,0,4.111-.126,8.881,8.881,0,0,0,2.909-.921,7.689,7.689,0,0,0,2.056-1.716Z" transform="translate(-48.066 -289.526)" fill="#263238"/>
      <path id="Trazado_145385" data-name="Trazado 145385" d="M79.794,289.94a5.819,5.819,0,0,1-.97.8A20.723,20.723,0,0,1,76,292.558a24.616,24.616,0,0,1-4.606,1.871,24.95,24.95,0,0,1-6.021.97,22.912,22.912,0,0,1-10.763-2.22,6.72,6.72,0,0,1-2.6-2.124,3.7,3.7,0,0,1-.427-.815c-.068-.194-.1-.3-.078-.31a8.173,8.173,0,0,0,.621,1.037,6.991,6.991,0,0,0,2.6,1.939,23.765,23.765,0,0,0,10.666,2.085,25.056,25.056,0,0,0,10.52-2.676,26.511,26.511,0,0,0,2.851-1.7,8.384,8.384,0,0,1,1.028-.679Z" transform="translate(-48.155 -289.532)" fill="#263238"/>
      <path id="Trazado_145386" data-name="Trazado 145386" d="M154.656,298.587a5,5,0,0,1,.485.175,8.5,8.5,0,0,0,6.787-.465v.174a12.877,12.877,0,0,0-6.72-2.569,13.061,13.061,0,0,0-8.727,2.269,1.406,1.406,0,0,0-.679.873.97.97,0,0,0,.582.873,4.024,4.024,0,0,0,1.2.427l1.309.291c1.774.4,3.6.785,5.488,1.067a32.965,32.965,0,0,0,5.818.4,22.374,22.374,0,0,0,3-.291c.495-.087.97-.184,1.493-.31a7.3,7.3,0,0,0,1.435-.465A4.741,4.741,0,0,0,168,299.673a2.1,2.1,0,0,0,.359-2.075,3.51,3.51,0,0,0-1.464-1.639,11.191,11.191,0,0,0-2.056-.97,27.867,27.867,0,0,0-8.572-1.784,35.712,35.712,0,0,0-14.632,2.191,36.411,36.411,0,0,0-8.814,4.848c-.97.727-1.668,1.3-2.133,1.726l-.543.465c-.116.107-.184.155-.194.145l.175-.175.514-.495c.446-.436,1.164-1.038,2.094-1.784a35.12,35.12,0,0,1,8.814-4.955,35.548,35.548,0,0,1,14.758-2.366,28.226,28.226,0,0,1,8.727,1.784,12.176,12.176,0,0,1,2.114,1.037,3.879,3.879,0,0,1,1.619,1.823,2.482,2.482,0,0,1-.417,2.434,5.061,5.061,0,0,1-2.017,1.474,7.756,7.756,0,0,1-1.5.485,14.052,14.052,0,0,1-1.522.32,22.939,22.939,0,0,1-3.045.291,32.739,32.739,0,0,1-5.9-.417c-1.939-.281-3.733-.679-5.507-1.076l-1.309-.3a4.634,4.634,0,0,1-1.3-.465,1.687,1.687,0,0,1-.543-.475,1.076,1.076,0,0,1-.194-.727,1.7,1.7,0,0,1,.815-1.115,13.274,13.274,0,0,1,8.94-2.269,13.013,13.013,0,0,1,6.787,2.725l.126.1-.145.078a8.377,8.377,0,0,1-5.517.766,6.089,6.089,0,0,1-1.862-.689Z" transform="translate(-50.537 -289.618)" fill="#263238"/>
      <path id="Trazado_145387" data-name="Trazado 145387" d="M196.085,290.09a1.94,1.94,0,0,1,.31.688,5.188,5.188,0,0,1,.2,2.027,10.065,10.065,0,0,1-3.006,5.9,15.33,15.33,0,0,1-2.812,2.385,13.01,13.01,0,0,1-2.715,1.319,12.606,12.606,0,0,1-1.939.485,3.174,3.174,0,0,1-.737.068c0-.068,1.038-.213,2.618-.814a13.449,13.449,0,0,0,2.608-1.348,15.834,15.834,0,0,0,2.725-2.356,10.2,10.2,0,0,0,3.016-5.663,7.068,7.068,0,0,0-.271-2.686Z" transform="translate(-52.221 -289.537)" fill="#263238"/>
      <path id="Trazado_145388" data-name="Trazado 145388" d="M252.219,302.441a10.488,10.488,0,0,0-6.264-3.549,10.752,10.752,0,0,0-3.675.1,15.35,15.35,0,0,1-4.305.4,8.571,8.571,0,0,1-4.3-2.1,14.545,14.545,0,0,0-4.315-2.55,15.8,15.8,0,0,0-9.58-.155,22.7,22.7,0,0,0-7.078,3.588,39.172,39.172,0,0,0-4.111,3.51l-1.037,1.038a3.316,3.316,0,0,1-.378.349,2.483,2.483,0,0,1,.32-.407c.223-.252.553-.621.97-1.086a34.625,34.625,0,0,1,4.053-3.617,22.66,22.66,0,0,1,7.146-3.714,16,16,0,0,1,9.8.136,14.612,14.612,0,0,1,4.412,2.618,8.339,8.339,0,0,0,4.111,2.046,15.445,15.445,0,0,0,4.218-.359,11.006,11.006,0,0,1,3.772-.058,9.891,9.891,0,0,1,4.848,2.337,6.786,6.786,0,0,1,1.387,1.484Z" transform="translate(-52.883 -289.642)" fill="#263238"/>
      <path id="Trazado_145389" data-name="Trazado 145389" d="M303.174,289.66a3.429,3.429,0,0,1-.339.465c-.233.281-.553.737-1.047,1.251a28.77,28.77,0,0,1-4.509,4,35.877,35.877,0,0,1-7.825,4.334,30.8,30.8,0,0,1-5.052,1.61,25.975,25.975,0,0,1-5.643.727,27.81,27.81,0,0,1-10.666-2.221,35.743,35.743,0,0,1-7.757-4.421,30.575,30.575,0,0,1-4.47-4.034,15.38,15.38,0,0,1-1.057-1.26,3.1,3.1,0,0,1-.339-.456,3.589,3.589,0,0,1,.4.407c.252.272.591.708,1.105,1.2A32.608,32.608,0,0,0,260.5,295.2a35.924,35.924,0,0,0,7.757,4.305,27.76,27.76,0,0,0,10.569,2.172,26.1,26.1,0,0,0,5.566-.708,32.7,32.7,0,0,0,4.994-1.571,36.964,36.964,0,0,0,7.757-4.228,31.025,31.025,0,0,0,4.557-3.879c.514-.495.853-.97,1.105-1.2A3.327,3.327,0,0,1,303.174,289.66Z" transform="translate(-54.319 -289.524)" fill="#263238"/>
      <path id="Trazado_145390" data-name="Trazado 145390" d="M296.445,289.53a2.075,2.075,0,0,1-.272.213c-.174.126-.436.32-.8.543a32.055,32.055,0,0,1-3.093,1.745,33.025,33.025,0,0,1-4.848,1.988,21.467,21.467,0,0,1-6.38,1.1,26.316,26.316,0,0,1-11.325-2.909,25.473,25.473,0,0,1-3.064-1.8c-.349-.233-.6-.436-.785-.572s-.262-.213-.252-.223a9.7,9.7,0,0,1,1.115.669,31.232,31.232,0,0,0,3.1,1.687,27.3,27.3,0,0,0,11.209,2.725,22.3,22.3,0,0,0,6.274-1.047,34.951,34.951,0,0,0,4.848-1.939c1.348-.64,2.4-1.212,3.132-1.639a9.465,9.465,0,0,1,1.134-.533Z" transform="translate(-54.658 -289.52)" fill="#263238"/>
      <path id="Trazado_145391" data-name="Trazado 145391" d="M351.432,290.987a2.751,2.751,0,0,1-.621,0l-1.736-.068-1.26-.058h-5.139l-2.123.068-2.279.155c-1.59.078-3.248.3-5.013.465-3.491.446-7.272,1.067-11.122,1.939a104.9,104.9,0,0,0-10.423,2.977c-1.493.562-2.967,1.057-4.228,1.619l-1.871.776-1.648.776c-1.076.475-1.939.97-2.754,1.387l-1.115.582-.873.524-1.231.727a2.753,2.753,0,0,1-.465.233,3.379,3.379,0,0,1,.359-.291l1.154-.766.834-.553,1.086-.611a29.36,29.36,0,0,1,2.705-1.435l1.639-.8,1.862-.8c1.26-.572,2.734-1.086,4.237-1.658A103.592,103.592,0,0,1,321.9,293.13c3.879-.873,7.757-1.484,11.248-1.939,1.784-.165,3.462-.368,5.061-.436l2.308-.136,2.143-.048h5.178l1.26.087,1.736.136A3.653,3.653,0,0,1,351.432,290.987Z" transform="translate(-55.627 -289.552)" fill="#263238"/>
      <path id="Trazado_145392" data-name="Trazado 145392" d="M257.405,302.093a14.1,14.1,0,0,0-1.7-2.017,15.806,15.806,0,0,0-6.225-3.481,33.166,33.166,0,0,0-4.848-1.067c-1.774-.281-3.675-.5-5.682-.853a47.359,47.359,0,0,1-6.128-1.542,40.726,40.726,0,0,0-6.574-1.59,27.354,27.354,0,0,0-12.818,1.774,46.546,46.546,0,0,0-5.217,2.337c-1.6.824-3.064,1.629-4.392,2.376-2.657,1.5-4.771,2.793-6.235,3.675l-1.677,1.028-.436.271-.155.078.136-.116.417-.291c.368-.262.921-.63,1.639-1.1,1.435-.97,3.539-2.24,6.177-3.782,1.328-.766,2.793-1.59,4.383-2.424a47.876,47.876,0,0,1,5.236-2.385,27.488,27.488,0,0,1,12.993-1.823,40.186,40.186,0,0,1,6.632,1.61,49.042,49.042,0,0,0,6.128,1.561c1.939.349,3.878.582,5.663.882a33.049,33.049,0,0,1,4.848,1.125,15.514,15.514,0,0,1,6.254,3.626A7.816,7.816,0,0,1,257.405,302.093Z" transform="translate(-52.523 -289.566)" fill="#263238"/>
      <path id="Trazado_145393" data-name="Trazado 145393" d="M187.115,289.73a2.909,2.909,0,0,1,0,.863,9.386,9.386,0,0,1-.6,2.279,13.08,13.08,0,0,1-4.741,6.08,31.993,31.993,0,0,1-7.039,3.239c-.97.31-1.716.533-2.25.679a4.2,4.2,0,0,1-.844.174,3.666,3.666,0,0,1,.8-.32l2.2-.785a36.4,36.4,0,0,0,6.913-3.306,13.574,13.574,0,0,0,4.7-5.818A17.522,17.522,0,0,0,187.115,289.73Z" transform="translate(-51.804 -289.526)" fill="#263238"/>
      <path id="Trazado_145394" data-name="Trazado 145394" d="M113.65,303.043a5.284,5.284,0,0,1,.747-.727c.5-.446,1.251-1.067,2.2-1.794a62.545,62.545,0,0,1,7.883-5.081c3.209-1.765,6.206-3.171,8.378-4.179,1.1-.495,1.939-.892,2.6-1.154a6.419,6.419,0,0,1,.97-.378,5.114,5.114,0,0,1-.911.514l-2.54,1.27c-2.143,1.057-5.12,2.5-8.31,4.257a77.323,77.323,0,0,0-7.9,4.964c-.97.7-1.745,1.28-2.269,1.7a5.644,5.644,0,0,1-.844.611Z" transform="translate(-50.042 -289.526)" fill="#263238"/>
      <path id="Trazado_145395" data-name="Trazado 145395" d="M127.155,290.294c0,.048-.718-.087-2,0a14.09,14.09,0,0,0-5.149,1.561,47.047,47.047,0,0,0-6.7,4.5,34.647,34.647,0,0,1-4.024,2.608,22.3,22.3,0,0,1-4.848,1.852,44.358,44.358,0,0,1-9.861,1.193c-3.054.087-5.818,0-8.1.116a41.184,41.184,0,0,0-5.42.533c-.63.116-1.115.213-1.445.291a2.829,2.829,0,0,1-.514.1,1.941,1.941,0,0,1,.495-.174c.32-.1.8-.213,1.445-.359a35.144,35.144,0,0,1,5.43-.65c2.308-.136,5.052-.1,8.1-.2a45.891,45.891,0,0,0,9.784-1.2,22.78,22.78,0,0,0,4.741-1.823,33.208,33.208,0,0,0,3.995-2.569,45.571,45.571,0,0,1,6.787-4.441,13.507,13.507,0,0,1,5.255-1.474,8.312,8.312,0,0,1,1.493,0Z" transform="translate(-48.993 -289.538)" fill="#263238"/>
      <path id="Trazado_145396" data-name="Trazado 145396" d="M77.144,465.307H72.752L70.25,302.38h9.386Z" transform="translate(-48.724 -289.911)" fill="#455a64"/>
      <path id="Trazado_145397" data-name="Trazado 145397" d="M369.063,464.982H364.68l2.191-162.122h9.386Z" transform="translate(-57.666 -289.925)" fill="#263238"/>
      <rect id="Rectángulo_35043" data-name="Rectángulo 35043" width="39.163" height="13.507" transform="translate(294.156)" fill="#263238"/>
    </g>
    <g id="freepik--Plants--inject-8" transform="translate(96.146 223.935)">
      <g id="freepik--plants--inject-8-2" data-name="freepik--plants--inject-8">
        <path id="Trazado_145398" data-name="Trazado 145398" d="M100.72,265.64l3.549,23.32h20.614l4.78-22.98Z" transform="translate(-98.354 -231.189)" fill="#0f0140"/>
        <path id="Trazado_145399" data-name="Trazado 145399" d="M126.861,281.046c0,.068-5.284.126-11.8.126s-11.791-.058-11.791-.126,5.275-.116,11.791-.116S126.861,281,126.861,281.046Z" transform="translate(-98.432 -231.653)" fill="#fafafa"/>
        <path id="Trazado_145400" data-name="Trazado 145400" d="M126.936,279.866c0,.068-5.314.126-11.878.126s-11.878-.058-11.878-.126,5.323-.116,11.878-.116S126.936,279.8,126.936,279.866Z" transform="translate(-98.429 -231.617)" fill="#fafafa"/>
        <path id="Trazado_145401" data-name="Trazado 145401" d="M126.9,278.526c0,.068-5.314.126-11.878.126s-11.878-.058-11.878-.126,5.323-.116,11.878-.116S126.9,278.468,126.9,278.526Z" transform="translate(-98.428 -231.576)" fill="#fafafa"/>
        <path id="Trazado_145402" data-name="Trazado 145402" d="M106.788,288.136a18.54,18.54,0,0,1-.63-2.909,18.984,18.984,0,0,1-.4-2.977,18.228,18.228,0,0,1,.63,2.909,17.694,17.694,0,0,1,.4,2.977Z" transform="translate(-98.507 -231.693)" fill="#fafafa"/>
        <path id="Trazado_145403" data-name="Trazado 145403" d="M108.257,287.879a23.861,23.861,0,0,1-.262-2.86,22.981,22.981,0,0,1-.136-2.909,13.575,13.575,0,0,1,.378,2.86,14.894,14.894,0,0,1,.019,2.909Z" transform="translate(-98.571 -231.689)" fill="#fafafa"/>
        <path id="Trazado_145404" data-name="Trazado 145404" d="M110.878,287.876a15.359,15.359,0,0,1-.533-2.909,13.962,13.962,0,0,1-.155-2.977,25.994,25.994,0,0,1,.4,2.909,26.721,26.721,0,0,1,.291,2.977Z" transform="translate(-98.641 -231.685)" fill="#fafafa"/>
        <path id="Trazado_145405" data-name="Trazado 145405" d="M112.741,288a24.4,24.4,0,0,1-.194-5.983q.213,2.986.194,5.983Z" transform="translate(-98.71 -231.686)" fill="#fafafa"/>
        <path id="Trazado_145406" data-name="Trazado 145406" d="M115.993,287.882a34.635,34.635,0,0,1-.194-5.672,34.635,34.635,0,0,1,.194,5.672Z" transform="translate(-98.811 -231.692)" fill="#fafafa"/>
        <path id="Trazado_145407" data-name="Trazado 145407" d="M118.416,288.008a18.122,18.122,0,0,1-.1-2.909,18.491,18.491,0,0,1,.145-2.909,18.121,18.121,0,0,1,.1,2.909,17.2,17.2,0,0,1-.145,2.909Z" transform="translate(-98.888 -231.691)" fill="#fafafa"/>
        <path id="Trazado_145408" data-name="Trazado 145408" d="M120.67,287.679a19.062,19.062,0,0,1,.175-3.064,19.723,19.723,0,0,1,.417-3.045,21.332,21.332,0,0,1-.184,3.064A20.517,20.517,0,0,1,120.67,287.679Z" transform="translate(-98.96 -231.672)" fill="#fafafa"/>
        <path id="Trazado_145409" data-name="Trazado 145409" d="M123.56,287.39a10.18,10.18,0,0,1,.349-2.6,9.784,9.784,0,0,1,.766-2.521c.058,0-.233,1.164-.533,2.57a24.142,24.142,0,0,1-.582,2.55Z" transform="translate(-99.048 -231.694)" fill="#fafafa"/>
        <path id="Trazado_145410" data-name="Trazado 145410" d="M98.28,260.88v4.363A1.716,1.716,0,0,0,100,266.96h29.855a1.716,1.716,0,0,0,1.716-1.716V260.88Z" transform="translate(-98.28 -231.044)" fill="#0f0140"/>
        <g id="Grupo_88723" data-name="Grupo 88723" transform="translate(2.589 35.916)" opacity="0.4">
          <path id="Trazado_145411" data-name="Trazado 145411" d="M100.95,267.15l.242,1.387L128.74,270.5l.7-3.355Z" transform="translate(-100.95 -267.15)"/>
        </g>
        <path id="Trazado_145412" data-name="Trazado 145412" d="M109.233,259.979c-4.392-2.54-6.787-8.455-6.913-13.294s1.842-9.9,5.818-12.673a13.274,13.274,0,0,1,14.428-.078,15.01,15.01,0,0,1,6.593,13,17.3,17.3,0,0,1-7.078,12.993" transform="translate(-98.403 -230.162)" fill="#455a64"/>
        <path id="Trazado_145413" data-name="Trazado 145413" d="M116.631,260.468a5.752,5.752,0,0,1-.087-1.115c0-.785,0-1.8-.087-3.016-.058-2.55-.165-6.07-.33-9.958s-.378-7.408-.543-9.948c-.068-1.212-.136-2.23-.175-3.016a5.816,5.816,0,0,1,0-1.115,5.886,5.886,0,0,1,.175,1.1c.087.718.194,1.736.31,3.016.233,2.54.485,6.06.659,9.948s.223,7.418.213,9.977v3.016A6.448,6.448,0,0,1,116.631,260.468Z" transform="translate(-98.799 -230.176)" fill="#263238"/>
        <path id="Trazado_145414" data-name="Trazado 145414" d="M103.563,245.987a3.219,3.219,0,0,1-1.561.078c-.853-.078-1.542-.223-1.532-.339a3.219,3.219,0,0,1,1.561-.078A3.515,3.515,0,0,1,103.563,245.987Z" transform="translate(-98.347 -230.58)" fill="#263238"/>
        <path id="Trazado_145415" data-name="Trazado 145415" d="M103.831,241.5c0,.1-.65-.068-1.348-.378s-1.231-.64-1.183-.747.65.058,1.348.368S103.918,241.4,103.831,241.5Z" transform="translate(-98.372 -230.42)" fill="#263238"/>
        <path id="Trazado_145416" data-name="Trazado 145416" d="M106.131,238.145c-.058.1-.737-.223-1.435-.814s-1.154-1.183-1.067-1.261.64.378,1.328.97S106.2,238.048,106.131,238.145Z" transform="translate(-98.442 -230.29)" fill="#263238"/>
        <path id="Trazado_145417" data-name="Trazado 145417" d="M108.5,234.994c-.107.048-.427-.465-.727-1.134s-.456-1.251-.349-1.3.427.465.727,1.134S108.6,234.926,108.5,234.994Z" transform="translate(-98.557 -230.184)" fill="#263238"/>
        <path id="Trazado_145418" data-name="Trazado 145418" d="M112.142,232.757a2.3,2.3,0,0,1-.688-1.241c-.233-.756-.252-1.387-.136-1.406s.31.562.533,1.29S112.249,232.718,112.142,232.757Z" transform="translate(-98.674 -230.11)" fill="#263238"/>
        <path id="Trazado_145419" data-name="Trazado 145419" d="M118.217,230.34c.107,0,0,.495-.145,1.028s-.427.97-.533.892-.048-.495.145-1.028S118.11,230.3,118.217,230.34Z" transform="translate(-98.863 -230.116)" fill="#263238"/>
        <path id="Trazado_145420" data-name="Trazado 145420" d="M122.692,232.269c.078.078-.2.465-.621.853s-.834.64-.911.562.2-.475.63-.863S122.614,232.182,122.692,232.269Z" transform="translate(-98.975 -230.175)" fill="#263238"/>
        <path id="Trazado_145421" data-name="Trazado 145421" d="M126.656,234.829c.058.087-.281.436-.766.766s-.97.514-.97.417.281-.436.766-.766S126.588,234.732,126.656,234.829Z" transform="translate(-99.089 -230.252)" fill="#263238"/>
        <path id="Trazado_145422" data-name="Trazado 145422" d="M129.439,238.639a2.836,2.836,0,0,1-1.2.737c-.708.3-1.319.465-1.367.359s.495-.436,1.2-.737S129.391,238.542,129.439,238.639Z" transform="translate(-99.148 -230.368)" fill="#263238"/>
        <path id="Trazado_145423" data-name="Trazado 145423" d="M130.552,242.807c0,.107-.533.271-1.222.359s-1.261.058-1.28-.058.533-.271,1.222-.359S130.532,242.69,130.552,242.807Z" transform="translate(-99.184 -230.492)" fill="#263238"/>
        <path id="Trazado_145424" data-name="Trazado 145424" d="M131.124,247.9c0,.107-.621-.048-1.3-.339s-1.183-.621-1.134-.727.621.058,1.3.349S131.172,247.789,131.124,247.9Z" transform="translate(-99.203 -230.616)" fill="#263238"/>
        <path id="Trazado_145425" data-name="Trazado 145425" d="M130.615,252.274a2.589,2.589,0,0,1-1.551-.582c-.766-.5-1.222-1.105-1.144-1.183s.64.368,1.377.834S130.654,252.158,130.615,252.274Z" transform="translate(-99.18 -230.729)" fill="#263238"/>
        <path id="Trazado_145426" data-name="Trazado 145426" d="M128.347,256.263c-.068.087-.659-.262-1.222-.863s-.863-1.222-.776-1.28.533.417,1.076.97S128.415,256.175,128.347,256.263Z" transform="translate(-99.132 -230.839)" fill="#263238"/>
        <path id="Trazado_145427" data-name="Trazado 145427" d="M106.578,256.8a4.429,4.429,0,0,1-1.377.97,3.646,3.646,0,0,1-1.571.582,4.579,4.579,0,0,1,1.377-.97C105.812,256.935,106.529,256.693,106.578,256.8Z" transform="translate(-98.442 -230.919)" fill="#263238"/>
        <path id="Trazado_145428" data-name="Trazado 145428" d="M104.615,253.179a2.738,2.738,0,0,1-1.105.727c-.65.3-1.231.456-1.28.349s.446-.427,1.105-.727S104.567,253.072,104.615,253.179Z" transform="translate(-98.4 -230.809)" fill="#263238"/>
        <path id="Trazado_145429" data-name="Trazado 145429" d="M103.143,250c0,.116-.6.291-1.367.4s-1.4.107-1.416,0,.591-.291,1.357-.4S103.123,249.861,103.143,250Z" transform="translate(-98.343 -230.711)" fill="#263238"/>
        <path id="Trazado_145430" data-name="Trazado 145430" d="M107.913,248.2c0,.107-.553.388-1.348.475s-1.435-.048-1.425-.155.63-.165,1.377-.252S107.913,248.092,107.913,248.2Z" transform="translate(-98.488 -230.657)" fill="#263238"/>
        <path id="Trazado_145431" data-name="Trazado 145431" d="M111.931,244.248c0,.107-.436.339-1.076.407s-1.144-.078-1.134-.194.5-.155,1.1-.223S111.931,244.131,111.931,244.248Z" transform="translate(-98.627 -230.537)" fill="#263238"/>
        <path id="Trazado_145432" data-name="Trazado 145432" d="M112.684,241.055c0,.107-.553,0-1.144-.184s-1.047-.456-.97-.562.553,0,1.144.175S112.722,240.978,112.684,241.055Z" transform="translate(-98.653 -230.418)" fill="#263238"/>
        <path id="Trazado_145433" data-name="Trazado 145433" d="M114.182,237.824c-.078.078-.436-.155-.679-.591s-.281-.853-.175-.882.3.291.524.679S114.259,237.746,114.182,237.824Z" transform="translate(-98.735 -230.299)" fill="#263238"/>
        <path id="Trazado_145434" data-name="Trazado 145434" d="M112.391,251c0,.107-.417.31-.97.446a3.471,3.471,0,0,1-.834.126l-.078-.242h.262c.019,0,0,.116-.165.2l-.078-.233a3.878,3.878,0,0,1,.8-.281C111.877,250.91,112.362,250.881,112.391,251Z" transform="translate(-98.651 -230.742)" fill="#263238"/>
        <path id="Trazado_145435" data-name="Trazado 145435" d="M113.186,256.619a2.915,2.915,0,0,1-1.261.708c-.737.281-1.367.446-1.416.339s.524-.427,1.261-.717S113.147,256.512,113.186,256.619Z" transform="translate(-98.651 -230.914)" fill="#263238"/>
        <path id="Trazado_145436" data-name="Trazado 145436" d="M108.723,254.118c0,.107-.339.33-.844.5s-.97.223-.97.116.339-.339.834-.5S108.684,254,108.723,254.118Z" transform="translate(-98.542 -230.837)" fill="#263238"/>
        <path id="Trazado_145437" data-name="Trazado 145437" d="M109.035,242.649c0,.107-.679,0-1.435-.223s-1.309-.63-1.261-.737.659.087,1.4.349S109.065,242.533,109.035,242.649Z" transform="translate(-98.525 -230.46)" fill="#263238"/>
        <path id="Trazado_145438" data-name="Trazado 145438" d="M119.941,241.439c.068.087-.3.446-.824.785s-.97.543-1.047.446.3-.446.824-.785S119.873,241.342,119.941,241.439Z" transform="translate(-98.881 -230.453)" fill="#263238"/>
        <path id="Trazado_145439" data-name="Trazado 145439" d="M120.523,247.078c0,.107-.359.281-.863.388s-.97.1-.97,0,.368-.291.863-.388S120.5,247,120.523,247.078Z" transform="translate(-98.9 -230.623)" fill="#263238"/>
        <path id="Trazado_145440" data-name="Trazado 145440" d="M121.2,253.4c0,.1-.611-.058-1.251-.359s-1.115-.621-1.076-.718.611.048,1.251.349S121.246,253.289,121.2,253.4Z" transform="translate(-98.905 -230.783)" fill="#263238"/>
        <path id="Trazado_145441" data-name="Trazado 145441" d="M119.778,259.55c-.087.078-.456-.223-.814-.659s-.582-.853-.495-.921.456.223.814.659S119.866,259.482,119.778,259.55Z" transform="translate(-98.893 -230.955)" fill="#263238"/>
        <path id="Trazado_145442" data-name="Trazado 145442" d="M119.476,237.279c.068.087-.175.388-.582.591s-.8.223-.824.116.271-.291.64-.475S119.408,237.192,119.476,237.279Z" transform="translate(-98.881 -230.326)" fill="#263238"/>
        <path id="Trazado_145443" data-name="Trazado 145443" d="M124.779,243c0,.107-.446.368-1.1.456s-1.183,0-1.183-.136.514-.184,1.125-.271S124.74,242.862,124.779,243Z" transform="translate(-99.016 -230.499)" fill="#263238"/>
        <path id="Trazado_145444" data-name="Trazado 145444" d="M123.716,237.859c0,.107-.427.446-1.105.659s-1.261.213-1.27.107.5-.291,1.144-.5S123.657,237.762,123.716,237.859Z" transform="translate(-98.98 -230.344)" fill="#263238"/>
        <path id="Trazado_145445" data-name="Trazado 145445" d="M125.891,250.87a3.142,3.142,0,0,1-1.794,0,3.1,3.1,0,0,1-1.677-.63,5.73,5.73,0,0,1,1.755.223,5.5,5.5,0,0,1,1.716.407Z" transform="translate(-99.013 -230.721)" fill="#263238"/>
        <path id="Trazado_145446" data-name="Trazado 145446" d="M123.933,258.243c-.068.087-.669-.262-1.261-.863s-.97-1.2-.863-1.27.572.4,1.154.97S124.03,258.156,123.933,258.243Z" transform="translate(-98.994 -230.899)" fill="#263238"/>
        <path id="Trazado_145447" data-name="Trazado 145447" d="M115.051,231.82a18.557,18.557,0,0,0-3.6,2.851,17.541,17.541,0,0,0-4.47,9.929,21.914,21.914,0,0,0,.272,6.08,46.729,46.729,0,0,0,1.134,4.848c.4,1.377.756,2.473.97,3.239a6.862,6.862,0,0,1,.349,1.193,7.328,7.328,0,0,1-.495-1.134c-.291-.756-.7-1.842-1.125-3.209a40.646,40.646,0,0,1-1.241-4.848,22.3,22.3,0,0,1-.3-6.2A17.279,17.279,0,0,1,111.23,234.5a12.692,12.692,0,0,1,2.7-2.094,7.337,7.337,0,0,1,.814-.436A1.27,1.27,0,0,1,115.051,231.82Z" transform="translate(-98.528 -230.161)" fill="#263238"/>
        <path id="Trazado_145448" data-name="Trazado 145448" d="M120.925,260.255a36.068,36.068,0,0,0,1.842-4.422,25.016,25.016,0,0,0,1.105-11.345,21.38,21.38,0,0,0-1.755-6.06,14.157,14.157,0,0,0-2.977-4.15,10.753,10.753,0,0,0-2.909-1.852c-.756-.32-1.212-.388-1.212-.427a1.474,1.474,0,0,1,.339,0,5.525,5.525,0,0,1,.97.252,10.016,10.016,0,0,1,3.054,1.774,14.079,14.079,0,0,1,3.142,4.218,21.06,21.06,0,0,1,1.813,6.157,24,24,0,0,1-1.241,11.5c-.233.708-.524,1.319-.747,1.871a13.417,13.417,0,0,1-.688,1.357A9.467,9.467,0,0,1,120.925,260.255Z" transform="translate(-98.788 -230.167)" fill="#263238"/>
        <path id="Trazado_145449" data-name="Trazado 145449" d="M392.362,402.58c-7.233,2.531-16.658.271-22.844-4.247s-10.666-10.976-14.544-17.541c-1.677-2.8-3.326-5.721-3.879-8.94s.252-6.855,2.744-8.959c3.879-3.268,9.842-1.61,14.254.9a49.151,49.151,0,0,1,24.241,38.785" transform="translate(-105.953 -234.087)" fill="#0f0140"/>
        <path id="Trazado_145450" data-name="Trazado 145450" d="M384.206,421.36c-4.334,5.731-11.791,8.281-18.966,8.61s-14.273-1.648-20.983-4.228c-2.434-.97-5.1-2.211-5.934-4.683a5.973,5.973,0,0,1,1.27-5.527,12.517,12.517,0,0,1,4.848-3.3,33.084,33.084,0,0,1,21.119-1.144c6.943,1.8,13.012,5.818,18.646,10.268" transform="translate(-105.564 -235.569)" fill="#0f0140"/>
        <path id="Trazado_145451" data-name="Trazado 145451" d="M393.226,370.649c-5.983.126-10.511-5.12-13.226-10.453a38.717,38.717,0,0,1-3.559-24.173c.543-3.054,1.7-6.351,4.441-7.815s6.39-.514,8.727,1.61,3.607,5.168,4.538,8.184c3.209,10.394,2.521,22.3-.97,32.647" transform="translate(-106.71 -233.068)" fill="#0f0140"/>
        <path id="Trazado_145452" data-name="Trazado 145452" d="M413.707,404.053c-10.2-17.366-11.9-38.6-5.876-57.819.97-3.113,2.822-6.681,6.08-6.884,3.617-.233,5.876,3.791,6.875,7.272,3.5,12.2,2.754,25.162,1.939,37.816-.475,7.806-3.151,14.477-9.056,19.606" transform="translate(-107.576 -233.427)" fill="#0f0140"/>
        <path id="Trazado_145453" data-name="Trazado 145453" d="M425,412.589a41.694,41.694,0,0,1,24.755-26.248c2.705-1.018,6.147-1.6,8.174.475s1.367,5.43.1,7.97c-2.056,4.1-5.391,7.389-8.727,10.55-3.025,2.909-6.167,5.818-9.987,7.437s-10.84,2.094-14.331-.184" transform="translate(-108.202 -234.826)" fill="#0f0140"/>
        <path id="Trazado_145454" data-name="Trazado 145454" d="M359.75,367.45l.175.155.553.427,2.143,1.6,1.551,1.144c.553.427,1.134.97,1.774,1.445,1.26,1.057,2.754,2.191,4.257,3.617l2.4,2.191c.834.766,1.629,1.619,2.5,2.482,1.755,1.687,3.452,3.655,5.284,5.692a112.748,112.748,0,0,1,18.636,30.155c.97,2.55,2.007,4.955,2.734,7.282.378,1.154.8,2.259,1.105,3.345s.591,2.124.873,3.122c.611,1.939.97,3.83,1.338,5.43.175.8.359,1.542.5,2.23s.223,1.328.33,1.939c.194,1.115.359,1.988.475,2.628a3.276,3.276,0,0,0,.126.679.969.969,0,0,0,.068.233,1.046,1.046,0,0,0,0-.233,6.411,6.411,0,0,0-.1-.688c-.087-.65-.223-1.532-.378-2.647l-.291-1.939c-.126-.7-.3-1.445-.465-2.25-.359-1.61-.679-3.462-1.27-5.459-.271-.97-.553-2.056-.853-3.142s-.708-2.211-1.076-3.374c-.708-2.337-1.707-4.751-2.7-7.311a121.208,121.208,0,0,0-8.125-15.9,119.418,119.418,0,0,0-10.6-14.38c-1.842-2.036-3.559-4-5.333-5.682-.873-.853-1.687-1.716-2.531-2.473l-2.434-2.172c-1.522-1.416-3.035-2.54-4.315-3.578-.65-.5-1.241-.97-1.8-1.416l-1.581-1.115-2.2-1.5-.582-.388Q359.769,367.44,359.75,367.45Z" transform="translate(-106.221 -234.281)" fill="#263238"/>
        <path id="Trazado_145455" data-name="Trazado 145455" d="M345.82,417.011a3.172,3.172,0,0,0,.7-.116c.456-.078,1.125-.252,1.939-.4a55.7,55.7,0,0,1,7.389-.9,53.9,53.9,0,0,1,43.75,18.2,56.73,56.73,0,0,1,4.567,5.876c.5.718.853,1.319,1.115,1.7a5.421,5.421,0,0,0,.407.582,2.968,2.968,0,0,0-.33-.63c-.233-.4-.553-.97-1.038-1.745a50.148,50.148,0,0,0-4.46-6,53.039,53.039,0,0,0-44.031-18.316,48.815,48.815,0,0,0-7.408,1.057c-.863.174-1.522.378-1.939.495A4.931,4.931,0,0,0,345.82,417.011Z" transform="translate(-105.798 -235.728)" fill="#263238"/>
        <path id="Trazado_145456" data-name="Trazado 145456" d="M384.67,335.32a1.3,1.3,0,0,0,0,.272c.048.2.1.456.165.785.165.708.388,1.716.669,2.986.591,2.589,1.484,6.332,2.608,10.957,2.25,9.241,5.517,21.962,8.921,36.061,1.687,7.059,3.219,13.8,4.538,19.945s2.395,11.7,3.219,16.387c.436,2.327.766,4.46,1.086,6.322s.562,3.462.756,4.78.359,2.3.475,3.025a3.622,3.622,0,0,0,.136.785.97.97,0,0,0,.058.262,1.421,1.421,0,0,0,0-.272c0-.2-.058-.465-.087-.8-.1-.727-.223-1.745-.388-3.035s-.378-2.909-.679-4.8-.591-3.995-1.018-6.332c-.776-4.693-1.842-10.259-3.113-16.416s-2.822-12.906-4.509-19.965c-3.4-14.108-6.72-26.82-9.056-36.041-1.154-4.586-2.094-8.3-2.754-10.918-.32-1.26-.582-2.25-.756-2.967-.087-.31-.155-.572-.213-.766A1.069,1.069,0,0,0,384.67,335.32Z" transform="translate(-106.978 -233.305)" fill="#263238"/>
        <path id="Trazado_145457" data-name="Trazado 145457" d="M408.83,437.023a.639.639,0,0,0,.058-.213l.145-.621c.126-.591.291-1.4.5-2.414.427-2.1.97-5.149,1.658-8.93,1.309-7.553,2.909-18.045,3.811-29.709.465-5.818.718-11.4.834-16.484s0-9.638-.116-13.468c-.048-1.939-.175-3.646-.262-5.168s-.184-2.831-.281-3.879-.175-1.852-.223-2.453a4.614,4.614,0,0,0-.078-.64.716.716,0,0,0,0-.213.7.7,0,0,0,0,.213c0,.175,0,.388,0,.65,0,.6.078,1.425.136,2.463s.145,2.376.2,3.879.155,3.248.184,5.158c.107,3.879.116,8.387,0,13.449s-.407,10.666-.863,16.484c-.97,11.636-2.453,22.137-3.675,29.69-.611,3.782-1.125,6.846-1.5,8.95-.175,1.028-.31,1.842-.417,2.434a3.442,3.442,0,0,1-.1.64A.515.515,0,0,0,408.83,437.023Z" transform="translate(-107.712 -233.837)" fill="#263238"/>
        <path id="Trazado_145458" data-name="Trazado 145458" d="M408.05,440.448a3.228,3.228,0,0,0,.262-.6l.679-1.745.475-1.27c.2-.446.417-.97.659-1.464s.475-1.086.747-1.687.6-1.2.97-1.842l1.008-2,1.241-2.133c.814-1.5,1.871-2.986,2.909-4.606a111.274,111.274,0,0,1,7.679-9.822,120.106,120.106,0,0,1,8.824-8.824c1.464-1.231,2.8-2.473,4.16-3.51l1.939-1.532,1.833-1.357c1.164-.873,2.25-1.61,3.209-2.25s1.774-1.2,2.473-1.629l1.581-.97a2.793,2.793,0,0,0,.533-.378,3.284,3.284,0,0,0-.582.3l-1.629.921c-.717.4-1.561.97-2.531,1.561s-2.075,1.338-3.248,2.2l-1.862,1.328-1.939,1.522c-1.367,1.028-2.725,2.259-4.208,3.491a116.872,116.872,0,0,0-8.882,8.833,105.454,105.454,0,0,0-7.689,9.89c-1.018,1.639-2.065,3.142-2.909,4.654L412.53,429.7l-.97,2.046c-.31.659-.65,1.27-.9,1.871l-.718,1.707-.621,1.493c-.155.465-.31.892-.446,1.28-.242.737-.436,1.328-.582,1.784a3.224,3.224,0,0,0-.242.572Z" transform="translate(-107.688 -235.052)" fill="#263238"/>
        <path id="Trazado_145459" data-name="Trazado 145459" d="M363.65,388.205c0,.078,1.241.078,3.229.184a57.508,57.508,0,0,1,15.2,2.909,18.835,18.835,0,0,0,3.064.97,3.381,3.381,0,0,0-.8-.388c-.5-.242-1.251-.553-2.191-.911a46.156,46.156,0,0,0-15.3-2.909c-.97,0-1.813,0-2.376.048a3.373,3.373,0,0,0-.834.1Z" transform="translate(-106.34 -234.907)" fill="#263238"/>
        <path id="Trazado_145460" data-name="Trazado 145460" d="M355.72,426.656a29.33,29.33,0,0,1,4.2-6.332,29.012,29.012,0,0,1,6-4.654,7.217,7.217,0,0,0-2.075.912,18.676,18.676,0,0,0-4.286,3.413,18.21,18.21,0,0,0-3.083,4.528,6.643,6.643,0,0,0-.756,2.133Z" transform="translate(-106.099 -235.745)" fill="#263238"/>
        <path id="Trazado_145461" data-name="Trazado 145461" d="M382.78,349.86c-.1.1,1.784,1.939,3.879,4.489s3.5,4.722,3.626,4.654a28.71,28.71,0,0,0-7.456-9.144Z" transform="translate(-106.921 -233.746)" fill="#263238"/>
        <path id="Trazado_145462" data-name="Trazado 145462" d="M389.087,338.88a18.347,18.347,0,0,0-.921,4.024,17.309,17.309,0,0,0-.456,4.111,18.346,18.346,0,0,0,.97-4.024,17.308,17.308,0,0,0,.407-4.111Z" transform="translate(-107.07 -233.413)" fill="#263238"/>
        <path id="Trazado_145463" data-name="Trazado 145463" d="M408.81,373.33a51.746,51.746,0,0,0,2.986,6.283,52.729,52.729,0,0,0,3.413,6.06,48.623,48.623,0,0,0-2.986-6.283A47.739,47.739,0,0,0,408.81,373.33Z" transform="translate(-107.711 -234.459)" fill="#263238"/>
        <path id="Trazado_145464" data-name="Trazado 145464" d="M420.385,361.63a27.886,27.886,0,0,0-2.531,4.548,28.69,28.69,0,0,0-2.1,4.761,56.794,56.794,0,0,0,4.635-9.308Z" transform="translate(-107.922 -234.104)" fill="#263238"/>
        <path id="Trazado_145465" data-name="Trazado 145465" d="M437.74,401.59c0,.145,2.056-.252,4.586-.427s4.586-.078,4.6-.223a18.6,18.6,0,0,0-9.182.65Z" transform="translate(-108.59 -235.289)" fill="#263238"/>
        <path id="Trazado_145466" data-name="Trazado 145466" d="M424.884,437,419.2,466.865a4.189,4.189,0,0,1-4.111,3.4H398.316a4.179,4.179,0,0,1-4.131-3.5L389.24,437Z" transform="translate(-107.117 -236.393)" fill="#263238"/>
        <path id="Trazado_145467" data-name="Trazado 145467" d="M423.022,446.686H390.947l-1.707-9.706h35.634Z" transform="translate(-107.117 -236.392)" fill="#455a64"/>
        <path id="Trazado_145468" data-name="Trazado 145468" d="M423.075,446.99l-.669,3.539H391.485L391,446.99Z" transform="translate(-107.17 -236.696)" fill="#fafafa"/>
      </g>
    </g>
    <g id="freepik--Clock--inject-8" transform="translate(57.545 72.811)">
      <circle id="Elipse_4776" data-name="Elipse 4776" cx="38.853" cy="38.853" r="38.853" transform="translate(0 54.947) rotate(-45)" fill="#0f0140"/>
      <circle id="Elipse_4777" data-name="Elipse 4777" cx="36.681" cy="36.681" r="36.681" transform="matrix(0.551, -0.835, 0.835, 0.551, 3.978, 65.152)" fill="#fafafa"/>
      <path id="Trazado_145469" data-name="Trazado 145469" d="M65.716,79.711v3.626c0,.465.087.97.136,1.542l.136,1.823a13.671,13.671,0,0,0,.349,2.027,34.984,34.984,0,0,0,3.413,9.977,36.672,36.672,0,0,0,8.6,10.937l1.522,1.3c.533.4,1.1.766,1.648,1.164a14.478,14.478,0,0,0,1.707,1.134l1.833,1.037.97.514.97.436,2.007.882c.679.271,1.4.465,2.1.708a18.1,18.1,0,0,0,2.172.65,34.549,34.549,0,0,0,4.567.834c.776.078,1.561.2,2.366.242h3.636l1.222-.107c.814-.087,1.648-.126,2.473-.242a39.755,39.755,0,0,0,9.822-2.909c.8-.359,1.561-.8,2.356-1.2.388-.213.8-.388,1.173-.64l1.115-.727a40.947,40.947,0,0,0,4.363-3.239,42.587,42.587,0,0,0,3.879-3.975l.9-1.067.814-1.144.8-1.164a8.932,8.932,0,0,0,.766-1.193l1.4-2.482,1.164-2.628a39.193,39.193,0,0,0,2.608-11.316,39.241,39.241,0,0,0-1.125-11.636c-.271-.97-.543-1.842-.8-2.754l-1.067-2.647a9.153,9.153,0,0,0-.6-1.29l-.65-1.251-.659-1.241-.756-1.173a41.851,41.851,0,0,0-3.287-4.451,39.756,39.756,0,0,0-3.879-3.782l-.97-.873c-.33-.291-.718-.524-1.076-.785-.727-.495-1.435-1.038-2.172-1.5a40.016,40.016,0,0,0-4.606-2.395,38.521,38.521,0,0,0-4.761-1.745c-.8-.213-1.619-.368-2.424-.553l-1.2-.271c-.4-.078-.8-.1-1.2-.155l-2.4-.281c-.8-.068-1.59,0-2.376-.068a33.2,33.2,0,0,0-4.7.32,18.9,18.9,0,0,0-2.24.349c-.737.155-1.474.252-2.182.436l-2.094.611-1.037.3-.97.4-1.939.776c-.65.252-1.241.621-1.842.911a18.706,18.706,0,0,0-1.784.97L82.238,51.8a36.468,36.468,0,0,0-10.007,9.7,34.6,34.6,0,0,0-4.693,9.444,18.646,18.646,0,0,0-.611,1.939c-.145.63-.281,1.222-.4,1.765s-.252,1.047-.339,1.513-.107.892-.155,1.27c-.1.747-.175,1.328-.233,1.736s-.087.582-.087.582v-.591c0-.4.1-.97.175-1.736,0-.388.087-.814.136-1.28s.2-.97.31-1.522.252-1.144.388-1.774a19.315,19.315,0,0,1,.582-1.939,34.994,34.994,0,0,1,4.654-9.531,36.613,36.613,0,0,1,10.016-9.948l1.668-1.086c.582-.33,1.193-.63,1.794-.97s1.2-.679,1.862-.97l1.939-.8.97-.4,1.1-.252,2.123-.621c.718-.194,1.464-.3,2.2-.446a17.569,17.569,0,0,1,2.269-.368,33.938,33.938,0,0,1,4.683-.242c.8,0,1.6,0,2.4.058l2.434.281c.407.048.814.078,1.222.155l1.222.262c.8.194,1.639.339,2.453.562a39.386,39.386,0,0,1,4.848,1.755,38.89,38.89,0,0,1,4.674,2.424c.747.465,1.464.97,2.2,1.513.359.271.756.5,1.1.8l1.028.882a40.781,40.781,0,0,1,3.956,3.82,41.694,41.694,0,0,1,3.336,4.509l.776,1.193.659,1.261.659,1.27a8.832,8.832,0,0,1,.611,1.3L137.235,70c.271.97.553,1.852.824,2.793a39.319,39.319,0,0,1,1.134,11.752,39.066,39.066,0,0,1-2.666,11.509c-.388.892-.785,1.774-1.173,2.657s-.97,1.687-1.425,2.521a8.852,8.852,0,0,1-.776,1.212l-.814,1.173-.824,1.164-.97,1.076a42.508,42.508,0,0,1-3.879,4.024,40.725,40.725,0,0,1-4.421,3.277l-1.134.737c-.378.252-.8.427-1.183.64-.8.407-1.58.853-2.395,1.222a40.919,40.919,0,0,1-9.948,2.909c-.834.107-1.677.155-2.5.233l-1.241.107h-3.685c-.8,0-1.6-.175-2.395-.252a34.026,34.026,0,0,1-4.615-.853,20.443,20.443,0,0,1-2.191-.659c-.718-.252-1.445-.446-2.133-.727l-2.017-.9-.97-.446-.97-.524-1.852-1.047c-.611-.33-1.154-.785-1.716-1.164s-1.125-.776-1.658-1.183l-1.513-1.29a36.633,36.633,0,0,1-8.6-11.083,34.751,34.751,0,0,1-3.365-10.065c-.107-.727-.3-1.4-.33-2.046s-.1-1.241-.136-1.8-.107-1.076-.116-1.551,0-.9,0-1.29a17.094,17.094,0,0,1,.048-1.745A5.741,5.741,0,0,1,65.716,79.711Z" transform="translate(-47.518 -27.371)" fill="#263238"/>
      <path id="Trazado_145470" data-name="Trazado 145470" d="M103.362,51.65a9.978,9.978,0,0,1,.242,3.083,9.929,9.929,0,0,1-.242,3.083,10.491,10.491,0,0,1-.233-3.083,10.549,10.549,0,0,1,.233-3.083Z" transform="translate(-48.658 -27.565)" fill="#263238"/>
      <path id="Trazado_145471" data-name="Trazado 145471" d="M120.477,56.76a10.423,10.423,0,0,1-1.939,2.317,10.424,10.424,0,0,1-2.317,1.939,9.7,9.7,0,0,1,1.939-2.317,9.7,9.7,0,0,1,2.317-1.939Z" transform="translate(-49.056 -27.721)" fill="#263238"/>
      <path id="Trazado_145472" data-name="Trazado 145472" d="M130.528,67.77A13.333,13.333,0,0,1,128,69.457,12.925,12.925,0,0,1,125.34,70.9a8.164,8.164,0,0,1,2.414-1.871,7.932,7.932,0,0,1,2.773-1.261Z" transform="translate(-49.333 -28.055)" fill="#263238"/>
      <path id="Trazado_145473" data-name="Trazado 145473" d="M136.327,84.1a19.334,19.334,0,0,1-4.2.233,19.334,19.334,0,0,1-4.2-.233,18.277,18.277,0,0,1,4.2-.242A18.277,18.277,0,0,1,136.327,84.1Z" transform="translate(-49.412 -28.543)" fill="#263238"/>
      <path id="Trazado_145474" data-name="Trazado 145474" d="M76.252,83.522a16.309,16.309,0,0,1-3.966.242,16.309,16.309,0,0,1-3.966-.242,17.258,17.258,0,0,1,3.966-.233A17.259,17.259,0,0,1,76.252,83.522Z" transform="translate(-47.601 -28.525)" fill="#263238"/>
      <path id="Trazado_145475" data-name="Trazado 145475" d="M80.553,95.69a16.765,16.765,0,0,1-3,2.725,17.114,17.114,0,0,1-3.3,2.347,17.841,17.841,0,0,1,3-2.715,17.851,17.851,0,0,1,3.3-2.356Z" transform="translate(-47.782 -28.903)" fill="#263238"/>
      <path id="Trazado_145476" data-name="Trazado 145476" d="M91.108,105.1a28.227,28.227,0,0,1-2.046,3.539A27.555,27.555,0,0,1,86.9,112.1a13.139,13.139,0,0,1,1.755-3.7,13.274,13.274,0,0,1,2.453-3.3Z" transform="translate(-48.166 -29.189)" fill="#263238"/>
      <path id="Trazado_145477" data-name="Trazado 145477" d="M103.362,116.977a19.392,19.392,0,0,1-.233-4.208,19.334,19.334,0,0,1,.233-4.2,18.278,18.278,0,0,1,.242,4.2,18.326,18.326,0,0,1-.242,4.208Z" transform="translate(-48.658 -29.294)" fill="#263238"/>
      <path id="Trazado_145478" data-name="Trazado 145478" d="M121.853,111.288a18.181,18.181,0,0,1-6.283-5.478,38.9,38.9,0,0,1,3.132,2.744,37.962,37.962,0,0,1,3.151,2.734Z" transform="translate(-49.036 -29.21)" fill="#263238"/>
      <path id="Trazado_145479" data-name="Trazado 145479" d="M130.658,101.837a14.186,14.186,0,0,1-2.734-2.424,15.223,15.223,0,0,1-2.453-2.783,14.186,14.186,0,0,1,2.783,2.443A14.873,14.873,0,0,1,130.658,101.837Z" transform="translate(-49.337 -28.932)" fill="#263238"/>
      <path id="Trazado_145480" data-name="Trazado 145480" d="M80.217,71.737a11.636,11.636,0,0,1-2.463-2.123A11.131,11.131,0,0,1,75.64,67.16a11.034,11.034,0,0,1,2.453,2.123A11.432,11.432,0,0,1,80.217,71.737Z" transform="translate(-47.824 -28.036)" fill="#263238"/>
      <path id="Trazado_145481" data-name="Trazado 145481" d="M91.029,60.34a10.666,10.666,0,0,1-2.4-2.065,11.131,11.131,0,0,1-2.085-2.4,10.666,10.666,0,0,1,2.385,2.065,10.831,10.831,0,0,1,2.1,2.4Z" transform="translate(-48.155 -27.694)" fill="#263238"/>
      <path id="Trazado_145482" data-name="Trazado 145482" d="M103.074,63.36a7.166,7.166,0,0,1,.1,1.319c0,.97.048,2.143.078,3.578,0,3.025.078,7.2.078,11.82v3l-.359-.184c-3.568-1.8-6.71-3.423-8.95-4.6L91.39,76.886a5.119,5.119,0,0,1-.97-.562,4.965,4.965,0,0,1,.97.4L94.076,78c2.279,1.1,5.449,2.647,9.027,4.441l-.359.223V80.076c0-4.615,0-8.795.078-11.82,0-1.435.058-2.637.078-3.578a6.536,6.536,0,0,1,.175-1.319Z" transform="translate(-48.273 -27.921)" fill="#263238"/>
    </g>
    <g id="freepik--Device--inject-8" transform="translate(153.562 237.481)">
      <path id="Trazado_145483" data-name="Trazado 145483" d="M157.656,246.321l17.783,39.27a5.818,5.818,0,0,0,4.751,2.967l81.914-.107h0a3.481,3.481,0,0,0-3.374-3.064l-31.086-.679L211.7,246.525A3.277,3.277,0,0,0,208.7,244.5l-49.606-.378a1.551,1.551,0,0,0-1.435,2.2Z" transform="translate(-157.495 -244.081)" fill="#e0e0e0"/>
      <path id="Trazado_145484" data-name="Trazado 145484" d="M157.655,246.32a1.135,1.135,0,0,1-.145-.456,1.571,1.571,0,0,1,.436-1.319,1.551,1.551,0,0,1,.97-.465h4.431l20.42.078,14.341.078,8.067.048h2.1a3.927,3.927,0,0,1,2.162.465,3.539,3.539,0,0,1,1.493,1.7l.844,2.027c4.567,10.928,9.7,23.087,15.087,36.128l-.213-.145,16.8.359,8.727.194,4.441.1h1.125a3.743,3.743,0,0,1,3.016,1.716,3.878,3.878,0,0,1,.572,1.571v.281h-82.38a4.847,4.847,0,0,1-1.241-.233,5.818,5.818,0,0,1-3.6-3.1q-.97-2.123-1.862-4.14c-4.848-10.792-8.727-19.509-11.471-25.559-1.328-3.006-2.376-5.343-3.083-6.952-.349-.785-.611-1.387-.8-1.813s-.252-.621-.252-.621.107.2.3.6l.834,1.794,3.18,6.913,11.636,25.492,1.881,4.131a5.4,5.4,0,0,0,3.384,2.909,6.728,6.728,0,0,0,2.356.223h7.631l22.234-.058,51.012-.087-.252.281a3.424,3.424,0,0,0-.485-1.358,3.2,3.2,0,0,0-1.6-1.28,3.075,3.075,0,0,0-1.018-.2h-1.115l-4.441-.107-8.727-.194-16.794-.368h-.165l-.058-.145c-5.42-13.042-10.482-25.21-15.029-36.148l-.844-2.036a3.141,3.141,0,0,0-1.309-1.5,3.578,3.578,0,0,0-1.939-.417h-2.1l-8.058-.068-14.341-.145-20.42-.223-3.161-.048h-1.251a1.513,1.513,0,0,0-.9.417,1.551,1.551,0,0,0-.456,1.251A2.62,2.62,0,0,0,157.655,246.32Z" transform="translate(-157.495 -244.08)" fill="#263238"/>
      <path id="Trazado_145485" data-name="Trazado 145485" d="M227.67,288.908a1.783,1.783,0,0,1-.233-.427c-.165-.339-.359-.766-.591-1.27l-2.085-4.7c-1.726-3.985-4.082-9.5-6.613-15.63s-4.761-11.694-6.312-15.756c-.766-2.027-1.387-3.675-1.784-4.848-.175-.533-.32-.97-.446-1.328a1.658,1.658,0,0,1-.126-.475,1.677,1.677,0,0,1,.223.436c.145.349.32.776.543,1.29l1.939,4.771c1.677,4.082,3.937,9.6,6.448,15.689s4.79,11.636,6.467,15.689c.8,1.939,1.445,3.568,1.939,4.761l.5,1.309a1.425,1.425,0,0,1,.126.495Z" transform="translate(-159.073 -244.092)" fill="#455a64"/>
      <path id="Trazado_145486" data-name="Trazado 145486" d="M194.951,265.92a2.531,2.531,0,1,1-.738-1.8,2.54,2.54,0,0,1,.738,1.8Z" transform="translate(-158.478 -244.666)" fill="#fff"/>
    </g>
    <g id="freepik--speech-bubble--inject-8" transform="translate(241.96 139.519)">
      <path id="Trazado_145487" data-name="Trazado 145487" d="M312.231,201.5l-6.506-11.471a30.8,30.8,0,1,0-7.369,8.184h0Z" transform="translate(-248.664 -143.049)" fill="#fafafa"/>
      <path id="Trazado_145488" data-name="Trazado 145488" d="M312.229,201.5l-13.914-3.151a.107.107,0,0,1-.087-.145.077.077,0,0,1,0-.048h0l.175.175a30.718,30.718,0,0,1-14.738,6.225,27.654,27.654,0,0,1-4.848.252c-.834,0-1.687-.068-2.55-.145l-2.6-.388a31.028,31.028,0,0,1-19.218-12.324,30.621,30.621,0,0,1-5.2-11.888,31.261,31.261,0,0,1,.359-13.681,30.291,30.291,0,0,1,6.593-12.605,30.921,30.921,0,0,1,11.849-8.465,31.377,31.377,0,0,1,13.788-2.114,30.388,30.388,0,0,1,12.663,3.685,31.174,31.174,0,0,1,14.544,17.967,33.1,33.1,0,0,1,1.338,10,30.514,30.514,0,0,1-4.606,15.233v-.116l6.409,11.529-6.613-11.413a.116.116,0,0,1,0-.126,30.553,30.553,0,0,0,4.46-15.117,33.192,33.192,0,0,0-1.358-9.871,30.893,30.893,0,0,0-14.438-17.676,29.962,29.962,0,0,0-12.469-3.665,30.95,30.95,0,0,0-13.575,2.094,30.378,30.378,0,0,0-11.635,8.329,29.883,29.883,0,0,0-6.487,12.44,30.883,30.883,0,0,0-.368,13.468,30.272,30.272,0,0,0,5.1,11.713,30.64,30.64,0,0,0,18.918,12.208l2.56.4c.853.068,1.7.1,2.521.145a27.985,27.985,0,0,0,4.848-.223,30.5,30.5,0,0,0,14.632-6.08.12.12,0,1,1,.184.155h0l-.078-.2Z" transform="translate(-248.662 -143.051)" fill="#263238"/>
      <path id="Trazado_145489" data-name="Trazado 145489" d="M273.036,176.127v2.909h-1.493v-2.725c0-.834-.368-1.212-.97-1.212s-1.134.427-1.134,1.348v2.589h-1.551v-2.725c0-.834-.349-1.212-.97-1.212s-1.125.427-1.125,1.348v2.589H264.3v-5.158h1.425v.591a2.094,2.094,0,0,1,1.619-.669,1.939,1.939,0,0,1,1.7.844,2.347,2.347,0,0,1,1.862-.844,2,2,0,0,1,2.133,2.327Z" transform="translate(-249.137 -143.983)" fill="#263238"/>
      <path id="Trazado_145490" data-name="Trazado 145490" d="M283.417,176.127v2.909h-1.493v-2.725c0-.834-.378-1.212-.97-1.212s-1.144.427-1.144,1.348v2.589h-1.493v-2.725c0-.834-.359-1.212-.97-1.212s-1.134.427-1.134,1.348v2.589H274.7v-5.158h1.435v.591a2.085,2.085,0,0,1,1.619-.669,1.939,1.939,0,0,1,1.7.844,2.308,2.308,0,0,1,1.852-.844,2,2,0,0,1,2.114,2.327Z" transform="translate(-249.453 -143.983)" fill="#263238"/>
      <path id="Trazado_145491" data-name="Trazado 145491" d="M293.8,176.127v2.909h-1.5v-2.725c0-.834-.368-1.212-.97-1.212s-1.144.427-1.144,1.348v2.589h-1.493v-2.725c0-.834-.359-1.212-.97-1.212s-1.134.427-1.134,1.348v2.589H285.09v-5.158h1.425v.591a2.114,2.114,0,0,1,1.619-.669,1.939,1.939,0,0,1,1.7.844,2.347,2.347,0,0,1,1.862-.844,2,2,0,0,1,2.1,2.327Z" transform="translate(-249.769 -143.983)" fill="#263238"/>
      <path id="Trazado_145492" data-name="Trazado 145492" d="M295.079,178.328a.97.97,0,1,1,.369,1.062A.97.97,0,0,1,295.079,178.328Z" transform="translate(-250.071 -144.1)" fill="#263238"/>
      <path id="Trazado_145493" data-name="Trazado 145493" d="M297.669,178.328a.97.97,0,1,1,.369,1.062A.97.97,0,0,1,297.669,178.328Z" transform="translate(-250.149 -144.1)" fill="#263238"/>
      <path id="Trazado_145494" data-name="Trazado 145494" d="M300.259,178.328a.97.97,0,1,1,.369,1.062.97.97,0,0,1-.369-1.062Z" transform="translate(-250.228 -144.1)" fill="#263238"/>
    </g>
    <g id="freepik--Floor--inject-8" transform="translate(28 456.685)">
      <path id="Trazado_145495" data-name="Trazado 145495" d="M457.546,470.4c0,.145-96.168.252-214.763.252S28,470.548,28,470.4s96.148-.252,214.782-.252S457.546,470.266,457.546,470.4Z" transform="translate(-28 -470.15)" fill="#263238"/>
    </g>
  </g>
</svg>
