<svg xmlns="http://www.w3.org/2000/svg" xmlns:xlink="http://www.w3.org/1999/xlink" width="397.74" height="387.502" viewBox="0 0 397.74 387.502">
  <defs>
    <clipPath id="clip-path">
      <circle id="Elipse_4695" data-name="Elipse 4695" cx="69.72" cy="69.72" r="69.72" fill="none"/>
    </clipPath>
  </defs>
  <g id="img1" transform="translate(-80.92 -69.981)">
    <g id="freepik--Characters--inject-17" transform="translate(80.92 69.98)">
      <path id="Trazado_144567" data-name="Trazado 144567" d="M373.3,364.811a12.717,12.717,0,0,1-5.469-1.272L148.143,258.833a12.718,12.718,0,0,1,0-22.892L367.833,131.208a12.718,12.718,0,0,1,11,22.892l-195.665,93.26,195.665,93.248a12.718,12.718,0,0,1-5.481,24.164Z" transform="translate(-64.599 -53.604)" fill="#0f0140"/>
      <path id="Trazado_144568" data-name="Trazado 144568" d="M376.626,193.938l-.916-.89a92.027,92.027,0,0,0,10.174-12.438l1.056.712a93.832,93.832,0,0,1-10.314,12.616Z" transform="translate(-0.798 -39.912)" fill="#7e57c2"/>
      <circle id="Elipse_4693" data-name="Elipse 4693" cx="89" cy="89" r="89" transform="translate(219.74 0.001)" fill="#0f0140"/>
      <circle id="Elipse_4694" data-name="Elipse 4694" cx="69.72" cy="69.72" r="69.72" transform="translate(238.995 19.306)" fill="#fff"/>
      <g id="Grupo_88461" data-name="Grupo 88461" transform="translate(238.995 19.306)" clip-path="url(#clip-path)">
        <path id="Trazado_144569" data-name="Trazado 144569" d="M333.062,191.486s25.016,5.214,38.624,3.1,12.031-20.349,1.272-29.467-8.267-6.995-5.723-16.533-3.179-17.169-13.99-17.589-.356-13.99-11.446-29.149-30.854-3.714-32.278,3.078c-6.206.2-12.718,10.314-8.076,19.458s-1.272,11.535-4.909,22.536,10.9,13.112,7.631,20.527S300.631,199.46,333.062,191.486Z" transform="translate(-261.473 -82.659)" fill="#263238"/>
        <path id="Trazado_144570" data-name="Trazado 144570" d="M315.6,156.079c-.229,3.815-.674,7.389-1.183,11.052s-1.2,7.236-1.984,10.836-1.653,7.186-2.785,10.721a97.921,97.921,0,0,1-3.815,10.543l-1.17,2.544c-.165.394-.471.967-.725,1.45s-.547.941-.827,1.412a40.5,40.5,0,0,1-3.612,4.833,83.77,83.77,0,0,1-7.936,7.961,147.192,147.192,0,0,1-17.385,13.163l-3.51-4.451c2.48-2.4,5.011-4.9,7.465-7.376s4.871-5,7.16-7.631a96.092,96.092,0,0,0,6.359-7.783,35.291,35.291,0,0,0,2.544-3.9c.153-.318.331-.636.458-.928s.242-.521.407-.954l.878-2.327a130.652,130.652,0,0,0,5.265-19.6c.674-3.358,1.145-6.766,1.653-10.174s.878-6.893,1.183-10.174Z" transform="translate(-268.343 -66.099)" fill="#ffb573"/>
        <path id="Trazado_144571" data-name="Trazado 144571" d="M301.5,145.168c-4.693,1.2-7.974,20.514-7.974,20.514l12.934,8.737s12.4-19.484,8.788-24.647C311.5,144.443,308.359,143.413,301.5,145.168Z" transform="translate(-262.129 -69.064)" fill="#7e57c2"/>
        <path id="Trazado_144572" data-name="Trazado 144572" d="M301.5,145.168c-4.693,1.2-7.974,20.514-7.974,20.514l12.934,8.737s12.4-19.484,8.788-24.647C311.5,144.443,308.359,143.413,301.5,145.168Z" transform="translate(-262.129 -69.064)" fill="#fff" opacity="0.2"/>
        <path id="Trazado_144573" data-name="Trazado 144573" d="M300.912,148.39,297.3,167.861l7.275,4.922Z" transform="translate(-261.105 -67.975)" opacity="0.2"/>
        <path id="Trazado_144574" data-name="Trazado 144574" d="M275.106,209.65l-12.9.928,7.707,8.648s7.122-1.628,8.368-6.194Z" transform="translate(-270.642 -51.325)" fill="#ffb573"/>
        <path id="Trazado_144575" data-name="Trazado 144575" d="M256.6,214.958l5.291,8.139,9.538-4.07-7.694-8.648Z" transform="translate(-272.167 -51.126)" fill="#ffb573"/>
        <path id="Trazado_144576" data-name="Trazado 144576" d="M300.089,145.694s-5.418,1.908,5.443,68.74H351.8c-.776-18.835-.8-30.434,8.19-69.071a136.577,136.577,0,0,0-19.636-2.544,148.34,148.34,0,0,0-21.01,0C310.327,143.6,300.089,145.694,300.089,145.694Z" transform="translate(-260.714 -69.59)" fill="#7e57c2"/>
        <path id="Trazado_144577" data-name="Trazado 144577" d="M300.089,145.694s-5.418,1.908,5.443,68.74H351.8c-.776-18.835-.8-30.434,8.19-69.071a136.577,136.577,0,0,0-19.636-2.544,148.34,148.34,0,0,0-21.01,0C310.327,143.6,300.089,145.694,300.089,145.694Z" transform="translate(-260.714 -69.59)" fill="#fff" opacity="0.2"/>
        <path id="Trazado_144578" data-name="Trazado 144578" d="M334.266,124.1c-1.272,6.766-2.645,19.153,2.086,23.655,0,0-1.857,6.855-14.409,6.855-13.812,0-6.6-6.855-6.6-6.855,7.542-1.793,7.338-7.389,6.028-12.642Z" transform="translate(-256.712 -74.576)" fill="#ffb573"/>
        <path id="Trazado_144579" data-name="Trazado 144579" d="M336.454,142.792a144.471,144.471,0,0,0-21,0l-1.374.127c-2.823,3.294.649,7.465,3.586,10.429,0,0,16.762-2.544,21.557-10.378C338.311,142.893,337.383,142.83,336.454,142.792Z" transform="translate(-256.827 -69.6)" fill="#ffb573"/>
        <path id="Trazado_144580" data-name="Trazado 144580" d="M327.321,127.64l-7.631,6.512a22.655,22.655,0,0,1,.649,3.726c3.472,0,6.5-2.429,7.72-6.435C328.491,130.006,327.562,128.339,327.321,127.64Z" transform="translate(-255.019 -73.614)" opacity="0.2"/>
        <path id="Trazado_144581" data-name="Trazado 144581" d="M336.684,112.636c2.391,11.052,3.65,15.668-.267,22.791-5.888,10.708-19.98,11.23-25.627,1.119-5.087-9.093-8.139-25.639,1.272-32.952a15.414,15.414,0,0,1,24.622,9.042Z" transform="translate(-258.749 -81.044)" fill="#ffb573"/>
        <path id="Trazado_144582" data-name="Trazado 144582" d="M317.6,116.345c.254.89,0,1.742-.585,1.908s-1.272-.432-1.5-1.272,0-1.73.6-1.895S317.426,115.468,317.6,116.345Z" transform="translate(-256.177 -77.034)" fill="#263238"/>
        <path id="Trazado_144583" data-name="Trazado 144583" d="M309.744,118.568c.254.878,0,1.73-.585,1.895s-1.272-.42-1.5-1.272,0-1.73.6-1.895S309.5,117.678,309.744,118.568Z" transform="translate(-258.313 -76.434)" fill="#263238"/>
        <path id="Trazado_144584" data-name="Trazado 144584" d="M308.812,117.24h-2.3S308.074,118.588,308.812,117.24Z" transform="translate(-258.602 -76.441)" fill="#263238"/>
        <path id="Trazado_144585" data-name="Trazado 144585" d="M312.394,118.86a24.646,24.646,0,0,1-1.564,6.524,3.943,3.943,0,0,0,3.319-.293Z" transform="translate(-257.427 -76.001)" fill="#ed893e"/>
        <path id="Trazado_144586" data-name="Trazado 144586" d="M318.346,126.4a8.79,8.79,0,0,1-1.272.458.272.272,0,1,1-.153-.521,7.287,7.287,0,0,0,4.947-4.35.267.267,0,1,1,.509.165A7.631,7.631,0,0,1,318.346,126.4Z" transform="translate(-255.825 -75.199)" fill="#263238"/>
        <path id="Trazado_144587" data-name="Trazado 144587" d="M308.493,105.549c-2.416,2.76,23.884,16.915,29.251,14.371s.534-16.711-6.245-19.776S315.806,97.181,308.493,105.549Z" transform="translate(-258.105 -81.589)" fill="#263238"/>
        <path id="Trazado_144588" data-name="Trazado 144588" d="M336.319,118.056a8.292,8.292,0,0,1-2.887,5.609c-2.226,1.857-4.528.14-4.9-2.544-.331-2.455.42-6.359,3.129-7.173a3.714,3.714,0,0,1,4.655,4.108Z" transform="translate(-252.635 -77.371)" fill="#ffb573"/>
        <path id="Trazado_144589" data-name="Trazado 144589" d="M321.169,114.145a.547.547,0,0,1-.623-.114c-1.691-1.844-4.884-1.45-4.909-1.45a.547.547,0,0,1-.636-.445.534.534,0,0,1,.471-.6c.153,0,3.815-.458,5.838,1.781a.547.547,0,0,1,0,.763.433.433,0,0,1-.14.064Z" transform="translate(-256.295 -78.001)" fill="#263238"/>
        <path id="Trazado_144590" data-name="Trazado 144590" d="M306.063,115.994a.572.572,0,0,1-.534,0,.534.534,0,0,1-.127-.75,5.291,5.291,0,0,1,4.286-2.4.534.534,0,1,1-.025,1.068,4.3,4.3,0,0,0-3.383,1.946A.5.5,0,0,1,306.063,115.994Z" transform="translate(-258.93 -77.637)" fill="#263238"/>
        <path id="Trazado_144591" data-name="Trazado 144591" d="M353.113,154.31a178.275,178.275,0,0,1,6.855,19.954,114.738,114.738,0,0,1,4.121,21.1c.076.928.1,1.87.153,2.811v2.48l-.089.865a33.167,33.167,0,0,1-1.272,5.85,93.224,93.224,0,0,1-3.815,10.06,176.51,176.51,0,0,1-9.64,18.543l-5.214-2.467c2.226-6.359,4.464-12.871,6.461-19.242.979-3.18,1.908-6.359,2.544-9.449a26.584,26.584,0,0,0,.623-4.21V199.4l-.064-.572c-.089-.776-.153-1.526-.267-2.315a131.859,131.859,0,0,0-4.54-19c-1.959-6.359-4.21-12.718-6.537-18.835Z" transform="translate(-248.839 -66.366)" fill="#ffb573"/>
        <path id="Trazado_144592" data-name="Trazado 144592" d="M349.624,144.795c4.642,1.4,10.174,17.36,10.174,17.36l-17.945,12.858s-6.562-13.316-4.617-19.306C339.272,149.462,344.334,143.18,349.624,144.795Z" transform="translate(-250.348 -69.022)" fill="#7e57c2"/>
        <path id="Trazado_144593" data-name="Trazado 144593" d="M349.624,144.795c4.642,1.4,10.174,17.36,10.174,17.36l-17.945,12.858s-6.562-13.316-4.617-19.306C339.272,149.462,344.334,143.18,349.624,144.795Z" transform="translate(-250.348 -69.022)" fill="#fff" opacity="0.2"/>
        <path id="Trazado_144594" data-name="Trazado 144594" d="M316.672,115h-2.3S315.934,116.374,316.672,115Z" transform="translate(-256.465 -77.05)" fill="#263238"/>
        <path id="Trazado_144595" data-name="Trazado 144595" d="M351.342,196.984l1.183,4.146c.165.318-.216.649-.75.649H304.158c-.407,0-.763-.2-.789-.471l-.42-4.133c0-.293.343-.534.8-.534h46.84a.839.839,0,0,1,.75.343Z" transform="translate(-259.569 -54.861)" fill="#263238"/>
        <path id="Trazado_144596" data-name="Trazado 144596" d="M336.278,202.272h1.272c.254,0,.445-.127.42-.28l-.585-5.38c0-.165-.242-.293-.483-.293H335.63c-.242,0-.432.127-.42.293l.585,5.38C335.808,202.183,336.037,202.272,336.278,202.272Z" transform="translate(-250.801 -54.948)" fill="#7e57c2"/>
        <path id="Trazado_144597" data-name="Trazado 144597" d="M306.908,202.272h1.272c.254,0,.445-.127.42-.28l-.585-5.38c0-.165-.229-.293-.483-.293H306.26c-.242,0-.432.127-.42.293l.585,5.38C306.438,202.183,306.654,202.272,306.908,202.272Z" transform="translate(-258.784 -54.948)" fill="#7e57c2"/>
        <path id="Trazado_144598" data-name="Trazado 144598" d="M321.588,202.272h1.272c.254,0,.445-.127.42-.28l-.585-5.38c0-.165-.229-.293-.483-.293H320.94c-.242,0-.432.127-.42.293l.585,5.38C321.131,202.183,321.347,202.272,321.588,202.272Z" transform="translate(-254.794 -54.948)" fill="#7e57c2"/>
        <path id="Trazado_144599" data-name="Trazado 144599" d="M345.823,215.837l-8.9,8.5,11.51,1.272s4.2-5.99,2.06-10.174Z" transform="translate(-250.336 -49.754)" fill="#ffb573"/>
        <path id="Trazado_144600" data-name="Trazado 144600" d="M335.84,231.9l9.7.521,3.192-8.75-11.51-1.246Z" transform="translate(-250.63 -47.851)" fill="#ffb573"/>
      </g>
      <path id="Trazado_144601" data-name="Trazado 144601" d="M101.875,172.493l-.865-.941a94.024,94.024,0,0,1,21.01-14.7l.585,1.132A92.548,92.548,0,0,0,101.875,172.493Z" transform="translate(-75.46 -46.369)" fill="#7e57c2"/>
      <path id="Trazado_144602" data-name="Trazado 144602" d="M94.212,178.842l-.992-.789c1.564-1.984,3.23-3.93,4.96-5.774l.928.865C97.43,174.963,95.789,176.884,94.212,178.842Z" transform="translate(-77.577 -42.176)" fill="#7e57c2"/>
      <circle id="Elipse_4696" data-name="Elipse 4696" cx="89.025" cy="89.025" r="89.025" transform="translate(0 104.732)" fill="#0f0140"/>
      <circle id="Elipse_4697" data-name="Elipse 4697" cx="69.72" cy="69.72" r="69.72" transform="translate(19.306 124.038)" fill="#fff"/>
      <g id="Grupo_88462" data-name="Grupo 88462" transform="translate(19.306 124.038)" clip-path="url(#clip-path)">
        <path id="Trazado_144603" data-name="Trazado 144603" d="M178.657,237.19c3.281,7.631,6.677,15.262,10.1,22.892q2.544,5.71,5.227,11.319t5.469,11.039c.954,1.768,1.882,3.6,2.887,5.278l.75,1.272.369.636a.6.6,0,0,0-.14-.127c-.165-.1,0,.089.331.318a12.424,12.424,0,0,0,4.006,1.348,46.639,46.639,0,0,0,5.481.7c3.815.267,7.923.267,12.006.14l6.168-.254,6.143-.407,1.59,7.4a106,106,0,0,1-25.945,5.189,48.106,48.106,0,0,1-7.147-.064,25.879,25.879,0,0,1-8.178-1.933,14.269,14.269,0,0,1-4.757-3.37,12.016,12.016,0,0,1-1.106-1.386l-.471-.7-.928-1.412c-1.272-1.882-2.378-3.815-3.536-5.647-4.426-7.554-8.356-15.185-12.057-22.892s-7.135-15.478-10.378-23.465Z" transform="translate(-77.499 -148.572)" fill="#7f3e3b"/>
        <path id="Trazado_144604" data-name="Trazado 144604" d="M161.506,237.9c-3.09,9.017,15.045,35.61,15.045,35.61l17.385-9.627A203.877,203.877,0,0,0,183.5,239.716C177.365,228.169,164.889,228,161.506,237.9Z" transform="translate(-78.42 -150.322)" fill="#7e57c2"/>
        <path id="Trazado_144605" data-name="Trazado 144605" d="M161.506,237.9c-3.09,9.017,15.045,35.61,15.045,35.61l17.385-9.627A203.877,203.877,0,0,0,183.5,239.716C177.365,228.169,164.889,228,161.506,237.9Z" transform="translate(-78.42 -150.322)" opacity="0.5"/>
        <path id="Trazado_144606" data-name="Trazado 144606" d="M161.239,237.424c3.892-1.87,8.368-.305,13.087,7.135s8.737,19.9,9.17,23.465l-6.944,3.815S159.8,247.331,161.239,237.424Z" transform="translate(-78.42 -148.704)" opacity="0.2"/>
        <path id="Trazado_144607" data-name="Trazado 144607" d="M220.284,280.913l9.271-3.663,2.251,9.488s-10.569,3.154-12.2.114Z" transform="translate(-62.531 -137.684)" fill="#7f3e3b"/>
        <path id="Trazado_144608" data-name="Trazado 144608" d="M235.264,279.158l2.722,5.214-8.3,2.366-2.251-9.488Z" transform="translate(-60.406 -137.684)" fill="#7f3e3b"/>
        <path id="Trazado_144609" data-name="Trazado 144609" d="M182.723,231.608s12.96,30.447,3.625,87.143H132.424c-.661-8.267,3.141-48.659-6.194-87.652a139.1,139.1,0,0,1,17.97-2.289,199.541,199.541,0,0,1,22.892,0A104.436,104.436,0,0,1,182.723,231.608Z" transform="translate(-87.911 -150.938)" fill="#7e57c2"/>
        <path id="Trazado_144610" data-name="Trazado 144610" d="M182.723,231.608s12.96,30.447,3.625,87.143H132.424c-.661-8.267,3.141-48.659-6.194-87.652a139.1,139.1,0,0,1,17.97-2.289,199.541,199.541,0,0,1,22.892,0A104.436,104.436,0,0,1,182.723,231.608Z" transform="translate(-87.911 -150.938)" opacity="0.5"/>
        <path id="Trazado_144611" data-name="Trazado 144611" d="M161.036,266.878l-11.586-12.4,8.457-12.438,11.573,12.4Z" transform="translate(-81.6 -147.253)" fill="#fff"/>
        <path id="Trazado_144612" data-name="Trazado 144612" d="M138.086,239.379c1.119,6.359-.369,21.773-5.876,39.527a257.994,257.994,0,0,0-5.291-45.276v-.076C130.456,233.186,137.018,233.364,138.086,239.379Z" transform="translate(-87.723 -149.591)" opacity="0.2"/>
        <path id="Trazado_144613" data-name="Trazado 144613" d="M141.734,208.45c1.7,7.376,3.612,20.883-1.374,25.8,0,0,3.154,7.44,16.851,7.465,10.988,0,6.066-7.465,6.066-7.465-8.292-1.959-8.292-8.063-7.058-13.786Z" transform="translate(-84.07 -156.383)" fill="#7f3e3b"/>
        <path id="Trazado_144614" data-name="Trazado 144614" d="M146.122,212.3l8.585,7.109a22.714,22.714,0,0,0-.572,4.07c-3.154-.458-7.631-3.9-8.038-7.2A10.886,10.886,0,0,1,146.122,212.3Z" transform="translate(-82.558 -155.336)" opacity="0.2"/>
        <path id="Trazado_144615" data-name="Trazado 144615" d="M159.741,191.365c4.578,2.963,5.24,17.22-1.463,19.255S151.054,185.756,159.741,191.365Z" transform="translate(-80.572 -161.236)" fill="#263238"/>
        <path id="Trazado_144616" data-name="Trazado 144616" d="M139.055,206.113c3.078,9.551,4.388,15.262,10.581,19.179a13.049,13.049,0,0,0,20.094-11.446c-.127-9.157-5.087-23.236-15.668-25a13.2,13.2,0,0,0-15.007,17.271Z" transform="translate(-84.622 -161.779)" fill="#7f3e3b"/>
        <path id="Trazado_144617" data-name="Trazado 144617" d="M144.726,199.911c5.087,6.893,5.087,17.881,1.119,19.077s-14.994-11.446-15.567-18.237c-.458-5.456,3.167-5.456,3.167-5.456s-5.85-3.4.789-7.478c7.491-4.591,26.034-4.146,17.691-10.607,6.041-2.009,8.381,1.844,8,4.184,4.451-1.361,4.159-6.194,4.159-6.194s11.828,6.613,6.5,14.32S155.447,199.707,144.726,199.911Z" transform="translate(-86.821 -165.42)" fill="#263238"/>
        <path id="Trazado_144618" data-name="Trazado 144618" d="M137.907,213.088a10.009,10.009,0,0,0,6.83,2.811c3.37,0,4.044-3.179,2.264-5.838-1.59-2.4-5.265-5.278-8.228-3.993S135.682,210.888,137.907,213.088Z" transform="translate(-85.153 -157.117)" fill="#7f3e3b"/>
        <path id="Trazado_144619" data-name="Trazado 144619" d="M151.093,202.348c.2.789.789,1.335,1.272,1.272s.776-.839.572-1.628a1.543,1.543,0,0,0-1.272-1.272C151.182,200.72,150.9,201.5,151.093,202.348Z" transform="translate(-81.17 -158.484)" fill="#263238"/>
        <path id="Trazado_144620" data-name="Trazado 144620" d="M158.152,200.759c.2.788.789,1.335,1.272,1.272s.776-.852.572-1.628-.776-1.335-1.272-1.272S157.974,199.97,158.152,200.759Z" transform="translate(-79.25 -158.917)" fill="#263238"/>
        <path id="Trazado_144621" data-name="Trazado 144621" d="M156,201.21a30.524,30.524,0,0,0,5.52,5.914,4.68,4.68,0,0,1-3.625,1.539Z" transform="translate(-79.82 -158.351)" fill="#630f0f"/>
        <path id="Trazado_144622" data-name="Trazado 144622" d="M155.751,209.755a6.842,6.842,0,0,1-4.515-1.628.234.234,0,0,1,.318-.343,6.741,6.741,0,0,0,5.774,1.272.229.229,0,0,1,.28.178.254.254,0,0,1-.178.293A8.04,8.04,0,0,1,155.751,209.755Z" transform="translate(-81.135 -156.581)" fill="#263238"/>
        <path id="Trazado_144623" data-name="Trazado 144623" d="M148.393,200.894a.51.51,0,0,1-.191,0,.471.471,0,0,1-.254-.623,4.578,4.578,0,0,1,3.319-2.76.483.483,0,0,1,.547.407.471.471,0,0,1-.407.534h0a3.688,3.688,0,0,0-2.544,2.188A.458.458,0,0,1,148.393,200.894Z" transform="translate(-82.019 -159.357)" fill="#263238"/>
        <path id="Trazado_144624" data-name="Trazado 144624" d="M161.4,197.908a.471.471,0,0,1-.369-.178,4.044,4.044,0,0,0-3.18-1.526.479.479,0,1,1-.089-.954,5,5,0,0,1,4.006,1.87.483.483,0,0,1-.369.789Z" transform="translate(-79.459 -159.971)" fill="#263238"/>
        <path id="Trazado_144625" data-name="Trazado 144625" d="M140.3,243.492l-2.035,4.464c-.7,1.539-1.374,3.09-2.035,4.655-1.335,3.129-2.544,6.283-3.815,9.437a96.828,96.828,0,0,0-3.179,9.5c-.483,1.59-.878,3.167-1.272,4.744l-.521,2.365-.076.293v.153h0v.14a7.211,7.211,0,0,0,.865,2.633,26.712,26.712,0,0,0,2.289,3.663,74.061,74.061,0,0,0,6.359,7.453c4.667,4.858,9.818,9.666,14.982,14.206l-4.362,6.245a123.006,123.006,0,0,1-18.416-12.12,74.248,74.248,0,0,1-8.445-7.822,39.5,39.5,0,0,1-3.815-5.024,19.649,19.649,0,0,1-2.976-7.2,14.255,14.255,0,0,1-.229-2.544,12.717,12.717,0,0,1,.076-1.373v-.878l.382-2.874c.331-1.882.623-3.815,1.068-5.621q1.272-5.545,2.951-10.861c1.132-3.548,2.416-7.02,3.815-10.441.712-1.7,1.45-3.408,2.213-5.087s1.552-3.307,2.544-5.087Z" transform="translate(-91.338 -148.756)" fill="#7f3e3b"/>
        <path id="Trazado_144626" data-name="Trazado 144626" d="M130.35,230.58c-9.5,1.386-19.28,36.322-19.28,36.322l22.892,8.724s5.774-15.02,9.716-26.708C147.863,236.71,140.525,229.092,130.35,230.58Z" transform="translate(-92.031 -150.418)" fill="#7e57c2"/>
        <path id="Trazado_144627" data-name="Trazado 144627" d="M130.35,230.58c-9.5,1.386-19.28,36.322-19.28,36.322l22.892,8.724s5.774-15.02,9.716-26.708C147.863,236.71,140.525,229.092,130.35,230.58Z" transform="translate(-92.031 -150.418)" opacity="0.5"/>
        <path id="Trazado_144628" data-name="Trazado 144628" d="M143.163,291.4l8.9,4.222-6.219,8.5s-7.631-3.7-6.283-8.229Z" transform="translate(-84.33 -133.838)" fill="#7f3e3b"/>
        <path id="Trazado_144629" data-name="Trazado 144629" d="M155.476,301.41l-6.257,5.965-4.769-4.159,6.219-8.5Z" transform="translate(-82.959 -132.935)" fill="#7f3e3b"/>
      </g>
      <circle id="Elipse_4699" data-name="Elipse 4699" cx="89.025" cy="89.025" r="89.025" transform="translate(219.689 209.451)" fill="#0f0140"/>
      <circle id="Elipse_4700" data-name="Elipse 4700" cx="69.72" cy="69.72" r="69.72" transform="translate(238.995 228.757)" fill="#fff"/>
      <g id="Grupo_88463" data-name="Grupo 88463" transform="translate(238.995 228.757)" clip-path="url(#clip-path)">
        <path id="Trazado_144630" data-name="Trazado 144630" d="M314.413,323.015c-.216,3.815-.649,7.211-1.145,10.8s-1.157,7.058-1.908,10.569A117.2,117.2,0,0,1,305,365.175l-1.145,2.544-.28.636-.14.318-.2.407a10.682,10.682,0,0,1-1.475,2.226,8.635,8.635,0,0,1-2.48,1.946,8.381,8.381,0,0,1-2.938.928,11.013,11.013,0,0,1-4.655-.483,22.256,22.256,0,0,1-5.876-3.04,47.5,47.5,0,0,1-4.464-3.6,103.114,103.114,0,0,1-14.117-16.266l4.388-3.7c2.442,2.289,5,4.617,7.554,6.817a97.042,97.042,0,0,0,7.8,6.219,39.264,39.264,0,0,0,3.93,2.544,13.037,13.037,0,0,0,3.472,1.475c.42.076.687,0,.5,0a1.6,1.6,0,0,0-.967.445c-.089.076-.1.089-.089,0l.394-1.043.865-2.264a135.8,135.8,0,0,0,5.087-19.191c.661-3.269,1.119-6.6,1.615-9.92s.852-6.728,1.145-9.882Z" transform="translate(-269.278 -230.161)" fill="#ff8b7b"/>
        <path id="Trazado_144631" data-name="Trazado 144631" d="M299.836,312.164c-4.667,1.183-7.936,20.349-7.936,20.349l12.845,8.8s12.324-19.369,8.737-24.507C309.756,311.464,306.64,310.447,299.836,312.164Z" transform="translate(-262.572 -233.122)" fill="#263238"/>
        <path id="Trazado_144632" data-name="Trazado 144632" d="M299.236,315.38l-3.586,19.357,7.224,4.9Z" transform="translate(-261.553 -232.039)" opacity="0.2"/>
        <path id="Trazado_144633" data-name="Trazado 144633" d="M272.821,343.273l-6.079-9.653L263.27,344.6s5.024,5.253,9.551,4.006Z" transform="translate(-270.354 -227.082)" fill="#ff8b7b"/>
        <path id="Trazado_144634" data-name="Trazado 144634" d="M259.434,331.1l-2.4,9.348,7.9,4.833L268.4,334.3Z" transform="translate(-272.05 -227.767)" fill="#ff8b7b"/>
        <path id="Trazado_144635" data-name="Trazado 144635" d="M298.428,312.7s-5.392,1.895,5.405,68.321h45.975c-.763-18.708-.788-30.243,8.152-68.677a134.813,134.813,0,0,0-19.522-2.544,146.559,146.559,0,0,0-20.883,0C308.589,310.626,298.428,312.7,298.428,312.7Z" transform="translate(-261.164 -233.657)" fill="#263238"/>
        <path id="Trazado_144636" data-name="Trazado 144636" d="M306.15,276.042c16.457-26.339,65.2-4.744,39.756,21.188C311.886,331.887,306.15,276.042,306.15,276.042Z" transform="translate(-258.699 -245.99)" fill="#263238"/>
        <path id="Trazado_144637" data-name="Trazado 144637" d="M317.1,310.481a9.03,9.03,0,0,1-4.845-1.272c-10.174-6.359-5.087-33.143-4.884-34.338a.483.483,0,0,1,.56-.369.471.471,0,0,1,.369.56c0,.267-5.214,27.318,4.451,33.283,4.68,2.887,12.171.394,22.282-7.4a.471.471,0,0,1,.674.089.483.483,0,0,1-.089.661C328.062,307.556,321.856,310.481,317.1,310.481Z" transform="translate(-258.762 -243.152)" fill="#263238"/>
        <path id="Trazado_144638" data-name="Trazado 144638" d="M330.42,269.616c5.087-15.376,32.342-10.467,22.752,5.9C343.023,292.839,330.42,269.616,330.42,269.616Z" transform="translate(-252.103 -247.004)" fill="#263238"/>
        <path id="Trazado_144639" data-name="Trazado 144639" d="M332.419,291.25c-1.272,6.715-2.633,19.077,2.073,23.5,0,0-1.844,6.817-14.32,6.817-13.723,0-6.562-6.817-6.562-6.817,7.491-1.793,7.3-7.351,6-12.565Z" transform="translate(-257.18 -238.598)" fill="#ff8b7b"/>
        <path id="Trazado_144640" data-name="Trazado 144640" d="M317.59,316.809a19.994,19.994,0,0,1,4.528,6.957c2.4-.852,14.8-7.631,15.045-13.99a47.737,47.737,0,0,0-5.011-1.056,35.609,35.609,0,0,1-14.562,8.089Z" transform="translate(-255.59 -233.85)" fill="#7e57c2"/>
        <path id="Trazado_144641" data-name="Trazado 144641" d="M319.7,316.7a28.412,28.412,0,0,0-4.515,6.957,10.708,10.708,0,0,1-4.451-13.57,20.679,20.679,0,0,1,5.723-.979S310.3,313.943,319.7,316.7Z" transform="translate(-257.699 -233.744)" fill="#7e57c2"/>
        <path id="Trazado_144642" data-name="Trazado 144642" d="M325.491,294.76l-7.631,6.473a21.113,21.113,0,0,1,.649,3.7c2.862-.42,6.791-3.561,7.1-6.55a10,10,0,0,0-.115-3.625Z" transform="translate(-255.517 -237.644)" opacity="0.2"/>
        <path id="Trazado_144643" data-name="Trazado 144643" d="M340.714,285.642c-2.633,10.925-3.51,15.592-10.1,20.272-9.895,7.046-22.727,1.424-23.414-10.073-.61-10.34,3.815-26.466,15.376-28.946a15.325,15.325,0,0,1,18.136,18.746Z" transform="translate(-258.429 -245.314)" fill="#ff8b7b"/>
        <path id="Trazado_144644" data-name="Trazado 144644" d="M319.463,280.781c-.165.89-.763,1.539-1.348,1.437s-.941-.916-.776-1.819.763-1.552,1.348-1.437S319.552,279.878,319.463,280.781Z" transform="translate(-255.669 -241.941)" fill="#263238"/>
        <path id="Trazado_144645" data-name="Trazado 144645" d="M311.465,279.391c-.165.9-.763,1.539-1.361,1.437s-.928-.916-.776-1.819.776-1.539,1.361-1.437S311.566,278.45,311.465,279.391Z" transform="translate(-257.846 -242.318)" fill="#263238"/>
        <path id="Trazado_144646" data-name="Trazado 144646" d="M310.99,277.835l-2.06-1S309.744,278.712,310.99,277.835Z" transform="translate(-257.944 -242.517)" fill="#263238"/>
        <path id="Trazado_144647" data-name="Trazado 144647" d="M314.752,281.83a24.315,24.315,0,0,1-4.222,5.163,3.917,3.917,0,0,0,3.1,1.17Z" transform="translate(-257.509 -241.158)" fill="#ff5652"/>
        <path id="Trazado_144648" data-name="Trazado 144648" d="M316.53,290.676a7.542,7.542,0,0,0,5.265-2.048.28.28,0,0,0,0-.382.267.267,0,0,0-.382,0,7.236,7.236,0,0,1-6.3,1.755.272.272,0,1,0-.1.534A9.495,9.495,0,0,0,316.53,290.676Z" transform="translate(-256.349 -239.436)" fill="#263238"/>
        <path id="Trazado_144649" data-name="Trazado 144649" d="M344.465,289.374c-5.647,9.386-20.743-10.238-23.248-19.726-3.714,1.844-11.319,7.249-11.446,3.739s12.832-9.589,19.764-8.521S348.344,282.875,344.465,289.374Z" transform="translate(-257.716 -245.802)" fill="#263238"/>
        <path id="Trazado_144650" data-name="Trazado 144650" d="M336.684,289.556a8.2,8.2,0,0,1-4.439,4.426c-2.671,1.068-4.324-1.272-3.815-3.93.42-2.416,2.34-5.888,5.087-5.812a3.675,3.675,0,0,1,3.167,5.316Z" transform="translate(-252.669 -240.503)" fill="#ff8b7b"/>
        <path id="Trazado_144651" data-name="Trazado 144651" d="M322.559,278.094a.521.521,0,0,0,.242,0,.547.547,0,0,0,.242-.725,5.316,5.316,0,0,0-3.917-2.938.521.521,0,0,0-.585.471.547.547,0,0,0,.471.6h0a4.235,4.235,0,0,1,3.078,2.353A.509.509,0,0,0,322.559,278.094Z" transform="translate(-255.333 -243.17)" fill="#263238"/>
        <path id="Trazado_144652" data-name="Trazado 144652" d="M309.165,276.486a.61.61,0,0,0,.394-.165,4.286,4.286,0,0,1,3.612-1.386.534.534,0,0,0,.623-.432.521.521,0,0,0-.42-.623,5.354,5.354,0,0,0-4.591,1.691.547.547,0,0,0,0,.763.534.534,0,0,0,.382.153Z" transform="translate(-258.026 -243.33)" fill="#263238"/>
        <path id="Trazado_144653" data-name="Trazado 144653" d="M349.356,363.684l1.183,4.121c.153.318-.216.649-.75.649H302.465c-.407,0-.75-.2-.776-.471l-.42-4.121c0-.28.331-.521.789-.521h46.548a.839.839,0,0,1,.75.343Z" transform="translate(-260.026 -219.005)" fill="#263238"/>
        <path id="Trazado_144654" data-name="Trazado 144654" d="M334.4,368.977h1.272c.242,0,.432-.14.42-.293l-.585-5.342c0-.165-.242-.293-.483-.293H333.75c-.254,0-.445.127-.42.293l.585,5.342C333.928,368.837,334.183,368.977,334.4,368.977Z" transform="translate(-251.313 -219.083)" fill="#7e57c2"/>
        <path id="Trazado_144655" data-name="Trazado 144655" d="M305.229,368.977H306.5c.242,0,.432-.14.42-.293l-.585-5.342c0-.165-.242-.293-.483-.293H304.58c-.254,0-.445.127-.42.293l.585,5.342C304.72,368.837,304.936,368.977,305.229,368.977Z" transform="translate(-259.241 -219.083)" fill="#7e57c2"/>
        <path id="Trazado_144656" data-name="Trazado 144656" d="M319.8,368.977h1.272c.242,0,.432-.14.42-.293l-.585-5.342c0-.165-.242-.293-.483-.293H319.15c-.254,0-.445.127-.42.293l.585,5.342C319.328,368.837,319.544,368.977,319.8,368.977Z" transform="translate(-255.281 -219.083)" fill="#7e57c2"/>
        <path id="Trazado_144657" data-name="Trazado 144657" d="M318.98,279.215l-2.06-1S317.734,280.13,318.98,279.215Z" transform="translate(-255.772 -242.142)" fill="#263238"/>
        <path id="Trazado_144658" data-name="Trazado 144658" d="M353.682,321.27a180.263,180.263,0,0,1,6.537,18.835,122.185,122.185,0,0,1,4.159,19.789l.267,2.544.127,2.658V366.9a10.088,10.088,0,0,1-.585,2.633,11.536,11.536,0,0,1-2.289,3.612,21.416,21.416,0,0,1-5,3.815,39.671,39.671,0,0,1-4.909,2.315,83.7,83.7,0,0,1-19.6,4.909L331.12,378.6a140.008,140.008,0,0,0,17.055-7.529,39.271,39.271,0,0,0,3.625-2.264,11.125,11.125,0,0,0,2.544-2.289c.229-.318.267-.534.229-.483a.407.407,0,0,0-.1.267.24.24,0,0,0,0,.1v-.725l-.242-2.175-.356-2.213c-.216-1.463-.56-2.976-.852-4.464s-.661-2.989-1.081-4.489c-.75-3-1.641-6-2.544-9-1.908-5.939-4.006-12.006-6.219-17.805Z" transform="translate(-251.913 -230.439)" fill="#ff8b7b"/>
        <path id="Trazado_144659" data-name="Trazado 144659" d="M347.7,311.8c4.6,1.4,10.174,17.271,10.174,17.271l-17.869,12.718s-6.512-13.239-4.578-19.191C337.334,316.446,342.383,310.214,347.7,311.8Z" transform="translate(-250.84 -233.08)" fill="#263238"/>
        <path id="Trazado_144660" data-name="Trazado 144660" d="M334.259,366.163,322.05,365.4l6.868,9.246s7.2-.979,8.839-5.392Z" transform="translate(-254.378 -218.444)" fill="#ff8b7b"/>
        <path id="Trazado_144661" data-name="Trazado 144661" d="M315.88,370.772l6.168,7.427,8.546-3.574-6.868-9.246Z" transform="translate(-256.055 -218.45)" fill="#ff8b7b"/>
      </g>
    </g>
  </g>
</svg>
