<svg xmlns="http://www.w3.org/2000/svg" width="230" height="230" viewBox="0 0 230 230">
  <g id="img20" transform="translate(-800 -10938.474)">
    <g id="Elipse_3" data-name="Elipse 3" transform="translate(800 10938.474)" fill="#0f0140" stroke="#707070" stroke-width="1">
      <circle cx="115" cy="115" r="115" stroke="none"/>
      <circle cx="115" cy="115" r="114.5" fill="none"/>
    </g>
    <g id="Grupo_106814" data-name="Grupo 106814" transform="translate(458.839 10591.59)">
      <g id="Grupo_106811" data-name="Grupo 106811">
        <g id="Grupo_106810" data-name="Grupo 106810">
          <path id="Trazado_145903" data-name="Trazado 145903" d="M470.177,502.666H441.3V507l28.878-2.167Z" fill="#fff"/>
          <path id="Trazado_145904" data-name="Trazado 145904" d="M441.3,511.833l28.878-2.164V507.5L441.3,509.552Z" fill="#fff"/>
          <path id="Trazado_145905" data-name="Trazado 145905" d="M441.3,514.373v2.283l28.877-2.166v-2.167Z" fill="#fff"/>
          <path id="Trazado_145906" data-name="Trazado 145906" d="M441.3,521.651l28.877-2.166V517.32L441.3,519.369Z" fill="#fff"/>
          <path id="Trazado_145907" data-name="Trazado 145907" d="M455.312,523.309h-9.217l3.457,3.2h11.585l3.454-3.2h-9.278Z" fill="#fff"/>
          <rect id="Rectángulo_35096" data-name="Rectángulo 35096" width="5.665" height="25.385" transform="translate(452.51 391.477)" fill="#fff"/>
          <rect id="Rectángulo_35097" data-name="Rectángulo 35097" width="5.665" height="25.385" transform="translate(426.75 398.053) rotate(-22.5)" fill="#fff"/>
          <rect id="Rectángulo_35098" data-name="Rectángulo 35098" width="5.665" height="25.385" transform="translate(405.467 413.987) rotate(-45)" fill="#fff"/>
          <rect id="Rectángulo_35099" data-name="Rectángulo 35099" width="5.665" height="25.385" transform="translate(391.901 436.852) rotate(-67.5)" fill="#fff"/>
          <rect id="Rectángulo_35100" data-name="Rectángulo 35100" width="25.385" height="5.665" transform="translate(388.119 457.504)" fill="#fff"/>
          <rect id="Rectángulo_35101" data-name="Rectángulo 35101" width="25.385" height="5.665" transform="translate(392.528 483.695) rotate(-22.499)" fill="#fff"/>
          <rect id="Rectángulo_35102" data-name="Rectángulo 35102" width="25.385" height="5.665" transform="translate(470.624 419.338) rotate(-67.499)" fill="#fff"/>
          <rect id="Rectángulo_35103" data-name="Rectángulo 35103" width="25.385" height="5.665" transform="translate(484.899 427.931) rotate(-45)" fill="#fff"/>
          <rect id="Rectángulo_35104" data-name="Rectángulo 35104" width="25.385" height="5.665" transform="translate(494.8 441.333) rotate(-22.5)" fill="#fff"/>
          <rect id="Rectángulo_35105" data-name="Rectángulo 35105" width="25.385" height="5.665" transform="translate(498.818 457.504)" fill="#fff"/>
          <rect id="Rectángulo_35106" data-name="Rectángulo 35106" width="5.665" height="25.385" transform="translate(494.173 479.215) rotate(-67.5)" fill="#fff"/>
        </g>
      </g>
      <g id="Grupo_106813" data-name="Grupo 106813">
        <g id="Grupo_106812" data-name="Grupo 106812">
          <path id="Trazado_145908" data-name="Trazado 145908" d="M471.2,464.159l7.047-1.906,2-3.524v-6.815l-4.687-3.6-7.152,2.488-3.028,5.387,1.292-6.68,7.352-2.375-.2-6.124-7.333-4.505-3.484,9.126,1.977-9.455-8.418-2.27v50l5.28,2.061h5.3l7.854-8.209V473.45l3.142-4.094v-5.722Zm-9.911,15.082,5.171-7.972-5.171-7.11,8.4,6.248Z" fill="#fff"/>
          <path id="Trazado_145909" data-name="Trazado 145909" d="M433.7,463.634v5.722l3.142,4.094v4.309l7.854,8.209H450l5.28-2.061v-50l-8.417,2.27,1.977,9.455-3.484-9.126-7.334,4.505-.2,6.124,7.351,2.375,1.293,6.68-3.028-5.387-7.153-2.488-4.686,3.6v6.815l2,3.524,7.046,1.906Zm8.458,6.773,8.4-6.248-5.172,7.11,5.172,7.972Z" fill="#fff"/>
        </g>
      </g>
      <path id="Trazado_145910" data-name="Trazado 145910" d="M483.31,432.718a38.624,38.624,0,0,0-27.295-11h-.184a38.625,38.625,0,0,0-27.3,11,37.172,37.172,0,0,0-11.154,26.712c0,10.832,5.259,19.208,9.67,24.327a47.884,47.884,0,0,0,9.306,8.364v7.54l4.486,3.363H460.4l10.612,0,4.483-3.362v-7.539a47.939,47.939,0,0,0,9.3-8.365c4.411-5.118,9.668-13.494,9.668-24.327A37.178,37.178,0,0,0,483.31,432.718ZM481.32,481a42.021,42.021,0,0,1-8.545,7.62l-.323.2v6.963l-3.189,2.392H460.4l-8.594,0h-9.216l-3.191-2.393v-6.963l-.324-.2a41.956,41.956,0,0,1-8.517-7.588c-3.882-4.506-8.51-11.867-8.511-21.353,0-18.57,14.845-33.116,33.791-33.118H456c18.95,0,33.8,14.546,33.8,33.115C489.8,469.152,485.189,476.5,481.32,481Z" fill="#fff"/>
    </g>
  </g>
</svg>
