<svg xmlns="http://www.w3.org/2000/svg" width="101" height="101" viewBox="0 0 101 101">
  <g id="img27" transform="translate(-739 -1390.986)">
    <circle id="Elipse_4802" data-name="Elipse 4802" cx="50.5" cy="50.5" r="50.5" transform="translate(739 1390.986)" fill="#3e2ea6"/>
    <g id="Grupo_106831" data-name="Grupo 106831" transform="translate(4802.718 4311.738)">
      <path id="Trazado_147684" data-name="Trazado 147684" d="M-3995.166-2910.305q6.532,5.561,6.532,15.447,0,8.4-9.818,20.876-10.715,13.574-12.576,25.787h-2.327a45.719,45.719,0,0,1,.7-6.753,56.586,56.586,0,0,1,1.724-7.66q1.02-3.3,5.168-12.861a84.077,84.077,0,0,0,3.543-9.726,31.993,31.993,0,0,0,1.435-8.952,22.149,22.149,0,0,0-3.529-12.344q-3.53-5.429-11.1-5.429a13.694,13.694,0,0,0-8.761,2.812q-3.561,2.811-3.561,5.333,0,1.422,2.649,4.426t2.65,5.59a5.2,5.2,0,0,1-1.583,3.749,5.19,5.19,0,0,1-3.846,1.615,6.231,6.231,0,0,1-4.654-2.229q-2.067-2.231-2.068-6.561,0-6.656,5.728-12.667t17.185-6.012Q-4001.7-2915.864-3995.166-2910.305Zm-11.9,82.986a7.046,7.046,0,0,1-5.063,2.068,7.04,7.04,0,0,1-5.129-2.037,6.73,6.73,0,0,1-2.077-5.009,6.64,6.64,0,0,1,2.141-5.007,6.954,6.954,0,0,1,4.936-2.037,7.229,7.229,0,0,1,5.159,2.068,6.612,6.612,0,0,1,2.176,4.976A6.674,6.674,0,0,1-4007.063-2827.319Z" transform="translate(0 0)" fill="#dad6f7"/>
    </g>
  </g>
</svg>
