<svg xmlns="http://www.w3.org/2000/svg" width="101" height="101" viewBox="0 0 101 101">
  <g id="img28" transform="translate(-739 -1838.563)">
    <path id="Trazado_147754" data-name="Trazado 147754" d="M50.5,0A50.5,50.5,0,1,1,0,50.5,50.5,50.5,0,0,1,50.5,0Z" transform="translate(739 1838.563)" fill="#0f0140"/>
    <g id="Grupo_106836" data-name="Grupo 106836" transform="translate(4748.474 4831.674)">
      <path id="Trazado_147688" data-name="Trazado 147688" d="M-3971.048-2931.342q4.115-2.682,16.412-7.29v-3.8q0-4.563-.894-6.351-1.522-3-6.305-3a8.689,8.689,0,0,0-4.338,1.163,3.693,3.693,0,0,0-2.057,3.309,12.163,12.163,0,0,0,.223,1.812,12.8,12.8,0,0,1,.224,1.632,3.718,3.718,0,0,1-1.655,3.488,4.161,4.161,0,0,1-2.237.581,3.749,3.749,0,0,1-3.086-1.318,4.541,4.541,0,0,1-1.074-2.93q0-3.13,3.869-6.551t11.337-3.421q8.675,0,11.761,5.634,1.654,3.086,1.655,8.99v17.932a11.966,11.966,0,0,0,.357,3.577,2.333,2.333,0,0,0,2.415,1.744,4.019,4.019,0,0,0,1.7-.313,17.2,17.2,0,0,0,2.324-1.521v2.326a14.567,14.567,0,0,1-3.084,2.862,9,9,0,0,1-5.1,1.7,4.973,4.973,0,0,1-4.405-1.969,8.812,8.812,0,0,1-1.5-4.7,42.129,42.129,0,0,1-5.814,4.383,15.236,15.236,0,0,1-7.736,2.415,9.293,9.293,0,0,1-6.663-2.706,9.1,9.1,0,0,1-2.818-6.865Q-3977.532-2927-3971.048-2931.342Zm16.412-5.053a40.914,40.914,0,0,0-8.5,3.756q-6.439,3.981-6.44,9.033,0,4.07,2.684,5.991a6.5,6.5,0,0,0,3.89,1.253,10.676,10.676,0,0,0,5.656-1.655,4.853,4.853,0,0,0,2.706-4.2Zm7.557-32.736a9.4,9.4,0,0,1-2.1,1.744l-14.087,8.9h-3.712l13.461-13.548a13.839,13.839,0,0,1,1.788-1.477,3.882,3.882,0,0,1,2.281-.76,3.187,3.187,0,0,1,2.125.826,2.724,2.724,0,0,1,.962,2.17A3.214,3.214,0,0,1-3947.079-2969.131Z" fill="#dad6f7"/>
    </g>
  </g>
</svg>
