<svg xmlns="http://www.w3.org/2000/svg" width="101" height="101" viewBox="0 0 101 101">
  <g id="img25" transform="translate(-739 -1036.206)">
    <circle id="Elipse_4798" data-name="Elipse 4798" cx="50.5" cy="50.5" r="50.5" transform="translate(739 1036.206)" fill="#3e2ea6"/>
    <g id="Grupo_106827" data-name="Grupo 106827" transform="translate(4658.377 3963.682)">
      <path id="Trazado_147682" data-name="Trazado 147682" d="M-3860.669-2842.271a41.032,41.032,0,0,1-14.583,11.676l-1.753-3.693q8.86-4.984,12.229-10.8t3.369-9.692a1.617,1.617,0,0,0-.831-1.661,4.273,4.273,0,0,0-1.753-.369l-6.185.646a11.244,11.244,0,0,1-7.106-2.537,8.774,8.774,0,0,1-3.231-7.339,11.754,11.754,0,0,1,2.678-7.2q2.675-3.508,8.768-3.507a14.464,14.464,0,0,1,10.431,4.568q4.614,4.57,4.614,12.692Q-3854.024-2850.348-3860.669-2842.271Zm-16.568-63.133a10.289,10.289,0,0,1-3-7.432,10.2,10.2,0,0,1,3.046-7.429,9.976,9.976,0,0,1,7.383-3.092,10.132,10.132,0,0,1,7.43,3.092,10.136,10.136,0,0,1,3.093,7.429,10.21,10.21,0,0,1-3.046,7.432,10.089,10.089,0,0,1-7.477,3.091A9.936,9.936,0,0,1-3877.237-2905.4Z" transform="translate(0 0)" fill="#dad6f7"/>
    </g>
  </g>
</svg>
