<svg xmlns="http://www.w3.org/2000/svg" width="610" height="436.087" viewBox="0 0 610 436.087">
  <g id="img2" transform="translate(0 -54.953)">
    <g id="Background_Complete" data-name="Background Complete" transform="translate(0 54.953)">
      <g id="Grupo_88465" data-name="Grupo 88465">
        <rect id="Rectángulo_34956" data-name="Rectángulo 34956" width="40.409" height="0.305" transform="translate(508.47 419.12)" fill="#ebebeb"/>
        <rect id="Rectángulo_34957" data-name="Rectángulo 34957" width="10.606" height="0.305" transform="translate(393.483 422.431)" fill="#ebebeb"/>
        <rect id="Rectángulo_34958" data-name="Rectángulo 34958" width="23.415" height="0.305" transform="translate(483.835 407.791)" fill="#ebebeb"/>
        <rect id="Rectángulo_34959" data-name="Rectángulo 34959" width="52.696" height="0.305" transform="translate(64 409.841)" fill="#ebebeb"/>
        <rect id="Rectángulo_34960" data-name="Rectángulo 34960" width="7.726" height="0.305" transform="translate(127.558 409.841)" fill="#ebebeb"/>
        <rect id="Rectángulo_34961" data-name="Rectángulo 34961" width="114.284" height="0.305" transform="translate(160.395 414.992)" fill="#ebebeb"/>
        <g id="Grupo_88464" data-name="Grupo 88464" transform="translate(48.305)">
          <path id="Trazado_144662" data-name="Trazado 144662" d="M282.138,400.026H46.558a6.972,6.972,0,0,1-6.964-6.964V61.916a6.971,6.971,0,0,1,6.964-6.963H282.138a6.971,6.971,0,0,1,6.963,6.963V393.063A6.972,6.972,0,0,1,282.138,400.026ZM46.558,55.258A6.666,6.666,0,0,0,39.9,61.916V393.063a6.666,6.666,0,0,0,6.659,6.659H282.138a6.665,6.665,0,0,0,6.658-6.659V61.916a6.665,6.665,0,0,0-6.658-6.658Z" transform="translate(-39.594 -54.953)" fill="#ebebeb"/>
          <path id="Trazado_144663" data-name="Trazado 144663" d="M498.435,400.026H262.855a6.972,6.972,0,0,1-6.963-6.964V61.916a6.971,6.971,0,0,1,6.963-6.963H498.435a6.971,6.971,0,0,1,6.964,6.963V393.063A6.972,6.972,0,0,1,498.435,400.026ZM262.855,55.258a6.665,6.665,0,0,0-6.658,6.658V393.063a6.665,6.665,0,0,0,6.658,6.659H498.435a6.666,6.666,0,0,0,6.659-6.659V61.916a6.665,6.665,0,0,0-6.659-6.658Z" transform="translate(7.991 -54.953)" fill="#ebebeb"/>
        </g>
        <rect id="Rectángulo_34962" data-name="Rectángulo 34962" width="610" height="0.305" transform="translate(0 399.483)" fill="#ebebeb"/>
      </g>
      <g id="Grupo_88470" data-name="Grupo 88470" transform="translate(123.594 3.932)">
        <g id="Grupo_88467" data-name="Grupo 88467">
          <rect id="Rectángulo_34963" data-name="Rectángulo 34963" width="1.396" height="41.369" transform="translate(43.507)" fill="#e6e6e6"/>
          <g id="Grupo_88466" data-name="Grupo 88466" transform="translate(0 37.642)">
            <path id="Trazado_144664" data-name="Trazado 144664" d="M101.307,115.746l44.2-26.715,44.2,26.715Z" transform="translate(-101.307 -89.031)" fill="#ebebeb"/>
            <path id="Trazado_144665" data-name="Trazado 144665" d="M140.591,115.746,137.54,89.031l19.871,26.715Z" transform="translate(-93.335 -89.031)" fill="#f5f5f5"/>
          </g>
        </g>
        <g id="Grupo_88469" data-name="Grupo 88469" transform="translate(274.402)">
          <rect id="Rectángulo_34964" data-name="Rectángulo 34964" width="1.396" height="41.369" transform="translate(43.507)" fill="#e6e6e6"/>
          <g id="Grupo_88468" data-name="Grupo 88468" transform="translate(0 37.642)">
            <path id="Trazado_144666" data-name="Trazado 144666" d="M326.227,115.746l44.2-26.715,44.2,26.715Z" transform="translate(-326.227 -89.031)" fill="#f0f0f0"/>
            <path id="Trazado_144667" data-name="Trazado 144667" d="M365.511,115.746,362.46,89.031l19.871,26.715Z" transform="translate(-318.255 -89.031)" fill="#fafafa"/>
          </g>
        </g>
      </g>
    </g>
    <g id="Board" transform="translate(190.95 152.476)">
      <g id="Grupo_88484" data-name="Grupo 88484">
        <g id="Grupo_88472" data-name="Grupo 88472">
          <path id="Trazado_144668" data-name="Trazado 144668" d="M187.259,137.663a3.018,3.018,0,0,0-6.016,0l-.317,3.878h6.65Zm-3.009,2.023a1.469,1.469,0,1,1,1.47-1.47A1.469,1.469,0,0,1,184.25,139.686Z" transform="translate(-151.146 -134.89)" fill="#407bff"/>
          <path id="Trazado_144669" data-name="Trazado 144669" d="M312.7,137.663a3.018,3.018,0,0,0-6.016,0l-.317,3.878h6.65Zm-3.007,2.023a1.469,1.469,0,1,1,1.469-1.47A1.469,1.469,0,0,1,309.69,139.686Z" transform="translate(-123.55 -134.89)" fill="#407bff"/>
          <rect id="Rectángulo_34965" data-name="Rectángulo 34965" width="212.65" height="131.758" transform="translate(2.507 6.033)" fill="#263238"/>
          <rect id="Rectángulo_34966" data-name="Rectángulo 34966" width="212.65" height="131.758" transform="translate(2.507 6.033)" fill="#fff" opacity="0.6"/>
          <rect id="Rectángulo_34967" data-name="Rectángulo 34967" width="201.765" height="120.873" transform="translate(7.949 11.476)" fill="#fff" opacity="0.9"/>
          <g id="Grupo_88471" data-name="Grupo 88471" transform="translate(0 134.176)">
            <rect id="Rectángulo_34968" data-name="Rectángulo 34968" width="217.663" height="6.315" fill="#263238"/>
            <rect id="Rectángulo_34969" data-name="Rectángulo 34969" width="217.663" height="6.315" fill="#fff" opacity="0.7"/>
          </g>
        </g>
        <g id="Grupo_88474" data-name="Grupo 88474" transform="translate(28.354 33.229)">
          <rect id="Rectángulo_34970" data-name="Rectángulo 34970" width="15.515" height="20.386" fill="#263238" opacity="0.2"/>
          <g id="Grupo_88473" data-name="Grupo 88473" transform="translate(0 0)">
            <path id="Trazado_144670" data-name="Trazado 144670" d="M201.195,182.512a36.222,36.222,0,0,1-3.66-20.385H179.994a36.21,36.21,0,0,0,3.66,20.385Z" transform="translate(-179.757 -162.127)" fill="#fcecdf"/>
            <path id="Trazado_144671" data-name="Trazado 144671" d="M201.195,182.512a36.222,36.222,0,0,1-3.66-20.385H179.994a36.21,36.21,0,0,0,3.66,20.385Z" transform="translate(-179.757 -162.127)" fill="#fcecdf" opacity="0.5"/>
          </g>
        </g>
        <g id="Grupo_88476" data-name="Grupo 88476" transform="translate(177.33 33.229)">
          <rect id="Rectángulo_34971" data-name="Rectángulo 34971" width="15.515" height="20.386" transform="translate(0)" fill="#263238" opacity="0.2"/>
          <g id="Grupo_88475" data-name="Grupo 88475" transform="translate(0 0)">
            <path id="Trazado_144672" data-name="Trazado 144672" d="M323.307,182.512a36.222,36.222,0,0,1-3.66-20.385H302.1a36.222,36.222,0,0,0,3.66,20.385Z" transform="translate(-301.869 -162.127)" fill="#fcecdf"/>
            <path id="Trazado_144673" data-name="Trazado 144673" d="M323.307,182.512a36.222,36.222,0,0,1-3.66-20.385H302.1a36.222,36.222,0,0,0,3.66,20.385Z" transform="translate(-301.869 -162.127)" fill="#fcecdf" opacity="0.2"/>
          </g>
        </g>
        <g id="Grupo_88477" data-name="Grupo 88477" transform="translate(64.72 33.59)">
          <rect id="Rectángulo_34972" data-name="Rectángulo 34972" width="15.515" height="20.386" fill="#263238" opacity="0.2"/>
          <path id="Trazado_144674" data-name="Trazado 144674" d="M231,182.808a36.222,36.222,0,0,1-3.66-20.385H209.8a36.21,36.21,0,0,0,3.66,20.385Z" transform="translate(-209.566 -162.423)" fill="#407bff"/>
          <path id="Trazado_144675" data-name="Trazado 144675" d="M231,182.808a36.222,36.222,0,0,1-3.66-20.385H209.8a36.21,36.21,0,0,0,3.66,20.385Z" transform="translate(-209.566 -162.423)" fill="#fcecdf" opacity="0.8"/>
        </g>
        <g id="Grupo_88479" data-name="Grupo 88479" transform="translate(145.651 33.229)">
          <rect id="Rectángulo_34973" data-name="Rectángulo 34973" width="15.515" height="20.386" fill="#263238" opacity="0.2"/>
          <g id="Grupo_88478" data-name="Grupo 88478" transform="translate(0 0)">
            <path id="Trazado_144676" data-name="Trazado 144676" d="M297.341,182.512a36.209,36.209,0,0,1-3.66-20.385H276.139a36.222,36.222,0,0,0,3.66,20.385Z" transform="translate(-275.903 -162.127)" fill="#fcecdf"/>
            <path id="Trazado_144677" data-name="Trazado 144677" d="M297.341,182.512a36.209,36.209,0,0,1-3.66-20.385H276.139a36.222,36.222,0,0,0,3.66,20.385Z" transform="translate(-275.903 -162.127)" fill="#fcecdf" opacity="0.6"/>
          </g>
        </g>
        <g id="Grupo_88480" data-name="Grupo 88480" transform="translate(136.343 28.111)">
          <path id="Trazado_144678" data-name="Trazado 144678" d="M269.733,180.44c-1.563-9.443,3.648-18.219,13.081-20.7,9.566-2.519,20.822,2.939,21.758,13.471,1.719,19.331-28.083,24.185-32.686,5.913a.6.6,0,0,0-1.165.322c2.327,9.233,10.142,12.893,19.349,12.335,9.761-.59,17.035-9.843,15.648-19.529-1.508-10.529-12.71-16.033-22.491-13.841-10.5,2.352-16.374,11.988-14.658,22.353.127.765,1.291.44,1.165-.321Z" transform="translate(-268.273 -157.932)" fill="#ef6c00"/>
        </g>
        <g id="Grupo_88483" data-name="Grupo 88483" transform="translate(26.594 59.986)">
          <g id="Grupo_88481" data-name="Grupo 88481">
            <path id="Trazado_144679" data-name="Trazado 144679" d="M179.113,191.079a227.632,227.632,0,0,1,46.654-5.739c.822-.023.826-1.305,0-1.281-15.7.458-31.692,2.087-47,5.785-.8.193-.461,1.429.342,1.235Z" transform="translate(-178.315 -184.059)" fill="#ef6c00"/>
          </g>
          <g id="Grupo_88482" data-name="Grupo 88482" transform="translate(11.352 4.476)">
            <path id="Trazado_144680" data-name="Trazado 144680" d="M188.418,192.44a138.643,138.643,0,0,1,27.9-3.431c.822-.026.826-1.307,0-1.281a140.444,140.444,0,0,0-28.237,3.477c-.8.193-.462,1.427.34,1.235Z" transform="translate(-187.62 -187.728)" fill="#ef6c00"/>
          </g>
        </g>
      </g>
    </g>
    <g id="Character_3" data-name="Character 3" transform="translate(409.588 179.088)">
      <g id="Grupo_88492" data-name="Grupo 88492">
        <g id="Grupo_88485" data-name="Grupo 88485" transform="translate(45.725)">
          <path id="Trazado_144681" data-name="Trazado 144681" d="M376.987,174.926c-.12.587-.527,1-.911.921s-.6-.616-.478-1.2.527-1,.91-.921S377.1,174.339,376.987,174.926Z" transform="translate(-372.69 -152.961)" fill="#263238"/>
          <path id="Trazado_144682" data-name="Trazado 144682" d="M377.031,175.535a21.44,21.44,0,0,1-3.823,4.449,3.449,3.449,0,0,0,2.7,1.1Z" transform="translate(-373.208 -152.56)" fill="#a02724"/>
          <path id="Trazado_144683" data-name="Trazado 144683" d="M379.58,172.715a.351.351,0,0,0,.257-.59,3.491,3.491,0,0,0-2.991-1.164.352.352,0,0,0,.116.694h0a2.787,2.787,0,0,1,2.359.947A.349.349,0,0,0,379.58,172.715Z" transform="translate(-372.472 -153.572)" fill="#263238"/>
          <path id="Trazado_144684" data-name="Trazado 144684" d="M393.447,181.473c-1.065,5.431-2.128,15.384,1.673,19.009,0,0-1.485,5.51-11.577,5.51-11.1,0-5.3-5.51-5.3-5.51,6.057-1.446,5.9-5.94,4.846-10.16Z" transform="translate(-372.434 -151.254)" fill="#b55b52"/>
          <path id="Trazado_144685" data-name="Trazado 144685" d="M396.976,179.252c-1.908,7.117-2.662,11.38-7.054,14.339-6.607,4.452-14.833-.656-15.09-8.2-.232-6.79,2.927-17.289,10.565-18.723A10.05,10.05,0,0,1,396.976,179.252Z" transform="translate(-372.853 -154.552)" fill="#b55b52"/>
          <path id="Trazado_144686" data-name="Trazado 144686" d="M382.015,184.36s1.585,9.749,11.192,9.45c0,0,11.6-6.523,10.392-18.854,0,0,3.7-4.815,1.465-6.81-1.424-1.27-3.106,1.46-3.106,1.46s.814-7.069-2.084-7.831-3.189,3.769-3.189,3.769-.67-7.144-3.649-7.527c-3.444-.443-2.439,4.629-2.439,4.629s-1.131-5.96-4.493-5.943c-2.808.015-1.449,5.653-1.449,5.653s-2.661-6.011-5.211-4.63.717,5.789.717,5.789-4.861-3.426-5.852-1.061,3.967,5.266,3.967,5.266-4.749.547-4.368,2.834,5.962,1.95,5.962,1.95-2.161,5.186,2.643,7.626Z" transform="translate(-373.059 -156.703)" fill="#263238"/>
          <path id="Trazado_144687" data-name="Trazado 144687" d="M384.181,177.826a8.321,8.321,0,0,1-3,4.43c-1.932,1.438-3.376.023-3.238-2.163.123-1.968,1.277-5.087,3.409-5.671C383.456,173.846,384.735,175.69,384.181,177.826Z" transform="translate(-372.167 -152.828)" fill="#b55b52"/>
          <path id="Trazado_144688" data-name="Trazado 144688" d="M381.1,188.193c-1.723-.3-2.534.088-5.084-2.172a9.963,9.963,0,0,0,7.552,4.876C383.481,190.625,382.724,188.478,381.1,188.193Z" transform="translate(-372.589 -150.253)" opacity="0.2"/>
        </g>
        <g id="Grupo_88486" data-name="Grupo 88486" transform="translate(76.107 56.055)">
          <path id="Trazado_144689" data-name="Trazado 144689" d="M407.951,202.65c1.922,3.783,3.654,7.526,5.309,11.374s3.19,7.731,4.6,11.7c.725,1.978,1.369,4,2,6.041l.118.382.06.192.085.328a10.224,10.224,0,0,1,.271,1.335,9.865,9.865,0,0,1,.031,2.752,11.414,11.414,0,0,1-1.686,4.7,17.342,17.342,0,0,1-5.7,5.4,23.938,23.938,0,0,1-3.11,1.606,25.822,25.822,0,0,1-3.283,1.186l-2.311-4.924a40.288,40.288,0,0,0,4.016-3.773,11.088,11.088,0,0,0,2.456-3.737,1.828,1.828,0,0,0,.1-1.144,1.4,1.4,0,0,0-.138-.316c-.009-.048-.068-.106-.093-.161l-.089-.212-.138-.345c-.726-1.84-1.5-3.673-2.289-5.517-1.584-3.68-3.249-7.357-4.947-11.026l-5.112-10.973Z" transform="translate(-398.111 -202.65)" fill="#b55b52"/>
          <path id="Trazado_144690" data-name="Trazado 144690" d="M406.287,236.87l-5.311-1.381-.3,8.574s4.154.617,6.7-1.924Z" transform="translate(-397.548 -195.425)" fill="#b55b52"/>
        </g>
        <path id="Trazado_144691" data-name="Trazado 144691" d="M394.753,234.3l1.2,7.527,6.023,2.492.3-8.574Z" transform="translate(-322.743 -139.631)" fill="#ffc3bd"/>
        <g id="Grupo_88488" data-name="Grupo 88488" transform="translate(0 13.913)">
          <path id="Trazado_144692" data-name="Trazado 144692" d="M375.415,204.114c-2.09-.021-4.47-.055-6.712-.166-2.273-.126-4.537-.259-6.787-.469s-4.476-.46-6.645-.826c-1.107-.143-2.151-.392-3.233-.578-1.031-.255-2.111-.464-3.1-.761l-1.508-.423-1.427-.5-.412-.144a5.188,5.188,0,0,1-.214-.836,19.047,19.047,0,0,1-.266-2.81c-.073-4.131,1.044-11.655,1.665-16.166l-4.675-.978a72.541,72.541,0,0,0-6.034,17.448,23.928,23.928,0,0,0-.329,4.361,13.892,13.892,0,0,0,1.146,5.478c.49,1.063.753,1.192,1.928,2.184a9.111,9.111,0,0,0,1.9,1.235l.945.433c.631.283,1.265.583,1.9.848l1.9.715a73.383,73.383,0,0,0,15.137,3.428c2.511.284,5.018.542,7.526.643,2.539.1,4.945.19,7.641.081Z" transform="translate(-335.728 -165.61)" fill="#b55b52"/>
          <g id="Grupo_88487" data-name="Grupo 88487" transform="translate(5.361)">
            <path id="Trazado_144693" data-name="Trazado 144693" d="M345.7,182.558l3.974-8.392-7.8-2.258s-3.6,5.477-.471,9.884Z" transform="translate(-340.122 -167.271)" fill="#b55b52"/>
            <path id="Trazado_144694" data-name="Trazado 144694" d="M348.876,171.219l-6.043-3.112-1.276,4.636,7.8,2.258Z" transform="translate(-339.806 -168.107)" fill="#b55b52"/>
          </g>
        </g>
        <path id="Trazado_144695" data-name="Trazado 144695" d="M377.381,198.284a3.344,3.344,0,0,0,.505-3.92s25.733-2.133,19.023,4.674Z" transform="translate(-326.565 -148.487)" fill="#407bff"/>
        <path id="Trazado_144696" data-name="Trazado 144696" d="M377.381,198.284a3.344,3.344,0,0,0,.505-3.92s25.733-2.133,19.023,4.674Z" transform="translate(-326.565 -148.487)" fill="#fff" opacity="0.3"/>
        <path id="Trazado_144697" data-name="Trazado 144697" d="M401.136,228.6s8.884-3.782,14.617-10.9c0,0-5.54-17.674-11.845-18.829S401.136,228.6,401.136,228.6Z" transform="translate(-321.556 -147.433)" fill="#407bff"/>
        <path id="Trazado_144698" data-name="Trazado 144698" d="M401.136,228.6s8.884-3.782,14.617-10.9c0,0-5.54-17.674-11.845-18.829S401.136,228.6,401.136,228.6Z" transform="translate(-321.556 -147.433)" fill="#fff" opacity="0.5"/>
        <path id="Trazado_144699" data-name="Trazado 144699" d="M400.153,209.146a167.581,167.581,0,0,0,.982,17.181,40.92,40.92,0,0,0,4.465-2.359A77.738,77.738,0,0,0,400.153,209.146Z" transform="translate(-321.555 -145.166)" opacity="0.2"/>
        <g id="Grupo_88489" data-name="Grupo 88489" transform="translate(34.998 49.014)">
          <path id="Trazado_144700" data-name="Trazado 144700" d="M413.435,200.041c-5.015,24.5-4.318,46.516-3.606,59.725a8.316,8.316,0,0,1-7.009,8.663c-10.6,1.534-21.517.5-28.041-.449A8.317,8.317,0,0,1,367.836,261c-5.833-37.537-2.849-52.523-.933-59.832a5.754,5.754,0,0,1,5.566-4.288C382.763,196.862,409.35,197.1,413.435,200.041Z" transform="translate(-364.415 -196.878)" fill="#407bff"/>
          <path id="Trazado_144701" data-name="Trazado 144701" d="M413.435,200.041c-5.015,24.5-4.318,46.516-3.606,59.725a8.316,8.316,0,0,1-7.009,8.663c-10.6,1.534-21.517.5-28.041-.449A8.317,8.317,0,0,1,367.836,261c-5.833-37.537-2.849-52.523-.933-59.832a5.754,5.754,0,0,1,5.566-4.288C382.763,196.862,409.35,197.1,413.435,200.041Z" transform="translate(-364.415 -196.878)" fill="#fff" opacity="0.5"/>
        </g>
        <path id="Trazado_144702" data-name="Trazado 144702" d="M366.017,203.845c-.949,4.886-1.732,10.914-1.624,21.786,7.562-3.409,9.379-15.09,9.379-15.09l-3.4-7.735Z" transform="translate(-329.424 -146.56)" opacity="0.2"/>
        <g id="Grupo_88490" data-name="Grupo 88490" transform="translate(23.253 48.55)">
          <path id="Trazado_144703" data-name="Trazado 144703" d="M374.185,196.987c-3.445-1.921-19.4,2.44-19.4,2.44v18.038s15.982,4.027,19.337-1.474S378.407,199.344,374.185,196.987Z" transform="translate(-354.788 -196.498)" fill="#407bff"/>
          <path id="Trazado_144704" data-name="Trazado 144704" d="M374.185,196.987c-3.445-1.921-19.4,2.44-19.4,2.44v18.038s15.982,4.027,19.337-1.474S378.407,199.344,374.185,196.987Z" transform="translate(-354.788 -196.498)" fill="#fff" opacity="0.5"/>
        </g>
        <path id="Trazado_144705" data-name="Trazado 144705" d="M385.452,409.247h-7.425l-.739-17.194h7.425Z" transform="translate(-326.585 -104.926)" fill="#b55b52"/>
        <path id="Trazado_144706" data-name="Trazado 144706" d="M431.269,406.217l-7.256,1.571-7.286-16.015,7.256-1.571Z" transform="translate(-317.908 -105.333)" fill="#b55b52"/>
        <g id="Grupo_88491" data-name="Grupo 88491" transform="translate(50.704 284.873)">
          <path id="Trazado_144707" data-name="Trazado 144707" d="M377.289,392.057l.38,8.863H385.1l-.38-8.863Z" transform="translate(-377.289 -389.798)" opacity="0.2"/>
          <path id="Trazado_144708" data-name="Trazado 144708" d="M423.987,390.205l-7.259,1.572,3.759,8.254,7.26-1.572Z" transform="translate(-368.612 -390.205)" opacity="0.2"/>
        </g>
        <path id="Trazado_144709" data-name="Trazado 144709" d="M379.624,251.345s10.746,71.348,15.371,92.605c5.065,23.278,29.91,85.684,29.91,85.684l13.291-2.877s-7.146-20.7-14.281-52.077c-2.378-10.46-6.8-20.485-7.865-28.621-1.78-13.629-4.019-50.815-5.8-68.535a149,149,0,0,0-5-26.18Z" transform="translate(-326.071 -135.882)" fill="#263238"/>
        <path id="Trazado_144710" data-name="Trazado 144710" d="M414.13,394.376c-.057.012,2.477,4.806,2.477,4.806l14.954-3.237-1.26-4.5Z" transform="translate(-318.48 -105.059)" fill="#263238"/>
        <path id="Trazado_144711" data-name="Trazado 144711" d="M384.384,267.929c9.743,1.91,11.031,52.852,9.859,71.538-2.81-13.209-9.241-53.235-12.051-71.275A3.331,3.331,0,0,1,384.384,267.929Z" transform="translate(-325.506 -132.25)" opacity="0.5"/>
        <path id="Trazado_144712" data-name="Trazado 144712" d="M368.078,251.345s1.3,70.12,2.1,92.761c.841,23.55,6.747,86.053,6.747,86.053h12.578s3.755-20.93,4.071-50.752c.146-13.714-2.128-26.218-1.951-33.5.3-12.384,1.264-46.5,3.288-63.142a236.986,236.986,0,0,0,1.707-31.416Z" transform="translate(-328.611 -135.882)" fill="#263238"/>
        <path id="Trazado_144713" data-name="Trazado 144713" d="M373.35,393.808c-.059,0,.709,5.222.709,5.222h15.3l.414-4.66Z" transform="translate(-327.452 -104.54)" fill="#263238"/>
        <path id="Trazado_144714" data-name="Trazado 144714" d="M380.761,403.776l8.544-.011a.637.637,0,0,1,.651.632l1.488,8.212a1.622,1.622,0,0,1-1.291,1.562,1.39,1.39,0,0,1-.282.029c-3.525-.122-6.631-.371-11.032-.44-5.195-.087-4,.559-10.121.542-3.689-.015-3.551-4.221-1.951-4.4,7.314-.78,8.474-2.929,11.724-5.446A3.652,3.652,0,0,1,380.761,403.776Z" transform="translate(-329.134 -102.349)" fill="#263238"/>
        <path id="Trazado_144715" data-name="Trazado 144715" d="M423.938,402.142l8.35-1.809a.638.638,0,0,1,.77.481l3.184,7.715a1.626,1.626,0,0,1-.933,1.8,1.476,1.476,0,0,1-.27.087c-3.471.622-6.56,1.033-10.879,1.893-5.1,1.008-3.789,1.387-9.78,2.658-3.61.764-4.36-3.378-2.834-3.891,6.987-2.3,7.668-4.648,10.316-7.792A3.647,3.647,0,0,1,423.938,402.142Z" transform="translate(-319.212 -103.108)" fill="#263238"/>
      </g>
    </g>
    <g id="Character_2" data-name="Character 2" transform="translate(222.984 187.821)">
      <g id="Grupo_88503" data-name="Grupo 88503">
        <g id="Grupo_88501" data-name="Grupo 88501">
          <g id="Grupo_88493" data-name="Grupo 88493" transform="translate(128.399 62.756)">
            <path id="Trazado_144716" data-name="Trazado 144716" d="M288.9,230.555l4.979-5.717a40.346,40.346,0,0,1,1.436-4.993c.587-1.22,1.85-3.978,3.128-4.423,1.382-.479,4.663.54,5.611,1.653,1.242,1.457,1.828,5.879.975,7.592-.906,1.821-7.066,4.037-7.066,4.037l-4.842,6.043Z" transform="translate(-287.826 -215.3)" fill="#ffb573"/>
            <path id="Trazado_144717" data-name="Trazado 144717" d="M288.02,228.374l4.351-4.742,5.82,4.958-4.717,5.569Z" transform="translate(-288.02 -213.468)" fill="#407bff"/>
            <path id="Trazado_144718" data-name="Trazado 144718" d="M288.02,228.374l4.351-4.742,5.82,4.958-4.717,5.569Z" transform="translate(-288.02 -213.468)" fill="#fff" opacity="0.8"/>
          </g>
          <path id="Trazado_144719" data-name="Trazado 144719" d="M262.5,204.714s4.54,5.165,11.1,22.054,13.827,11.962,21.809,2.857l6.557,5.971s-12.261,15.277-19.977,15.277c-8.591,0-16.927-13.318-18.605-22.62S262.5,204.714,262.5,204.714Z" transform="translate(-165.276 -154.874)" fill="#263238"/>
          <path id="Trazado_144720" data-name="Trazado 144720" d="M264.429,213.09l-2.44-2.04-1.142,6.5c.161,1.885.382,3.722.684,5.4.956,5.3,4.548,12.26,8.407,18.049A215.166,215.166,0,0,0,264.429,213.09Z" transform="translate(-165.598 -153.48)" opacity="0.4"/>
          <path id="Trazado_144721" data-name="Trazado 144721" d="M235.865,172.258s-3.466-.052-3.011,2.669c.576,3.444,12.313,2.431,12.313,2.431l-3.127-4.109Z" transform="translate(-171.766 -162.014)" fill="#263238"/>
          <path id="Trazado_144722" data-name="Trazado 144722" d="M276.685,391.205l1.189,15.99h-7.1l-3.491-15.423Z" transform="translate(-164.183 -113.846)" fill="#ffb573"/>
          <path id="Trazado_144723" data-name="Trazado 144723" d="M278.483,403.6l-8.721-.011a.652.652,0,0,0-.665.645l-1.519,8.383a1.656,1.656,0,0,0,1.316,1.593,1.47,1.47,0,0,0,.289.029c3.6-.124,6.767-.378,11.261-.449,5.3-.089,4.08.57,10.33.553,3.765-.015,3.625-4.309,1.992-4.492-7.466-.8-8.651-2.989-11.968-5.558A3.734,3.734,0,0,0,278.483,403.6Z" transform="translate(-164.118 -111.122)" fill="#263238"/>
          <path id="Trazado_144724" data-name="Trazado 144724" d="M284.7,432.316l-11.163.544S262.282,392.833,260.2,368.5c-.143-1.67-.246-3.277-.3-4.8a118.024,118.024,0,0,0-2.461-21.121l-.517-2.422L250.782,311.5v-.013l-1.165-5.464s-6.967-11.668-6.708-29.408a67.505,67.505,0,0,1,1.825-14.595,3.806,3.806,0,0,0,.091-.4l26.792.777,1.024,13.247Z" transform="translate(-169.546 -142.356)" fill="#0f0140"/>
          <path id="Trazado_144725" data-name="Trazado 144725" d="M252.893,320.134c3.7-18.612,1.851-40.7,1.851-40.7l-5.481,2.2-3.7,10.275s.011.824.04,2.194a44.9,44.9,0,0,0,3.431,8Z" transform="translate(-168.96 -138.434)" opacity="0.2"/>
          <path id="Trazado_144726" data-name="Trazado 144726" d="M234.866,391.205l-2.333,15.99h-7.1l.031-15.423Z" transform="translate(-173.39 -113.846)" fill="#ffb573"/>
          <path id="Trazado_144727" data-name="Trazado 144727" d="M233.706,403.6l-8.721-.011a.652.652,0,0,0-.665.645l-1.519,8.383a1.657,1.657,0,0,0,1.318,1.593,1.45,1.45,0,0,0,.288.029c3.6-.124,6.767-.378,11.261-.449,5.3-.089,4.08.57,10.33.553,3.766-.015,3.625-4.309,1.992-4.492-7.466-.8-8.65-2.989-11.968-5.558A3.732,3.732,0,0,0,233.706,403.6Z" transform="translate(-173.968 -111.122)" fill="#263238"/>
          <path id="Trazado_144728" data-name="Trazado 144728" d="M265.483,262.391l-2.059,9.725-8.314,39.38-1.359,6.462L235.22,432.588l-11.124-.479s-2.447-36.957.893-61.562c.259-1.942.57-3.808.906-5.568a124.9,124.9,0,0,0,2.383-24.916l-.026-2.408-.337-31.636a140.812,140.812,0,0,1,1.218-31.973,89.24,89.24,0,0,1,2.874-12.432l17.054.4Z" transform="translate(-173.874 -142.356)" fill="#0f0140"/>
          <path id="Trazado_144729" data-name="Trazado 144729" d="M276.685,284.117l-9.893.87a5.287,5.287,0,0,1-6.151-3.794l-.323-1.178-2.073-7.653-2.461,8.871a5.588,5.588,0,0,1-6.189,4.053l-5.464-.777-16.91-2.347c.327-7.392,2.628-16.466,3.91-20.546l17.054.4a3.806,3.806,0,0,0,.091-.4l26.792.777Z" transform="translate(-172.996 -142.356)" opacity="0.2"/>
          <path id="Trazado_144730" data-name="Trazado 144730" d="M231.353,255.83l-4.605,35.177,23.9,3.654a5.281,5.281,0,0,0,5.832-3.819l2.316-8.363,2.259,8.33a4.971,4.971,0,0,0,5.793,3.57l11.609-2-3.044-40.755s1.74-26.091-2.339-42.8c-.776-3.181-3.676-5.4-6.86-6.156a68.37,68.37,0,0,0-40.491,3.07,3.877,3.877,0,0,0-2.434,4.076Z" transform="translate(-173.866 -155.705)" fill="#263238"/>
          <g id="Grupo_88494" data-name="Grupo 88494" transform="translate(82.166 84.142)">
            <circle id="Elipse_4702" data-name="Elipse 4702" cx="1.077" cy="1.077" r="1.077" opacity="0.5"/>
            <circle id="Elipse_4703" data-name="Elipse 4703" cx="1.077" cy="1.077" r="1.077" transform="translate(1.058 14.905)" opacity="0.5"/>
            <circle id="Elipse_4704" data-name="Elipse 4704" cx="1.077" cy="1.077" r="1.077" transform="translate(1.493 29.628)" opacity="0.5"/>
          </g>
          <path id="Trazado_144731" data-name="Trazado 144731" d="M237.932,200.823a22.835,22.835,0,0,1,12.889-.894l2.645,1.507.928,2.946-3.35,2.625-7.91.805-6.538-2.7.362-2.9Z" transform="translate(-170.933 -156.043)" fill="#263238"/>
          <path id="Trazado_144732" data-name="Trazado 144732" d="M237.192,204.893a8.706,8.706,0,0,0,1.941-7.487l11.841-9.6c-1.67,16.011-.853,13.1,1.532,17.7,0,0-1.653,5.338-10.892,3.678C235.614,208.114,237.192,204.893,237.192,204.893Z" transform="translate(-170.844 -158.592)" fill="#ffb573"/>
          <path id="Trazado_144733" data-name="Trazado 144733" d="M238.756,197.406l11.841-9.6c-.3,2.323-.543,4.258-.708,5.935a12.638,12.638,0,0,1-11.174,7.391A8.019,8.019,0,0,0,238.756,197.406Z" transform="translate(-170.467 -158.592)" opacity="0.2"/>
          <path id="Trazado_144734" data-name="Trazado 144734" d="M254.283,183.966c-1.671,7.651-2.269,12.206-6.787,15.555-6.788,5.052-15.77.009-16.405-7.963-.573-7.23,2.268-18.489,10.3-20.381a10.669,10.669,0,0,1,12.891,12.789Z" transform="translate(-172.16 -162.318)" fill="#ffb573"/>
          <path id="Trazado_144735" data-name="Trazado 144735" d="M240.174,182.118c-.1.632-.509,1.092-.921,1.025s-.662-.625-.564-1.257.509-1.082.922-1.015S240.274,181.495,240.174,182.118Z" transform="translate(-170.478 -160.121)" fill="#263238"/>
          <path id="Trazado_144736" data-name="Trazado 144736" d="M234.354,181.215c-.1.623-.509,1.083-.922,1.016s-.662-.625-.562-1.248.509-1.091.921-1.025S234.453,180.583,234.354,181.215Z" transform="translate(-171.758 -160.321)" fill="#263238"/>
          <path id="Trazado_144737" data-name="Trazado 144737" d="M236.9,181.519a22.651,22.651,0,0,1-3.847,4.9,3.706,3.706,0,0,0,2.921,1.038Z" transform="translate(-171.712 -159.977)" fill="#ed893e"/>
          <path id="Trazado_144738" data-name="Trazado 144738" d="M242.791,180.242a.456.456,0,0,0,.19-.011.389.389,0,0,0,.151-.508,3.748,3.748,0,0,0-2.766-1.991.375.375,0,1,0-.066.748h0a2.961,2.961,0,0,1,2.172,1.6A.373.373,0,0,0,242.791,180.242Z" transform="translate(-170.194 -160.81)" fill="#263238"/>
          <path id="Trazado_144739" data-name="Trazado 144739" d="M232.254,178.69a.36.36,0,0,0,.318-.163,2.973,2.973,0,0,1,2.318-1.342.373.373,0,1,0,.021-.745,3.725,3.725,0,0,0-2.98,1.671.361.361,0,0,0,.084.505l.009.007A.349.349,0,0,0,232.254,178.69Z" transform="translate(-171.975 -161.094)" fill="#263238"/>
          <g id="Grupo_88495" data-name="Grupo 88495" transform="translate(61.839 29.748)">
            <path id="Trazado_144740" data-name="Trazado 144740" d="M233.463,188.505a44.349,44.349,0,0,1,7.61-.207c-.738,1.5-2.035,2.7-4.9,2.6S233.463,188.505,233.463,188.505Z" transform="translate(-233.462 -188.242)" fill="#263238"/>
            <path id="Trazado_144741" data-name="Trazado 144741" d="M237.4,189.483a5.734,5.734,0,0,0-3.165.645,3.2,3.2,0,0,0,1.765.5,5.686,5.686,0,0,0,3.157-.645A3.17,3.17,0,0,0,237.4,189.483Z" transform="translate(-233.291 -187.977)" fill="#ff5652"/>
            <path id="Trazado_144742" data-name="Trazado 144742" d="M233.677,188.472a1.061,1.061,0,0,0,.828.777,32.661,32.661,0,0,0,4.968-.245,1.638,1.638,0,0,0,1.3-.71A51.867,51.867,0,0,0,233.677,188.472Z" transform="translate(-233.414 -188.245)" fill="#fff"/>
          </g>
          <g id="Grupo_88499" data-name="Grupo 88499" transform="translate(60.634 43.885)">
            <g id="Grupo_88496" data-name="Grupo 88496" transform="translate(4.873 3.202)">
              <path id="Trazado_144743" data-name="Trazado 144743" d="M237.289,210.126l3.148,10.252,7.317,10.575,6,6.242L256,228.041l-.723-19.1-.115-4.115-1.682-2.366-2.669,2.341-2.275.877-3.328.028-8.745-2.659Z" transform="translate(-236.468 -202.457)" fill="#407bff"/>
              <path id="Trazado_144744" data-name="Trazado 144744" d="M237.289,210.126l3.148,10.252,7.317,10.575,6,6.242L256,228.041l-.723-19.1-.115-4.115-1.682-2.366-2.669,2.341-2.275.877-3.328.028-8.745-2.659Z" transform="translate(-236.468 -202.457)" fill="#407bff" opacity="0.8"/>
              <path id="Trazado_144745" data-name="Trazado 144745" d="M237.289,210.126l3.148,10.252,7.317,10.575,6,6.242L256,228.041l-.723-19.1-.115-4.115-1.682-2.366-2.669,2.341-2.275.877-3.328.028-8.745-2.659Z" transform="translate(-236.468 -202.457)" fill="#fff" opacity="0.5"/>
            </g>
            <path id="Trazado_144746" data-name="Trazado 144746" d="M242.927,208.238a14.012,14.012,0,0,0,3.4,4.353s-1.465,10.451.789,17.769l5.214,6.135,1.525-7.588s-2.334-12.143-5.467-16.736a19.323,19.323,0,0,0,1.735-5l-1.87-1.536s-2.6,1.854-4.157.564Z" transform="translate(-230.174 -198.557)" fill="#407bff"/>
            <g id="Grupo_88497" data-name="Grupo 88497" transform="translate(4.447 0.894)">
              <path id="Trazado_144747" data-name="Trazado 144747" d="M237.16,201.513s4.825,4.113,9.673,4.113,5.385-5.059,5.385-5.059l2.044,2.211a14.594,14.594,0,0,1-1.667,7.374l-5.058-3.412-3.428,4.935s-5.363-2.584-7.99-7.211Z" transform="translate(-236.119 -200.566)" fill="#407bff"/>
              <path id="Trazado_144748" data-name="Trazado 144748" d="M237.16,201.513s4.825,4.113,9.673,4.113,5.385-5.059,5.385-5.059l2.044,2.211a14.594,14.594,0,0,1-1.667,7.374l-5.058-3.412-3.428,4.935s-5.363-2.584-7.99-7.211Z" transform="translate(-236.119 -200.566)" fill="#fff" opacity="0.8"/>
            </g>
            <g id="Grupo_88498" data-name="Grupo 88498">
              <path id="Trazado_144749" data-name="Trazado 144749" d="M238.839,200.727s-3.958,12.2,15.526,35.467c0,0,3.5-28.5-2.636-36.361l4.263,1.685,4.436,6.706-3.251,2.087L261.2,212.1s-.572,9.238-6.231,27.006c0,0-12.809-9.9-21.18-23.272l3.9-3.107-5.209-.823,2.316-9.255Z" transform="translate(-232.474 -199.833)" fill="#263238"/>
              <path id="Trazado_144750" data-name="Trazado 144750" d="M238.839,200.727s-3.958,12.2,15.526,35.467c0,0,3.5-28.5-2.636-36.361l4.263,1.685,4.436,6.706-3.251,2.087L261.2,212.1s-.572,9.238-6.231,27.006c0,0-12.809-9.9-21.18-23.272l3.9-3.107-5.209-.823,2.316-9.255Z" transform="translate(-232.474 -199.833)" opacity="0.3"/>
            </g>
          </g>
          <path id="Trazado_144751" data-name="Trazado 144751" d="M250.445,192.1s-3.126,1.609-1.068-4.457-.686-8.048-1.067-10.946c0,0-17.766.61-16.928-7.243.85-7.962,11.514-1.6,11.514-1.6s-.809-3.566,2.169-3.965c3.984-.533,7.62,7.168,12.561,9.455s2.2,9.955,2.2,9.955,1.516,5.109-7.522,14.882a.563.563,0,0,1-.966-.3Z" transform="translate(-172.087 -163.861)" fill="#263238"/>
          <path id="Trazado_144752" data-name="Trazado 144752" d="M245.423,181.508c-.2-.145-1.016-.542-1.474-.759a6.675,6.675,0,0,0-3.327-1.038,3.4,3.4,0,0,0-2.439.508.788.788,0,0,0-.124.21.983.983,0,0,0-.5-.209,1.071,1.071,0,0,0-.538.078,1.219,1.219,0,0,0-.115-.279c-.653-.8-2.347-1.259-3.648-1.342a3.409,3.409,0,0,0-2.438.508,1.162,1.162,0,0,0-.278.888,5.592,5.592,0,0,0,1.329,3.253,4.674,4.674,0,0,0,2.736.786,2.418,2.418,0,0,0,1.205-.244,4.077,4.077,0,0,0,1.309-2.441,2.565,2.565,0,0,0,.015-.533.677.677,0,0,1,.343-.066.929.929,0,0,1,.427.311,5.6,5.6,0,0,0,1.325,3.222,4.682,4.682,0,0,0,2.736.786,2.43,2.43,0,0,0,1.205-.243h0a4.083,4.083,0,0,0,1.308-2.442,2.6,2.6,0,0,0,.022-.77,4.626,4.626,0,0,1,.559.312,77.085,77.085,0,0,1,6.135,5.985l.445-.416A75.087,75.087,0,0,0,245.423,181.508Zm-8.66-.144a3.752,3.752,0,0,1-1.139,2.191,4.328,4.328,0,0,1-3.506-.5,5.323,5.323,0,0,1-1.207-2.985.852.852,0,0,1,.163-.616,2.661,2.661,0,0,1,1.713-.423c.144,0,.3,0,.45.015a5.346,5.346,0,0,1,3.387,1.209A1.444,1.444,0,0,1,236.763,181.364Zm7.36,1.033a3.812,3.812,0,0,1-1.139,2.192,4.333,4.333,0,0,1-3.505-.5,5.316,5.316,0,0,1-1.208-2.985.844.844,0,0,1,.165-.616,2.647,2.647,0,0,1,1.712-.423c.144,0,.3,0,.45.015a5.343,5.343,0,0,1,3.387,1.209A1.445,1.445,0,0,1,244.124,182.4Z" transform="translate(-172.265 -160.606)" fill="#263238"/>
          <path id="Trazado_144753" data-name="Trazado 144753" d="M253.668,189.011a7.481,7.481,0,0,1-5.082,2.529c-2.607.151-3.366-2.3-2.185-4.476,1.058-1.95,3.694-4.391,6.087-3.532S255.241,187.168,253.668,189.011Z" transform="translate(-168.896 -159.573)" fill="#ffb573"/>
          <path id="Trazado_144754" data-name="Trazado 144754" d="M223.715,211.152l5.074,28.265.594-.736c2.777-14.492-1.1-28.37-1.1-28.37l-1.542.822Z" transform="translate(-173.767 -153.642)" opacity="0.4"/>
          <g id="Grupo_88500" data-name="Grupo 88500" transform="translate(0 65.736)">
            <path id="Trazado_144755" data-name="Trazado 144755" d="M200.673,230.995l-5.9-4.757a40.1,40.1,0,0,0-2.289-4.665c-.791-1.1-2.516-3.593-3.853-3.806-1.444-.231-4.5,1.348-5.235,2.61-.967,1.651-.77,6.109.37,7.646,1.211,1.634,7.663,2.738,7.663,2.738l5.827,5.1Z" transform="translate(-182.774 -217.743)" fill="#ffb573"/>
            <path id="Trazado_144756" data-name="Trazado 144756" d="M200.062,228.874l-5.114-3.908-4.863,5.9,5.619,4.657Z" transform="translate(-181.166 -216.154)" fill="#407bff"/>
            <path id="Trazado_144757" data-name="Trazado 144757" d="M200.062,228.874l-5.114-3.908-4.863,5.9,5.619,4.657Z" transform="translate(-181.166 -216.154)" fill="#fff" opacity="0.8"/>
          </g>
          <path id="Trazado_144758" data-name="Trazado 144758" d="M231.689,205.9c-.46-.547-2.089.177-2.5.761-1.358,1.93-8.967,20.542-11.952,27.9a3.646,3.646,0,0,1-4.364,2.146,87.727,87.727,0,0,1-14.89-5.5l-6.557,5.969s17.069,13.621,26.457,13.621c8.591,0,16.632-18.2,18.31-27.5A20.759,20.759,0,0,0,231.689,205.9Z" transform="translate(-180.871 -154.656)" fill="#263238"/>
        </g>
        <g id="Grupo_88502" data-name="Grupo 88502" transform="translate(135.222 50.324)">
          <path id="Trazado_144759" data-name="Trazado 144759" d="M334.26,208.173l-29.485-2.762s-7.832,12.27-11.163,40.2l29.594,2.772C326.193,224.045,332.739,211.1,334.26,208.173Z" transform="translate(-293.612 -205.044)" fill="#407bff"/>
          <path id="Trazado_144760" data-name="Trazado 144760" d="M334.26,208.173l-29.485-2.762s-7.832,12.27-11.163,40.2l29.594,2.772C326.193,224.045,332.739,211.1,334.26,208.173Z" transform="translate(-293.612 -205.044)" fill="#fff" opacity="0.4"/>
          <path id="Trazado_144761" data-name="Trazado 144761" d="M334.067,208.173l-29.485-2.762s-6.765,11.2-10.1,39.13l29.594,2.772C327.068,222.978,332.546,211.1,334.067,208.173Z" transform="translate(-293.42 -205.044)" fill="#407bff"/>
          <path id="Trazado_144762" data-name="Trazado 144762" d="M334.067,208.173l-29.485-2.762s-6.765,11.2-10.1,39.13l29.594,2.772C327.068,222.978,332.546,211.1,334.067,208.173Z" transform="translate(-293.42 -205.044)" fill="#dad6f7" opacity="0.7"/>
          <path id="Trazado_144763" data-name="Trazado 144763" d="M306.935,205.727a1.439,1.439,0,0,0-2-.362l-2.89,2a1.435,1.435,0,0,0,1.635,2.359.239.239,0,0,0-.272-.394.957.957,0,0,1-1.089-1.573l2.889-2a.957.957,0,1,1,1.09,1.573l-.976.677-.556.386-.118.082a.542.542,0,0,1-.617-.892l1.33-.921a.239.239,0,1,0-.272-.393l-1.33.921a1.017,1.017,0,0,0-.27,1.418,1.029,1.029,0,0,0,1.42.259l.118-.082.556-.387.983-.681A1.428,1.428,0,0,0,306.935,205.727Z" transform="translate(-291.892 -205.11)" fill="#407bff"/>
        </g>
      </g>
    </g>
    <g id="Character_1" data-name="Character 1" transform="translate(96.509 197.344)">
      <g id="Grupo_88515" data-name="Grupo 88515">
        <path id="Trazado_144764" data-name="Trazado 144764" d="M100.313,193.267s3.449-2.292,1.784-9.128c0,0,5.416-1.442,6.3-5.433,0,0,.976,3.46,2.924,3.078s0-3.725,0-3.725,3.076,3.071,4.645,2.8,0-2.8,0-2.8,1.366,2.952,3.062,2.456c2.229-.653-2.266-5.3-2.266-5.3s3.234,5.119,4.169,3.889c1.032-1.358-5.766-8.484-14.588-7.3,0,0-10.87-1.618-13.782,9.384,0,0-8.413,5.237-4.207,13.243,0,0-6.9,7.968-2.7,12.138,0,0-6.915,11.808,1.4,11.564s32.432-1.67,35.792-3.992-1.063-7.9-1.063-7.9,1.5-1.653,1.127-5.536a7.925,7.925,0,0,0-2.514-5.5,4.528,4.528,0,0,0,1.279-5.434c-3.488-8.018-17.148-8.6-17.148-8.6S105.586,194.454,100.313,193.267Z" transform="translate(-78.258 -171.666)" fill="#263238"/>
        <g id="Grupo_88513" data-name="Grupo 88513" transform="translate(0 3.547)">
          <g id="Grupo_88512" data-name="Grupo 88512">
            <g id="Grupo_88504" data-name="Grupo 88504" transform="translate(44.489 24.448)">
              <path id="Trazado_144765" data-name="Trazado 144765" d="M151.247,213.955a51.787,51.787,0,0,0,1.175-6.765l1.708-3.987s2.629-4.717,1.878-6.132c-.9-1.7-5.574-2.972-7.358-2.252-1.575.636-3.3,5.94-3.3,5.94l1.041,5.408A38.857,38.857,0,0,1,145.123,212Z" transform="translate(-109.071 -194.614)" fill="#ce7a63"/>
              <path id="Trazado_144766" data-name="Trazado 144766" d="M158.761,209.64c-2.3,9.686-6.7,23.852-23.972,18.54-8.894-2.735-22.381-10.063-18.548-19.131s5.285,4.781,20.407,9.65c11.444,3.686,12.6-4.5,14.651-11.428Z" transform="translate(-115.572 -192.1)" fill="#3e2ea6"/>
            </g>
            <path id="Trazado_144767" data-name="Trazado 144767" d="M98.7,201.416s4.48-1.346,10.992.666c0,0,2.106,5.1-2.442,5.33s-8.606-4.381-8.606-4.381Z" transform="translate(-74.807 -168.766)" fill="#407bff"/>
            <g id="Grupo_88506" data-name="Grupo 88506" transform="translate(19.41)">
              <path id="Trazado_144768" data-name="Trazado 144768" d="M97.8,205.861s2.906-.111,2.883-3.7a73.386,73.386,0,0,0-.62-7.962l8.633.764s-1.154,10.608,2.8,11.148C111.495,206.107,108.045,211.395,97.8,205.861Z" transform="translate(-94.403 -170.258)" fill="#ce7a63"/>
              <path id="Trazado_144769" data-name="Trazado 144769" d="M108.292,194.959l-8.633-.764s.218,1.6.4,3.654a12.676,12.676,0,0,0,8.456,4.68A29.2,29.2,0,0,1,108.292,194.959Z" transform="translate(-93.995 -170.258)" opacity="0.1"/>
              <path id="Trazado_144770" data-name="Trazado 144770" d="M95.15,186.926c1.149,7.734,1.465,11.032,5.734,14.683,6.423,5.5,15.668,2.4,16.86-5.523,1.07-7.13-.982-18.573-8.855-21.015a10.664,10.664,0,0,0-13.74,11.855Z" transform="translate(-95.016 -174.574)" fill="#ce7a63"/>
              <path id="Trazado_144771" data-name="Trazado 144771" d="M109.322,186.166a16.938,16.938,0,0,0,2.6,3.85,2.727,2.727,0,0,1-2.216.625Z" transform="translate(-91.869 -172.024)" fill="#ba4d3c"/>
              <path id="Trazado_144772" data-name="Trazado 144772" d="M102.4,183.639a.352.352,0,0,1-.149-.06.31.31,0,0,1-.06-.434l0,0a3.626,3.626,0,0,1,2.987-1.5.318.318,0,0,1,.283.334.309.309,0,0,1-.325.284,3.038,3.038,0,0,0-2.458,1.265A.313.313,0,0,1,102.4,183.639Z" transform="translate(-93.452 -173.02)" fill="#263238"/>
              <path id="Trazado_144773" data-name="Trazado 144773" d="M113.948,182.65a.331.331,0,0,1-.149-.06,3.032,3.032,0,0,0-2.711-.476.31.31,0,0,1-.4-.171l0,0a.318.318,0,0,1,.183-.4,3.655,3.655,0,0,1,3.3.549.309.309,0,0,1-.217.565Z" transform="translate(-91.573 -173.081)" fill="#263238"/>
              <g id="Grupo_88505" data-name="Grupo 88505" transform="translate(12.887 11.139)">
                <path id="Trazado_144774" data-name="Trazado 144774" d="M105.585,185.843c.054.63.433,1.113.853,1.08s.7-.572.643-1.211-.433-1.111-.844-1.078S105.534,185.2,105.585,185.843Z" transform="translate(-105.579 -183.501)" fill="#263238"/>
                <path id="Trazado_144775" data-name="Trazado 144775" d="M111.452,185.339c.052.63.433,1.113.843,1.08s.7-.573.651-1.211-.433-1.111-.843-1.078S111.393,184.7,111.452,185.339Z" transform="translate(-104.289 -183.612)" fill="#263238"/>
                <path id="Trazado_144776" data-name="Trazado 144776" d="M111.838,184.271l1.482-.566S112.638,184.955,111.838,184.271Z" transform="translate(-104.202 -183.705)" fill="#263238"/>
                <path id="Trazado_144777" data-name="Trazado 144777" d="M105.972,184.775l1.481-.566S106.771,185.459,105.972,184.775Z" transform="translate(-105.493 -183.594)" fill="#263238"/>
              </g>
              <path id="Trazado_144778" data-name="Trazado 144778" d="M109.093,193.183a6.062,6.062,0,0,0,1.091-.1.19.19,0,0,0,.157-.218v-.006a.191.191,0,0,0-.217-.156,5.193,5.193,0,0,1-4.493-1.255.193.193,0,1,0-.287.26A5.394,5.394,0,0,0,109.093,193.183Z" transform="translate(-92.755 -170.875)" fill="#263238"/>
            </g>
            <path id="Trazado_144779" data-name="Trazado 144779" d="M131.67,312.636c-.111,30.1-4.714,120.66-4.714,120.66h-8.58s-5.04-36.781-4.515-69.117c.189-11.7,1.224-20.64,1.331-27.584.193-12.522-9.368-55.416-9.368-55.416l25.932,3.17S131.7,305.535,131.67,312.636Z" transform="translate(-73.228 -151.121)" fill="#ce7a63"/>
            <path id="Trazado_144780" data-name="Trazado 144780" d="M129.988,326.412c.17-5.674.3-10.835.361-15.208l-18.754-.854a163.189,163.189,0,0,1,2.3,18.089A35.568,35.568,0,0,0,129.988,326.412Z" transform="translate(-71.958 -144.704)" opacity="0.2"/>
            <path id="Trazado_144781" data-name="Trazado 144781" d="M124.545,404l-8.317-.011a.607.607,0,0,0-.623.615L114.3,412.6a1.616,1.616,0,0,0,1.283,1.52,1.409,1.409,0,0,0,.276.028c3.427-.12,6.448-.361,10.732-.428,5.056-.085,3.9.544,9.861.527,3.592-.015,3.386-4.109,1.825-4.285-7.135-.759-8.3-2.851-11.508-5.3A3.6,3.6,0,0,0,124.545,404Z" transform="translate(-71.364 -124.102)" fill="#263238"/>
            <g id="Grupo_88507" data-name="Grupo 88507" transform="translate(2.594 129.647)">
              <path id="Trazado_144782" data-name="Trazado 144782" d="M108.038,314.928,91.774,433.782H83.379s-2.829-34.633-.7-64.338c.793-11.043,3-20.833,4.168-27.716,2.439-14.378,2-60.887,2-60.887l22.411,3.644Z" transform="translate(-81.088 -280.842)" fill="#ce7a63"/>
              <path id="Trazado_144783" data-name="Trazado 144783" d="M104.4,329.582l2.819-25.517-19.266-.878c-.226,8.562-.609,16.914-1.247,22.7A166.052,166.052,0,0,0,104.4,329.582Z" transform="translate(-80.029 -275.926)" opacity="0.2"/>
              <path id="Trazado_144784" data-name="Trazado 144784" d="M91.634,404l-8.317-.011a.621.621,0,0,0-.634.615L81.233,412.6a1.58,1.58,0,0,0,1.257,1.52,1.419,1.419,0,0,0,.276.028c3.429-.12,6.454-.361,10.74-.428,5.057-.085,3.891.544,9.853.527,3.59-.015,3.456-4.109,1.9-4.285-7.121-.759-8.251-2.851-11.414-5.3A3.551,3.551,0,0,0,91.634,404Z" transform="translate(-81.232 -253.749)" fill="#263238"/>
            </g>
            <path id="Trazado_144785" data-name="Trazado 144785" d="M96.669,203.433l2.413-.772,6.3,4.381h2.308l1.943-.86,2.251-2.248,2.246.918,1.61,6.187v1.888l.683,2.276,1.982,7.661,1.5,9.882v7.439l-.555,7.994-2.11-4.164-5.94-11.1-4.941-13.99-1.443-4.885-3.775-3.966-2.942-5.028Z" transform="translate(-75.242 -168.395)" fill="#407bff"/>
            <path id="Trazado_144786" data-name="Trazado 144786" d="M96.669,203.433l2.413-.772,6.3,4.381h2.308l1.943-.86,2.251-2.248,2.246.918,1.61,6.187v1.888l.683,2.276,1.982,7.661,1.5,9.882v7.439l-.555,7.994-2.11-4.164-5.94-11.1-4.941-13.99-1.443-4.885-3.775-3.966-2.942-5.028Z" transform="translate(-75.242 -168.395)" fill="#407bff"/>
            <path id="Trazado_144787" data-name="Trazado 144787" d="M96.669,203.433l2.413-.772,6.3,4.381h2.308l1.943-.86,2.251-2.248,2.246.918,1.61,6.187v1.888l.683,2.276,1.982,7.661,1.5,9.882v7.439l-.555,7.994-2.11-4.164-5.94-11.1-4.941-13.99-1.443-4.885-3.775-3.966-2.942-5.028Z" transform="translate(-75.242 -168.395)" fill="#fff" opacity="0.5"/>
            <path id="Trazado_144788" data-name="Trazado 144788" d="M91.847,256.624s-6.194,16.973-6.468,27.36c-.261,9.877.808,21.371.643,30.635a114.49,114.49,0,0,1-1.575,17.373s33.417,10.62,55.129,1.294a324.436,324.436,0,0,0-5.113-76.662l-15.355.826Z" transform="translate(-77.931 -156.523)" fill="#263238"/>
            <path id="Trazado_144789" data-name="Trazado 144789" d="M87.933,209.594l7.529,39.519A286.634,286.634,0,0,0,87.133,277.4s23.2,7.71,29.977,4.331c2.168-1.082,4.664-8.495,4.664-8.495s3.9,7.848,6.5,8.495c2.133.531,7.993-3.665,7.993-3.665s-2.741-17.718-6.116-29.829l1.63-13.377s3.182-7.453-2.921-20.695L127.1,208.81a2.885,2.885,0,0,0-1.388-1.657,44.01,44.01,0,0,0-11.181-3.942s8.495,20.226,6.5,40.053c0,0-8.328-29.393-21.631-40.6a24.885,24.885,0,0,0-9.5,2.955A3.952,3.952,0,0,0,87.933,209.594Z" transform="translate(-77.34 -168.395)" fill="#3e2ea6"/>
            <g id="Grupo_88508" data-name="Grupo 88508" transform="translate(20.422 32.65)">
              <path id="Trazado_144790" data-name="Trazado 144790" d="M97.184,202.952l1.84-1.615s5,5.472,8.326,5.289S110.016,202,110.016,202l2.3,1.5,1.027.943-.248,5.916s-2.917-3.417-4.637-2.918-3.2,4.164-3.2,4.164S101.394,209.452,97.184,202.952Z" transform="translate(-95.55 -201.337)" fill="#407bff"/>
              <path id="Trazado_144791" data-name="Trazado 144791" d="M97.184,202.952l1.84-1.615s5,5.472,8.326,5.289S110.016,202,110.016,202l2.3,1.5,1.027.943-.248,5.916s-2.917-3.417-4.637-2.918-3.2,4.164-3.2,4.164S101.394,209.452,97.184,202.952Z" transform="translate(-95.55 -201.337)" fill="#fff" opacity="0.8"/>
              <path id="Trazado_144792" data-name="Trazado 144792" d="M119.692,249.232s1.72-10.325,1.387-33.086L116.6,213.7l2.815-.777a77.068,77.068,0,0,0-4.865-9.257c-.625-.161-1.265-.316-1.935-.458,0,0,8.494,23.725,6.5,43.55,0,0-8.328-32.891-21.631-44.1,0,0-.628.045-1.634.216a18.283,18.283,0,0,1,5.035,12.27h3.576l-2.917,2.664Z" transform="translate(-95.845 -201.046)" fill="#0f0140"/>
            </g>
            <g id="Grupo_88510" data-name="Grupo 88510" transform="translate(35.47 62.46)">
              <path id="Trazado_144794" data-name="Trazado 144794" d="M110.1,259.531l18.934-.489a1.488,1.488,0,0,0,1.41-1.344l2.3-29.118a1.157,1.157,0,0,0-1.2-1.277l-18.934.489a1.488,1.488,0,0,0-1.41,1.344l-2.3,29.119A1.155,1.155,0,0,0,110.1,259.531Z" transform="translate(-108.023 -225.434)" fill="#263238"/>
              <path id="Trazado_144795" data-name="Trazado 144795" d="M117.961,230.252l4.535-.117a1.86,1.86,0,0,0,1.763-1.681l.212-2.683-7.8.2-.212,2.684A1.445,1.445,0,0,0,117.961,230.252Z" transform="translate(-106.36 -225.771)" fill="#263238"/>
              <path id="Trazado_144796" data-name="Trazado 144796" d="M117.961,230.252l4.535-.117a1.86,1.86,0,0,0,1.763-1.681l.212-2.683-7.8.2-.212,2.684A1.445,1.445,0,0,0,117.961,230.252Z" transform="translate(-106.36 -225.771)" fill="#fff" opacity="0.7"/>
              <g id="Grupo_88509" data-name="Grupo 88509" transform="translate(0 2.451)">
                <path id="Trazado_144797" data-name="Trazado 144797" d="M111.895,227.8l.892-.023a1.487,1.487,0,0,0-1.41,1.344l-2.3,29.118a1.156,1.156,0,0,0,1.2,1.277l-.892.023a1.155,1.155,0,0,1-1.2-1.277l2.3-29.118A1.487,1.487,0,0,1,111.895,227.8Z" transform="translate(-108.18 -227.78)" fill="#263238"/>
                <path id="Trazado_144798" data-name="Trazado 144798" d="M111.895,227.8l.892-.023a1.487,1.487,0,0,0-1.41,1.344l-2.3,29.118a1.156,1.156,0,0,0,1.2,1.277l-.892.023a1.155,1.155,0,0,1-1.2-1.277l2.3-29.118A1.487,1.487,0,0,1,111.895,227.8Z" transform="translate(-108.18 -227.78)" fill="#fff" opacity="0.7"/>
              </g>
            </g>
            <g id="Grupo_88511" data-name="Grupo 88511" transform="translate(0 36.849)">
              <path id="Trazado_144799" data-name="Trazado 144799" d="M101.891,248.97a51.88,51.88,0,0,0,6.811-.856l4.314.466s5.278,1.133,6.412,0c1.359-1.36,1.21-6.2,0-7.695-1.069-1.32-6.645-1.413-6.645-1.413l-4.868,2.578a38.8,38.8,0,0,1-5.945.49Z" transform="translate(-74.093 -197.146)" fill="#ce7a63"/>
              <path id="Trazado_144800" data-name="Trazado 144800" d="M107.6,257.156c-9.934.636-28.519-.853-28.5-18.923.012-9.3,4.648-34.434,14.441-33.424s-4.314,11.148-4.314,32.138c0,12.022,11.229,12.45,18.45,12.382Z" transform="translate(-79.106 -204.779)" fill="#3e2ea6"/>
            </g>
          </g>
        </g>
        <g id="Grupo_88514" data-name="Grupo 88514" transform="translate(11.325)">
          <path id="Trazado_144802" data-name="Trazado 144802" d="M99.118,193.268s3.451-2.292,1.785-9.128c0,0,5.416-1.442,6.3-5.433,0,0,.976,3.46,2.924,3.078s0-3.725,0-3.725,3.074,3.071,4.645,2.8,0-2.8,0-2.8,1.38,3,3.062,2.456-.706-3.261-.706-3.261,2.183,3.1,2.663,1.63-5.819-8.267-14.64-7.081c0,0-10.871-1.618-13.784,9.384,0,0-4.629,3.022-2.34,10.216C89.025,191.405,100.2,193.511,99.118,193.268Z" transform="translate(-88.389 -171.667)" fill="#263238"/>
        </g>
        <path id="Trazado_144803" data-name="Trazado 144803" d="M94.095,190.528a5.7,5.7,0,0,0,3.035,3.135c1.846.781,3.023-.805,2.724-2.682-.266-1.682-1.551-4.125-3.509-4.113a2.582,2.582,0,0,0-2.251,3.659Z" transform="translate(-75.86 -168.322)" fill="#ce7a63"/>
      </g>
    </g>
    <g id="Graphic" transform="translate(121.145 134.072)">
      <g id="Grupo_88528" data-name="Grupo 88528" transform="translate(299.332)">
        <g id="Grupo_88516" data-name="Grupo 88516">
          <path id="Trazado_144804" data-name="Trazado 144804" d="M388.112,137.685c0-9.876-9.73-17.88-21.729-17.88s-21.729,8-21.729,17.88,9.728,17.88,21.729,17.88a26.529,26.529,0,0,0,3.523-.238l8.862,4.591-.876-7.07C384.027,149.689,388.112,144.081,388.112,137.685Z" transform="translate(-344.653 -119.805)" fill="#407bff"/>
          <path id="Trazado_144805" data-name="Trazado 144805" d="M388.112,137.685c0-9.876-9.73-17.88-21.729-17.88s-21.729,8-21.729,17.88,9.728,17.88,21.729,17.88a26.529,26.529,0,0,0,3.523-.238l8.862,4.591-.876-7.07C384.027,149.689,388.112,144.081,388.112,137.685Z" transform="translate(-344.653 -119.805)" fill="#dad6f7"/>
        </g>
        <g id="Grupo_88527" data-name="Grupo 88527" transform="translate(8.236 5.267)">
          <g id="Grupo_88519" data-name="Grupo 88519" transform="translate(7.251 6.973)">
            <path id="Trazado_144806" data-name="Trazado 144806" d="M370.533,136.43a6.593,6.593,0,0,0-6.7-6.592,6.884,6.884,0,0,0-6.483,6.4,6.568,6.568,0,0,0,2.519,5.372,4.417,4.417,0,0,1,1.673,2.79l.023.15a1.61,1.61,0,0,0,1.591,1.365h1.568a1.608,1.608,0,0,0,1.59-1.365l.023-.153a4.307,4.307,0,0,1,1.631-2.754A6.574,6.574,0,0,0,370.533,136.43Z" transform="translate(-357.348 -129.837)" fill="#fff"/>
            <path id="Trazado_144807" data-name="Trazado 144807" d="M363.5,145.728h-.725a1.771,1.771,0,0,1-1.765-1.767h0a.559.559,0,0,1,.559-.559H364.7a.559.559,0,0,1,.559.559h0A1.771,1.771,0,0,1,363.5,145.728Z" transform="translate(-356.543 -126.853)" fill="#407bff"/>
            <path id="Trazado_144808" data-name="Trazado 144808" d="M363.5,145.728h-.725a1.771,1.771,0,0,1-1.765-1.767h0a.559.559,0,0,1,.559-.559H364.7a.559.559,0,0,1,.559.559h0A1.771,1.771,0,0,1,363.5,145.728Z" transform="translate(-356.543 -126.853)" fill="#fff" opacity="0.2"/>
            <g id="Grupo_88517" data-name="Grupo 88517" transform="translate(3.38 6.685)">
              <path id="Trazado_144809" data-name="Trazado 144809" d="M365.213,140.529l-.684-.187.869-3.194-.833.5-.083-1-1.151.848-1.151-.848-.083,1-.833-.5.869,3.194-.684.187-1.33-4.887,1.365.812.095-1.137,1.752,1.292,1.752-1.292.095,1.137,1.365-.812Z" transform="translate(-360.118 -135.317)" fill="#407bff"/>
            </g>
            <g id="Grupo_88518" data-name="Grupo 88518" transform="translate(3.38 6.685)" opacity="0.5">
              <path id="Trazado_144810" data-name="Trazado 144810" d="M365.213,140.529l-.684-.187.869-3.194-.833.5-.083-1-1.151.848-1.151-.848-.083,1-.833-.5.869,3.194-.684.187-1.33-4.887,1.365.812.095-1.137,1.752,1.292,1.752-1.292.095,1.137,1.365-.812Z" transform="translate(-360.118 -135.317)" fill="#fff"/>
            </g>
          </g>
          <g id="Grupo_88520" data-name="Grupo 88520" transform="translate(13.438)">
            <rect id="Rectángulo_34974" data-name="Rectángulo 34974" width="0.81" height="5.538" fill="#fff"/>
          </g>
          <g id="Grupo_88521" data-name="Grupo 88521" transform="translate(22.15 13.439)">
            <rect id="Rectángulo_34975" data-name="Rectángulo 34975" width="5.538" height="0.81" fill="#fff"/>
          </g>
          <g id="Grupo_88522" data-name="Grupo 88522" transform="translate(0 13.439)">
            <rect id="Rectángulo_34976" data-name="Rectángulo 34976" width="5.537" height="0.81" fill="#fff"/>
          </g>
          <g id="Grupo_88523" data-name="Grupo 88523" transform="translate(19.431 3.768)">
            <rect id="Rectángulo_34977" data-name="Rectángulo 34977" width="5.537" height="0.81" transform="translate(0 3.915) rotate(-45)" fill="#fff"/>
          </g>
          <g id="Grupo_88524" data-name="Grupo 88524" transform="translate(3.768 19.431)">
            <rect id="Rectángulo_34978" data-name="Rectángulo 34978" width="5.537" height="0.81" transform="translate(0 3.915) rotate(-45)" fill="#fff"/>
          </g>
          <g id="Grupo_88525" data-name="Grupo 88525" transform="translate(19.431 19.431)">
            <rect id="Rectángulo_34979" data-name="Rectángulo 34979" width="0.81" height="5.537" transform="matrix(0.707, -0.707, 0.707, 0.707, 0, 0.573)" fill="#fff"/>
          </g>
          <g id="Grupo_88526" data-name="Grupo 88526" transform="translate(3.768 3.769)">
            <rect id="Rectángulo_34980" data-name="Rectángulo 34980" width="0.81" height="5.537" transform="translate(0 0.573) rotate(-45.002)" fill="#fff"/>
          </g>
        </g>
      </g>
      <g id="Grupo_88541" data-name="Grupo 88541" transform="translate(0 3.331)">
        <g id="Grupo_88529" data-name="Grupo 88529">
          <path id="Trazado_144811" data-name="Trazado 144811" d="M99.3,145.853c0-12.878,12.688-23.318,28.337-23.318s28.337,10.44,28.337,23.318-12.687,23.317-28.337,23.317a34.427,34.427,0,0,1-4.595-.31l-9.117,5.987-1.3-9.22C104.624,161.505,99.3,154.193,99.3,145.853Z" transform="translate(-99.299 -122.535)" fill="#dad6f7"/>
          <path id="Trazado_144812" data-name="Trazado 144812" d="M99.3,145.853c0-12.878,12.688-23.318,28.337-23.318s28.337,10.44,28.337,23.318-12.687,23.317-28.337,23.317a34.427,34.427,0,0,1-4.595-.31l-9.117,5.987-1.3-9.22C104.624,161.505,99.3,154.193,99.3,145.853Z" transform="translate(-99.299 -122.535)" fill="#dad6f7" opacity="0.5"/>
        </g>
        <g id="Grupo_88540" data-name="Grupo 88540" transform="translate(9.826 6.869)">
          <g id="Grupo_88532" data-name="Grupo 88532" transform="translate(9.456 9.094)">
            <path id="Trazado_144813" data-name="Trazado 144813" d="M115.1,144.216a8.6,8.6,0,0,1,8.735-8.6,8.979,8.979,0,0,1,8.456,8.345,8.567,8.567,0,0,1-3.285,7.006,5.76,5.76,0,0,0-2.181,3.638l-.03.2a2.1,2.1,0,0,1-2.074,1.779h-2.045a2.1,2.1,0,0,1-2.074-1.779l-.031-.2a5.625,5.625,0,0,0-2.125-3.592A8.568,8.568,0,0,1,115.1,144.216Z" transform="translate(-115.104 -135.619)" fill="#fff"/>
            <path id="Rectángulo_34981" data-name="Rectángulo 34981" d="M1.867,0H3.682A1.867,1.867,0,0,1,5.55,1.867v.574a.591.591,0,0,1-.591.591H.591A.591.591,0,0,1,0,2.441V1.867A1.867,1.867,0,0,1,1.867,0Z" transform="translate(11.372 24.614) rotate(180)" fill="#407bff"/>
            <path id="Rectángulo_34982" data-name="Rectángulo 34982" d="M1.867,0H3.682A1.867,1.867,0,0,1,5.55,1.867v.574a.591.591,0,0,1-.591.591H.591A.591.591,0,0,1,0,2.441V1.867A1.867,1.867,0,0,1,1.867,0Z" transform="translate(11.372 24.614) rotate(180)" fill="#fff" opacity="0.2"/>
            <g id="Grupo_88530" data-name="Grupo 88530" transform="translate(4.408 8.717)">
              <path id="Trazado_144814" data-name="Trazado 144814" d="M120.451,149.561l.892-.243-1.134-4.166,1.087.646.109-1.307,1.5,1.106,1.5-1.106.109,1.307,1.087-.646-1.134,4.166.892.243,1.734-6.373-1.781,1.059-.124-1.483-2.285,1.684-2.285-1.684-.124,1.483-1.781-1.059Z" transform="translate(-118.717 -142.764)" fill="#407bff"/>
            </g>
            <g id="Grupo_88531" data-name="Grupo 88531" transform="translate(4.408 8.717)" opacity="0.5">
              <path id="Trazado_144815" data-name="Trazado 144815" d="M120.451,149.561l.892-.243-1.134-4.166,1.087.646.109-1.307,1.5,1.106,1.5-1.106.109,1.307,1.087-.646-1.134,4.166.892.243,1.734-6.373-1.781,1.059-.124-1.483-2.285,1.684-2.285-1.684-.124,1.483-1.781-1.059Z" transform="translate(-118.717 -142.764)" fill="#fff"/>
            </g>
          </g>
          <g id="Grupo_88533" data-name="Grupo 88533" transform="translate(17.525)">
            <rect id="Rectángulo_34983" data-name="Rectángulo 34983" width="1.057" height="7.221" fill="#fff"/>
          </g>
          <g id="Grupo_88534" data-name="Grupo 88534" transform="translate(0 17.525)">
            <rect id="Rectángulo_34984" data-name="Rectángulo 34984" width="7.221" height="1.057" fill="#fff"/>
          </g>
          <g id="Grupo_88535" data-name="Grupo 88535" transform="translate(28.885 17.525)">
            <rect id="Rectángulo_34985" data-name="Rectángulo 34985" width="7.221" height="1.057" fill="#fff"/>
          </g>
          <g id="Grupo_88536" data-name="Grupo 88536" transform="translate(4.914 4.914)">
            <rect id="Rectángulo_34986" data-name="Rectángulo 34986" width="1.057" height="7.221" transform="translate(0 0.747) rotate(-45.005)" fill="#fff"/>
          </g>
          <g id="Grupo_88537" data-name="Grupo 88537" transform="translate(25.339 25.339)">
            <rect id="Rectángulo_34987" data-name="Rectángulo 34987" width="1.057" height="7.221" transform="translate(0 0.747) rotate(-45.005)" fill="#fff"/>
          </g>
          <g id="Grupo_88538" data-name="Grupo 88538" transform="translate(4.914 25.339)">
            <rect id="Rectángulo_34988" data-name="Rectángulo 34988" width="7.221" height="1.057" transform="translate(0 5.106) rotate(-44.997)" fill="#fff"/>
          </g>
          <g id="Grupo_88539" data-name="Grupo 88539" transform="translate(25.339 4.914)">
            <rect id="Rectángulo_34989" data-name="Rectángulo 34989" width="7.221" height="1.057" transform="translate(0 5.106) rotate(-44.999)" fill="#fff"/>
          </g>
        </g>
      </g>
    </g>
    <g id="Desk" transform="translate(184.295 309.699)">
      <g id="Grupo_88544" data-name="Grupo 88544" transform="translate(10.658)">
        <g id="Grupo_88542" data-name="Grupo 88542" transform="translate(37.868)">
          <path id="Trazado_144816" data-name="Trazado 144816" d="M197.97,294.156a1.249,1.249,0,0,1,0-2.5h34.022a1.249,1.249,0,1,1,0,2.5Z" transform="translate(-189.542 -257.623)" fill="#407bff"/>
          <path id="Trazado_144817" data-name="Trazado 144817" d="M197.97,294.156a1.249,1.249,0,0,1,0-2.5h34.022a1.249,1.249,0,1,1,0,2.5Z" transform="translate(-189.542 -257.623)" fill="#fff" opacity="0.5"/>
          <path id="Trazado_144818" data-name="Trazado 144818" d="M202.154,298.133l-4.529-32.225a2.555,2.555,0,0,0-2.449-2.147h-4.34V300.28h9.472A1.822,1.822,0,0,0,202.154,298.133Z" transform="translate(-190.837 -263.761)" fill="#407bff"/>
          <path id="Trazado_144819" data-name="Trazado 144819" d="M202.154,298.133l-4.529-32.225a2.555,2.555,0,0,0-2.449-2.147h-4.34V300.28h9.472A1.822,1.822,0,0,0,202.154,298.133Z" transform="translate(-190.837 -263.761)" fill="#fff" opacity="0.6"/>
        </g>
        <g id="Grupo_88543" data-name="Grupo 88543">
          <path id="Trazado_144820" data-name="Trazado 144820" d="M205.265,300.28H166.8a2.555,2.555,0,0,1-2.449-2.147l-4.529-32.225a1.823,1.823,0,0,1,1.845-2.147h38.469a2.555,2.555,0,0,1,2.449,2.147l4.529,32.225A1.822,1.822,0,0,1,205.265,300.28Z" transform="translate(-159.798 -263.761)" fill="#afafaf"/>
        </g>
        <path id="Trazado_144822" data-name="Trazado 144822" d="M183.015,280.688A2.811,2.811,0,0,1,180.17,284a3.941,3.941,0,0,1-3.777-3.312,2.811,2.811,0,0,1,2.846-3.311A3.939,3.939,0,0,1,183.015,280.688Z" transform="translate(-156.154 -260.765)" fill="#fff" opacity="0.7"/>
      </g>
      <g id="Grupo_88557" data-name="Grupo 88557" transform="translate(0 36.622)">
        <g id="Grupo_88553" data-name="Grupo 88553" transform="translate(5.58 7.869)">
          <g id="Grupo_88548" data-name="Grupo 88548" transform="translate(173.115)">
            <g id="Grupo_88545" data-name="Grupo 88545" transform="translate(48.349)">
              <path id="Trazado_144823" data-name="Trazado 144823" d="M344.458,437.079h-3.189l-4.106-136.85h4.215Z" transform="translate(-337.164 -300.229)" fill="#263238"/>
              <path id="Trazado_144824" data-name="Trazado 144824" d="M344.458,437.079h-3.189l-4.106-136.85h4.215Z" transform="translate(-337.164 -300.229)" fill="#fff" opacity="0.6"/>
            </g>
            <g id="Grupo_88546" data-name="Grupo 88546" transform="translate(4.215)">
              <path id="Trazado_144825" data-name="Trazado 144825" d="M300.988,300.229v136.85h3.376l3.97-130.6h40.732l2.978,130.6h3.342V300.229Z" transform="translate(-300.988 -300.229)" fill="#263238"/>
              <path id="Trazado_144826" data-name="Trazado 144826" d="M300.988,300.229v136.85h3.376l3.97-130.6h40.732l2.978,130.6h3.342V300.229Z" transform="translate(-300.988 -300.229)" fill="#fff" opacity="0.4"/>
            </g>
            <g id="Grupo_88547" data-name="Grupo 88547">
              <path id="Trazado_144827" data-name="Trazado 144827" d="M301.748,437.079H298.56l-1.026-136.85h4.215Z" transform="translate(-297.533 -300.229)" fill="#263238"/>
              <path id="Trazado_144828" data-name="Trazado 144828" d="M301.748,437.079H298.56l-1.026-136.85h4.215Z" transform="translate(-297.533 -300.229)" fill="#fff" opacity="0.6"/>
            </g>
          </g>
          <g id="Grupo_88552" data-name="Grupo 88552">
            <g id="Grupo_88549" data-name="Grupo 88549" transform="translate(48.349)">
              <path id="Trazado_144829" data-name="Trazado 144829" d="M202.56,437.079h-3.189l-4.106-136.85h4.215Z" transform="translate(-195.266 -300.229)" fill="#263238"/>
              <path id="Trazado_144830" data-name="Trazado 144830" d="M202.56,437.079h-3.189l-4.106-136.85h4.215Z" transform="translate(-195.266 -300.229)" fill="#fff" opacity="0.6"/>
            </g>
            <g id="Grupo_88550" data-name="Grupo 88550" transform="translate(4.215)">
              <path id="Trazado_144831" data-name="Trazado 144831" d="M159.091,300.229v136.85h3.376l3.97-130.6h40.732l2.978,130.6h3.342V300.229Z" transform="translate(-159.091 -300.229)" fill="#263238"/>
              <path id="Trazado_144832" data-name="Trazado 144832" d="M159.091,300.229v136.85h3.376l3.97-130.6h40.732l2.978,130.6h3.342V300.229Z" transform="translate(-159.091 -300.229)" fill="#fff" opacity="0.4"/>
            </g>
            <g id="Grupo_88551" data-name="Grupo 88551">
              <path id="Trazado_144833" data-name="Trazado 144833" d="M159.851,437.079h-3.189l-1.026-136.85h4.215Z" transform="translate(-155.636 -300.229)" fill="#263238"/>
              <path id="Trazado_144834" data-name="Trazado 144834" d="M159.851,437.079h-3.189l-1.026-136.85h4.215Z" transform="translate(-155.636 -300.229)" fill="#fff" opacity="0.6"/>
            </g>
          </g>
        </g>
        <g id="Grupo_88556" data-name="Grupo 88556">
          <g id="Grupo_88554" data-name="Grupo 88554">
            <rect id="Rectángulo_34990" data-name="Rectángulo 34990" width="180.28" height="7.869" fill="#263238"/>
          </g>
          <rect id="Rectángulo_34991" data-name="Rectángulo 34991" width="180.28" height="7.869" fill="#fff" opacity="0.4"/>
          <g id="Grupo_88555" data-name="Grupo 88555" transform="translate(175.379)">
            <rect id="Rectángulo_34992" data-name="Rectángulo 34992" width="67.51" height="7.869" fill="#263238"/>
          </g>
          <rect id="Rectángulo_34993" data-name="Rectángulo 34993" width="67.51" height="7.869" transform="translate(175.379)" fill="#fff" opacity="0.3"/>
        </g>
      </g>
      <g id="Grupo_88560" data-name="Grupo 88560" transform="translate(157.304 0.425)">
        <g id="Grupo_88558" data-name="Grupo 88558">
          <path id="Trazado_144835" data-name="Trazado 144835" d="M331.69,300.5H286.975a2.544,2.544,0,0,1-2.44-2.14l-4.514-32.115a1.816,1.816,0,0,1,1.839-2.139h44.717a2.546,2.546,0,0,1,2.44,2.139l4.513,32.115A1.815,1.815,0,0,1,331.69,300.5Z" transform="translate(-280 -264.109)" fill="#407bff"/>
          <path id="Trazado_144836" data-name="Trazado 144836" d="M331.69,300.5H286.975a2.544,2.544,0,0,1-2.44-2.14l-4.514-32.115a1.816,1.816,0,0,1,1.839-2.139h44.717a2.546,2.546,0,0,1,2.44,2.139l4.513,32.115A1.815,1.815,0,0,1,331.69,300.5Z" transform="translate(-280 -264.109)" fill="#fff" opacity="0.5"/>
          <path id="Trazado_144837" data-name="Trazado 144837" d="M328.287,295.125l-39.734-.184a2.345,2.345,0,0,1-2.248-1.971l-3.532-24.247a1.675,1.675,0,0,1,1.695-1.972l39.734.184a2.344,2.344,0,0,1,2.248,1.972l3.532,24.246A1.675,1.675,0,0,1,328.287,295.125Z" transform="translate(-279.394 -263.528)" fill="#263238"/>
        </g>
        <g id="Grupo_88559" data-name="Grupo 88559" transform="translate(23.932 33.24)">
          <path id="Trazado_144838" data-name="Trazado 144838" d="M355.246,294.362H301.119a1.5,1.5,0,0,1-1.5-1.5h0a1.5,1.5,0,0,1,1.5-1.5h54.126a1.5,1.5,0,0,1,1.5,1.5h0A1.5,1.5,0,0,1,355.246,294.362Z" transform="translate(-299.616 -291.355)" fill="#407bff"/>
        </g>
        <path id="Trazado_144839" data-name="Trazado 144839" d="M355.246,294.362H301.119a1.5,1.5,0,0,1-1.5-1.5h0a1.5,1.5,0,0,1,1.5-1.5h54.126a1.5,1.5,0,0,1,1.5,1.5h0A1.5,1.5,0,0,1,355.246,294.362Z" transform="translate(-275.684 -258.115)" fill="#fff" opacity="0.7"/>
        <path id="Trazado_144840" data-name="Trazado 144840" d="M315.691,294.362H286.824a1.5,1.5,0,0,1-1.5-1.5h0a1.5,1.5,0,0,1,1.5-1.5h28.866a1.5,1.5,0,0,1,1.5,1.5h0A1.5,1.5,0,0,1,315.691,294.362Z" transform="translate(-278.829 -258.115)" fill="#407bff"/>
        <path id="Trazado_144841" data-name="Trazado 144841" d="M315.691,294.362H286.824a1.5,1.5,0,0,1-1.5-1.5h0a1.5,1.5,0,0,1,1.5-1.5h28.866a1.5,1.5,0,0,1,1.5,1.5h0A1.5,1.5,0,0,1,315.691,294.362Z" transform="translate(-278.829 -258.115)" fill="#fff" opacity="0.6"/>
      </g>
    </g>
  </g>
</svg>
