<svg xmlns="http://www.w3.org/2000/svg" width="101" height="101" viewBox="0 0 101 101">
  <g id="img26" transform="translate(-739 -1213.596)">
    <circle id="Elipse_4800" data-name="Elipse 4800" cx="50.5" cy="50.5" r="50.5" transform="translate(739 1213.596)" fill="#3e2ea6"/>
    <g id="Grupo_106828" data-name="Grupo 106828" transform="translate(748.712 1255.566)">
      <path id="Trazado_147681" data-name="Trazado 147681" d="M-3549.257-2635.79a11.455,11.455,0,0,1-3.418-8.338,11.2,11.2,0,0,1,3.47-8.287,11.453,11.453,0,0,1,8.338-3.418,11.285,11.285,0,0,1,8.286,3.418,11.285,11.285,0,0,1,3.418,8.287,11.548,11.548,0,0,1-3.367,8.338,11.154,11.154,0,0,1-8.337,3.469A11.323,11.323,0,0,1-3549.257-2635.79Z" transform="translate(3552.676 2655.833)" fill="#dad6f7"/>
    </g>
    <g id="Grupo_106829" data-name="Grupo 106829" transform="translate(775.386 1255.566)">
      <path id="Trazado_147681-2" data-name="Trazado 147681" d="M-3549.257-2635.79a11.455,11.455,0,0,1-3.418-8.338,11.2,11.2,0,0,1,3.47-8.287,11.453,11.453,0,0,1,8.338-3.418,11.285,11.285,0,0,1,8.286,3.418,11.285,11.285,0,0,1,3.418,8.287,11.548,11.548,0,0,1-3.367,8.338,11.154,11.154,0,0,1-8.337,3.469A11.323,11.323,0,0,1-3549.257-2635.79Z" transform="translate(3552.676 2655.833)" fill="#dad6f7"/>
    </g>
    <g id="Grupo_106830" data-name="Grupo 106830" transform="translate(805.359 1255.566)">
      <path id="Trazado_147681-3" data-name="Trazado 147681" d="M-3549.257-2635.79a11.455,11.455,0,0,1-3.418-8.338,11.2,11.2,0,0,1,3.47-8.287,11.453,11.453,0,0,1,8.338-3.418,11.285,11.285,0,0,1,8.286,3.418,11.285,11.285,0,0,1,3.418,8.287,11.548,11.548,0,0,1-3.367,8.338,11.154,11.154,0,0,1-8.337,3.469A11.323,11.323,0,0,1-3549.257-2635.79Z" transform="translate(3552.676 2655.833)" fill="#dad6f7"/>
    </g>
  </g>
</svg>
