<svg xmlns="http://www.w3.org/2000/svg" width="101" height="101" viewBox="0 0 101 101">
  <g id="img24" transform="translate(-739 -858.815)">
    <circle id="Elipse_4794" data-name="Elipse 4794" cx="50.5" cy="50.5" r="50.5" transform="translate(739 858.815)" fill="#3e2ea6"/>
    <g id="Grupo_106826" data-name="Grupo 106826" transform="translate(4301.388 3556.619)">
      <path id="Trazado_147681" data-name="Trazado 147681" d="M-3548.114-2629.085a15.287,15.287,0,0,1-4.562-11.128,14.946,14.946,0,0,1,4.631-11.059,15.284,15.284,0,0,1,11.128-4.561,15.058,15.058,0,0,1,11.058,4.561,15.059,15.059,0,0,1,4.562,11.059,15.412,15.412,0,0,1-4.493,11.128,14.885,14.885,0,0,1-11.127,4.63A15.112,15.112,0,0,1-3548.114-2629.085Z" fill="#dad6f7"/>
    </g>
  </g>
</svg>
