<svg xmlns="http://www.w3.org/2000/svg" width="141.137" height="118.96" viewBox="0 0 141.137 118.96">
  <g id="img31" transform="translate(-390 -2524.701)">
    <line id="Línea_171" data-name="Línea 171" x2="21.177" transform="translate(508.96 2589.181)" fill="none" stroke="#27dbf0" stroke-linecap="round" stroke-width="2"/>
    <g id="Elipse_4885" data-name="Elipse 4885" transform="translate(390 2524.701)" fill="none" stroke="#27dbf0" stroke-width="3">
      <circle cx="59.48" cy="59.48" r="59.48" stroke="none"/>
      <circle cx="59.48" cy="59.48" r="57.98" fill="none"/>
    </g>
    <g id="img31-2" data-name="img31">
      <circle id="Elipse_4884" data-name="Elipse 4884" cx="50.5" cy="50.5" r="50.5" transform="translate(397.372 2533.682)" fill="#3e2ea6"/>
      <path id="Trazado_147678" data-name="Trazado 147678" d="M1062.2,1011.134c-2.553-2.768-4.868-4.636-7.636-2.087l-28.293,26.084-7.143-8.169c-2.478-2.831-4.98-1.223-7.816,1.256s-4.932,4.888-2.451,7.724l7.378,8.437,6.022,6.887a4.379,4.379,0,0,0,6.265.338l6.726-6.2,28.557-26.327C1066.581,1016.523,1064.755,1013.9,1062.2,1011.134Z" transform="translate(-586.999 1558.88)" fill="#fff"/>
    </g>
  </g>
</svg>
