<svg xmlns="http://www.w3.org/2000/svg" width="457.195" height="496.731" viewBox="0 0 457.195 496.731">
  <g id="img5" transform="translate(2668.615 1905.892)">
    <g id="Grupo_88573" data-name="Grupo 88573" transform="translate(-2668.615 -1718.221)">
      <path id="Trazado_145038" data-name="Trazado 145038" d="M-2527.677-1599.754c-.489-2.089-2.111-3.713-3.793-5.044a22.571,22.571,0,0,1-4.439-4.363q-.456-7.928-1.284-15.83c-.765-7.294-1.784-14.629-4.28-21.524s-6.587-13.389-12.533-17.682a236.642,236.642,0,0,1-19.985,18.966c-4.725,3.919-11.279,5.943-15.861,10.028-6.066,5.407-11.95,11.217-15.921,18.306-5.677,10.138-7.009,22.056-8.229,33.612-1.644,15.563-3.312,30.733-4.956,46.3a161.965,161.965,0,0,0,47.772,17.278c-2.342-12.306-.508-25.411,3.664-37.222a57.3,57.3,0,0,0,11.77,2.282,19.22,19.22,0,0,0,11.506-2.674c4.365-2.85,6.71-7.72,7.917-12.907-1.928-.155-3.424-1.194-3.424-2.467,0-1.379,1.751-2.5,3.913-2.5.116,0,.226.016.34.021.029-.263.06-.528.085-.791a76.445,76.445,0,0,0,.5-12.7,2.93,2.93,0,0,0,1.43-.784,22.558,22.558,0,0,0,4.412-4.4A7.615,7.615,0,0,0-2527.677-1599.754Z" transform="translate(2659.036 1676.477)" fill="#ff8775"/>
      <path id="Trazado_145039" data-name="Trazado 145039" d="M-2630.038-1550.481a23.9,23.9,0,0,1-8.446-14.887,46.012,46.012,0,0,0,22.939,16.363,44.8,44.8,0,0,0,27.794-.109c-4.4-8.864-7.54-18.494-7.911-28.383s2.192-20.067,8.237-27.9c5.891-7.636,14.654-12.639,20.648-20.194,7.013-8.838,9.6-20.288,11.993-31.313a36.9,36.9,0,0,1,5.984,15.532c6.234-5.027,10.039-12.651,9.238-20.619s-6.79-15.4-14.631-17.027c-5.562-1.154-11.263.5-16.833,1.619a90.052,90.052,0,0,1-22.694,1.626c-7.63-.423-15.219-1.818-22.856-1.565a54.253,54.253,0,0,0-46.192,30.287c-7.577,15.96-6.737,34.644-3.377,51.989,1.4,7.231,3.238,14.457,6.628,21C-2653.678-1562.8-2642.168-1554.206-2630.038-1550.481Z" transform="translate(2668.615 1679.411)" fill="#12263f"/>
      <g id="Grupo_88572" data-name="Grupo 88572" transform="translate(67.663 62.368)">
        <path id="Trazado_145040" data-name="Trazado 145040" d="M-2584.709-1592.643a16.372,16.372,0,0,0,4.3,12.59,8.5,8.5,0,0,0,3.495,2.411c3.073.981,6.521-.9,8.2-3.652s1.914-6.154,1.689-9.373c-.29-4.161-1.661-8.785-5.383-10.664C-2578.417-1604.36-2584.168-1598.279-2584.709-1592.643Z" transform="translate(2584.78 1602.137)" fill="#ff8775"/>
        <path id="Trazado_145041" data-name="Trazado 145041" d="M-2571.769-1579.891a7.939,7.939,0,0,1-3-3.16,1.622,1.622,0,0,1-.238-.842c.042-.563.579-.94,1.062-1.232q1.465-.89,2.93-1.777a1.363,1.363,0,0,0,.51-.444,1.345,1.345,0,0,0,.1-.736c-.171-3.192-.45-6.656-2.589-9.03a4.493,4.493,0,0,0-2.132-1.406,4.37,4.37,0,0,0-3.611.879,11.934,11.934,0,0,0-2.533,2.869s-2.2,6.212,1.294,11.121S-2571.769-1579.891-2571.769-1579.891Z" transform="translate(2584.234 1601.46)" fill="#ff8775" style="mix-blend-mode: multiply;isolation: isolate"/>
        <path id="Trazado_145042" data-name="Trazado 145042" d="M-2581.1-1594.771a11.922,11.922,0,0,1,2.532-2.869,4.372,4.372,0,0,1,3.612-.879,4.487,4.487,0,0,1,2.13,1.406c2.141,2.375,2.418,5.838,2.589,9.03a1.341,1.341,0,0,1-.1.736,1.355,1.355,0,0,1-.51.444q-1.465.888-2.93,1.777c-.483.292-1.021.669-1.062,1.232a1.622,1.622,0,0,0,.238.842,7.943,7.943,0,0,0,3,3.16" transform="translate(2584.071 1601.46)" fill="none" stroke="#0a2a6b" stroke-miterlimit="10" stroke-width="1.187"/>
      </g>
      <path id="Trazado_145043" data-name="Trazado 145043" d="M-2525.886-1596.6c0,2.37-1.175,4.292-2.625,4.292s-2.624-1.922-2.624-4.292,1.174-4.292,2.624-4.292S-2525.886-1598.969-2525.886-1596.6Z" transform="translate(2642.094 1664.264)" fill="#0a2a6b"/>
      <path id="Trazado_145044" data-name="Trazado 145044" d="M-2541.98-1603.723a19.456,19.456,0,0,1,3.232-6.086,13.412,13.412,0,0,1,14.087-4.054" transform="translate(2644.187 1666.883)" fill="none" stroke="#0a2a6b" stroke-miterlimit="10" stroke-width="3"/>
      <path id="Trazado_145045" data-name="Trazado 145045" d="M-2557.3-1532.231l-8.668-3.907,7.236,8.334Z" transform="translate(2648.814 1651.773)" fill="#0a2a6b"/>
      <path id="Trazado_145046" data-name="Trazado 145046" d="M-2550.341-1341.344h-107.878s-14.287-80.5,2.5-114.865,28.088-50.381,28.088-50.381,34.725-1.277,58.543,17.279a108.734,108.734,0,0,1,32.89,43.154Z" transform="translate(2667.703 1646.077)" fill="#0f0140"/>
      <path id="Trazado_145047" data-name="Trazado 145047" d="M-2476.967-1483.839l-30.139,55.85-8.108-25.38s-11.415,0-23.129,12.885-16.79,22.257-16.79,22.257l44.123,58.961s24.208-37.1,30.847-58.18,19.523-54.275,19.523-54.275,33.538-11.3,41.774-18.742,12.119-33.543,9.944-37.893-4.662,2.175-5.594,6.837-6.526,17.247-6.526,17.247,6.837-18.335,4.04-31.387-6.37-7.3-7.613-5.593-3.2,13.318-4.7,19.688c-1.052,4.447-4.933,13.1-4.933,13.1a44.948,44.948,0,0,0,2.642-17.868c-.778-9.168-3.418-11.032-4.662-10.722s-.466,7.769-1.553,12.43-3.255,12.975-3.255,12.975l-29.147,20.242A21.994,21.994,0,0,0-2476.967-1483.839Z" transform="translate(2646.724 1653.288)" fill="#ff8775"/>
      <line id="Línea_110" data-name="Línea 110" x1="42.244" y1="53.871" transform="translate(67.663 205.664)" fill="none" stroke="#0a2a6b" stroke-miterlimit="10" stroke-width="1"/>
      <path id="Trazado_145048" data-name="Trazado 145048" d="M-2497.981-1407.635c.254.795,9.862,29.853,9.862,29.853" transform="translate(2635.699 1626.984)" fill="none" stroke="#0a2a6b" stroke-miterlimit="10" stroke-width="1"/>
      <path id="Trazado_145049" data-name="Trazado 145049" d="M-2392.157-1543.746a76.787,76.787,0,0,1-7.485,38.251" transform="translate(2616.728 1653.24)" fill="none" stroke="#0a2a6b" stroke-miterlimit="10" stroke-width="1"/>
      <path id="Trazado_145050" data-name="Trazado 145050" d="M-2405.585-1474.761a34.346,34.346,0,0,0,4.151-7.662,23.85,23.85,0,0,0,6.521-5.8c1.747-2.163,3.44-4.775,2.969-7.515-2.231-.791-4.653.3-6.728,1.444l-16.31,8.966c-.857.471-1.78.624-2.668,1.033a17.787,17.787,0,0,0-9.883,12.753" transform="translate(2622.109 1644.031)" fill="none" stroke="#0a2a6b" stroke-miterlimit="10" stroke-width="1"/>
      <path id="Trazado_145051" data-name="Trazado 145051" d="M-2572.631-1568.4a4.915,4.915,0,0,1-4.916,4.916,4.915,4.915,0,0,1-4.916-4.916,4.916,4.916,0,0,1,4.916-4.916A4.916,4.916,0,0,1-2572.631-1568.4Z" transform="translate(2651.996 1658.945)" fill="#fff"/>
    </g>
    <g id="Grupo_88577" data-name="Grupo 88577" transform="translate(-2429.229 -1714.483)">
      <path id="Trazado_145052" data-name="Trazado 145052" d="M-2306.247-1522.194s15.532-69.839,23.94-109.885c10.414-49.6,97.261-66.506,116.2,11.41s30.3,167.733,21.643,190.458-35.71,20.561-35.71,20.561Z" transform="translate(2359.326 1674.215)" fill="#12263f"/>
      <circle id="Elipse_4712" data-name="Elipse 4712" cx="15.736" cy="15.736" r="15.736" transform="translate(58.089 83.261)" fill="none" stroke="#55a3f3" stroke-miterlimit="10" stroke-width="1"/>
      <path id="Trazado_145053" data-name="Trazado 145053" d="M-2160.51-1320.571l9.761-78.352-62.384,56.346-3.676,22.006Z" transform="translate(2342.073 1621.109)" fill="#7d79e8"/>
      <path id="Trazado_145054" data-name="Trazado 145054" d="M-2241.644-1659.391c-13.646,4.932-23.888,17-29.208,30.5s-6.218,28.352-5.533,42.845c.434,9.155,1.51,18.424,5.012,26.893s9.7,16.138,18.1,19.787c6.628,2.876,14.214,3.079,21.268,1.509s13.633-4.823,19.767-8.642c20.111-12.517,27.4-34.123,31.718-57.414,1.484-8,10.6-14.681,8.017-22.4-4.025-12.022-14.114-21.325-25.569-26.759s-24.235-7.406-36.873-8.416" transform="translate(2353.604 1671.759)" fill="#ff8775"/>
      <path id="Trazado_145055" data-name="Trazado 145055" d="M-2194.235-1611.156a63.273,63.273,0,0,1-29.562-35.7c1.086,6.074.643,11.538,1.729,17.612a1.848,1.848,0,0,1-.005.989,1.257,1.257,0,0,1-1.6.56,3.436,3.436,0,0,1-1.405-1.209,38.577,38.577,0,0,1-8.037-19.6c-5.272,4.981-11.012,10.009-17.2,13.788s-13.4,6.274-20.629,5.7a93.719,93.719,0,0,1,8.307-17.272,44.691,44.691,0,0,1,6.74-8.8,37.345,37.345,0,0,1,12.236-7.644c18.151-7.274,39.491-3.383,56.112,6.918,5.779,3.581,11.2,8,14.805,13.764,5.093,8.14,6.1,18.136,6.378,27.735.27,9.433-.882,25.458-2.957,34.663S-2199.327-1579.819-2194.235-1611.156Z" transform="translate(2352.516 1672.719)" fill="#12263f"/>
      <g id="Grupo_88574" data-name="Grupo 88574" transform="translate(159.595 75.875)">
        <path id="Trazado_145056" data-name="Trazado 145056" d="M-2154.356-1567.655a17.264,17.264,0,0,1-8.044,11.5,8.956,8.956,0,0,1-4.247,1.418c-3.4.094-6.344-2.82-7.235-6.1s-.134-6.8,1.036-9.99c1.514-4.13,4.258-8.413,8.581-9.225C-2157.3-1581.369-2153.252-1573.522-2154.356-1567.655Z" transform="translate(2174.273 1580.205)" fill="#ff8775"/>
        <path id="Trazado_145057" data-name="Trazado 145057" d="M-2169.539-1558.276a8.359,8.359,0,0,0,3.961-2.323,1.7,1.7,0,0,0,.488-.782,1.922,1.922,0,0,0-.714-1.561l-2.447-2.659a1.413,1.413,0,0,1-.387-.6,1.419,1.419,0,0,1,.116-.775c1.109-3.183,2.406-6.61,5.27-8.389a4.74,4.74,0,0,1,2.571-.8,4.607,4.607,0,0,1,3.4,1.949,12.552,12.552,0,0,1,1.725,3.649s.408,6.939-4.571,10.887S-2169.539-1558.276-2169.539-1558.276Z" transform="translate(2173.359 1579.426)" fill="#ff8775" style="mix-blend-mode: multiply;isolation: isolate"/>
        <path id="Trazado_145058" data-name="Trazado 145058" d="M-2155.555-1570.565a12.552,12.552,0,0,0-1.725-3.649,4.607,4.607,0,0,0-3.4-1.949,4.74,4.74,0,0,0-2.571.8c-2.864,1.779-4.161,5.205-5.27,8.389a1.419,1.419,0,0,0-.116.775,1.413,1.413,0,0,0,.387.6l2.447,2.659a1.922,1.922,0,0,1,.714,1.561,1.7,1.7,0,0,1-.488.782,8.359,8.359,0,0,1-3.961,2.323" transform="translate(2173.359 1579.426)" fill="none" stroke="#0a2a6b" stroke-miterlimit="10" stroke-width="1.252"/>
      </g>
      <path id="Trazado_145059" data-name="Trazado 145059" d="M-2252.024-1594.015c-.511,2.669-2.249,4.58-3.882,4.267s-2.54-2.731-2.029-5.4,2.249-4.58,3.882-4.268S-2251.512-1596.685-2252.024-1594.015Z" transform="translate(2350.034 1659.792)" fill="#0a2a6b"/>
      <path id="Trazado_145060" data-name="Trazado 145060" d="M-2210.27-1585.7c-.515,2.689-2.266,4.614-3.909,4.3s-2.56-2.75-2.044-5.439,2.266-4.614,3.91-4.3S-2209.754-1588.392-2210.27-1585.7Z" transform="translate(2341.987 1658.196)" fill="#0a2a6b"/>
      <path id="Trazado_145061" data-name="Trazado 145061" d="M-2266.106-1605.842a19.427,19.427,0,0,1,4.321-5.37,13.411,13.411,0,0,1,14.6-1.33" transform="translate(2351.582 1662.619)" fill="none" stroke="#0a2a6b" stroke-miterlimit="10" stroke-width="3"/>
      <path id="Trazado_145062" data-name="Trazado 145062" d="M-2204.258-1599a19.423,19.423,0,0,0-3.174-6.118,13.411,13.411,0,0,0-14.047-4.189" transform="translate(2342.974 1661.802)" fill="none" stroke="#0a2a6b" stroke-miterlimit="10" stroke-width="3"/>
      <path id="Trazado_145063" data-name="Trazado 145063" d="M-2238.788-1596.045a24.231,24.231,0,0,1-13.066,20.573l5.525,8.07" transform="translate(2348.833 1659.135)" fill="none" stroke="#0a2a6b" stroke-miterlimit="10" stroke-width="2"/>
      <path id="Trazado_145064" data-name="Trazado 145064" d="M-2244.162-1539.2c-.453,1.547-3.055,2.147-5.811,1.339s-4.623-2.716-4.17-4.264,3.055-2.147,5.811-1.339S-2243.708-1540.75-2244.162-1539.2Z" transform="translate(2349.288 1649.062)" fill="#0a2a6b"/>
      <g id="Grupo_88575" data-name="Grupo 88575" transform="translate(38.952 105.27)">
        <path id="Trazado_145065" data-name="Trazado 145065" d="M-2293.637-1467l75.459,23.1s9.436-15.519,18.248-24c5.058-4.871,7.308-6.879,11.471-10.358-7.272-9.43-18-20.487-18-20.487l2.714-45.033-33.57,23.392-6.726,16.893s-15.57-1.429-25.519-1.5c-3.953,4.709-10.519,12.839-14.676,19.594A122.128,122.128,0,0,0-2293.637-1467Z" transform="translate(2317.941 1543.784)" fill="#ff8775"/>
        <path id="Trazado_145066" data-name="Trazado 145066" d="M-2188.139-1460.968c-2.042-2.754-4.112-5.465-6.128-8.079-21.011,16.842-29.719,34.363-29.719,34.363l-75.459-23.1a122.177,122.177,0,0,1,9.4-18.4c4.157-6.755,10.724-14.884,14.675-19.594-6.388-.048-11.466-.218-11.466-.218s-11.843,12.365-28.129,40.493-5.33,39.677-3.257,54.185-5.33,62.026-5.33,62.026h91.185a590.275,590.275,0,0,1,14.054-64.1C-2212.414-1424.578-2204.57-1446.506-2188.139-1460.968Z" transform="translate(2323.75 1534.567)" fill="#7d79e8"/>
      </g>
      <path id="Trazado_145067" data-name="Trazado 145067" d="M-2296.149-1496l-2.792.261a50.04,50.04,0,0,0-38.423,24.394c-8.683,14.7-16.767,36.367-21.582,49.655-5.167,14.261-9.712,29.42-12.63,39.678a11.34,11.34,0,0,0,9.565,14.365,251.4,251.4,0,0,0,50.719.879c32.006-2.8,36.258-3.937,36.258-3.937l45.31,26.473,9.659-30.982s-83.357-41.438-92.658-42.433-17.558,5.393-17.558,5.393-5.237-19.573,1.459-33.936C-2319.991-1465.133-2296.149-1496-2296.149-1496Z" transform="translate(2372.012 1639.837)" fill="#ff8775"/>
      <path id="Trazado_145068" data-name="Trazado 145068" d="M-2239.738-1376.639l21.714-1.227s2.3-15.952,5.215-18.406,18.713-5.468,26.076-2.887-19.069,36.884-19.069,36.884Z" transform="translate(2346.496 1621.346)" fill="#ff8775"/>
      <path id="Trazado_145069" data-name="Trazado 145069" d="M-2324.41-1392.241s-2.657,2.249-7.768,6.747a66.072,66.072,0,0,0-9.406,10.837l38.7-1.432,33.722,25.4" transform="translate(2366.143 1619.82)" fill="none" stroke="#0a2a6b" stroke-miterlimit="10" stroke-width="1"/>
      <g id="Grupo_88576" data-name="Grupo 88576" transform="translate(132.19 178.869)">
        <path id="Trazado_145070" data-name="Trazado 145070" d="M-2171.744-1297.059s1.143-1.826,2.911-4.785h-12.778Z" transform="translate(2203.093 1423.514)" fill="none"/>
        <path id="Trazado_145071" data-name="Trazado 145071" d="M-2148.781-1421.671c-1.5-8.595-9.036-20.079-17.073-30.923-16.431,14.462-24.275,36.39-30.176,57.567-4.927,17.68-8.943,35.2-12.2,53.267l18.173,10.836h11.8a375.77,375.77,0,0,0,18.609-36.894C-2149.556-1391.759-2147.871-1416.462-2148.781-1421.671Z" transform="translate(2208.227 1452.594)" fill="#ff8775"/>
      </g>
      <path id="Trazado_145072" data-name="Trazado 145072" d="M-2189.545-1400.014a14.8,14.8,0,0,1,4.923.438,51.314,51.314,0,0,1,13.635,4.42,21.542,21.542,0,0,1,9.925,10.031,2.248,2.248,0,0,1,.179,1.9c-.445.841-1.458.3-2.371.035-10.2-2.963-19.966-8.27-30.586-8.408a30.868,30.868,0,0,1,10.507,4.69,68.234,68.234,0,0,1,11.779,10.281,27.928,27.928,0,0,1,6.288,9.835,6.338,6.338,0,0,1,0,4.9c-.588,1.1-2.331.865-3.564.681a11.825,11.825,0,0,1-3.5-1.271c-9.092-4.564-16.862-11.634-26.357-15.286,2.615,2.323,5.455,4.856,8.069,7.178a82.605,82.605,0,0,1,7.642,7.4,21.488,21.488,0,0,1,4.32,7,1.619,1.619,0,0,1,.122.7,1.174,1.174,0,0,1-.978.922,12.715,12.715,0,0,1-2.753-.144" transform="translate(2338.578 1621.334)" fill="none" stroke="#0a2a6b" stroke-miterlimit="10" stroke-width="1"/>
      <line id="Línea_111" data-name="Línea 111" x2="45.704" y2="22.134" transform="translate(110.602 244.49)" fill="none" stroke="#0a2a6b" stroke-miterlimit="10" stroke-width="1"/>
      <path id="Trazado_145073" data-name="Trazado 145073" d="M-2197.08-1381.219a89.281,89.281,0,0,1,17.424,9.669,55.153,55.153,0,0,1,13.834,14.248" transform="translate(2338.267 1617.694)" fill="none" stroke="#0a2a6b" stroke-miterlimit="10" stroke-width="1"/>
      <path id="Trazado_145074" data-name="Trazado 145074" d="M-2227.811-1510.983s8.756-.414,18.714-6.763c9.506-6.061,11.009-9.5,11.009-9.5a38.256,38.256,0,0,1-14.122,13.692,60.936,60.936,0,0,1-17.39,6.839Z" transform="translate(2344.54 1645.864)" fill="#0a2a6b"/>
      <path id="Trazado_145075" data-name="Trazado 145075" d="M-2178.662-1521.5a16.291,16.291,0,0,1-16.273-16.274,16.29,16.29,0,0,1,16.273-16.273,16.253,16.253,0,0,1,5.2.849l-.342,1.016a15.2,15.2,0,0,0-4.857-.793,15.217,15.217,0,0,0-15.2,15.2,15.218,15.218,0,0,0,15.2,15.2,15.218,15.218,0,0,0,15.2-15.2,15.177,15.177,0,0,0-5.419-11.636l-.556-.429,1.247-.392a16.249,16.249,0,0,1,5.8,12.457A16.291,16.291,0,0,1-2178.662-1521.5Z" transform="translate(2337.854 1651.035)" fill="#55a3f3"/>
      <path id="Trazado_145076" data-name="Trazado 145076" d="M-2162.228-1548.815" transform="translate(2331.544 1650.025)" fill="none" stroke="#55a3f3" stroke-miterlimit="10" stroke-width="1"/>
      <path id="Trazado_145077" data-name="Trazado 145077" d="M-2168.542-1552.369" transform="translate(2332.762 1650.71)" fill="none" stroke="#55a3f3" stroke-miterlimit="10" stroke-width="1"/>
      <path id="Trazado_145078" data-name="Trazado 145078" d="M-2275.658-1496s-8.324,11-12.79,17.632a197.144,197.144,0,0,0-12.7,22.923l84.088,27.44s7.844-15.8,17.009-25.753,13.136-11.379,13.136-11.379" transform="translate(2358.342 1639.837)" fill="none" stroke="#55a3f3" stroke-miterlimit="10" stroke-width="1"/>
    </g>
    <g id="Grupo_88579" data-name="Grupo 88579" transform="translate(-2557.292 -1905.392)">
      <g id="Grupo_88578" data-name="Grupo 88578" transform="translate(0)">
        <circle id="Elipse_4713" data-name="Elipse 4713" cx="114.017" cy="114.017" r="114.017" transform="translate(7.128)" fill="#fefaf7"/>
        <ellipse id="Elipse_4714" data-name="Elipse 4714" cx="122.721" cy="114.017" rx="122.721" ry="114.017" fill="none" stroke="#55a3f3" stroke-miterlimit="10" stroke-width="1"/>
        <path id="Trazado_145079" data-name="Trazado 145079" d="M-2310.307-1604.594l-37.577-40.563,22.921-6.323Z" transform="translate(2495.421 1856.411)" fill="#fefaf7"/>
        <path id="Trazado_145080" data-name="Trazado 145080" d="M-2476.777-1604.594l37.577-40.563-22.921-6.323Z" transform="translate(2520.286 1856.411)" fill="#fefaf7"/>
      </g>
    </g>
    <circle id="Elipse_4715" data-name="Elipse 4715" cx="7.748" cy="7.748" r="7.748" transform="translate(-2481.617 -1799.098)" fill="#12263f"/>
    <circle id="Elipse_4716" data-name="Elipse 4716" cx="7.748" cy="7.748" r="7.748" transform="translate(-2446.119 -1799.098)" fill="#12263f"/>
    <circle id="Elipse_4717" data-name="Elipse 4717" cx="7.748" cy="7.748" r="7.748" transform="translate(-2412.417 -1799.098)" fill="#12263f"/>
  </g>
</svg>
