<svg xmlns="http://www.w3.org/2000/svg" width="456.426" height="393.749" viewBox="0 0 456.426 393.749">
  <g id="img6" transform="translate(-27.54 -74.221)">
    <g id="freepik--Floor--inject-18">
      <ellipse id="freepik--floor--inject-18-2" data-name="freepik--floor--inject-18" cx="222.46" cy="128.44" rx="222.46" ry="128.44" transform="translate(27.54 211.09)" fill="#e8e8e8"/>
    </g>
    <g id="freepik--Shadows--inject-18">
      <path id="freepik--Shadow--inject-18" d="M64.61,386.28l14.82,8.5a5.49,5.49,0,0,0,5,0l116.86-67.5c1.37-.79,1.37-2.07,0-2.85l-15-8.43a5.54,5.54,0,0,0-5,0L64.61,383.42C63.24,384.21,63.24,385.49,64.61,386.28Z" fill="#e0e0e0"/>
      <path id="freepik--shadow--inject-18-2" data-name="freepik--shadow--inject-18" d="M434.09,386.28l-14.82,8.5a5.51,5.51,0,0,1-5,0l-116.86-67.5c-1.37-.79-1.36-2.07,0-2.85l15-8.43a5.54,5.54,0,0,1,5,0l116.68,67.4C435.46,384.21,435.46,385.49,434.09,386.28Z" fill="#e0e0e0"/>
    </g>
    <g id="freepik--Gears--inject-18">
      <g id="freepik--gears--inject-18-2" data-name="freepik--gears--inject-18">
        <path id="Trazado_147998" data-name="Trazado 147998" d="M57.28,181.15a11.33,11.33,0,0,1-5.14,3.33l-.21.05h-.16l-.35.06h-.66a.24.24,0,0,1-.12,0,4,4,0,0,1-3.72-2.49,6.85,6.85,0,0,1-.54-2.07c.31-.14.62-.31.94-.49a17.51,17.51,0,0,0,7.92-13.73v-1.07a6.19,6.19,0,0,1,2.8-.6h.31a.39.39,0,0,1,.15,0,4,4,0,0,1,3.11,2.45C63.24,170.42,61.32,176.89,57.28,181.15Z" fill="#ba68c8"/>
        <path id="Trazado_147999" data-name="Trazado 147999" d="M71.93,169.13h0a.61.61,0,0,0-.25-.06l-3.38-.19a.55.55,0,0,1-.57-.55c.05-.54.07-1.07.08-1.58a15.258,15.258,0,0,0-.08-1.68,1.63,1.63,0,0,1,.38-1l3.77-4.58a1,1,0,0,0,.23-.94l-1.79-4a.26.26,0,0,0-.11-.12h0a.52.52,0,0,0-.58.18l-4,3.68a.71.71,0,0,1-.88.15,6.48,6.48,0,0,0-1.72-1,.64.64,0,0,1-.41-.7l1.24-5.65a.36.36,0,0,0-.17-.4.69.69,0,0,0-.37-.06l-4,.39a1.12,1.12,0,0,0-.86.6l-2.14,5.74a1.83,1.83,0,0,1-.86.83A16.711,16.711,0,0,0,53,159.61c-.34.22-.71.24-.85,0l-2-3.09c-.14-.22-.47-.17-.73.1l-4.33,4.58a1.16,1.16,0,0,0-.34.95l1.21,4.08a1.45,1.45,0,0,1-.22,1,34.157,34.157,0,0,0-2,3.45,1.6,1.6,0,0,1-.94.71l-3.71.89a1.21,1.21,0,0,0-.84.7l-1.87,6.28a.44.44,0,0,0,.46.56l3.39.2a.54.54,0,0,1,.57.55,18.7,18.7,0,0,0,0,3.26,1.6,1.6,0,0,1-.36,1l-3.78,4.58a1,1,0,0,0-.23.94l1.79,4a.36.36,0,0,0,.11.13h0a.23.23,0,0,0,.14,0h0a.67.67,0,0,0,.44-.21l4-3.69a.71.71,0,0,1,.88-.14,6.339,6.339,0,0,0,1.72,1,.64.64,0,0,1,.41.71l-1.25,5.65a.36.36,0,0,0,.17.38h0a.6.6,0,0,0,.37.07l4-.39a1.12,1.12,0,0,0,.86-.6l2.14-5.74a1.89,1.89,0,0,1,.86-.84,12.7,12.7,0,0,0,1.26-.66c.39-.23.79-.48,1.19-.75s.7-.24.84,0l2,3.08a.28.28,0,0,0,.1.09c.16.11.42,0,.63-.19l4.33-4.57a1.12,1.12,0,0,0,.33-1l-1.2-4.09a1.36,1.36,0,0,1,.22-1,31.532,31.532,0,0,0,2-3.46,1.57,1.57,0,0,1,1-.7l3.7-.89a1.21,1.21,0,0,0,.84-.7l1.87-6.28a.43.43,0,0,0-.25-.43ZM52.15,184.48l-.22.05h-.16l-.35.06h-.78a4,4,0,0,1-3.72-2.5,6.78,6.78,0,0,1-.54-2.07,10.79,10.79,0,0,1-.06-1.15,17.68,17.68,0,0,1,4.89-11.22,13.64,13.64,0,0,1,3-2.42,9.44,9.44,0,0,1,1-.51,6.31,6.31,0,0,1,2.8-.59h.47a4,4,0,0,1,3.1,2.45c1.67,3.7-.25,10.16-4.29,14.43a11.27,11.27,0,0,1-5.14,3.47Z" fill="#f5f5f5"/>
        <line id="Línea_163" data-name="Línea 163" x2="7.98" y2="4.62" transform="translate(62.21 149.83)" fill="none"/>
        <path id="Trazado_148000" data-name="Trazado 148000" d="M56.28,157.39a2,2,0,0,1-.85.8A16.2,16.2,0,0,0,53,159.61c-.34.22-.71.24-.85,0l-2-3.08a.22.22,0,0,0-.1-.09h0l-3.79-2.19a12.694,12.694,0,0,1,1.26-.66l.14-.08a2.2,2.2,0,0,0,.41-.33l.15-.16a.42.42,0,0,0,.08-.12l.06-.11Z" fill="#ebebeb"/>
        <path id="Trazado_148001" data-name="Trazado 148001" d="M46,166.38h0a1.54,1.54,0,0,1-.24.86,35.078,35.078,0,0,0-2,3.45,1.11,1.11,0,0,1-.19.27l-8-4.61a.63.63,0,0,0,.11-.13.61.61,0,0,0,.1-.14,31.531,31.531,0,0,1,2-3.46,1,1,0,0,0,.1-.18v-.12a.19.19,0,0,0,0-.07h0a1.361,1.361,0,0,0,0-.17.78.78,0,0,0,0-.26Z" fill="#ebebeb"/>
        <line id="Línea_164" data-name="Línea 164" x1="0.09" y1="0.05" transform="translate(62.21 149.83)" fill="none"/>
        <path id="Trazado_148002" data-name="Trazado 148002" d="M46.2,154.24l-4.14-2.4a.35.35,0,0,0-.18-.05.63.63,0,0,0-.45.24h0l-2.59,2.74L37.1,156.6a1.41,1.41,0,0,0-.31.54l6.09,3.5,1.89,1.08a1.42,1.42,0,0,1,.3-.5l.06-.06,4.27-4.52a.59.59,0,0,1,.6-.21Z" fill="#f5f5f5"/>
        <path id="Trazado_148003" data-name="Trazado 148003" d="M63.58,150.68a.53.53,0,0,0-.34-.05l-4,.39a1.15,1.15,0,0,0-.65.3l-8-4.6a1.1,1.1,0,0,1,.65-.31l4-.39a.6.6,0,0,1,.39.07l1.06.62.53.3,3.38,2,.83.48.61.35Z" fill="#f5f5f5"/>
        <path id="Trazado_148004" data-name="Trazado 148004" d="M43.52,171a1.76,1.76,0,0,1-.74.44l-3.71.89a1.28,1.28,0,0,0-.69.43l-8-4.59a1.36,1.36,0,0,1,.71-.46l3.71-.89a1.45,1.45,0,0,0,.72-.43h0Z" fill="#e6e6e6"/>
        <path id="Trazado_148005" data-name="Trazado 148005" d="M40.7,184.29a1.92,1.92,0,0,1-.29.55l-3.78,4.58a1.35,1.35,0,0,0-.24.46l-8-4.61a1.11,1.11,0,0,1,.24-.47l3.78-4.58a1.8,1.8,0,0,0,.29-.53Z" fill="#e6e6e6"/>
        <path id="Trazado_148006" data-name="Trazado 148006" d="M30.47,176.24l.11.07-.14-.09-.28-.16Z" fill="#e0e0e0"/>
        <path id="Trazado_148007" data-name="Trazado 148007" d="M57.28,181.15a11.33,11.33,0,0,1-5.14,3.33l-.21.05h-.16l-.35.06h-.66a.24.24,0,0,1-.12,0,4,4,0,0,1-3.72-2.49,6.85,6.85,0,0,1-.54-2.07c.31-.14.62-.31.94-.49a17.51,17.51,0,0,0,7.92-13.73v-1.07a6.19,6.19,0,0,1,2.8-.6h.31a.39.39,0,0,1,.15,0,4,4,0,0,1,3.11,2.45C63.24,170.42,61.32,176.89,57.28,181.15Z" fill="#e0e0e0"/>
        <path id="Trazado_148008" data-name="Trazado 148008" d="M46,166.38l-8-4.6a.39.39,0,0,0,0-.15l-1.21-4.08a.74.74,0,0,1,0-.41l6.09,3.5,1.89,1.08a.81.81,0,0,0,0,.45l1.21,4.08A.51.51,0,0,1,46,166.38Z" fill="#e0e0e0"/>
        <path id="Trazado_148009" data-name="Trazado 148009" d="M58.64,151.32a.86.86,0,0,0-.21.3l-2.14,5.74h0l-8-4.61h0L50.46,147a.66.66,0,0,1,.21-.29Z" fill="#e0e0e0"/>
        <path id="Trazado_148010" data-name="Trazado 148010" d="M70.14,154.42a.56.56,0,0,0-.55.19l-4,3.69a.73.73,0,0,1-.89.15,6.48,6.48,0,0,0-1.72-1,.64.64,0,0,1-.41-.7l1.24-5.65a.35.35,0,0,0-.17-.4h0l-1.51-.88a.32.32,0,0,1,.14,0l.09.06Z" fill="#e0e0e0"/>
        <path id="Trazado_148011" data-name="Trazado 148011" d="M71.91,169.12a.61.61,0,0,0-.25-.06l-3.38-.19a.55.55,0,0,1-.57-.55c.05-.54.08-1.07.08-1.59Z" fill="#e0e0e0"/>
        <path id="Trazado_148012" data-name="Trazado 148012" d="M35.65,166.22a.63.63,0,0,1-.11.13h0A.71.71,0,0,0,35.65,166.22Z" fill="#e0e0e0"/>
        <path id="Trazado_148013" data-name="Trazado 148013" d="M30.39,168.13a.94.94,0,0,0-.13.24l-.23.78-1.22,4.1-.41,1.4a.37.37,0,0,0,0,.23.5.5,0,0,0,.05.13.94.94,0,0,0,.1.1h.06l.63.37.17.09h0l.5.28.26.16.31.18.11.07.33.18,1.8,1h0l3.8,2.2a.41.41,0,0,1-.17-.47L38,173.76l.23-.78a.87.87,0,0,1,.15-.26Z" fill="#e0e0e0"/>
        <path id="Trazado_148014" data-name="Trazado 148014" d="M58.47,192.45h0L54.32,190c.39-.23.79-.48,1.19-.75s.7-.24.84,0l2,3.09a.28.28,0,0,0,.12.11Z" fill="#e0e0e0"/>
        <path id="Trazado_148015" data-name="Trazado 148015" d="M46,192.15l-1.25,5.66a.36.36,0,0,0,.17.38l-6.4-3.7a.73.73,0,0,0,.44-.21l4-3.68a.72.72,0,0,1,.88-.16,6.12,6.12,0,0,0,1.72,1,.63.63,0,0,1,.44.71Z" fill="#e0e0e0"/>
        <path id="Trazado_148016" data-name="Trazado 148016" d="M40.77,183.84a1,1,0,0,1-.07.45l-8-4.6a1.2,1.2,0,0,0,.07-.46c0-.55-.07-1.11-.07-1.69l3.8,2.2h0a.6.6,0,0,0,.27.07l3.39.19a.55.55,0,0,1,.57.56,18.7,18.7,0,0,0,.04,3.28Z" fill="#e0e0e0"/>
        <path id="Trazado_148017" data-name="Trazado 148017" d="M38.29,194.44l-1.62-.94-.31-.17-2.61-1.52-.71-.4-2.68-1.56h0a.15.15,0,0,1-.06-.05.18.18,0,0,1-.05-.08l-1.8-4a.52.52,0,0,1,0-.33s0-.09,0-.14l8,4.61a.68.68,0,0,0,0,.47l1.79,4A.31.31,0,0,0,38.29,194.44Z" fill="#e0e0e0"/>
        <path id="Trazado_148018" data-name="Trazado 148018" d="M104.84,104.58a.85.85,0,0,0-.34-.09l-4.65-.26a.75.75,0,0,1-.78-.76c.06-.73.1-1.46.11-2.17a21.8,21.8,0,0,0-.13-2.3,2.27,2.27,0,0,1,.51-1.37l5.19-6.28a1.43,1.43,0,0,0,.32-1.3L102.6,84.6a.31.31,0,0,0-.15-.17h0a.76.76,0,0,0-.79.25l-5.55,5.06a1,1,0,0,1-1.21.2,8.52,8.52,0,0,0-2.37-1.37.9.9,0,0,1-.56-1l1.71-7.76a.47.47,0,0,0-.23-.55.86.86,0,0,0-.52-.09l-5.42.54a1.49,1.49,0,0,0-1.18.83L83.36,88.4a2.54,2.54,0,0,1-1.19,1.14,23.76,23.76,0,0,0-3.35,1.95c-.46.3-1,.32-1.17,0l-2.77-4.23c-.2-.3-.64-.24-1,.13L67.93,93.7a1.54,1.54,0,0,0-.46,1.3l1.65,5.62a1.89,1.89,0,0,1-.3,1.35,45.22,45.22,0,0,0-2.74,4.75,2.16,2.16,0,0,1-1.29,1l-5.09,1.22a1.73,1.73,0,0,0-1.16,1L56,118.5a.62.62,0,0,0,.63.78l4.66.26a.76.76,0,0,1,.78.76,24.84,24.84,0,0,0,0,4.48,2.17,2.17,0,0,1-.5,1.37l-5.19,6.29a1.38,1.38,0,0,0-.32,1.29l2.47,5.45a.28.28,0,0,0,.15.17h0a.32.32,0,0,0,.19,0h0a.93.93,0,0,0,.6-.28L65,134.06a1,1,0,0,1,1.21-.2,9.12,9.12,0,0,0,2.37,1.38.87.87,0,0,1,.56,1L67.44,144a.47.47,0,0,0,.22.53h0a.82.82,0,0,0,.51.09l5.42-.53a1.55,1.55,0,0,0,1.19-.83l2.94-7.88a2.58,2.58,0,0,1,1.18-1.15c.57-.27,1.15-.57,1.73-.91s1.08-.66,1.63-1,1-.33,1.16,0l2.78,4.24a.3.3,0,0,0,.13.12c.23.14.57.05.86-.26l6-6.29a1.56,1.56,0,0,0,.46-1.3L92,123.14a1.88,1.88,0,0,1,.31-1.35A45.258,45.258,0,0,0,95,117a2.13,2.13,0,0,1,1.3-1l5.09-1.23a1.65,1.65,0,0,0,1.15-1l2.57-8.62a.56.56,0,0,0-.27-.57ZM77.66,125.66l-.3.07a.8.8,0,0,1-.21,0l-.48.08-.56.06H75.6a5.45,5.45,0,0,1-5.11-3.43,9.56,9.56,0,0,1-.75-2.85,11.54,11.54,0,0,1-.08-1.57c0-4.92,2.56-11,6.72-15.41a18.91,18.91,0,0,1,4.11-3.33,11.841,11.841,0,0,1,1.37-.7,8.62,8.62,0,0,1,3.84-.82h.65a5.43,5.43,0,0,1,4.26,3.37c2.3,5.08-.34,14-5.89,19.82a15.49,15.49,0,0,1-7.06,4.71Z" fill="#f5f5f5"/>
        <line id="Línea_165" data-name="Línea 165" x2="10.96" y2="6.35" transform="translate(91.49 78.05)" fill="none"/>
        <path id="Trazado_148019" data-name="Trazado 148019" d="M83.34,88.44a2.56,2.56,0,0,1-1.17,1.1,24.67,24.67,0,0,0-3.35,1.94c-.46.31-1,.34-1.17,0l-2.76-4.23a.31.31,0,0,0-.15-.13h0L72,85.52c.58-.33,1.15-.64,1.72-.9l.2-.11a2.76,2.76,0,0,0,.56-.45,1.51,1.51,0,0,0,.21-.23.72.72,0,0,0,.11-.15l.08-.15Z" fill="#ebebeb"/>
        <path id="Trazado_148020" data-name="Trazado 148020" d="M69.15,100.79h0a2.07,2.07,0,0,1-.33,1.17,47,47,0,0,0-2.74,4.75,1.47,1.47,0,0,1-.27.36l-8.51-4.91a.9.9,0,0,0,.16-.18,1.62,1.62,0,0,0,.13-.19A42,42,0,0,1,60.32,97a.92.92,0,0,0,.13-.24.48.48,0,0,0,.07-.18.25.25,0,0,0,0-.09h0v-.23a.9.9,0,0,0,0-.36Z" fill="#ebebeb"/>
        <line id="Línea_166" data-name="Línea 166" x1="0.13" y1="0.07" transform="translate(91.49 78.05)" fill="none"/>
        <path id="Trazado_148021" data-name="Trazado 148021" d="M72,85.52l-5.69-3.29a.48.48,0,0,0-.24-.07.91.91,0,0,0-.64.33h0l-3.56,3.76-2.39,2.52a1.93,1.93,0,0,0-.42.75l5.91,3.38,2.6,1.49a1.81,1.81,0,0,1,.41-.69l.08-.08,5.87-6.21a.8.8,0,0,1,.82-.29Z" fill="#f5f5f5"/>
        <path id="Trazado_148022" data-name="Trazado 148022" d="M93.38,79.22a.87.87,0,0,0-.47-.07l-5.43.54a1.66,1.66,0,0,0-.89.41l-8.51-4.91a1.63,1.63,0,0,1,.9-.42l5.43-.54a.81.81,0,0,1,.53.1l1.46.85.72.42,2.19,1.27,1.15.67c.29.15.57.32.83.47Z" fill="#f5f5f5"/>
        <path id="Trazado_148023" data-name="Trazado 148023" d="M65.81,107.08a2.18,2.18,0,0,1-1,.6l-5.1,1.23a1.74,1.74,0,0,0-.93.6l-8.53-4.9a1.83,1.83,0,0,1,1-.63l5.09-1.22a2.19,2.19,0,0,0,1-.59h0Z" fill="#e6e6e6"/>
        <path id="Trazado_148024" data-name="Trazado 148024" d="M61.94,125.4a2.28,2.28,0,0,1-.41.75l-5.18,6.29a1.74,1.74,0,0,0-.33.63l-8.5-4.91a1.61,1.61,0,0,1,.32-.64l5.2-6.29a2.29,2.29,0,0,0,.39-.74Z" fill="#e6e6e6"/>
        <path id="Trazado_148025" data-name="Trazado 148025" d="M50.33,115.75l.16.1-.2-.12-.38-.22Z" fill="#e0e0e0"/>
        <path id="Trazado_148026" data-name="Trazado 148026" d="M84.71,121.09a15.52,15.52,0,0,1-7,4.57l-.3.07a.8.8,0,0,1-.21,0l-.48.08a5.324,5.324,0,0,1-.56.06h-.52a5.43,5.43,0,0,1-5.1-3.43,9.48,9.48,0,0,1-.75-2.85c.42-.19.85-.42,1.29-.66,6-3.48,10.89-11.92,10.89-18.87a11.886,11.886,0,0,0-.06-1.48,8.6,8.6,0,0,1,3.84-.81h.43a.76.76,0,0,1,.21,0,5.45,5.45,0,0,1,4.27,3.36C92.91,106.34,90.27,115.23,84.71,121.09Z" fill="#e0e0e0"/>
        <path id="Trazado_148027" data-name="Trazado 148027" d="M69.15,100.79l-8.51-4.9a.66.66,0,0,0,0-.2L59,90.08a1,1,0,0,1,0-.56l5.91,3.38,2.6,1.49a1.15,1.15,0,0,0-.06.62l1.66,5.6a.52.52,0,0,1,.04.18Z" fill="#e0e0e0"/>
        <path id="Trazado_148028" data-name="Trazado 148028" d="M86.59,80.1a1.14,1.14,0,0,0-.29.42L83.36,88.4h0l-8.51-4.91v-.06l2.94-7.88a1,1,0,0,1,.28-.4Z" fill="#e0e0e0"/>
        <path id="Trazado_148029" data-name="Trazado 148029" d="M102.39,84.36a.78.78,0,0,0-.77.27l-5.53,5.06a1,1,0,0,1-1.22.2,8.52,8.52,0,0,0-2.37-1.37.9.9,0,0,1-.56-1l1.71-7.75a.48.48,0,0,0-.24-.55h0L91.29,78a.52.52,0,0,1,.21,0l.12.07Z" fill="#e0e0e0"/>
        <path id="Trazado_148030" data-name="Trazado 148030" d="M104.82,104.56a.71.71,0,0,0-.34-.08l-4.65-.26a.76.76,0,0,1-.78-.77c.06-.73.1-1.46.1-2.17Z" fill="#e0e0e0"/>
        <path id="Trazado_148031" data-name="Trazado 148031" d="M57.46,102a.9.9,0,0,1-.16.18h0Z" fill="#e0e0e0"/>
        <path id="Trazado_148032" data-name="Trazado 148032" d="M50.23,104.61A1.05,1.05,0,0,0,50,105l-.27,1-1.67,5.63-.57,1.93a.47.47,0,0,0,0,.31.36.36,0,0,0,.07.17.57.57,0,0,0,.13.14.31.31,0,0,0,.09.06l.85.5.24.13h0l.68.39.37.22.42.24.16.1.45.25,2.48,1.43h0l2.77,1.6a.56.56,0,0,1-.23-.65l2.25-7.57.32-1.06a.83.83,0,0,1,.21-.36Z" fill="#e0e0e0"/>
        <path id="Trazado_148033" data-name="Trazado 148033" d="M86.35,136.6h0l-5.7-3.31c.53-.31,1.09-.66,1.63-1s1-.33,1.16,0l2.77,4.24A.5.5,0,0,0,86.35,136.6Z" fill="#e0e0e0"/>
        <path id="Trazado_148034" data-name="Trazado 148034" d="M69.15,136.2,67.44,144a.47.47,0,0,0,.23.53c-.35-.19-5.71-3.3-8.8-5.09a1,1,0,0,0,.6-.28l5.53-5.1a1,1,0,0,1,1.21-.21,8.62,8.62,0,0,0,2.37,1.39.87.87,0,0,1,.57.96Z" fill="#e0e0e0"/>
        <path id="Trazado_148035" data-name="Trazado 148035" d="M62,124.78a1.48,1.48,0,0,1-.1.62l-8.51-4.91a1.58,1.58,0,0,0,.11-.63,22,22,0,0,1-.1-2.31l2.77,1.6h0a.89.89,0,0,0,.37.11l4.66.26a.76.76,0,0,1,.78.76,24.841,24.841,0,0,0,.02,4.5Z" fill="#e0e0e0"/>
        <path id="Trazado_148036" data-name="Trazado 148036" d="M58.63,139.35l-2.23-1.29-.42-.25-3.59-2.07c-.34-.2-.66-.39-1-.56l-1.23-.73h0a.35.35,0,0,1-.09-.07.34.34,0,0,1-.07-.11l-2.47-5.46a.74.74,0,0,1,0-.45,1.48,1.48,0,0,1,0-.19l8.5,4.91a1,1,0,0,0,0,.66l2.46,5.45a.47.47,0,0,0,.14.16Z" fill="#e0e0e0"/>
      </g>
      <g id="freepik--gears--inject-18-3" data-name="freepik--gears--inject-18">
        <path id="Trazado_148037" data-name="Trazado 148037" d="M410.76,109.36a11.17,11.17,0,0,0,5.13,3.33h.37l.35.06h.66a.24.24,0,0,0,.12,0,4,4,0,0,0,3.72-2.49,6.779,6.779,0,0,0,.54-2.07c-.3-.14-.62-.31-.93-.49a17.49,17.49,0,0,1-7.93-13.73c0-.38,0-.73,0-1.07a6.19,6.19,0,0,0-2.8-.6h-.46a4,4,0,0,0-3.11,2.45C404.79,98.63,406.71,105.1,410.76,109.36Z" fill="#ba68c8"/>
        <path id="Trazado_148038" data-name="Trazado 148038" d="M395.9,97.84l1.87,6.28a1.21,1.21,0,0,0,.84.7l3.71.89a1.55,1.55,0,0,1,.94.7,33.231,33.231,0,0,0,2,3.46,1.38,1.38,0,0,1,.22,1l-1.2,4.08a1.12,1.12,0,0,0,.33,1l4.34,4.57c.21.23.46.3.62.2a.28.28,0,0,0,.1-.09l2-3.09c.14-.22.52-.2.85,0s.79.53,1.19.76.84.46,1.25.66a1.83,1.83,0,0,1,.86.83l2.14,5.74a1.12,1.12,0,0,0,.87.6l3.94.39a.6.6,0,0,0,.37-.07h0a.34.34,0,0,0,.16-.38l-1.25-5.65a.65.65,0,0,1,.41-.71,6.39,6.39,0,0,0,1.73-1,.72.72,0,0,1,.88.15l4,3.68a.69.69,0,0,0,.44.21h0a.32.32,0,0,0,.14,0h0a.24.24,0,0,0,.11-.13l1.79-4a1,1,0,0,0-.23-.94l-3.77-4.58a1.56,1.56,0,0,1-.37-1,17.771,17.771,0,0,0,0-3.26.55.55,0,0,1,.57-.55l3.39-.19a.45.45,0,0,0,.46-.57l-1.87-6.28a1.21,1.21,0,0,0-.84-.7l-3.7-.89a1.56,1.56,0,0,1-.94-.7,33.335,33.335,0,0,0-2-3.46,1.42,1.42,0,0,1-.22-1l1.21-4.09a1.13,1.13,0,0,0-.34-.95l-4.33-4.58c-.26-.27-.58-.31-.73-.09l-2,3.08c-.14.22-.51.2-.84,0a17.75,17.75,0,0,0-2.45-1.42,1.83,1.83,0,0,1-.86-.83l-2.14-5.74a1.1,1.1,0,0,0-.86-.6l-3.94-.39a.74.74,0,0,0-.38.06.36.36,0,0,0-.17.4L405.49,85a.65.65,0,0,1-.4.71,6.24,6.24,0,0,0-1.73,1,.72.72,0,0,1-.88-.15l-4-3.68c-.21-.19-.43-.26-.58-.18h0a.29.29,0,0,0-.1.12l-1.8,4a1,1,0,0,0,.23.94L400,92.27a1.68,1.68,0,0,1,.37,1,15.382,15.382,0,0,0-.08,1.68,10.929,10.929,0,0,0,.08,1.58.55.55,0,0,1-.57.55l-3.38.19a.66.66,0,0,0-.25.06h0a.43.43,0,0,0-.27.51Zm14.85,11.52c-4-4.26-6-10.73-4.28-14.43a3.94,3.94,0,0,1,3.1-2.45H410a6.29,6.29,0,0,1,2.79.59c.33.15.67.32,1,.51a13.421,13.421,0,0,1,3,2.43,17.63,17.63,0,0,1,4.89,11.21,7.194,7.194,0,0,1-.06,1.15,6.781,6.781,0,0,1-.54,2.07,4,4,0,0,1-3.72,2.5h-.77l-.35-.06h-.15l-.22-.06a11.3,11.3,0,0,1-5.12-3.46Z" fill="#f5f5f5"/>
        <line id="Línea_167" data-name="Línea 167" x1="7.97" y2="4.62" transform="translate(397.85 78.04)" fill="none"/>
        <path id="Trazado_148039" data-name="Trazado 148039" d="M411.76,85.6a1.77,1.77,0,0,0,.84.8,17.752,17.752,0,0,1,2.45,1.42c.33.22.7.24.84,0l2-3.08a.24.24,0,0,1,.1-.1h0l3.79-2.19c-.42-.24-.84-.47-1.25-.66a.71.71,0,0,1-.15-.08,2.2,2.2,0,0,1-.41-.33l-.15-.16a.828.828,0,0,1-.08-.12l-.06-.11Z" fill="#ebebeb"/>
        <path id="Trazado_148040" data-name="Trazado 148040" d="M422.09,94.59h0a1.44,1.44,0,0,0,.23.85,33.334,33.334,0,0,1,2,3.46.79.79,0,0,0,.2.26l8-4.61a.45.45,0,0,1-.11-.13.57.57,0,0,1-.1-.13,31.657,31.657,0,0,0-2-3.47.909.909,0,0,1-.09-.17.35.35,0,0,1-.05-.13s0,0,0-.07h0a1.22,1.22,0,0,1,0-.17.47.47,0,0,1,0-.26Z" fill="#ebebeb"/>
        <line id="Línea_168" data-name="Línea 168" y1="0.05" x2="0.1" transform="translate(405.73 78.04)" fill="none"/>
        <path id="Trazado_148041" data-name="Trazado 148041" d="M421.83,82.45l4.14-2.4a.35.35,0,0,1,.18,0,.65.65,0,0,1,.46.24h0L429.2,83l1.74,1.83a1.37,1.37,0,0,1,.31.55l-6.09,3.49-1.89,1.08a1.24,1.24,0,0,0-.3-.5l-.05-.06-4.28-4.52a.58.58,0,0,0-.6-.21Z" fill="#f5f5f5"/>
        <path id="Trazado_148042" data-name="Trazado 148042" d="M404.45,78.89a.72.72,0,0,1,.34,0l3.95.39a1.12,1.12,0,0,1,.65.3l8-4.6a1.1,1.1,0,0,0-.66-.31l-3.95-.39a.6.6,0,0,0-.39.07l-1.06.62-.52.3-3.38,2-.84.49L406,78Z" fill="#f5f5f5"/>
        <path id="Trazado_148043" data-name="Trazado 148043" d="M424.52,99.17a1.65,1.65,0,0,0,.74.44l3.71.89a1.35,1.35,0,0,1,.68.43l8-4.59a1.38,1.38,0,0,0-.71-.46l-3.7-.89a1.53,1.53,0,0,1-.73-.43h0Z" fill="#e6e6e6"/>
        <path id="Trazado_148044" data-name="Trazado 148044" d="M427.33,112.5a1.72,1.72,0,0,0,.3.55l3.77,4.58a1.2,1.2,0,0,1,.24.46l8-4.61a1.17,1.17,0,0,0-.24-.47l-3.78-4.58a1.58,1.58,0,0,1-.28-.53Z" fill="#e6e6e6"/>
        <path id="Trazado_148045" data-name="Trazado 148045" d="M437.56,104.45l-.11.07.14-.08.28-.16Z" fill="#e0e0e0"/>
        <path id="Trazado_148046" data-name="Trazado 148046" d="M410.76,109.36a11.17,11.17,0,0,0,5.13,3.33h.37l.35.06h.66a.24.24,0,0,0,.12,0,4,4,0,0,0,3.72-2.49,6.779,6.779,0,0,0,.54-2.07c-.3-.14-.62-.31-.93-.49a17.49,17.49,0,0,1-7.93-13.73c0-.38,0-.73,0-1.07a6.19,6.19,0,0,0-2.8-.6h-.46a4,4,0,0,0-3.11,2.45C404.79,98.63,406.71,105.1,410.76,109.36Z" fill="#e0e0e0"/>
        <path id="Trazado_148047" data-name="Trazado 148047" d="M422.09,94.59l8-4.6a.321.321,0,0,1,0-.14l1.21-4.09a.7.7,0,0,0,0-.4l-6.09,3.49-1.89,1.08a.81.81,0,0,1,0,.45l-1.2,4.08a.27.27,0,0,0-.03.13Z" fill="#e0e0e0"/>
        <path id="Trazado_148048" data-name="Trazado 148048" d="M409.39,79.53a.82.82,0,0,1,.21.3l2.14,5.74h0l8-4.61h0l-2.14-5.74a.72.72,0,0,0-.2-.29Z" fill="#e0e0e0"/>
        <path id="Trazado_148049" data-name="Trazado 148049" d="M397.89,82.63a.61.61,0,0,1,.56.19l4,3.69a.71.71,0,0,0,.88.15,6.239,6.239,0,0,1,1.73-1,.64.64,0,0,0,.4-.71l-1.24-5.65a.36.36,0,0,1,.17-.4h0L406,78a.37.37,0,0,0-.15,0,.26.26,0,0,0-.09,0Z" fill="#e0e0e0"/>
        <path id="Trazado_148050" data-name="Trazado 148050" d="M396.12,97.33a.61.61,0,0,1,.25-.06l3.39-.19a.54.54,0,0,0,.56-.55c0-.54-.07-1.07-.07-1.58Z" fill="#e0e0e0"/>
        <path id="Trazado_148051" data-name="Trazado 148051" d="M432.38,94.43a.45.45,0,0,0,.11.13h0Z" fill="#e0e0e0"/>
        <path id="Trazado_148052" data-name="Trazado 148052" d="M437.64,96.34a.67.67,0,0,1,.13.25l.23.77,1.22,4.1.42,1.41a.45.45,0,0,1,0,.23.31.31,0,0,1-.05.12.43.43,0,0,1-.09.1h-.07l-.62.37-.18.09h0l-.49.29-.27.16-.31.17-.11.07-.33.18-1.8,1h0l-3.8,2.2a.41.41,0,0,0,.17-.48L430,102l-.23-.77a.73.73,0,0,0-.15-.27Z" fill="#e0e0e0"/>
        <path id="Trazado_148053" data-name="Trazado 148053" d="M409.56,120.66h0l4.15-2.41c-.38-.23-.79-.48-1.18-.75s-.7-.24-.84,0l-2,3.09a.28.28,0,0,1-.13.07Z" fill="#e0e0e0"/>
        <path id="Trazado_148054" data-name="Trazado 148054" d="M422.09,120.36l1.24,5.66a.34.34,0,0,1-.17.38c.25-.14,4.16-2.39,6.41-3.7a.69.69,0,0,1-.44-.21l-4-3.68a.7.7,0,0,0-.88-.15,6.39,6.39,0,0,1-1.73,1,.63.63,0,0,0-.43.7Z" fill="#e0e0e0"/>
        <path id="Trazado_148055" data-name="Trazado 148055" d="M427.26,112.05a1.08,1.08,0,0,0,.07.45l8-4.6a1.17,1.17,0,0,1-.08-.46,15.516,15.516,0,0,0,.07-1.68l-3.8,2.2h0a.6.6,0,0,1-.27.07l-3.39.2a.55.55,0,0,0-.57.55,18.7,18.7,0,0,1-.03,3.27Z" fill="#e0e0e0"/>
        <path id="Trazado_148056" data-name="Trazado 148056" d="M429.74,122.65l1.62-.93.31-.18,2.62-1.51.7-.41,2.69-1.56h0a.1.1,0,0,0,.06,0l.06-.08,1.79-4a.58.58,0,0,0,0-.33v-.14l-8,4.61a.71.71,0,0,1,0,.48l-1.79,4a.24.24,0,0,1-.06.05Z" fill="#e0e0e0"/>
        <path id="Trazado_148057" data-name="Trazado 148057" d="M426.31,150.4l2.57,8.63a1.67,1.67,0,0,0,1.15,1l5.09,1.23a2.16,2.16,0,0,1,1.3,1,44.379,44.379,0,0,0,2.73,4.75,1.94,1.94,0,0,1,.31,1.35l-1.66,5.61a1.56,1.56,0,0,0,.46,1.3l5.95,6.29c.29.31.64.41.87.27a.4.4,0,0,0,.13-.13l2.78-4.24c.19-.3.71-.28,1.16,0s1.09.72,1.63,1,1.15.64,1.72.9a2.65,2.65,0,0,1,1.19,1.15l2.94,7.88a1.49,1.49,0,0,0,1.19.83l5.42.54a.9.9,0,0,0,.51-.09h0a.47.47,0,0,0,.23-.53l-1.71-7.76a.87.87,0,0,1,.56-1A8.85,8.85,0,0,0,465.2,179a1,1,0,0,1,1.21.2l5.54,5.07a1,1,0,0,0,.6.29h0a.41.41,0,0,0,.19-.05h0a.31.31,0,0,0,.15-.17l2.47-5.45a1.43,1.43,0,0,0-.32-1.29l-5.19-6.29a2.2,2.2,0,0,1-.5-1.38,24.847,24.847,0,0,0,0-4.48.76.76,0,0,1,.78-.76l4.65-.26a.61.61,0,0,0,.64-.78L472.88,155a1.66,1.66,0,0,0-1.15-.95l-5.09-1.23a2.17,2.17,0,0,1-1.3-1,45.12,45.12,0,0,0-2.73-4.75,1.89,1.89,0,0,1-.31-1.35l1.66-5.61a1.55,1.55,0,0,0-.46-1.3l-5.95-6.29c-.36-.37-.81-.44-1-.14l-2.78,4.24c-.19.3-.7.28-1.16,0a25.489,25.489,0,0,0-3.36-1.95,2.52,2.52,0,0,1-1.18-1.14l-2.94-7.88a1.49,1.49,0,0,0-1.18-.83l-5.43-.54a1,1,0,0,0-.51.09.5.5,0,0,0-.24.55l1.71,7.76a.88.88,0,0,1-.55,1,8.41,8.41,0,0,0-2.37,1.38,1,1,0,0,1-1.22-.21l-5.54-5.06a.73.73,0,0,0-.79-.24h0a.5.5,0,0,0-.15.17l-2.46,5.46a1.4,1.4,0,0,0,.31,1.29l5.19,6.28a2.17,2.17,0,0,1,.51,1.38c-.07.75-.1,1.52-.1,2.31s.05,1.43.11,2.17a.74.74,0,0,1-.78.75l-4.65.27a.71.71,0,0,0-.34.08h0A.58.58,0,0,0,426.31,150.4Zm20.4,15.83c-5.55-5.86-8.19-14.74-5.89-19.83a5.45,5.45,0,0,1,4.26-3.37h.65a8.6,8.6,0,0,1,3.84.81,13.663,13.663,0,0,1,1.37.7,18.641,18.641,0,0,1,4.1,3.33c4.17,4.4,6.7,10.49,6.73,15.41a11.66,11.66,0,0,1-.09,1.58,9.411,9.411,0,0,1-.74,2.84,5.43,5.43,0,0,1-5.11,3.43h-.51l-.56-.05-.48-.08-.22-.05-.3-.08a15.57,15.57,0,0,1-7.05-4.64Z" fill="#f5f5f5"/>
        <line id="Línea_169" data-name="Línea 169" x1="10.96" y2="6.35" transform="translate(428.98 123.19)" fill="none"/>
        <path id="Trazado_148058" data-name="Trazado 148058" d="M448.09,133.58a2.54,2.54,0,0,0,1.16,1.1,24.262,24.262,0,0,1,3.36,1.95c.45.31,1,.33,1.16,0l2.77-4.24a.429.429,0,0,1,.14-.13h.05l2.75-1.6c-.58-.34-1.16-.64-1.72-.9l-.21-.12a3,3,0,0,1-.56-.45,2.088,2.088,0,0,1-.2-.22.66.66,0,0,1-.11-.16l-.08-.15Z" fill="#ebebeb"/>
        <path id="Trazado_148059" data-name="Trazado 148059" d="M462.28,145.93h0a2.12,2.12,0,0,0,.33,1.18,47.713,47.713,0,0,1,2.74,4.74,1.31,1.31,0,0,0,.27.36l8.51-4.91a.9.9,0,0,1-.16-.18,1,1,0,0,1-.13-.18,44.267,44.267,0,0,0-2.73-4.76.85.85,0,0,1-.13-.25.36.36,0,0,1-.07-.17.3.3,0,0,1,0-.1h0a.516.516,0,0,0-.05-.23.909.909,0,0,1,0-.36Z" fill="#ebebeb"/>
        <line id="Línea_170" data-name="Línea 170" y1="0.07" x2="0.13" transform="translate(439.81 123.2)" fill="none"/>
        <path id="Trazado_148060" data-name="Trazado 148060" d="M459.48,130.67l5.69-3.3a.48.48,0,0,1,.24-.07.91.91,0,0,1,.63.34h0l3.56,3.76,2.39,2.52a1.89,1.89,0,0,1,.42.74l-5.92,3.39-2.59,1.49a1.859,1.859,0,0,0-.41-.69l-.08-.08-5.87-6.21a.77.77,0,0,0-.82-.29Z" fill="#f5f5f5"/>
        <path id="Trazado_148061" data-name="Trazado 148061" d="M438.05,124.36a1,1,0,0,1,.47-.07l5.42.55a1.53,1.53,0,0,1,.9.41l8.51-4.91a1.58,1.58,0,0,0-.9-.43l-5.43-.54a.86.86,0,0,0-.53.1l-1.47.85-.71.42-2.2,1.28-1.14.66c-.29.16-.57.33-.84.47Z" fill="#f5f5f5"/>
        <path id="Trazado_148062" data-name="Trazado 148062" d="M465.62,152.22a2.29,2.29,0,0,0,1,.61l5.09,1.22a1.87,1.87,0,0,1,.94.6l8.53-4.9a1.86,1.86,0,0,0-1-.62l-5.09-1.23a2.19,2.19,0,0,1-1-.59h0Z" fill="#e6e6e6"/>
        <path id="Trazado_148063" data-name="Trazado 148063" d="M469.48,170.54a2.639,2.639,0,0,0,.41.76l5.19,6.29a1.73,1.73,0,0,1,.33.63l8.5-4.91a1.61,1.61,0,0,0-.33-.65l-5.19-6.29a2.29,2.29,0,0,1-.4-.74Z" fill="#e6e6e6"/>
        <path id="Trazado_148064" data-name="Trazado 148064" d="M481.09,160.89l-.15.1.2-.11.38-.22Z" fill="#e0e0e0"/>
        <path id="Trazado_148065" data-name="Trazado 148065" d="M446.71,166.23a15.52,15.52,0,0,0,7.06,4.58l.29.07.21.05.49.08.56.05h.35a.431.431,0,0,0,.16,0,5.43,5.43,0,0,0,5.11-3.43,9.5,9.5,0,0,0,.75-2.84c-.42-.2-.85-.42-1.29-.67-6-3.48-10.89-11.91-10.89-18.86a11.805,11.805,0,0,1,.06-1.48,8.53,8.53,0,0,0-3.85-.82h-.64a5.45,5.45,0,0,0-4.26,3.37C438.52,151.49,441.16,160.37,446.71,166.23Z" fill="#e0e0e0"/>
        <path id="Trazado_148066" data-name="Trazado 148066" d="M462.28,145.93l8.5-4.9a.44.44,0,0,1,0-.2l1.66-5.61a.92.92,0,0,0,0-.56l-5.92,3.39-2.59,1.49a1,1,0,0,1,0,.61l-1.65,5.61a.429.429,0,0,0,0,.17Z" fill="#e0e0e0"/>
        <path id="Trazado_148067" data-name="Trazado 148067" d="M444.84,125.25a1.14,1.14,0,0,1,.29.41l2.94,7.89h0l8.51-4.91-2.94-7.89a1,1,0,0,0-.28-.39Z" fill="#e0e0e0"/>
        <path id="Trazado_148068" data-name="Trazado 148068" d="M429,129.51a.76.76,0,0,1,.76.26l5.54,5.06a1,1,0,0,0,1.22.2,8.87,8.87,0,0,1,2.36-1.37.87.87,0,0,0,.56-1l-1.7-7.76a.48.48,0,0,1,.23-.55h0l2.08-1.21a.45.45,0,0,0-.2,0l-.12.08Z" fill="#e0e0e0"/>
        <path id="Trazado_148069" data-name="Trazado 148069" d="M426.61,149.7a.85.85,0,0,1,.34-.08l4.65-.26a.78.78,0,0,0,.78-.76c-.06-.74-.11-1.47-.11-2.18Z" fill="#e0e0e0"/>
        <path id="Trazado_148070" data-name="Trazado 148070" d="M474,147.13a.9.9,0,0,0,.16.18h0Z" fill="#e0e0e0"/>
        <path id="Trazado_148071" data-name="Trazado 148071" d="M481.2,149.75a.94.94,0,0,1,.18.34l.32,1.07,1.67,5.63.57,1.93a.5.5,0,0,1,0,.32.459.459,0,0,1-.07.16.349.349,0,0,1-.13.14l-.09.06-.86.5-.23.14h0l-.69.4-.36.22-.43.23-.15.1-.45.25L478,162.67h0l-2.77,1.61a.56.56,0,0,0,.24-.65l-2.25-7.58-.32-1.06a.89.89,0,0,0-.21-.36Z" fill="#e0e0e0"/>
        <path id="Trazado_148072" data-name="Trazado 148072" d="M445.07,181.75h0l5.71-3.31c-.54-.32-1.09-.67-1.63-1s-1-.33-1.16,0l-2.78,4.24A.41.41,0,0,1,445.07,181.75Z" fill="#e0e0e0"/>
        <path id="Trazado_148073" data-name="Trazado 148073" d="M462.28,181.35l1.71,7.77a.47.47,0,0,1-.23.52c.34-.19,5.71-3.29,8.8-5.09a1,1,0,0,1-.61-.28l-5.53-5.06a1,1,0,0,0-1.21-.21,8.75,8.75,0,0,1-2.38,1.38.87.87,0,0,0-.55.97Z" fill="#e0e0e0"/>
        <path id="Trazado_148074" data-name="Trazado 148074" d="M469.39,169.92a1.42,1.42,0,0,0,.09.62l8.51-4.91a1.5,1.5,0,0,1-.1-.63,21.886,21.886,0,0,0,.09-2.31l-2.77,1.61h0a.76.76,0,0,1-.37.11l-4.66.26a.75.75,0,0,0-.78.76A24.837,24.837,0,0,1,469.39,169.92Z" fill="#e0e0e0"/>
        <path id="Trazado_148075" data-name="Trazado 148075" d="M472.79,184.49c.18-.1,1.06-.6,2.24-1.29l.42-.24,3.59-2.08,1-.56,1.24-.72h0a.22.22,0,0,0,.09-.07.61.61,0,0,0,.07-.1L483.9,174a.76.76,0,0,0,0-.46v-.18l-8.5,4.91a1,1,0,0,1,0,.66l-2.47,5.44a.3.3,0,0,1-.14.12Z" fill="#e0e0e0"/>
      </g>
    </g>
    <g id="freepik--Devices--inject-18">
      <g id="freepik--device-2--inject-18">
        <path id="Trazado_148076" data-name="Trazado 148076" d="M306.74,89.63V322.2a8.33,8.33,0,0,0,3.74,6.5l103.13,59.53c2.06,1.2,3.74.22,3.74-2.17V153.5a8.33,8.33,0,0,0-3.74-6.5L310.48,87.47C308.42,86.27,306.74,87.24,306.74,89.63Zm5.39,27.76c0-2,1.44-2.88,3.22-1.85l93.76,54.12a7.14,7.14,0,0,1,3.22,5.58V357.41c0,2.06-1.45,2.88-3.22,1.86l-93.76-54.13c-1.78-1-3.22-2.33-3.22-4.37Z" fill="#ba68c8"/>
        <path id="Trazado_148077" data-name="Trazado 148077" d="M306.74,89.63V322.2a8.33,8.33,0,0,0,3.74,6.5l103.13,59.53c2.06,1.2,3.74.22,3.74-2.17V153.5a8.33,8.33,0,0,0-3.74-6.5L310.48,87.47C308.42,86.27,306.74,87.24,306.74,89.63Zm5.39,27.76c0-2,1.44-2.88,3.22-1.85l93.76,54.12a7.14,7.14,0,0,1,3.22,5.58V357.41c0,2.06-1.45,2.88-3.22,1.86l-93.76-54.13c-1.78-1-3.22-2.33-3.22-4.37Z" opacity="0.5"/>
        <path id="Trazado_148078" data-name="Trazado 148078" d="M414.07,388.46a8.36,8.36,0,0,0,7-.23l4.29-2.48a8.26,8.26,0,0,0,3.76-6.5V146.7a7,7,0,0,0-.65-2.8,9.374,9.374,0,0,0-.44-.9h0l-11.8,6.81h0a10.809,10.809,0,0,1,.65,1.38,7,7,0,0,1,.45,2.32V386.07C417.35,388.27,415.92,389.27,414.07,388.46Z" fill="#ba68c8"/>
        <path id="Trazado_148079" data-name="Trazado 148079" d="M414.07,388.46a8.36,8.36,0,0,0,7-.23l4.29-2.48a8.26,8.26,0,0,0,3.76-6.5V146.7a7,7,0,0,0-.65-2.8,9.374,9.374,0,0,0-.44-.9h0l-11.8,6.81h0a10.809,10.809,0,0,1,.65,1.38,7,7,0,0,1,.45,2.32V386.07C417.35,388.27,415.92,389.27,414.07,388.46Z" opacity="0.7"/>
        <path id="Trazado_148080" data-name="Trazado 148080" d="M361.15,338c-3.27-1.88-5.92-.35-5.92,3.42a13.09,13.09,0,0,0,5.92,10.26c3.27,1.88,5.92.35,5.92-3.42A13.09,13.09,0,0,0,361.15,338Z" fill="none" stroke="#e6e6e6" stroke-miterlimit="10" stroke-width="1"/>
        <path id="Trazado_148081" data-name="Trazado 148081" d="M362,122.25c-1.38-.8-2.51-.15-2.51,1.45a5.6,5.6,0,0,0,2.51,4.36c1.39.8,2.52.15,2.52-1.46a5.55,5.55,0,0,0-2.52-4.35Z"/>
        <path id="Trazado_148082" data-name="Trazado 148082" d="M371.75,137.54l-19.41-11.21c-1.16-.66-2.1-.19-2.1,1.06a4.5,4.5,0,0,0,2.1,3.49l19.41,11.2c1.16.67,2.1.2,2.1-1.06a4.5,4.5,0,0,0-2.1-3.48Z"/>
        <path id="Trazado_148083" data-name="Trazado 148083" d="M312.13,300.77c0,2,1.44,3.35,3.22,4.37l93.76,54.13c1.77,1,3.22.2,3.22-1.86V175.24a7.14,7.14,0,0,0-3.22-5.58l-93.76-54.12c-1.78-1-3.22-.2-3.22,1.85Z" fill="#ba68c8"/>
        <path id="Trazado_148084" data-name="Trazado 148084" d="M312.13,300.77c0,2,1.44,3.35,3.22,4.37l93.76,54.13c1.77,1,3.22.2,3.22-1.86V175.24a7.14,7.14,0,0,0-3.22-5.58l-93.76-54.12c-1.78-1-3.22-.2-3.22,1.85Z" fill="#fff" opacity="0.5"/>
        <path id="Trazado_148085" data-name="Trazado 148085" d="M318.4,131.17v-1.71c0-.37.15-.59.33-.49l.09.06a1.07,1.07,0,0,1,.33.85v1.71c0,.37-.15.59-.33.48h-.09a1.09,1.09,0,0,1-.33-.9Z" fill="#455a64"/>
        <path id="Trazado_148086" data-name="Trazado 148086" d="M319.89,132v-3c0-.37.14-.59.32-.48h.09a1.1,1.1,0,0,1,.33.86v2.95c0,.37-.15.58-.33.48l-.09-.05A1.11,1.11,0,0,1,319.89,132Z" fill="#455a64"/>
        <path id="Trazado_148087" data-name="Trazado 148087" d="M321.37,132.88v-4.2c0-.37.15-.58.33-.48l.09.05a1.11,1.11,0,0,1,.33.86v4.2c0,.37-.15.58-.33.48h-.09A1.11,1.11,0,0,1,321.37,132.88Z" fill="#455a64"/>
        <path id="Trazado_148088" data-name="Trazado 148088" d="M322.86,133.73v-7.24c0-.37.14-.59.32-.48h.09a1.11,1.11,0,0,1,.33.86v7.24c0,.37-.15.59-.33.48h-.09a1.09,1.09,0,0,1-.32-.86Z" fill="#455a64"/>
        <path id="Trazado_148089" data-name="Trazado 148089" d="M326.88,136.55a.68.68,0,0,1-.05-.27v-1.06l-1.66-1A.34.34,0,0,1,325,134v-.38a.782.782,0,0,1,0-.19,1.211,1.211,0,0,1,.05-.14l1.77-2.79s.06-.08.09-.09a.4.4,0,0,1,.11,0l.23.14a.33.33,0,0,1,.16.17.749.749,0,0,1,0,.28v3.72l.37.21a.38.38,0,0,1,.15.16.81.81,0,0,1,0,.29v.25a.39.39,0,0,1,0,.22h-.15l-.37-.21v1.06a.39.39,0,0,1,0,.22h-.16l-.28-.16A.36.36,0,0,1,326.88,136.55Zm.06-2.17v-2.65l-1.21,2Z" fill="#455a64"/>
        <path id="Trazado_148090" data-name="Trazado 148090" d="M328.85,137.05a7.06,7.06,0,0,1-.49-2.74,3.54,3.54,0,0,1,.49-2.17q.5-.57,1.38-.06a3.13,3.13,0,0,1,1.18,1.18.26.26,0,0,1,0,.15.442.442,0,0,1,0,.1l-.15.38a.049.049,0,0,1-.06.05.251.251,0,0,1-.07-.09,2.52,2.52,0,0,0-.85-.84c-.4-.23-.72-.22-.94.05a2.72,2.72,0,0,0-.34,1.63,5.26,5.26,0,0,0,.33,2,2.21,2.21,0,0,0,.9,1.12,1.6,1.6,0,0,0,.41.18.65.65,0,0,0,.33,0V136.3l-.69-.4a.35.35,0,0,1-.15-.17.72.72,0,0,1,0-.28v-.46c0-.03.08,0,.15,0l1.1.64a.37.37,0,0,1,.17.2,1,1,0,0,1,.05.33v2.46a.809.809,0,0,1,0,.2.15.15,0,0,1-.06.09,1.39,1.39,0,0,1-1.32-.22A3.37,3.37,0,0,1,328.85,137.05Z" fill="#455a64"/>
        <path id="Trazado_148091" data-name="Trazado 148091" d="M404.74,174a1.87,1.87,0,0,0-.66-1l-5-2.88c-.43-.25-.76.24-.76,1.12V175a4.53,4.53,0,0,0,.28,1.52,3.239,3.239,0,0,0,.27.56,1.341,1.341,0,0,0,.39.42l5,2.88c.43.24.77-.25.77-1.13v-3.73a4.551,4.551,0,0,0-.29-1.52Zm-5.94,2.25a1.86,1.86,0,0,1-.11-.66v-3.73c0-.65.27-1.05.58-.86l5,2.88a.6.6,0,0,1,.21.21,1,1,0,0,1,.08.18,1.92,1.92,0,0,1,.11.67v3.72c0,.65-.27,1.05-.58.86l-5-2.88a.68.68,0,0,1-.29-.42Z" fill="#455a64"/>
        <path id="Trazado_148092" data-name="Trazado 148092" d="M401.94,173.18v4.41L399.26,176l-.09-.07a.659.659,0,0,0,0-.15v-3.35c0-.47.21-.77.44-.64Z" fill="#455a64"/>
        <path id="Trazado_148093" data-name="Trazado 148093" d="M405.27,175.66c.19.1.34.81.34,1.57v.69c0,.77-.15,1.32-.34,1.23l-.34-.16v-3.52Z" fill="#455a64"/>
        <path id="Trazado_148094" data-name="Trazado 148094" d="M392.9,172.41c0,.82-.43,1.24-1,.93a2.57,2.57,0,0,1-1-2.05c0-.82.43-1.23,1-.93a2.55,2.55,0,0,1,1,2.05Z" fill="#455a64"/>
        <path id="Trazado_148095" data-name="Trazado 148095" d="M391.93,167.93a1.45,1.45,0,0,0-2.24.78,1,1,0,0,0,.1.79h0c.18.32.45.4.56.14a1,1,0,0,1,1.58-.55,4,4,0,0,1,1.58,2.38c.11.38.38.62.57.5h0a.64.64,0,0,0,.1-.68A5.8,5.8,0,0,0,391.93,167.93Z" fill="#455a64"/>
        <path id="Trazado_148096" data-name="Trazado 148096" d="M391.93,165.55a2.29,2.29,0,0,0-3.45.93,1,1,0,0,0,.08.83h0c.17.32.43.4.55.17a1.86,1.86,0,0,1,2.81-.76,7.29,7.29,0,0,1,2.82,4c.12.36.38.59.55.47h0c.16-.1.19-.42.08-.74a9,9,0,0,0-3.44-4.9Z" fill="#455a64"/>
        <path id="Trazado_148097" data-name="Trazado 148097" d="M306.77,89c.27-2,1.83-2.66,3.71-1.57L413.61,147a7.62,7.62,0,0,1,2.65,2.8l11.8-6.81a7.69,7.69,0,0,0-2.66-2.79L322.29,80.66a8.28,8.28,0,0,0-7.51,0l-4.3,2.47A8.4,8.4,0,0,0,306.77,89Z" fill="#ba68c8"/>
        <path id="Trazado_148098" data-name="Trazado 148098" d="M306.77,89c.27-2,1.83-2.66,3.71-1.57L413.61,147a7.62,7.62,0,0,1,2.65,2.8l11.8-6.81a7.69,7.69,0,0,0-2.66-2.79L322.29,80.66a8.28,8.28,0,0,0-7.51,0l-4.3,2.47A8.4,8.4,0,0,0,306.77,89Z" opacity="0.2"/>
      </g>
      <g id="freepik--device-1--inject-18">
        <path id="Trazado_148099" data-name="Trazado 148099" d="M189.52,87.47,86.39,147a8.33,8.33,0,0,0-3.74,6.5V386.06c0,2.39,1.68,3.37,3.74,2.17L189.52,328.7a8.33,8.33,0,0,0,3.74-6.5V89.63C193.26,87.24,191.58,86.27,189.52,87.47Zm-1.65,213.3c0,2-1.44,3.35-3.22,4.37L90.89,359.27c-1.77,1-3.22.2-3.22-1.86V175.24a7.14,7.14,0,0,1,3.22-5.58l93.76-54.12c1.78-1,3.22-.2,3.22,1.85Z" fill="#ba68c8"/>
        <path id="Trazado_148100" data-name="Trazado 148100" d="M189.52,87.47,86.39,147a8.33,8.33,0,0,0-3.74,6.5V386.06c0,2.39,1.68,3.37,3.74,2.17L189.52,328.7a8.33,8.33,0,0,0,3.74-6.5V89.63C193.26,87.24,191.58,86.27,189.52,87.47Zm-1.65,213.3c0,2-1.44,3.35-3.22,4.37L90.89,359.27c-1.77,1-3.22.2-3.22-1.86V175.24a7.14,7.14,0,0,1,3.22-5.58l93.76-54.12c1.78-1,3.22-.2,3.22,1.85Z" opacity="0.5"/>
        <path id="Trazado_148101" data-name="Trazado 148101" d="M85.93,388.46a8.36,8.36,0,0,1-7-.23l-4.29-2.48a8.26,8.26,0,0,1-3.76-6.5V146.7a7,7,0,0,1,.65-2.8,9.369,9.369,0,0,1,.44-.9h0l11.8,6.81h0a10.811,10.811,0,0,0-.65,1.38,7,7,0,0,0-.45,2.32V386.07C82.65,388.27,84.08,389.27,85.93,388.46Z" fill="#ba68c8"/>
        <path id="Trazado_148102" data-name="Trazado 148102" d="M85.93,388.46a8.36,8.36,0,0,1-7-.23l-4.29-2.48a8.26,8.26,0,0,1-3.76-6.5V146.7a7,7,0,0,1,.65-2.8,9.369,9.369,0,0,1,.44-.9h0l11.8,6.81h0a10.811,10.811,0,0,0-.65,1.38,7,7,0,0,0-.45,2.32V386.07C82.65,388.27,84.08,389.27,85.93,388.46Z" opacity="0.7"/>
        <path id="Trazado_148103" data-name="Trazado 148103" d="M138.85,338c3.27-1.88,5.92-.35,5.92,3.42a13.09,13.09,0,0,1-5.92,10.26c-3.27,1.88-5.92.35-5.92-3.42A13.09,13.09,0,0,1,138.85,338Z" fill="none" stroke="#e6e6e6" stroke-miterlimit="10" stroke-width="1"/>
        <path id="Trazado_148104" data-name="Trazado 148104" d="M138,122.25c1.38-.8,2.51-.15,2.51,1.45a5.6,5.6,0,0,1-2.51,4.36c-1.39.8-2.52.15-2.52-1.46A5.55,5.55,0,0,1,138,122.25Z"/>
        <path id="Trazado_148105" data-name="Trazado 148105" d="M128.25,137.54l19.41-11.21c1.16-.66,2.1-.19,2.1,1.06a4.5,4.5,0,0,1-2.1,3.49l-19.41,11.2c-1.16.67-2.1.2-2.1-1.06A4.5,4.5,0,0,1,128.25,137.54Z"/>
        <path id="Trazado_148106" data-name="Trazado 148106" d="M187.87,300.77c0,2-1.44,3.35-3.22,4.37L90.89,359.27c-1.77,1-3.22.2-3.22-1.86V175.24a7.14,7.14,0,0,1,3.22-5.58l93.76-54.12c1.78-1,3.22-.2,3.22,1.85Z" fill="#ba68c8"/>
        <path id="Trazado_148107" data-name="Trazado 148107" d="M187.87,300.77c0,2-1.44,3.35-3.22,4.37L90.89,359.27c-1.77,1-3.22.2-3.22-1.86V175.24a7.14,7.14,0,0,1,3.22-5.58l93.76-54.12c1.78-1,3.22-.2,3.22,1.85Z" fill="#fff" opacity="0.9"/>
        <path id="Trazado_148108" data-name="Trazado 148108" d="M163.47,139.57c0,.83.43,1.24,1,.93a2.53,2.53,0,0,0,1-2c0-.82-.43-1.24-1-.93a2.53,2.53,0,0,0-1,2Z" fill="#455a64"/>
        <path id="Trazado_148109" data-name="Trazado 148109" d="M162.19,138.47a.64.64,0,0,0,.1.68h0c.19.11.46-.13.57-.51a4.06,4.06,0,0,1,1.58-2.38,1,1,0,0,1,1.58.56c.11.25.38.18.56-.15h0a1,1,0,0,0,.1-.8,1.45,1.45,0,0,0-2.24-.77,5.8,5.8,0,0,0-2.25,3.37Z" fill="#455a64"/>
        <path id="Trazado_148110" data-name="Trazado 148110" d="M161,137.63c-.11.32-.08.64.08.74h0c.17.11.43-.11.55-.47a7.36,7.36,0,0,1,2.82-4,1.86,1.86,0,0,1,2.81.77c.12.22.38.15.55-.17h0a1,1,0,0,0,.07-.83,2.28,2.28,0,0,0-3.44-.92,9,9,0,0,0-3.44,4.88Z" fill="#455a64"/>
        <path id="Trazado_148111" data-name="Trazado 148111" d="M93.6,180.8v-1.48a1,1,0,0,1,.37-.8l.11-.06c.2-.12.37,0,.37.36v1.48a1,1,0,0,1-.37.8l-.11.06C93.76,181.28,93.6,181.12,93.6,180.8Z" fill="#455a64"/>
        <path id="Trazado_148112" data-name="Trazado 148112" d="M95.31,179.81v-2.56a1,1,0,0,1,.37-.8l.11-.06c.21-.12.38,0,.38.36v2.56a1,1,0,0,1-.38.8l-.11.06C95.48,180.29,95.31,180.13,95.31,179.81Z" fill="#455a64"/>
        <path id="Trazado_148113" data-name="Trazado 148113" d="M97,178.82v-3.64a1,1,0,0,1,.38-.79l.1-.06c.21-.12.38,0,.38.36v3.63a1,1,0,0,1-.38.8l-.1.06C97.19,179.3,97,179.14,97,178.82Z" fill="#455a64"/>
        <path id="Trazado_148114" data-name="Trazado 148114" d="M98.74,177.83v-6.28a1,1,0,0,1,.37-.79l.11-.06c.21-.12.38,0,.38.36v6.27a1,1,0,0,1-.37.8l-.11.06C98.91,178.31,98.74,178.15,98.74,177.83Z" fill="#455a64"/>
        <path id="Trazado_148115" data-name="Trazado 148115" d="M103.38,175.58v-1.1l-1.93,1.11c-.1.06-.15,0-.15-.11v-.33a.92.92,0,0,1,0-.18l.07-.19,2-4.48a1.3,1.3,0,0,1,.1-.18.809.809,0,0,1,.13-.11l.27-.15q.12-.08.18,0a.28.28,0,0,1,0,.2v3.21l.43-.24c.08-.05.13-.06.17,0s0,.09,0,.19v.22a.55.55,0,0,1,0,.24.44.44,0,0,1-.17.16l-.43.25V175a.41.41,0,0,1-.23.41l-.32.18C103.47,175.59,103.41,175.6,103.38,175.58Zm.07-2v-2.3l-1.39,3.1Z" fill="#455a64"/>
        <path id="Trazado_148116" data-name="Trazado 148116" d="M105.66,173.7c-.38-.28-.56-.88-.56-1.8a5.29,5.29,0,0,1,.56-2.45,4.1,4.1,0,0,1,1.59-1.66,3.229,3.229,0,0,1,.77-.33,1,1,0,0,1,.6,0,.07.07,0,0,1,0,.07.28.28,0,0,1,0,.11l-.18.5c0,.07,0,.11-.07.12h-.08a1.54,1.54,0,0,0-1,.25,2.88,2.88,0,0,0-1.09,1.15,3.87,3.87,0,0,0-.39,1.81c0,.71.13,1.17.38,1.36a.933.933,0,0,0,1.05-.08,3.631,3.631,0,0,0,.47-.33,2.24,2.24,0,0,0,.38-.37v-1.49l-.8.46c-.08.05-.14.06-.17,0a.27.27,0,0,1,0-.19v-.21a.55.55,0,0,1,0-.25.44.44,0,0,1,.17-.16l1.28-.73c.09-.06.15-.06.19,0a.352.352,0,0,1,.06.23v2.13a1,1,0,0,1,0,.2.44.44,0,0,1-.08.15,4.66,4.66,0,0,1-1.52,1.35C106.57,173.92,106,174,105.66,173.7Z" fill="#455a64"/>
        <path id="Trazado_148117" data-name="Trazado 148117" d="M178.91,125.77a.59.59,0,0,0-.76-.08L172.39,129a2.33,2.33,0,0,0-.88,1.88v3.22a1.34,1.34,0,0,0,.33,1,.6.6,0,0,0,.31.17.63.63,0,0,0,.45-.09l5.76-3.32a2.33,2.33,0,0,0,.88-1.88v-3.22a1.34,1.34,0,0,0-.33-.99Zm-6.86,8.88a.67.67,0,0,1-.12-.46V131a1.82,1.82,0,0,1,.67-1.43l5.76-3.32a.39.39,0,0,1,.24-.06h.1a.67.67,0,0,1,.12.46v3.22a1.82,1.82,0,0,1-.67,1.43l-5.76,3.32C172.25,134.72,172.13,134.73,172.05,134.65Z" fill="#455a64"/>
        <path id="Trazado_148118" data-name="Trazado 148118" d="M175.68,128.34v3.82l-3.1,1.79h-.1a.519.519,0,0,0,0-.13V131a1.38,1.38,0,0,1,.5-1.06Z" fill="#455a64"/>
        <path id="Trazado_148119" data-name="Trazado 148119" d="M179.53,126.6c.21-.12.38.32.38,1v.6a2.13,2.13,0,0,1-.39,1.45l-.38.25v-3Z" fill="#455a64"/>
        <path id="Trazado_148120" data-name="Trazado 148120" d="M193.23,89c-.27-2-1.83-2.66-3.71-1.57L86.39,147a7.62,7.62,0,0,0-2.65,2.8L71.94,143a7.69,7.69,0,0,1,2.66-2.79L177.71,80.66a8.26,8.26,0,0,1,7.5,0l4.31,2.47A8.4,8.4,0,0,1,193.23,89Z" fill="#ba68c8"/>
        <path id="Trazado_148121" data-name="Trazado 148121" d="M193.23,89c-.27-2-1.83-2.66-3.71-1.57L86.39,147a7.62,7.62,0,0,0-2.65,2.8L71.94,143a7.69,7.69,0,0,1,2.66-2.79L177.71,80.66a8.26,8.26,0,0,1,7.5,0l4.31,2.47A8.4,8.4,0,0,1,193.23,89Z" opacity="0.2"/>
      </g>
    </g>
    <g id="freepik--Characters--inject-18">
      <g id="freepik--character-shaking-hands--inject-18">
        <path id="Trazado_148122" data-name="Trazado 148122" d="M383.11,312.58s-10.69,10.7-24.9,6.61c0,0,4.28,4.22,14.35,1.39C379.35,318.67,383.11,312.58,383.11,312.58Z" fill="#ba68c8"/>
        <path id="Trazado_148123" data-name="Trazado 148123" d="M404.33,247s5.46,14.1-4,25.44c0,0,5.59-2.2,7.07-12.56C408.37,252.86,404.33,247,404.33,247Z" fill="#ba68c8"/>
        <path id="Trazado_148124" data-name="Trazado 148124" d="M382,317.07a49.066,49.066,0,0,0,14.45-34.57s2.91,7.3-1.63,18.82S382,317.07,382,317.07Z" fill="#ba68c8"/>
        <path id="Trazado_148125" data-name="Trazado 148125" d="M106.13,302.19s-.13,15.12,12.75,22.39c0,0-6-.1-11-9.26C104.43,309.14,106.13,302.19,106.13,302.19Z" fill="#ba68c8"/>
        <path id="Trazado_148126" data-name="Trazado 148126" d="M102.87,308.25A49.21,49.21,0,0,1,111,271.66s-6.58,4.29-9.5,16.33S102.87,308.25,102.87,308.25Z" fill="#ba68c8"/>
        <g id="freepik--Girl--inject-18">
          <path id="Trazado_148127" data-name="Trazado 148127" d="M326.86,224l4.23-12.65c-11.14,2-14.17,3.52-17.46,12.73l-2.18,7.34-13.34,41.06c-3.16.83-42.5,11.67-43.87,11.84,0,0-.06.1-.1.15-12.85.82-17,1.39-17,1.39,3.61,9.44,10.38,14.76,19.73,16.68v-.15c16.55-2.82,43.7-9.22,52.53-12.15,3.72-1.19,5.31-5.38,6.84-8.88,6.25-14.29,12.78-33.55,15-45.14C332.68,229.24,330.57,225.75,326.86,224Z" fill="#b16668"/>
          <path id="Trazado_148128" data-name="Trazado 148128" d="M331.09,211.3s-11.07-1.7-15.87,8.46C312,226.62,302.15,256,302.15,256s7,9,22.33,9.55c0,0,14.48-33.25,13.67-34.31S331.09,211.3,331.09,211.3Z" fill="#37474f"/>
          <path id="Trazado_148129" data-name="Trazado 148129" d="M329.06,211.09c-2.69.26-9.51,9.38-9.65,24.9-.19,20.79,10,46.24,12.56,51.73s7.54,16.24,16,24.22c2.73,2.56,21.37,9.81,33.38-3.69,12.22-13.73,10.29-31.77,7.85-37.42-4.09-9.46-11.32-20.47-11.06-32.92-1.53-8.94-4.46-20.51-11.14-25.36-2.75-.7-11.41-1.81-13.1-1.58Z" fill="#fafafa"/>
          <path id="Trazado_148130" data-name="Trazado 148130" d="M364.26,227.59l-3.41,4.28c1,6.79,6.15,16.6,12.14,24.43,4.67,6.11,14.17,12.41,18,23.2a27.611,27.611,0,0,0-1.73-8.67c-4.09-9.46-11.32-20.47-11.06-32.92-.25-1.48-.55-3-.89-4.61l-3.2-2.9Z" fill="#ebebeb"/>
          <path id="Trazado_148131" data-name="Trazado 148131" d="M367,212.55c5.85,1.44,9,4.53,14.12,10.38C387,229.53,399,243.41,399,243.41c8.39,14.54.85,29.33-5.44,26.9,0,0-14.18-13.85-22.88-24.35-5.83-7-8.8-11-9.13-18.71C361.27,221.19,362.35,215,367,212.55Z" fill="#b16668"/>
          <path id="Trazado_148132" data-name="Trazado 148132" d="M363.94,212s5.05-1.12,11.62,4.17,22.63,22.77,22.63,22.77.48,18.51-11.31,26.86c0,0-17.4-17.46-21.69-23.5a29,29,0,0,1-1.25-30.3Z" fill="#37474f"/>
          <path id="Trazado_148133" data-name="Trazado 148133" d="M360.85,177s-2.54,15.51-3.73,18.09a6.93,6.93,0,0,1-3.87,3.43L353,187.75Z" fill="#263238"/>
          <path id="Trazado_148134" data-name="Trazado 148134" d="M352.6,154.49s4.19-2.11,7.06.56,3.06,11.85.9,23.74l-7.22-.38Z" fill="#263238"/>
          <circle id="Elipse_4846" data-name="Elipse 4846" cx="20.19" cy="20.19" r="20.19" transform="matrix(0.981, -0.194, 0.194, 0.981, 302.802, 153.27)" fill="#263238"/>
          <path id="Trazado_148135" data-name="Trazado 148135" d="M353.2,156.06l6.25-5.74a4.12,4.12,0,0,0-5.95-.4,4.45,4.45,0,0,0-.3,6.14Z" fill="#263238"/>
          <path id="Trazado_148136" data-name="Trazado 148136" d="M315.81,157.35c-1.27,2.19-7.62,11.39-5.3,28.67,2.18,16.27,7.41,20.09,10.19,20.95s8.36.37,13.24-1l.88,6.91s-2.85,4.58,1,7.11,12.32.67,14.28-.89c4.61-3.69,3.91-6.8,3.91-6.8l-1-22.44s3.47,2.86,7.94-.51c4.22-3.17,4.41-11.55.85-14.43s-9.27-1.16-10.05,3.47c0,0-.15-17.2-9.92-21.77C329.32,150.76,315.81,157.35,315.81,157.35Z" fill="#b16668"/>
          <path id="Trazado_148137" data-name="Trazado 148137" d="M350.63,180.63c.55-.29,1.49-4.89,4.2-6.45,2.49-1.44-2.21-22-2.23-22.1-.28-1.51-1.83-3.28-2.84-4.38a13.11,13.11,0,0,0-5.56-3.5,19.25,19.25,0,0,0-9-.54c-4.66.72-9.13,2.66-13.84,2.68-4.47,0-8.74-1.73-13.12-2.6a3.51,3.51,0,0,0-2.54.17,2.61,2.61,0,0,0-.92,1.13,5.9,5.9,0,0,0-.14,4.16,14.65,14.65,0,0,0,2,3.76c-1.56-.73-3.76-.79-4.66.67-.71,1.15-.27,2.65.38,3.83,2.74,4.92,7.61,7.08,12.73,8.25a43.061,43.061,0,0,0,6.51.6c5.52.31,10.82-1.9,15.91-4.06,1.4-.6,4.13-1.62,5.66-.38,1.9,1.54,1.81,6.52,2.38,10.61C346.42,178.89,348.55,181.75,350.63,180.63Z" fill="#263238"/>
          <path id="Trazado_148138" data-name="Trazado 148138" d="M333,193l-5.57,2.49a3,3,0,0,0,4,1.65A3.21,3.21,0,0,0,333,193Z" fill="#9a4a4d"/>
          <path id="Trazado_148139" data-name="Trazado 148139" d="M313,179.71a2.07,2.07,0,1,0,1.93-2.27,2.11,2.11,0,0,0-1.93,2.27Z" fill="#263238"/>
          <path id="Trazado_148140" data-name="Trazado 148140" d="M329.06,178.72a2.07,2.07,0,1,0,1.93-2.27,2.1,2.1,0,0,0-1.93,2.27Z" fill="#263238"/>
          <path id="Trazado_148141" data-name="Trazado 148141" d="M323.62,179.16l-.37,12.41-6.53-2.04Z" fill="#9a4a4d"/>
          <path id="Trazado_148142" data-name="Trazado 148142" d="M333.94,206c4.1-.94,12.12-4.39,13.64-7.39,0,0,.15,1.91-2.28,4.81s-10.95,5.8-10.95,5.8Z" fill="#9a4a4d"/>
          <path id="Trazado_148143" data-name="Trazado 148143" d="M311.37,175.4l4.63-2a2.65,2.65,0,0,0-3.41-1.34,2.47,2.47,0,0,0-1.22,3.34Z" fill="#263238"/>
          <path id="Trazado_148144" data-name="Trazado 148144" d="M330.31,172.41l4.42,2.4a2.62,2.62,0,0,0-1.05-3.5,2.44,2.44,0,0,0-3.37,1.1Z" fill="#263238"/>
        </g>
        <g id="freepik--girl--inject-18-2" data-name="freepik--girl--inject-18">
          <path id="Trazado_148145" data-name="Trazado 148145" d="M197.21,209.22H162.75a31.09,31.09,0,0,1-31.08-31v-5.41a29.94,29.94,0,0,1,29.87-30h5.62a29.91,29.91,0,0,1,30,29.86Z" fill="#263238"/>
          <path id="Trazado_148146" data-name="Trazado 148146" d="M168.69,211.16c12.36-.93,20.15,4.8,20.41,16.29.14,5.79-4.88,28.84-4.88,28.84Z" fill="#ffa8a7"/>
          <path id="Trazado_148147" data-name="Trazado 148147" d="M168.69,211.16c6.29.63,13.23,11.37,19.27,25.18,2.37,5.44,6.7,12.76,1.24,22.94-3.38,6.29-10.34,8.83-10.34,8.83a86.749,86.749,0,0,1-10.8,22.24,55.24,55.24,0,0,1-15.3,24.1c-2.8,2.48-19.91,17.63-33.7,5.94-8.2-6.95-11.06-18-10.22-28.43.49-6.13,1.85-12.19,6.16-16.58a72.54,72.54,0,0,0,6.87-8.1c2.19-10.43-.32-17.51-.58-30,1.53-8.94,5.32-16.52,12-21.36a55.49,55.49,0,0,1,15.45-3.67Z" fill="#ba68c8"/>
          <path id="Trazado_148148" data-name="Trazado 148148" d="M168.48,289.73l-.84-6.73s-29-45.46-30.23-46.74c-.72-.77-7.68-5.41-13.12-9a40.811,40.811,0,0,0-3,10c.26,12.45,2.77,19.53.58,30,0,0-1.49,2.11-3.9,4.88,4.3,1.12,11.31-4.29,11.31-4.29s14,19.79,20.16,26.82c5.75,6.59,9.19,7.57,13.44,7.28a53,53,0,0,0,5.18-11.62C168.21,290.14,168.34,289.93,168.48,289.73Z" opacity="0.1"/>
          <path id="Trazado_148149" data-name="Trazado 148149" d="M189.2,259.28c.29-.55.56-1.09.8-1.63-5.63,4.32-9.55,1.28-14.27.37-4.88-.94-8.5,6-17.63,5.14-12-1.16-16.35-8.71-16.35-8.71s-.32,13.07,14.55,15.94c9.94,1.92,13.59-3.45,16.34-3.45,1.2,0,2.27.93,6.22,1.17C178.86,268.11,185.82,265.57,189.2,259.28Z" opacity="0.05"/>
          <path id="Trazado_148150" data-name="Trazado 148150" d="M185.83,159c1.24,2.14,7.4,11.07,5.15,27.84-2.12,15.79-7.2,18.36-9.9,19.2s-8.11.35-12.85-1l-1.07,9.5s4.6,6.54,3.69,10.84-10.1,3.75-15.86-1.2a18.73,18.73,0,0,1-6.24-11.84l1-21.8s-3.37,2.78-7.71-.49c-4.09-3.08-4.28-11.21-.82-14s9-1.13,9.75,3.36c0,0,10.72,2.48,20.21-2C183.29,171.73,185.06,163.5,185.83,159Z" fill="#ffa8a7"/>
          <path id="Trazado_148151" data-name="Trazado 148151" d="M151.17,185.4l-.29-9.92a5.21,5.21,0,0,1,5.22,5,4.84,4.84,0,0,1-4.93,4.92Z" fill="#263238"/>
          <path id="Trazado_148152" data-name="Trazado 148152" d="M172.85,194.38l5.4,2.42a2.92,2.92,0,0,1-3.87,1.6,3.1,3.1,0,0,1-1.53-4.02Z" fill="#f28f8f"/>
          <path id="Trazado_148153" data-name="Trazado 148153" d="M188.55,180.85a2,2,0,0,1-2.12,2,2.05,2.05,0,0,1-1.87-2.21,2,2,0,0,1,4,.26Z" fill="#263238"/>
          <path id="Trazado_148154" data-name="Trazado 148154" d="M174.06,182a2,2,0,1,1-.462-1.505A2,2,0,0,1,174.06,182Z" fill="#263238"/>
          <path id="Trazado_148155" data-name="Trazado 148155" d="M179.86,180.72l.36,12.05,6.34-1.98Z" fill="#f28f8f"/>
          <path id="Trazado_148156" data-name="Trazado 148156" d="M168.23,205c-4-.91-11.76-4.26-13.24-7.17,0,0-.14,1.86,2.22,4.67s10.67,5.58,10.67,5.58Z" fill="#f28f8f"/>
          <path id="Trazado_148157" data-name="Trazado 148157" d="M189.19,175.48l-4.49-1.94a2.58,2.58,0,0,1,3.31-1.3,2.39,2.39,0,0,1,1.18,3.24Z" fill="#263238"/>
        </g>
        <path id="Trazado_148158" data-name="Trazado 148158" d="M162.3,298.43l9.76-18.67c3.24.47,6.48.92,9.72,1.37,6.45.89,30.82,3.88,32.2,3.9a20.27,20.27,0,0,0,7.81-1.7c3.86-1.45,6.72-3.77,9.84-4.41a14.79,14.79,0,0,1,4.39-.2c1.85.13,1.37,1.12,3.2,1.44a2.73,2.73,0,0,1,1.44.57c.7.66.19,1.06-.18,1.6a5.889,5.889,0,0,0-.74,2.22c-.14.67-.69,2.95.26,3.32,4.61,1.79,5.13,4.43,11.11,9.56,2.86,2.45,4.4,4.22,6.33,5.47,1.21,1.83,1.3,3-3,5.52-2.86,1.7-8,5-16.41,2.36-9.16-2.87-13.85-8-16.21-8.11C205.08,301.73,171.41,300.34,162.3,298.43Z" fill="#ffa8a7"/>
        <path id="Trazado_148159" data-name="Trazado 148159" d="M172.06,279.76,147.4,239.33s-4.05-22.59-14.1-23.37c0,0-9.2,2.37-11.3,7.89-2.53,6.68-2.41,13.22,5.14,28,5.7,11.2,21.15,32.31,27.33,39.46,2.5,2.89,5.23,6.28,7.83,7.08" fill="#ffa8a7"/>
        <path id="Trazado_148160" data-name="Trazado 148160" d="M222.12,302.7a6.62,6.62,0,0,1,2.58,1.3,8.64,8.64,0,0,0,4.16-2c4.62-3.37,20.5,3.4,16.59,7.75-2.84,3.16-5.61,4-10.14,2.59C228.63,310.3,221.51,307.25,222.12,302.7Z" fill="#b16668"/>
        <path id="Trazado_148161" data-name="Trazado 148161" d="M237.52,279.28c-5.26.91-10.72,4.75-13.57,5.91s-5.79,1.85-3.17,4.36,9,0,13.41-1.56c3-1.08,6.79,0,8.48.7,1.24.51.58-2.84.58-2.84-1-1.46,11.41,0,11-1.44C247.69,284.69,241.76,278.31,237.52,279.28Z" fill="#b16668"/>
      </g>
    </g>
  </g>
</svg>
